<svg width="1229" height="354" viewBox="0 0 1229 354" fill="none" xmlns="http://www.w3.org/2000/svg">
<rect x="508" width="721" height="294" fill="#3C77E9" fill-opacity="0.54"/>
<rect y="97" width="508" height="223" fill="#F8F8F8"/>
<g clip-path="url(#clip0)">
<path d="M1105.82 351.577H669.632C669.464 351.577 669.304 351.51 669.185 351.392C669.067 351.273 669 351.112 669 350.945C669 350.777 669.067 350.616 669.185 350.498C669.304 350.379 669.464 350.312 669.632 350.312H1105.82C1105.99 350.312 1106.15 350.379 1106.27 350.498C1106.39 350.616 1106.45 350.777 1106.45 350.945C1106.45 351.112 1106.39 351.273 1106.27 351.392C1106.15 351.51 1105.99 351.577 1105.82 351.577Z" fill="#CCCCCC"/>
<path d="M1062.65 241.328H805.991C804.901 241.328 803.856 241.761 803.085 242.531C802.315 243.302 801.882 244.347 801.882 245.437C801.882 246.526 802.315 247.572 803.085 248.342C803.856 249.113 804.901 249.546 805.991 249.546H813.261V347.846C813.261 348.936 813.694 349.981 814.464 350.751C815.235 351.522 816.28 351.955 817.37 351.955C818.459 351.955 819.505 351.522 820.275 350.751C821.046 349.981 821.479 348.936 821.479 347.846L821.541 249.546H1046.53V347.846C1046.53 348.936 1046.96 349.981 1047.73 350.751C1048.5 351.522 1049.55 351.955 1050.64 351.955C1051.72 351.955 1052.77 351.522 1053.54 350.751C1054.31 349.981 1054.74 348.936 1054.74 347.846V251.712L1055.94 249.546H1062.65C1063.74 249.546 1064.78 249.113 1065.55 248.342C1066.32 247.572 1066.76 246.526 1066.76 245.437C1066.76 244.347 1066.32 243.302 1065.55 242.531C1064.78 241.761 1063.74 241.328 1062.65 241.328V241.328Z" fill="#CCCCCC"/>
<path d="M948.283 243.478H870.539C869.034 243.476 867.59 242.877 866.526 241.813C865.462 240.749 864.863 239.305 864.861 237.8V194.997C864.863 193.492 865.462 192.049 866.526 190.984C867.59 189.92 869.034 189.321 870.539 189.319H948.283C949.788 189.321 951.231 189.92 952.296 190.984C953.36 192.049 953.959 193.492 953.961 194.997V237.8C953.959 239.305 953.36 240.749 952.296 241.813C951.231 242.877 949.788 243.476 948.283 243.478V243.478Z" fill="#3F3D56"/>
<path d="M948.282 193.689H870.539C870.193 193.69 869.86 193.828 869.615 194.074C869.37 194.319 869.232 194.651 869.231 194.998V237.801C869.232 238.148 869.37 238.481 869.615 238.726C869.86 238.971 870.193 239.109 870.539 239.11H948.282C948.629 239.109 948.961 238.971 949.207 238.726C949.452 238.481 949.59 238.148 949.591 237.801V194.998C949.59 194.651 949.452 194.319 949.207 194.074C948.961 193.828 948.629 193.69 948.282 193.689V193.689Z" fill="white"/>
<path d="M916.042 223.993C916.042 223.993 906.735 221.849 901.616 225.781C896.497 229.712 908.131 238.648 908.131 238.648L916.042 223.993Z" fill="#2F2E41"/>
<path d="M909.867 219.942C914.715 219.942 918.646 216.011 918.646 211.163C918.646 206.315 914.715 202.384 909.867 202.384C905.018 202.384 901.088 206.315 901.088 211.163C901.088 216.011 905.018 219.942 909.867 219.942Z" fill="#A0616A"/>
<path d="M903.078 198.839C903.664 197.846 904.512 197.033 905.53 196.492C906.549 195.95 907.697 195.7 908.848 195.77C910.052 195.921 911.227 196.25 912.334 196.746L918.073 198.984C919.558 199.564 921.185 200.273 921.829 201.731C922.427 203.084 921.981 204.647 921.529 206.056L919.382 212.752C919.144 211.237 918.736 209.753 918.165 208.329C917.585 206.895 916.537 205.7 915.191 204.938C913.701 204.173 911.944 204.189 910.27 204.27C907.9 204.384 905.323 204.685 903.639 206.357C902.745 207.306 902.139 208.49 901.892 209.77C901.648 211.044 901.525 212.337 901.525 213.634C900.553 211.963 899.735 210.208 899.079 208.39C898.54 207.036 898.233 205.601 898.17 204.145C898.114 202.676 898.601 201.239 899.539 200.107C900.015 199.554 900.636 199.145 901.331 198.926C902.027 198.707 902.771 198.687 903.477 198.868L903.078 198.839Z" fill="#2F2E41"/>
<path d="M930.828 231.606C930.746 231.31 930.578 231.044 930.345 230.843C930.112 230.641 929.825 230.513 929.52 230.475C929.5 230.461 929.478 230.448 929.457 230.437L916.351 223.092C915.977 222.882 915.536 222.825 915.121 222.932C914.705 223.039 914.347 223.302 914.121 223.666L910.536 229.469L905.138 224.071L905.052 223.985C904.775 223.708 904.409 223.537 904.019 223.503C903.628 223.469 903.238 223.574 902.918 223.798L892.147 231.341C892.128 231.341 892.109 231.347 892.09 231.347C891.575 231.433 891.104 231.692 890.755 232.082C890.407 232.471 890.202 232.968 890.174 233.49L889.896 239.11H932.908L930.828 231.606Z" fill="#6C63FF"/>
<path d="M954.834 238.237H946.536C946.536 238.005 946.444 237.783 946.28 237.619C946.116 237.455 945.894 237.363 945.662 237.363H943.042C942.81 237.363 942.588 237.455 942.424 237.619C942.26 237.783 942.168 238.005 942.168 238.237H939.547C939.547 238.005 939.455 237.783 939.292 237.619C939.128 237.455 938.906 237.363 938.674 237.363H936.053C935.822 237.363 935.599 237.455 935.436 237.619C935.272 237.783 935.18 238.005 935.18 238.237H932.559C932.559 238.005 932.467 237.783 932.303 237.619C932.14 237.455 931.917 237.363 931.686 237.363H929.065C928.833 237.363 928.611 237.455 928.447 237.619C928.284 237.783 928.192 238.005 928.192 238.237H925.571C925.571 238.005 925.479 237.783 925.315 237.619C925.151 237.455 924.929 237.363 924.698 237.363H922.077C921.845 237.363 921.623 237.455 921.459 237.619C921.295 237.783 921.203 238.005 921.203 238.237H918.583C918.583 238.005 918.491 237.783 918.327 237.619C918.163 237.455 917.941 237.363 917.709 237.363H915.089C914.857 237.363 914.635 237.455 914.471 237.619C914.307 237.783 914.215 238.005 914.215 238.237H911.595C911.595 238.005 911.503 237.783 911.339 237.619C911.175 237.455 910.953 237.363 910.721 237.363H908.101C907.869 237.363 907.647 237.455 907.483 237.619C907.319 237.783 907.227 238.005 907.227 238.237H904.606C904.606 238.005 904.514 237.783 904.351 237.619C904.187 237.455 903.965 237.363 903.733 237.363H901.112C900.881 237.363 900.659 237.455 900.495 237.619C900.331 237.783 900.239 238.005 900.239 238.237H897.618C897.618 238.005 897.526 237.783 897.362 237.619C897.199 237.455 896.976 237.363 896.745 237.363H894.124C893.893 237.363 893.67 237.455 893.507 237.619C893.343 237.783 893.251 238.005 893.251 238.237H890.63C890.63 238.005 890.538 237.783 890.374 237.619C890.21 237.455 889.988 237.363 889.757 237.363H887.136C886.904 237.363 886.682 237.455 886.518 237.619C886.355 237.783 886.262 238.005 886.262 238.237H883.642C883.642 238.005 883.55 237.783 883.386 237.619C883.222 237.455 883 237.363 882.768 237.363H880.148C879.916 237.363 879.694 237.455 879.53 237.619C879.366 237.783 879.274 238.005 879.274 238.237H876.654C876.654 238.005 876.562 237.783 876.398 237.619C876.234 237.455 876.012 237.363 875.78 237.363H873.16C872.928 237.363 872.706 237.455 872.542 237.619C872.378 237.783 872.286 238.005 872.286 238.237H863.988C863.293 238.238 862.628 238.514 862.137 239.006C861.647 239.497 861.371 240.163 861.371 240.857C861.371 241.552 861.647 242.218 862.137 242.709C862.628 243.2 863.293 243.477 863.988 243.478H954.834C955.529 243.478 956.196 243.202 956.687 242.71C957.179 242.219 957.455 241.552 957.455 240.857C957.455 240.162 957.179 239.496 956.687 239.004C956.196 238.513 955.529 238.237 954.834 238.237V238.237Z" fill="#3F3D56"/>
<path d="M850.479 223.018V240.419H806.884C805.716 240.46 804.552 240.265 803.461 239.846C802.369 239.427 801.374 238.793 800.533 237.981C799.693 237.169 799.024 236.196 798.567 235.12C798.111 234.044 797.875 232.887 797.875 231.719C797.875 230.55 798.111 229.393 798.567 228.317C799.024 227.242 799.693 226.269 800.533 225.457C801.374 224.645 802.369 224.011 803.461 223.592C804.552 223.173 805.716 222.978 806.884 223.018H850.479Z" fill="#F2F2F2"/>
<path d="M851.55 240.285C851.55 240.462 851.479 240.633 851.354 240.758C851.228 240.884 851.058 240.954 850.88 240.954H806.107C803.676 240.954 801.344 239.988 799.624 238.269C797.905 236.549 796.939 234.217 796.939 231.785C796.939 229.354 797.905 227.022 799.624 225.302C801.344 223.583 803.676 222.617 806.107 222.617H850.88C851.058 222.617 851.228 222.687 851.354 222.813C851.479 222.938 851.55 223.108 851.55 223.286C851.55 223.463 851.479 223.634 851.354 223.759C851.228 223.885 851.058 223.955 850.88 223.955H806.107C804.032 223.957 802.042 224.783 800.575 226.251C799.108 227.719 798.284 229.71 798.284 231.785C798.284 233.861 799.108 235.852 800.575 237.32C802.042 238.788 804.032 239.614 806.107 239.616H850.88C851.058 239.616 851.228 239.686 851.354 239.812C851.479 239.937 851.55 240.107 851.55 240.285V240.285Z" fill="#6C63FF"/>
<path d="M850.479 227.034H803.631C803.613 227.034 803.596 227.031 803.58 227.024C803.563 227.017 803.548 227.007 803.536 226.995C803.523 226.983 803.513 226.968 803.507 226.951C803.5 226.935 803.496 226.918 803.496 226.9C803.496 226.882 803.5 226.865 803.507 226.849C803.513 226.832 803.523 226.817 803.536 226.805C803.548 226.793 803.563 226.783 803.58 226.776C803.596 226.769 803.613 226.766 803.631 226.766H850.479C850.514 226.766 850.548 226.781 850.573 226.806C850.598 226.831 850.612 226.865 850.612 226.9C850.612 226.935 850.598 226.969 850.573 226.994C850.548 227.019 850.514 227.034 850.479 227.034V227.034Z" fill="#CCCCCC"/>
<path d="M850.479 230.246H803.631C803.613 230.246 803.596 230.243 803.58 230.236C803.563 230.23 803.548 230.22 803.536 230.207C803.523 230.195 803.513 230.18 803.507 230.164C803.5 230.147 803.496 230.13 803.496 230.112C803.496 230.095 803.5 230.077 803.507 230.061C803.513 230.045 803.523 230.03 803.536 230.017C803.548 230.005 803.563 229.995 803.58 229.988C803.596 229.982 803.613 229.978 803.631 229.979H850.479C850.514 229.979 850.548 229.993 850.573 230.018C850.598 230.043 850.612 230.077 850.612 230.112C850.612 230.148 850.598 230.182 850.573 230.207C850.548 230.232 850.514 230.246 850.479 230.246V230.246Z" fill="#CCCCCC"/>
<path d="M850.479 233.459H803.631C803.613 233.459 803.596 233.455 803.58 233.449C803.563 233.442 803.548 233.432 803.536 233.42C803.523 233.407 803.513 233.393 803.507 233.376C803.5 233.36 803.496 233.342 803.496 233.325C803.496 233.307 803.5 233.29 803.507 233.273C803.513 233.257 803.523 233.242 803.536 233.23C803.548 233.217 803.563 233.208 803.58 233.201C803.596 233.194 803.613 233.191 803.631 233.191H850.479C850.514 233.191 850.548 233.205 850.573 233.23C850.598 233.256 850.612 233.289 850.612 233.325C850.612 233.36 850.598 233.394 850.573 233.419C850.548 233.444 850.514 233.458 850.479 233.459V233.459Z" fill="#CCCCCC"/>
<path d="M850.479 236.671H803.631C803.613 236.671 803.596 236.668 803.58 236.661C803.563 236.654 803.548 236.645 803.536 236.632C803.523 236.62 803.513 236.605 803.507 236.589C803.5 236.572 803.496 236.555 803.496 236.537C803.496 236.52 803.5 236.502 803.507 236.486C803.513 236.469 803.523 236.455 803.536 236.442C803.548 236.43 803.563 236.42 803.58 236.413C803.596 236.407 803.613 236.403 803.631 236.403H850.479C850.514 236.404 850.548 236.418 850.573 236.443C850.598 236.468 850.612 236.502 850.612 236.537C850.612 236.573 850.598 236.606 850.573 236.632C850.548 236.657 850.514 236.671 850.479 236.671Z" fill="#CCCCCC"/>
<path d="M842.261 204.686V222.086H798.666C797.498 222.127 796.334 221.932 795.242 221.513C794.151 221.094 793.156 220.46 792.315 219.648C791.475 218.836 790.806 217.863 790.349 216.787C789.893 215.712 789.657 214.555 789.657 213.386C789.657 212.218 789.893 211.061 790.349 209.985C790.806 208.909 791.475 207.936 792.315 207.124C793.156 206.312 794.151 205.678 795.242 205.259C796.334 204.84 797.498 204.645 798.666 204.686H842.261Z" fill="#F2F2F2"/>
<path d="M843.332 221.952C843.332 222.13 843.261 222.3 843.136 222.426C843.01 222.551 842.84 222.622 842.662 222.622H797.889C796.685 222.622 795.493 222.385 794.381 221.924C793.268 221.463 792.258 220.788 791.406 219.936C790.555 219.085 789.879 218.074 789.419 216.962C788.958 215.849 788.721 214.657 788.721 213.453C788.721 212.249 788.958 211.057 789.419 209.944C789.879 208.832 790.555 207.821 791.406 206.97C792.258 206.118 793.268 205.443 794.381 204.982C795.493 204.521 796.685 204.284 797.889 204.284H842.662C842.84 204.284 843.01 204.355 843.136 204.48C843.261 204.606 843.332 204.776 843.332 204.953C843.332 205.131 843.261 205.301 843.136 205.427C843.01 205.552 842.84 205.623 842.662 205.623H797.889C795.814 205.625 793.824 206.45 792.357 207.919C790.89 209.387 790.066 211.377 790.066 213.453C790.066 215.528 790.89 217.519 792.357 218.987C793.824 220.456 795.814 221.281 797.889 221.283H842.662C842.84 221.283 843.01 221.354 843.136 221.479C843.261 221.605 843.332 221.775 843.332 221.952V221.952Z" fill="#3F3D56"/>
<path d="M842.261 208.701H795.413C795.395 208.701 795.378 208.698 795.362 208.691C795.345 208.685 795.33 208.675 795.318 208.662C795.305 208.65 795.295 208.635 795.289 208.619C795.282 208.603 795.278 208.585 795.278 208.567C795.278 208.55 795.282 208.532 795.289 208.516C795.295 208.5 795.305 208.485 795.318 208.472C795.33 208.46 795.345 208.45 795.362 208.444C795.378 208.437 795.395 208.433 795.413 208.434H842.261C842.296 208.434 842.33 208.448 842.355 208.473C842.38 208.498 842.394 208.532 842.394 208.567C842.394 208.603 842.38 208.637 842.355 208.662C842.33 208.687 842.296 208.701 842.261 208.701V208.701Z" fill="#CCCCCC"/>
<path d="M842.261 211.914H795.413C795.395 211.914 795.378 211.91 795.362 211.904C795.345 211.897 795.33 211.887 795.318 211.875C795.305 211.862 795.295 211.848 795.289 211.831C795.282 211.815 795.278 211.798 795.278 211.78C795.278 211.762 795.282 211.745 795.289 211.728C795.295 211.712 795.305 211.697 795.318 211.685C795.33 211.672 795.345 211.663 795.362 211.656C795.378 211.649 795.395 211.646 795.413 211.646H842.261C842.296 211.646 842.33 211.66 842.355 211.686C842.38 211.711 842.394 211.745 842.394 211.78C842.394 211.815 842.38 211.849 842.355 211.874C842.33 211.899 842.296 211.913 842.261 211.914V211.914Z" fill="#CCCCCC"/>
<path d="M842.261 215.126H795.413C795.395 215.126 795.378 215.123 795.362 215.116C795.345 215.109 795.33 215.1 795.318 215.087C795.305 215.075 795.295 215.06 795.289 215.044C795.282 215.027 795.278 215.01 795.278 214.992C795.278 214.975 795.282 214.957 795.289 214.941C795.295 214.925 795.305 214.91 795.318 214.897C795.33 214.885 795.345 214.875 795.362 214.868C795.378 214.862 795.395 214.858 795.413 214.858H842.261C842.296 214.859 842.33 214.873 842.355 214.898C842.38 214.923 842.394 214.957 842.394 214.992C842.394 215.028 842.38 215.061 842.355 215.087C842.33 215.112 842.296 215.126 842.261 215.126V215.126Z" fill="#CCCCCC"/>
<path d="M842.261 218.339H795.413C795.395 218.339 795.378 218.335 795.362 218.329C795.345 218.322 795.33 218.312 795.318 218.3C795.305 218.287 795.295 218.272 795.289 218.256C795.282 218.24 795.278 218.222 795.278 218.205C795.278 218.187 795.282 218.17 795.289 218.153C795.295 218.137 795.305 218.122 795.318 218.11C795.33 218.097 795.345 218.087 795.362 218.081C795.378 218.074 795.395 218.071 795.413 218.071H842.261C842.296 218.071 842.33 218.085 842.355 218.11C842.38 218.135 842.394 218.169 842.394 218.205C842.394 218.24 842.38 218.274 842.355 218.299C842.33 218.324 842.296 218.338 842.261 218.339Z" fill="#CCCCCC"/>
<path d="M892.975 302.268V287.096C892.975 286.426 892.708 285.783 892.234 285.308C891.76 284.834 891.117 284.568 890.446 284.568H832.92C832.249 284.568 831.606 284.834 831.132 285.308C830.658 285.783 830.391 286.426 830.391 287.096V302.268H892.975Z" fill="#CCCCCC"/>
<path d="M892.975 307.958H830.391V327.555H892.975V307.958Z" fill="#CCCCCC"/>
<path d="M830.391 333.244V348.416C830.391 349.087 830.658 349.73 831.132 350.204C831.606 350.678 832.249 350.945 832.92 350.945H890.446C891.117 350.945 891.76 350.678 892.234 350.204C892.708 349.73 892.975 349.087 892.975 348.416V333.244H830.391Z" fill="#CCCCCC"/>
<path d="M861.367 295.947C862.414 295.947 863.263 295.098 863.263 294.05C863.263 293.003 862.414 292.154 861.367 292.154C860.32 292.154 859.47 293.003 859.47 294.05C859.47 295.098 860.32 295.947 861.367 295.947Z" fill="white"/>
<path d="M861.367 321.233C862.414 321.233 863.263 320.384 863.263 319.336C863.263 318.289 862.414 317.44 861.367 317.44C860.32 317.44 859.47 318.289 859.47 319.336C859.47 320.384 860.32 321.233 861.367 321.233Z" fill="white"/>
<path d="M861.469 345.984C862.516 345.984 863.365 345.135 863.365 344.087C863.365 343.04 862.516 342.191 861.469 342.191C860.421 342.191 859.572 343.04 859.572 344.087C859.572 345.135 860.421 345.984 861.469 345.984Z" fill="white"/>
<path d="M885.88 267.269V284.67H842.285C841.117 284.711 839.952 284.516 838.861 284.097C837.77 283.678 836.775 283.043 835.934 282.232C835.093 281.42 834.425 280.447 833.968 279.371C833.512 278.295 833.276 277.138 833.276 275.97C833.276 274.801 833.512 273.644 833.968 272.568C834.425 271.493 835.093 270.52 835.934 269.708C836.775 268.896 837.77 268.262 838.861 267.843C839.952 267.424 841.117 267.229 842.285 267.269H885.88Z" fill="#F2F2F2"/>
<path d="M886.95 284.536C886.95 284.713 886.88 284.884 886.754 285.009C886.629 285.135 886.459 285.205 886.281 285.205H841.508C840.303 285.206 839.11 284.97 837.997 284.509C836.884 284.049 835.872 283.374 835.02 282.522C834.168 281.671 833.492 280.66 833.03 279.547C832.569 278.434 832.332 277.241 832.332 276.036C832.332 274.832 832.569 273.639 833.03 272.526C833.492 271.413 834.168 270.402 835.02 269.55C835.872 268.699 836.884 268.024 837.997 267.563C839.11 267.103 840.303 266.867 841.508 266.868H886.281C886.459 266.868 886.629 266.938 886.754 267.064C886.88 267.189 886.95 267.359 886.95 267.537C886.95 267.714 886.88 267.885 886.754 268.01C886.629 268.136 886.459 268.206 886.281 268.206H841.508C839.433 268.208 837.443 269.034 835.976 270.502C834.509 271.97 833.685 273.961 833.685 276.036C833.685 278.112 834.509 280.102 835.976 281.571C837.443 283.039 839.433 283.865 841.508 283.867H886.281C886.459 283.867 886.629 283.937 886.754 284.063C886.88 284.188 886.95 284.358 886.95 284.536V284.536Z" fill="#3F3D56"/>
<path d="M885.879 271.285H839.032C839.014 271.285 838.997 271.282 838.98 271.275C838.964 271.268 838.949 271.258 838.936 271.246C838.924 271.233 838.914 271.219 838.907 271.202C838.9 271.186 838.897 271.169 838.897 271.151C838.897 271.133 838.9 271.116 838.907 271.099C838.914 271.083 838.924 271.068 838.936 271.056C838.949 271.044 838.964 271.034 838.98 271.027C838.997 271.02 839.014 271.017 839.032 271.017H885.879C885.915 271.017 885.949 271.032 885.973 271.057C885.998 271.082 886.012 271.116 886.012 271.151C886.012 271.186 885.998 271.22 885.973 271.245C885.949 271.27 885.915 271.285 885.879 271.285V271.285Z" fill="#CCCCCC"/>
<path d="M885.879 274.497H839.032C839.014 274.497 838.997 274.494 838.98 274.487C838.964 274.481 838.949 274.471 838.936 274.458C838.924 274.446 838.914 274.431 838.907 274.415C838.9 274.398 838.897 274.381 838.897 274.363C838.897 274.346 838.9 274.328 838.907 274.312C838.914 274.296 838.924 274.281 838.936 274.268C838.949 274.256 838.964 274.246 838.98 274.239C838.997 274.233 839.014 274.229 839.032 274.229H885.879C885.915 274.23 885.949 274.244 885.973 274.269C885.998 274.294 886.012 274.328 886.012 274.363C886.012 274.399 885.998 274.433 885.973 274.458C885.949 274.483 885.915 274.497 885.879 274.497V274.497Z" fill="#CCCCCC"/>
<path d="M885.879 277.71H839.032C839.014 277.71 838.997 277.706 838.98 277.7C838.964 277.693 838.949 277.683 838.936 277.671C838.924 277.658 838.914 277.643 838.907 277.627C838.9 277.611 838.897 277.593 838.897 277.576C838.897 277.558 838.9 277.541 838.907 277.524C838.914 277.508 838.924 277.493 838.936 277.481C838.949 277.468 838.964 277.458 838.98 277.452C838.997 277.445 839.014 277.442 839.032 277.442H885.879C885.915 277.442 885.949 277.456 885.973 277.481C885.998 277.506 886.012 277.54 886.012 277.576C886.012 277.611 885.998 277.645 885.973 277.67C885.949 277.695 885.915 277.709 885.879 277.71V277.71Z" fill="#CCCCCC"/>
<path d="M885.879 280.922H839.032C839.014 280.922 838.997 280.919 838.98 280.912C838.964 280.905 838.949 280.896 838.936 280.883C838.924 280.871 838.914 280.856 838.907 280.84C838.9 280.823 838.897 280.806 838.897 280.788C838.897 280.77 838.9 280.753 838.907 280.737C838.914 280.72 838.924 280.706 838.936 280.693C838.949 280.681 838.964 280.671 838.98 280.664C838.997 280.658 839.014 280.654 839.032 280.654H885.879C885.915 280.655 885.949 280.669 885.973 280.694C885.998 280.719 886.012 280.753 886.012 280.788C886.012 280.823 885.998 280.857 885.973 280.882C885.949 280.908 885.915 280.922 885.879 280.922V280.922Z" fill="#CCCCCC"/>
<path d="M827.109 153.698V42.7547C827.11 41.4941 827.611 40.2856 828.503 39.3942C829.394 38.5028 830.603 38.0014 831.863 38H919.561C920.822 38.0014 922.031 38.5029 922.922 39.3942C923.813 40.2856 924.315 41.4941 924.316 42.7547V153.698C924.315 154.959 923.813 156.167 922.922 157.059C922.031 157.95 920.822 158.451 919.561 158.453H831.863C830.603 158.451 829.394 157.95 828.503 157.059C827.611 156.167 827.11 154.959 827.109 153.698V153.698ZM831.863 39.0566C830.883 39.0577 829.943 39.4477 829.25 40.141C828.556 40.8343 828.166 41.7743 828.165 42.7547V153.698C828.166 154.679 828.556 155.619 829.25 156.312C829.943 157.005 830.883 157.395 831.863 157.396H919.561C920.542 157.395 921.482 157.005 922.175 156.312C922.868 155.619 923.258 154.679 923.26 153.698V42.7547C923.258 41.7743 922.868 40.8343 922.175 40.141C921.482 39.4477 920.542 39.0577 919.561 39.0566H831.863Z" fill="#E6E6E6"/>
<path d="M880.63 88.9505V66.1703C880.631 65.54 880.882 64.9358 881.327 64.4901C881.773 64.0444 882.377 63.7937 883.008 63.793H902.312C902.942 63.7937 903.546 64.0444 903.992 64.4901C904.438 64.9358 904.689 65.54 904.689 66.1703V88.9505C904.689 89.5808 904.438 90.1851 903.992 90.6308C903.546 91.0765 902.942 91.3272 902.312 91.3279H883.008C882.377 91.3272 881.773 91.0765 881.327 90.6308C880.882 90.1851 880.631 89.5808 880.63 88.9505V88.9505Z" fill="#6C63FF"/>
<path d="M843.121 99.5164V76.7362C843.122 76.1059 843.372 75.5016 843.818 75.056C844.264 74.6103 844.868 74.3596 845.498 74.3589H864.802C865.433 74.3596 866.037 74.6103 866.483 75.056C866.928 75.5016 867.179 76.1059 867.18 76.7362V99.5164C867.179 100.147 866.928 100.751 866.483 101.197C866.037 101.642 865.433 101.893 864.802 101.894H845.498C844.868 101.893 844.264 101.642 843.818 101.197C843.372 100.751 843.122 100.147 843.121 99.5164V99.5164Z" fill="#CCCCCC"/>
<path d="M873.234 131.743V108.963C873.235 108.333 873.486 107.728 873.931 107.283C874.377 106.837 874.981 106.586 875.611 106.585H894.916C895.546 106.586 896.15 106.837 896.596 107.283C897.042 107.728 897.292 108.333 897.293 108.963V131.743C897.292 132.373 897.042 132.978 896.596 133.423C896.15 133.869 895.546 134.12 894.916 134.12H875.611C874.981 134.12 874.377 133.869 873.931 133.423C873.486 132.978 873.235 132.373 873.234 131.743V131.743Z" fill="#FF6584"/>
<path d="M988.595 235.892H968.732C968.544 235.892 968.358 235.935 968.189 236.018L963.176 238.528C963.011 238.598 962.87 238.715 962.771 238.865C962.672 239.014 962.619 239.189 962.619 239.369C962.619 239.548 962.672 239.723 962.771 239.873C962.87 240.022 963.011 240.139 963.176 240.21L968.189 242.719C968.358 242.802 968.544 242.846 968.732 242.846H988.595C988.868 242.861 989.137 242.769 989.343 242.588C989.549 242.407 989.675 242.152 989.695 241.878V236.859C989.675 236.586 989.549 236.331 989.343 236.15C989.137 235.969 988.868 235.876 988.595 235.892Z" fill="#3F3D56"/>
<path d="M989.695 236.859V241.878C989.675 242.152 989.549 242.407 989.343 242.588C989.137 242.769 988.868 242.861 988.595 242.846H984.637V235.892H988.595C988.868 235.876 989.137 235.969 989.343 236.15C989.549 236.331 989.675 236.586 989.695 236.859V236.859Z" fill="#6C63FF"/>
<path d="M988.445 198.342C989.345 197.953 990.316 197.76 991.296 197.773C992.276 197.787 993.242 198.007 994.131 198.419C995.019 198.832 995.811 199.428 996.453 200.168C997.096 200.908 997.574 201.775 997.858 202.713C997.947 203.01 998.014 203.313 998.061 203.62L1025.84 217.393L1032.26 213.134L1040.26 222.341L1030.45 230.313C1029.27 231.264 1027.81 231.809 1026.3 231.867C1024.78 231.926 1023.29 231.494 1022.04 230.637L993.858 211.149C993.648 211.238 993.434 211.316 993.216 211.383C992.278 211.666 991.291 211.749 990.319 211.624C989.347 211.5 988.412 211.171 987.576 210.66C986.74 210.149 986.021 209.467 985.467 208.659C984.912 207.851 984.535 206.935 984.36 205.971C984.308 205.691 984.273 205.408 984.257 205.124C984.179 203.701 984.538 202.288 985.287 201.076C986.036 199.863 987.138 198.909 988.445 198.342V198.342Z" fill="#FFB8B8"/>
<path d="M1046.3 283.145H1015.95C1015.95 284.017 984.668 284.725 984.668 284.725C984.177 285.095 983.729 285.519 983.334 285.989C982.146 287.406 981.497 289.197 981.501 291.046V292.311C981.501 294.406 982.334 296.416 983.816 297.897C985.297 299.379 987.307 300.212 989.402 300.213H1046.3C1048.39 300.211 1050.4 299.378 1051.88 297.896C1053.36 296.415 1054.2 294.406 1054.2 292.311V291.046C1054.2 288.952 1053.36 286.943 1051.88 285.462C1050.4 283.981 1048.39 283.147 1046.3 283.145V283.145Z" fill="#3F3D56"/>
<path d="M1013.28 353H1021.5V299.899H1013.28V353Z" fill="#3F3D56"/>
<path d="M989.893 352.712C989.893 353.599 1002.35 353.055 1017.71 353.055C1033.07 353.055 1045.52 353.599 1045.52 352.712C1045.52 351.824 1033.07 344.782 1017.71 344.782C1002.35 344.782 989.893 351.824 989.893 352.712Z" fill="#3F3D56"/>
<path d="M997.312 346.488L989.562 346.487L985.875 326.386L997.313 326.387L997.312 346.488Z" fill="#FFB8B8"/>
<path d="M999.289 354L974.299 353.999V353.683C974.299 352.406 974.551 351.141 975.04 349.961C975.529 348.781 976.245 347.708 977.148 346.805C978.051 345.902 979.124 345.186 980.304 344.697C981.484 344.208 982.749 343.957 984.026 343.957H984.027L999.289 343.957L999.289 354Z" fill="#2F2E41"/>
<path d="M985.721 334.023L970.27 299.376C968.98 296.456 968.838 293.157 969.871 290.136C970.904 287.115 973.037 284.595 975.845 283.076L1009.36 265.105L1024.65 263.805L1038.76 262.522L1038.86 262.695C1038.99 262.914 1042.02 268.153 1039.97 273.898C1038.42 278.255 1034.37 281.658 1027.95 284.013C1012.96 289.51 995.64 294.208 988.89 295.972C988.592 296.049 988.313 296.187 988.072 296.379C987.831 296.571 987.633 296.811 987.492 297.085C987.35 297.355 987.266 297.652 987.245 297.957C987.224 298.261 987.265 298.567 987.368 298.854L1001.72 331.103C1001.87 331.512 1001.93 331.95 1001.88 332.384C1001.83 332.817 1001.69 333.233 1001.46 333.602C1001.22 333.97 1000.91 334.28 1000.54 334.508C1000.17 334.735 999.748 334.875 999.314 334.915L988.588 335.696C988.497 335.704 988.407 335.709 988.316 335.709C987.767 335.709 987.23 335.549 986.769 335.25C986.308 334.951 985.944 334.525 985.721 334.023V334.023Z" fill="#2F2E41"/>
<path d="M1001.1 346.488L993.355 346.487L989.668 326.386L1001.11 326.387L1001.1 346.488Z" fill="#FFB8B8"/>
<path d="M1003.08 354L978.092 353.999V353.683C978.092 352.406 978.344 351.141 978.833 349.961C979.321 348.781 980.038 347.708 980.941 346.805C981.844 345.902 982.917 345.186 984.097 344.697C985.277 344.208 986.542 343.957 987.819 343.957H987.82L1003.08 343.957L1003.08 354Z" fill="#2F2E41"/>
<path d="M990.146 335.919L974.695 301.272C973.405 298.352 973.263 295.053 974.296 292.033C975.329 289.012 977.462 286.491 980.27 284.973L1013.78 267.002L1029.08 265.701L1043.18 264.419L1043.28 264.591C1043.41 264.811 1046.45 270.05 1044.4 275.794C1042.84 280.151 1038.8 283.555 1032.37 285.91C1017.38 291.407 1000.06 296.105 993.315 297.869C993.017 297.945 992.738 298.084 992.497 298.275C992.256 298.467 992.058 298.708 991.917 298.981C991.775 299.252 991.691 299.549 991.67 299.853C991.649 300.158 991.69 300.463 991.793 300.751L1006.15 333C1006.3 333.409 1006.35 333.847 1006.3 334.28C1006.26 334.713 1006.11 335.13 1005.88 335.498C1005.65 335.867 1005.33 336.176 1004.96 336.404C1004.59 336.632 1004.17 336.771 1003.74 336.811L993.013 337.592C992.922 337.601 992.832 337.605 992.742 337.605C992.192 337.605 991.655 337.446 991.194 337.147C990.733 336.847 990.369 336.421 990.146 335.919V335.919Z" fill="#2F2E41"/>
<path d="M982.445 230.077C975.952 221.441 970.82 211.862 967.225 201.673C967.017 201.064 967.032 200.4 967.267 199.801C967.502 199.201 967.943 198.705 968.51 198.399L990.727 186.495C991.087 186.301 991.485 186.191 991.894 186.175C992.302 186.158 992.708 186.235 993.082 186.399C993.463 186.565 993.801 186.815 994.071 187.131C994.341 187.447 994.535 187.82 994.638 188.222C997.224 198.041 1002.08 207.112 1008.83 214.704C1009.1 215.013 1009.31 215.381 1009.42 215.78C1009.54 216.18 1009.56 216.6 1009.48 217.009C1009.41 217.411 1009.25 217.792 1009.01 218.123C1008.77 218.453 1008.46 218.725 1008.1 218.917L985.882 230.821C985.314 231.124 984.657 231.216 984.027 231.08C983.398 230.943 982.837 230.588 982.445 230.077V230.077Z" fill="#CCCCCC"/>
<path d="M983.961 228.938C984.08 229.087 984.248 229.19 984.435 229.228C984.622 229.267 984.817 229.239 984.986 229.149L1007.2 217.245C1007.31 217.188 1007.4 217.108 1007.48 217.01C1007.55 216.911 1007.6 216.798 1007.62 216.678C1007.64 216.551 1007.63 216.421 1007.6 216.297C1007.56 216.173 1007.5 216.059 1007.41 215.965C1000.47 208.15 995.466 198.811 992.803 188.703C992.773 188.578 992.713 188.462 992.63 188.364C992.547 188.266 992.442 188.188 992.324 188.137C992.213 188.087 992.092 188.064 991.97 188.069C991.848 188.074 991.729 188.107 991.622 188.166L969.405 200.071C969.237 200.161 969.106 200.308 969.034 200.486C968.963 200.663 968.956 200.86 969.014 201.042C972.544 211.049 977.584 220.456 983.961 228.938V228.938Z" fill="white"/>
<path d="M1056.25 226.901L1038.85 233.513L1034.61 221.713C1034.04 220.146 1034.05 218.43 1034.63 216.869C1035.21 215.307 1036.32 214 1037.77 213.179V213.179C1039.23 212.349 1040.95 212.07 1042.6 212.393C1044.26 212.715 1045.74 213.619 1046.78 214.94L1056.25 226.901Z" fill="#6C63FF"/>
<path d="M1012 273.656C1011.63 273.397 1011.32 273.063 1011.1 272.676C1010.87 272.289 1010.73 271.858 1010.68 271.412C1008.45 250.608 1010 234.327 1015.42 221.64C1016.38 219.451 1017.82 217.508 1019.63 215.955C1021.45 214.403 1023.59 213.281 1025.9 212.676L1039.96 211.966L1040.04 212.001C1043.21 213.556 1045.8 216.092 1047.42 219.233C1049.04 222.375 1049.6 225.954 1049.02 229.441C1044.5 241.366 1040.71 253.781 1043.6 263.796C1043.72 264.215 1043.76 264.654 1043.71 265.087C1043.65 265.519 1043.51 265.937 1043.3 266.315C1043.08 266.68 1042.8 266.997 1042.46 267.248C1042.12 267.499 1041.74 267.678 1041.33 267.774L1014.54 274.147C1014.1 274.25 1013.65 274.26 1013.21 274.175C1012.78 274.09 1012.36 273.913 1012 273.656Z" fill="#6C63FF"/>
<path d="M1035.27 206.712C1043.84 206.712 1050.79 199.761 1050.79 191.186C1050.79 182.611 1043.84 175.66 1035.27 175.66C1026.69 175.66 1019.74 182.611 1019.74 191.186C1019.74 199.761 1026.69 206.712 1035.27 206.712Z" fill="#FFB8B8"/>
<path d="M992.185 203.484L980.085 208.825C979.625 209.028 979.103 209.039 978.634 208.858C978.165 208.676 977.788 208.316 977.584 207.856L977.285 207.178C977.082 206.718 977.071 206.196 977.252 205.727C977.434 205.258 977.794 204.881 978.254 204.677L990.354 199.336C990.815 199.133 991.336 199.121 991.805 199.303C992.274 199.485 992.652 199.845 992.855 200.305L993.155 200.983C993.357 201.443 993.369 201.965 993.187 202.434C993.005 202.902 992.645 203.28 992.185 203.484V203.484Z" fill="#CCCCCC"/>
<path d="M996.611 211.701L984.51 217.043C984.05 217.245 983.528 217.257 983.059 217.075C982.59 216.894 982.213 216.533 982.009 216.074L981.71 215.396C981.507 214.935 981.496 214.414 981.677 213.945C981.859 213.476 982.219 213.098 982.679 212.895L994.78 207.553C995.24 207.351 995.762 207.339 996.23 207.521C996.699 207.703 997.077 208.063 997.28 208.523L997.58 209.201C997.782 209.661 997.794 210.182 997.612 210.651C997.431 211.12 997.07 211.498 996.611 211.701V211.701Z" fill="#CCCCCC"/>
<path d="M1005.94 243.8L978.965 222.518C978.751 222.594 978.532 222.658 978.31 222.711C977.358 222.934 976.37 222.954 975.41 222.77C974.449 222.586 973.538 222.201 972.736 221.642C971.929 221.083 971.25 220.357 970.746 219.514C970.241 218.671 969.923 217.73 969.812 216.753C969.631 215.193 969.982 213.617 970.81 212.282C971.637 210.946 972.891 209.929 974.369 209.396C975.291 209.065 976.273 208.933 977.25 209.008C978.227 209.083 979.177 209.364 980.038 209.832C980.899 210.299 981.651 210.944 982.246 211.722C982.841 212.501 983.264 213.397 983.488 214.351C983.558 214.653 983.606 214.96 983.633 215.269L1010.49 230.761L1017.17 226.914L1024.57 236.606L1014.2 244.002C1012.98 244.86 1011.52 245.304 1010.04 245.268C1008.55 245.232 1007.11 244.717 1005.94 243.8V243.8Z" fill="#FFB8B8"/>
<path d="M1027.87 239.624L1012.47 229.158L1019.71 218.912C1020.67 217.552 1022.08 216.575 1023.69 216.154C1025.3 215.733 1027.01 215.895 1028.51 216.611V216.611C1030.03 217.336 1031.24 218.581 1031.93 220.121C1032.61 221.661 1032.72 223.394 1032.24 225.008L1027.87 239.624Z" fill="#6C63FF"/>
<path d="M1029.58 188.873C1025.59 191.605 1020.35 194.412 1016.27 191.504C1013.59 189.594 1012.75 186.057 1013.84 182.954C1015.79 177.373 1021.15 174.916 1026.28 173.032C1032.94 170.584 1040.2 168.636 1047.08 170.39C1053.96 172.143 1060.04 178.805 1058.8 185.797C1057.8 191.42 1052.5 196.098 1053.25 201.759C1054.01 207.456 1060.42 210.455 1066.07 211.473C1071.73 212.491 1078.06 212.818 1082.12 216.881C1087.31 222.064 1086.02 231.328 1081.14 236.8C1076.26 242.272 1068.89 244.753 1061.76 246.439C1052.3 248.673 1042.08 249.847 1033.1 246.139C1024.12 242.432 1017.14 232.45 1019.74 223.091C1020.83 219.138 1023.42 215.797 1025.92 212.544C1028.43 209.291 1030.96 205.89 1031.91 201.899C1032.71 198.574 1032.12 194.712 1029.91 192.218C1029.51 191.781 1029.26 191.229 1029.19 190.64C1029.12 190.051 1029.25 189.455 1029.54 188.939L1029.58 188.873Z" fill="#2F2E41"/>
<path d="M737.951 264.311C733.95 265.717 729.654 266.07 725.478 265.334C721.301 264.598 717.385 262.799 714.105 260.11C705.753 253.1 703.134 241.551 701.004 230.857C698.903 220.314 696.802 209.77 694.702 199.227L707.896 208.312C717.384 214.845 727.086 221.588 733.656 231.051C740.226 240.515 743.094 253.433 737.815 263.673" fill="#E6E6E6"/>
<path d="M736.823 302.606C738.158 292.879 739.531 283.026 738.595 273.195C737.763 264.463 735.099 255.935 729.676 248.943C726.797 245.238 723.294 242.064 719.325 239.563C718.29 238.91 717.337 240.55 718.368 241.201C725.236 245.541 730.548 251.951 733.539 259.506C736.842 267.907 737.372 277.064 736.803 285.989C736.459 291.386 735.729 296.747 734.994 302.102C734.936 302.344 734.972 302.599 735.095 302.815C735.218 303.032 735.419 303.194 735.656 303.268C735.899 303.333 736.157 303.301 736.376 303.177C736.594 303.053 736.755 302.847 736.823 302.606H736.823Z" fill="#F2F2F2"/>
<path d="M723.96 285.393C722.244 288.001 719.886 290.123 717.112 291.555C714.338 292.987 711.242 293.68 708.122 293.568C700.104 293.187 693.42 287.591 687.403 282.279L669.605 266.565L681.384 266.001C689.855 265.596 698.544 265.218 706.612 267.83C714.68 270.442 722.121 276.729 723.596 285.08" fill="#E6E6E6"/>
<path d="M740.597 308.198C734.169 296.824 726.714 284.184 713.392 280.144C709.688 279.025 705.804 278.624 701.949 278.963C700.735 279.068 701.038 280.94 702.251 280.836C708.712 280.299 715.161 282.006 720.511 285.667C725.66 289.172 729.669 294.044 733.062 299.211C735.141 302.376 737.002 305.675 738.864 308.97C739.46 310.023 741.199 309.263 740.597 308.198V308.198Z" fill="#F2F2F2"/>
<path d="M750.896 320.169C750.679 317.66 749.778 315.258 748.291 313.225C746.804 311.192 744.787 309.606 742.461 308.64V302.065H731.433V308.848C729.221 309.861 727.318 311.443 725.917 313.432C724.516 315.42 723.667 317.745 723.458 320.169L720.865 350.312H753.489L750.896 320.169Z" fill="#F2F2F2"/>
</g>
<defs>
<clipPath id="clip0">
<rect width="437.452" height="316" fill="white" transform="translate(669 38)"/>
</clipPath>
</defs>
</svg>
