<svg width="163" height="115" viewBox="0 0 163 115" fill="none" xmlns="http://www.w3.org/2000/svg">
<g clip-path="url(#clip0_41:316)">
<path d="M36.0392 11.4707H25.6674C24.6703 11.4716 23.7143 11.8677 23.0092 12.5722C22.3041 13.2767 21.9076 14.232 21.9067 15.2283V26.4636C21.7741 26.4557 21.6415 26.4438 21.5108 26.428C19.0537 26.1697 16.7176 25.2307 14.766 23.7168C12.8143 22.2029 11.3248 20.1744 10.4653 17.8599C9.60577 15.5454 9.41046 13.0371 9.90137 10.6176C10.3923 8.19818 11.5499 5.96388 13.2437 4.16662C14.9375 2.36936 17.1001 1.08063 19.4877 0.445722C21.8753 -0.189187 24.393 -0.145022 26.7568 0.573239C29.1206 1.2915 31.2366 2.65529 32.8662 4.51085C34.4959 6.36641 35.5743 8.63994 35.9799 11.0751C36.0016 11.2056 36.0214 11.3382 36.0392 11.4707Z" fill="#F2F2F2"/>
<path d="M158.482 11.0751H25.6674C24.5654 11.0763 23.5088 11.5143 22.7296 12.2929C21.9503 13.0715 21.512 14.1272 21.5108 15.2283V85.2388C21.512 86.3399 21.9503 87.3956 22.7296 88.1742C23.5088 88.9528 24.5654 89.3908 25.6674 89.392H158.482C159.584 89.3908 160.64 88.9528 161.419 88.1742C162.199 87.3956 162.637 86.3399 162.638 85.2388V15.2283C162.637 14.1272 162.199 13.0715 161.419 12.2929C160.64 11.5143 159.584 11.0763 158.482 11.0751ZM162.242 85.2388C162.242 86.2351 161.845 87.1904 161.14 87.8949C160.435 88.5993 159.479 88.9955 158.482 88.9964H25.6674C24.6703 88.9955 23.7143 88.5993 23.0092 87.8949C22.3041 87.1904 21.9076 86.2351 21.9067 85.2388V15.2283C21.9076 14.232 22.3041 13.2767 23.0092 12.5722C23.7143 11.8677 24.6703 11.4715 25.6674 11.4706H158.482C159.479 11.4715 160.435 11.8677 161.14 12.5722C161.845 13.2767 162.242 14.232 162.242 15.2283V85.2388Z" fill="#3F3D56"/>
<path d="M151.95 22.4211H32.1993C32.1468 22.4211 32.0964 22.4003 32.0593 22.3632C32.0222 22.3261 32.0013 22.2758 32.0013 22.2233C32.0013 22.1709 32.0222 22.1206 32.0593 22.0835C32.0964 22.0464 32.1468 22.0255 32.1993 22.0255H151.95C152.002 22.0255 152.053 22.0464 152.09 22.0835C152.127 22.1206 152.148 22.1709 152.148 22.2233C152.148 22.2758 152.127 22.3261 152.09 22.3632C152.053 22.4003 152.002 22.4211 151.95 22.4211Z" fill="#3F3D56"/>
<path d="M66.0461 80.8879C65.9936 80.8879 65.9433 80.867 65.9062 80.8299C65.8691 80.7929 65.8482 80.7426 65.8482 80.6901V15.6238C65.8482 15.5714 65.8691 15.5211 65.9062 15.484C65.9433 15.4469 65.9936 15.4261 66.0461 15.4261C66.0986 15.4261 66.149 15.4469 66.1861 15.484C66.2232 15.5211 66.2441 15.5714 66.2441 15.6238V80.6901C66.2441 80.7426 66.2232 80.7929 66.1861 80.8299C66.149 80.867 66.0986 80.8879 66.0461 80.8879Z" fill="#3F3D56"/>
<path d="M95.9343 80.8879C95.8818 80.8879 95.8315 80.867 95.7944 80.8299C95.7572 80.7929 95.7364 80.7426 95.7364 80.6901V15.6238C95.7364 15.5714 95.7572 15.5211 95.7944 15.484C95.8315 15.4469 95.8818 15.4261 95.9343 15.4261C95.9868 15.4261 96.0371 15.4469 96.0743 15.484C96.1114 15.5211 96.1322 15.5714 96.1322 15.6238V80.6901C96.1322 80.7426 96.1114 80.7929 96.0743 80.8299C96.0371 80.867 95.9868 80.8879 95.9343 80.8879Z" fill="#3F3D56"/>
<path d="M125.822 80.8879C125.77 80.8879 125.72 80.867 125.682 80.8299C125.645 80.7929 125.625 80.7426 125.625 80.6901V15.6238C125.625 15.5714 125.645 15.5211 125.682 15.484C125.72 15.4469 125.77 15.4261 125.822 15.4261C125.875 15.4261 125.925 15.4469 125.962 15.484C126 15.5211 126.02 15.5714 126.02 15.6238V80.6901C126.02 80.7426 126 80.7929 125.962 80.8299C125.925 80.867 125.875 80.8879 125.822 80.8879Z" fill="#3F3D56"/>
<path d="M46.8298 42.8344H39.5972C39.3611 42.8342 39.1347 42.7403 38.9677 42.5735C38.8007 42.4066 38.7068 42.1804 38.7065 41.9445V33.4167C38.7068 33.1808 38.8007 32.9546 38.9677 32.7877C39.1347 32.6209 39.3611 32.527 39.5972 32.5268H46.8298C47.0659 32.527 47.2923 32.6209 47.4593 32.7877C47.6263 32.9546 47.7202 33.1808 47.7205 33.4167V41.9445C47.7202 42.1804 47.6263 42.4066 47.4593 42.5735C47.2923 42.7403 47.0659 42.8342 46.8298 42.8344Z" fill="#6C63FF"/>
<path d="M57.1224 67.1602H49.8899C49.6537 67.1599 49.4273 67.066 49.2603 66.8992C49.0933 66.7324 48.9994 66.5061 48.9991 66.2702V57.7424C48.9994 57.5065 49.0933 57.2803 49.2603 57.1134C49.4273 56.9466 49.6537 56.8527 49.8899 56.8525H57.1224C57.3585 56.8527 57.5849 56.9466 57.7519 57.1134C57.9189 57.2803 58.0128 57.5065 58.0131 57.7424V66.2702C58.0128 66.5062 57.9189 66.7324 57.7519 66.8992C57.5849 67.066 57.3585 67.1599 57.1224 67.1602Z" fill="#6C63FF"/>
<path d="M80.4787 47.9765H73.2462C73.01 47.9762 72.7836 47.8824 72.6166 47.7155C72.4497 47.5487 72.3557 47.3225 72.3555 47.0865V38.5588C72.3557 38.3228 72.4497 38.0966 72.6166 37.9297C72.7836 37.7629 73.01 37.6691 73.2462 37.6688H80.4787C80.7149 37.6691 80.9413 37.7629 81.1083 37.9297C81.2752 38.0966 81.3692 38.3228 81.3694 38.5588V47.0865C81.3692 47.3225 81.2752 47.5487 81.1083 47.7155C80.9413 47.8824 80.7149 47.9762 80.4787 47.9765Z" fill="#6C63FF"/>
<path d="M110.763 38.6813H103.53C103.294 38.681 103.068 38.5872 102.901 38.4203C102.734 38.2535 102.64 38.0273 102.639 37.7913V29.2636C102.64 29.0276 102.734 28.8014 102.901 28.6346C103.068 28.4677 103.294 28.3739 103.53 28.3736H110.763C110.999 28.3739 111.225 28.4677 111.392 28.6346C111.559 28.8014 111.653 29.0276 111.653 29.2636V37.7913C111.653 38.0273 111.559 38.2535 111.392 38.4203C111.225 38.5872 110.999 38.681 110.763 38.6813Z" fill="#6C63FF"/>
<path d="M138.672 38.6813H131.439C131.203 38.681 130.976 38.5872 130.81 38.4203C130.643 38.2535 130.549 38.0273 130.548 37.7913V29.2636C130.549 29.0276 130.643 28.8014 130.81 28.6346C130.976 28.4677 131.203 28.3739 131.439 28.3736H138.672C138.908 28.3739 139.134 28.4677 139.301 28.6346C139.468 28.8014 139.562 29.0276 139.562 29.2636V37.7913C139.562 38.0273 139.468 38.2535 139.301 38.4203C139.134 38.5872 138.908 38.681 138.672 38.6813Z" fill="#6C63FF"/>
<path d="M151.537 41.0545H144.305C144.069 41.0542 143.842 40.9604 143.675 40.7936C143.508 40.6267 143.414 40.4005 143.414 40.1645V31.6368C143.414 31.4008 143.508 31.1746 143.675 31.0078C143.842 30.8409 144.069 30.7471 144.305 30.7468H151.537C151.773 30.7471 152 30.8409 152.167 31.0078C152.334 31.1746 152.428 31.4008 152.428 31.6368V40.1646C152.428 40.4005 152.334 40.6267 152.167 40.7936C152 40.9604 151.773 41.0542 151.537 41.0545Z" fill="#E6E6E6"/>
<path d="M145.797 56.2828H138.565C138.329 56.2825 138.102 56.1887 137.935 56.0219C137.768 55.855 137.674 55.6288 137.674 55.3928V46.8651C137.674 46.6291 137.768 46.4029 137.935 46.2361C138.102 46.0692 138.329 45.9754 138.565 45.9751H145.797C146.033 45.9754 146.26 46.0692 146.427 46.2361C146.594 46.4029 146.688 46.6291 146.688 46.8651V55.3929C146.688 55.6288 146.594 55.855 146.427 56.0219C146.26 56.1887 146.033 56.2825 145.797 56.2828Z" fill="#E6E6E6"/>
<path d="M121.253 53.1185H114.021C113.785 53.1182 113.558 53.0244 113.391 52.8575C113.224 52.6907 113.13 52.4645 113.13 52.2285V43.7008C113.13 43.4648 113.224 43.2386 113.391 43.0717C113.558 42.9049 113.785 42.8111 114.021 42.8108H121.253C121.489 42.8111 121.716 42.9049 121.883 43.0717C122.05 43.2386 122.144 43.4648 122.144 43.7008V52.2285C122.144 52.4645 122.05 52.6907 121.883 52.8575C121.716 53.0244 121.489 53.1182 121.253 53.1185Z" fill="#FF6584"/>
<path d="M107.2 56.2828H99.9674C99.7312 56.2825 99.5048 56.1887 99.3378 56.0219C99.1708 55.855 99.0769 55.6288 99.0767 55.3928V46.8651C99.0769 46.6291 99.1708 46.4029 99.3378 46.2361C99.5048 46.0692 99.7312 45.9754 99.9674 45.9751H107.2C107.436 45.9754 107.662 46.0692 107.829 46.2361C107.996 46.4029 108.09 46.6291 108.091 46.8651V55.3929C108.09 55.6288 107.996 55.855 107.829 56.0219C107.662 56.1887 107.436 56.2825 107.2 56.2828Z" fill="#E6E6E6"/>
<path d="M76.9159 69.7312H69.6833C69.4472 69.7309 69.2208 69.6371 69.0538 69.4702C68.8868 69.3034 68.7929 69.0772 68.7926 68.8412V60.3135C68.7929 60.0775 68.8868 59.8513 69.0538 59.6844C69.2208 59.5176 69.4472 59.4238 69.6833 59.4235H76.9159C77.152 59.4238 77.3784 59.5176 77.5454 59.6844C77.7124 59.8513 77.8063 60.0775 77.8066 60.3135V68.8412C77.8063 69.0772 77.7124 69.3034 77.5454 69.4702C77.3784 69.6371 77.152 69.7309 76.9159 69.7312Z" fill="#E6E6E6"/>
<path d="M40.2979 58.4583H33.0654C32.8292 58.458 32.6028 58.3641 32.4359 58.1973C32.2689 58.0305 32.1749 57.8042 32.1747 57.5683V49.0405C32.1749 48.8046 32.2689 48.5784 32.4359 48.4115C32.6028 48.2447 32.8292 48.1508 33.0654 48.1506H40.2979C40.5341 48.1508 40.7605 48.2447 40.9275 48.4115C41.0944 48.5784 41.1884 48.8046 41.1886 49.0405V57.5683C41.1884 57.8043 41.0944 58.0305 40.9275 58.1973C40.7605 58.3641 40.5341 58.458 40.2979 58.4583Z" fill="#FF6584"/>
<path d="M60.6852 42.8344H53.4527C53.2165 42.8342 52.9901 42.7403 52.8232 42.5735C52.6562 42.4066 52.5622 42.1804 52.562 41.9445V33.4167C52.5622 33.1808 52.6562 32.9546 52.8232 32.7877C52.9901 32.6209 53.2165 32.527 53.4527 32.5268H60.6852C60.9214 32.527 61.1478 32.6209 61.3148 32.7877C61.4817 32.9546 61.5757 33.1808 61.5759 33.4167V41.9445C61.5757 42.1804 61.4817 42.4066 61.3148 42.5735C61.1478 42.7403 60.9214 42.8342 60.6852 42.8344Z" fill="#E6E6E6"/>
<path d="M54.7638 19.1837H43.4816C43.2716 19.1837 43.0702 19.1003 42.9217 18.952C42.7732 18.8036 42.6898 18.6024 42.6898 18.3926C42.6898 18.1828 42.7732 17.9816 42.9217 17.8332C43.0702 17.6848 43.2716 17.6015 43.4816 17.6015H54.7638C54.9738 17.6015 55.1752 17.6848 55.3237 17.8332C55.4722 17.9816 55.5556 18.1828 55.5556 18.3926C55.5556 18.6024 55.4722 18.8036 55.3237 18.952C55.1752 19.1003 54.9738 19.1837 54.7638 19.1837Z" fill="#CCCCCC"/>
<path d="M86.6313 19.1837H75.3491C75.1391 19.1837 74.9377 19.1003 74.7892 18.952C74.6407 18.8036 74.5573 18.6024 74.5573 18.3926C74.5573 18.1828 74.6407 17.9816 74.7892 17.8332C74.9377 17.6848 75.1391 17.6015 75.3491 17.6015H86.6313C86.8413 17.6015 87.0427 17.6848 87.1912 17.8332C87.3396 17.9816 87.4231 18.1828 87.4231 18.3926C87.4231 18.6024 87.3396 18.8036 87.1912 18.952C87.0427 19.1003 86.8413 19.1837 86.6313 19.1837Z" fill="#CCCCCC"/>
<path d="M116.519 19.1837H105.237C105.027 19.1837 104.826 19.1003 104.677 18.952C104.529 18.8036 104.445 18.6024 104.445 18.3926C104.445 18.1828 104.529 17.9816 104.677 17.8332C104.826 17.6848 105.027 17.6015 105.237 17.6015H116.519C116.729 17.6015 116.931 17.6848 117.079 17.8332C117.228 17.9816 117.311 18.1828 117.311 18.3926C117.311 18.6024 117.228 18.8036 117.079 18.952C116.931 19.1003 116.729 19.1837 116.519 19.1837Z" fill="#CCCCCC"/>
<path d="M144.428 19.1837H133.146C132.936 19.1837 132.735 19.1003 132.586 18.952C132.438 18.8036 132.354 18.6024 132.354 18.3926C132.354 18.1828 132.438 17.9816 132.586 17.8332C132.735 17.6848 132.936 17.6015 133.146 17.6015H144.428C144.638 17.6015 144.84 17.6848 144.988 17.8332C145.137 17.9816 145.22 18.1828 145.22 18.3926C145.22 18.6024 145.137 18.8036 144.988 18.952C144.84 19.1003 144.638 19.1837 144.428 19.1837Z" fill="#CCCCCC"/>
<path d="M29.4941 77.1087C29.2045 77.0804 28.9247 76.989 28.6743 76.8409C28.4238 76.6928 28.209 76.4916 28.0448 76.2516C27.8806 76.0115 27.7711 75.7385 27.724 75.4516C27.6769 75.1647 27.6933 74.8709 27.7721 74.591L22.6984 69.872L25.381 69.1921L30.3701 73.2352C30.8319 73.3986 31.2176 73.7256 31.4543 74.1542C31.6909 74.5828 31.762 75.0833 31.654 75.5608C31.546 76.0382 31.2665 76.4595 30.8684 76.7448C30.4704 77.0301 29.9814 77.1596 29.4941 77.1087Z" fill="#FFB8B8"/>
<path d="M36.5 111.988H38.9267L40.081 102.636H36.4996L36.5 111.988Z" fill="#FFB8B8"/>
<path d="M43.6066 114.239L35.98 114.239L35.9799 111.295L40.6598 111.295C41.4413 111.295 42.1908 111.605 42.7435 112.157C43.2961 112.709 43.6066 113.458 43.6066 114.239L43.6066 114.239Z" fill="#2F2E41"/>
<path d="M19.8618 110.237L22.2069 110.861L25.7303 102.12L22.2694 101.2L19.8618 110.237Z" fill="#FFB8B8"/>
<path d="M26.1497 114.24L18.7798 112.28L19.5377 109.434L24.0602 110.637C24.8154 110.838 25.4598 111.33 25.8517 112.006C26.2435 112.682 26.3507 113.485 26.1497 114.24Z" fill="#2F2E41"/>
<path d="M39.5792 110.217H35.8764C35.6425 110.218 35.4168 110.131 35.2437 109.974C35.0705 109.817 34.9625 109.601 34.9409 109.368L32.6931 86.0447C32.6766 85.8737 32.6012 85.7136 32.4796 85.592C32.3581 85.4704 32.198 85.3948 32.0268 85.3781C31.8556 85.3614 31.6839 85.4046 31.5411 85.5005C31.3983 85.5963 31.2933 85.7387 31.244 85.9034L24.7174 107.697C24.6484 107.929 24.4925 108.125 24.2823 108.245C24.0721 108.364 23.8238 108.398 23.5892 108.339L20.1445 107.479C20.0243 107.449 19.9112 107.395 19.8118 107.321C19.7123 107.248 19.6284 107.155 19.565 107.048C19.5016 106.942 19.4599 106.824 19.4422 106.702C19.4246 106.579 19.4314 106.454 19.4622 106.334C19.5184 106.115 25.0857 84.3763 25.1343 84.1528C26.3957 74.864 27.9048 72.3749 28.7155 71.0378C28.7826 70.9271 28.8443 70.8254 28.8998 70.7292C28.9693 70.6089 29.3971 69.4151 29.6685 68.6398C29.7038 68.5137 29.7648 68.3963 29.8477 68.295C29.9307 68.1936 30.0338 68.1105 30.1505 68.051C33.5571 66.3103 37.5428 67.5152 38.6833 67.926C38.8723 67.9925 39.0347 68.1185 39.1461 68.2851C42.5673 73.4412 40.8884 103.387 40.517 109.338C40.5016 109.576 40.396 109.8 40.2219 109.963C40.0477 110.126 39.818 110.217 39.5792 110.217Z" fill="#2F2E41"/>
<path d="M30.0236 51.1404C32.7085 51.1404 34.8851 48.9656 34.8851 46.2829C34.8851 43.6003 32.7085 41.4255 30.0236 41.4255C27.3387 41.4255 25.1621 43.6003 25.1621 46.2829C25.1621 48.9656 27.3387 51.1404 30.0236 51.1404Z" fill="#FFB8B8"/>
<path d="M29.5084 69.5829L29.4735 69.5491C29.408 69.4858 22.9306 63.1454 23.7689 57.2826C24.1274 54.7749 26.1581 53.1727 29.6412 52.6487C30.9208 52.4588 32.226 52.7368 33.317 53.4315C34.4079 54.1263 35.2112 55.1911 35.5792 56.4303L39.0232 68.1945L29.5084 69.5829Z" fill="#CCCCCC"/>
<path d="M26.1933 74.0926L21.5778 69.5101C21.2622 69.195 21.033 68.804 20.9124 68.3748C20.7918 67.9456 20.7837 67.4926 20.889 67.0594L23.1234 57.978C23.1903 57.7059 23.3124 57.4504 23.4822 57.2273C23.6519 57.0043 23.8657 56.8184 24.1102 56.6812C24.3548 56.544 24.6249 56.4584 24.9039 56.4297C25.1829 56.401 25.4648 56.4299 25.7322 56.5145C26.2418 56.6786 26.6675 57.0345 26.919 57.5068C27.1706 57.9791 27.2283 58.5307 27.0799 59.0447L24.7276 67.0339L28.5315 71.1153L26.1933 74.0926Z" fill="#CCCCCC"/>
<path d="M50.9493 58.4533C50.8272 58.7173 50.6488 58.9513 50.4264 59.1388C50.2041 59.3264 49.9433 59.463 49.6624 59.5389C49.3815 59.6149 49.0874 59.6284 48.8008 59.5785C48.5141 59.5286 48.2419 59.4165 48.0033 59.2501L41.8417 62.441L42.114 59.7304L47.5764 56.3527C47.8827 55.9707 48.3187 55.7143 48.8016 55.632C49.2845 55.5497 49.7809 55.6472 50.1966 55.9062C50.6124 56.1651 50.9186 56.5674 51.0573 57.0369C51.1961 57.5063 51.1576 58.0103 50.9493 58.4533H50.9493Z" fill="#FFB8B8"/>
<path d="M47.3304 60.471L41.3238 63.0645C40.924 63.2357 40.4868 63.3013 40.0543 63.255C39.6218 63.2086 39.2085 63.0519 38.8542 62.7998L31.2161 57.3316C30.9881 57.1684 30.7961 56.9602 30.6519 56.7198C30.5077 56.4795 30.4145 56.2122 30.3778 55.9343C30.3412 55.6565 30.3621 55.3742 30.439 55.1047C30.516 54.8353 30.6476 54.5845 30.8255 54.3679C31.1673 53.956 31.6562 53.6934 32.1886 53.6355C32.7209 53.5776 33.2549 53.729 33.6774 54.0578L40.2268 59.2081L45.4325 57.1957L47.3304 60.471Z" fill="#CCCCCC"/>
<path d="M30.8295 47.8394C31.4292 47.0886 32.5497 47.0483 33.3735 46.553C34.4526 45.9042 34.8988 44.4545 34.551 43.2451C34.2033 42.0357 33.1777 41.0932 32.0019 40.6424C30.8261 40.1916 29.518 40.186 28.2776 40.4039C26.4308 40.7284 24.6126 41.5896 23.4863 43.0875C22.36 44.5853 22.0733 46.779 23.0941 48.3506C23.5633 49.0729 24.2875 49.6692 24.4748 50.5097C24.7207 51.6131 23.946 52.6774 23.1161 53.4458C22.1706 54.3212 21.0859 55.0543 20.2576 56.0411C19.4292 57.0279 18.8768 58.376 19.2548 59.6073C19.5715 60.6389 20.4931 61.399 21.5037 61.7796C22.5142 62.1603 23.6148 62.2153 24.6946 62.2364C25.7431 62.2568 26.8568 62.2314 27.74 61.6665C28.6856 61.0618 29.1905 59.9146 29.2278 58.7935C29.2651 57.6724 28.8901 56.574 28.3876 55.5709C28.0881 54.973 27.7398 54.3937 27.5408 53.7554C27.3418 53.117 27.3073 52.3927 27.626 51.8048C27.9611 51.1868 28.6389 50.8142 29.3291 50.6787C29.3649 50.6716 29.4029 50.6653 29.4426 50.6597C29.6389 50.6343 29.8281 50.5693 29.9986 50.4687C30.1692 50.3681 30.3175 50.234 30.4347 50.0745C30.5518 49.915 30.6354 49.7335 30.6804 49.5408C30.7253 49.3481 30.7307 49.1483 30.6961 48.9534C30.6175 48.5155 30.6243 48.0963 30.8295 47.8394Z" fill="#2F2E41"/>
<path d="M95.6478 112.195H93.2211L92.0668 102.843L95.6482 102.843L95.6478 112.195Z" fill="#A0616A"/>
<path d="M91.4878 111.502H96.1678V114.446H88.5412C88.5412 114.06 88.6174 113.677 88.7655 113.32C88.9136 112.962 89.1306 112.638 89.4043 112.364C89.6779 112.091 90.0027 111.874 90.3602 111.726C90.7177 111.578 91.1009 111.502 91.4878 111.502Z" fill="#2F2E41"/>
<path d="M113.255 109.448L111.048 110.456L106.109 102.428L109.366 100.942L113.255 109.448Z" fill="#A0616A"/>
<path d="M109.183 110.545L113.44 108.602L114.664 111.28L107.727 114.446C107.566 114.095 107.476 113.715 107.463 113.328C107.449 112.942 107.511 112.557 107.646 112.194C107.782 111.832 107.987 111.5 108.251 111.217C108.514 110.934 108.831 110.706 109.183 110.545Z" fill="#2F2E41"/>
<path d="M106.188 80.6618C106.421 80.487 106.612 80.2634 106.749 80.0067C106.885 79.75 106.964 79.4665 106.979 79.1761C106.994 78.8858 106.946 78.5957 106.836 78.3262C106.727 78.0567 106.56 77.8145 106.347 77.6165L109.199 71.1494L105.576 71.7631L103.422 77.8102C103.113 78.1899 102.954 78.6698 102.975 79.1588C102.997 79.6478 103.197 80.1121 103.538 80.4636C103.879 80.8151 104.337 81.0294 104.825 81.0659C105.314 81.1025 105.799 80.9587 106.188 80.6618Z" fill="#A0616A"/>
<path d="M95.4931 109.729H93.1749C92.9501 109.728 92.7338 109.643 92.5692 109.49C92.4045 109.337 92.3036 109.127 92.2865 108.903L91.0223 75.1721C91.0129 75.0429 91.0319 74.9131 91.0779 74.792C91.1239 74.6708 91.1959 74.5611 91.2887 74.4706C91.3816 74.3801 91.4931 74.311 91.6154 74.268C91.7378 74.2251 91.8681 74.2093 91.9972 74.2219L105.404 75.6446C105.622 75.6658 105.824 75.766 105.972 75.9262C106.12 76.0864 106.204 76.2954 106.208 76.5135L106.489 91.3928C106.491 91.4735 106.506 91.5534 106.536 91.6288L112.035 105.879C112.078 105.989 112.098 106.106 112.095 106.224C112.091 106.342 112.064 106.458 112.016 106.566C111.967 106.673 111.897 106.77 111.811 106.85C111.725 106.931 111.623 106.993 111.512 107.034L109.163 107.899C108.959 107.974 108.734 107.972 108.532 107.893C108.329 107.814 108.162 107.664 108.063 107.471L101.307 94.3448C101.27 94.2735 101.243 94.1974 101.227 94.1188L100.073 88.5627C100.039 88.4016 99.9495 88.2577 99.8195 88.1568C99.6894 88.0559 99.5277 88.0045 99.3632 88.0119C99.1987 88.0194 99.0422 88.0851 98.9218 88.1974C98.8014 88.3096 98.725 88.4611 98.7062 88.6245L96.3781 108.94C96.3532 109.157 96.2493 109.358 96.0861 109.503C95.9229 109.649 95.7118 109.729 95.4931 109.729Z" fill="#2F2E41"/>
<path d="M96.6475 48.7975C99.3324 48.7975 101.509 46.6228 101.509 43.9401C101.509 41.2574 99.3324 39.0826 96.6475 39.0826C93.9626 39.0826 91.786 41.2574 91.786 43.9401C91.786 46.6228 93.9626 48.7975 96.6475 48.7975Z" fill="#A0616A"/>
<path d="M99.9814 78.2564C96.6847 78.2201 93.4665 77.2461 90.7037 75.4484L90.6564 75.4158L90.6613 75.3585L92.5209 53.7194C92.5849 52.9852 92.9129 52.2991 93.4441 51.7879C93.9753 51.2766 94.6738 50.9749 95.4105 50.9384C97.8205 50.8277 101.058 50.9673 102.791 52.2568C105.409 54.2058 106.672 57.1405 106.254 60.3085C105.387 66.8782 106.369 75.7404 106.484 76.7292L106.492 76.8005L106.427 76.8304C104.408 77.7689 102.208 78.2556 99.9814 78.2564Z" fill="#6C63FF"/>
<path d="M106.461 76.7659C106.324 76.7657 106.189 76.737 106.063 76.6818C105.938 76.6266 105.825 76.546 105.733 76.4451L104.669 75.2859C104.554 75.1599 104.474 75.0065 104.435 74.8405C104.397 74.6744 104.402 74.5012 104.45 74.3376L106.875 66.1373L103.185 58.3959C103.013 58.0335 102.971 57.6229 103.066 57.2331C103.149 56.891 103.335 56.5822 103.598 56.3476C103.861 56.1129 104.189 55.9634 104.538 55.9188C104.888 55.8741 105.243 55.9365 105.557 56.0975C105.87 56.2586 106.127 56.5108 106.294 56.821L111.301 64.9379C111.505 65.2672 111.624 65.6413 111.649 66.0274C111.674 66.4136 111.603 66.7999 111.444 67.1525L107.364 76.1837C107.297 76.333 107.194 76.4632 107.064 76.5626C106.933 76.6621 106.781 76.7276 106.619 76.7533C106.567 76.7616 106.514 76.7658 106.461 76.7659Z" fill="#6C63FF"/>
<path d="M72.1943 61.1015C72.4278 61.275 72.6965 61.3953 72.9815 61.4538C73.2665 61.5123 73.5609 61.5077 73.844 61.4402C74.127 61.3728 74.3918 61.2441 74.6197 61.0633C74.8476 60.8826 75.0331 60.6541 75.163 60.3939L82.1774 61.3029L80.5654 58.0024L74.1515 57.6453C73.6997 57.4561 73.1941 57.4391 72.7306 57.5975C72.267 57.7559 71.8777 58.0787 71.6365 58.5048C71.3952 58.9308 71.3188 59.4304 71.4216 59.909C71.5244 60.3876 71.7993 60.8119 72.1943 61.1015V61.1015Z" fill="#A0616A"/>
<path d="M87.6553 62.904C87.5331 62.904 87.4111 62.8956 87.2902 62.8788L76.2551 61.3496C76.0748 61.3248 75.9034 61.2556 75.7566 61.1482C75.6097 61.0408 75.4919 60.8985 75.4137 60.7343C75.3885 60.6813 75.3675 60.6265 75.3508 60.5703H75.3508C75.3081 60.4243 75.2961 60.271 75.3157 60.1201C75.3353 59.9693 75.386 59.8241 75.4646 59.6938L76.3778 58.1811C76.476 58.0194 76.6142 57.8857 76.779 57.7927C76.9438 57.6997 77.1298 57.6505 77.3191 57.6499H77.3206L86.9394 57.6609L94.1233 51.23C94.4575 50.9315 94.8843 50.757 95.3321 50.7357C95.7252 50.7175 96.1147 50.8188 96.449 51.0262C96.7834 51.2337 97.047 51.5375 97.205 51.8976C97.3631 52.2578 97.4081 52.6573 97.3343 53.0436C97.2604 53.4299 97.0711 53.7847 96.7914 54.0613L89.6231 62.0271C89.3751 62.303 89.0717 62.5238 88.7326 62.6748C88.3936 62.8259 88.0265 62.904 87.6553 62.904Z" fill="#6C63FF"/>
<path d="M97.2001 48.2614C97.6444 47.234 98.0203 45.8659 97.1682 45.1395C96.674 44.7182 95.962 44.7174 95.3145 44.6649C93.49 44.5173 91.612 43.6785 90.7202 42.0814C89.8285 40.4842 90.3265 38.1093 92.0088 37.3887C93.1429 36.903 94.4429 37.2338 95.63 37.5702L99.1939 38.58C100.253 38.88 101.365 39.2109 102.127 40.0042C103.343 41.2694 103.252 43.4082 102.286 44.8729C101.321 46.3377 99.8664 47.8653 98.2015 48.4215L97.2001 48.2614Z" fill="#2F2E41"/>
<path d="M146.37 114.511H0.23569C0.204683 114.511 0.173964 114.505 0.145291 114.493C0.116618 114.481 0.0905581 114.464 0.0686009 114.442C0.0466437 114.42 0.029222 114.394 0.0173353 114.365C0.00544859 114.337 -0.000671387 114.306 -0.000671387 114.275C-0.000671387 114.244 0.00544859 114.214 0.0173353 114.185C0.029222 114.156 0.0466437 114.13 0.0686009 114.108C0.0905581 114.087 0.116618 114.069 0.145291 114.057C0.173964 114.046 0.204683 114.04 0.23569 114.04H146.37C146.401 114.04 146.431 114.046 146.46 114.057C146.489 114.069 146.515 114.087 146.537 114.108C146.559 114.13 146.576 114.156 146.588 114.185C146.6 114.214 146.606 114.244 146.606 114.275C146.606 114.306 146.6 114.337 146.588 114.365C146.576 114.394 146.559 114.42 146.537 114.442C146.515 114.464 146.489 114.481 146.46 114.493C146.431 114.505 146.401 114.511 146.37 114.511Z" fill="#3F3D56"/>
</g>
<defs>
<clipPath id="clip0_41:316">
<rect width="162.638" height="114.511" fill="white"/>
</clipPath>
</defs>
</svg>
