<svg width="337" height="231" viewBox="0 0 337 231" fill="none" xmlns="http://www.w3.org/2000/svg">
<g clip-path="url(#clip0)">
<path opacity="0.1" d="M143.37 8.88048C129.671 3.77672 115.195 -0.486568 100.418 0.049388C78.6898 0.835051 57.8323 12.8118 47.618 30.3979C38.9517 45.2981 37.8824 62.7623 34.1492 79.2978C29.5549 99.6671 20.7394 119.032 11.3271 137.964C6.27282 148.135 0.938761 158.525 0.108811 169.673C-1.04131 185.152 7.03127 200.576 19.6919 210.872C32.3525 221.168 49.166 226.6 66.0416 227.785C75.0219 228.415 84.4062 227.831 92.3824 224C100.822 219.947 106.973 212.623 115.447 208.628C123.299 204.925 132.484 204.407 141.3 204.888C152.81 205.516 164.172 207.73 175.051 211.466C187.373 215.705 198.83 221.847 211.109 226.147C223.387 230.446 237.139 232.846 249.703 229.259C261.515 225.888 270.84 217.702 279.249 209.413C292.997 195.884 305.599 181.281 316.929 165.748C324.517 155.33 331.579 144.34 334.933 132.199C341.349 108.985 332.521 82.7967 312.941 66.9434C296.718 53.8094 274.947 48.1088 253.635 44.6494C234.201 41.4946 211.73 41.2997 193.841 33.0777C176.782 25.2271 161.259 15.5495 143.37 8.88048Z" fill="#DC2D27"/>
<path d="M196.633 188.498V199.561H199.844L199.222 187.685L196.633 188.498Z" fill="#AAABB0"/>
<path d="M148.399 186.266V197.329H151.613L150.992 185.453L148.399 186.266Z" fill="#AAABB0"/>
<path d="M204.506 170.026C204.506 168.904 203.579 167.995 202.435 167.995C201.29 167.995 200.363 168.904 200.363 170.026V185.657C200.363 186.779 201.29 187.688 202.435 187.688C203.579 187.688 204.506 186.779 204.506 185.657V170.026Z" fill="#AAABB0"/>
<path d="M151.352 165.659C151.352 164.537 150.425 163.628 149.281 163.628C148.136 163.628 147.209 164.537 147.209 165.659V185.654C147.209 186.776 148.136 187.685 149.281 187.685C150.425 187.685 151.352 186.776 151.352 185.654V165.659Z" fill="#AAABB0"/>
<path d="M209.794 50.1453C209.794 50.1453 213.937 48.4187 214.559 50.1453C215.181 51.872 215.492 66.7934 215.492 66.7934H211.553L209.794 50.1453Z" fill="#AAABB0"/>
<path d="M164.411 50.1453C164.411 50.1453 160.264 48.4187 159.643 50.1453C159.021 51.872 158.71 66.7934 158.71 66.7934H162.648L164.411 50.1453Z" fill="#AAABB0"/>
<path d="M165.029 35.3244L164.408 47.7093H167.205V35.0199L165.029 35.3244Z" fill="#AAABB0"/>
<path d="M162.648 66.7935L163.478 48.9273C163.478 48.9273 163.167 44.9686 173.009 46.1866C182.85 47.4047 211.659 49.8409 211.659 49.8409V66.7935H162.648Z" fill="#33323D"/>
<path d="M202.023 160.89L200.469 188.194C200.469 188.194 177.671 200.578 150.006 188.803L152.493 160.077L202.023 160.89Z" fill="#33323D"/>
<path d="M180.366 53.3916L180.882 71.0538H213.005L211.14 47.7092L180.366 53.3916Z" fill="#444053"/>
<path d="M183.63 149.215H153.373V186.771H183.63V149.215Z" fill="#4C4981"/>
<path d="M172.493 164.545C172.493 164.545 176.845 161.195 177.569 162.209C178.293 163.223 174.983 167.59 173.634 167.081C172.285 166.573 172.493 164.545 172.493 164.545Z" fill="#FFB9B9"/>
<path d="M293.274 65.7764H94.6547V163.223H293.274V65.7764Z" fill="#504F60"/>
<path d="M162.751 34.6149C162.751 34.6149 161.197 20.4029 162.751 18.6793C164.305 16.9557 190.416 0.609081 214.559 19.7939C214.559 19.7939 216.838 19.8974 216.424 24.9707C216.18 28.1817 216.197 31.4065 216.474 34.6149C216.474 34.6149 164.513 38.2691 162.751 34.6149Z" fill="#33323D"/>
<path opacity="0.1" d="M162.751 34.6149C162.751 34.6149 161.197 20.4029 162.751 18.6793C164.305 16.9557 190.416 0.609081 214.559 19.7939C214.559 19.7939 216.838 19.8974 216.424 24.9707C216.18 28.1817 216.197 31.4065 216.474 34.6149C216.474 34.6149 164.513 38.2691 162.751 34.6149Z" fill="black"/>
<path d="M162.751 36.442C162.751 36.442 161.197 22.23 162.751 20.5065C164.305 18.7829 190.416 2.43623 214.559 21.621C214.559 21.621 216.838 21.7245 216.424 26.7979C216.18 30.0088 216.197 33.2336 216.474 36.442C216.474 36.442 164.513 40.0963 162.751 36.442Z" fill="#33323D"/>
<path d="M217.357 29.9465C217.357 29.9465 219.013 36.0369 218.497 37.051C217.981 38.065 218.075 40.9093 218.075 40.9093C218.075 40.9093 218.187 42.7364 217.357 42.9374C216.527 43.1384 215.802 43.2419 216.474 43.8509C217.145 44.46 216.474 45.3735 216.474 45.3735C216.474 45.3735 216.11 46.7956 216.474 47.7092C216.838 48.6228 214.348 49.0034 214.559 50.1454C214.77 51.2873 215.467 54.5091 214.559 54.6127C213.651 54.7162 214.87 58.6719 214.052 58.6719C213.235 58.6719 212.654 65.7764 212.654 65.7764C212.654 65.7764 206.903 61.0076 203.07 62.3262C203.07 62.3262 203.381 58.3674 204.625 56.9453C205.868 55.5232 205.492 51.872 205.492 51.872L211.659 33.7013L217.357 29.9465Z" fill="#4C4981"/>
<path d="M186.583 113.927C185.237 115.386 183.786 107.596 183.786 107.596C183.786 107.596 179.953 112.773 177.466 109.323C175.744 106.932 177.103 100.16 178.088 96.2284C178.529 94.4805 178.902 93.2928 178.902 93.2928L184.498 92.3793C184.498 92.3793 184.516 93.573 184.641 95.0225C184.808 96.9806 185.172 99.4106 185.946 99.9923C187.311 101 187.932 112.456 186.583 113.927Z" fill="#AE6E79"/>
<path opacity="0.1" d="M183.683 22.7386C183.683 22.7386 173.941 22.6381 171.56 27.7114C169.179 32.7847 169.074 34.5144 168.141 35.3244C167.208 36.1344 178.293 40.4008 178.293 40.4008L178.812 57.8589C178.812 57.8589 180.988 55.6999 184.51 56.6774C188.032 57.6549 192.489 56.6774 192.489 56.6774C192.489 56.6774 192.281 56.3089 195.184 56.6774C198.088 57.0458 207.307 52.2771 207.307 52.2771C207.307 52.2771 207.459 44.6397 207.254 43.0136C207.049 41.3874 213.832 29.438 213.832 29.438C213.832 29.438 219.116 24.4652 213.627 22.7386C213.627 22.7386 211.684 19.87 206.685 19.8974C201.687 19.9248 183.683 22.7386 183.683 22.7386Z" fill="black"/>
<path d="M183.683 22.434C183.683 22.434 173.941 22.3335 171.56 27.4068C169.179 32.4801 169.074 34.2098 168.141 35.0198C167.208 35.8299 178.293 40.0962 178.293 40.0962L178.812 57.5543C178.812 57.5543 180.988 55.3953 184.51 56.3728C188.032 57.3503 192.489 56.3728 192.489 56.3728C192.489 56.3728 192.281 56.0043 195.184 56.3728C198.088 56.7413 207.307 51.9725 207.307 51.9725C207.307 51.9725 210.932 46.1866 210.726 44.5635C210.521 42.9404 217.978 30.6561 217.978 30.6561C217.978 30.6561 219.119 24.1607 213.627 22.434C213.627 22.434 211.684 19.5654 206.685 19.5928C201.687 19.6203 183.683 22.434 183.683 22.434Z" fill="#4C4981"/>
<path opacity="0.1" d="M184.665 95.0134C182.53 94.3617 179.179 95.7991 178.113 96.2315C178.554 94.4835 178.927 93.2959 178.927 93.2959L184.522 92.3823C184.522 92.3823 184.532 93.5761 184.665 95.0134Z" fill="black"/>
<path d="M171.144 35.0199H168.141C168.141 35.0199 167.519 41.2138 168.141 43.041C168.763 44.8681 169.073 44.6031 168.865 45.9552C168.657 47.3073 170.317 49.378 170.317 49.378C170.317 49.378 170.522 54.4818 171.56 56.382C172.598 58.2822 170.419 66.8027 170.419 66.8027C171.014 68.2736 171.893 69.6179 173.009 70.7614C174.771 72.485 175.704 78.88 175.185 81.3161C174.666 83.7523 176.636 84.6658 176.636 84.6658C176.636 84.6658 177.466 96.0366 177.777 96.0366C178.088 96.0366 184.097 92.9914 185.962 95.6286L184.51 85.1744L184.616 64.9756C184.616 64.9756 182.645 62.4359 183.683 60.2037C184.721 57.9716 182.853 52.6912 182.853 52.6912L180.158 40.9185L171.144 35.0199Z" fill="#4C4981"/>
<path d="M152.493 195.502C152.493 195.502 148.141 194.589 148.039 195.502C147.936 196.416 142.857 205.755 149.18 208.496C155.502 211.237 172.387 217.123 199.847 209.51C199.847 209.51 201.606 210.119 201.193 206.364C200.779 202.61 200.779 198.447 200.779 198.447C200.779 198.447 196.633 197.329 193.524 197.737C190.416 198.145 163.373 203.523 152.493 195.502Z" fill="#33323D"/>
<path opacity="0.1" d="M152.493 195.502C152.493 195.502 148.141 194.589 148.039 195.502C147.936 196.416 142.857 205.755 149.18 208.496C155.502 211.237 172.387 217.123 199.847 209.51C199.847 209.51 201.606 210.119 201.193 206.364C200.779 202.61 200.779 198.447 200.779 198.447C200.779 198.447 196.633 197.329 193.524 197.737C190.416 198.145 163.373 203.523 152.493 195.502Z" fill="black"/>
<path d="M152.493 194.284C152.493 194.284 148.141 193.37 148.039 194.284C147.936 195.198 142.857 204.537 149.18 207.278C155.502 210.019 172.387 215.905 199.847 208.292C199.847 208.292 201.606 208.901 201.193 205.146C200.779 201.391 200.779 197.229 200.779 197.229C200.779 197.229 196.633 196.111 193.524 196.519C190.416 196.927 163.373 202.305 152.493 194.284Z" fill="#33323D"/>
<path d="M177.87 38.668C177.603 40.1571 176.997 41.5883 176.904 43.0957C176.81 44.6031 177.404 46.3175 178.825 46.9083C179.221 47.0243 179.605 47.1773 179.972 47.3651C180.519 47.7275 180.743 48.4096 180.858 49.0491C181.01 49.8747 181.047 50.7169 180.966 51.5523C180.889 52.3927 180.705 53.2972 181.128 54.031C181.871 55.3313 183.807 55.1395 185.281 54.7741L184.774 58.6202C184.734 58.9247 184.709 59.2688 184.936 59.4759C185.043 59.5499 185.164 59.602 185.292 59.6292C185.421 59.6564 185.553 59.6581 185.682 59.6342C186.963 59.555 188.28 59.3815 189.378 58.7207C190.475 58.0599 191.293 56.8296 191.084 55.5902C190.842 54.1529 189.325 53.0109 189.53 51.5675C189.689 50.4499 190.805 49.7404 191.538 48.8816C192.865 47.3103 192.937 44.9228 191.896 43.1444C190.854 41.366 188.843 40.2637 186.773 40.0627C185.626 39.95 184.432 40.0871 183.354 39.6973C182.978 39.5624 182.64 39.3444 182.365 39.0602C182.09 38.776 181.886 38.4333 181.768 38.059" fill="#444053"/>
<path d="M141.719 174.085L142.804 171.771C142.804 171.771 148.66 166.426 150.006 166.052C151.352 165.677 156.845 164.045 157.675 164.045C158.505 164.045 173.634 163.232 173.634 163.232L175.393 167.294L156.407 171.378L150.006 175.946L141.719 174.085Z" fill="#767D9F"/>
<path d="M187.336 111.759L186.344 119.235L185.962 122.113L181.507 122.722C181.507 122.722 181.025 121.711 180.345 120.158C178.278 115.444 174.386 105.723 176.643 104.045C179.642 101.81 180.373 109.222 180.373 109.222L183.792 107.596L187.336 111.759Z" fill="#FFB9B9"/>
<path d="M186.593 125.666H164.097V158.96H186.593V125.666Z" fill="white"/>
<path opacity="0.1" d="M186.593 125.666H164.097V158.96H186.593V125.666Z" fill="black"/>
<path d="M196.703 127.469L174.449 124.246L169.479 157.181L191.733 160.404L196.703 127.469Z" fill="white"/>
<path d="M187.999 129.046L176.544 127.387L173.986 144.338L185.441 145.997L187.999 129.046Z" fill="#F2C85B"/>
<path d="M186.636 151.172L172.758 149.162L172.203 152.843L186.08 154.853L186.636 151.172Z" fill="#F2C85B"/>
<path opacity="0.1" d="M192.489 41.6675C199.67 41.6675 205.492 35.9644 205.492 28.9294C205.492 21.8943 199.67 16.1913 192.489 16.1913C185.308 16.1913 179.487 21.8943 179.487 28.9294C179.487 35.9644 185.308 41.6675 192.489 41.6675Z" fill="black"/>
<path d="M192.489 41.363C199.67 41.363 205.492 35.66 205.492 28.6249C205.492 21.5899 199.67 15.8868 192.489 15.8868C185.308 15.8868 179.487 21.5899 179.487 28.6249C179.487 35.66 185.308 41.363 192.489 41.363Z" fill="#AE6E79"/>
<path d="M181.768 38.065C181.68 37.7369 181.712 37.3888 181.858 37.0814C182.353 36.0734 183.761 35.9851 184.902 36.0369C187.584 36.1587 190.528 36.1739 192.626 34.5143C193.496 33.8322 194.469 32.1177 195.734 32.4436C196.86 32.7328 197.329 34.228 198.501 34.56C199.35 34.8005 200.229 34.4168 201.093 34.2554C202.337 34.0149 203.611 34.2159 204.873 34.225C206.135 34.2341 207.506 33.9996 208.367 33.0952C209.53 31.8771 209.34 29.9739 209.237 28.3051C209.11 26.1495 209.259 23.9867 209.682 21.8676C210.105 19.7603 210.754 17.4033 209.567 15.5975C208.435 13.8769 206.092 13.4049 204.491 12.0864C202.993 10.8683 202.2 8.91631 200.618 7.78654C198.625 6.36443 195.918 6.56846 193.468 6.81512L188.153 7.36935C186.782 7.51247 185.355 7.67387 184.227 8.47475C182.191 9.91818 181.911 12.9177 179.984 14.4982C179.126 15.1986 178.029 15.5457 177.05 16.0695C176.071 16.5933 175.126 17.4216 175.014 18.5057C174.92 19.4192 175.424 20.2627 175.67 21.1428C176.251 23.244 175.343 25.4061 174.762 27.5225C174.181 29.6389 174.069 32.2091 175.757 33.6129C176.099 33.8992 176.496 34.1184 176.829 34.4168C177.97 35.437 178.125 37.1575 177.861 38.6436" fill="#444053"/>
<path d="M193.549 44.5362C193.721 44.5362 193.86 44.1953 193.86 43.7749C193.86 43.3544 193.721 43.0135 193.549 43.0135C193.378 43.0135 193.238 43.3544 193.238 43.7749C193.238 44.1953 193.378 44.5362 193.549 44.5362Z" fill="#444053"/>
<path d="M193.549 47.7091C193.721 47.7091 193.86 47.3683 193.86 46.9478C193.86 46.5274 193.721 46.1865 193.549 46.1865C193.378 46.1865 193.238 46.5274 193.238 46.9478C193.238 47.3683 193.378 47.7091 193.549 47.7091Z" fill="#444053"/>
<path d="M186.655 113.906C186.987 113.531 187.208 112.569 187.336 111.299L183.63 106.774C183.63 106.774 185.2 115.547 186.655 113.906Z" fill="#AE6E79"/>
<path opacity="0.1" d="M190.832 188.702C190.832 188.702 184.752 197.911 165.757 196.924C147.862 196.011 139.127 187.384 139.543 184.338C139.96 181.293 138.403 173.881 142.235 171.75C144.458 170.516 147.383 171.247 149.447 172.081C150.16 172.365 150.941 172.445 151.698 172.312C152.456 172.179 153.159 171.838 153.727 171.329C155.614 169.664 159.133 167.788 164.688 169.265C165.402 169.451 166.156 169.438 166.863 169.225C169.176 168.534 174.681 167.334 178.675 169.999C179.307 170.425 180.049 170.666 180.815 170.695C181.581 170.723 182.34 170.538 183.002 170.16L183.058 170.126C184.923 169.009 193.627 179.567 193.627 179.567C193.627 179.567 194.043 187.688 190.832 188.702Z" fill="black"/>
<path d="M190.832 189.007C190.832 189.007 184.752 198.215 165.757 197.229C147.862 196.315 139.127 187.688 139.543 184.643C139.96 181.598 138.403 174.186 142.235 172.054C144.458 170.821 147.383 171.551 149.447 172.386C150.16 172.67 150.941 172.75 151.698 172.616C152.456 172.483 153.159 172.143 153.727 171.634C155.614 169.968 159.133 168.092 164.688 169.569C165.402 169.756 166.156 169.742 166.863 169.529C169.176 168.838 174.681 167.638 178.675 170.303C179.307 170.729 180.049 170.971 180.815 170.999C181.581 171.028 182.34 170.842 183.002 170.464L183.058 170.431C184.923 169.313 193.627 179.871 193.627 179.871C193.627 179.871 194.043 187.993 190.832 189.007Z" fill="#767D9F"/>
<path opacity="0.1" d="M165.757 192.612C172.596 192.612 178.141 187.18 178.141 180.48C178.141 173.78 172.596 168.348 165.757 168.348C158.917 168.348 153.373 173.78 153.373 180.48C153.373 187.18 158.917 192.612 165.757 192.612Z" fill="black"/>
<path d="M165.757 192.917C172.596 192.917 178.141 187.485 178.141 180.785C178.141 174.084 172.596 168.652 165.757 168.652C158.917 168.652 153.373 174.084 153.373 180.785C153.373 187.485 158.917 192.917 165.757 192.917Z" fill="#FFB9B9"/>
<path d="M162.207 170.297C160.908 170.641 159.627 171.299 158.993 172.38C158.611 173.031 158.477 173.814 157.924 174.356C157.14 175.127 155.819 175.142 154.759 175.574C153.699 176.007 153 177.529 154.038 178.01C152.956 178.065 152.154 179.043 152.021 180.014C151.887 180.985 152.263 181.954 152.627 182.88C153.814 185.876 155.092 189.004 157.709 191.135C161.974 194.613 168.402 194.451 174.131 194.083C174.599 194.098 175.063 193.993 175.477 193.778C176.099 193.376 176.176 192.606 176.279 191.93C176.711 189.043 178.309 186.421 179.353 183.665C180.398 180.909 180.826 177.672 179.067 175.233C176.478 171.615 166.565 169.14 162.207 170.297Z" fill="#B96B6B"/>
<path opacity="0.1" d="M186.344 119.235L185.962 122.113L181.507 122.722C181.507 122.722 181.025 121.711 180.345 120.158L186.272 119.068L186.344 119.235Z" fill="black"/>
<path d="M191.038 182.816L193.63 179.871L193.111 163.631C193.366 162.459 193.54 161.272 193.63 160.077C193.733 158.351 192.334 154.495 192.334 154.495C192.551 153.724 192.846 152.975 193.214 152.26C193.835 151.042 192.337 148.301 192.337 148.301C192.337 148.301 190.105 141.197 191.038 137.643C191.97 134.089 190.811 132.061 190.811 132.061C190.811 132.061 189.9 128.103 190.003 126.479C190.105 124.856 187.929 123.331 187.929 123.331L186.272 119.372L179.642 120.59V134.293C179.642 134.293 180.056 147.388 179.642 149.928C179.229 152.467 180.469 154.9 180.469 154.9C180.469 154.9 179.745 158.655 180.366 160.077C180.988 161.499 182.231 164.95 182.231 164.95C182.001 166.183 182.072 167.452 182.44 168.652C183.061 170.431 182.44 171.445 182.44 171.445L191.038 182.816Z" fill="#767D9F"/>
<g opacity="0.1">
<path opacity="0.1" d="M209.691 20.8657C209.341 22.6483 209.183 24.4621 209.222 26.277C209.249 24.7679 209.41 23.2639 209.704 21.7823C209.977 20.4302 210.325 18.9746 210.251 17.6256C210.136 18.7164 209.949 19.7987 209.691 20.8657Z" fill="black"/>
<path opacity="0.1" d="M176.838 33.4363C176.506 33.1318 176.108 32.9186 175.766 32.6293C174.858 31.8711 174.476 30.7717 174.401 29.5841C174.311 31.1067 174.628 32.5806 175.766 33.5429C176.108 33.8322 176.506 34.0514 176.838 34.3498C177.534 35.0239 177.937 35.9347 177.964 36.8926C178.054 35.6136 177.79 34.2829 176.838 33.4363Z" fill="black"/>
<path opacity="0.1" d="M175.847 22.0655C175.901 21.4224 175.844 20.7748 175.679 20.1501C175.499 19.4984 175.175 18.862 175.057 18.2073C175.057 18.2773 175.032 18.3504 175.023 18.4265C174.933 19.3401 175.436 20.1836 175.679 21.0637C175.768 21.3914 175.824 21.727 175.847 22.0655Z" fill="black"/>
<path opacity="0.1" d="M208.376 32.0934C207.515 33.0069 206.145 33.2323 204.883 33.2231C203.621 33.214 202.343 33.013 201.103 33.2566C200.239 33.4271 199.359 33.8078 198.51 33.5611C197.338 33.2292 196.869 31.734 195.747 31.4447C194.469 31.1158 193.496 32.8303 192.638 33.5124C190.54 35.1568 187.597 35.1416 184.914 35.035C183.773 34.9832 182.365 35.0716 181.874 36.0826C181.724 36.3891 181.692 36.7383 181.784 37.0662L177.985 37.6508C177.971 37.9572 177.937 38.2623 177.883 38.5644L181.784 37.9554C181.692 37.6275 181.724 37.2783 181.874 36.9718C182.365 35.9608 183.773 35.8724 184.914 35.9242C187.597 36.046 190.54 36.0612 192.638 34.4016C193.509 33.7195 194.482 32.005 195.747 32.3339C196.869 32.6202 197.338 34.1184 198.51 34.4503C199.359 34.6879 200.239 34.3072 201.103 34.1458C202.346 33.9022 203.621 34.1032 204.883 34.1123C206.145 34.1215 207.515 33.887 208.376 32.9825C209.237 32.0781 209.362 30.7291 209.309 29.4136C209.272 30.4337 209.057 31.3777 208.376 32.0934Z" fill="black"/>
</g>
<g opacity="0.1">
<path opacity="0.1" d="M179.602 46.7195C179.236 46.5307 178.851 46.3777 178.455 46.2628C177.78 45.9624 177.245 45.4259 176.953 44.7584C177.187 45.809 177.777 46.7652 178.766 47.1763C179.162 47.2912 179.547 47.4442 179.913 47.6331C180.147 47.7951 180.336 48.0118 180.463 48.2635C180.338 47.6666 180.112 47.0576 179.602 46.7195Z" fill="black"/>
<path opacity="0.1" d="M184.911 54.1285C183.478 54.4848 181.607 54.6705 180.82 53.4799C180.845 53.7668 180.929 54.0456 181.069 54.299C181.74 55.4714 183.382 55.4318 184.777 55.1425L184.911 54.1285Z" fill="black"/>
<path opacity="0.1" d="M190.717 54.9629C190.916 56.1992 190.096 57.4326 189.008 58.0812C187.92 58.7298 186.593 58.9095 185.312 58.9947C185.108 59.0206 184.901 58.9976 184.709 58.9277C184.651 59.0565 184.632 59.1991 184.655 59.3381C184.678 59.4772 184.742 59.6067 184.839 59.7107C184.936 59.8147 185.061 59.8888 185.201 59.9239C185.34 59.959 185.487 59.9536 185.623 59.9083C186.903 59.8291 188.221 59.6556 189.319 58.9947C190.416 58.3339 191.237 57.1037 191.025 55.8643C190.966 55.5514 190.862 55.248 190.717 54.9629Z" fill="black"/>
<path opacity="0.1" d="M192.098 43.9392C192.287 44.6796 192.302 45.4527 192.14 46.1994C191.979 46.9462 191.645 47.6469 191.165 48.2482C190.431 49.1191 189.316 49.8165 189.157 50.934C189.104 51.4479 189.213 51.9652 189.468 52.4171C189.44 52.2282 189.44 52.0364 189.468 51.8476C189.626 50.73 190.742 50.0205 191.476 49.1617C192.682 47.7335 192.85 45.6293 192.098 43.9392Z" fill="black"/>
</g>
<g opacity="0.1">
<path opacity="0.1" d="M154.762 176.043C155.819 175.614 157.14 175.599 157.927 174.825C158.48 174.283 158.614 173.5 158.996 172.852C159.618 171.768 160.908 171.113 162.207 170.769C166.559 169.612 176.481 172.084 179.067 175.669C179.825 176.753 180.238 178.033 180.255 179.347C180.354 177.83 179.938 176.323 179.07 175.063C176.484 171.478 166.571 169.006 162.21 170.163C160.911 170.507 159.63 171.162 158.999 172.246C158.617 172.894 158.483 173.677 157.93 174.219C157.143 174.99 155.822 175.005 154.765 175.437C153.96 175.763 153.364 176.725 153.581 177.371C153.668 177.079 153.818 176.809 154.022 176.58C154.226 176.35 154.479 176.167 154.762 176.043Z" fill="black"/>
<path opacity="0.1" d="M152.027 180.468C152.157 179.494 152.959 178.519 154.044 178.464C153.93 178.418 153.828 178.347 153.746 178.257C153.664 178.167 153.603 178.06 153.569 177.943C153.156 178.094 152.793 178.352 152.519 178.689C152.245 179.027 152.071 179.431 152.014 179.859C151.985 180.107 151.985 180.357 152.014 180.605C152.027 180.559 152.027 180.514 152.027 180.468Z" fill="black"/>
</g>
<path d="M217.873 70.1128H189.586V106.25H217.873V70.1128Z" fill="white"/>
<path opacity="0.1" d="M217.873 70.1128H189.586V106.25H217.873V70.1128Z" fill="black"/>
<path d="M228.68 72.2329L200.803 76.9305L207.056 112.545L234.933 107.847L228.68 72.2329Z" fill="white"/>
<path d="M214.109 100.105L207.559 101.209L209.028 109.576L215.578 108.472L214.109 100.105Z" fill="#F2C85B"/>
<path d="M223.172 98.5762L216.623 99.6799L218.092 108.047L224.641 106.943L223.172 98.5762Z" fill="#F2C85B"/>
<path d="M229.577 86.3176L206.608 90.1816L208.081 98.5868L231.05 94.7228L229.577 86.3176Z" fill="#F2C85B"/>
<path d="M227.662 76.2862L204.693 80.1501L205.022 82.0253L227.991 78.1613L227.662 76.2862Z" fill="#F2C85B"/>
<path d="M228.416 79.7356L205.446 83.5996L205.775 85.4748L228.744 81.6108L228.416 79.7356Z" fill="#F2C85B"/>
<path d="M205.492 60.295C205.492 60.295 192.489 73.0849 199.017 76.3341C205.545 79.5834 209.794 65.5237 209.794 65.5237L210.826 62.3262L205.492 60.295Z" fill="#AE6E79"/>
<path opacity="0.1" d="M204.354 59.1652L202.747 62.6429C202.747 62.6429 210.674 63.733 212.33 66.0809L211.348 59.9448L210.182 57.3259L204.354 59.1652Z" fill="black"/>
<path d="M204.665 58.8608L203.058 62.3384C203.058 62.3384 210.984 63.4286 212.641 65.7764L211.659 59.6404L210.493 57.0215L204.665 58.8608Z" fill="#4C4981"/>
<path d="M252.647 122.801L252.476 122.916L252.712 123.019L252.967 122.998L252.998 122.825L252.647 122.801Z" fill="#464A5F"/>
<path opacity="0.1" d="M252.647 122.801L252.476 122.916L252.712 123.019L252.967 122.998L252.998 122.825L252.647 122.801Z" fill="black"/>
<path d="M252.647 122.801L252.473 122.91L252.336 122.746L252.42 122.612L252.497 122.588L252.647 122.801Z" fill="#9C9CA1"/>
<path opacity="0.1" d="M252.647 122.801L252.473 122.91L252.336 122.746L252.42 122.612L252.497 122.588L252.647 122.801Z" fill="black"/>
<path d="M283.243 101.755L270.517 83.7492C270.404 83.5885 270.26 83.4511 270.093 83.345C269.926 83.2389 269.74 83.166 269.544 83.1307C269.348 83.0953 269.147 83.0981 268.952 83.1389C268.758 83.1798 268.573 83.2578 268.409 83.3686L240.042 102.444C239.71 102.667 239.482 103.01 239.408 103.398C239.334 103.785 239.42 104.186 239.647 104.511L252.339 122.746L283.243 101.755Z" fill="#9C9CA1"/>
<path opacity="0.1" d="M283.243 101.755L270.517 83.7492C270.404 83.5885 270.26 83.4511 270.093 83.345C269.926 83.2389 269.74 83.166 269.544 83.1307C269.348 83.0953 269.147 83.0981 268.952 83.1389C268.758 83.1798 268.573 83.2578 268.409 83.3686L240.042 102.444C239.71 102.667 239.482 103.01 239.408 103.398C239.334 103.785 239.42 104.186 239.647 104.511L252.339 122.746L283.243 101.755Z" fill="black"/>
<path d="M283.554 101.798L270.828 83.7918C270.715 83.631 270.571 83.4935 270.403 83.3874C270.236 83.2812 270.049 83.2083 269.853 83.173C269.657 83.1376 269.456 83.1405 269.261 83.1813C269.066 83.2222 268.881 83.3003 268.717 83.4111L240.353 102.498C240.021 102.722 239.793 103.065 239.719 103.452C239.644 103.839 239.729 104.24 239.955 104.566L252.647 122.81L283.554 101.798Z" fill="#9C9CA1"/>
<path d="M294.191 105.358L283.622 102.033L252.712 123.023L263.448 126.464C263.689 126.541 263.944 126.561 264.194 126.524C264.444 126.487 264.681 126.394 264.888 126.251L294.278 105.921C294.333 105.891 294.377 105.845 294.405 105.789C294.433 105.734 294.442 105.671 294.433 105.61C294.424 105.549 294.395 105.492 294.352 105.447C294.309 105.402 294.252 105.371 294.191 105.358Z" fill="#464A5F"/>
<path opacity="0.1" d="M294.191 105.358L283.622 102.033L252.712 123.023L263.448 126.464C263.689 126.541 263.944 126.561 264.194 126.524C264.444 126.487 264.681 126.394 264.888 126.251L294.278 105.921C294.333 105.891 294.377 105.845 294.405 105.789C294.433 105.734 294.442 105.671 294.433 105.61C294.424 105.549 294.395 105.492 294.352 105.447C294.309 105.402 294.252 105.371 294.191 105.358Z" fill="black"/>
<path d="M294.125 105.148L283.557 101.819L252.647 122.81L263.383 126.245C263.623 126.323 263.878 126.344 264.128 126.308C264.378 126.271 264.616 126.178 264.822 126.035L294.213 105.705C294.265 105.674 294.308 105.628 294.334 105.574C294.36 105.519 294.369 105.458 294.36 105.398C294.351 105.338 294.323 105.282 294.282 105.238C294.24 105.193 294.186 105.162 294.125 105.148Z" fill="#464A5F"/>
<g opacity="0.1">
<path opacity="0.1" d="M278.562 100.994L277.781 99.8979C277.734 99.8343 277.664 99.7909 277.586 99.7767C277.507 99.7626 277.426 99.7787 277.359 99.8218L276.199 100.58C276.134 100.625 276.089 100.693 276.074 100.769C276.058 100.846 276.073 100.925 276.115 100.991L276.833 102.072C276.878 102.137 276.947 102.182 277.025 102.199C277.103 102.215 277.185 102.201 277.253 102.161L278.475 101.408C278.541 101.364 278.587 101.296 278.603 101.218C278.62 101.141 278.605 101.061 278.562 100.994Z" fill="black"/>
<path opacity="0.1" d="M276.479 102.407L275.696 101.314C275.649 101.25 275.579 101.207 275.5 101.193C275.421 101.178 275.34 101.195 275.273 101.238L274.117 102.002C274.051 102.047 274.005 102.114 273.989 102.191C273.973 102.267 273.987 102.347 274.029 102.413L274.748 103.494C274.792 103.559 274.86 103.605 274.939 103.622C275.017 103.639 275.099 103.626 275.167 103.586L276.392 102.833C276.427 102.811 276.456 102.783 276.479 102.749C276.503 102.716 276.519 102.678 276.527 102.638C276.535 102.598 276.535 102.558 276.527 102.518C276.518 102.478 276.502 102.441 276.479 102.407Z" fill="black"/>
<path opacity="0.1" d="M274.291 103.89L273.507 102.797C273.46 102.733 273.39 102.69 273.312 102.676C273.233 102.662 273.151 102.678 273.085 102.721L271.925 103.485C271.859 103.53 271.814 103.598 271.798 103.676C271.782 103.753 271.798 103.833 271.841 103.899L272.559 104.98C272.604 105.045 272.673 105.09 272.751 105.107C272.829 105.123 272.911 105.11 272.979 105.069L274.2 104.317C274.235 104.295 274.265 104.266 274.289 104.233C274.312 104.199 274.329 104.162 274.337 104.122C274.345 104.082 274.346 104.041 274.338 104.001C274.33 103.962 274.314 103.924 274.291 103.89Z" fill="black"/>
<path opacity="0.1" d="M272.074 105.394L271.291 104.298C271.244 104.235 271.175 104.193 271.097 104.178C271.019 104.164 270.938 104.18 270.871 104.222L269.712 104.989C269.647 105.034 269.602 105.102 269.586 105.179C269.571 105.255 269.586 105.335 269.628 105.401L270.346 106.482C270.39 106.546 270.458 106.591 270.536 106.608C270.613 106.625 270.694 106.613 270.763 106.573L271.987 105.818C272.021 105.796 272.051 105.767 272.074 105.734C272.097 105.701 272.113 105.663 272.121 105.624C272.129 105.584 272.129 105.544 272.121 105.505C272.113 105.465 272.097 105.428 272.074 105.394Z" fill="black"/>
<path opacity="0.1" d="M269.861 106.896L269.078 105.802C269.031 105.739 268.961 105.695 268.882 105.681C268.803 105.667 268.722 105.683 268.655 105.726L267.499 106.491C267.433 106.535 267.388 106.603 267.371 106.679C267.355 106.756 267.37 106.835 267.412 106.902L268.13 107.983C268.174 108.048 268.243 108.094 268.321 108.111C268.399 108.128 268.481 108.115 268.549 108.074L269.774 107.319C269.808 107.297 269.838 107.268 269.861 107.235C269.883 107.202 269.899 107.164 269.907 107.125C269.916 107.086 269.916 107.045 269.908 107.006C269.9 106.967 269.884 106.929 269.861 106.896Z" fill="black"/>
<path opacity="0.1" d="M267.744 108.534L266.771 107.176C266.761 107.161 266.748 107.148 266.732 107.138C266.717 107.128 266.699 107.121 266.681 107.118C266.663 107.114 266.644 107.114 266.626 107.118C266.608 107.122 266.591 107.129 266.576 107.139L265.152 108.08C265.136 108.09 265.123 108.103 265.112 108.118C265.102 108.133 265.094 108.15 265.09 108.168C265.087 108.186 265.087 108.204 265.09 108.222C265.094 108.24 265.101 108.257 265.111 108.272L266.004 109.615C266.024 109.646 266.056 109.668 266.093 109.676C266.129 109.684 266.168 109.677 266.199 109.658L267.704 108.744C267.722 108.734 267.738 108.72 267.75 108.704C267.762 108.687 267.77 108.668 267.774 108.648C267.778 108.628 267.777 108.608 267.772 108.588C267.767 108.568 267.757 108.55 267.744 108.534Z" fill="black"/>
<path opacity="0.1" d="M265.531 110.035L264.552 108.677C264.541 108.662 264.528 108.649 264.512 108.639C264.496 108.629 264.479 108.622 264.46 108.618C264.442 108.615 264.423 108.615 264.404 108.619C264.386 108.623 264.368 108.63 264.353 108.641L262.929 109.582C262.899 109.603 262.878 109.634 262.871 109.67C262.864 109.706 262.872 109.743 262.892 109.773L263.784 111.116C263.794 111.132 263.806 111.146 263.822 111.157C263.837 111.168 263.854 111.176 263.873 111.18C263.891 111.184 263.91 111.184 263.928 111.18C263.947 111.177 263.964 111.169 263.98 111.159L265.481 110.245C265.501 110.237 265.517 110.224 265.531 110.208C265.544 110.191 265.554 110.172 265.558 110.152C265.563 110.132 265.563 110.111 265.558 110.091C265.554 110.07 265.544 110.052 265.531 110.035Z" fill="black"/>
<path opacity="0.1" d="M263.57 111.366L262.597 110.02C262.575 109.991 262.542 109.971 262.506 109.965C262.469 109.958 262.432 109.966 262.401 109.987L260.977 110.925C260.946 110.946 260.924 110.978 260.917 111.014C260.909 111.05 260.916 111.088 260.937 111.119L261.829 112.462C261.85 112.493 261.882 112.514 261.918 112.522C261.955 112.53 261.993 112.524 262.025 112.505L263.529 111.591C263.55 111.582 263.568 111.568 263.582 111.55C263.596 111.532 263.605 111.511 263.609 111.489C263.613 111.467 263.611 111.444 263.605 111.423C263.598 111.402 263.586 111.382 263.57 111.366Z" fill="black"/>
<path opacity="0.1" d="M261.375 112.852L260.402 111.494C260.38 111.465 260.348 111.445 260.311 111.438C260.275 111.432 260.237 111.44 260.206 111.461L258.783 112.398C258.767 112.409 258.753 112.422 258.743 112.437C258.732 112.452 258.725 112.47 258.721 112.488C258.717 112.506 258.717 112.524 258.721 112.543C258.725 112.561 258.732 112.578 258.742 112.593L259.634 113.936C259.655 113.967 259.687 113.988 259.724 113.996C259.76 114.004 259.798 113.998 259.83 113.979L261.335 113.065C261.353 113.055 261.369 113.041 261.381 113.024C261.393 113.007 261.401 112.988 261.405 112.968C261.409 112.948 261.408 112.927 261.403 112.907C261.398 112.887 261.388 112.868 261.375 112.852Z" fill="black"/>
<path opacity="0.1" d="M259.249 114.283L258.276 112.925C258.266 112.91 258.252 112.897 258.237 112.887C258.221 112.877 258.204 112.87 258.186 112.867C258.168 112.863 258.149 112.864 258.131 112.867C258.113 112.871 258.095 112.878 258.08 112.889L256.656 113.83C256.641 113.84 256.627 113.852 256.617 113.867C256.606 113.882 256.599 113.899 256.595 113.917C256.591 113.935 256.591 113.954 256.595 113.971C256.598 113.989 256.606 114.006 256.616 114.022L257.508 115.364C257.529 115.395 257.561 115.417 257.597 115.425C257.634 115.433 257.672 115.427 257.704 115.407L259.209 114.494C259.227 114.483 259.242 114.47 259.254 114.453C259.266 114.437 259.275 114.418 259.278 114.398C259.282 114.378 259.282 114.357 259.277 114.337C259.271 114.318 259.262 114.299 259.249 114.283Z" fill="black"/>
<path opacity="0.1" d="M257.123 115.739L256.159 114.378C256.137 114.348 256.105 114.329 256.068 114.322C256.032 114.316 255.994 114.324 255.963 114.344L254.54 115.282C254.524 115.292 254.51 115.306 254.5 115.321C254.489 115.336 254.482 115.353 254.478 115.371C254.474 115.39 254.474 115.408 254.478 115.426C254.481 115.445 254.489 115.462 254.499 115.477L255.391 116.82C255.412 116.85 255.444 116.872 255.481 116.88C255.517 116.887 255.555 116.881 255.587 116.863L257.092 115.949C257.109 115.938 257.124 115.924 257.135 115.907C257.146 115.89 257.153 115.871 257.156 115.851C257.159 115.831 257.158 115.811 257.152 115.791C257.146 115.772 257.136 115.754 257.123 115.739Z" fill="black"/>
<path opacity="0.1" d="M254.997 117.179L254.024 115.821C254.013 115.806 254 115.793 253.985 115.783C253.969 115.773 253.952 115.766 253.934 115.763C253.915 115.759 253.897 115.76 253.878 115.763C253.86 115.767 253.843 115.774 253.828 115.785L252.404 116.72C252.389 116.729 252.375 116.742 252.364 116.757C252.354 116.772 252.347 116.789 252.343 116.807C252.339 116.825 252.339 116.843 252.343 116.861C252.346 116.879 252.353 116.896 252.364 116.911L253.256 118.254C253.276 118.285 253.308 118.307 253.345 118.315C253.382 118.323 253.42 118.316 253.452 118.297L254.956 117.383C254.973 117.373 254.988 117.36 255 117.344C255.011 117.328 255.019 117.309 255.023 117.29C255.026 117.271 255.026 117.251 255.022 117.232C255.017 117.213 255.009 117.195 254.997 117.179Z" fill="black"/>
<path opacity="0.1" d="M277.163 99.0117L276.379 97.9154C276.333 97.8518 276.262 97.8084 276.184 97.7942C276.105 97.78 276.024 97.7962 275.957 97.8393L274.81 98.6066C274.744 98.6511 274.698 98.7186 274.682 98.7952C274.666 98.8717 274.681 98.9514 274.723 99.0177L275.441 100.099C275.486 100.164 275.554 100.209 275.632 100.225C275.711 100.242 275.792 100.228 275.86 100.187L277.085 99.4349C277.153 99.3888 277.199 99.3184 277.213 99.239C277.228 99.1597 277.21 99.0779 277.163 99.0117Z" fill="black"/>
<path opacity="0.1" d="M274.101 94.6784L273.318 93.576C273.271 93.5133 273.201 93.4704 273.123 93.4563C273.045 93.4421 272.965 93.4577 272.898 93.4999L271.739 94.2642C271.673 94.3087 271.627 94.3762 271.611 94.4528C271.595 94.5293 271.609 94.609 271.652 94.6753L272.37 95.7564C272.414 95.8217 272.483 95.8676 272.561 95.8846C272.639 95.9016 272.721 95.8884 272.789 95.8478L274.014 95.0956C274.081 95.051 274.128 94.9823 274.144 94.9044C274.161 94.8264 274.145 94.7453 274.101 94.6784Z" fill="black"/>
<path opacity="0.1" d="M275.077 100.425L274.294 99.3314C274.247 99.2686 274.177 99.2258 274.099 99.2116C274.021 99.1975 273.941 99.2131 273.874 99.2553L272.715 100.02C272.65 100.065 272.605 100.132 272.589 100.209C272.573 100.285 272.588 100.365 272.631 100.431L273.346 101.512C273.39 101.577 273.459 101.623 273.537 101.64C273.615 101.657 273.697 101.644 273.765 101.603L274.99 100.851C275.025 100.829 275.054 100.8 275.078 100.767C275.101 100.733 275.117 100.695 275.125 100.656C275.133 100.616 275.133 100.575 275.125 100.535C275.117 100.496 275.1 100.458 275.077 100.425Z" fill="black"/>
<path opacity="0.1" d="M272.889 101.908L272.105 100.814C272.058 100.751 271.988 100.707 271.91 100.693C271.831 100.679 271.75 100.695 271.683 100.738L270.526 101.494C270.46 101.538 270.414 101.606 270.397 101.683C270.381 101.761 270.396 101.841 270.439 101.908L271.157 102.989C271.202 103.053 271.271 103.099 271.349 103.115C271.427 103.132 271.509 103.118 271.577 103.077L272.802 102.325C272.869 102.28 272.916 102.212 272.932 102.134C272.948 102.056 272.933 101.975 272.889 101.908Z" fill="black"/>
<path opacity="0.1" d="M270.672 103.412L269.892 102.316C269.845 102.252 269.775 102.209 269.696 102.195C269.618 102.18 269.536 102.197 269.469 102.24L268.31 103.016C268.245 103.061 268.2 103.129 268.184 103.205C268.169 103.282 268.184 103.361 268.226 103.427L268.944 104.508C268.989 104.573 269.058 104.618 269.136 104.635C269.214 104.651 269.296 104.638 269.364 104.597L270.585 103.844C270.621 103.822 270.651 103.793 270.675 103.759C270.699 103.725 270.715 103.687 270.723 103.647C270.732 103.606 270.731 103.564 270.722 103.524C270.714 103.484 270.697 103.446 270.672 103.412Z" fill="black"/>
<path opacity="0.1" d="M272.065 96.1614L271.282 95.0682C271.235 95.0055 271.165 94.9626 271.087 94.9485C271.009 94.9343 270.929 94.9499 270.862 94.9921L269.703 95.7564C269.637 95.8009 269.591 95.8684 269.575 95.9449C269.559 96.0215 269.573 96.1012 269.616 96.1675L270.334 97.2486C270.378 97.3138 270.447 97.3597 270.525 97.3768C270.603 97.3938 270.685 97.3806 270.753 97.3399L271.978 96.5878C272.013 96.5656 272.042 96.537 272.065 96.5034C272.089 96.4699 272.105 96.4322 272.113 96.3925C272.121 96.3528 272.121 96.3119 272.113 96.2722C272.104 96.2326 272.088 96.1949 272.065 96.1614Z" fill="black"/>
<path opacity="0.1" d="M269.877 97.6475L269.093 96.5513C269.046 96.4877 268.976 96.4443 268.898 96.4301C268.819 96.4159 268.737 96.432 268.671 96.4751L267.514 97.2303C267.449 97.2748 267.403 97.3423 267.387 97.4188C267.371 97.4954 267.385 97.5751 267.427 97.6414L268.145 98.7225C268.19 98.7872 268.259 98.8325 268.337 98.849C268.415 98.8654 268.497 98.8518 268.565 98.8108L269.79 98.0586C269.855 98.0141 269.901 97.9466 269.917 97.8701C269.933 97.7936 269.919 97.7139 269.877 97.6475Z" fill="black"/>
<path opacity="0.1" d="M267.66 99.1487L266.877 98.0555C266.831 97.9923 266.761 97.9488 266.683 97.9341C266.605 97.9194 266.524 97.9345 266.457 97.9764L265.298 98.7529C265.233 98.7978 265.188 98.8655 265.172 98.942C265.157 99.0185 265.172 99.098 265.214 99.164L265.932 100.245C265.977 100.31 266.045 100.356 266.123 100.373C266.201 100.39 266.283 100.377 266.352 100.336L267.573 99.5812C267.609 99.559 267.639 99.5301 267.663 99.4961C267.687 99.462 267.703 99.4236 267.711 99.3832C267.719 99.3428 267.719 99.3012 267.71 99.2609C267.702 99.2206 267.685 99.1824 267.66 99.1487Z" fill="black"/>
<path opacity="0.1" d="M268.459 104.913L267.676 103.82C267.63 103.757 267.56 103.713 267.482 103.699C267.404 103.684 267.323 103.699 267.256 103.741L266.106 104.508C266.041 104.553 265.996 104.621 265.98 104.697C265.965 104.774 265.98 104.853 266.022 104.919L266.728 106C266.772 106.065 266.84 106.11 266.918 106.127C266.995 106.144 267.076 106.132 267.144 106.092L268.369 105.337C268.404 105.315 268.433 105.286 268.456 105.253C268.48 105.22 268.496 105.183 268.504 105.143C268.513 105.104 268.513 105.063 268.505 105.024C268.497 104.984 268.482 104.947 268.459 104.913Z" fill="black"/>
<path opacity="0.1" d="M266.246 106.415L265.463 105.321C265.416 105.258 265.346 105.214 265.267 105.2C265.188 105.186 265.107 105.202 265.04 105.245L263.884 106.01C263.818 106.054 263.772 106.122 263.756 106.198C263.74 106.275 263.754 106.354 263.797 106.421L264.515 107.502C264.559 107.567 264.628 107.613 264.706 107.63C264.784 107.647 264.866 107.634 264.934 107.593L266.159 106.841C266.194 106.819 266.223 106.79 266.246 106.757C266.27 106.723 266.286 106.685 266.294 106.646C266.302 106.606 266.302 106.565 266.294 106.525C266.285 106.486 266.269 106.448 266.246 106.415Z" fill="black"/>
<path opacity="0.1" d="M264.129 108.053L263.156 106.695C263.146 106.68 263.133 106.667 263.117 106.657C263.102 106.647 263.084 106.64 263.066 106.636C263.048 106.633 263.029 106.633 263.011 106.637C262.993 106.641 262.976 106.648 262.96 106.658L261.537 107.599C261.521 107.609 261.508 107.622 261.497 107.637C261.486 107.652 261.479 107.669 261.475 107.687C261.472 107.705 261.472 107.723 261.475 107.741C261.479 107.759 261.486 107.776 261.496 107.791L262.388 109.134C262.398 109.15 262.411 109.163 262.426 109.174C262.442 109.184 262.459 109.192 262.477 109.196C262.495 109.2 262.514 109.2 262.533 109.197C262.551 109.194 262.569 109.187 262.584 109.177L264.089 108.263C264.107 108.253 264.122 108.239 264.135 108.223C264.147 108.206 264.155 108.187 264.159 108.167C264.163 108.147 264.162 108.127 264.157 108.107C264.152 108.087 264.142 108.069 264.129 108.053Z" fill="black"/>
<path opacity="0.1" d="M262.168 109.384L261.195 108.022C261.173 107.993 261.14 107.973 261.104 107.967C261.067 107.961 261.03 107.969 260.999 107.989L259.578 108.927C259.547 108.948 259.526 108.98 259.518 109.016C259.511 109.053 259.518 109.091 259.538 109.122L260.43 110.465C260.451 110.495 260.483 110.516 260.519 110.524C260.556 110.532 260.594 110.526 260.626 110.507L262.13 109.594C262.149 109.584 262.165 109.571 262.178 109.554C262.19 109.537 262.199 109.518 262.202 109.498C262.206 109.477 262.205 109.457 262.199 109.437C262.193 109.417 262.182 109.399 262.168 109.384Z" fill="black"/>
<path opacity="0.1" d="M259.973 110.87L259 109.512C258.978 109.482 258.946 109.462 258.909 109.456C258.873 109.45 258.835 109.458 258.804 109.478L257.381 110.416C257.365 110.426 257.352 110.439 257.341 110.454C257.331 110.469 257.323 110.486 257.319 110.504C257.316 110.521 257.316 110.54 257.319 110.558C257.323 110.576 257.33 110.593 257.34 110.608L258.232 111.954C258.253 111.984 258.285 112.005 258.322 112.013C258.358 112.021 258.396 112.015 258.428 111.996L259.933 111.083C259.951 111.073 259.967 111.058 259.979 111.042C259.991 111.025 259.999 111.006 260.003 110.985C260.007 110.965 260.006 110.944 260.001 110.924C259.996 110.904 259.986 110.886 259.973 110.87Z" fill="black"/>
<path opacity="0.1" d="M257.847 112.313L256.874 110.955C256.864 110.94 256.851 110.927 256.835 110.917C256.82 110.907 256.802 110.9 256.784 110.897C256.766 110.893 256.747 110.893 256.729 110.897C256.711 110.901 256.694 110.908 256.678 110.918L255.255 111.847C255.239 111.857 255.225 111.87 255.215 111.885C255.204 111.9 255.197 111.917 255.193 111.935C255.189 111.953 255.189 111.971 255.193 111.989C255.197 112.007 255.204 112.024 255.214 112.039L256.106 113.382C256.127 113.413 256.159 113.435 256.195 113.443C256.232 113.451 256.27 113.444 256.302 113.425L257.807 112.511C257.823 112.501 257.837 112.488 257.848 112.472C257.858 112.457 257.866 112.439 257.87 112.421C257.874 112.402 257.874 112.383 257.87 112.365C257.866 112.346 257.858 112.329 257.847 112.313Z" fill="black"/>
<path opacity="0.1" d="M271.431 99.8461L270.648 98.7529C270.601 98.6901 270.531 98.6473 270.453 98.6331C270.375 98.619 270.295 98.6346 270.228 98.6768L269.068 99.4442C269.003 99.4891 268.958 99.5568 268.943 99.6333C268.927 99.7098 268.942 99.7893 268.985 99.8553L269.703 100.936C269.747 101 269.816 101.045 269.893 101.061C269.97 101.078 270.051 101.065 270.119 101.025L271.344 100.272C271.378 100.25 271.408 100.222 271.431 100.188C271.454 100.155 271.471 100.117 271.479 100.077C271.487 100.038 271.487 99.9966 271.479 99.9569C271.47 99.9173 271.454 99.8796 271.431 99.8461Z" fill="black"/>
<path opacity="0.1" d="M269.215 101.35L268.431 100.254C268.384 100.191 268.314 100.147 268.235 100.133C268.157 100.119 268.075 100.135 268.008 100.178L266.852 100.945C266.787 100.99 266.741 101.057 266.725 101.134C266.709 101.21 266.723 101.29 266.765 101.356L267.483 102.438C267.528 102.503 267.596 102.549 267.674 102.566C267.752 102.583 267.834 102.57 267.903 102.529L269.128 101.774C269.162 101.752 269.191 101.723 269.214 101.69C269.237 101.656 269.253 101.619 269.261 101.58C269.269 101.54 269.269 101.5 269.261 101.461C269.253 101.421 269.237 101.384 269.215 101.35Z" fill="black"/>
<path opacity="0.1" d="M267.004 102.852L266.221 101.759C266.174 101.695 266.104 101.652 266.025 101.637C265.947 101.623 265.865 101.639 265.798 101.682L264.639 102.447C264.574 102.492 264.529 102.559 264.513 102.636C264.498 102.712 264.513 102.792 264.555 102.858L265.273 103.939C265.318 104.004 265.386 104.05 265.464 104.067C265.542 104.084 265.624 104.071 265.693 104.03L266.914 103.275C266.949 103.253 266.978 103.225 267.002 103.192C267.025 103.158 267.041 103.121 267.049 103.082C267.058 103.042 267.058 103.002 267.05 102.962C267.043 102.923 267.027 102.885 267.004 102.852Z" fill="black"/>
<path opacity="0.1" d="M264.788 104.353L264.005 103.26C263.958 103.197 263.888 103.154 263.81 103.14C263.732 103.126 263.652 103.141 263.585 103.184L262.426 103.948C262.361 103.993 262.316 104.061 262.3 104.137C262.284 104.214 262.299 104.293 262.342 104.359L263.06 105.452C263.104 105.517 263.172 105.562 263.25 105.579C263.327 105.596 263.408 105.583 263.476 105.544L264.701 104.791C264.737 104.769 264.769 104.74 264.793 104.706C264.817 104.671 264.834 104.632 264.842 104.591C264.851 104.55 264.85 104.507 264.841 104.466C264.831 104.425 264.813 104.387 264.788 104.353Z" fill="black"/>
<path opacity="0.1" d="M262.687 105.991L261.714 104.633C261.704 104.618 261.69 104.605 261.675 104.595C261.659 104.585 261.642 104.578 261.624 104.575C261.606 104.571 261.587 104.571 261.569 104.575C261.551 104.579 261.533 104.586 261.518 104.597L260.094 105.538C260.063 105.558 260.042 105.59 260.034 105.625C260.027 105.661 260.034 105.699 260.054 105.729L260.946 107.075C260.956 107.091 260.969 107.104 260.985 107.114C261 107.125 261.017 107.132 261.036 107.136C261.054 107.139 261.073 107.139 261.091 107.136C261.109 107.132 261.127 107.125 261.142 107.115L262.646 106.201C262.664 106.191 262.68 106.178 262.692 106.161C262.704 106.144 262.712 106.126 262.716 106.106C262.72 106.086 262.72 106.065 262.714 106.045C262.709 106.026 262.7 106.007 262.687 105.991Z" fill="black"/>
<path opacity="0.1" d="M260.713 107.322L259.74 105.961C259.718 105.931 259.685 105.911 259.647 105.905C259.61 105.899 259.572 105.907 259.541 105.927L258.121 106.865C258.089 106.886 258.068 106.918 258.06 106.955C258.053 106.991 258.06 107.029 258.08 107.06L258.972 108.403C258.993 108.434 259.025 108.456 259.061 108.464C259.098 108.472 259.136 108.465 259.168 108.446L260.673 107.532C260.691 107.522 260.706 107.508 260.718 107.492C260.73 107.475 260.739 107.456 260.743 107.436C260.746 107.416 260.746 107.396 260.741 107.376C260.736 107.356 260.726 107.338 260.713 107.322Z" fill="black"/>
<path opacity="0.1" d="M258.518 108.802L257.546 107.441C257.523 107.411 257.49 107.391 257.453 107.385C257.416 107.379 257.378 107.387 257.347 107.407L255.923 108.345C255.892 108.367 255.871 108.399 255.864 108.435C255.856 108.471 255.863 108.509 255.883 108.54L256.778 109.883C256.798 109.914 256.83 109.936 256.867 109.944C256.903 109.952 256.942 109.945 256.974 109.926L258.475 109.012C258.494 109.003 258.51 108.989 258.523 108.973C258.535 108.957 258.544 108.938 258.548 108.917C258.553 108.897 258.552 108.876 258.547 108.856C258.542 108.836 258.532 108.818 258.518 108.802Z" fill="black"/>
<path opacity="0.1" d="M256.392 110.252L255.419 108.893C255.409 108.878 255.395 108.865 255.379 108.855C255.364 108.845 255.346 108.838 255.328 108.835C255.309 108.831 255.29 108.831 255.272 108.835C255.253 108.839 255.236 108.846 255.22 108.857L253.797 109.798C253.766 109.819 253.745 109.85 253.738 109.886C253.731 109.922 253.739 109.959 253.759 109.99L254.652 111.333C254.661 111.349 254.674 111.362 254.689 111.373C254.704 111.384 254.722 111.392 254.74 111.396C254.758 111.4 254.777 111.4 254.796 111.396C254.814 111.393 254.832 111.386 254.847 111.375L256.349 110.462C256.367 110.452 256.384 110.439 256.397 110.422C256.409 110.406 256.418 110.387 256.422 110.367C256.426 110.347 256.426 110.326 256.421 110.306C256.416 110.286 256.406 110.267 256.392 110.252Z" fill="black"/>
<path opacity="0.1" d="M255.721 113.754L254.748 112.395C254.726 112.366 254.693 112.346 254.657 112.34C254.62 112.334 254.583 112.342 254.552 112.362L253.128 113.3C253.113 113.31 253.099 113.323 253.089 113.338C253.078 113.353 253.071 113.37 253.067 113.387C253.063 113.405 253.063 113.424 253.067 113.442C253.07 113.46 253.078 113.477 253.088 113.492L253.98 114.838C254.001 114.868 254.033 114.889 254.069 114.897C254.106 114.905 254.144 114.899 254.176 114.88L255.68 113.967C255.699 113.956 255.714 113.942 255.726 113.925C255.738 113.909 255.747 113.889 255.751 113.869C255.754 113.849 255.754 113.828 255.749 113.808C255.743 113.788 255.734 113.77 255.721 113.754Z" fill="black"/>
<path opacity="0.1" d="M253.595 115.197L252.622 113.839C252.611 113.824 252.598 113.811 252.583 113.801C252.567 113.791 252.55 113.784 252.532 113.78C252.513 113.777 252.495 113.777 252.477 113.781C252.458 113.785 252.441 113.792 252.426 113.802L251.002 114.743C250.987 114.753 250.973 114.766 250.963 114.781C250.952 114.796 250.945 114.813 250.941 114.831C250.937 114.849 250.937 114.867 250.941 114.885C250.944 114.903 250.951 114.92 250.962 114.935L251.854 116.278C251.874 116.309 251.906 116.331 251.943 116.339C251.98 116.347 252.018 116.34 252.05 116.321L253.554 115.407C253.572 115.397 253.588 115.383 253.6 115.367C253.612 115.35 253.62 115.331 253.624 115.311C253.628 115.291 253.627 115.271 253.622 115.251C253.617 115.231 253.608 115.213 253.595 115.197Z" fill="black"/>
<path opacity="0.1" d="M256.933 106.567L256.001 105.288C255.971 105.248 255.927 105.221 255.878 105.213C255.829 105.204 255.778 105.215 255.736 105.242L254.394 106.128C254.373 106.142 254.355 106.159 254.341 106.18C254.327 106.2 254.317 106.223 254.312 106.247C254.307 106.271 254.307 106.296 254.312 106.32C254.317 106.344 254.327 106.367 254.341 106.387L255.18 107.651C255.193 107.672 255.21 107.69 255.23 107.704C255.251 107.718 255.274 107.729 255.298 107.734C255.322 107.739 255.348 107.74 255.372 107.736C255.397 107.731 255.42 107.722 255.441 107.709L256.862 106.835C256.885 106.823 256.906 106.806 256.922 106.785C256.938 106.765 256.95 106.741 256.957 106.716C256.964 106.691 256.965 106.665 256.961 106.639C256.957 106.613 256.947 106.589 256.933 106.567Z" fill="black"/>
<path opacity="0.1" d="M254.807 108.01L253.89 106.731C253.876 106.711 253.858 106.694 253.837 106.68C253.816 106.667 253.793 106.658 253.768 106.653C253.744 106.649 253.718 106.649 253.694 106.654C253.67 106.659 253.646 106.669 253.626 106.683L252.283 107.584C252.262 107.597 252.244 107.614 252.23 107.634C252.216 107.655 252.207 107.677 252.202 107.701C252.197 107.725 252.197 107.749 252.202 107.773C252.207 107.797 252.216 107.82 252.23 107.84L253.069 109.107C253.097 109.147 253.139 109.176 253.188 109.187C253.237 109.198 253.288 109.19 253.33 109.164L254.751 108.29C254.775 108.277 254.796 108.259 254.812 108.237C254.828 108.215 254.839 108.189 254.844 108.163C254.85 108.136 254.849 108.109 254.843 108.083C254.836 108.056 254.824 108.032 254.807 108.01Z" fill="black"/>
<path opacity="0.1" d="M252.681 109.454L251.764 108.172C251.734 108.132 251.691 108.105 251.641 108.096C251.592 108.088 251.541 108.098 251.5 108.126L250.157 109.012C250.136 109.026 250.118 109.043 250.104 109.063C250.09 109.084 250.08 109.107 250.075 109.131C250.07 109.155 250.07 109.18 250.075 109.204C250.08 109.228 250.09 109.251 250.104 109.271L250.943 110.535C250.956 110.556 250.973 110.574 250.994 110.588C251.014 110.602 251.037 110.612 251.061 110.618C251.086 110.623 251.111 110.624 251.135 110.619C251.16 110.615 251.183 110.606 251.204 110.593L252.625 109.719C252.647 109.705 252.666 109.688 252.681 109.667C252.696 109.646 252.706 109.623 252.711 109.598C252.717 109.573 252.717 109.548 252.711 109.523C252.706 109.498 252.696 109.474 252.681 109.454Z" fill="black"/>
<path opacity="0.1" d="M250.583 110.934L249.61 109.573C249.588 109.543 249.555 109.523 249.519 109.517C249.482 109.511 249.445 109.519 249.414 109.539L247.99 110.477C247.959 110.498 247.937 110.53 247.93 110.566C247.922 110.603 247.929 110.641 247.95 110.672L248.842 112.015C248.863 112.045 248.895 112.066 248.931 112.074C248.968 112.082 249.006 112.076 249.038 112.057L250.542 111.144C250.561 111.135 250.578 111.121 250.59 111.105C250.603 111.088 250.612 111.069 250.616 111.049C250.62 111.028 250.619 111.007 250.613 110.987C250.607 110.967 250.597 110.949 250.583 110.934Z" fill="black"/>
<path opacity="0.1" d="M275.742 96.88L274.9 95.7076C274.852 95.6445 274.782 95.6017 274.703 95.5881C274.625 95.5745 274.544 95.5911 274.477 95.6346L271.188 97.891C271.125 97.9364 271.081 98.0037 271.066 98.0795C271.051 98.1552 271.066 98.2337 271.108 98.2991L271.9 99.4989C271.923 99.5321 271.952 99.5606 271.986 99.5828C272.021 99.6049 272.059 99.6202 272.099 99.6278C272.139 99.6355 272.18 99.6353 272.22 99.6273C272.26 99.6193 272.298 99.6036 272.332 99.5811L275.671 97.2942C275.735 97.2473 275.778 97.1782 275.791 97.1011C275.804 97.024 275.787 96.9449 275.742 96.88Z" fill="black"/>
<path opacity="0.1" d="M254.26 111.649L253.228 110.221C253.217 110.206 253.204 110.193 253.188 110.183C253.172 110.173 253.154 110.166 253.136 110.163C253.117 110.16 253.098 110.16 253.08 110.165C253.061 110.169 253.044 110.177 253.029 110.188L249.479 112.624C249.449 112.644 249.428 112.675 249.421 112.711C249.414 112.746 249.422 112.783 249.442 112.813L250.412 114.283C250.422 114.299 250.436 114.313 250.451 114.324C250.467 114.334 250.485 114.342 250.504 114.345C250.523 114.349 250.542 114.349 250.561 114.345C250.58 114.341 250.598 114.334 250.614 114.323L254.223 111.847C254.254 111.826 254.276 111.793 254.283 111.756C254.29 111.719 254.282 111.681 254.26 111.649Z" fill="black"/>
<path opacity="0.1" d="M265.553 100.726L264.602 99.3619C264.58 99.3321 264.548 99.3115 264.511 99.3047C264.475 99.2979 264.437 99.3053 264.406 99.3254L256.523 104.539C256.492 104.559 256.47 104.591 256.463 104.627C256.455 104.663 256.462 104.7 256.482 104.731L257.455 106.192C257.466 106.208 257.479 106.222 257.495 106.233C257.511 106.243 257.529 106.251 257.548 106.254C257.567 106.258 257.586 106.258 257.605 106.254C257.624 106.25 257.642 106.243 257.657 106.232L265.516 100.921C265.531 100.911 265.544 100.897 265.555 100.882C265.565 100.867 265.572 100.849 265.575 100.831C265.579 100.813 265.579 100.795 265.575 100.776C265.571 100.758 265.563 100.741 265.553 100.726Z" fill="black"/>
</g>
<path d="M278.77 101.031L277.987 99.9344C277.94 99.8708 277.869 99.8274 277.791 99.8132C277.712 99.7991 277.631 99.8152 277.564 99.8583L276.407 100.626C276.342 100.67 276.296 100.738 276.28 100.814C276.264 100.891 276.278 100.97 276.32 101.037L277.038 102.118C277.083 102.183 277.151 102.229 277.23 102.246C277.308 102.263 277.39 102.25 277.458 102.209L278.683 101.454C278.717 101.432 278.746 101.403 278.769 101.37C278.792 101.337 278.808 101.299 278.816 101.26C278.824 101.221 278.824 101.18 278.816 101.141C278.808 101.102 278.793 101.064 278.77 101.031Z" fill="#464A5F"/>
<path d="M276.675 102.444L275.891 101.35C275.845 101.288 275.775 101.245 275.697 101.231C275.619 101.217 275.538 101.232 275.472 101.274L274.312 102.039C274.247 102.083 274.201 102.151 274.185 102.227C274.169 102.304 274.183 102.383 274.225 102.45L274.943 103.531C274.988 103.596 275.056 103.642 275.134 103.659C275.213 103.676 275.295 103.663 275.363 103.622L276.588 102.87C276.622 102.848 276.652 102.819 276.675 102.786C276.698 102.752 276.714 102.714 276.723 102.675C276.731 102.635 276.731 102.594 276.722 102.554C276.714 102.515 276.698 102.477 276.675 102.444Z" fill="#464A5F"/>
<path d="M274.499 103.93L273.716 102.837C273.669 102.773 273.599 102.73 273.52 102.715C273.441 102.701 273.36 102.717 273.293 102.76L272.136 103.528C272.071 103.572 272.025 103.64 272.009 103.716C271.993 103.793 272.007 103.873 272.049 103.939L272.767 105.02C272.812 105.085 272.881 105.13 272.959 105.146C273.037 105.163 273.119 105.149 273.187 105.108L274.412 104.356C274.446 104.334 274.476 104.305 274.499 104.272C274.522 104.238 274.539 104.201 274.547 104.161C274.555 104.121 274.555 104.08 274.547 104.041C274.538 104.001 274.522 103.963 274.499 103.93Z" fill="#464A5F"/>
<path d="M272.279 105.431L271.496 104.335C271.449 104.272 271.38 104.229 271.302 104.215C271.224 104.201 271.143 104.217 271.077 104.259L269.917 105.026C269.883 105.049 269.854 105.078 269.831 105.111C269.809 105.145 269.793 105.183 269.786 105.223C269.778 105.262 269.779 105.303 269.787 105.343C269.796 105.382 269.813 105.419 269.836 105.452L270.554 106.533C270.599 106.599 270.667 106.645 270.745 106.662C270.824 106.679 270.905 106.665 270.974 106.625L272.196 105.87C272.232 105.847 272.263 105.818 272.287 105.783C272.311 105.749 272.327 105.709 272.335 105.668C272.343 105.627 272.342 105.585 272.332 105.544C272.323 105.503 272.305 105.465 272.279 105.431Z" fill="#464A5F"/>
<path d="M270.066 106.932L269.283 105.839C269.236 105.776 269.167 105.733 269.089 105.719C269.011 105.705 268.93 105.721 268.863 105.763L267.704 106.527C267.639 106.572 267.594 106.64 267.578 106.716C267.563 106.793 267.578 106.872 267.62 106.938L268.335 108.019C268.379 108.085 268.448 108.131 268.526 108.148C268.604 108.165 268.686 108.151 268.755 108.111L269.979 107.356C270.013 107.333 270.043 107.305 270.066 107.272C270.088 107.238 270.104 107.201 270.113 107.162C270.121 107.122 270.121 107.082 270.113 107.042C270.105 107.003 270.089 106.966 270.066 106.932Z" fill="#464A5F"/>
<path d="M267.949 108.571L266.977 107.212C266.966 107.197 266.953 107.184 266.937 107.174C266.922 107.164 266.905 107.157 266.886 107.154C266.868 107.151 266.849 107.151 266.831 107.155C266.813 107.158 266.796 107.166 266.781 107.176L265.357 108.117C265.341 108.127 265.328 108.14 265.317 108.155C265.307 108.17 265.299 108.187 265.296 108.204C265.292 108.222 265.292 108.241 265.295 108.259C265.299 108.277 265.306 108.294 265.317 108.309L266.209 109.652C266.229 109.683 266.261 109.704 266.298 109.712C266.334 109.72 266.373 109.714 266.405 109.694L267.909 108.781C267.927 108.771 267.943 108.757 267.955 108.74C267.967 108.724 267.975 108.705 267.979 108.685C267.983 108.665 267.982 108.644 267.977 108.625C267.972 108.605 267.963 108.586 267.949 108.571Z" fill="#464A5F"/>
<path d="M265.736 110.072L264.763 108.714C264.753 108.699 264.739 108.686 264.723 108.676C264.708 108.665 264.69 108.659 264.672 108.655C264.653 108.652 264.634 108.652 264.616 108.656C264.597 108.66 264.58 108.667 264.564 108.677L263.144 109.618C263.128 109.628 263.115 109.641 263.104 109.656C263.094 109.671 263.086 109.688 263.082 109.706C263.079 109.724 263.079 109.742 263.082 109.76C263.086 109.778 263.093 109.795 263.103 109.81L263.996 111.156C264.006 111.171 264.019 111.185 264.034 111.195C264.049 111.205 264.067 111.213 264.085 111.216C264.103 111.22 264.122 111.22 264.14 111.216C264.159 111.213 264.176 111.206 264.191 111.196L265.696 110.282C265.714 110.272 265.729 110.258 265.741 110.241C265.752 110.225 265.76 110.206 265.764 110.186C265.768 110.166 265.767 110.146 265.763 110.126C265.758 110.106 265.749 110.088 265.736 110.072Z" fill="#464A5F"/>
<path d="M263.775 111.403L262.802 110.041C262.78 110.012 262.747 109.992 262.711 109.986C262.674 109.98 262.637 109.988 262.606 110.008L261.182 110.934C261.151 110.955 261.13 110.987 261.122 111.023C261.114 111.059 261.122 111.097 261.142 111.129L262.034 112.471C262.055 112.502 262.087 112.523 262.123 112.531C262.16 112.539 262.198 112.533 262.23 112.514L263.734 111.601C263.751 111.59 263.765 111.577 263.775 111.562C263.786 111.546 263.794 111.528 263.798 111.51C263.801 111.492 263.801 111.472 263.797 111.454C263.793 111.436 263.786 111.418 263.775 111.403Z" fill="#464A5F"/>
<path d="M261.58 112.892L260.607 111.543C260.586 111.513 260.553 111.493 260.516 111.487C260.48 111.481 260.442 111.489 260.412 111.509L258.988 112.447C258.972 112.457 258.959 112.47 258.948 112.486C258.937 112.501 258.93 112.518 258.926 112.536C258.922 112.554 258.922 112.573 258.926 112.591C258.93 112.609 258.937 112.627 258.947 112.642L259.84 113.985C259.86 114.015 259.892 114.037 259.929 114.044C259.965 114.052 260.003 114.046 260.035 114.028L261.54 113.114C261.56 113.104 261.578 113.09 261.591 113.073C261.604 113.055 261.614 113.035 261.618 113.013C261.621 112.991 261.62 112.969 261.614 112.948C261.607 112.927 261.596 112.908 261.58 112.892Z" fill="#464A5F"/>
<path d="M259.454 114.332L258.481 112.974C258.471 112.959 258.458 112.946 258.442 112.936C258.427 112.926 258.409 112.919 258.391 112.916C258.373 112.912 258.354 112.912 258.336 112.916C258.318 112.92 258.301 112.927 258.285 112.937L256.862 113.878C256.846 113.888 256.833 113.901 256.822 113.916C256.811 113.931 256.804 113.948 256.8 113.966C256.797 113.984 256.796 114.002 256.8 114.02C256.804 114.038 256.811 114.055 256.821 114.07L257.713 115.413C257.723 115.429 257.736 115.442 257.751 115.453C257.767 115.464 257.784 115.471 257.802 115.475C257.82 115.479 257.839 115.479 257.858 115.476C257.876 115.473 257.894 115.466 257.909 115.456L259.414 114.542C259.432 114.532 259.447 114.518 259.459 114.502C259.472 114.485 259.48 114.466 259.484 114.446C259.487 114.426 259.487 114.406 259.482 114.386C259.477 114.366 259.467 114.348 259.454 114.332Z" fill="#464A5F"/>
<path d="M257.328 115.776L256.355 114.414C256.333 114.385 256.301 114.365 256.264 114.359C256.227 114.353 256.19 114.361 256.159 114.381L254.735 115.319C254.704 115.34 254.683 115.372 254.675 115.408C254.668 115.445 254.675 115.482 254.695 115.514L255.587 116.857C255.608 116.887 255.64 116.908 255.676 116.916C255.713 116.924 255.751 116.918 255.783 116.899L257.288 115.986C257.306 115.976 257.321 115.962 257.333 115.945C257.345 115.929 257.354 115.91 257.357 115.89C257.361 115.87 257.361 115.849 257.356 115.83C257.35 115.81 257.341 115.791 257.328 115.776Z" fill="#464A5F"/>
<path d="M255.202 117.216L254.229 115.858C254.219 115.843 254.205 115.83 254.19 115.82C254.174 115.81 254.157 115.803 254.139 115.799C254.12 115.796 254.102 115.796 254.084 115.8C254.065 115.804 254.048 115.811 254.033 115.821L252.609 116.762C252.594 116.772 252.58 116.785 252.57 116.8C252.559 116.815 252.552 116.832 252.548 116.85C252.544 116.868 252.544 116.886 252.548 116.904C252.551 116.922 252.559 116.939 252.569 116.954L253.461 118.297C253.471 118.313 253.484 118.326 253.499 118.337C253.514 118.347 253.532 118.355 253.55 118.359C253.568 118.363 253.587 118.363 253.605 118.36C253.624 118.357 253.641 118.35 253.657 118.34L255.161 117.426C255.179 117.416 255.195 117.402 255.207 117.386C255.219 117.369 255.227 117.35 255.231 117.33C255.235 117.31 255.234 117.29 255.229 117.27C255.224 117.25 255.215 117.232 255.202 117.216Z" fill="#464A5F"/>
<path d="M277.368 99.0574L276.585 97.9612C276.538 97.8984 276.468 97.8556 276.39 97.8414C276.312 97.8272 276.232 97.8429 276.165 97.885L275.006 98.6524C274.94 98.6974 274.895 98.7651 274.88 98.8416C274.864 98.9181 274.879 98.9975 274.922 99.0635L275.637 100.145C275.681 100.21 275.749 100.256 275.828 100.273C275.906 100.29 275.988 100.277 276.056 100.236L277.281 99.4807C277.315 99.4586 277.344 99.4301 277.367 99.3968C277.39 99.3635 277.406 99.3261 277.414 99.2868C277.422 99.2475 277.422 99.2069 277.414 99.1676C277.406 99.1282 277.391 99.0908 277.368 99.0574Z" fill="#464A5F"/>
<path d="M274.306 94.7149L273.523 93.6217C273.476 93.5589 273.406 93.5161 273.328 93.5019C273.25 93.4878 273.17 93.5034 273.103 93.5455L271.944 94.3099C271.879 94.3548 271.834 94.4225 271.818 94.499C271.802 94.5755 271.817 94.655 271.86 94.721L272.578 95.802C272.622 95.8665 272.69 95.9118 272.768 95.9288C272.845 95.9458 272.926 95.9331 272.994 95.8934L274.219 95.1412C274.254 95.1191 274.283 95.0904 274.307 95.0569C274.33 95.0234 274.346 94.9857 274.354 94.946C274.362 94.9063 274.362 94.8654 274.354 94.8257C274.346 94.786 274.329 94.7484 274.306 94.7149Z" fill="#464A5F"/>
<path d="M275.282 100.461L274.499 99.3619C274.452 99.2992 274.383 99.2563 274.305 99.2422C274.227 99.228 274.146 99.2436 274.079 99.2858L272.92 100.05C272.855 100.095 272.81 100.163 272.794 100.239C272.779 100.316 272.793 100.395 272.836 100.461L273.554 101.542C273.598 101.607 273.666 101.652 273.744 101.669C273.821 101.686 273.902 101.673 273.97 101.634L275.195 100.881C275.263 100.837 275.311 100.768 275.327 100.689C275.343 100.61 275.327 100.528 275.282 100.461Z" fill="#464A5F"/>
<path d="M273.094 101.944L272.323 100.851C272.276 100.788 272.207 100.745 272.129 100.731C272.051 100.717 271.97 100.733 271.903 100.775L270.744 101.539C270.678 101.584 270.632 101.653 270.617 101.73C270.601 101.807 270.617 101.887 270.66 101.953L271.375 103.034C271.42 103.099 271.489 103.145 271.567 103.161C271.645 103.177 271.726 103.164 271.795 103.123L273.019 102.371C273.053 102.348 273.081 102.318 273.103 102.284C273.125 102.25 273.14 102.212 273.147 102.173C273.154 102.133 273.153 102.092 273.144 102.053C273.135 102.014 273.118 101.977 273.094 101.944Z" fill="#464A5F"/>
<path d="M270.881 103.449L270.097 102.352C270.05 102.289 269.98 102.245 269.902 102.231C269.823 102.217 269.741 102.233 269.675 102.276L268.518 103.044C268.453 103.088 268.407 103.156 268.391 103.232C268.375 103.309 268.389 103.388 268.431 103.455L269.149 104.536C269.194 104.601 269.262 104.647 269.34 104.664C269.419 104.681 269.5 104.668 269.569 104.627L270.794 103.872C270.828 103.85 270.857 103.821 270.88 103.788C270.903 103.755 270.919 103.717 270.927 103.678C270.935 103.639 270.935 103.598 270.927 103.559C270.919 103.519 270.903 103.482 270.881 103.449Z" fill="#464A5F"/>
<path d="M272.27 96.1981L271.487 95.0987C271.44 95.036 271.37 94.9931 271.292 94.979C271.214 94.9648 271.134 94.9804 271.067 95.0226L269.908 95.787C269.843 95.8319 269.798 95.8996 269.782 95.9761C269.766 96.0526 269.781 96.132 269.824 96.1981L270.542 97.2791C270.586 97.3436 270.654 97.3889 270.732 97.4059C270.809 97.4229 270.89 97.4102 270.958 97.3705L272.183 96.6183C272.251 96.5736 272.299 96.5044 272.315 96.4257C272.331 96.347 272.315 96.2652 272.27 96.1981Z" fill="#464A5F"/>
<path d="M270.082 97.684L269.298 96.5878C269.252 96.525 269.182 96.4821 269.104 96.468C269.026 96.4538 268.945 96.4694 268.879 96.5116L267.719 97.279C267.654 97.3235 267.608 97.391 267.592 97.4675C267.576 97.544 267.59 97.6237 267.632 97.6901L268.35 98.7712C268.395 98.8364 268.463 98.8823 268.541 98.8994C268.62 98.9164 268.702 98.9032 268.77 98.8625L269.995 98.1073C270.029 98.0852 270.058 98.0567 270.081 98.0234C270.104 97.9901 270.12 97.9527 270.128 97.9134C270.136 97.874 270.136 97.8335 270.128 97.7942C270.12 97.7548 270.105 97.7174 270.082 97.684Z" fill="#464A5F"/>
<path d="M267.869 99.1854L267.085 98.0921C267.038 98.0286 266.968 97.9851 266.89 97.971C266.811 97.9568 266.729 97.9729 266.663 98.016L265.506 98.7804C265.441 98.8249 265.395 98.8924 265.379 98.9689C265.363 99.0454 265.377 99.1251 265.419 99.1915L266.137 100.276C266.182 100.341 266.25 100.387 266.328 100.404C266.407 100.421 266.488 100.408 266.557 100.367L267.778 99.6117C267.813 99.5898 267.843 99.5613 267.867 99.5279C267.89 99.4945 267.907 99.4568 267.915 99.4171C267.923 99.3774 267.924 99.3365 267.916 99.2967C267.908 99.2569 267.892 99.219 267.869 99.1854Z" fill="#464A5F"/>
<path d="M268.664 104.95L267.881 103.857C267.834 103.794 267.765 103.751 267.687 103.737C267.609 103.723 267.528 103.738 267.461 103.781L266.302 104.539C266.237 104.584 266.192 104.651 266.176 104.728C266.161 104.804 266.176 104.884 266.218 104.95L266.936 106.031C266.98 106.095 267.048 106.141 267.126 106.158C267.203 106.175 267.284 106.162 267.353 106.122L268.577 105.367C268.645 105.322 268.691 105.254 268.708 105.176C268.724 105.098 268.708 105.017 268.664 104.95Z" fill="#464A5F"/>
<path d="M266.451 106.451L265.668 105.358C265.621 105.295 265.551 105.252 265.473 105.238C265.395 105.224 265.315 105.24 265.248 105.282L264.089 106.061C264.023 106.106 263.978 106.173 263.961 106.25C263.945 106.326 263.96 106.406 264.002 106.472L264.72 107.553C264.764 107.619 264.833 107.665 264.911 107.682C264.989 107.699 265.071 107.686 265.139 107.645L266.364 106.893C266.401 106.871 266.433 106.841 266.457 106.806C266.482 106.772 266.499 106.732 266.507 106.691C266.515 106.649 266.514 106.606 266.505 106.565C266.495 106.524 266.477 106.485 266.451 106.451Z" fill="#464A5F"/>
<path d="M264.334 108.089L263.361 106.731C263.351 106.716 263.338 106.703 263.322 106.693C263.307 106.683 263.29 106.676 263.271 106.673C263.253 106.669 263.234 106.67 263.216 106.673C263.198 106.677 263.181 106.684 263.166 106.695L261.754 107.636C261.739 107.646 261.725 107.658 261.715 107.673C261.704 107.688 261.697 107.705 261.693 107.723C261.689 107.741 261.689 107.76 261.693 107.777C261.696 107.795 261.704 107.812 261.714 107.828L262.606 109.17C262.616 109.186 262.629 109.2 262.644 109.21C262.659 109.221 262.676 109.228 262.695 109.232C262.713 109.236 262.732 109.237 262.75 109.233C262.769 109.23 262.786 109.223 262.802 109.213L264.306 108.3C264.323 108.288 264.337 108.273 264.348 108.256C264.358 108.239 264.365 108.22 264.368 108.201C264.37 108.181 264.369 108.161 264.363 108.142C264.357 108.122 264.347 108.105 264.334 108.089Z" fill="#464A5F"/>
<path d="M262.376 109.411L261.403 108.05C261.381 108.02 261.348 108 261.31 107.994C261.273 107.988 261.235 107.996 261.204 108.016L259.78 108.954C259.75 108.976 259.729 109.008 259.721 109.044C259.714 109.08 259.72 109.118 259.74 109.149L260.635 110.492C260.656 110.523 260.688 110.545 260.724 110.553C260.761 110.561 260.799 110.554 260.831 110.535L262.332 109.621C262.351 109.612 262.368 109.598 262.38 109.582C262.393 109.566 262.402 109.547 262.406 109.526C262.41 109.506 262.41 109.485 262.404 109.465C262.399 109.445 262.39 109.427 262.376 109.411Z" fill="#464A5F"/>
<path d="M260.178 110.909L259.205 109.548C259.184 109.519 259.151 109.499 259.114 109.493C259.078 109.486 259.04 109.494 259.01 109.515L257.586 110.453C257.555 110.474 257.533 110.506 257.526 110.542C257.518 110.578 257.525 110.616 257.546 110.647L258.438 111.99C258.459 112.021 258.491 112.042 258.527 112.05C258.563 112.058 258.601 112.052 258.633 112.033L260.138 111.119C260.157 111.11 260.173 111.097 260.186 111.08C260.199 111.064 260.208 111.045 260.212 111.024C260.215 111.004 260.215 110.983 260.209 110.963C260.203 110.943 260.193 110.925 260.178 110.909Z" fill="#464A5F"/>
<path d="M258.055 112.35L257.092 110.992C257.081 110.976 257.068 110.963 257.053 110.953C257.037 110.943 257.02 110.936 257.002 110.933C256.983 110.93 256.965 110.93 256.946 110.934C256.928 110.937 256.911 110.945 256.896 110.955L255.472 111.896C255.441 111.916 255.42 111.948 255.412 111.984C255.405 112.02 255.412 112.057 255.432 112.088L256.324 113.431C256.344 113.462 256.376 113.483 256.413 113.491C256.45 113.499 256.488 113.493 256.52 113.473L258.024 112.56C258.042 112.549 258.057 112.535 258.069 112.518C258.08 112.501 258.088 112.482 258.091 112.462C258.094 112.442 258.092 112.421 258.086 112.402C258.08 112.383 258.069 112.365 258.055 112.35Z" fill="#464A5F"/>
<path d="M271.636 99.8857L270.856 98.7894C270.809 98.7258 270.739 98.6824 270.66 98.6682C270.581 98.654 270.5 98.6702 270.433 98.7133L269.274 99.4807C269.209 99.5256 269.164 99.5933 269.148 99.6698C269.132 99.7463 269.147 99.8258 269.19 99.8918L269.908 100.973C269.953 101.038 270.021 101.083 270.099 101.099C270.178 101.116 270.259 101.102 270.327 101.061L271.549 100.309C271.583 100.287 271.612 100.258 271.635 100.225C271.658 100.192 271.674 100.154 271.682 100.115C271.69 100.076 271.69 100.035 271.683 99.9958C271.675 99.9565 271.659 99.919 271.636 99.8857Z" fill="#464A5F"/>
<path d="M269.423 101.387L268.639 100.294C268.593 100.231 268.524 100.187 268.446 100.172C268.368 100.158 268.287 100.173 268.22 100.215L267.06 100.982C266.995 101.027 266.95 101.095 266.935 101.171C266.919 101.248 266.934 101.327 266.976 101.393L267.695 102.474C267.739 102.539 267.807 102.584 267.884 102.601C267.962 102.618 268.043 102.605 268.111 102.566L269.336 101.81C269.37 101.788 269.399 101.76 269.422 101.726C269.445 101.693 269.461 101.656 269.469 101.616C269.477 101.577 269.477 101.537 269.469 101.497C269.461 101.458 269.446 101.42 269.423 101.387Z" fill="#464A5F"/>
<path d="M267.21 102.888L266.417 101.798C266.37 101.734 266.3 101.691 266.221 101.677C266.142 101.663 266.061 101.679 265.994 101.722L264.863 102.483C264.797 102.528 264.752 102.595 264.735 102.672C264.719 102.748 264.734 102.828 264.776 102.894L265.494 103.975C265.538 104.041 265.607 104.087 265.685 104.104C265.763 104.121 265.845 104.107 265.913 104.067L267.138 103.315C267.172 103.291 267.2 103.262 267.222 103.228C267.243 103.194 267.258 103.156 267.264 103.116C267.271 103.076 267.27 103.036 267.26 102.997C267.251 102.958 267.234 102.921 267.21 102.888Z" fill="#464A5F"/>
<path d="M264.993 104.39L264.21 103.296C264.163 103.234 264.094 103.191 264.016 103.177C263.938 103.162 263.857 103.178 263.79 103.22L262.631 103.985C262.566 104.03 262.521 104.097 262.505 104.174C262.49 104.25 262.505 104.33 262.547 104.396L263.265 105.477C263.309 105.541 263.377 105.587 263.455 105.604C263.532 105.621 263.613 105.608 263.682 105.568L264.906 104.816C264.941 104.794 264.971 104.765 264.994 104.732C265.017 104.698 265.033 104.66 265.041 104.621C265.049 104.581 265.049 104.54 265.041 104.5C265.033 104.461 265.017 104.423 264.993 104.39Z" fill="#464A5F"/>
<path d="M262.88 106.028L261.907 104.67C261.896 104.655 261.883 104.642 261.867 104.631C261.851 104.621 261.833 104.614 261.815 104.611C261.796 104.608 261.777 104.608 261.759 104.612C261.741 104.615 261.723 104.623 261.708 104.633L260.284 105.574C260.253 105.595 260.231 105.626 260.224 105.662C260.216 105.698 260.223 105.735 260.244 105.766L261.136 107.112C261.146 107.127 261.16 107.141 261.175 107.151C261.191 107.161 261.208 107.169 261.227 107.172C261.245 107.176 261.264 107.176 261.283 107.173C261.301 107.169 261.319 107.162 261.335 107.152L262.836 106.238C262.854 106.228 262.87 106.215 262.883 106.198C262.895 106.182 262.904 106.163 262.908 106.143C262.912 106.123 262.912 106.102 262.907 106.082C262.902 106.062 262.893 106.044 262.88 106.028Z" fill="#464A5F"/>
<path d="M260.918 107.359L259.945 106C259.935 105.985 259.922 105.972 259.906 105.962C259.891 105.952 259.873 105.945 259.855 105.942C259.837 105.939 259.818 105.939 259.8 105.943C259.782 105.946 259.765 105.954 259.749 105.964L258.335 106.902C258.304 106.923 258.282 106.955 258.275 106.991C258.267 107.028 258.274 107.065 258.295 107.097L259.187 108.44C259.208 108.47 259.24 108.491 259.276 108.499C259.312 108.507 259.351 108.501 259.383 108.482L260.887 107.569C260.904 107.558 260.919 107.544 260.93 107.527C260.942 107.51 260.949 107.491 260.952 107.471C260.955 107.451 260.953 107.43 260.947 107.411C260.942 107.392 260.932 107.374 260.918 107.359Z" fill="#464A5F"/>
<path d="M258.724 108.848L257.751 107.487C257.728 107.457 257.695 107.437 257.658 107.431C257.621 107.425 257.583 107.433 257.552 107.453L256.131 108.391C256.1 108.412 256.078 108.444 256.071 108.48C256.063 108.517 256.07 108.555 256.091 108.586L256.983 109.929C257.003 109.96 257.035 109.981 257.072 109.989C257.109 109.997 257.147 109.991 257.179 109.971L258.683 109.058C258.701 109.048 258.717 109.034 258.729 109.018C258.741 109.001 258.749 108.982 258.753 108.962C258.757 108.942 258.756 108.921 258.751 108.902C258.746 108.882 258.737 108.864 258.724 108.848Z" fill="#464A5F"/>
<path d="M256.597 110.288L255.625 108.93C255.614 108.915 255.6 108.902 255.585 108.892C255.569 108.882 255.551 108.875 255.533 108.871C255.514 108.868 255.495 108.868 255.477 108.872C255.459 108.876 255.441 108.883 255.426 108.893L254.005 109.834C253.989 109.844 253.976 109.857 253.965 109.872C253.955 109.887 253.947 109.904 253.944 109.922C253.94 109.94 253.94 109.958 253.943 109.976C253.947 109.994 253.954 110.011 253.965 110.026L254.857 111.372C254.867 111.388 254.88 111.401 254.895 111.411C254.911 111.421 254.928 111.429 254.946 111.432C254.964 111.436 254.983 111.436 255.001 111.433C255.02 111.429 255.037 111.422 255.053 111.412L256.557 110.498C256.575 110.488 256.59 110.474 256.602 110.457C256.613 110.441 256.622 110.422 256.625 110.402C256.629 110.382 256.629 110.362 256.624 110.342C256.619 110.323 256.61 110.304 256.597 110.288Z" fill="#464A5F"/>
<path d="M255.929 113.793L254.956 112.432C254.934 112.402 254.901 112.382 254.864 112.376C254.827 112.37 254.788 112.378 254.757 112.398L253.334 113.336C253.302 113.357 253.281 113.389 253.273 113.426C253.266 113.462 253.273 113.5 253.293 113.531L254.185 114.874C254.206 114.904 254.238 114.926 254.275 114.934C254.311 114.942 254.349 114.936 254.381 114.917L255.886 114.003C255.904 113.994 255.921 113.98 255.933 113.964C255.946 113.948 255.955 113.929 255.959 113.908C255.963 113.888 255.963 113.867 255.958 113.847C255.952 113.827 255.943 113.809 255.929 113.793Z" fill="#464A5F"/>
<path d="M253.803 115.234L252.83 113.875C252.819 113.86 252.806 113.847 252.79 113.837C252.774 113.827 252.757 113.82 252.738 113.817C252.72 113.813 252.701 113.814 252.682 113.817C252.664 113.821 252.647 113.828 252.631 113.839L251.207 114.78C251.176 114.8 251.155 114.832 251.147 114.868C251.14 114.904 251.147 114.941 251.167 114.972L252.059 116.315C252.069 116.33 252.082 116.344 252.098 116.355C252.113 116.365 252.131 116.373 252.15 116.377C252.168 116.381 252.187 116.381 252.206 116.378C252.224 116.374 252.242 116.367 252.258 116.357L253.759 115.444C253.778 115.434 253.795 115.421 253.807 115.405C253.82 115.388 253.829 115.369 253.833 115.349C253.837 115.329 253.837 115.308 253.831 115.288C253.826 115.268 253.817 115.249 253.803 115.234Z" fill="#464A5F"/>
<path d="M257.138 106.607L256.221 105.324C256.192 105.285 256.148 105.258 256.099 105.249C256.049 105.241 255.999 105.251 255.957 105.279L254.605 106.165C254.563 106.193 254.535 106.235 254.525 106.284C254.515 106.332 254.525 106.382 254.552 106.424L255.391 107.691C255.419 107.732 255.463 107.761 255.512 107.771C255.561 107.781 255.613 107.772 255.656 107.745L257.073 106.871C257.096 106.859 257.116 106.842 257.132 106.822C257.147 106.801 257.159 106.778 257.165 106.753C257.171 106.728 257.172 106.702 257.167 106.677C257.163 106.652 257.153 106.628 257.138 106.607Z" fill="#464A5F"/>
<path d="M255.012 108.047L254.095 106.768C254.081 106.748 254.063 106.73 254.042 106.717C254.021 106.703 253.998 106.694 253.973 106.69C253.949 106.685 253.924 106.685 253.899 106.691C253.875 106.696 253.852 106.705 253.831 106.719L252.488 107.608C252.447 107.636 252.418 107.678 252.408 107.726C252.398 107.774 252.408 107.823 252.435 107.864L253.275 109.131C253.302 109.172 253.346 109.201 253.395 109.212C253.444 109.223 253.496 109.214 253.539 109.189L254.959 108.315C254.981 108.301 254.999 108.283 255.014 108.261C255.028 108.24 255.038 108.217 255.043 108.192C255.048 108.167 255.048 108.141 255.042 108.116C255.037 108.091 255.027 108.068 255.012 108.047Z" fill="#464A5F"/>
<path d="M252.886 109.49L251.953 108.208C251.925 108.169 251.881 108.142 251.832 108.133C251.784 108.125 251.733 108.135 251.692 108.163L250.346 109.049C250.305 109.077 250.276 109.119 250.266 109.168C250.256 109.216 250.266 109.266 250.294 109.308L251.133 110.574C251.161 110.616 251.204 110.644 251.253 110.655C251.303 110.665 251.354 110.656 251.397 110.629L252.818 109.755C252.841 109.743 252.861 109.726 252.877 109.706C252.893 109.686 252.905 109.662 252.911 109.637C252.917 109.613 252.919 109.587 252.914 109.561C252.91 109.536 252.9 109.512 252.886 109.49Z" fill="#464A5F"/>
<path d="M250.791 110.973L249.818 109.612C249.796 109.583 249.762 109.563 249.725 109.556C249.688 109.55 249.65 109.558 249.619 109.579L248.195 110.517C248.165 110.538 248.144 110.57 248.137 110.607C248.13 110.643 248.137 110.68 248.158 110.711L249.05 112.054C249.071 112.085 249.103 112.107 249.139 112.115C249.176 112.123 249.214 112.116 249.246 112.097L250.751 111.183C250.769 111.173 250.784 111.16 250.796 111.143C250.808 111.126 250.817 111.108 250.82 111.088C250.824 111.068 250.824 111.047 250.819 111.027C250.813 111.007 250.804 110.989 250.791 110.973Z" fill="#464A5F"/>
<path d="M275.951 96.9258L275.121 95.7504C275.073 95.6873 275.003 95.6445 274.924 95.6309C274.845 95.6172 274.764 95.6339 274.698 95.6773L271.39 97.9338C271.327 97.9791 271.283 98.0464 271.268 98.1222C271.253 98.1979 271.268 98.2764 271.31 98.3418L272.105 99.5416C272.128 99.5749 272.158 99.6034 272.192 99.6255C272.226 99.6476 272.264 99.6629 272.304 99.6706C272.344 99.6782 272.385 99.678 272.425 99.67C272.466 99.662 272.504 99.6463 272.537 99.6239L275.873 97.3369C275.937 97.2911 275.981 97.2229 275.995 97.1465C276.009 97.0701 275.994 96.9911 275.951 96.9258Z" fill="#464A5F"/>
<path d="M254.465 111.686L253.433 110.258C253.423 110.242 253.409 110.229 253.393 110.219C253.377 110.209 253.359 110.202 253.341 110.199C253.322 110.196 253.303 110.197 253.285 110.201C253.267 110.205 253.249 110.213 253.234 110.224L249.684 112.66C249.654 112.681 249.633 112.713 249.626 112.749C249.619 112.785 249.627 112.822 249.647 112.852L250.62 114.32C250.63 114.336 250.644 114.35 250.66 114.36C250.676 114.371 250.694 114.378 250.712 114.382C250.731 114.386 250.751 114.385 250.77 114.382C250.788 114.378 250.806 114.37 250.822 114.36L254.431 111.884C254.462 111.862 254.483 111.829 254.489 111.792C254.496 111.755 254.487 111.717 254.465 111.686Z" fill="#464A5F"/>
<path d="M265.758 100.763L264.825 99.4076C264.804 99.377 264.771 99.3558 264.734 99.3484C264.697 99.3411 264.658 99.3481 264.627 99.368L256.747 104.575C256.731 104.585 256.717 104.598 256.707 104.613C256.696 104.628 256.689 104.645 256.685 104.663C256.681 104.681 256.681 104.699 256.685 104.717C256.689 104.735 256.696 104.752 256.706 104.767L257.676 106.229C257.686 106.245 257.7 106.258 257.716 106.269C257.732 106.28 257.75 106.287 257.769 106.291C257.787 106.294 257.807 106.294 257.826 106.291C257.844 106.287 257.862 106.279 257.878 106.268L265.736 100.958C265.765 100.934 265.784 100.901 265.788 100.865C265.792 100.828 265.781 100.792 265.758 100.763Z" fill="#464A5F"/>
<path opacity="0.1" d="M265.795 96.1097L261.605 90.1442C261.489 89.9784 261.311 89.8642 261.11 89.8266C260.908 89.7889 260.7 89.8309 260.53 89.9432L248.988 97.5349C248.903 97.5912 248.83 97.6634 248.774 97.7473C248.717 97.8312 248.678 97.9252 248.659 98.0239C248.64 98.1226 248.64 98.2241 248.661 98.3226C248.682 98.421 248.722 98.5145 248.78 98.5976L253.051 104.734C253.108 104.817 253.182 104.888 253.268 104.944C253.353 104.999 253.45 105.037 253.55 105.056C253.651 105.074 253.755 105.073 253.855 105.053C253.956 105.032 254.051 104.992 254.136 104.935L265.596 97.1664C265.68 97.1099 265.752 97.0378 265.808 96.9541C265.863 96.8703 265.901 96.7767 265.92 96.6785C265.938 96.5804 265.937 96.4796 265.915 96.3819C265.894 96.2843 265.853 96.1918 265.795 96.1097Z" fill="black"/>
<path d="M265.988 96.1463L261.798 90.1807C261.681 90.0156 261.503 89.902 261.302 89.8644C261.101 89.8268 260.893 89.8682 260.722 89.9797L249.196 97.5775C249.111 97.6333 249.037 97.7052 248.98 97.789C248.923 97.8728 248.884 97.9668 248.864 98.0657C248.844 98.1645 248.845 98.2662 248.866 98.3649C248.886 98.4635 248.927 98.5571 248.985 98.6403L253.243 104.77C253.301 104.854 253.375 104.925 253.46 104.98C253.546 105.036 253.642 105.074 253.743 105.092C253.844 105.111 253.948 105.11 254.048 105.089C254.149 105.068 254.244 105.028 254.328 104.971L265.795 97.203C265.879 97.146 265.95 97.0735 266.005 96.9896C266.06 96.9057 266.097 96.8119 266.115 96.7138C266.133 96.6156 266.131 96.515 266.109 96.4176C266.088 96.3202 266.046 96.228 265.988 96.1463Z" fill="#939498"/>
<path d="M291.971 105.787L283.081 102.882L254.568 122.286L263.392 125.103C263.63 125.179 263.883 125.2 264.131 125.164C264.378 125.128 264.614 125.036 264.819 124.896L292.052 106.345C292.105 106.314 292.148 106.269 292.174 106.214C292.201 106.16 292.211 106.099 292.202 106.039C292.193 105.98 292.167 105.924 292.126 105.879C292.085 105.834 292.031 105.802 291.971 105.787Z" fill="#F2C85B"/>
</g>
<defs>
<clipPath id="clip0">
<rect width="337" height="231" fill="white"/>
</clipPath>
</defs>
</svg>
