<svg width="332" height="177" viewBox="0 0 332 177" fill="none" xmlns="http://www.w3.org/2000/svg">
<g clip-path="url(#clip0)">
<path opacity="0.1" d="M14.0777 24.2118C14.6156 27.6406 15.9902 30.9522 16.0022 34.42C16.047 45.751 2.36372 52.7105 0.268937 63.8434C-0.974185 70.4487 2.24717 77.1981 6.78935 82.125C11.3315 87.0519 17.1228 90.6037 22.4569 94.657C37.2153 105.892 48.5911 121.012 55.3249 138.342C56.6726 141.825 57.832 145.415 58.2145 149.132C58.4924 151.835 58.3609 154.6 58.9915 157.239C61.4867 167.714 74.139 171.779 84.837 172.458C102.067 173.533 119.314 170.639 135.261 163.997C138.847 162.496 142.55 160.791 146.398 161.214C149.476 161.553 152.223 163.226 154.924 164.748C162.879 169.234 171.346 172.736 180.139 175.178C185.01 176.529 190.123 177.556 195.098 176.679C210.04 174.031 217.98 155.825 232.64 151.843C242.782 149.09 253.337 153.9 262.433 159.181C271.529 164.463 280.919 170.545 291.419 170.56C305.428 170.578 316.945 159.926 326.448 149.586C328.441 147.415 330.467 145.145 331.417 142.35C333.345 136.675 330.222 130.301 325.605 126.488C320.988 122.675 315.167 120.784 309.606 118.604C300.18 114.909 291.185 110.189 282.78 104.529C277.342 100.866 272.073 96.7226 268.353 91.3183C265.152 86.6586 263.231 81.2573 261.085 76.0211C256.382 64.555 249.73 52.9027 238.623 47.5224C229.553 43.1269 219.019 43.6193 208.952 43.5022C194.118 43.3371 178.908 41.5447 165.756 34.6512C154.649 28.8295 145.526 19.6392 134.254 14.1358C116.324 5.38985 95.8279 7.10422 76.5087 7.43448C67.2242 7.59361 56.1885 8.52435 47.2715 5.46792C40.6764 3.20712 37.2817 -1.41357 29.7064 0.447917C19.3461 2.98494 12.4222 13.6344 14.0777 24.2118Z" fill="#DC2D27"/>
<path d="M288.766 106.744C288.297 105.184 288.346 103.512 288.906 101.982C289.803 99.6524 291.987 97.9711 292.755 95.5902C294.183 91.1676 290.335 87.0273 287.974 83.0191C285.808 79.3003 284.827 75.0048 285.162 70.7093C285.529 66.0977 287.409 61.6872 287.552 57.0635C287.681 52.755 286.291 48.5637 284.92 44.4804C283.787 41.1058 282.634 37.692 280.718 34.6956C277.097 29.0301 270.663 25.4693 264.047 24.8808C260.924 24.6016 257.87 25.6224 254.801 25.2231C250.54 24.6707 246.512 23.5598 242.167 23.4217C238.04 23.2986 233.477 23.824 230.665 26.8624C228.516 29.1893 227.829 32.5489 225.863 35.0349C223.072 38.5627 218.192 39.7727 215.105 43.0393C213.771 44.483 212.835 46.2508 212.388 48.1687C211.941 50.0867 211.999 52.0885 212.556 53.977C212.983 55.3701 213.682 56.6642 214.137 58.0483C216.046 63.8309 213.539 70.0158 212.024 75.9125C211.853 76.3943 211.822 76.9148 211.934 77.4137C212.173 78.1343 212.926 78.5126 213.551 78.9389C215.595 80.338 216.638 82.872 216.838 85.349C217.038 87.826 216.467 90.2939 215.906 92.7139C214.474 98.8658 212.684 105.456 207.966 109.548C207.109 107.495 206.096 105.512 204.936 103.616C202.049 98.9138 199.912 93.1072 199.877 87.5498C199.874 87.5328 199.874 87.5157 199.877 87.4987C199.877 87.1985 199.892 86.8982 199.909 86.598C200.283 80.0408 203.104 73.7147 203.041 67.1875C203.041 66.6591 203.026 66.1297 202.996 65.5993C202.629 60.0118 199.957 54.8447 196.894 50.167C194.608 46.6752 192.032 43.3035 188.733 40.7605C183.632 36.8604 177.151 35.167 170.783 34.2723C164.415 33.3776 158.62 32.5369 152.202 32.1046C145.299 31.6392 137.703 31.378 132.246 35.6474C125.131 41.2138 124.736 51.9654 119.313 59.2012C116.085 63.5066 110.946 66.8332 109.245 71.7241C108.785 70.5239 108.402 69.2955 108.098 68.0462C108.08 67.9622 108.062 67.8811 108.044 67.797C110.095 61.8956 110.572 55.5575 109.428 49.4134C109.563 48.4183 109.631 47.4153 109.634 46.411C109.667 45.3181 109.549 44.2258 109.284 43.1654C108.516 40.2411 106.397 37.9022 104.35 35.6834C103.605 34.8364 102.796 34.0484 101.93 33.3266C96.5731 26.8057 89.0835 22.4104 80.7989 20.9257C72.5143 19.441 63.9741 20.9636 56.7037 25.2215C49.4333 29.4793 43.9061 36.1953 41.1092 44.1698C38.3123 52.1443 38.4279 60.858 41.4354 68.7548C41.1724 70.8024 40.3835 72.793 38.9342 74.2371C38.2738 74.8947 37.4191 75.7173 37.5626 76.558C37.5181 76.7974 37.5516 77.0448 37.6582 77.2636C37.805 77.5256 38.0094 77.7505 38.2558 77.9211C40.3464 79.5263 42.95 80.306 45.5741 80.1128C47.7884 86.6514 52.1295 92.2505 57.8978 96.0075C57.8978 96.2077 57.8908 96.4018 57.8768 96.59C57.8768 96.9232 57.8499 97.2535 57.835 97.5898C57.835 97.6648 57.835 97.7399 57.835 97.8149C57.835 97.7879 57.835 97.7579 57.835 97.7279C57.835 97.6978 47.4298 111.356 37.8136 111.863C32.6797 112.133 28.2003 115.613 24.8056 119.591C20.7296 124.365 18.2135 129.853 17.9983 131.373C17.6009 134.159 14.8278 147.7 14.8278 147.7H94.7163C93.772 152.576 92.499 158.788 92.499 158.788H221.828C221.53 154.611 221.198 150.75 220.89 147.481H237.149L237.131 147.58H312.137L316.894 140.407C315.714 119.507 303.444 108.017 288.766 106.744ZM102.029 83.3974C103.716 84.3096 105.529 84.9653 107.407 85.343C108.223 85.5111 109.135 85.6162 109.831 85.1568C110.292 84.8066 110.634 84.3208 110.808 83.7667L110.844 83.8568C112.861 88.9609 114.729 94.2271 115.09 99.7094C115.123 100.226 115.144 100.742 115.147 101.262C115.155 104.389 114.513 107.484 113.261 110.347C106.505 106.777 99.9898 102.765 93.757 98.3374L93.3357 98.1572C93.3357 98.1902 93.4821 98.5655 93.6554 99.199C93.6973 99.3522 93.7421 99.5203 93.7869 99.7004C93.3596 98.3133 92.9711 96.8962 92.6304 95.4521C92.5916 95.2809 92.5527 95.1098 92.5139 94.9386C96.5833 91.9378 99.8517 87.9733 102.029 83.3974Z" fill="url(#paint0_linear)"/>
<path d="M240.968 24.4845C236.907 24.3614 232.413 24.8808 229.649 27.8712C227.533 30.159 226.858 33.4676 224.921 35.9146C222.175 39.3884 217.373 40.5773 214.331 43.7929C213.018 45.2139 212.096 46.954 211.656 48.8419C211.215 50.7298 211.272 52.7003 211.821 54.5594C212.242 55.9285 212.929 57.2045 213.378 58.5646C215.257 64.2692 212.804 70.343 211.286 76.1466C211.116 76.6226 211.086 77.1373 211.199 77.6298C211.432 78.3384 212.176 78.7107 212.789 79.131C214.8 80.5091 215.828 83.0011 216.01 85.436C216.193 87.871 215.646 90.3029 215.093 92.6838C213.626 98.9888 211.773 105.777 206.678 109.749C204.526 111.446 201.652 112.821 201.09 115.523C200.432 118.688 203.439 121.378 206.322 122.81C214.788 127.013 224.616 127.073 233.877 128.947C242.032 130.598 250.166 133.726 258.42 132.658C262.098 132.183 265.616 130.883 269.097 129.595L290.774 121.57C291.386 121.382 291.962 121.09 292.477 120.708C293.783 119.615 293.828 117.538 293.117 115.985C292.405 114.433 291.115 113.244 289.979 111.971C287.505 109.188 285.622 105.258 286.973 101.781C287.869 99.4872 290.006 97.8329 290.762 95.476C292.166 91.1226 288.371 87.0453 286.07 83.1002C283.942 79.4436 282.976 75.2208 283.303 70.9975C283.665 66.4579 285.514 62.1165 285.649 57.5648C285.774 53.3255 284.409 49.2002 283.058 45.18C281.943 41.8593 280.808 38.4996 278.922 35.5483C275.357 29.9729 269.025 26.4691 262.511 25.8866C259.436 25.6134 256.433 26.6162 253.411 26.2259C249.213 25.7065 245.245 24.6136 240.968 24.4845Z" fill="#F7D6C8"/>
<path d="M247.032 143.622C247.032 143.622 222.456 128.142 232.012 110.296C234.224 106.171 235.201 102.267 235.401 98.7036C235.454 97.7646 235.454 96.8234 235.401 95.8844C235.401 95.8393 235.401 95.7943 235.401 95.7493C235.369 95.2649 235.326 94.7885 235.273 94.3201C234.134 84.8986 228.11 78.7587 228.11 78.7587C228.11 78.7587 268.873 66.8062 262.048 77.5818C258.88 82.5838 259.827 87.4897 261.949 92.5667C262.173 93.1012 262.412 93.6416 262.66 94.179C265.111 99.5323 268.511 105.078 269.461 111.091C271.41 123.437 247.032 143.622 247.032 143.622Z" fill="#EFB7B9"/>
<path opacity="0.1" d="M262.048 77.5818C258.88 82.5838 259.827 87.4897 261.949 92.5667C258.016 95.1141 253.503 96.613 248.834 96.9218C244.165 97.2307 239.495 96.3395 235.264 94.3321C234.134 84.8986 228.11 78.7587 228.11 78.7587C228.11 78.7587 268.876 66.8032 262.048 77.5818Z" fill="black"/>
<path d="M247.028 96.3948C262.217 96.3948 274.53 84.024 274.53 68.7638C274.53 53.5036 262.217 41.1328 247.028 41.1328C231.84 41.1328 219.527 53.5036 219.527 68.7638C219.527 84.024 231.84 96.3948 247.028 96.3948Z" fill="#EFB7B9"/>
<path opacity="0.1" d="M235.401 95.8964C235.401 95.8514 235.401 95.8064 235.401 95.7613L235.434 95.7073C235.416 95.7733 235.404 95.8364 235.401 95.8964Z" fill="black"/>
<path opacity="0.1" d="M247.031 143.622C247.031 143.622 222.456 128.142 232.012 110.296C234.224 106.171 235.201 102.267 235.401 98.7036C235.96 103.111 238.987 108.59 244.497 116.175C246.888 119.477 247.916 124.095 248.242 128.709L248.789 129.109L251.478 127.476C251.777 122.371 252.805 117.213 255.237 113.556C261.629 103.949 263.147 99.145 262.675 94.167C265.125 99.5203 268.526 105.066 269.476 111.079C271.41 123.437 247.031 143.622 247.031 143.622Z" fill="black"/>
<path d="M286.429 106.438C271.786 105.369 262.523 93.9478 262.523 93.9478C263.303 99.298 262.036 104.087 255.207 114.364C252.79 118.009 251.765 123.158 251.466 128.274L248.777 129.907L248.23 129.508C247.904 124.896 246.879 120.273 244.485 116.973C237.66 107.567 234.624 101.394 235.416 96.4938C235.416 96.4938 227.907 108.741 213.279 109.722C198.651 110.704 186.364 121.089 185.189 140.098L189.869 146.565H236.029L236.011 146.664H309.821L314.519 139.599C313.344 118.847 301.071 107.507 286.429 106.438Z" fill="#F2C85B"/>
<path opacity="0.05" d="M286.429 106.438C271.786 105.369 262.523 93.9478 262.523 93.9478C263.303 99.298 262.036 104.087 255.207 114.364C252.79 118.009 251.765 123.158 251.466 128.274L248.777 129.907L248.23 129.508C247.904 124.896 246.879 120.273 244.485 116.973C237.66 107.567 234.54 101.734 235.332 96.834C235.332 96.834 227.907 108.741 213.279 109.722C198.651 110.704 186.364 121.089 185.189 140.098L189.869 146.565H236.029L236.011 146.664H309.821L314.519 139.599C313.344 118.847 301.071 107.507 286.429 106.438Z" fill="black"/>
<path opacity="0.1" d="M265.622 55.4092C264.426 58.3815 262.305 60.8915 259.986 63.0953C256.782 66.1427 252.754 68.8269 248.349 68.6197C250.751 66.3721 252.489 63.5027 253.373 60.3271C250.594 61.9544 248.493 64.5304 245.839 66.3649C243.186 68.1994 239.435 69.1451 236.841 67.2296C241.553 64.8499 245.466 61.1349 248.098 56.5441C241.799 58.1864 238.566 65.3141 232.891 68.5146C230.231 70.0158 227.121 70.5803 224.073 70.5142C221.906 70.4692 219.492 69.9618 218.284 68.1543C217.579 67.1035 217.415 65.7824 217.388 64.5124C217.256 58.7538 219.59 53.1033 223.185 48.6208C226.78 44.1382 231.552 40.7305 236.656 38.0854C238.473 37.1426 240.368 36.2839 242.391 35.9837C244.907 35.6174 247.471 36.1548 249.939 36.7253C253.148 37.4639 256.376 38.2745 259.331 39.7277C265.639 42.8652 268.395 48.5517 265.622 55.4092Z" fill="black"/>
<path d="M265.622 55.0159C264.426 57.9882 262.305 60.4982 259.986 62.702C256.782 65.7494 252.754 68.4335 248.349 68.2264C250.751 65.9788 252.489 63.1094 253.373 59.9338C250.594 61.5611 248.493 64.1371 245.839 65.9716C243.186 67.806 239.435 68.7518 236.841 66.8363C241.553 64.4566 245.466 60.7416 248.098 56.1508C241.799 57.7931 238.566 64.9207 232.891 68.1213C230.231 69.6225 227.121 70.1869 224.073 70.1209C221.906 70.0759 219.492 69.5685 218.284 67.761C217.579 66.7102 217.415 65.3891 217.388 64.1191C217.256 58.3605 219.59 52.71 223.185 48.2274C226.78 43.7449 231.552 40.3372 236.656 37.6921C238.473 36.7493 240.368 35.8906 242.391 35.5904C244.907 35.2241 247.471 35.7615 249.939 36.332C253.148 37.0706 256.376 37.8812 259.331 39.3344C265.639 42.4659 268.395 48.1584 265.622 55.0159Z" fill="#F7D6C8"/>
<path d="M75.9977 91.6149C95.2791 91.6149 110.91 75.9104 110.91 56.538C110.91 37.1655 95.2791 21.4611 75.9977 21.4611C56.7164 21.4611 41.0858 37.1655 41.0858 56.538C41.0858 75.9104 56.7164 91.6149 75.9977 91.6149Z" fill="#C3705A"/>
<path d="M107.303 124.047C107.303 124.047 75.3283 132.276 74.5365 133.054C73.7446 133.832 47.6211 135.21 55.2262 119.141C58.0203 113.241 59.1827 105.228 59.5353 97.4486C59.5503 97.1184 59.5652 96.7911 59.5772 96.4639C60.0583 83.4245 58.349 71.3248 58.349 71.3248C58.349 71.3248 95.4035 56.6131 92.6753 78.9689C91.9939 84.5294 92.5587 90.1168 93.7959 95.371C94.2082 97.1244 94.6923 98.8387 95.2302 100.502C99.5573 113.905 107.303 124.047 107.303 124.047Z" fill="#ECB4B6"/>
<path opacity="0.1" d="M93.7929 95.377C88.8783 99.038 82.9685 101.104 76.8536 101.3C70.7387 101.495 64.7102 99.8099 59.5742 96.4699C60.0553 83.4305 58.346 71.3308 58.346 71.3308C58.346 71.3308 95.4006 56.6191 92.6723 78.9749C91.9939 84.5383 92.5587 90.1258 93.7929 95.377Z" fill="black"/>
<path d="M75.8991 100.724C92.4871 100.724 105.934 87.2135 105.934 70.5472C105.934 53.8808 92.4871 40.3701 75.8991 40.3701C59.3112 40.3701 45.864 53.8808 45.864 70.5472C45.864 87.2135 59.3112 100.724 75.8991 100.724Z" fill="#ECB4B6"/>
<path opacity="0.1" d="M107.303 124.047C107.303 124.047 75.3283 132.276 74.5365 133.054C73.7446 133.832 47.6211 135.21 55.2262 119.141C58.0203 113.241 59.1827 105.228 59.5353 97.4486C59.8342 101.514 62.1471 111.359 62.4429 114.634C62.4617 114.826 62.4998 115.015 62.5565 115.199C62.9898 116.655 64.5347 118.333 66.3964 119.924L66.507 120.018C68.8227 121.969 71.6963 123.13 74.7121 123.332C77.7279 123.535 80.7296 122.768 83.2831 121.143C85.9409 119.461 88.4919 117.614 90.9211 115.613C94.3995 112.728 95.4842 108.84 95.6187 105.405C95.6744 103.756 95.5441 102.106 95.2302 100.487C99.5573 113.905 107.303 124.047 107.303 124.047Z" fill="black"/>
<path d="M147.677 146.781H17.1855C17.1855 146.781 19.9168 133.456 20.3053 130.712C20.5175 129.211 22.9947 123.807 27.008 119.114C30.3489 115.211 34.7566 111.773 39.8098 111.506C49.2676 111.007 59.5084 97.5927 59.5084 97.5927C59.7356 101.496 62.1321 111.689 62.434 115.034C62.4528 115.225 62.4908 115.414 62.5475 115.598C62.9808 117.054 64.5257 118.732 66.3874 120.324L66.498 120.417C68.8132 122.369 71.6867 123.531 74.7026 123.734C77.7185 123.937 80.7205 123.171 83.2742 121.546C85.9315 119.863 88.4824 118.016 90.9122 116.015C94.3905 113.13 95.4753 109.242 95.6098 105.807C95.6783 103.528 95.4032 101.251 94.794 99.0548C94.6236 98.4303 94.4951 98.064 94.4772 98.031L94.8926 98.2081C94.8926 98.2081 112.562 111.118 128.75 116.397C130.647 117.017 132.437 117.929 134.057 119.099C135.369 120.052 136.577 121.142 137.661 122.35C139.852 124.84 141.664 127.642 143.04 130.664C146.793 138.656 147.677 146.781 147.677 146.781Z" fill="#F2C85B"/>
<path opacity="0.05" d="M147.677 146.781H17.2701C17.2701 146.781 19.9168 133.456 20.3053 130.712C20.5175 129.211 22.9948 123.807 27.008 119.114C30.3489 115.211 34.7566 111.773 39.8098 111.506C49.2676 111.007 59.5085 97.5927 59.5085 97.5927C59.7356 101.496 62.1322 111.689 62.434 115.034C62.4528 115.225 62.4908 115.414 62.5475 115.598C62.9808 117.054 64.5258 118.732 66.3875 120.324L66.498 120.417C68.8132 122.369 71.6867 123.531 74.7026 123.734C77.7185 123.937 80.7205 123.171 83.2742 121.546C85.9315 119.863 88.4824 118.016 90.9122 116.015C94.3905 113.13 95.4753 109.242 95.6098 105.807C95.6783 103.528 95.4032 101.251 94.794 99.0548C94.6236 98.4303 94.4951 98.064 94.4772 98.031L94.8926 98.2081C94.8926 98.2081 112.562 111.118 128.75 116.397C130.647 117.017 132.437 117.929 134.057 119.099C135.369 120.052 136.577 121.142 137.661 122.35C139.852 124.84 141.664 127.642 143.04 130.664C146.793 138.656 147.677 146.781 147.677 146.781Z" fill="black"/>
<path opacity="0.1" d="M90.3384 60.4142C91.1154 63.4165 92.1314 66.7522 94.7999 68.3164C95.1575 68.4886 95.487 68.7144 95.7771 68.986C96.4345 69.7035 96.2343 70.8234 96.1357 71.7962C95.795 75.1349 97.2234 78.5186 99.5662 80.9115C101.909 83.3044 105.08 84.7665 108.352 85.4391C109.153 85.6042 110.052 85.7093 110.742 85.2559C111.209 84.8997 111.552 84.405 111.722 83.8418C112.634 81.4069 112.248 78.6717 111.486 76.1857C110.724 73.6997 109.601 71.3278 109.024 68.7908C107.652 62.771 109.469 56.5501 110.288 50.4282C110.56 48.3926 110.718 46.2939 110.195 44.3093C109.439 41.433 107.354 39.1272 105.34 36.9445C104.255 35.7705 103.146 34.5756 101.754 33.807C97.6477 31.5522 92.3615 33.5548 87.9777 31.9124C86.2236 31.2549 84.7324 30.054 83.062 29.2103C79.5149 27.4089 75.3104 27.3098 71.4227 28.1294C67.5349 28.9491 63.8922 30.6334 60.2854 32.3028L57.5272 33.5578C53.6425 35.3592 49.4798 37.3948 47.388 41.1628C45.1617 45.174 45.7803 50.3081 43.5541 54.3193C42.8787 55.5203 41.9374 56.6732 41.7611 58.0543C41.6416 59.0511 41.9464 60.0479 42.2302 61.0116C42.9235 63.3565 43.5272 65.7674 43.4734 68.2174C43.4196 70.6673 42.6426 73.1773 40.9154 74.9007C40.1863 75.6273 39.2121 76.558 39.6603 77.4857C39.8074 77.7451 40.0119 77.967 40.258 78.1343C41.6765 79.2166 43.344 79.9217 45.106 80.1841C46.868 80.4465 48.6674 80.2578 50.3374 79.6355C51.6463 79.1341 52.8834 78.3294 53.6245 77.1435C54.1172 76.2747 54.474 75.335 54.6824 74.3573C55.6267 70.8234 56.5769 67.2296 56.5022 63.5697C56.4604 61.468 56.0779 59.3483 56.3827 57.2646C56.6875 55.181 57.8978 53.0343 59.9148 52.4608C61.409 52.0315 63.0077 52.5509 64.5676 52.5359C66.8148 52.5179 69.5699 50.0139 71.6528 50.7495C73.4457 51.386 74.8652 54.8327 76.3473 56.1538C80.1066 59.5254 85.354 61.2878 90.3384 60.4142Z" fill="black"/>
<path d="M90.3384 60.0209C91.1154 63.0232 92.1314 66.3589 94.7999 67.9231C95.1523 68.0918 95.4776 68.3124 95.7651 68.5777C96.4226 69.2952 96.2223 70.4151 96.1237 71.3879C95.7831 74.7266 97.2115 78.1102 99.5543 80.5032C101.897 82.8961 105.068 84.3582 108.34 85.0308C109.141 85.1959 110.04 85.301 110.73 84.8476C111.197 84.4914 111.54 83.9966 111.711 83.4335C112.622 80.9986 112.236 78.2634 111.474 75.7774C110.712 73.2914 109.589 70.9195 109.012 68.3825C107.641 62.3627 109.457 56.1418 110.276 50.0199C110.548 47.9843 110.706 45.8856 110.184 43.901C109.428 41.0247 107.342 38.7189 105.328 36.5361C104.243 35.3622 103.134 34.1672 101.742 33.3986C97.6358 31.1438 92.3495 33.1464 87.9657 31.5041C86.2116 30.8466 84.7205 29.6456 83.05 28.802C79.503 27.0005 75.2985 26.9015 71.4107 27.7211C67.523 28.5408 63.8803 30.2251 60.2734 31.8944L57.5511 33.1554C53.6664 34.9569 49.5037 36.9925 47.4119 40.7605C45.1857 44.7717 45.8042 49.9058 43.578 53.917C42.9026 55.1179 41.9613 56.2709 41.785 57.652C41.6655 58.6488 41.9703 59.6455 42.2542 60.6093C42.9475 62.9542 43.5511 65.3651 43.4973 67.8151C43.4435 70.265 42.6666 72.775 40.9393 74.4984C40.2102 75.2249 39.236 76.1557 39.6843 77.0834C39.8313 77.3428 40.0358 77.5647 40.2819 77.732C41.7004 78.8143 43.368 79.5194 45.1299 79.7818C46.8919 80.0442 48.6913 79.8555 50.3614 79.2332C51.6702 78.7318 52.9074 77.9271 53.6485 76.7412C54.1411 75.8724 54.4979 74.9327 54.7063 73.9549C55.6506 70.4211 56.6009 66.8273 56.5262 63.1674C56.4843 61.0657 56.1018 58.946 56.4066 56.8623C56.7114 54.7787 57.9217 52.632 59.9388 52.0585C61.4329 51.6292 63.0316 52.1486 64.5915 52.1336C66.8387 52.1155 69.5939 49.6116 71.6767 50.3471C73.4697 50.9837 74.8891 54.4304 76.3713 55.7514C80.1066 59.1351 85.354 60.8975 90.3384 60.0209Z" fill="#C3705A"/>
<path d="M190.392 72.838H121.93V131.823H190.392V72.838Z" fill="#463A3E"/>
<path opacity="0.05" d="M190.392 72.838H121.93V131.823H190.392V72.838Z" fill="black"/>
<path d="M180.575 157.692H122.005C122.761 153.407 124.973 148.711 129.282 143.649C132.684 139.67 135.467 135.196 137.535 130.379C138.091 129.092 138.589 127.802 139.029 126.509C140.324 122.669 141.204 118.701 141.656 114.673C141.656 114.559 141.683 114.445 141.695 114.331C141.997 111.548 142.119 108.748 142.059 105.948C142.059 105.747 142.059 105.552 142.059 105.348C141.85 98.4793 140.719 91.6705 138.698 85.1058L138.623 84.8716C137.986 82.857 137.52 81.7251 137.52 81.7251C137.52 81.7251 138.683 81.0916 140.601 80.1578L140.763 80.0798C147.818 76.675 164.519 69.5714 171.882 74.6334L172.002 74.7145C174.578 76.5579 175.964 79.9416 175.313 85.5771C175.313 85.5981 175.313 85.6222 175.313 85.6432C175.313 85.7483 175.289 85.8503 175.28 85.9434C174.886 89.8277 174.699 93.7304 174.721 97.6347C174.721 97.8299 174.721 98.025 174.721 98.2352C174.721 99.1499 174.731 100.077 174.751 101.015C174.751 101.142 174.751 101.268 174.751 101.394C174.811 104.426 174.945 107.558 175.134 110.734C175.394 115.139 175.764 119.624 176.192 124.026C176.374 125.908 176.571 127.779 176.789 129.619C176.813 129.835 176.837 130.058 176.861 130.271C177.112 132.513 177.372 134.711 177.638 136.843L177.656 136.981C178.672 145.448 179.795 152.84 180.575 157.692Z" fill="#C17174"/>
<path opacity="0.1" d="M175.289 85.5892C175.289 85.6102 175.289 85.6342 175.289 85.6553C174.868 89.6442 174.668 93.6536 174.691 97.6648C174.691 97.86 174.691 98.0551 174.691 98.2653C170.759 102.851 165.481 106.068 159.616 107.453C153.75 108.838 147.599 108.321 142.045 105.975C142.045 105.774 142.045 105.579 142.045 105.375C141.834 98.424 140.678 91.5347 138.608 84.8987C137.972 82.8841 137.505 81.7522 137.505 81.7522C137.505 81.7522 138.668 81.1186 140.586 80.1849C147.573 76.7922 164.621 69.4664 171.978 74.7266C174.551 76.57 175.938 79.9537 175.289 85.5892Z" fill="black"/>
<path d="M153.104 107.603C168.835 107.603 181.588 94.7896 181.588 78.9839C181.588 63.1782 168.835 50.3651 153.104 50.3651C137.373 50.3651 124.62 63.1782 124.62 78.9839C124.62 94.7896 137.373 107.603 153.104 107.603Z" fill="#C17174"/>
<path opacity="0.1" d="M154.613 157.496H93.8467C93.8467 157.496 96.578 144.172 96.9664 141.428C97.1786 139.926 99.6559 134.522 103.669 129.829C108.824 125.698 115.208 123.422 121.802 123.365C133.423 123.191 136.806 127.211 137.723 130.184C138.044 131.18 138.126 132.239 137.963 133.273L140.162 136.474L154.613 157.496Z" fill="black"/>
<path d="M154.419 157.692H93.6525C93.6525 157.692 96.3837 144.367 96.7722 141.623C96.9844 140.122 99.4617 134.717 103.475 130.025C108.63 125.893 115.014 123.617 121.608 123.56C133.229 123.386 136.612 127.406 137.529 130.379C137.85 131.375 137.932 132.434 137.768 133.468L139.968 136.669L154.419 157.692Z" fill="#F2C85B"/>
<path opacity="0.1" d="M220.753 157.496H157.084C160.121 151.005 168.078 133.699 168.521 129.697C168.691 128.148 170.334 126.695 172.51 125.461C173.197 125.066 173.904 124.707 174.629 124.386L174.76 124.326C175.159 124.15 175.562 123.987 175.97 123.837C181.478 121.811 187.529 121.859 193.003 123.972C198.23 125.968 204.957 128.658 210.192 131.177L210.234 131.198C211.579 131.847 212.831 132.481 213.933 133.09C216.139 134.306 217.749 135.417 218.368 136.306C218.652 136.714 218.966 138.554 219.309 141.41C219.766 145.271 220.265 150.999 220.753 157.496Z" fill="black"/>
<path d="M220.947 157.692L157.284 157.554C160.32 151.063 168.273 133.895 168.715 129.892C168.885 128.343 170.529 126.89 172.704 125.656C173.391 125.261 174.098 124.902 174.823 124.581L174.954 124.521C175.353 124.345 175.756 124.182 176.165 124.032C181.672 122.006 187.723 122.054 193.198 124.167C198.424 126.164 205.151 128.854 210.386 131.373L210.428 131.394C211.773 132.042 213.025 132.676 214.128 133.285C216.333 134.501 217.944 135.612 218.562 136.501C218.846 136.909 219.16 138.75 219.504 141.605C219.964 145.466 220.46 151.197 220.947 157.692Z" fill="#F2C85B"/>
<path opacity="0.1" d="M210.7 126.302C210.7 127.224 210.675 128.148 210.625 129.073C210.597 129.523 210.564 129.974 210.524 130.424C210.497 130.748 210.464 131.069 210.431 131.391L210.389 131.763C209.902 136.128 209.003 140.47 208.895 144.856C208.895 145.064 208.895 145.271 208.895 145.478C208.874 149.597 209.538 153.653 210.437 157.692H173.771C173.711 156.944 173.681 156.19 173.69 155.449C173.69 154.779 173.732 154.11 173.801 153.437C174.366 147.91 177.178 142.737 177.602 137.245L177.62 136.993C177.647 136.582 177.662 136.168 177.656 135.753C177.656 135.717 177.656 135.681 177.656 135.642C177.609 133.826 177.331 132.024 176.828 130.28C176.804 130.193 176.78 130.106 176.756 130.019C176.244 128.288 175.645 126.585 174.963 124.915L174.832 124.581C173.837 122.083 172.791 119.606 172.083 117.123C171.52 115.274 171.229 113.352 171.219 111.419C171.219 111.074 171.24 110.728 171.267 110.383C171.291 110.101 171.324 109.819 171.365 109.533C171.431 109.088 171.519 108.646 171.628 108.209C172.226 105.843 173.502 103.625 174.724 101.427C176.084 98.9799 177.381 96.56 177.614 93.9869C177.643 93.6615 177.654 93.3348 177.647 93.0081C177.637 92.5874 177.598 92.168 177.527 91.7531C177.213 89.9277 176.278 88.2854 175.51 86.601C175.432 86.4299 175.355 86.2588 175.28 86.0846C175.28 86.0576 175.256 86.0306 175.247 86.0036C173.753 82.5358 172.886 78.8368 171.975 75.1559C171.936 74.9968 171.897 74.8377 171.856 74.6815C171.631 73.7808 171.401 72.8801 171.156 71.9794C169.818 67.0675 167.911 62.1045 164.283 58.5587C160.655 55.0129 154.87 53.2174 150.328 55.4752C146.398 57.4418 144.271 61.8433 143.312 66.1427C142.352 70.4422 142.275 74.9307 141.028 79.1581C140.939 79.4664 140.839 79.7736 140.73 80.0798C140.676 80.236 140.622 80.3801 140.568 80.5512C140.033 82.0824 139.373 83.5986 138.662 85.1058L138.587 85.265C136.316 90.1198 133.677 94.8906 133.594 99.7695V99.8326C133.594 99.9647 133.594 100.094 133.594 100.226C133.609 101.385 133.784 102.537 134.114 103.649C134.711 105.648 135.793 107.393 137.054 109.053C137.303 109.379 137.558 109.702 137.819 110.023C139.074 111.572 140.437 113.073 141.629 114.67L141.668 114.721C142.575 115.901 143.34 117.184 143.948 118.543C144.669 120.246 145.045 122.076 145.056 123.927C145.066 125.777 144.71 127.611 144.008 129.322C143.669 130.113 143.281 130.881 142.845 131.622C142.077 132.955 141.232 134.252 140.565 135.639C140.341 136.104 140.141 136.579 139.968 137.059C138.474 140.926 138.151 145.205 136.932 149.195C135.987 152.258 134.518 155.133 132.59 157.689H93.7421C94.1933 155.47 96.4315 144.478 96.7841 142.01C96.9963 140.509 99.4736 135.105 103.487 130.412C103.149 130.679 102.823 130.949 102.51 131.22C99.9788 133.387 97.7859 135.923 96.0042 138.744C96.0908 138.473 96.1805 138.2 96.2701 137.93C96.817 136.291 97.4087 134.666 98.0093 133.063C99.7485 128.445 101.685 123.735 105.151 120.234C107.109 118.258 109.49 116.736 111.355 114.673C114.642 111.043 116.002 106.014 115.963 101.085C115.963 100.574 115.942 100.067 115.909 99.5593C115.553 94.155 113.716 88.9819 111.725 83.9469C110.656 81.2448 109.52 78.4045 109.571 75.5402C109.574 75.1384 109.603 74.7373 109.658 74.3393C110.479 68.4035 116.456 64.8487 120.045 60.0599C125.382 52.9352 125.77 42.3458 132.772 36.8754C138.151 32.6721 145.621 32.9303 152.414 33.3866C158.731 33.813 164.433 34.6386 170.702 35.5214C176.971 36.4041 183.333 38.0614 188.363 41.9435C191.611 44.4475 194.145 47.7651 196.395 51.2028C199.407 55.8085 202.04 60.8946 202.402 66.3919C202.429 66.7852 202.443 67.1756 202.443 67.5629C202.506 73.988 199.73 80.215 199.363 86.6671C199.348 86.9673 199.336 87.2676 199.333 87.5678C199.331 87.5838 199.331 87.5999 199.333 87.6158C199.267 93.2093 201.404 99.082 204.311 103.829C208.442 110.594 210.652 118.365 210.7 126.302Z" fill="black"/>
<path d="M210.7 126.302C210.7 127.094 210.67 127.89 210.625 128.679C210.597 129.13 210.564 129.58 210.524 130.031C210.484 130.481 210.439 130.927 210.389 131.37C209.902 135.735 209.003 140.077 208.895 144.463C208.895 144.799 208.895 145.139 208.895 145.475C208.916 149.591 209.609 153.65 210.524 157.689H173.804C173.735 156.941 173.693 156.187 173.687 155.446C173.68 154.644 173.716 153.842 173.798 153.044C174.363 147.516 177.175 142.343 177.599 136.852C177.629 136.45 177.65 136.047 177.653 135.651C177.653 135.558 177.653 135.462 177.653 135.369C177.615 133.425 177.314 131.496 176.759 129.634C176.247 127.904 175.649 126.2 174.966 124.53C173.932 121.921 172.824 119.33 172.083 116.724C171.56 114.996 171.27 113.206 171.219 111.401C171.211 110.924 171.227 110.447 171.267 109.972C171.291 109.689 171.324 109.407 171.365 109.122C171.431 108.676 171.519 108.234 171.628 107.798C172.226 105.432 173.502 103.213 174.724 101.015C176.087 98.5655 177.39 96.1396 177.62 93.5635C177.638 93.3684 177.647 93.1702 177.653 92.963C177.667 92.411 177.627 91.8589 177.533 91.3147C177.219 89.4893 176.284 87.847 175.516 86.1626C175.438 85.9915 175.361 85.8204 175.286 85.6462C173.771 82.1574 172.895 78.4405 171.981 74.7175C171.718 73.6547 171.449 72.5918 171.165 71.538C169.827 66.6261 167.92 61.6631 164.292 58.1173C160.664 54.5715 154.888 52.8121 150.349 55.0819C146.419 57.0484 144.292 61.45 143.332 65.7494C142.373 70.0488 142.296 74.5374 141.049 78.7647C140.912 79.2301 140.751 79.6955 140.598 80.1579C140.042 81.7401 139.349 83.3104 138.62 84.8716C136.286 89.8526 133.57 94.7525 133.627 99.7695V99.8325C133.642 100.992 133.817 102.144 134.147 103.255C134.744 105.255 135.826 106.999 137.087 108.66C137.336 108.986 137.591 109.309 137.852 109.629C139.122 111.197 140.5 112.713 141.701 114.328C142.608 115.508 143.373 116.791 143.981 118.15C144.702 119.853 145.078 121.683 145.089 123.533C145.099 125.384 144.743 127.218 144.041 128.929C143.702 129.719 143.314 130.488 142.878 131.229C142.11 132.562 141.265 133.859 140.598 135.246C140.374 135.711 140.174 136.185 140.001 136.666C138.506 140.533 138.184 144.811 136.964 148.802C135.97 152.023 134.397 155.034 132.324 157.686H93.6525C93.6525 157.686 96.3837 144.361 96.7722 141.617C96.9665 140.245 99.0612 135.612 102.498 131.22C102.797 130.817 103.137 130.415 103.475 130.019C100.665 132.25 98.2293 134.92 96.2612 137.927L95.9953 138.347C96.6168 136.429 97.3011 134.534 98.0034 132.667C99.7426 128.049 101.679 123.338 105.145 119.837C107.103 117.862 109.484 116.34 111.349 114.277C114.54 110.743 115.921 105.87 115.957 101.067C115.957 100.424 115.957 99.7845 115.903 99.148C115.548 93.7437 113.71 88.5705 111.72 83.5355C110.701 80.9475 109.628 78.2513 109.565 75.5071C109.551 74.9782 109.58 74.4491 109.652 73.9249C110.476 68.0222 116.453 64.4824 120.042 59.6785C125.379 52.5539 125.767 41.9644 132.769 36.4941C138.148 32.2907 145.619 32.5489 152.411 33.0053C158.728 33.4316 164.43 34.2573 170.699 35.14C176.968 36.0227 183.339 37.677 188.363 41.5471C191.611 44.0661 194.145 47.3687 196.395 50.8095C199.407 55.4151 202.04 60.5012 202.402 65.9986C202.438 66.521 202.451 67.0424 202.443 67.5628C202.393 73.8468 199.721 79.9537 199.363 86.2767C199.339 86.7031 199.327 87.1264 199.333 87.5557C199.331 87.5717 199.331 87.5878 199.333 87.6038C199.369 93.0801 201.472 98.7907 204.311 103.417C208.514 110.301 210.727 118.225 210.7 126.302Z" fill="#463A3E"/>
</g>
<defs>
<linearGradient id="paint0_linear" x1="165.855" y1="158.782" x2="165.855" y2="20.3712" gradientUnits="userSpaceOnUse">
<stop stop-color="#808080" stop-opacity="0.25"/>
<stop offset="0.54" stop-color="#808080" stop-opacity="0.12"/>
<stop offset="1" stop-color="#808080" stop-opacity="0.1"/>
</linearGradient>
<clipPath id="clip0">
<rect width="332" height="177" fill="white"/>
</clipPath>
</defs>
</svg>
