<svg width="302" height="267" viewBox="0 0 302 267" fill="none" xmlns="http://www.w3.org/2000/svg">
<g clip-path="url(#clip0)">
<path d="M262.418 159.95H8.27304C6.22309 159.947 4.25776 159.131 2.80823 157.68C1.3587 156.228 0.54333 154.26 0.541016 152.208V8.72778H270.15V152.208C270.147 154.26 269.332 156.228 267.882 157.68C266.433 159.131 264.468 159.947 262.418 159.95Z" fill="#E6E6E6"/>
<path d="M252.304 145.131H18.3868C17.3308 145.13 16.3183 144.709 15.5716 143.961C14.8249 143.214 14.4048 142.2 14.4036 141.143V27.5344C14.4048 26.477 14.8249 25.4633 15.5716 24.7156C16.3183 23.968 17.3308 23.5474 18.3868 23.5462H252.304C253.36 23.5474 254.372 23.9679 255.119 24.7156C255.866 25.4633 256.286 26.477 256.287 27.5344V141.143C256.286 142.2 255.866 143.214 255.119 143.961C254.372 144.709 253.36 145.13 252.304 145.131Z" fill="white"/>
<path d="M270.691 13.9574H0V7.74174C0.00231562 5.68921 0.81768 3.72142 2.26721 2.27006C3.71675 0.818708 5.68207 0.00231853 7.73202 0H262.959C265.009 0.00231853 266.974 0.818708 268.423 2.27006C269.873 3.72142 270.688 5.68921 270.691 7.74174V13.9574Z" fill="#F2C85B"/>
<path d="M73.7172 101.632H32.0836C31.0275 101.631 30.0151 101.21 29.2684 100.463C28.5216 99.715 28.1016 98.7013 28.1004 97.6439V70.2397C28.1016 69.1823 28.5216 68.1686 29.2684 67.421C30.0151 66.6733 31.0275 66.2527 32.0836 66.2515H73.7172C74.7732 66.2527 75.7857 66.6733 76.5324 67.4209C77.2791 68.1686 77.6992 69.1823 77.7003 70.2397V97.6439C77.6992 98.7013 77.2791 99.715 76.5324 100.463C75.7857 101.21 74.7732 101.631 73.7172 101.632Z" fill="#E6E6E6"/>
<path d="M240.375 70.688H108.83C108.242 70.688 107.678 70.4543 107.263 70.0383C106.847 69.6223 106.614 69.0581 106.614 68.4698C106.614 67.8815 106.847 67.3172 107.263 66.9012C107.678 66.4852 108.242 66.2515 108.83 66.2515H240.375C240.962 66.2515 241.526 66.4852 241.941 66.9012C242.357 67.3172 242.59 67.8815 242.59 68.4698C242.59 69.0581 242.357 69.6223 241.941 70.0383C241.526 70.4543 240.962 70.688 240.375 70.688Z" fill="#E6E6E6"/>
<path d="M240.375 86.5566H108.83C108.242 86.5566 107.679 86.3229 107.263 85.907C106.848 85.491 106.614 84.9268 106.614 84.3385C106.614 83.7502 106.848 83.186 107.263 82.77C107.679 82.3541 108.242 82.1204 108.83 82.1204H240.375C240.962 82.1204 241.526 82.3541 241.941 82.77C242.357 83.186 242.59 83.7502 242.59 84.3385C242.59 84.9268 242.357 85.491 241.941 85.907C241.526 86.3229 240.962 86.5566 240.375 86.5566Z" fill="#E6E6E6"/>
<path d="M240.375 102.425H108.83C108.242 102.425 107.678 102.192 107.263 101.776C106.847 101.36 106.614 100.796 106.614 100.207C106.614 99.6189 106.847 99.0547 107.263 98.6387C107.678 98.2227 108.242 97.989 108.83 97.989H240.375C240.962 97.989 241.526 98.2227 241.941 98.6387C242.357 99.0547 242.59 99.6189 242.59 100.207C242.59 100.796 242.357 101.36 241.941 101.776C241.526 102.192 240.962 102.425 240.375 102.425Z" fill="#E6E6E6"/>
<path d="M196.603 261.019H190.858L188.125 238.832H196.604L196.603 261.019Z" fill="#A0616A"/>
<path d="M186.755 259.375H197.834V266.36H179.778C179.778 265.443 179.959 264.535 180.309 263.687C180.66 262.84 181.174 262.07 181.822 261.421C182.469 260.773 183.239 260.258 184.085 259.907C184.931 259.556 185.838 259.375 186.755 259.375Z" fill="#2F2E41"/>
<path d="M220.502 261.019H214.757L212.024 238.832H220.503L220.502 261.019Z" fill="#A0616A"/>
<path d="M210.654 259.375H221.733V266.36H203.677C203.677 265.443 203.858 264.535 204.208 263.687C204.559 262.84 205.073 262.07 205.721 261.421C206.368 260.773 207.138 260.258 207.984 259.907C208.83 259.556 209.737 259.375 210.654 259.375Z" fill="#2F2E41"/>
<path d="M219.771 255.92H213.922C213.394 255.917 212.886 255.717 212.497 255.358C212.109 255 211.868 254.51 211.821 253.983L206.865 194.208C206.851 194.034 206.772 193.872 206.645 193.753C206.518 193.634 206.351 193.566 206.177 193.563C206.003 193.56 205.834 193.622 205.703 193.736C205.571 193.851 205.487 194.01 205.467 194.183L198.349 254.058C198.288 254.571 198.041 255.044 197.655 255.387C197.269 255.73 196.771 255.919 196.255 255.92H189.074C188.517 255.919 187.983 255.698 187.588 255.304C187.194 254.911 186.97 254.377 186.966 253.82C186.951 250.059 186.925 246.27 186.899 242.482C186.671 208.736 186.436 173.842 193.473 160.172L193.537 160.047L218.932 159.612L218.996 159.752C226.679 176.563 224.347 214.12 222.092 250.44L221.875 253.939C221.841 254.475 221.605 254.978 221.214 255.346C220.823 255.714 220.307 255.919 219.771 255.92Z" fill="#2F2E41"/>
<path d="M207.74 114.683C214.097 114.683 219.249 109.524 219.249 103.159C219.249 96.7948 214.097 91.6353 207.74 91.6353C201.383 91.6353 196.231 96.7948 196.231 103.159C196.231 109.524 201.383 114.683 207.74 114.683Z" fill="#A0616A"/>
<path d="M192.049 162.165L192.366 148.953L190.083 138.644C189.506 136.091 189.54 133.438 190.181 130.901C190.822 128.363 192.053 126.014 193.773 124.043C195.446 122.082 197.559 120.545 199.939 119.557C202.318 118.569 204.897 118.159 207.465 118.359H207.466C207.631 118.371 207.798 118.385 207.964 118.4C210.159 118.598 212.291 119.236 214.233 120.277C216.176 121.317 217.89 122.739 219.272 124.456C220.684 126.184 221.733 128.178 222.358 130.32C222.983 132.462 223.171 134.708 222.911 136.925L220.149 161.096L192.049 162.165Z" fill="#F2C85B"/>
<path d="M182.272 185.845C182.815 185.421 183.258 184.882 183.571 184.268C183.883 183.653 184.058 182.977 184.081 182.288C184.105 181.599 183.977 180.913 183.707 180.278C183.437 179.643 183.032 179.076 182.519 178.615L188.999 163.155L180.447 164.763L175.604 179.198C174.888 180.111 174.532 181.256 174.603 182.416C174.674 183.575 175.167 184.667 175.989 185.487C176.811 186.306 177.904 186.795 179.062 186.861C180.22 186.928 181.362 186.566 182.272 185.845Z" fill="#A0616A"/>
<path d="M231.168 187.699C230.65 187.244 230.238 186.681 229.961 186.049C229.683 185.418 229.548 184.733 229.563 184.044C229.579 183.354 229.746 182.676 230.051 182.058C230.357 181.44 230.794 180.896 231.332 180.466L225.741 164.661L234.188 166.754L238.202 181.441C238.865 182.395 239.156 183.558 239.019 184.711C238.882 185.864 238.328 186.927 237.461 187.698C236.594 188.47 235.474 188.896 234.314 188.896C233.154 188.896 232.035 188.47 231.168 187.699Z" fill="#A0616A"/>
<path d="M183.3 178.27C183.003 178.27 182.71 178.207 182.439 178.085L177.508 175.874C177.034 175.662 176.655 175.282 176.443 174.807C176.232 174.332 176.203 173.795 176.363 173.3L184.633 147.579L187.829 128.202C187.943 127.513 188.193 126.854 188.566 126.265C188.939 125.675 189.427 125.167 190 124.77C190.573 124.373 191.22 124.096 191.903 123.954C192.585 123.813 193.289 123.81 193.973 123.947C194.656 124.083 195.306 124.356 195.882 124.748C196.458 125.141 196.949 125.646 197.326 126.233C197.704 126.819 197.959 127.476 198.078 128.164C198.197 128.852 198.176 129.556 198.017 130.236L193.16 151.017L185.318 176.774C185.186 177.207 184.919 177.586 184.556 177.855C184.192 178.125 183.752 178.27 183.3 178.27V178.27Z" fill="#F2C85B"/>
<path d="M230.331 178.27C229.879 178.27 229.439 178.125 229.076 177.855C228.712 177.586 228.445 177.207 228.314 176.774L220.476 151.032L215.614 130.236C215.455 129.556 215.435 128.852 215.553 128.164C215.672 127.476 215.928 126.819 216.305 126.233C216.682 125.646 217.174 125.141 217.75 124.748C218.326 124.356 218.975 124.083 219.658 123.946C220.342 123.81 221.046 123.813 221.728 123.954C222.411 124.096 223.058 124.373 223.631 124.77C224.205 125.167 224.692 125.675 225.065 126.265C225.438 126.854 225.689 127.513 225.802 128.202L229.007 147.613L237.268 173.3C237.428 173.795 237.399 174.332 237.188 174.807C236.976 175.282 236.597 175.662 236.123 175.874L231.193 178.085C230.922 178.207 230.628 178.27 230.331 178.27Z" fill="#F2C85B"/>
<path d="M207.977 90.421C204.778 89.0336 200.599 90.7599 199.308 94.0021C198.505 96.0198 198.75 98.2957 199.193 100.422C199.636 102.549 200.268 104.671 200.2 106.842C200.132 109.013 199.198 111.317 197.274 112.322C196.125 112.922 194.78 112.989 193.534 113.347C192.288 113.705 191.002 114.541 190.823 115.827C190.551 117.771 192.907 119.253 192.891 121.216C192.875 123.296 190.278 124.532 189.942 126.585C189.884 127.186 189.979 127.792 190.219 128.346C190.459 128.9 190.836 129.384 191.314 129.752C192.278 130.477 193.374 131.008 194.54 131.316C203.513 134.187 213.067 134.732 222.308 132.9C224.144 132.533 226.034 132.037 227.46 130.823C228.887 129.609 229.703 127.484 228.883 125.799C227.653 123.272 223.75 123.128 222.39 120.67C221.574 119.195 221.949 117.385 222.121 115.708C222.565 111.377 223.589 106.318 222.514 102.099C221.543 98.2875 219.435 93.3624 216.422 90.8383C214.26 89.0271 210.133 89.8523 207.37 90.411L207.977 90.421Z" fill="#2F2E41"/>
<path d="M301.531 267H137.519C137.395 267 137.275 266.951 137.187 266.863C137.1 266.775 137.05 266.655 137.05 266.531C137.05 266.406 137.1 266.287 137.187 266.199C137.275 266.111 137.395 266.062 137.519 266.062H301.531C301.656 266.062 301.775 266.111 301.863 266.199C301.951 266.287 302 266.406 302 266.531C302 266.655 301.951 266.775 301.863 266.863C301.775 266.951 301.656 267 301.531 267Z" fill="#CCCCCC"/>
<path d="M284.261 256.316C277.504 265.376 263.478 266.33 263.478 266.33C263.478 266.33 260.407 252.593 267.164 243.533C273.921 234.472 287.948 233.518 287.948 233.518C287.948 233.518 291.019 247.255 284.261 256.316Z" fill="#E6E6E6"/>
<path d="M249.839 259.722C254.298 265.701 263.554 266.33 263.554 266.33C263.554 266.33 265.58 257.266 261.121 251.287C256.662 245.308 247.407 244.679 247.407 244.679C247.407 244.679 245.38 253.743 249.839 259.722Z" fill="#E6E6E6"/>
</g>
<defs>
<clipPath id="clip0">
<rect width="302" height="267" fill="white"/>
</clipPath>
</defs>
</svg>
