<svg width="393" height="285" viewBox="0 0 393 285" fill="none" xmlns="http://www.w3.org/2000/svg">
<g clip-path="url(#clip0)">
<path d="M212.668 53.0753C212.571 64.1197 211.762 75.1463 210.246 86.0865C210.193 86.4707 210.135 86.8549 210.082 87.239L106.64 86.6611C106.337 86.2796 106.038 85.8934 105.748 85.5027C104.782 84.2095 103.877 82.8795 103.046 81.5037C99.0527 74.8755 97.2243 67.1152 99.0565 61.761L99.0893 61.6778C99.4848 60.5054 100.108 59.4226 100.923 58.4917C105.101 53.7899 113.547 54.5737 121.212 58.3688C114.337 50.8443 108.863 41.3496 108.447 32.8745C108.039 24.608 112.362 18.7026 117.051 13.684C117.205 13.5181 117.358 13.3568 117.512 13.1956C117.587 13.1126 117.666 13.0343 117.74 12.9513C121.399 9.12681 125.664 5.35666 131.837 5.81272C138.607 6.31379 146.114 11.9841 151.377 18.5916C156.64 25.1945 160.138 32.6954 163.683 40.016C167.232 47.332 171.073 54.8348 176.769 61.0881C169.054 51.3307 162.834 40.229 160.536 29.4318C158.238 18.6346 160.26 8.26458 167.136 3.17949C169.224 1.6833 171.639 0.708777 174.18 0.337466C174.477 0.288173 174.778 0.248159 175.084 0.2128C181.449 -0.511339 189.049 1.68983 195.515 6.95135C202.636 12.7447 207.573 21.333 210.029 29.486C212.486 37.6389 212.747 45.4878 212.668 53.0753Z" fill="#F2F2F2"/>
<path d="M144.991 86.8756L143.013 86.8645C142.385 86.4719 141.754 86.0839 141.12 85.7005C140.727 85.4528 140.33 85.2143 139.933 84.9712C133.372 80.9645 126.77 77.1213 120.127 73.4415C113.49 69.7587 106.819 66.2456 100.116 62.9021C99.9378 62.8247 99.7928 62.6876 99.7058 62.5144C99.6187 62.3413 99.5951 62.1431 99.639 61.9544C99.6461 61.9297 99.6573 61.9063 99.6719 61.8851C99.7654 61.7096 99.9744 61.6366 100.279 61.7866C101.102 62.1988 101.929 62.6111 102.751 63.0326C109.473 66.4333 116.166 70.0037 122.831 73.7439C129.49 77.4824 136.112 81.3859 142.696 85.4545C142.835 85.5387 142.973 85.6275 143.112 85.7116C143.739 86.0996 144.363 86.4876 144.991 86.8756Z" fill="white"/>
<path d="M170.495 87.0182L169.272 87.0113C168.996 86.6253 168.725 86.2393 168.449 85.8532C161.967 76.7652 155.487 67.6772 149.008 58.5892C138.399 43.7107 127.792 28.8322 117.189 13.9537C117.126 13.8736 117.079 13.7821 117.051 13.6842C116.96 13.3548 117.202 13.1616 117.513 13.1958C117.643 13.2145 117.769 13.2608 117.88 13.3317C117.991 13.4026 118.086 13.4965 118.159 13.607C124.107 21.9509 130.054 30.2917 135.999 38.6293C146.554 53.4334 157.107 68.2359 167.659 83.0369C168.33 83.9764 169.001 84.9205 169.672 85.8601C169.948 86.2461 170.224 86.6322 170.495 87.0182Z" fill="white"/>
<path d="M197.744 79.9158C197.681 81.9769 197.545 84.0052 197.367 86.0147C197.332 86.399 197.298 86.7833 197.263 87.1675L195.98 87.1604C196.019 86.7761 196.058 86.3918 196.093 86.0075C196.364 83.1045 196.556 80.1686 196.582 77.153C196.617 68.7924 195.802 60.4499 194.15 52.2539C192.395 43.429 189.875 34.7736 186.618 26.3858C183.2 17.5394 179.079 8.98078 174.294 0.792142C174.204 0.65868 174.164 0.49768 174.181 0.337534C174.234 -0.028151 174.72 -0.136599 175.085 0.212868C175.156 0.281431 175.218 0.35974 175.269 0.445512C175.861 1.46333 176.442 2.48418 177.012 3.50806C181.62 11.7421 185.565 20.3305 188.808 29.1914C191.897 37.6067 194.246 46.2751 195.83 55.0983C197.313 63.2838 197.955 71.5997 197.744 79.9158Z" fill="white"/>
<path d="M285.256 86.3818H4.03975C2.96862 86.3828 1.94163 86.8087 1.18424 87.566C0.426851 88.3234 0.000939656 89.3503 0 90.4213V280.96C0.000939656 282.032 0.426851 283.058 1.18424 283.816C1.94163 284.573 2.96862 284.999 4.03975 285H285.256C285.84 285 286.417 284.873 286.947 284.629C287.478 284.384 287.949 284.027 288.328 283.582C288.36 283.548 288.389 283.51 288.416 283.471C288.657 283.176 288.852 282.847 288.995 282.494C289.198 282.008 289.302 281.487 289.3 280.96V90.4213C289.299 89.3495 288.872 88.3221 288.114 87.5646C287.356 86.8072 286.328 86.3818 285.256 86.3818V86.3818ZM288.147 280.96C288.147 281.524 287.981 282.075 287.669 282.545C287.393 282.958 287.017 283.296 286.576 283.527C286.168 283.738 285.715 283.847 285.256 283.846H4.03975C3.27454 283.846 2.54094 283.541 1.99986 283C1.45878 282.459 1.15438 281.726 1.15346 280.96V90.4213C1.15438 89.6562 1.45878 88.9227 1.99986 88.3816C2.54094 87.8406 3.27454 87.5363 4.03975 87.5353H285.256C286.022 87.5352 286.756 87.8391 287.298 88.3802C287.84 88.9213 288.146 89.6554 288.147 90.4213V280.96Z" fill="#3F3D56"/>
<path d="M288.721 102.572H0.575684V103.727H288.721V102.572Z" fill="#3F3D56"/>
<path d="M10.3922 98.5072C12.3057 98.5072 13.8568 96.9562 13.8568 95.0429C13.8568 93.1296 12.3057 91.5786 10.3922 91.5786C8.47868 91.5786 6.92749 93.1296 6.92749 95.0429C6.92749 96.9562 8.47868 98.5072 10.3922 98.5072Z" fill="#3F3D56"/>
<path d="M20.3531 98.5072C22.2666 98.5072 23.8178 96.9562 23.8178 95.0429C23.8178 93.1296 22.2666 91.5786 20.3531 91.5786C18.4396 91.5786 16.8884 93.1296 16.8884 95.0429C16.8884 96.9562 18.4396 98.5072 20.3531 98.5072Z" fill="#3F3D56"/>
<path d="M30.314 98.5072C32.2275 98.5072 33.7787 96.9562 33.7787 95.0429C33.7787 93.1296 32.2275 91.5786 30.314 91.5786C28.4006 91.5786 26.8494 93.1296 26.8494 95.0429C26.8494 96.9562 28.4006 98.5072 30.314 98.5072Z" fill="#3F3D56"/>
<path d="M216.967 129.302H72.4209C70.8236 129.302 69.2917 128.667 68.1622 127.538C67.0327 126.408 66.3982 124.877 66.3982 123.279C66.3982 121.682 67.0327 120.151 68.1622 119.021C69.2917 117.892 70.8236 117.257 72.4209 117.257H216.967C218.564 117.257 220.096 117.892 221.226 119.021C222.355 120.151 222.99 121.682 222.99 123.279C222.99 124.877 222.355 126.408 221.226 127.538C220.096 128.667 218.564 129.302 216.967 129.302V129.302ZM72.4209 118.184C71.0694 118.184 69.7731 118.721 68.8174 119.676C67.8617 120.632 67.3248 121.928 67.3248 123.279C67.3248 124.631 67.8617 125.927 68.8174 126.883C69.7731 127.838 71.0694 128.375 72.4209 128.375H216.967C218.318 128.375 219.615 127.838 220.57 126.883C221.526 125.927 222.063 124.631 222.063 123.279C222.063 121.928 221.526 120.632 220.57 119.676C219.615 118.721 218.318 118.184 216.967 118.184H72.4209Z" fill="#3F3D56"/>
<path d="M84.4226 200H28.828C26.74 199.998 24.7381 199.167 23.2615 197.691C21.785 196.215 20.9545 194.213 20.9521 192.125V166.184C20.9545 164.096 21.785 162.094 23.2615 160.618C24.7381 159.141 26.74 158.311 28.828 158.309H84.4226C86.5107 158.311 88.5126 159.141 89.9892 160.618C91.4657 162.094 92.2962 164.096 92.2985 166.184V192.125C92.2962 194.213 91.4657 196.215 89.9892 197.691C88.5126 199.167 86.5107 199.998 84.4226 200V200Z" fill="#F2C85B"/>
<path d="M172.448 200H116.853C114.765 199.998 112.763 199.167 111.286 197.691C109.81 196.215 108.979 194.213 108.977 192.125V166.184C108.979 164.096 109.81 162.094 111.286 160.618C112.763 159.141 114.765 158.311 116.853 158.309H172.448C174.536 158.311 176.538 159.141 178.014 160.618C179.491 162.094 180.321 164.096 180.324 166.184V192.125C180.321 194.213 179.491 196.215 178.014 197.691C176.538 199.167 174.536 199.998 172.448 200V200Z" fill="#F2C85B"/>
<path d="M260.472 200H204.878C202.79 199.998 200.788 199.167 199.311 197.691C197.835 196.215 197.004 194.213 197.002 192.125V166.184C197.004 164.096 197.835 162.094 199.311 160.618C200.788 159.141 202.79 158.311 204.878 158.309H260.472C262.56 158.311 264.562 159.141 266.039 160.618C267.515 162.094 268.346 164.096 268.348 166.184V192.125C268.346 194.213 267.515 196.215 266.039 197.691C264.562 199.167 262.56 199.998 260.472 200V200Z" fill="#F2C85B"/>
<path d="M84.4226 254.662H28.828C26.74 254.66 24.7381 253.829 23.2615 252.353C21.785 250.877 20.9545 248.875 20.9521 246.787V220.846C20.9545 218.758 21.785 216.756 23.2615 215.28C24.7381 213.804 26.74 212.973 28.828 212.971H84.4226C86.5107 212.973 88.5126 213.804 89.9892 215.28C91.4657 216.756 92.2962 218.758 92.2985 220.846V246.787C92.2962 248.875 91.4657 250.877 89.9892 252.353C88.5126 253.829 86.5107 254.66 84.4226 254.662V254.662Z" fill="#F2C85B"/>
<path d="M172.448 254.662H116.853C114.765 254.66 112.763 253.829 111.286 252.353C109.81 250.877 108.979 248.875 108.977 246.787V220.846C108.979 218.758 109.81 216.756 111.286 215.28C112.763 213.803 114.765 212.973 116.853 212.971H172.448C174.536 212.973 176.538 213.804 178.014 215.28C179.491 216.756 180.321 218.758 180.324 220.846V246.787C180.321 248.875 179.491 250.877 178.014 252.353C176.538 253.829 174.536 254.66 172.448 254.662V254.662Z" fill="#F2C85B"/>
<path d="M260.472 254.662H204.878C202.79 254.66 200.788 253.829 199.311 252.353C197.835 250.877 197.004 248.875 197.002 246.787V220.846C197.004 218.758 197.835 216.756 199.311 215.28C200.788 213.804 202.79 212.973 204.878 212.971H260.472C262.56 212.973 264.562 213.804 266.039 215.28C267.515 216.756 268.346 218.758 268.348 220.846V246.787C268.346 248.875 267.515 250.877 266.039 252.353C264.562 253.829 262.56 254.66 260.472 254.662V254.662Z" fill="#F2C85B"/>
<path d="M322.965 130.515C331.408 130.515 338.253 123.67 338.253 115.228C338.253 106.785 331.408 99.9409 322.965 99.9409C314.521 99.9409 307.676 106.785 307.676 115.228C307.676 123.67 314.521 130.515 322.965 130.515Z" fill="#2F2E41"/>
<path d="M284.664 194.751C284.325 194.107 284.132 193.397 284.097 192.67C284.063 191.944 284.188 191.218 284.464 190.545C284.74 189.872 285.161 189.268 285.696 188.775C286.231 188.282 286.868 187.912 287.561 187.692L306.934 146.714L315.796 152.927L293.966 191.253C294.259 192.442 294.106 193.698 293.535 194.782C292.964 195.865 292.016 196.702 290.869 197.133C289.722 197.565 288.457 197.56 287.314 197.121C286.17 196.682 285.227 195.839 284.664 194.751V194.751Z" fill="#FFB8B8"/>
<path d="M301.265 152.155C301.172 151.847 301.147 151.524 301.192 151.206C301.236 150.889 301.348 150.585 301.52 150.314L307.544 140.872C308.213 139.375 309.45 138.204 310.981 137.616C312.513 137.028 314.215 137.072 315.715 137.737C317.215 138.402 318.389 139.635 318.982 141.165C319.574 142.695 319.535 144.397 318.874 145.899L315.84 156.717C315.753 157.025 315.601 157.312 315.394 157.556C315.186 157.801 314.929 157.998 314.638 158.134C314.348 158.27 314.032 158.342 313.711 158.345C313.39 158.348 313.073 158.282 312.78 158.151L302.491 153.551C302.198 153.42 301.937 153.227 301.725 152.986C301.514 152.746 301.357 152.462 301.265 152.155V152.155Z" fill="#6C63FF"/>
<path d="M350.01 198.814C349.301 198.65 348.637 198.332 348.064 197.883C347.492 197.434 347.025 196.865 346.696 196.216C346.367 195.567 346.184 194.854 346.161 194.126C346.138 193.399 346.274 192.676 346.561 192.007L328.213 150.56L338.709 147.917L353.443 189.489C354.535 190.045 355.385 190.982 355.832 192.122C356.279 193.262 356.292 194.527 355.869 195.677C355.446 196.826 354.615 197.78 353.536 198.359C352.456 198.937 351.201 199.099 350.01 198.814V198.814Z" fill="#FFB8B8"/>
<path d="M355.011 273.94L349.674 275.883L339.639 256.224L347.516 253.356L355.011 273.94Z" fill="#FFB8B8"/>
<path d="M345.306 275.746L355.599 271.999L357.959 278.479L341.185 284.586C340.875 283.735 340.736 282.831 340.776 281.926C340.815 281.021 341.032 280.133 341.415 279.312C341.798 278.492 342.338 277.754 343.006 277.142C343.674 276.53 344.455 276.056 345.306 275.746Z" fill="#2F2E41"/>
<path d="M340.441 261.505L320.109 225.927C319.912 225.583 319.811 225.193 319.815 224.797C319.819 224.4 319.929 224.012 320.133 223.672L329.288 208.415C329.505 208.053 329.821 207.76 330.198 207.57C330.575 207.38 330.998 207.301 331.418 207.342C331.838 207.382 332.238 207.541 332.571 207.8C332.904 208.059 333.157 208.407 333.301 208.804L350.611 256.735C350.801 257.257 350.79 257.831 350.578 258.344C350.366 258.858 349.97 259.274 349.467 259.51L343.334 262.414C343.038 262.555 342.714 262.627 342.387 262.627C341.992 262.628 341.605 262.524 341.263 262.327C340.922 262.13 340.638 261.847 340.441 261.505V261.505Z" fill="#2F2E41"/>
<path d="M321.573 131.931C327.857 131.931 332.952 126.837 332.952 120.553C332.952 114.269 327.857 109.175 321.573 109.175C315.289 109.175 310.194 114.269 310.194 120.553C310.194 126.837 315.289 131.931 321.573 131.931Z" fill="#FFB8B8"/>
<path d="M305.388 172.089C296.427 152.221 305.461 141.117 309.761 137.265C311 136.154 312.605 135.54 314.269 135.542H330.299C331.45 135.541 332.582 135.836 333.587 136.396C334.592 136.957 335.438 137.765 336.043 138.744C336.648 139.723 336.993 140.84 337.045 141.99C337.096 143.14 336.853 144.284 336.339 145.313L325.623 166.742L305.476 172.282L305.388 172.089Z" fill="#F2C85B"/>
<path d="M328.839 157.988C328.546 157.857 328.285 157.664 328.073 157.423C327.862 157.182 327.705 156.899 327.613 156.591L324.405 145.861C323.711 144.376 323.633 142.675 324.19 141.133C324.747 139.59 325.892 138.331 327.376 137.632C328.859 136.932 330.559 136.849 332.104 137.401C333.648 137.952 334.911 139.093 335.616 140.574L341.82 149.942C341.997 150.21 342.114 150.512 342.164 150.829C342.213 151.146 342.194 151.469 342.107 151.778C342.02 152.087 341.868 152.373 341.661 152.618C341.453 152.862 341.195 153.059 340.905 153.195L330.697 157.973C330.407 158.109 330.09 158.181 329.77 158.183C329.449 158.186 329.131 158.119 328.839 157.988V157.988Z" fill="#F2C85B"/>
<path d="M318.347 279.312L312.667 279.311L309.965 257.406L318.348 257.406L318.347 279.312Z" fill="#FFB8B8"/>
<path d="M308.61 277.689H319.564V284.585H301.713C301.713 283.679 301.891 282.783 302.238 281.946C302.585 281.109 303.093 280.349 303.733 279.709C304.373 279.068 305.134 278.56 305.97 278.214C306.807 277.867 307.704 277.689 308.61 277.689V277.689Z" fill="#2F2E41"/>
<path d="M315.94 270.949L306.847 269.901C306.552 269.867 306.268 269.774 306.009 269.629C305.751 269.484 305.524 269.289 305.342 269.055C305.16 268.821 305.026 268.554 304.949 268.268C304.871 267.982 304.851 267.683 304.89 267.39L313.006 206.289C313.035 206.076 313.023 205.86 312.973 205.651L304.815 171.999C304.738 171.689 304.729 171.365 304.79 171.051C304.85 170.737 304.978 170.44 305.164 170.18C306.429 168.437 310.763 164.373 323.656 164.296H323.67C324.099 164.296 324.52 164.419 324.881 164.652C325.242 164.884 325.529 165.215 325.707 165.605L327.427 169.388C327.555 169.669 327.755 169.911 328.007 170.089C330.375 171.764 341.842 181.169 335.109 201.815C328.491 222.109 320.011 261.506 318.379 269.197C318.275 269.697 318.001 270.146 317.605 270.468C317.208 270.79 316.713 270.965 316.202 270.964C316.115 270.964 316.027 270.959 315.94 270.949V270.949Z" fill="#2F2E41"/>
<path d="M333.53 113.396C330.93 115.188 327.843 116.142 324.685 116.129C325.812 116.91 327.094 117.438 328.444 117.676C324.246 118.576 319.906 118.601 315.697 117.747C314.762 117.597 313.859 117.287 313.029 116.831C312.615 116.6 312.255 116.284 311.971 115.905C311.687 115.525 311.487 115.091 311.382 114.628C311.102 113.031 312.347 111.58 313.641 110.601C315.622 109.127 317.906 108.111 320.327 107.627C322.749 107.143 325.248 107.203 327.644 107.804C329.208 108.208 330.775 108.891 331.791 110.147C332.807 111.403 333.108 113.339 332.14 114.633L333.53 113.396Z" fill="#2F2E41"/>
<path d="M325.933 105.482C324.633 105.049 323.295 104.595 322.265 103.692C321.235 102.789 320.581 101.312 321.044 100.023C321.49 98.7804 322.849 98.0548 324.166 97.9571C325.482 97.8594 326.778 98.2668 328.035 98.6693C327.466 97.8104 326.879 96.1451 326.365 94.3886C325.192 90.3808 330.081 86.7208 334.246 87.0228C334.369 87.0317 334.487 87.0445 334.602 87.0611C338.802 87.6739 340.981 89.276 343.915 92.3435C347.584 96.1808 349.504 101.359 350.789 106.51C352.074 111.662 352.829 116.963 354.636 121.955C356.444 126.947 359.493 131.746 364.155 134.287C366.709 135.633 369.583 136.251 372.464 136.073C375.345 135.896 378.122 134.93 380.49 133.281C380.813 135.473 380.614 137.71 379.911 139.812C379.207 141.913 378.018 143.819 376.44 145.375C374.862 146.931 372.939 148.093 370.828 148.767C368.717 149.441 366.476 149.608 364.288 149.255C358.269 148.283 353.448 143.436 350.872 137.91C348.297 132.384 347.594 126.199 346.948 120.137C346.301 114.075 345.647 107.891 343.156 102.327C342.147 100.075 340.663 97.7834 338.01 97.4241C337.317 97.3111 336.606 97.4295 335.988 97.761C335.369 98.0925 334.877 98.6186 334.587 99.258C333.421 102.081 337.412 104.471 336.389 107.161C336.168 107.682 335.802 108.128 335.334 108.448C334.867 108.767 334.318 108.945 333.752 108.962C331.823 109.089 330.239 107.983 328.746 106.916C325.692 104.733 325.933 105.482 325.933 105.482Z" fill="#2F2E41"/>
<path d="M392.537 285H285.98C285.858 285 285.74 284.951 285.653 284.865C285.566 284.778 285.517 284.66 285.517 284.537C285.517 284.414 285.566 284.296 285.653 284.209C285.74 284.123 285.858 284.074 285.98 284.074H392.537C392.66 284.074 392.777 284.123 392.864 284.209C392.951 284.296 393 284.414 393 284.537C393 284.66 392.951 284.778 392.864 284.865C392.777 284.951 392.66 285 392.537 285Z" fill="#3F3D56"/>
</g>
<defs>
<clipPath id="clip0">
<rect width="393" height="285" fill="white"/>
</clipPath>
</defs>
</svg>
