<svg width="173" height="125" viewBox="0 0 173 125" fill="none" xmlns="http://www.w3.org/2000/svg">
<g clip-path="url(#clip0_41:130)">
<path d="M93.6173 23.2769C93.5746 28.1205 93.2184 32.9564 92.551 37.7544C92.5276 37.9229 92.5022 38.0914 92.4787 38.2598L46.9435 38.0064C46.8098 37.839 46.6782 37.6697 46.5507 37.4983C46.1256 36.9312 45.7272 36.3479 45.3614 35.7445C43.6034 32.8376 42.7985 29.4342 43.605 27.0861L43.6195 27.0496C43.7936 26.5354 44.0679 26.0606 44.4268 25.6523C46.2657 23.5903 49.9837 23.934 53.3578 25.5984C50.3315 22.2984 47.9218 18.1344 47.7387 14.4176C47.5591 10.7922 49.4621 8.20227 51.5262 6.00132C51.5939 5.92856 51.6616 5.85782 51.7293 5.7871C51.7622 5.75071 51.797 5.71636 51.8298 5.67997C53.4402 4.00269 55.3176 2.34924 58.0351 2.54925C61.0155 2.769 64.3198 5.25581 66.6367 8.15361C68.9535 11.0494 70.4931 14.339 72.0537 17.5495C73.6163 20.758 75.3069 24.0485 77.8143 26.791C74.4181 22.5118 71.6799 17.643 70.6685 12.9077C69.657 8.17245 70.5472 3.62455 73.5739 1.39441C74.4928 0.738242 75.5561 0.310851 76.6748 0.148008C76.8054 0.12639 76.938 0.108841 77.0728 0.0933341C79.8747 -0.224246 83.2201 0.741104 86.0665 3.04861C89.2011 5.58935 91.3744 9.35588 92.4557 12.9315C93.5369 16.507 93.6522 19.9493 93.6173 23.2769Z" fill="#F2F2F2"/>
<path d="M63.8255 38.1004L62.9547 38.0955C62.6783 37.9233 62.4005 37.7532 62.1214 37.585C61.9486 37.4764 61.7739 37.3718 61.599 37.2652C58.7108 35.508 55.8046 33.8225 52.8803 32.2087C49.9586 30.5935 47.0223 29.0528 44.0712 27.5865C43.993 27.5526 43.9292 27.4924 43.8909 27.4165C43.8526 27.3405 43.8422 27.2536 43.8615 27.1709C43.8646 27.16 43.8695 27.1498 43.876 27.1405C43.9171 27.0635 44.0091 27.0315 44.1434 27.0973C44.5054 27.2781 44.8694 27.4589 45.2314 27.6437C48.1904 29.1352 51.1368 30.701 54.0705 32.3413C57.0022 33.9809 59.9172 35.6928 62.8154 37.4771C62.8763 37.5141 62.9374 37.553 62.9983 37.5899C63.2747 37.7601 63.5491 37.9302 63.8255 38.1004Z" fill="white"/>
<path d="M75.0523 38.1629L74.5139 38.1599C74.3925 37.9906 74.2731 37.8213 74.1517 37.652C71.2985 33.6663 68.4459 29.6806 65.5939 25.695C60.9235 19.1698 56.2544 12.6446 51.5868 6.1195C51.5591 6.08438 51.5385 6.04425 51.5262 6.00133C51.4863 5.85685 51.5928 5.77212 51.7293 5.78711C51.7869 5.7953 51.8421 5.81562 51.8911 5.84672C51.9402 5.87782 51.982 5.91899 52.0138 5.96747C54.6323 9.62677 57.2502 13.2847 59.8674 16.9413C64.5135 23.4338 69.159 29.9257 73.8038 36.4168C74.0993 36.8289 74.3947 37.2429 74.6901 37.655C74.8115 37.8243 74.933 37.9936 75.0523 38.1629Z" fill="white"/>
<path d="M87.0474 35.0481C87.02 35.952 86.9599 36.8416 86.8815 37.7228C86.8663 37.8914 86.8511 38.0599 86.8358 38.2285L86.2709 38.2253C86.2882 38.0568 86.3055 37.8883 86.3206 37.7197C86.44 36.4465 86.5247 35.159 86.5362 33.8364C86.5512 30.1698 86.1925 26.5111 85.4656 22.9166C84.6929 19.0463 83.5835 15.2504 82.1498 11.5719C80.6451 7.69211 78.8309 3.93863 76.7247 0.347404C76.685 0.288873 76.6674 0.218264 76.6748 0.14803C76.6981 -0.012346 76.9125 -0.0599075 77.0728 0.0933558C77.1044 0.123425 77.1317 0.157769 77.1538 0.195385C77.4143 0.641762 77.6702 1.08947 77.9213 1.5385C79.9498 5.14967 81.6862 8.91619 83.1137 12.8023C84.4735 16.4929 85.5078 20.2945 86.205 24.1641C86.858 27.7539 87.1403 31.401 87.0474 35.0481Z" fill="white"/>
<path d="M125.571 37.8839H1.77831C1.3068 37.8843 0.854714 38.0711 0.521308 38.4032C0.187901 38.7354 0.00041364 39.1857 0 39.6554V123.219C0.00041364 123.689 0.187901 124.139 0.521308 124.471C0.854714 124.803 1.3068 124.99 1.77831 124.99H125.571C125.828 124.99 126.082 124.935 126.315 124.828C126.549 124.72 126.756 124.564 126.923 124.369C126.937 124.353 126.95 124.337 126.962 124.32C127.068 124.191 127.154 124.046 127.216 123.891C127.306 123.678 127.352 123.45 127.351 123.219V39.6554C127.35 39.1854 127.163 38.7348 126.829 38.4026C126.495 38.0704 126.042 37.8839 125.571 37.8839ZM126.843 123.219C126.843 123.466 126.77 123.708 126.633 123.914C126.511 124.095 126.346 124.243 126.152 124.344C125.972 124.437 125.773 124.485 125.571 124.485H1.77831C1.44146 124.484 1.11853 124.351 0.880346 124.113C0.642159 123.876 0.508164 123.554 0.507755 123.219V39.6554C0.508164 39.3199 0.642159 38.9982 0.880346 38.7609C1.11853 38.5236 1.44146 38.3902 1.77831 38.3898H125.571C125.908 38.3897 126.231 38.523 126.47 38.7603C126.708 38.9976 126.843 39.3196 126.843 39.6554V123.219Z" fill="#3F3D56"/>
<path d="M127.096 44.9841H0.253418V45.4906H127.096V44.9841Z" fill="#3F3D56"/>
<path d="M4.57472 43.2015C5.41705 43.2015 6.09988 42.5213 6.09988 41.6822C6.09988 40.8431 5.41705 40.1629 4.57472 40.1629C3.7324 40.1629 3.04956 40.8431 3.04956 41.6822C3.04956 42.5213 3.7324 43.2015 4.57472 43.2015Z" fill="#3F3D56"/>
<path d="M8.95955 43.2015C9.80187 43.2015 10.4847 42.5213 10.4847 41.6822C10.4847 40.8431 9.80187 40.1629 8.95955 40.1629C8.11723 40.1629 7.43439 40.8431 7.43439 41.6822C7.43439 42.5213 8.11723 43.2015 8.95955 43.2015Z" fill="#3F3D56"/>
<path d="M13.3444 43.2015C14.1867 43.2015 14.8695 42.5213 14.8695 41.6822C14.8695 40.8431 14.1867 40.1629 13.3444 40.1629C12.5021 40.1629 11.8192 40.8431 11.8192 41.6822C11.8192 42.5213 12.5021 43.2015 13.3444 43.2015Z" fill="#3F3D56"/>
<path d="M95.5096 56.707H31.8799C31.1768 56.707 30.5024 56.4287 30.0052 55.9334C29.508 55.4381 29.2287 54.7663 29.2287 54.0659C29.2287 53.3654 29.508 52.6937 30.0052 52.1984C30.5024 51.7031 31.1768 51.4248 31.8799 51.4248H95.5096C96.2127 51.4248 96.8871 51.7031 97.3843 52.1984C97.8815 52.6937 98.1608 53.3654 98.1608 54.0659C98.1608 54.7663 97.8815 55.4381 97.3843 55.9334C96.8871 56.4287 96.2127 56.707 95.5096 56.707ZM31.8799 51.8311C31.285 51.8311 30.7143 52.0666 30.2936 52.4857C29.8729 52.9048 29.6366 53.4732 29.6366 54.0659C29.6366 54.6586 29.8729 55.227 30.2936 55.6461C30.7143 56.0652 31.285 56.3006 31.8799 56.3006H95.5096C96.1045 56.3006 96.6752 56.0652 97.0959 55.6461C97.5166 55.227 97.7529 54.6586 97.7529 54.0659C97.7529 53.4732 97.5166 52.9048 97.0959 52.4857C96.6752 52.0666 96.1045 51.8311 95.5096 51.8311H31.8799Z" fill="#3F3D56"/>
<path d="M37.1631 87.7127H12.6902C11.771 87.7116 10.8898 87.3474 10.2398 86.6999C9.58984 86.0525 9.22424 85.1746 9.22321 84.259V72.882C9.22424 71.9664 9.58984 71.0885 10.2398 70.4411C10.8898 69.7936 11.771 69.4294 12.6902 69.4283H37.1631C38.0823 69.4294 38.9636 69.7936 39.6135 70.4411C40.2635 71.0885 40.6291 71.9664 40.6301 72.882V84.259C40.6291 85.1746 40.2635 86.0525 39.6135 86.6999C38.9636 87.3474 38.0823 87.7116 37.1631 87.7127Z" fill="#181F5E"/>
<path d="M75.912 87.7127H51.439C50.5198 87.7116 49.6386 87.3474 48.9886 86.7C48.3386 86.0525 47.973 85.1746 47.972 84.259V72.882C47.973 71.9664 48.3386 71.0885 48.9886 70.441C49.6386 69.7936 50.5198 69.4294 51.439 69.4283H75.912C76.8311 69.4294 77.7124 69.7936 78.3624 70.4411C79.0123 71.0885 79.3779 71.9664 79.379 72.882V84.259C79.3779 85.1746 79.0123 86.0525 78.3624 86.6999C77.7124 87.3474 76.8311 87.7116 75.912 87.7127Z" fill="#181F5E"/>
<path d="M114.661 87.7127H90.1879C89.2687 87.7116 88.3875 87.3474 87.7375 86.6999C87.0875 86.0525 86.7219 85.1746 86.7209 84.259V72.882C86.7219 71.9664 87.0875 71.0885 87.7375 70.4411C88.3875 69.7936 89.2687 69.4294 90.1879 69.4283H114.661C115.58 69.4294 116.461 69.7936 117.111 70.4411C117.761 71.0885 118.127 71.9664 118.128 72.882V84.259C118.127 85.1746 117.761 86.0525 117.111 86.6999C116.461 87.3474 115.58 87.7116 114.661 87.7127Z" fill="#181F5E"/>
<path d="M37.1631 111.685H12.6902C11.771 111.684 10.8898 111.32 10.2398 110.673C9.58984 110.025 9.22424 109.147 9.22321 108.232V96.8549C9.22424 95.9392 9.58984 95.0614 10.2398 94.4139C10.8898 93.7664 11.771 93.4022 12.6902 93.4012H37.1631C38.0823 93.4022 38.9636 93.7664 39.6135 94.4139C40.2635 95.0614 40.6291 95.9392 40.6301 96.8549V108.232C40.6291 109.147 40.2635 110.025 39.6135 110.673C38.9636 111.32 38.0823 111.684 37.1631 111.685Z" fill="#181F5E"/>
<path d="M75.912 111.685H51.439C50.5198 111.684 49.6386 111.32 48.9886 110.673C48.3386 110.025 47.973 109.147 47.972 108.232V96.8549C47.973 95.9392 48.3386 95.0614 48.9886 94.4139C49.6386 93.7664 50.5198 93.4022 51.439 93.4012H75.912C76.8311 93.4022 77.7124 93.7664 78.3624 94.4139C79.0123 95.0614 79.3779 95.9392 79.379 96.8549V108.232C79.3779 109.147 79.0123 110.025 78.3624 110.673C77.7124 111.32 76.8311 111.684 75.912 111.685Z" fill="#181F5E"/>
<path d="M114.661 111.685H90.1879C89.2687 111.684 88.3875 111.32 87.7375 110.673C87.0875 110.025 86.7219 109.147 86.7209 108.232V96.8549C86.7219 95.9392 87.0875 95.0614 87.7375 94.4139C88.3875 93.7664 89.2687 93.4022 90.1879 93.4012H114.661C115.58 93.4022 116.461 93.7664 117.111 94.4139C117.761 95.0614 118.127 95.9392 118.128 96.8549V108.232C118.127 109.147 117.761 110.025 117.111 110.673C116.461 111.32 115.58 111.684 114.661 111.685Z" fill="#181F5E"/>
<path d="M142.17 57.2388C145.887 57.2388 148.9 54.2372 148.9 50.5346C148.9 46.8319 145.887 43.8303 142.17 43.8303C138.453 43.8303 135.44 46.8319 135.44 50.5346C135.44 54.2372 138.453 57.2388 142.17 57.2388Z" fill="#2F2E41"/>
<path d="M125.31 85.4107C125.161 85.1283 125.076 84.8168 125.061 84.4981C125.045 84.1794 125.101 83.8613 125.222 83.5661C125.344 83.2709 125.529 83.0059 125.764 82.7897C126 82.5734 126.28 82.4113 126.585 82.3146L135.113 64.3434L139.014 67.0683L129.405 83.8766C129.534 84.3982 129.466 84.9488 129.215 85.4241C128.964 85.8994 128.546 86.2664 128.042 86.4555C127.537 86.6446 126.98 86.6427 126.477 86.4501C125.973 86.2575 125.558 85.8877 125.31 85.4107Z" fill="#FFB8B8"/>
<path d="M132.618 66.7293C132.577 66.5947 132.566 66.4528 132.586 66.3135C132.605 66.1743 132.654 66.0408 132.73 65.9222L135.382 61.7814C135.677 61.1246 136.221 60.611 136.895 60.3533C137.569 60.0955 138.319 60.1146 138.979 60.4064C139.639 60.6981 140.156 61.2388 140.417 61.9097C140.678 62.5807 140.66 63.3272 140.369 63.9857L139.034 68.7301C138.996 68.8655 138.929 68.9911 138.837 69.0984C138.746 69.2057 138.633 69.2921 138.505 69.3518C138.377 69.4115 138.238 69.4431 138.097 69.4444C137.956 69.4456 137.816 69.4166 137.687 69.3592L133.158 67.3416C133.029 67.2843 132.914 67.1999 132.821 67.0942C132.727 66.9885 132.658 66.8641 132.618 66.7293Z" fill="#6C63FF"/>
<path d="M154.076 87.1924C153.764 87.1202 153.471 86.9808 153.219 86.7839C152.967 86.587 152.762 86.3374 152.617 86.0528C152.472 85.7682 152.392 85.4554 152.381 85.1365C152.371 84.8176 152.431 84.5004 152.557 84.2071L144.481 66.03L149.101 64.8708L155.587 83.1028C156.068 83.3465 156.442 83.7573 156.639 84.2575C156.835 84.7576 156.841 85.3123 156.655 85.8164C156.468 86.3205 156.103 86.739 155.628 86.9926C155.152 87.2462 154.6 87.3173 154.076 87.1924V87.1924Z" fill="#FFB8B8"/>
<path d="M156.277 120.14L153.928 120.992L149.51 112.37L152.978 111.113L156.277 120.14Z" fill="#FFB8B8"/>
<path d="M152.005 120.932L156.536 119.289L157.575 122.131L150.191 124.809C150.055 124.435 149.993 124.039 150.011 123.642C150.028 123.246 150.124 122.856 150.292 122.496C150.461 122.136 150.699 121.813 150.993 121.544C151.286 121.276 151.631 121.068 152.005 120.932Z" fill="#2F2E41"/>
<path d="M149.863 114.686L140.913 99.0833C140.827 98.9323 140.782 98.7612 140.784 98.5874C140.786 98.4136 140.834 98.2434 140.924 98.0943L144.954 91.4029C145.05 91.2441 145.188 91.1156 145.354 91.0323C145.52 90.949 145.706 90.9143 145.891 90.9322C146.076 90.9501 146.252 91.0199 146.399 91.1335C146.546 91.247 146.657 91.3997 146.72 91.5738L154.34 112.594C154.424 112.823 154.419 113.075 154.326 113.3C154.233 113.525 154.058 113.708 153.837 113.811L151.137 115.085C151.007 115.147 150.864 115.178 150.72 115.178C150.546 115.179 150.376 115.133 150.225 115.047C150.075 114.961 149.95 114.836 149.863 114.686Z" fill="#2F2E41"/>
<path d="M141.558 57.8597C144.324 57.8597 146.567 55.6257 146.567 52.87C146.567 50.1142 144.324 47.8802 141.558 47.8802C138.791 47.8802 136.549 50.1142 136.549 52.87C136.549 55.6257 138.791 57.8597 141.558 57.8597Z" fill="#FFB8B8"/>
<path d="M134.433 75.4717C130.488 66.7585 134.465 61.8887 136.358 60.1996C136.903 59.7123 137.61 59.4431 138.342 59.4435H145.399C145.905 59.4435 146.404 59.5725 146.846 59.8183C147.289 60.0641 147.661 60.4186 147.927 60.8479C148.194 61.2773 148.346 61.7674 148.368 62.2717C148.391 62.7759 148.284 63.2776 148.057 63.7291L143.34 73.127L134.471 75.5567L134.433 75.4717Z" fill="#181F5E"/>
<path d="M144.756 69.2877C144.627 69.2302 144.512 69.1458 144.419 69.0401C144.326 68.9344 144.257 68.8099 144.216 68.6752L142.804 63.9694C142.499 63.3179 142.464 62.5722 142.709 61.8957C142.955 61.2191 143.459 60.667 144.112 60.3602C144.765 60.0533 145.513 60.0169 146.193 60.2588C146.873 60.5007 147.429 61.0012 147.739 61.6507L150.47 65.7591C150.548 65.8764 150.6 66.009 150.622 66.1479C150.643 66.2868 150.635 66.4288 150.597 66.5642C150.559 66.6996 150.492 66.8251 150.4 66.9324C150.309 67.0396 150.195 67.126 150.068 67.1856L145.574 69.2809C145.446 69.3406 145.307 69.3721 145.166 69.3733C145.025 69.3744 144.885 69.3452 144.756 69.2877Z" fill="#181F5E"/>
<path d="M140.138 122.496L137.637 122.496L136.448 112.889L140.138 112.889L140.138 122.496Z" fill="#FFB8B8"/>
<path d="M135.851 121.784H140.673V124.808H132.815C132.815 124.411 132.894 124.018 133.046 123.651C133.199 123.284 133.423 122.951 133.704 122.67C133.986 122.389 134.321 122.166 134.689 122.014C135.058 121.862 135.453 121.784 135.851 121.784Z" fill="#2F2E41"/>
<path d="M139.078 118.828L135.075 118.368C134.945 118.353 134.82 118.313 134.706 118.249C134.593 118.186 134.493 118.1 134.413 117.998C134.333 117.895 134.274 117.778 134.24 117.652C134.205 117.527 134.197 117.396 134.214 117.267L137.787 90.4705C137.799 90.3772 137.794 90.2824 137.772 90.1909L134.181 75.4324C134.147 75.2963 134.143 75.1545 134.169 75.0167C134.196 74.879 134.252 74.7487 134.334 74.6348C134.891 73.87 136.799 72.0878 142.475 72.0541H142.481C142.67 72.0541 142.855 72.1082 143.014 72.21C143.173 72.3119 143.299 72.457 143.377 72.6283L144.135 74.2873C144.191 74.4105 144.279 74.5165 144.39 74.5946C145.432 75.3294 150.48 79.4538 147.516 88.5087C144.603 97.4086 140.87 114.687 140.151 118.06C140.106 118.279 139.985 118.476 139.811 118.617C139.636 118.758 139.418 118.835 139.193 118.835C139.155 118.835 139.116 118.833 139.078 118.828Z" fill="#2F2E41"/>
<path d="M146.821 49.7314C145.676 50.5173 144.318 50.9355 142.928 50.93C143.424 51.2725 143.988 51.5039 144.582 51.6081C142.734 52.0031 140.824 52.0138 138.971 51.6395C138.559 51.5738 138.162 51.4378 137.796 51.2376C137.614 51.1363 137.456 50.998 137.331 50.8315C137.206 50.6651 137.117 50.4744 137.071 50.2717C136.948 49.5711 137.496 48.9346 138.066 48.5056C138.938 47.8588 139.943 47.4132 141.009 47.201C142.075 46.9888 143.175 47.0153 144.23 47.2786C144.918 47.4559 145.608 47.7555 146.055 48.3063C146.503 48.8571 146.635 49.7064 146.209 50.2736L146.821 49.7314Z" fill="#2F2E41"/>
<path d="M143.477 46.2604C142.904 46.0706 142.316 45.8716 141.862 45.4755C141.409 45.0794 141.121 44.4315 141.325 43.8661C141.521 43.3213 142.119 43.0031 142.699 42.9603C143.278 42.9174 143.849 43.0961 144.402 43.2726C144.152 42.8959 143.893 42.1656 143.667 41.3953C143.15 39.6376 145.303 38.0324 147.136 38.1649C147.19 38.1688 147.242 38.1744 147.293 38.1817C149.142 38.4504 150.101 39.1531 151.392 40.4984C153.008 42.1813 153.853 44.4521 154.418 46.7113C154.984 48.9706 155.316 51.2954 156.112 53.4848C156.908 55.6743 158.25 57.7789 160.302 58.8933C161.426 59.4835 162.692 59.7544 163.96 59.6766C165.228 59.5987 166.45 59.175 167.493 58.4518C167.635 59.4133 167.548 60.3946 167.238 61.3162C166.928 62.2377 166.405 63.0736 165.71 63.7559C165.015 64.4383 164.169 64.948 163.24 65.2436C162.31 65.5393 161.324 65.6126 160.361 65.4576C157.711 65.0313 155.589 62.9054 154.455 60.482C153.321 58.0586 153.012 55.346 152.727 52.6874C152.443 50.0288 152.155 47.3171 151.058 44.8769C150.614 43.8893 149.961 42.8841 148.793 42.7265C148.488 42.677 148.175 42.7289 147.903 42.8743C147.631 43.0197 147.414 43.2504 147.287 43.5308C146.773 44.7688 148.53 45.8172 148.08 46.997C147.982 47.2253 147.821 47.421 147.615 47.561C147.409 47.701 147.168 47.7793 146.919 47.7867C146.07 47.8423 145.372 47.3575 144.715 46.8895C143.371 45.9321 143.477 46.2604 143.477 46.2604Z" fill="#2F2E41"/>
<path d="M172.796 124.99H125.89C125.836 124.99 125.784 124.969 125.745 124.931C125.707 124.893 125.686 124.841 125.686 124.787C125.686 124.733 125.707 124.682 125.745 124.644C125.784 124.606 125.836 124.584 125.89 124.584H172.796C172.85 124.584 172.902 124.606 172.94 124.644C172.979 124.682 173 124.733 173 124.787C173 124.841 172.979 124.893 172.94 124.931C172.902 124.969 172.85 124.99 172.796 124.99Z" fill="#3F3D56"/>
</g>
<defs>
<clipPath id="clip0_41:130">
<rect width="173" height="124.99" fill="white"/>
</clipPath>
</defs>
</svg>
