<svg width="163" height="118" viewBox="0 0 163 118" fill="none" xmlns="http://www.w3.org/2000/svg">
<g clip-path="url(#clip0_41:7)">
<path d="M162.764 116.244H0.235549C0.173078 116.244 0.113165 116.22 0.0689906 116.176C0.0248165 116.132 0 116.072 0 116.01C0 115.948 0.0248165 115.888 0.0689906 115.844C0.113165 115.8 0.173078 115.776 0.235549 115.776H162.764C162.827 115.776 162.887 115.8 162.931 115.844C162.975 115.888 163 115.948 163 116.01C163 116.072 162.975 116.132 162.931 116.176C162.887 116.22 162.827 116.244 162.764 116.244Z" fill="#CCCCCC"/>
<path d="M146.678 75.3746H51.0446C50.6385 75.3746 50.2491 75.5351 49.9619 75.8207C49.6748 76.1064 49.5135 76.4938 49.5135 76.8978C49.5135 77.3018 49.6748 77.6892 49.9619 77.9749C50.2491 78.2606 50.6385 78.421 51.0446 78.421H53.7534V114.861C53.7534 115.265 53.9147 115.653 54.2018 115.939C54.4889 116.224 54.8784 116.385 55.2844 116.385C55.6905 116.385 56.0799 116.224 56.3671 115.939C56.6542 115.653 56.8155 115.265 56.8155 114.861L56.8388 78.421H140.671V114.861C140.671 115.265 140.832 115.653 141.119 115.939C141.407 116.224 141.796 116.385 142.202 116.385C142.608 116.385 142.998 116.224 143.285 115.939C143.572 115.653 143.733 115.265 143.733 114.861V79.2242L144.179 78.421H146.678C147.084 78.421 147.473 78.2606 147.76 77.9749C148.047 77.6892 148.209 77.3018 148.209 76.8978C148.209 76.4938 148.047 76.1064 147.76 75.8207C147.473 75.5351 147.084 75.3746 146.678 75.3746Z" fill="#CCCCCC"/>
<path d="M104.064 76.1717H75.0959C74.535 76.1711 73.9973 75.9491 73.6006 75.5545C73.204 75.1599 72.9809 74.6249 72.9803 74.0669V58.1997C72.9809 57.6417 73.204 57.1067 73.6006 56.7121C73.9973 56.3175 74.535 56.0955 75.0959 56.0949H104.064C104.625 56.0955 105.163 56.3175 105.559 56.7121C105.956 57.1067 106.179 57.6417 106.18 58.1997V74.0669C106.179 74.6249 105.956 75.1599 105.559 75.5545C105.163 75.9491 104.625 76.1711 104.064 76.1717Z" fill="#3F3D56"/>
<path d="M104.064 57.7148H75.0961C74.9669 57.7151 74.843 57.7663 74.7516 57.8572C74.6603 57.9481 74.6088 58.0714 74.6086 58.1999V74.0673C74.6088 74.1959 74.6603 74.3191 74.7517 74.41C74.843 74.5009 74.9669 74.5522 75.0961 74.5524H104.064C104.193 74.5522 104.317 74.5009 104.408 74.41C104.5 74.3191 104.551 74.1959 104.552 74.0673V58.1999C104.551 58.0714 104.5 57.9481 104.408 57.8572C104.317 57.7663 104.193 57.7151 104.064 57.7148Z" fill="white"/>
<path d="M92.0507 68.9488C92.0507 68.9488 88.5829 68.1538 86.6756 69.6113C84.7683 71.0688 89.1031 74.3813 89.1031 74.3813L92.0507 68.9488Z" fill="#2F2E41"/>
<path d="M89.75 67.4467C91.5565 67.4467 93.0211 65.9897 93.0211 64.1924C93.0211 62.395 91.5565 60.938 89.75 60.938C87.9434 60.938 86.4789 62.395 86.4789 64.1924C86.4789 65.9897 87.9434 67.4467 89.75 67.4467Z" fill="#A0616A"/>
<path d="M87.2205 59.624C87.4386 59.2557 87.7548 58.9545 88.1342 58.7537C88.5135 58.5529 88.9413 58.4603 89.3702 58.4861C89.8189 58.5421 90.2567 58.664 90.6694 58.8479L92.8077 59.6778C93.3611 59.8925 93.9671 60.1556 94.2072 60.696C94.4301 61.1977 94.2638 61.777 94.0955 62.2992L93.2954 64.7817C93.2068 64.2199 93.0547 63.6697 92.8421 63.1418C92.6259 62.6104 92.2354 62.1674 91.7339 61.8848C91.1785 61.6014 90.5238 61.6072 89.9003 61.6371C89.0172 61.6794 88.057 61.7911 87.4295 62.4108C87.0964 62.7628 86.8706 63.2015 86.7783 63.6761C86.6875 64.1482 86.6418 64.6277 86.6418 65.1083C86.2796 64.489 85.9746 63.8384 85.7304 63.1644C85.5295 62.6625 85.415 62.1305 85.3917 61.5908C85.3707 61.0465 85.5523 60.5135 85.9016 60.094C86.0789 59.8891 86.3103 59.7374 86.5696 59.6562C86.8289 59.575 87.1058 59.5675 87.3692 59.6345L87.2205 59.624Z" fill="#2F2E41"/>
<path d="M97.5605 71.7708C97.5298 71.6608 97.4671 71.5624 97.3804 71.4878C97.2936 71.4131 97.1867 71.3657 97.0729 71.3513C97.0654 71.3461 97.0575 71.3414 97.0493 71.3372L92.1661 68.6146C92.0266 68.5368 91.8624 68.5156 91.7076 68.5552C91.5528 68.5949 91.4194 68.6923 91.335 68.8274L89.9994 70.9787L87.9878 68.9774L87.9558 68.9456C87.8526 68.8429 87.7163 68.7796 87.5708 68.767C87.4254 68.7543 87.2801 68.7931 87.1605 68.8764L83.1472 71.6723C83.1402 71.6723 83.1331 71.6747 83.126 71.6747C82.934 71.7065 82.7585 71.8026 82.6288 71.9471C82.499 72.0915 82.4226 72.2756 82.4123 72.4691L82.3086 74.5524H98.3354L97.5605 71.7708Z" fill="#181F5E"/>
<path d="M106.505 74.2288H103.413C103.413 74.1429 103.379 74.0606 103.318 73.9998C103.257 73.9391 103.174 73.905 103.088 73.905H102.111C102.025 73.905 101.942 73.9391 101.881 73.9998C101.82 74.0606 101.786 74.1429 101.786 74.2288H100.809C100.809 74.1429 100.775 74.0606 100.714 73.9998C100.653 73.9391 100.57 73.905 100.484 73.905H99.5074C99.4211 73.905 99.3383 73.9391 99.2772 73.9998C99.2162 74.0606 99.1819 74.1429 99.1819 74.2288H98.2054C98.2054 74.1429 98.1712 74.0606 98.1101 73.9998C98.0491 73.9391 97.9663 73.905 97.88 73.905H96.9035C96.8172 73.905 96.7344 73.9391 96.6734 73.9998C96.6123 74.0606 96.578 74.1429 96.578 74.2288H95.6016C95.6016 74.1429 95.5673 74.0606 95.5062 73.9998C95.4452 73.9391 95.3624 73.905 95.2761 73.905H94.2996C94.2133 73.905 94.1305 73.9391 94.0695 73.9998C94.0084 74.0606 93.9741 74.1429 93.9741 74.2288H92.9977C92.9977 74.1429 92.9634 74.0606 92.9023 73.9998C92.8413 73.9391 92.7585 73.905 92.6722 73.905H91.6957C91.6094 73.905 91.5266 73.9391 91.4656 73.9998C91.4045 74.0606 91.3703 74.1429 91.3703 74.2288H90.3938C90.3938 74.1429 90.3595 74.0606 90.2985 73.9998C90.2374 73.9391 90.1546 73.905 90.0683 73.905H89.0918C89.0055 73.905 88.9227 73.9391 88.8617 73.9998C88.8007 74.0606 88.7663 74.1429 88.7663 74.2288H87.7899C87.7899 74.1429 87.7556 74.0606 87.6946 73.9998C87.6335 73.9391 87.5507 73.905 87.4644 73.905H86.488C86.4016 73.905 86.3188 73.9391 86.2578 73.9998C86.1968 74.0606 86.1625 74.1429 86.1625 74.2288H85.186C85.186 74.1429 85.1517 74.0606 85.0907 73.9998C85.0296 73.9391 84.9468 73.905 84.8605 73.905H83.8841C83.7977 73.905 83.7149 73.9391 83.6539 73.9998C83.5929 74.0606 83.5586 74.1429 83.5586 74.2288H82.5821C82.5821 74.1429 82.5478 74.0606 82.4868 73.9998C82.4257 73.9391 82.343 73.905 82.2566 73.905H81.2802C81.1939 73.905 81.1111 73.9391 81.05 73.9998C80.989 74.0606 80.9547 74.1429 80.9547 74.2288H79.9782C79.9782 74.1429 79.9439 74.0606 79.8829 73.9998C79.8219 73.9391 79.7391 73.905 79.6528 73.905H78.6763C78.59 73.905 78.5072 73.9391 78.4461 73.9998C78.3851 74.0606 78.3508 74.1429 78.3508 74.2288H77.3744C77.3743 74.1429 77.3401 74.0606 77.279 73.9998C77.218 73.9391 77.1352 73.905 77.0489 73.905H76.0724C75.9861 73.905 75.9033 73.9391 75.8422 73.9998C75.7812 74.0606 75.7469 74.1429 75.7469 74.2288H72.6548C72.3961 74.2292 72.1481 74.3317 71.9653 74.5139C71.7825 74.696 71.6799 74.9429 71.6799 75.2003C71.6799 75.4577 71.7825 75.7045 71.9653 75.8867C72.1481 76.0688 72.3961 76.1713 72.6548 76.1717H106.505C106.764 76.1717 107.013 76.0694 107.196 75.8872C107.379 75.705 107.482 75.4579 107.482 75.2003C107.482 74.9426 107.379 74.6955 107.196 74.5134C107.013 74.3312 106.764 74.2288 106.505 74.2288Z" fill="#3F3D56"/>
<path d="M67.6212 68.5873V75.0378H51.3772C50.942 75.0528 50.5082 74.9806 50.1017 74.8253C49.6951 74.67 49.3242 74.4348 49.011 74.1338C48.6977 73.8329 48.4486 73.4722 48.2785 73.0734C48.1083 72.6746 48.0206 72.2458 48.0206 71.8125C48.0206 71.3793 48.1083 70.9505 48.2785 70.5516C48.4486 70.1528 48.6977 69.7922 49.011 69.4912C49.3242 69.1902 49.6951 68.9551 50.1017 68.7998C50.5082 68.6445 50.942 68.5722 51.3772 68.5873H67.6212Z" fill="#F2F2F2"/>
<path d="M68.0202 74.9881C68.0202 75.0539 67.9939 75.117 67.9472 75.1635C67.9004 75.2101 67.837 75.2362 67.7708 75.2362H51.0879C50.1818 75.2362 49.3128 74.8781 48.6721 74.2407C48.0314 73.6033 47.6715 72.7388 47.6715 71.8373C47.6715 70.9359 48.0314 70.0714 48.6721 69.4339C49.3128 68.7965 50.1818 68.4384 51.0879 68.4384H67.7708C67.837 68.4384 67.9004 68.4646 67.9472 68.5111C67.9939 68.5576 68.0202 68.6207 68.0202 68.6865C68.0202 68.7523 67.9939 68.8154 67.9472 68.8619C67.9004 68.9085 67.837 68.9346 67.7708 68.9346H51.0879C50.3145 68.9353 49.5731 69.2414 49.0265 69.7857C48.4799 70.33 48.1729 71.0679 48.1729 71.8373C48.1729 72.6067 48.4799 73.3446 49.0265 73.8889C49.5731 74.4332 50.3145 74.7393 51.0879 74.74H67.7708C67.837 74.7401 67.9004 74.7662 67.9471 74.8127C67.9939 74.8592 68.0202 74.9223 68.0202 74.9881Z" fill="#6C63FF"/>
<path d="M67.6212 70.0758H50.1652C50.1586 70.0759 50.1521 70.0746 50.146 70.0721C50.1399 70.0697 50.1344 70.066 50.1297 70.0614C50.125 70.0568 50.1213 70.0513 50.1188 70.0453C50.1163 70.0392 50.115 70.0327 50.115 70.0262C50.115 70.0196 50.1163 70.0132 50.1188 70.0071C50.1213 70.0011 50.125 69.9956 50.1297 69.991C50.1344 69.9864 50.1399 69.9827 50.146 69.9802C50.1521 69.9778 50.1586 69.9765 50.1652 69.9766H67.6212C67.6344 69.9767 67.647 69.9819 67.6562 69.9912C67.6655 70.0005 67.6707 70.0131 67.6707 70.0262C67.6707 70.0393 67.6655 70.0519 67.6562 70.0612C67.647 70.0705 67.6344 70.0757 67.6212 70.0758Z" fill="#CCCCCC"/>
<path d="M67.6212 71.2667H50.1652C50.1586 71.2667 50.1521 71.2655 50.146 71.263C50.1399 71.2605 50.1344 71.2569 50.1297 71.2523C50.125 71.2476 50.1213 71.2422 50.1188 71.2361C50.1163 71.2301 50.115 71.2236 50.115 71.2171C50.115 71.2105 50.1163 71.204 50.1188 71.198C50.1213 71.1919 50.125 71.1865 50.1297 71.1819C50.1344 71.1772 50.1399 71.1736 50.146 71.1711C50.1521 71.1687 50.1586 71.1674 50.1652 71.1675H67.6212C67.6344 71.1675 67.647 71.1728 67.6562 71.1821C67.6655 71.1914 67.6707 71.204 67.6707 71.2171C67.6707 71.2302 67.6655 71.2427 67.6562 71.252C67.647 71.2613 67.6344 71.2666 67.6212 71.2667Z" fill="#CCCCCC"/>
<path d="M67.6212 72.4575H50.1652C50.1586 72.4576 50.1521 72.4563 50.146 72.4539C50.1399 72.4514 50.1344 72.4477 50.1297 72.4431C50.125 72.4385 50.1213 72.433 50.1188 72.427C50.1163 72.421 50.115 72.4145 50.115 72.4079C50.115 72.4014 50.1163 72.3949 50.1188 72.3889C50.1213 72.3828 50.125 72.3773 50.1297 72.3727C50.1344 72.3681 50.1399 72.3645 50.146 72.362C50.1521 72.3595 50.1586 72.3583 50.1652 72.3583H67.6212C67.6344 72.3584 67.647 72.3637 67.6562 72.373C67.6655 72.3823 67.6707 72.3948 67.6707 72.4079C67.6707 72.421 67.6655 72.4336 67.6562 72.4429C67.647 72.4522 67.6344 72.4575 67.6212 72.4575Z" fill="#CCCCCC"/>
<path d="M67.6212 73.6484H50.1652C50.1586 73.6484 50.1521 73.6472 50.146 73.6447C50.1399 73.6422 50.1344 73.6386 50.1297 73.634C50.125 73.6294 50.1213 73.6239 50.1188 73.6178C50.1163 73.6118 50.115 73.6053 50.115 73.5988C50.115 73.5922 50.1163 73.5857 50.1188 73.5797C50.1213 73.5736 50.125 73.5682 50.1297 73.5636C50.1344 73.5589 50.1399 73.5553 50.146 73.5528C50.1521 73.5503 50.1586 73.5491 50.1652 73.5491H67.6212C67.6344 73.5492 67.647 73.5545 67.6562 73.5638C67.6655 73.5731 67.6707 73.5857 67.6707 73.5988C67.6707 73.6119 67.6655 73.6244 67.6562 73.6337C67.647 73.643 67.6344 73.6483 67.6212 73.6484Z" fill="#CCCCCC"/>
<path d="M64.5591 61.7913V68.2418H48.3151C47.8799 68.2569 47.4461 68.1846 47.0395 68.0293C46.633 67.874 46.262 67.6388 45.9488 67.3379C45.6356 67.0369 45.3864 66.6762 45.2163 66.2774C45.0461 65.8786 44.9585 65.4498 44.9585 65.0166C44.9585 64.5833 45.0461 64.1545 45.2163 63.7557C45.3864 63.3569 45.6356 62.9962 45.9488 62.6953C46.262 62.3943 46.633 62.1591 47.0395 62.0038C47.4461 61.8485 47.8799 61.7763 48.3151 61.7913H64.5591Z" fill="#F2F2F2"/>
<path d="M64.9581 68.1921C64.9581 68.2579 64.9318 68.321 64.885 68.3675C64.8383 68.4141 64.7748 68.4402 64.7087 68.4402H48.0258C47.5771 68.4402 47.1329 68.3523 46.7184 68.1815C46.3039 68.0107 45.9273 67.7603 45.61 67.4447C45.2928 67.1291 45.0411 66.7544 44.8694 66.342C44.6977 65.9297 44.6094 65.4877 44.6094 65.0413C44.6094 64.595 44.6977 64.153 44.8694 63.7406C45.0411 63.3283 45.2928 62.9536 45.61 62.6379C45.9273 62.3223 46.3039 62.072 46.7184 61.9011C47.1329 61.7303 47.5771 61.6424 48.0258 61.6424H64.7087C64.7748 61.6424 64.8383 61.6686 64.885 61.7151C64.9318 61.7616 64.9581 61.8247 64.9581 61.8905C64.9581 61.9563 64.9318 62.0194 64.885 62.066C64.8383 62.1125 64.7748 62.1386 64.7087 62.1386H48.0258C47.2524 62.1393 46.511 62.4454 45.9644 62.9897C45.4178 63.534 45.1107 64.2719 45.1107 65.0413C45.1107 65.8107 45.4178 66.5486 45.9644 67.0929C46.511 67.6372 47.2524 67.9434 48.0258 67.944H64.7087C64.7748 67.9441 64.8383 67.9702 64.885 68.0167C64.9318 68.0633 64.9581 68.1263 64.9581 68.1921Z" fill="#3F3D56"/>
<path d="M64.5591 63.2799H47.1031C47.0965 63.2799 47.09 63.2786 47.0839 63.2762C47.0778 63.2737 47.0722 63.2701 47.0676 63.2654C47.0629 63.2608 47.0592 63.2554 47.0567 63.2493C47.0541 63.2433 47.0528 63.2368 47.0528 63.2302C47.0528 63.2237 47.0541 63.2172 47.0567 63.2112C47.0592 63.2051 47.0629 63.1997 47.0676 63.195C47.0722 63.1904 47.0778 63.1868 47.0839 63.1843C47.09 63.1818 47.0965 63.1806 47.1031 63.1806H64.5591C64.5722 63.1807 64.5848 63.186 64.5941 63.1953C64.6034 63.2046 64.6086 63.2172 64.6086 63.2302C64.6086 63.2433 64.6034 63.2559 64.5941 63.2652C64.5848 63.2745 64.5722 63.2798 64.5591 63.2799Z" fill="#CCCCCC"/>
<path d="M64.5591 64.4707H47.1031C47.0965 64.4708 47.09 64.4695 47.0839 64.467C47.0778 64.4646 47.0722 64.4609 47.0676 64.4563C47.0629 64.4517 47.0592 64.4462 47.0567 64.4402C47.0541 64.4341 47.0528 64.4277 47.0528 64.4211C47.0528 64.4146 47.0541 64.4081 47.0567 64.402C47.0592 64.396 47.0629 64.3905 47.0676 64.3859C47.0722 64.3813 47.0778 64.3776 47.0839 64.3752C47.09 64.3727 47.0965 64.3714 47.1031 64.3715H64.5591C64.5722 64.3716 64.5848 64.3768 64.5941 64.3861C64.6034 64.3954 64.6086 64.408 64.6086 64.4211C64.6086 64.4342 64.6034 64.4468 64.5941 64.4561C64.5848 64.4654 64.5722 64.4706 64.5591 64.4707Z" fill="#CCCCCC"/>
<path d="M64.5591 65.6616H47.1031C47.0965 65.6616 47.09 65.6604 47.0839 65.6579C47.0778 65.6554 47.0722 65.6518 47.0676 65.6472C47.0629 65.6425 47.0592 65.6371 47.0567 65.631C47.0541 65.625 47.0528 65.6185 47.0528 65.612C47.0528 65.6054 47.0541 65.5989 47.0567 65.5929C47.0592 65.5869 47.0629 65.5814 47.0676 65.5768C47.0722 65.5721 47.0778 65.5685 47.0839 65.566C47.09 65.5636 47.0965 65.5623 47.1031 65.5623H64.5591C64.5722 65.5624 64.5848 65.5677 64.5941 65.577C64.6034 65.5863 64.6086 65.5989 64.6086 65.612C64.6086 65.6251 64.6034 65.6376 64.5941 65.6469C64.5848 65.6562 64.5722 65.6615 64.5591 65.6616Z" fill="#CCCCCC"/>
<path d="M64.5591 66.8524H47.1031C47.0965 66.8525 47.09 66.8512 47.0839 66.8487C47.0778 66.8463 47.0722 66.8426 47.0676 66.838C47.0629 66.8334 47.0592 66.8279 47.0567 66.8219C47.0541 66.8158 47.0528 66.8093 47.0528 66.8028C47.0528 66.7963 47.0541 66.7898 47.0567 66.7837C47.0592 66.7777 47.0629 66.7722 47.0676 66.7676C47.0722 66.763 47.0778 66.7593 47.0839 66.7569C47.09 66.7544 47.0965 66.7531 47.1031 66.7532H64.5591C64.5722 66.7533 64.5848 66.7585 64.5941 66.7678C64.6034 66.7771 64.6086 66.7897 64.6086 66.8028C64.6086 66.8159 64.6034 66.8285 64.5941 66.8378C64.5848 66.8471 64.5722 66.8523 64.5591 66.8524Z" fill="#CCCCCC"/>
<path d="M83.4558 97.9657V92.3414C83.4558 92.0928 83.3565 91.8544 83.1798 91.6786C83.0031 91.5028 82.7635 91.4041 82.5136 91.4041H61.0786C60.8288 91.4041 60.5891 91.5028 60.4124 91.6786C60.2357 91.8544 60.1364 92.0928 60.1364 92.3414V97.9657H83.4558Z" fill="#CCCCCC"/>
<path d="M83.4558 100.075H60.1364V107.339H83.4558V100.075Z" fill="#CCCCCC"/>
<path d="M60.1364 109.448V115.073C60.1364 115.321 60.2357 115.56 60.4124 115.736C60.5891 115.911 60.8288 116.01 61.0786 116.01H82.5136C82.7635 116.01 83.0031 115.911 83.1798 115.736C83.3565 115.56 83.4558 115.321 83.4558 115.073V109.448H60.1364Z" fill="#CCCCCC"/>
<path d="M71.6784 95.6222C72.0686 95.6222 72.385 95.3075 72.385 94.9192C72.385 94.5309 72.0686 94.2162 71.6784 94.2162C71.2881 94.2162 70.9717 94.5309 70.9717 94.9192C70.9717 95.3075 71.2881 95.6222 71.6784 95.6222Z" fill="white"/>
<path d="M71.6784 104.996C72.0686 104.996 72.385 104.681 72.385 104.293C72.385 103.905 72.0686 103.59 71.6784 103.59C71.2881 103.59 70.9717 103.905 70.9717 104.293C70.9717 104.681 71.2881 104.996 71.6784 104.996Z" fill="white"/>
<path d="M71.7162 114.171C72.1065 114.171 72.4229 113.857 72.4229 113.468C72.4229 113.08 72.1065 112.765 71.7162 112.765C71.3259 112.765 71.0096 113.08 71.0096 113.468C71.0096 113.857 71.3259 114.171 71.7162 114.171Z" fill="white"/>
<path d="M80.812 84.9913V91.4418H64.568C64.1328 91.4568 63.699 91.3846 63.2924 91.2293C62.8859 91.074 62.5149 90.8388 62.2017 90.5378C61.8885 90.2369 61.6394 89.8762 61.4692 89.4774C61.2991 89.0786 61.2114 88.6498 61.2114 88.2165C61.2114 87.7833 61.2991 87.3545 61.4692 86.9557C61.6394 86.5569 61.8885 86.1962 62.2017 85.8952C62.5149 85.5943 62.8859 85.3591 63.2924 85.2038C63.699 85.0485 64.1328 84.9762 64.568 84.9913H80.812Z" fill="#F2F2F2"/>
<path d="M81.211 91.3921C81.211 91.4579 81.1847 91.521 81.1379 91.5676C81.0912 91.6141 81.0277 91.6402 80.9616 91.6403H64.2787C63.8298 91.6406 63.3852 91.553 62.9704 91.3823C62.5556 91.2117 62.1786 90.9614 61.8611 90.6457C61.5435 90.3301 61.2916 89.9553 61.1198 89.5427C60.9479 89.1302 60.8594 88.6879 60.8594 88.2414C60.8594 87.7948 60.9479 87.3526 61.1198 86.94C61.2916 86.5275 61.5435 86.1526 61.8611 85.837C62.1786 85.5213 62.5556 85.271 62.9704 85.1004C63.3852 84.9297 63.8298 84.8421 64.2787 84.8425H80.9616C81.0277 84.8425 81.0912 84.8686 81.1379 84.9151C81.1847 84.9617 81.211 85.0248 81.211 85.0906C81.211 85.1564 81.1847 85.2195 81.1379 85.266C81.0912 85.3125 81.0277 85.3387 80.9616 85.3387H64.2787C63.5053 85.3394 62.7639 85.6455 62.2173 86.1898C61.6707 86.734 61.3636 87.472 61.3636 88.2414C61.3636 89.0107 61.6707 89.7487 62.2173 90.293C62.7639 90.8372 63.5053 91.1434 64.2787 91.1441H80.9616C81.0277 91.1441 81.0911 91.1702 81.1379 91.2167C81.1847 91.2633 81.211 91.3264 81.211 91.3921Z" fill="#3F3D56"/>
<path d="M80.812 86.4798H63.356C63.3494 86.4799 63.3429 86.4786 63.3368 86.4762C63.3307 86.4737 63.3251 86.47 63.3205 86.4654C63.3158 86.4608 63.3121 86.4553 63.3096 86.4493C63.3071 86.4432 63.3058 86.4368 63.3058 86.4302C63.3058 86.4237 63.3071 86.4172 63.3096 86.4112C63.3121 86.4051 63.3158 86.3996 63.3205 86.395C63.3251 86.3904 63.3307 86.3868 63.3368 86.3843C63.3429 86.3818 63.3494 86.3806 63.356 86.3806H80.812C80.8251 86.3807 80.8377 86.386 80.847 86.3953C80.8563 86.4046 80.8615 86.4171 80.8615 86.4302C80.8615 86.4433 80.8563 86.4559 80.847 86.4652C80.8377 86.4745 80.8251 86.4797 80.812 86.4798Z" fill="#CCCCCC"/>
<path d="M80.812 87.6707H63.356C63.3494 87.6708 63.3429 87.6695 63.3368 87.6671C63.3307 87.6646 63.3251 87.6609 63.3205 87.6563C63.3158 87.6517 63.3121 87.6462 63.3096 87.6402C63.3071 87.6341 63.3058 87.6277 63.3058 87.6211C63.3058 87.6146 63.3071 87.6081 63.3096 87.6021C63.3121 87.596 63.3158 87.5905 63.3205 87.5859C63.3251 87.5813 63.3307 87.5777 63.3368 87.5752C63.3429 87.5727 63.3494 87.5715 63.356 87.5715H80.812C80.8251 87.5716 80.8377 87.5769 80.847 87.5862C80.8563 87.5954 80.8615 87.608 80.8615 87.6211C80.8615 87.6342 80.8563 87.6468 80.847 87.6561C80.8377 87.6654 80.8251 87.6707 80.812 87.6707Z" fill="#CCCCCC"/>
<path d="M80.812 88.8616H63.356C63.3494 88.8616 63.3429 88.8604 63.3368 88.8579C63.3307 88.8554 63.3251 88.8518 63.3205 88.8472C63.3158 88.8426 63.3121 88.8371 63.3096 88.831C63.3071 88.825 63.3058 88.8185 63.3058 88.812C63.3058 88.8054 63.3071 88.7989 63.3096 88.7929C63.3121 88.7869 63.3158 88.7814 63.3205 88.7768C63.3251 88.7722 63.3307 88.7685 63.3368 88.766C63.3429 88.7636 63.3494 88.7623 63.356 88.7624H80.812C80.8251 88.7625 80.8377 88.7677 80.847 88.777C80.8563 88.7863 80.8615 88.7989 80.8615 88.812C80.8615 88.8251 80.8563 88.8376 80.847 88.8469C80.8377 88.8562 80.8251 88.8615 80.812 88.8616Z" fill="#CCCCCC"/>
<path d="M80.812 90.0524H63.356C63.3494 90.0525 63.3429 90.0512 63.3368 90.0488C63.3307 90.0463 63.3251 90.0426 63.3205 90.038C63.3158 90.0334 63.3121 90.0279 63.3096 90.0219C63.3071 90.0158 63.3058 90.0094 63.3058 90.0028C63.3058 89.9963 63.3071 89.9898 63.3096 89.9837C63.3121 89.9777 63.3158 89.9722 63.3205 89.9676C63.3251 89.963 63.3307 89.9593 63.3368 89.9569C63.3429 89.9544 63.3494 89.9531 63.356 89.9532H80.812C80.8251 89.9533 80.8377 89.9586 80.847 89.9678C80.8563 89.9771 80.8615 89.9897 80.8615 90.0028C80.8615 90.0159 80.8563 90.0285 80.847 90.0378C80.8377 90.0471 80.8251 90.0523 80.812 90.0524Z" fill="#CCCCCC"/>
<path d="M58.9133 42.8899V1.7626C58.9138 1.29529 59.1006 0.847278 59.4328 0.516842C59.7649 0.186406 60.2152 0.000531547 60.6849 0H93.3623C93.832 0.000534642 94.2823 0.18641 94.6145 0.516846C94.9466 0.847281 95.1334 1.29529 95.134 1.7626V42.8899C95.1334 43.3572 94.9466 43.8052 94.6145 44.1356C94.2823 44.4661 93.832 44.6519 93.3623 44.6525H60.6849C60.2152 44.6519 59.7649 44.4661 59.4328 44.1356C59.1006 43.8052 58.9138 43.3572 58.9133 42.8899ZM60.6849 0.391689C60.3196 0.392096 59.9694 0.536663 59.711 0.79367C59.4527 1.05068 59.3074 1.39914 59.307 1.7626V42.8899C59.3074 43.2533 59.4527 43.6018 59.711 43.8588C59.9694 44.1158 60.3196 44.2604 60.6849 44.2608H93.3623C93.7277 44.2604 94.0779 44.1158 94.3362 43.8588C94.5946 43.6018 94.7399 43.2533 94.7403 42.8899V1.7626C94.7399 1.39914 94.5946 1.05068 94.3362 0.79367C94.0779 0.536663 93.7277 0.392097 93.3623 0.391689H60.6849Z" fill="#E6E6E6"/>
<path d="M78.8561 18.8876V10.4428C78.8563 10.2092 78.9497 9.98516 79.1158 9.81994C79.2819 9.65472 79.507 9.56178 79.7419 9.56152H86.9349C87.1697 9.56178 87.3949 9.65472 87.561 9.81994C87.727 9.98516 87.8204 10.2092 87.8207 10.4428V18.8876C87.8204 19.1212 87.727 19.3452 87.561 19.5104C87.3949 19.6757 87.1697 19.7686 86.9349 19.7689H79.7419C79.507 19.7686 79.2819 19.6757 79.1158 19.5104C78.9497 19.3452 78.8563 19.1212 78.8561 18.8876Z" fill="#181F5E"/>
<path d="M64.8796 22.8044V14.3597C64.8799 14.1261 64.9733 13.9021 65.1393 13.7368C65.3054 13.5716 65.5306 13.4787 65.7654 13.4784H72.9584C73.1933 13.4787 73.4184 13.5716 73.5845 13.7368C73.7506 13.9021 73.844 14.1261 73.8442 14.3597V22.8045C73.844 23.0381 73.7506 23.2621 73.5845 23.4273C73.4184 23.5926 73.1933 23.6855 72.9584 23.6857H65.7654C65.5306 23.6855 65.3054 23.5926 65.1393 23.4273C64.9733 23.2621 64.8799 23.0381 64.8796 22.8044Z" fill="#CCCCCC"/>
<path d="M76.1002 34.751V26.3062C76.1004 26.0726 76.1938 25.8486 76.3599 25.6833C76.526 25.5181 76.7511 25.4252 76.986 25.4249H84.1789C84.4138 25.4252 84.639 25.5181 84.805 25.6833C84.9711 25.8486 85.0645 26.0726 85.0648 26.3062V34.751C85.0645 34.9846 84.9711 35.2086 84.805 35.3738C84.639 35.5391 84.4138 35.632 84.1789 35.6323H76.986C76.7511 35.632 76.526 35.5391 76.3599 35.3738C76.1938 35.2086 76.1004 34.9846 76.1002 34.751Z" fill="#FF6584"/>
<path d="M119.085 73.3596H111.684C111.614 73.3596 111.544 73.3756 111.481 73.4065L109.613 74.3368C109.552 74.3628 109.5 74.4062 109.463 74.4617C109.426 74.5171 109.406 74.5821 109.406 74.6485C109.406 74.715 109.426 74.78 109.463 74.8354C109.5 74.8908 109.552 74.9342 109.613 74.9602L111.481 75.8905C111.544 75.9214 111.614 75.9375 111.684 75.9374H119.085C119.187 75.9433 119.287 75.909 119.364 75.8418C119.441 75.7747 119.488 75.6802 119.495 75.5789V73.7182C119.488 73.6168 119.441 73.5223 119.364 73.4552C119.287 73.3881 119.187 73.3538 119.085 73.3596Z" fill="#3F3D56"/>
<path d="M119.495 73.7182V75.5788C119.488 75.6802 119.441 75.7747 119.364 75.8418C119.287 75.9089 119.187 75.9433 119.085 75.9374H117.61V73.3596H119.085C119.187 73.3537 119.287 73.3881 119.364 73.4552C119.441 73.5223 119.488 73.6168 119.495 73.7182Z" fill="#6C63FF"/>
<path d="M119.029 59.4396C119.364 59.2957 119.726 59.2238 120.092 59.2288C120.457 59.2338 120.817 59.3154 121.148 59.4684C121.479 59.6214 121.774 59.8422 122.013 60.1165C122.253 60.3908 122.431 60.7123 122.537 61.06C122.57 61.1702 122.595 61.2826 122.612 61.3963L132.962 66.5022L135.357 64.923L138.337 68.3363L134.68 71.2914C134.24 71.644 133.698 71.8461 133.133 71.8677C132.569 71.8894 132.012 71.7294 131.547 71.4116L121.046 64.1872C120.968 64.2202 120.888 64.2491 120.807 64.2739C120.458 64.3791 120.09 64.4096 119.727 64.3634C119.365 64.3173 119.017 64.1955 118.705 64.0061C118.394 63.8167 118.126 63.5639 117.919 63.2643C117.713 62.9648 117.572 62.6252 117.507 62.2678C117.488 62.164 117.475 62.0592 117.469 61.9539C117.439 61.4264 117.573 60.9026 117.852 60.4531C118.131 60.0036 118.542 59.6499 119.029 59.4396Z" fill="#FFB8B8"/>
<path d="M140.585 90.8765H129.277C129.277 91.1999 117.622 91.4623 117.622 91.4623C117.439 91.5994 117.272 91.7566 117.125 91.931C116.682 92.4563 116.44 93.1203 116.442 93.8058V94.2744C116.442 95.0513 116.752 95.7962 117.304 96.3455C117.856 96.8947 118.605 97.2034 119.386 97.2037H140.585C141.366 97.2031 142.115 96.8942 142.667 96.345C143.219 95.7958 143.529 95.0511 143.53 94.2744V93.8058C143.529 93.0292 143.218 92.2847 142.666 91.7356C142.114 91.1865 141.366 90.8775 140.585 90.8765Z" fill="#3F3D56"/>
<path d="M128.284 116.772H131.346V97.0874H128.284V116.772Z" fill="#3F3D56"/>
<path d="M119.569 116.665C119.569 116.994 124.209 116.793 129.933 116.793C135.657 116.793 140.297 116.994 140.297 116.665C140.297 116.336 135.657 113.726 129.933 113.726C124.209 113.726 119.569 116.336 119.569 116.665Z" fill="#3F3D56"/>
<path d="M122.333 114.358L119.446 114.358L118.072 106.906L122.334 106.907L122.333 114.358Z" fill="#FFB8B8"/>
<path d="M123.07 117.143L113.758 117.143V117.025C113.758 116.552 113.852 116.083 114.034 115.645C114.216 115.208 114.483 114.811 114.82 114.476C115.156 114.141 115.556 113.875 115.996 113.694C116.435 113.513 116.907 113.42 117.383 113.42H117.383L123.07 113.42L123.07 117.143Z" fill="#2F2E41"/>
<path d="M118.014 109.737L112.257 96.8934C111.776 95.8109 111.723 94.5879 112.108 93.4682C112.493 92.3484 113.288 91.414 114.334 90.851L126.821 84.1892L132.52 83.707L137.776 83.2317L137.814 83.2955C137.862 83.377 138.992 85.319 138.228 87.4485C137.649 89.0637 136.142 90.3254 133.749 91.1984C128.163 93.2361 121.71 94.9777 119.195 95.6317C119.084 95.66 118.98 95.7114 118.89 95.7825C118.8 95.8535 118.727 95.9427 118.674 96.0441C118.621 96.1444 118.59 96.2544 118.582 96.3673C118.574 96.4801 118.59 96.5934 118.628 96.7L123.976 108.655C124.032 108.807 124.052 108.969 124.035 109.13C124.018 109.29 123.964 109.445 123.877 109.581C123.79 109.718 123.673 109.833 123.535 109.917C123.397 110.001 123.241 110.053 123.079 110.068L119.083 110.357C119.049 110.361 119.015 110.362 118.981 110.362C118.777 110.362 118.576 110.303 118.405 110.192C118.233 110.081 118.097 109.923 118.014 109.737Z" fill="#2F2E41"/>
<path d="M123.746 114.358L120.859 114.358L119.485 106.906L123.747 106.907L123.746 114.358Z" fill="#FFB8B8"/>
<path d="M124.483 117.143L115.172 117.143V117.025C115.172 116.552 115.265 116.083 115.447 115.645C115.63 115.208 115.897 114.811 116.233 114.476C116.57 114.141 116.969 113.875 117.409 113.694C117.849 113.513 118.32 113.42 118.796 113.42H118.796L124.483 113.42L124.483 117.143Z" fill="#2F2E41"/>
<path d="M119.663 110.44L113.906 97.5964C113.425 96.5139 113.372 95.291 113.757 94.1712C114.142 93.0514 114.937 92.117 115.983 91.5541L128.47 84.8922L134.169 84.41L139.425 83.9347L139.463 83.9985C139.511 84.08 140.641 86.022 139.877 88.1515C139.298 89.7667 137.791 91.0284 135.397 91.9015C129.812 93.9391 123.359 95.6807 120.844 96.3348C120.733 96.3631 120.629 96.4144 120.539 96.4855C120.449 96.5566 120.376 96.6457 120.323 96.7472C120.27 96.8474 120.239 96.9574 120.231 97.0703C120.223 97.1832 120.238 97.2965 120.277 97.4031L125.625 109.358C125.681 109.51 125.701 109.672 125.684 109.833C125.667 109.993 125.613 110.148 125.526 110.284C125.439 110.421 125.322 110.536 125.184 110.62C125.046 110.704 124.89 110.756 124.728 110.771L120.731 111.06C120.697 111.064 120.664 111.065 120.63 111.065C120.425 111.065 120.225 111.006 120.053 110.895C119.882 110.784 119.746 110.626 119.663 110.44Z" fill="#2F2E41"/>
<path d="M116.793 71.2039C114.374 68.0025 112.462 64.4516 111.122 60.6745C111.045 60.4485 111.05 60.2025 111.138 59.9803C111.226 59.758 111.39 59.5739 111.601 59.4607L119.879 55.0476C120.013 54.9757 120.162 54.9351 120.314 54.929C120.466 54.9228 120.618 54.9513 120.757 55.0122C120.899 55.0736 121.025 55.1663 121.125 55.2834C121.226 55.4006 121.298 55.5389 121.337 55.6881C122.3 59.3278 124.112 62.6907 126.624 65.5049C126.727 65.6194 126.803 65.7559 126.845 65.904C126.888 66.0521 126.896 66.2079 126.868 66.3594C126.842 66.5086 126.782 66.6498 126.693 66.7724C126.603 66.8949 126.487 66.9956 126.353 67.0667L118.074 71.4798C117.862 71.5921 117.618 71.626 117.383 71.5755C117.148 71.525 116.94 71.3933 116.793 71.2039Z" fill="#CCCCCC"/>
<path d="M117.358 70.7816C117.403 70.8369 117.465 70.875 117.535 70.8893C117.605 70.9037 117.677 70.8933 117.74 70.8601L126.019 66.447C126.059 66.4261 126.094 66.3963 126.121 66.3598C126.147 66.3233 126.165 66.2812 126.173 66.2368C126.181 66.1898 126.179 66.1415 126.166 66.0956C126.152 66.0498 126.128 66.0076 126.096 65.9724C123.51 63.0754 121.645 59.6133 120.653 55.8664C120.642 55.8201 120.62 55.777 120.589 55.7407C120.558 55.7043 120.519 55.6755 120.475 55.6566C120.433 55.6382 120.388 55.6295 120.343 55.6314C120.297 55.6333 120.253 55.6456 120.213 55.6674L111.935 60.0804C111.872 60.1141 111.823 60.1686 111.797 60.2343C111.77 60.3001 111.767 60.3731 111.789 60.4406C113.104 64.1501 114.982 67.6375 117.358 70.7816Z" fill="white"/>
<path d="M144.296 70.0267L137.812 72.4778L136.229 68.1034C136.019 67.5225 136.022 66.8865 136.238 66.3076C136.453 65.7287 136.868 65.2442 137.408 64.9399C137.954 64.632 138.592 64.5285 139.209 64.6482C139.825 64.7679 140.377 65.1028 140.767 65.5924L144.296 70.0267Z" fill="#6C63FF"/>
<path d="M127.805 87.3588C127.668 87.2628 127.554 87.1389 127.469 86.9955C127.385 86.8522 127.332 86.6925 127.314 86.5271C126.484 78.815 127.062 72.7796 129.082 68.0761C129.438 67.2649 129.974 66.5445 130.65 65.9689C131.326 65.3934 132.124 64.9777 132.984 64.7532L138.225 64.4901L138.252 64.5031C139.435 65.0794 140.4 66.0195 141.003 67.1841C141.606 68.3486 141.816 69.6756 141.602 70.9683C139.916 75.3887 138.505 79.9912 139.581 83.7039C139.626 83.8592 139.639 84.0218 139.62 84.1822C139.6 84.3426 139.548 84.4975 139.467 84.6374C139.388 84.7727 139.283 84.8905 139.156 84.9835C139.03 85.0766 138.886 85.143 138.733 85.1785L128.751 87.541C128.589 87.5792 128.421 87.5828 128.258 87.5514C128.095 87.5199 127.94 87.4543 127.805 87.3588Z" fill="#181F5E"/>
<path d="M136.476 62.5426C139.671 62.5426 142.262 59.9657 142.262 56.7869C142.262 53.6081 139.671 51.0312 136.476 51.0312C133.281 51.0312 130.691 53.6081 130.691 56.7869C130.691 59.9657 133.281 62.5426 136.476 62.5426Z" fill="#FFB8B8"/>
<path d="M120.423 61.3456L115.914 63.3257C115.743 63.4008 115.548 63.4051 115.374 63.3377C115.199 63.2704 115.058 63.1369 114.982 62.9664L114.871 62.7151C114.795 62.5445 114.791 62.3511 114.859 62.1773C114.926 62.0035 115.061 61.8635 115.232 61.788L119.741 59.8079C119.912 59.7328 120.107 59.7285 120.281 59.7958C120.456 59.8632 120.597 59.9967 120.672 60.1672L120.784 60.4185C120.859 60.5891 120.864 60.7825 120.796 60.9563C120.728 61.1301 120.594 61.2701 120.423 61.3456Z" fill="#CCCCCC"/>
<path d="M122.072 64.392L117.563 66.3721C117.392 66.4472 117.197 66.4515 117.022 66.3842C116.848 66.3168 116.707 66.1833 116.631 66.0129L116.52 65.7615C116.444 65.5909 116.44 65.3975 116.508 65.2237C116.575 65.0499 116.709 64.9099 116.881 64.8345L121.39 62.8544C121.561 62.7793 121.755 62.7749 121.93 62.8423C122.105 62.9096 122.245 63.0432 122.321 63.2136L122.433 63.465C122.508 63.6356 122.513 63.829 122.445 64.0028C122.377 64.1766 122.243 64.3166 122.072 64.392Z" fill="#CCCCCC"/>
<path d="M125.549 76.2913L115.497 68.4019C115.417 68.4299 115.335 68.4538 115.253 68.4735C114.898 68.5561 114.53 68.5635 114.172 68.4952C113.814 68.4269 113.475 68.2845 113.176 68.0772C112.875 67.8697 112.622 67.6007 112.434 67.2882C112.246 66.9756 112.128 66.6268 112.086 66.2649C112.019 65.6864 112.15 65.1022 112.458 64.6072C112.766 64.1121 113.234 63.7352 113.784 63.5376C114.128 63.4149 114.494 63.3659 114.858 63.3937C115.222 63.4215 115.576 63.5255 115.897 63.6989C116.217 63.8723 116.498 64.1112 116.719 64.3999C116.941 64.6886 117.099 65.0206 117.182 65.3742C117.208 65.4863 117.226 65.6 117.236 65.7145L127.243 71.4576L129.733 70.0313L132.491 73.6243L128.625 76.3659C128.172 76.6842 127.629 76.8489 127.075 76.8355C126.52 76.822 125.985 76.6312 125.549 76.2913Z" fill="#FFB8B8"/>
<path d="M133.718 74.7432L127.983 70.8631L130.678 67.0651C131.036 66.5608 131.561 66.1986 132.162 66.0425C132.762 65.8864 133.399 65.9465 133.959 66.2121C134.526 66.4808 134.977 66.9423 135.232 67.5131C135.486 68.0839 135.527 68.7265 135.347 69.3248L133.718 74.7432Z" fill="#6C63FF"/>
<path d="M134.355 55.9296C132.868 56.9421 130.916 57.9828 129.397 56.9046C128.4 56.1967 128.086 54.8857 128.49 53.7352C129.217 51.6662 131.215 50.7554 133.126 50.0572C135.61 49.1496 138.314 48.4276 140.878 49.0776C143.442 49.7276 145.708 52.1974 145.245 54.7892C144.873 56.8735 142.897 58.6078 143.177 60.7063C143.46 62.8182 145.847 63.9299 147.955 64.3073C150.062 64.6848 152.421 64.8061 153.935 66.3122C155.868 68.2335 155.385 71.6677 153.567 73.6963C151.749 75.7248 149.005 76.6443 146.347 77.2694C142.824 78.0976 139.014 78.5329 135.669 77.1584C132.323 75.7839 129.72 72.0838 130.689 68.6143C131.098 67.1487 132.062 65.9102 132.994 64.7044C133.926 63.4986 134.87 62.2377 135.226 60.7583C135.522 59.5255 135.303 58.0941 134.481 57.1694C134.331 57.0075 134.237 56.8027 134.212 56.5843C134.187 56.3659 134.232 56.1453 134.341 55.9539L134.355 55.9296Z" fill="#2F2E41"/>
<path d="M25.6919 83.8946C24.2011 84.416 22.6005 84.5465 21.0443 84.2738C19.4881 84.0011 18.0287 83.3342 16.8067 82.3375C13.6946 79.7388 12.7189 75.4575 11.925 71.4932C11.1422 67.5847 10.3595 63.6762 9.57672 59.7677L14.493 63.1356C18.0285 65.5575 21.6437 68.0571 24.0917 71.5651C26.5396 75.0732 27.6082 79.8621 25.6413 83.658" fill="#E6E6E6"/>
<path d="M25.2716 98.0908C25.7692 94.4848 26.2808 90.8326 25.9318 87.188C25.6218 83.9512 24.6292 80.7897 22.6085 78.1976C21.5359 76.8242 20.2307 75.6476 18.7516 74.7205C18.366 74.4783 18.011 75.0864 18.395 75.3275C20.9542 76.9367 22.9336 79.3128 24.0479 82.1133C25.2786 85.2276 25.4762 88.6224 25.2642 91.9307C25.1359 93.9314 24.8641 95.9189 24.5902 97.9039C24.5686 97.9936 24.5821 98.0882 24.6279 98.1685C24.6737 98.2488 24.7484 98.3087 24.837 98.3363C24.9273 98.3605 25.0236 98.3483 25.105 98.3023C25.1863 98.2564 25.2462 98.1804 25.2716 98.0908H25.2716Z" fill="#F2F2F2"/>
<path d="M20.4789 91.71C19.8395 92.6768 18.9607 93.4634 17.927 93.9942C16.8934 94.5249 15.7397 94.7819 14.5773 94.7404C11.5898 94.5993 9.09913 92.5248 6.8571 90.5554L0.225616 84.7303L4.61456 84.5213C7.77083 84.3711 11.0085 84.2309 14.0148 85.1992C17.021 86.1676 19.7935 88.4981 20.3432 91.5938" fill="#E6E6E6"/>
<path d="M26.6779 100.164C24.2829 95.9476 21.5049 91.2619 16.5411 89.7642C15.1609 89.3492 13.7137 89.2006 12.2774 89.3262C11.8247 89.3651 11.9377 90.0593 12.3896 90.0205C14.7971 89.8217 17.2 90.4541 19.1938 91.8115C21.1123 93.1107 22.6061 94.9169 23.8704 96.8323C24.6448 98.0056 25.3385 99.2286 26.0323 100.45C26.2541 100.84 26.9022 100.559 26.6779 100.164Z" fill="#F2F2F2"/>
<path d="M30.5153 104.601C30.4346 103.671 30.0989 102.781 29.5447 102.027C28.9906 101.274 28.2392 100.686 27.3724 100.328V97.8904H23.2633V100.405C22.4392 100.78 21.73 101.367 21.2079 102.104C20.6859 102.841 20.3697 103.703 20.2916 104.601L19.3253 115.776H31.4815L30.5153 104.601Z" fill="#F2F2F2"/>
</g>
<defs>
<clipPath id="clip0_41:7">
<rect width="163" height="117.143" fill="white"/>
</clipPath>
</defs>
</svg>
