<svg width="174" height="105" viewBox="0 0 174 105" fill="none" xmlns="http://www.w3.org/2000/svg">
<g clip-path="url(#clip0_41:72)">
<path d="M120.383 92.4589L118.358 96.2209L119.537 91.3234C117.046 88.2528 113.598 86.0065 113.598 86.0065C113.598 86.0065 109.351 94.2511 110.494 99.3226C111.637 104.394 114.588 105.362 117.737 104.372C120.885 103.382 123.038 100.809 121.895 95.737C121.641 94.6082 121.088 93.5 120.383 92.4589Z" fill="#F2F2F2"/>
<path d="M117.703 96.5959L117.759 96.8459C118.402 99.7556 118.498 102.153 118.044 104.006C118.037 104.033 118.03 104.059 118.024 104.086L117.918 104.049L117.816 104.012C118.331 102.004 118.101 99.4671 117.541 96.929C117.524 96.847 117.506 96.7638 117.487 96.6812C117.242 95.6092 116.942 94.5414 116.615 93.515C116.59 93.4353 116.564 93.3547 116.538 93.2741C116.101 91.9219 115.624 90.6488 115.181 89.5515C115.15 89.4738 115.118 89.3964 115.086 89.3203C114.331 87.4666 113.69 86.1532 113.547 85.8632C113.529 85.8275 113.519 85.8081 113.517 85.8034L113.609 85.7387L113.61 85.7372L113.703 85.6721C113.705 85.6767 113.739 85.7417 113.798 85.8636C114.02 86.3184 114.612 87.5572 115.293 89.2221C115.323 89.2974 115.355 89.3748 115.386 89.4525C115.746 90.3425 116.128 91.3437 116.491 92.4064C116.582 92.6731 116.67 92.9372 116.753 93.1984C116.781 93.2787 116.807 93.3593 116.831 93.439C117.184 94.5485 117.475 95.6008 117.703 96.5959Z" fill="white"/>
<path d="M115.293 89.2221C115.225 89.2554 115.157 89.2889 115.086 89.3203C114.895 89.4059 114.701 89.4799 114.503 89.542C113.663 89.8078 112.782 89.8474 111.927 89.6579C111.898 89.7373 111.868 89.8167 111.838 89.8977C112.741 90.107 113.671 90.07 114.559 89.7895C114.77 89.7232 114.977 89.6438 115.181 89.5516C115.25 89.5205 115.319 89.4869 115.386 89.4525C115.944 89.1721 116.462 88.7934 116.923 88.3293C116.862 88.2754 116.803 88.2224 116.745 88.1703C116.308 88.6035 115.818 88.9579 115.293 89.2221Z" fill="white"/>
<path d="M116.753 93.1984C116.682 93.2261 116.611 93.2513 116.538 93.2741C116.517 93.2822 116.493 93.2895 116.471 93.2964C115.56 93.583 114.604 93.605 113.684 93.3607C112.764 93.1163 111.907 92.6127 111.188 91.8928C111.162 91.979 111.137 92.0652 111.113 92.1523C111.857 92.8757 112.736 93.3792 113.677 93.6212C114.619 93.8632 115.596 93.8367 116.527 93.5439C116.557 93.5347 116.586 93.5254 116.615 93.515C116.688 93.4907 116.76 93.4655 116.831 93.439C117.934 93.0196 118.912 92.2336 119.647 91.1751C119.597 91.1126 119.547 91.0502 119.496 90.988C118.784 92.0244 117.83 92.7926 116.753 93.1984Z" fill="white"/>
<path d="M117.703 96.5959C117.631 96.6264 117.559 96.6544 117.487 96.6812C117.409 96.7096 117.331 96.7368 117.252 96.7615C116.027 97.1449 114.73 97.0494 113.555 96.4891C112.38 95.9288 111.39 94.934 110.734 93.6536C110.709 93.7687 110.685 93.8825 110.662 93.9969C111.361 95.2604 112.38 96.2315 113.573 96.7722C114.766 97.313 116.073 97.3958 117.308 97.009C117.387 96.9843 117.465 96.9583 117.541 96.929C117.615 96.9031 117.688 96.8751 117.759 96.8459C119.21 96.2432 120.412 95.0119 121.123 93.4013C121.08 93.3167 121.035 93.2342 120.989 93.1506C120.315 94.7601 119.136 95.9959 117.703 96.5959Z" fill="white"/>
<path d="M109.947 6.7868L107.921 10.5488L109.101 5.65135C106.61 2.58069 103.161 0.334381 103.161 0.334381C103.161 0.334381 98.9146 8.57897 100.058 13.6505C101.2 18.722 104.152 19.6902 107.3 18.7C110.448 17.7099 112.602 15.1365 111.459 10.0649C111.204 8.93612 110.652 7.82792 109.947 6.7868Z" fill="#F2F2F2"/>
<path d="M107.267 10.9238L107.323 11.1738C107.965 14.0835 108.061 16.4811 107.607 18.3336C107.601 18.3607 107.593 18.3869 107.587 18.4141L107.481 18.3772L107.38 18.3401C107.894 16.3322 107.665 13.795 107.105 11.2569C107.088 11.1749 107.07 11.0917 107.05 11.0091C106.805 9.93712 106.505 8.86926 106.179 7.84288C106.154 7.76318 106.128 7.68257 106.102 7.60195C105.665 6.24983 105.187 4.97672 104.745 3.87942C104.714 3.80169 104.682 3.7243 104.65 3.64814C103.894 1.79447 103.254 0.481106 103.11 0.191066C103.093 0.155335 103.083 0.135949 103.081 0.131331L103.173 0.0666157L103.174 0.065047L103.267 0C103.269 0.0046242 103.303 0.0695668 103.362 0.191522C103.584 0.64633 104.175 1.8851 104.857 3.54999C104.887 3.62524 104.919 3.70264 104.95 3.78036C105.31 4.6704 105.691 5.67157 106.054 6.73426C106.146 7.00101 106.233 7.26503 106.317 7.52633C106.344 7.60661 106.37 7.68722 106.395 7.76692C106.748 8.87639 107.039 9.92869 107.267 10.9238Z" fill="white"/>
<path d="M104.857 3.54998C104.789 3.58321 104.72 3.61674 104.65 3.64813C104.459 3.73374 104.264 3.80773 104.067 3.86983C103.226 4.13564 102.346 4.17525 101.49 3.98572C101.461 4.06515 101.432 4.14458 101.402 4.22557C102.304 4.43484 103.235 4.39782 104.123 4.11734C104.334 4.05102 104.541 3.9716 104.745 3.8794C104.814 3.84833 104.883 3.81479 104.95 3.78034C105.507 3.49996 106.025 3.12123 106.486 2.65711C106.426 2.60321 106.367 2.55022 106.309 2.49814C105.871 2.93133 105.382 3.28577 104.857 3.54998Z" fill="white"/>
<path d="M106.317 7.52632C106.246 7.554 106.174 7.57921 106.102 7.60195C106.08 7.6101 106.057 7.61735 106.035 7.62427C105.124 7.91088 104.167 7.93293 103.247 7.68854C102.327 7.44414 101.471 6.94056 100.751 6.22071C100.726 6.3069 100.7 6.3931 100.676 6.4802C101.42 7.20357 102.3 7.70711 103.241 7.94911C104.183 8.19111 105.16 8.1646 106.091 7.87178C106.12 7.86256 106.15 7.85333 106.179 7.84287C106.252 7.81857 106.323 7.79336 106.395 7.76692C107.498 7.34746 108.476 6.56149 109.211 5.503C109.161 5.44053 109.111 5.37806 109.06 5.31592C108.347 6.35231 107.394 7.1205 106.317 7.52632Z" fill="white"/>
<path d="M107.267 10.9238C107.195 10.9543 107.123 10.9823 107.05 11.0091C106.973 11.0375 106.895 11.0647 106.816 11.0894C105.591 11.4728 104.294 11.3773 103.119 10.817C101.944 10.2567 100.954 9.26192 100.298 7.98149C100.273 8.09656 100.248 8.21039 100.226 8.32481C100.925 9.58832 101.943 10.5594 103.137 11.1001C104.33 11.6409 105.637 11.7237 106.872 11.3369C106.95 11.3122 107.029 11.2863 107.105 11.2569C107.179 11.2311 107.251 11.203 107.323 11.1738C108.773 10.5711 109.976 9.33978 110.686 7.72924C110.644 7.64459 110.598 7.56216 110.553 7.47849C109.878 9.08796 108.7 10.3238 107.267 10.9238Z" fill="white"/>
<path d="M54.2439 98.7738L50.4697 98.794L54.5954 97.3195C55.4359 93.1838 55.1717 88.5421 55.1717 88.5421C55.1717 88.5421 47.0044 88.7779 44.0102 92.6551C41.016 96.5323 41.9217 99.9888 44.3286 102.583C46.7355 105.176 49.7321 105.925 52.7264 102.048C53.3928 101.185 53.8834 100.037 54.2439 98.7738Z" fill="#F2F2F2"/>
<path d="M49.8488 98.3462L49.7012 98.5373C47.9761 100.748 46.3204 102.14 44.7555 102.69C44.7329 102.698 44.7101 102.705 44.6874 102.713L44.6564 102.588L44.628 102.467C46.3361 101.893 48.019 100.294 49.5242 98.3656C49.5732 98.304 49.623 98.2415 49.6711 98.1772C50.3022 97.3543 50.9005 96.4789 51.455 95.5994C51.4984 95.5318 51.5417 95.4624 51.5851 95.3929C52.3118 94.2277 52.9604 93.0648 53.5027 92.032C53.5413 91.9591 53.5791 91.8855 53.6162 91.8128C54.5281 90.06 55.1174 88.7137 55.2462 88.4139C55.2624 88.3777 55.2708 88.3573 55.2729 88.3526L55.3687 88.4091L55.3703 88.409L55.4669 88.4663C55.4648 88.4709 55.4367 88.5395 55.3817 88.664C55.1781 89.131 54.6153 90.388 53.7979 91.9652C53.7607 92.0361 53.7229 92.1098 53.6843 92.1826C53.2449 93.0213 52.7381 93.9417 52.1774 94.8768C52.0369 95.1119 51.8962 95.3417 51.7553 95.5659C51.7127 95.6362 51.6694 95.7057 51.626 95.7733C51.0267 96.7241 50.4343 97.5817 49.8488 98.3462Z" fill="white"/>
<path d="M53.7979 91.9652C53.7376 91.9159 53.6766 91.8657 53.6162 91.8128C53.4521 91.6693 53.2942 91.5159 53.1433 91.3534C52.4996 90.6615 51.9955 89.8078 51.6681 88.8552C51.5957 88.8691 51.5234 88.883 51.4495 88.897C51.788 89.9066 52.3174 90.8116 52.9972 91.5426C53.1583 91.7161 53.327 91.8795 53.5027 92.0319C53.5623 92.084 53.6233 92.1342 53.6843 92.1825C54.1852 92.5848 54.7349 92.8949 55.3146 93.1022C55.3204 93.0131 55.3262 92.9257 55.3321 92.8402C54.787 92.6394 54.27 92.3445 53.7979 91.9652Z" fill="white"/>
<path d="M51.7553 95.566C51.6971 95.5102 51.6404 95.4526 51.5851 95.393C51.5675 95.3758 51.5499 95.3569 51.5331 95.3387C50.8364 94.5879 50.3037 93.6493 49.9805 92.6028C49.6572 91.5563 49.553 90.4329 49.6767 89.3286C49.6016 89.3498 49.5264 89.3711 49.4513 89.3942C49.3383 90.5248 49.455 91.6708 49.7916 92.7375C50.1282 93.8041 50.6751 94.7607 51.387 95.528C51.4094 95.5521 51.4318 95.5763 51.455 95.5995C51.5118 95.659 51.5685 95.7166 51.626 95.7734C52.521 96.6432 53.6093 97.19 54.7605 97.3485C54.778 97.2651 54.7955 97.1817 54.8121 97.0973C53.6887 96.9491 52.6264 96.417 51.7553 95.566Z" fill="white"/>
<path d="M49.8488 98.3462C49.7884 98.2915 49.7294 98.2348 49.6711 98.1772C49.6089 98.1153 49.5474 98.0525 49.4873 97.9878C48.5521 96.9776 47.9191 95.6368 47.683 94.1661C47.4469 92.6954 47.6204 91.1739 48.1775 89.8295C48.0823 89.8673 47.9878 89.9041 47.8942 89.9436C47.3722 91.3215 47.2311 92.8586 47.4908 94.3367C47.7506 95.8147 48.398 97.1584 49.3412 98.177C49.4012 98.2417 49.462 98.3055 49.5242 98.3656C49.5825 98.425 49.6415 98.4816 49.7012 98.5373C50.9145 99.653 52.4413 100.182 53.9725 100.018C54.0097 99.9301 54.0438 99.8403 54.0787 99.7496C52.5679 99.9493 51.0507 99.4459 49.8488 98.3462Z" fill="white"/>
<path d="M41.7138 102.272L43.8825 102.272L44.9141 92.3907L41.7135 92.3909L41.7138 102.272Z" fill="#FFB6B6"/>
<path d="M41.1607 101.436L45.4315 101.435H45.4316C46.1535 101.435 46.8457 101.774 47.3561 102.377C47.8665 102.98 48.1533 103.798 48.1533 104.65V104.755L41.1608 104.755L41.1607 101.436Z" fill="#2F2E41"/>
<path d="M24.5557 102.272L26.7244 102.272L27.756 92.3907L24.5554 92.3909L24.5557 102.272Z" fill="#FFB6B6"/>
<path d="M24.0026 101.436L28.2734 101.435H28.2735C28.9954 101.435 29.6876 101.774 30.198 102.377C30.7084 102.98 30.9952 103.798 30.9952 104.65V104.755L24.0027 104.755L24.0026 101.436Z" fill="#2F2E41"/>
<path d="M28.2336 61.6839L26.7719 63.273L25.1246 82.4711L24.0157 97.7577L27.3668 98.2916L35.4952 72.1723L41.4426 98.1677L45.4523 98.2916L42.7911 64.3586L28.2336 61.6839Z" fill="#2F2E41"/>
<path d="M35.2968 33.2963C37.5962 33.2963 39.4601 31.0944 39.4601 28.3783C39.4601 25.6621 37.5962 23.4602 35.2968 23.4602C32.9975 23.4602 31.1336 25.6621 31.1336 28.3783C31.1336 31.0944 32.9975 33.2963 35.2968 33.2963Z" fill="#FFB9B9"/>
<path d="M33.1662 26.0947C33.1662 26.0947 32.6699 27.3636 34.6552 26.856C34.6552 26.856 35.3998 27.3636 35.3998 26.6022C35.3998 26.6022 36.3925 27.8711 36.6406 27.1098C36.8888 26.3484 37.3851 27.3636 37.3851 27.3636L37.8815 26.0947L38.3778 26.856H40.1151C40.1151 26.856 40.6114 21.7804 34.6552 22.288C28.6991 22.7956 31.6292 30.8373 31.6292 30.8373C31.6292 30.8373 31.6772 29.3938 32.1735 30.1551C32.6699 30.9165 33.1662 26.0947 33.1662 26.0947Z" fill="#2F2E41"/>
<path d="M38.469 34.9014L32.5983 34.4673L27.3668 36.1066L28.1598 52.0318L26.772 63.273C26.772 63.273 34.386 68.7712 43.0286 64.444L42.2077 61.893C42.2077 61.893 42.1795 57.9886 41.4861 57.2243C40.7926 56.4601 40.8479 50.1582 40.8479 50.1582L43.4251 38.4486L38.469 34.9014Z" fill="#3F3D56"/>
<path d="M28.7643 36.6092L27.3668 36.1066C27.3668 36.1066 25.1903 36.1925 24.0587 39.1173C22.927 42.0421 22.2194 46.2212 22.2194 46.2212L29.4071 46.5282L28.7643 36.6092Z" fill="#3F3D56"/>
<path d="M45.4475 64.527L45.2148 47.266L42.1095 47.8163L42.7954 64.1699C42.5131 64.4436 42.3053 64.8096 42.198 65.222C42.0906 65.6344 42.0885 66.075 42.1919 66.4888C42.2953 66.9026 42.4995 67.2713 42.7792 67.5488C43.0588 67.8263 43.4015 68.0004 43.7644 68.0492C44.1273 68.0981 44.4943 68.0196 44.8197 67.8235C45.145 67.6275 45.4143 67.3226 45.5938 66.9468C45.7734 66.5711 45.8552 66.1412 45.8292 65.7109C45.8032 65.2805 45.6704 64.8687 45.4475 64.527Z" fill="#FFB9B9"/>
<path d="M41.6771 39.9525L43.4251 38.4486C43.4251 38.4486 46.784 41.5518 46.7954 48.3791L42.1095 49.7216L39.4601 45.22L41.6771 39.9525Z" fill="#3F3D56"/>
<path d="M135.95 102.262L138.119 102.262L139.151 92.3809L135.95 92.3811L135.95 102.262Z" fill="#9E616A"/>
<path d="M135.397 101.426L139.668 101.426H139.668C140.39 101.426 141.082 101.764 141.593 102.367C142.103 102.97 142.39 103.788 142.39 104.641V104.745L135.397 104.745L135.397 101.426Z" fill="#2F2E41"/>
<path d="M123.115 100.084L125.182 100.856L128.689 91.8029L125.637 90.6626L123.115 100.084Z" fill="#9E616A"/>
<path d="M122.801 99.0892L126.873 100.611L126.873 100.611C127.561 100.868 128.135 101.438 128.467 102.194C128.8 102.951 128.865 103.833 128.647 104.646L128.62 104.745L121.953 102.254L122.801 99.0892Z" fill="#2F2E41"/>
<path d="M127.998 57.1339L126.794 61.1433L126.76 82.7886L123.347 97.6083L127.537 98.9894L132.164 85.0158L133.648 72.742L135.604 85.0871L135.335 99.7601H139.731L140.062 77.1488C140.156 70.7986 139.215 64.4864 137.292 58.5555L127.998 57.1339Z" fill="#2F2E41"/>
<path d="M126.564 40.8928H133.669L136.638 44.3997L137.524 58.8952L126.794 60.9348L123.347 47.1042L125.224 41.226L126.564 40.8928Z" fill="#6C63FF"/>
<path d="M124.009 47.2425L113.071 42.3807L112.786 40.371L119.684 33.4754L121.981 35.5098L117.819 40.8928L125.224 41.226L124.009 47.2425Z" fill="#6C63FF"/>
<path d="M121.011 36.2958C121.988 36.2958 122.78 35.3602 122.78 34.2062C122.78 33.0522 121.988 32.1166 121.011 32.1166C120.034 32.1166 119.242 33.0522 119.242 34.2062C119.242 35.3602 120.034 36.2958 121.011 36.2958Z" fill="#9E616A"/>
<path d="M125.114 36.8386L125.913 32.5809C126.198 31.069 126.979 29.7526 128.086 28.921C129.192 28.0894 130.532 27.8107 131.813 28.146C133.093 28.4814 134.208 29.4034 134.913 30.7095C135.618 32.0156 135.855 33.5989 135.572 35.1114L134.773 39.3691C134.735 39.5722 134.63 39.7491 134.481 39.8609C134.332 39.9728 134.152 40.0104 133.98 39.9655L125.618 37.775C125.446 37.7297 125.297 37.6056 125.202 37.4301C125.107 37.2546 125.076 37.0419 125.114 36.8386Z" fill="#2F2E41"/>
<path d="M129.611 38.6128C131.614 38.6128 133.238 36.6945 133.238 34.3282C133.238 31.9619 131.614 30.0436 129.611 30.0436C127.608 30.0436 125.984 31.9619 125.984 34.3282C125.984 36.6945 127.608 38.6128 129.611 38.6128Z" fill="#9E616A"/>
<path d="M124.706 32.6222C124.932 31.4259 125.55 30.3843 126.425 29.7259C127.3 29.0674 128.361 28.8459 129.374 29.1099L130.095 29.2987C131.108 29.5654 131.989 30.2958 132.547 31.3295C133.104 32.3632 133.292 33.6159 133.068 34.8128L133.052 34.8979L131.529 34.4988L131.332 32.644L130.905 34.3355L130.118 34.1292L130.019 33.1934L129.803 34.0468L124.69 32.7073L124.706 32.6222Z" fill="#2F2E41"/>
<path d="M128.369 38.9977C128.319 38.8646 128.301 38.7175 128.319 38.5733C128.337 38.4291 128.388 38.2937 128.468 38.1828C129.554 36.6665 131.219 33.7752 130.167 31.4474L130.091 31.2802L134.213 32.3599L132.84 39.6695L128.95 39.469C128.91 39.467 128.871 39.4609 128.833 39.4509C128.731 39.4241 128.635 39.3691 128.555 39.2903C128.474 39.2115 128.41 39.1113 128.369 38.9977Z" fill="#2F2E41"/>
<path d="M173.789 105H0.210652C0.154898 105 0.101483 104.973 0.0621165 104.927C0.0227498 104.88 0.000644684 104.817 0.000644684 104.751C0.000644684 104.685 0.0227498 104.622 0.0621165 104.576C0.101483 104.529 0.154898 104.503 0.210652 104.502H173.789C173.845 104.502 173.899 104.529 173.938 104.575C173.978 104.622 174 104.685 174 104.751C174 104.817 173.978 104.88 173.938 104.927C173.899 104.974 173.845 105 173.789 105Z" fill="#CACACA"/>
<path d="M87.729 43.4046H31.5999C31.1739 43.4046 30.752 43.5037 30.3583 43.6963C29.9647 43.8889 29.607 44.1713 29.3057 44.5272C29.0044 44.8831 28.7654 45.3056 28.6024 45.7706C28.4393 46.2356 28.3554 46.734 28.3554 47.2374V63.1839C28.3554 63.6872 28.4393 64.1856 28.6023 64.6506C28.7654 65.1156 29.0044 65.5381 29.3057 65.8941C29.607 66.25 29.9646 66.5323 30.3583 66.7249C30.7519 66.9175 31.1739 67.0166 31.5999 67.0166H32.4238V69.8976C32.4238 70.0725 32.4677 70.2434 32.5499 70.3887C32.6321 70.5341 32.749 70.6474 32.8857 70.7143C33.0224 70.7812 33.1729 70.7987 33.318 70.7646C33.4632 70.7305 33.5965 70.6463 33.7012 70.5227L36.6691 67.0166H87.729C88.1551 67.0166 88.577 66.9175 88.9707 66.7249C89.3643 66.5323 89.722 66.25 90.0233 65.8941C90.3246 65.5381 90.5636 65.1156 90.7266 64.6506C90.8897 64.1856 90.9736 63.6872 90.9736 63.1839V47.2374C90.9736 46.734 90.8897 46.2356 90.7266 45.7706C90.5636 45.3056 90.3246 44.8831 90.0233 44.5272C89.722 44.1713 89.3643 43.8889 88.9707 43.6963C88.577 43.5037 88.1551 43.4046 87.729 43.4046Z" fill="#E6E6E6"/>
<path d="M74.2299 65.0315H31.6C31.1853 65.0309 30.7877 64.8361 30.4944 64.4897C30.2012 64.1433 30.0363 63.6736 30.0358 63.1837V47.2373C30.0363 46.7475 30.2012 46.2778 30.4944 45.9315C30.7877 45.5851 31.1852 45.3902 31.5999 45.3897H87.729C88.1437 45.3902 88.5413 45.5851 88.8345 45.9315C89.1277 46.2779 89.2927 46.7475 89.2932 47.2374C89.2886 51.9551 87.7002 56.478 84.8762 59.8139C82.0523 63.1497 78.2235 65.0262 74.2299 65.0315Z" fill="white"/>
<path d="M71.5749 48.8374H47.872C47.2858 48.8374 46.8107 49.3988 46.8107 50.0912V50.0912C46.8107 50.7836 47.2858 51.3449 47.872 51.3449H71.5749C72.1611 51.3449 72.6362 50.7836 72.6362 50.0912C72.6362 49.3988 72.1611 48.8374 71.5749 48.8374Z" fill="#6C63FF"/>
<path d="M76.6162 53.8524H42.8307C42.2445 53.8524 41.7693 54.4137 41.7693 55.1061V55.1061C41.7693 55.7985 42.2445 56.3598 42.8307 56.3598H76.6162C77.2024 56.3598 77.6775 55.7985 77.6775 55.1061C77.6775 54.4137 77.2024 53.8524 76.6162 53.8524Z" fill="#E6E6E6"/>
<path d="M76.6162 58.8673H42.8307C42.2445 58.8673 41.7693 59.4286 41.7693 60.121V60.1211C41.7693 60.8135 42.2445 61.3748 42.8307 61.3748H76.6162C77.2024 61.3748 77.6775 60.8135 77.6775 60.121C77.6775 59.4286 77.2024 58.8673 76.6162 58.8673Z" fill="#E6E6E6"/>
<path d="M167.696 54.5077H127.105C126.797 54.5077 126.492 54.5794 126.208 54.7187C125.923 54.858 125.664 55.0622 125.446 55.3195C125.228 55.5769 125.056 55.8825 124.938 56.2188C124.82 56.555 124.759 56.9155 124.759 57.2795V68.8114C124.759 69.1754 124.82 69.5358 124.938 69.8721C125.056 70.2084 125.228 70.5139 125.446 70.7713C125.664 71.0287 125.923 71.2328 126.208 71.3721C126.492 71.5114 126.797 71.5831 127.105 71.5831H127.701V73.6666C127.701 73.793 127.733 73.9166 127.792 74.0217C127.852 74.1268 127.936 74.2087 128.035 74.2571C128.134 74.3055 128.243 74.3181 128.348 74.2935C128.453 74.2688 128.549 74.2079 128.625 74.1185L130.771 71.5831H167.696C168.004 71.5831 168.309 71.5114 168.594 71.3721C168.879 71.2328 169.137 71.0287 169.355 70.7713C169.573 70.5139 169.746 70.2084 169.864 69.8721C169.982 69.5358 170.042 69.1754 170.042 68.8114V57.2795C170.042 56.9155 169.982 56.555 169.864 56.2188C169.746 55.8825 169.573 55.5769 169.355 55.3195C169.137 55.0622 168.879 54.858 168.594 54.7187C168.309 54.5794 168.004 54.5077 167.696 54.5077Z" fill="#E6E6E6"/>
<path d="M167.696 70.1766H127.105C126.799 70.1762 126.505 70.0322 126.289 69.7763C126.072 69.5204 125.95 69.1734 125.95 68.8114V57.2795C125.95 56.9175 126.072 56.5705 126.289 56.3146C126.505 56.0587 126.799 55.9147 127.105 55.9143H157.934C160.829 55.9182 163.604 57.2783 165.65 59.6961C167.697 62.1139 168.848 65.3921 168.852 68.8114C168.851 69.1734 168.729 69.5204 168.513 69.7763C168.296 70.0322 168.002 70.1762 167.696 70.1766Z" fill="white"/>
<path d="M156.014 58.4366H138.873C138.449 58.4366 138.105 58.8425 138.105 59.3432C138.105 59.844 138.449 60.2499 138.873 60.2499H156.014C156.438 60.2499 156.781 59.844 156.781 59.3432C156.781 58.8425 156.438 58.4366 156.014 58.4366Z" fill="#6C63FF"/>
<path d="M159.66 62.0632H135.227C134.803 62.0632 134.46 62.4691 134.46 62.9699C134.46 63.4706 134.803 63.8765 135.227 63.8765H159.66C160.084 63.8765 160.427 63.4706 160.427 62.9699C160.427 62.4691 160.084 62.0632 159.66 62.0632Z" fill="#E6E6E6"/>
<path d="M159.66 65.6898H135.227C134.803 65.6898 134.46 66.0958 134.46 66.5965C134.46 67.0972 134.803 67.5032 135.227 67.5032H159.66C160.084 67.5032 160.427 67.0972 160.427 66.5965C160.427 66.0958 160.084 65.6898 159.66 65.6898Z" fill="#E6E6E6"/>
<path d="M81.1147 13.9702H121.705C122.013 13.9702 122.318 14.0419 122.603 14.1812C122.888 14.3205 123.146 14.5246 123.364 14.782C123.582 15.0394 123.755 15.3449 123.873 15.6812C123.991 16.0175 124.052 16.3779 124.052 16.7419V28.2739C124.052 28.6378 123.991 28.9983 123.873 29.3346C123.755 29.6708 123.582 29.9764 123.364 30.2338C123.146 30.4912 122.888 30.6953 122.603 30.8346C122.318 30.9739 122.013 31.0456 121.705 31.0456H121.109V33.129C121.109 33.2555 121.078 33.379 121.018 33.4842C120.959 33.5893 120.874 33.6712 120.775 33.7196C120.677 33.768 120.568 33.7806 120.463 33.756C120.358 33.7313 120.261 33.6704 120.186 33.581L118.039 31.0456H81.1147C80.8066 31.0456 80.5015 30.9739 80.2168 30.8346C79.9321 30.6953 79.6735 30.4912 79.4556 30.2338C79.2377 29.9764 79.0649 29.6708 78.947 29.3346C78.829 28.9983 78.7683 28.6379 78.7683 28.2739V16.7419C78.7683 16.3779 78.829 16.0175 78.947 15.6812C79.0649 15.3449 79.2377 15.0394 79.4556 14.782C79.6735 14.5246 79.9321 14.3205 80.2168 14.1812C80.5015 14.0419 80.8066 13.9702 81.1147 13.9702Z" fill="#E6E6E6"/>
<path d="M121.705 29.639H90.8768C87.9823 29.6351 85.2072 28.2751 83.1605 25.8573C81.1137 23.4395 79.9624 20.1614 79.959 16.7421C79.9594 16.3801 80.0812 16.0331 80.2979 15.7772C80.5145 15.5212 80.8083 15.3772 81.1147 15.3768H121.705C122.012 15.3772 122.305 15.5212 122.522 15.7771C122.739 16.033 122.861 16.38 122.861 16.742V28.2738C122.861 28.6358 122.739 28.9828 122.522 29.2387C122.305 29.4946 122.012 29.6386 121.705 29.639Z" fill="white"/>
<path d="M92.7968 19.7124L109.938 19.7124C110.362 19.7124 110.705 19.3064 110.705 18.8057C110.705 18.305 110.362 17.8991 109.938 17.8991L92.7968 17.8991C92.3729 17.8991 92.0293 18.305 92.0293 18.8057C92.0293 19.3064 92.3729 19.7124 92.7968 19.7124Z" fill="#6C63FF"/>
<path d="M89.1511 23.339L113.584 23.339C114.007 23.339 114.351 22.9331 114.351 22.4323C114.351 21.9316 114.007 21.5257 113.584 21.5257L89.1511 21.5257C88.7272 21.5257 88.3836 21.9316 88.3836 22.4323C88.3836 22.9331 88.7272 23.339 89.1511 23.339Z" fill="#E6E6E6"/>
<path d="M89.1511 26.9656L113.584 26.9656C114.007 26.9656 114.351 26.5597 114.351 26.059C114.351 25.5582 114.007 25.1523 113.584 25.1523L89.1511 25.1523C88.7272 25.1523 88.3836 25.5582 88.3836 26.059C88.3836 26.5597 88.7272 26.9656 89.1511 26.9656Z" fill="#E6E6E6"/>
<path d="M34.3362 43.0869C34.3362 42.505 34.1406 41.9469 33.7922 41.5354C33.4439 41.124 32.9715 40.8928 32.4789 40.8928C31.9863 40.8928 31.5139 41.124 31.1656 41.5354C30.8173 41.9469 30.6216 42.505 30.6216 43.0869C30.6216 43.1083 30.6238 43.129 30.6243 43.1503L27.3668 46.9984L27.6145 46.3257L23.8999 46.1167L23.358 50.7497C23.3105 51.1774 23.3766 51.612 23.5471 51.9934C23.7177 52.3748 23.9843 52.6843 24.3101 52.8791C24.6359 53.0739 25.0049 53.1444 25.366 53.0809C25.7272 53.0174 26.0628 52.823 26.3265 52.5245L32.7475 45.2554C33.1886 45.1795 33.5919 44.9187 33.8836 44.5205C34.1753 44.1223 34.336 43.6134 34.3362 43.0869Z" fill="#FFB9B9"/>
<path d="M133.386 40.9805L144.957 42.924L145.604 44.813L140.136 53.3119L137.521 51.9142L140.595 45.593L133.305 47.1652L133.386 40.9805Z" fill="#6C63FF"/>
<path d="M138.523 55.7287C139.5 55.7287 140.292 54.7932 140.292 53.6391C140.292 52.4851 139.5 51.5496 138.523 51.5496C137.546 51.5496 136.754 52.4851 136.754 53.6391C136.754 54.7932 137.546 55.7287 138.523 55.7287Z" fill="#9E616A"/>
</g>
<defs>
<clipPath id="clip0_41:72">
<rect width="174" height="105" fill="white"/>
</clipPath>
</defs>
</svg>
