<svg width="154" height="88" viewBox="0 0 154 88" fill="none" xmlns="http://www.w3.org/2000/svg">
<g clip-path="url(#clip0_41:163)">
<path opacity="0.1" d="M92.452 63.3408C95.423 63.1711 99.1092 61.1522 101.975 60.2593C105.367 59.2052 108.773 58.1911 112.192 57.2169C124.095 53.8239 136.125 50.9328 148.283 48.5436C149.418 48.32 150.554 48.1019 151.693 47.8891C149.92 44.051 147.173 40.7459 143.726 38.304C143.814 37.4638 143.859 36.6196 143.86 35.7747C143.86 22.4227 133.209 11.5985 120.066 11.5985C116.019 11.5942 112.041 12.6406 108.518 14.6355C99.2153 8.50496 87.0734 4.79456 73.7887 4.79456C54.9117 4.79456 38.3402 12.2867 28.9501 23.5688L73.0816 31.0381L100.148 35.6171C69.292 36.5397 38.3402 37.4568 7.57256 35.2912C3.51108 39.2282 0.940444 44.4562 0.299982 50.0815C-0.34048 55.7069 0.988986 61.3805 4.06117 66.1327C4.06117 66.6161 4.08134 67.0956 4.11763 67.571C4.90138 67.7959 5.65823 68.0141 6.33712 68.1569C17.236 70.4635 28.2048 72.3939 39.2436 73.9481C31.109 78.9729 21.2027 79.684 11.8193 81.8119C16.3631 85.5695 22.5336 87.8725 29.3332 87.8725H130.577C141.54 87.8725 150.426 80.2268 150.426 70.7939C152.071 68.0761 153.168 65.061 153.653 61.9199C133.367 63.8822 112.828 62.1785 92.452 63.3408Z" fill="#6C63FF"/>
<path opacity="0.1" d="M153.791 57.9024C153.802 54.0148 152.879 50.1816 151.101 46.7261C149.323 43.2706 146.741 40.2943 143.574 38.0481C143.662 37.2083 143.707 36.3646 143.709 35.5202C143.709 22.1681 133.052 11.348 119.914 11.348C115.867 11.3437 111.888 12.3895 108.365 14.3837C99.0622 8.25041 86.9189 4.53867 73.6342 4.53867C52.0255 4.53867 33.4254 14.3635 25.1766 28.4522C24.7182 28.4253 24.2571 28.4105 23.792 28.4105C10.6525 28.4105 -0.00263908 39.2346 -0.00263908 52.5867C-0.0118488 57.3029 1.34828 61.92 3.91204 65.8754C3.91204 77.8888 15.2299 87.6274 29.1854 87.6274H130.432C141.394 87.6274 150.28 79.9803 150.28 70.5474C152.585 66.7346 153.8 62.3602 153.791 57.9024Z" fill="#181F5E"/>
<path d="M125.598 43.0905C125.406 42.9426 125.18 42.8437 124.942 42.8023C124.69 42.7443 124.434 42.708 124.178 42.6676L120.868 42.1895C120.534 42.1273 120.194 42.1092 119.855 42.1356C119.685 42.1496 119.519 42.1972 119.368 42.2758C119.217 42.3545 119.082 42.4624 118.973 42.5935C118.874 42.7155 118.82 42.8675 118.82 43.0245C118.838 43.1824 118.889 43.3348 118.97 43.4716C119.002 43.5356 119.03 43.6017 119.052 43.6696C119.084 43.8219 119.123 43.9725 119.171 44.1208C119.185 44.1529 119.204 44.1828 119.227 44.2097C119.228 44.2173 119.228 44.2249 119.227 44.2325C119.191 44.4184 119.308 44.6123 119.255 44.7915C119.21 44.945 119.06 45.0379 118.966 45.1659C118.903 45.2566 118.869 45.3639 118.866 45.4743C118.864 45.5847 118.894 45.6933 118.953 45.7867C119.054 45.943 119.236 46.0494 119.289 46.2285C119.357 46.4642 119.172 46.6918 119.007 46.8736C118.702 47.2083 118.421 47.5633 118.165 47.9362C118.093 48.0279 118.047 48.1371 118.031 48.2527C118.016 48.487 118.24 48.6931 118.201 48.9261C118.17 49.1093 117.992 49.221 117.837 49.3301C117.266 49.7072 116.807 50.3133 116.762 50.9988C116.615 49.9081 116.164 48.8811 115.46 48.0359C115.268 47.8042 115.057 47.5712 114.978 47.2776C114.948 47.1605 114.943 47.0352 114.902 46.9221C114.768 46.5652 114.34 46.4116 114.154 46.083C114.019 45.8514 114.019 45.5537 113.852 45.3504C113.686 45.147 113.424 45.1012 113.28 44.9046C113.208 44.7714 113.147 44.6327 113.097 44.4898C113.037 44.3733 112.952 44.2712 112.848 44.1908C112.828 44.1749 112.808 44.1601 112.786 44.1464C112.809 44.1263 112.827 44.1019 112.839 44.0745C112.851 44.0471 112.857 44.0174 112.858 43.9874C112.858 43.8299 112.702 43.7262 112.566 43.648C112.391 43.5484 112.22 43.4406 112.054 43.3288C112.235 43.244 112.393 43.1148 112.512 42.9531C112.661 42.7119 112.723 42.4265 112.687 42.145C112.678 41.9179 112.593 41.7003 112.446 41.5268C112.362 41.4366 112.255 41.372 112.167 41.2871C111.937 41.0622 111.859 40.7296 111.763 40.4225C111.637 40.0184 111.439 39.5942 111.071 39.3801C110.894 39.2764 110.687 39.2279 110.513 39.1188C110.34 39.0097 110.194 38.8036 110.255 38.6057C110.295 38.471 110.42 38.3781 110.505 38.2636C110.606 38.1156 110.645 37.9336 110.613 37.7571C110.581 37.5806 110.481 37.4238 110.334 37.3208C110.235 37.2575 110.112 37.2023 110.092 37.0865C110.014 37.0662 109.944 37.0244 109.889 36.9658C109.834 36.9072 109.796 36.8342 109.78 36.7552C109.75 36.5968 109.75 36.4341 109.78 36.2757C109.815 36.0252 109.85 35.7756 109.884 35.5269C109.943 35.5516 110.007 35.5643 110.071 35.5643C110.135 35.5643 110.198 35.5516 110.258 35.5269C110.374 35.7161 110.509 35.8929 110.661 36.0548C111.07 36.5392 111.389 37.0935 111.602 37.6912C111.679 37.9067 111.757 38.1478 111.956 38.2622C112.024 38.3013 112.102 38.3215 112.169 38.3632C112.252 38.4211 112.323 38.4943 112.379 38.5787C112.54 38.7929 112.702 39.0057 112.862 39.2198L112.87 39.2521C112.874 39.2711 112.881 39.2893 112.891 39.306C112.921 39.3396 112.962 39.3607 113.007 39.3653C113.502 39.4797 114.057 39.5848 114.486 39.3141C114.873 39.0717 115.042 38.5922 115.37 38.2717C115.603 38.0441 115.932 37.8676 115.998 37.5471C115.919 37.5228 115.842 37.4945 115.767 37.4622C115.834 37.3949 115.901 37.3168 115.993 37.2279C116.125 37.0976 116.245 36.9546 116.35 36.801C116.464 36.6114 116.554 36.4088 116.619 36.1976C116.878 35.4578 117.138 34.7175 117.399 33.9768C117.522 33.6266 117.646 33.2737 117.802 32.933C117.963 32.564 118.154 32.2098 118.33 31.8475C118.785 30.9053 119.136 29.9163 119.376 28.898C119.419 28.7591 119.433 28.613 119.418 28.4684C119.38 28.2354 119.204 28.0522 119.036 27.8866C118.867 27.7033 118.675 27.5434 118.463 27.4112C118.357 27.3451 118.239 27.3009 118.116 27.281C117.993 27.2611 117.867 27.266 117.746 27.2953C117.401 27.3963 117.185 27.7492 117.106 28.1034C117.026 28.4576 117.056 28.8226 117.022 29.1808C116.974 29.6994 116.796 30.2004 116.753 30.7202C116.731 31.0206 116.753 31.3249 116.717 31.6253C116.651 32.0183 116.514 32.3961 116.314 32.7404C115.878 33.5615 115.288 34.2904 114.576 34.8872C114.494 34.9559 114.409 35.0219 114.328 35.0959C114.328 35.038 114.338 34.9788 114.346 34.9209C114.287 34.9361 114.23 34.9564 114.175 34.9815C114.182 34.9134 114.175 34.8448 114.155 34.7794C114.047 34.4576 113.569 34.3754 113.483 34.0481C113.468 33.9672 113.461 33.8852 113.46 33.803C113.432 33.5162 113.237 33.2737 113.169 32.9949C113.108 32.7377 113.155 32.4562 113.035 32.2178C112.933 32.0688 112.813 31.9331 112.677 31.8138C112.516 31.629 112.399 31.409 112.337 31.1714C112.32 31.1054 112.304 31.0367 112.285 30.9707C112.305 30.8213 112.289 30.6691 112.237 30.5276C112.114 30.2233 111.798 30.028 111.684 29.7196C111.595 29.4798 111.634 29.1808 111.466 28.995C111.377 28.9062 111.268 28.8401 111.148 28.8024C110.532 28.5623 109.887 28.4096 109.229 28.3485C108.861 28.3149 108.455 28.296 108.191 28.0361C107.884 27.7344 107.869 27.1916 107.509 26.9586C107.191 26.7526 106.742 26.9048 106.496 27.1943C106.459 27.2369 106.425 27.2819 106.394 27.329C106.349 27.1485 106.34 26.961 106.366 26.7768C106.366 26.731 106.375 26.6839 106.379 26.6421C106.986 26.4434 107.503 26.0348 107.837 25.4893C107.837 25.4893 107.837 25.4893 107.837 25.4974L107.853 25.5391C107.892 25.6374 107.953 25.7317 108.045 25.7425C108.106 25.7418 108.164 25.7204 108.212 25.6819C108.293 25.6254 108.368 25.5604 108.435 25.4879C108.469 25.4502 108.501 25.4112 108.532 25.3708C108.593 25.2867 108.647 25.1964 108.69 25.1014C108.757 24.9585 108.802 24.8065 108.825 24.6502C108.849 24.494 108.851 24.3338 108.878 24.1775C108.903 24.0566 108.936 23.9374 108.977 23.8206C108.99 23.7816 109.003 23.7425 109.016 23.7035C109.028 23.6644 109.045 23.6119 109.059 23.5688C109.143 23.2918 109.188 23.0044 109.193 22.7149C109.193 22.6664 109.193 22.6179 109.193 22.5695C109.188 22.3805 109.146 22.1945 109.068 22.0222C108.99 21.8499 108.879 21.6948 108.741 21.5661C108.51 21.3762 108.204 21.2967 108.034 21.0395C107.924 20.8671 107.9 20.6449 107.835 20.4429C107.765 20.2011 107.629 19.9838 107.443 19.8155C107.256 19.6472 107.026 19.5347 106.779 19.4907C106.481 19.458 106.182 19.5404 105.942 19.721L105.924 19.7358C105.79 19.8378 105.677 19.9639 105.59 20.1075C105.413 20.0585 105.25 19.9659 105.117 19.8382C104.983 19.7129 104.879 19.5553 104.743 19.4341C104.616 19.3177 104.461 19.2376 104.292 19.202C104.124 19.1665 103.949 19.1769 103.786 19.2321C103.618 19.2995 103.469 19.4058 103.35 19.5423C103.231 19.6788 103.146 19.8416 103.102 20.0173C103.028 20.2947 103.041 20.6139 102.887 20.8456C102.767 21.026 102.571 21.1149 102.434 21.2792C102.348 21.3833 102.29 21.5068 102.264 21.6388C102.248 21.7127 102.24 21.7881 102.241 21.8637C102.241 21.8974 102.241 21.9311 102.249 21.9634C102.249 21.9634 102.249 21.9742 102.249 21.9796C102.254 22.0165 102.262 22.0529 102.272 22.0887C102.311 22.2252 102.379 22.3513 102.473 22.4577C102.561 22.5595 102.672 22.6397 102.797 22.692C102.848 22.7119 102.9 22.7285 102.953 22.7418L103.113 22.7782L103.169 22.7917C102.976 23.1548 102.869 23.5575 102.856 23.9687C102.843 24.38 102.924 24.7887 103.094 25.1634C103.094 25.2011 103.084 25.2388 103.08 25.2765C103.058 25.8068 103.082 26.338 103.15 26.8644C103.169 27.0731 103.18 27.3034 103.052 27.4691C102.994 27.5342 102.929 27.5925 102.857 27.6428C102.93 27.5485 103.004 27.4556 103.079 27.3627C102.889 27.1714 102.59 27.1472 102.321 27.166C101.8 27.205 101.295 27.3596 100.842 27.6186C100.541 27.7923 100.232 28.0226 99.8875 27.9822C99.6845 27.9593 99.4842 27.8475 99.2866 27.9014C99.1755 27.9469 99.0718 28.0086 98.9788 28.0846C98.9052 28.1374 98.8165 28.1648 98.726 28.1627C98.515 27.9027 98.1883 27.7263 97.9356 27.5149C97.6479 27.2584 97.3846 26.9757 97.1491 26.6704C96.7136 26.1438 96.2793 25.6159 95.8518 25.0839C95.4916 24.6368 95.1219 24.1533 95.0587 23.5809C95.0522 23.5241 95.0491 23.467 95.0493 23.4099C95.058 23.1379 95.0922 22.8673 95.1514 22.6018C95.1674 22.5377 95.1674 22.4706 95.1514 22.4065C95.1111 22.2718 94.9565 22.222 94.8234 22.1924C94.8409 22.0887 94.853 21.9823 94.8597 21.8813C94.935 20.723 94.853 19.5459 95.0977 18.4119C95.1904 17.9756 95.3423 17.5338 95.6556 17.2173C96.1462 16.7204 96.9676 16.6005 97.344 16.0119C97.6586 15.5217 97.5336 14.8281 97.1384 14.3958C96.7431 13.9635 96.1341 13.7871 95.5547 13.8086C95.3922 13.803 95.2316 13.8462 95.0936 13.9325C94.9647 14.0472 94.8682 14.1941 94.814 14.3581L94.2373 15.7628C94.0701 16.1285 93.929 16.5057 93.8152 16.8914C93.6539 17.4813 93.6176 18.1035 93.4899 18.6988C93.4899 19.1567 93.1954 19.7277 93.0341 20.1493C92.854 20.6234 92.6591 21.092 92.4964 21.5755C92.4561 21.6967 92.3149 22.0563 92.2275 22.3836C92.1945 22.4029 92.1638 22.4259 92.1361 22.4523C92.0659 22.5424 92.0021 22.6374 91.9452 22.7365C91.8229 22.8981 91.6239 22.9843 91.4895 23.1405C91.3551 23.2967 91.3268 23.5836 91.5137 23.6617C91.5516 23.6745 91.5908 23.6831 91.6306 23.6873C91.6551 23.6894 91.6794 23.6934 91.7032 23.6994C91.9049 23.756 91.9842 24.0105 91.9546 24.2206C91.9251 24.4307 91.8202 24.6247 91.8027 24.8348C91.7664 25.2065 91.9842 25.5526 92.1939 25.8651C92.411 26.2038 92.6509 26.5273 92.9118 26.8334C93.1013 27.0462 93.3151 27.2374 93.506 27.4421C94.2333 28.191 94.8113 29.0664 95.4647 29.8798C95.6997 30.1868 95.967 30.4677 96.2619 30.7175C96.4544 30.8684 96.656 31.0074 96.8655 31.1337L97.9893 31.8475C98.1168 31.9411 98.261 32.0092 98.4141 32.0482C98.4641 32.0549 98.5147 32.0549 98.5647 32.0482C98.5714 32.0818 98.5768 32.1141 98.5849 32.1478C98.6722 32.5007 98.8645 32.8212 98.886 33.1808C98.9075 33.5404 98.8752 33.9081 98.9008 34.2717C98.925 34.607 98.9989 34.9451 99.0177 35.2751C99.0554 35.9107 98.8994 36.5383 98.7489 37.1606C98.5217 38.071 98.3846 39.0003 97.9423 39.8259C97.8186 40.0535 97.6734 40.2851 97.6734 40.545C97.6734 40.576 97.6734 40.6083 97.6815 40.6393L97.4798 40.7538C97.4207 40.7875 97.3615 40.8211 97.3078 40.8561C97.0523 41.0232 96.7794 41.2077 96.6746 41.4959C96.5899 41.7289 96.6289 41.9955 96.5267 42.2218C96.5218 42.2319 96.5164 42.2418 96.5106 42.2514C96.403 42.4615 96.1893 42.6177 96.1409 42.848C96.1046 43.0245 96.1745 43.2117 96.1409 43.3868C96.1409 43.3868 96.1409 43.3868 96.1409 43.3935C96.1103 43.4814 96.086 43.5714 96.0683 43.6629C96.0668 43.6927 96.0695 43.7226 96.0763 43.7517C96.102 43.8538 96.1583 43.9455 96.2377 44.0144C96.2861 44.0609 96.3387 44.1029 96.3949 44.1396C96.4523 44.1773 96.5115 44.2123 96.5724 44.2447L96.6074 44.2635C96.6584 44.2905 96.7095 44.316 96.762 44.3403L96.7969 44.3551C96.8574 44.382 96.9192 44.4063 96.9811 44.4278L97.0241 44.4413C97.0725 44.4575 97.1222 44.4723 97.172 44.4844L97.2056 44.4952L97.2365 44.5019L97.3709 44.5302L97.4207 44.5396C97.4798 44.5495 97.5403 44.5576 97.6022 44.5639H97.6559C97.7016 44.5639 97.746 44.5706 97.7904 44.5719H97.8535C97.9006 44.5719 97.9463 44.5719 97.988 44.5719H98.0364C98.0996 44.5719 98.1627 44.5625 98.2259 44.5544H98.2461C98.3026 44.5463 98.359 44.5369 98.4155 44.5248L98.4585 44.5154C98.5109 44.5032 98.5634 44.4911 98.6158 44.475L98.644 44.4669C98.7072 44.448 98.7704 44.4278 98.8322 44.4036C99.0462 44.3155 99.2537 44.2124 99.4533 44.0952C99.5877 44.0211 99.7222 43.9457 99.8566 43.877C99.9563 43.8267 100.059 43.7817 100.163 43.7423C100.417 43.6335 100.694 43.5873 100.97 43.6076C101.106 43.6262 101.24 43.6537 101.373 43.6898C101.373 43.7046 101.373 43.7194 101.373 43.7342C101.482 44.3807 101.59 45.0272 101.697 45.6736C101.873 45.5467 102.059 45.4345 102.254 45.3383C102.217 45.4359 102.193 45.5377 102.182 45.6413C102.174 45.7214 102.174 45.8022 102.182 45.8824C102.194 46.0103 102.221 46.1517 102.145 46.2527C102.098 46.3147 102.01 46.3497 101.985 46.4197C101.966 46.4913 101.961 46.5659 101.971 46.6393C101.966 46.723 101.93 46.8019 101.872 46.8617C101.813 46.9216 101.735 46.9583 101.651 46.9652C101.69 47.0736 101.691 47.1918 101.654 47.3008C101.617 47.4098 101.545 47.5032 101.448 47.5658C101.392 47.5929 101.34 47.6274 101.292 47.6682C101.246 47.7277 101.215 47.7975 101.202 47.8716C101.025 48.5385 100.659 49.1402 100.15 49.6049C99.9585 49.7554 99.7841 49.926 99.6294 50.114C99.5338 50.2595 99.4549 50.4154 99.3941 50.5786C99.0357 51.4567 98.6718 52.3353 98.3025 53.2143C98.0982 53.7059 97.8993 54.2055 97.8347 54.7348C97.6734 56.1866 96.3829 57.4176 96.6248 58.8587C96.6737 59.2186 96.8186 59.5588 97.0443 59.8432C97.3131 60.1677 97.7164 60.3536 98.1197 60.5044C99.1562 60.9085 100.249 61.1294 101.338 61.3516L103.048 61.7031C103.384 61.7804 103.724 61.8344 104.067 61.8647C104.48 61.893 104.903 61.8539 105.305 61.959C105.554 62.0236 105.792 62.1435 106.049 62.157C106.269 62.1691 106.541 62.1219 106.671 62.3024C106.801 62.4829 106.701 62.7213 106.824 62.8815C107.023 63.1361 107.509 62.8815 107.725 63.1212C107.784 63.2133 107.829 63.3136 107.859 63.4189C107.892 63.484 107.938 63.5417 107.994 63.5886C108.007 63.6646 108.012 63.7418 108.01 63.8189C107.982 64.1316 107.917 64.44 107.816 64.7374C107.655 65.2842 107.494 65.8314 107.334 66.3791C107.273 66.5726 107.228 66.7708 107.199 66.9717C107.189 67.0693 107.189 67.1677 107.199 67.2653C107.228 67.563 107.398 67.87 107.682 67.967C107.902 68.0253 108.136 67.9963 108.335 67.8862C108.528 67.7856 108.708 67.6636 108.873 67.5225C109.171 67.2969 109.432 67.0272 109.649 66.7226C110.321 65.7152 110.103 64.3522 110.575 63.2384C110.888 62.495 111.498 61.8916 111.701 61.1078C111.749 60.9587 111.755 60.7993 111.718 60.6472C111.633 60.3778 111.347 60.2243 111.079 60.1273H111.067C110.847 60.049 110.623 59.9846 110.395 59.9347C110.338 59.9226 110.281 59.9132 110.223 59.9038C110.095 59.7995 109.993 59.6667 109.926 59.5159C109.915 59.4357 109.894 59.3574 109.862 59.2829C109.841 59.2508 109.812 59.2243 109.779 59.2055C109.745 59.1868 109.707 59.1764 109.669 59.1752C109.534 59.1617 109.354 59.2102 109.208 59.1994C108.908 59.1779 108.709 58.8829 108.44 58.7469C108.171 58.6109 107.88 58.6445 107.593 58.6647C107.491 58.6788 107.387 58.6723 107.287 58.6459C107.167 58.5908 107.058 58.5156 106.964 58.4236C106.799 58.2947 106.605 58.206 106.4 58.1646C106.194 58.1232 105.982 58.1303 105.78 58.1853C105.651 58.2373 105.515 58.2682 105.376 58.2769C105.114 58.262 104.929 58.0277 104.735 57.8499C104.205 57.3637 103.451 57.2358 102.809 56.9166C102.71 56.8799 102.628 56.8092 102.578 56.7173C102.504 56.5341 102.67 56.3509 102.821 56.2257L103.926 55.3058C105.136 54.2984 106.648 53.5402 107.21 52.0628C107.269 51.8647 107.36 51.6777 107.479 51.5092C107.522 51.4579 107.573 51.4126 107.628 51.3746C107.873 51.2159 108.169 51.158 108.455 51.2129C108.804 51.2911 109.134 51.4356 109.428 51.6385C109.909 51.9303 110.378 52.2446 110.833 52.5813C111.284 52.9042 111.713 53.2569 112.117 53.6372C112.823 54.3106 113.41 55.1092 114.067 55.8351C114.725 56.561 115.476 57.2385 116.389 57.586C117.302 57.9334 118.406 57.9186 119.189 57.3354C120.094 56.6621 120.384 55.458 120.613 54.3537C121.117 53.8661 121.269 53.124 121.515 52.4682C121.67 52.052 121.867 51.6601 122.034 51.2453C122.233 50.7577 122.389 50.254 122.545 49.7517C122.722 49.2472 122.841 48.7246 122.902 48.1934C122.967 47.3544 122.742 46.4615 122.978 45.6736C123.288 45.6049 123.571 45.4298 123.876 45.3275C124.33 45.178 124.817 45.2022 125.298 45.2049H125.329C125.495 45.2226 125.662 45.1832 125.802 45.0931C125.963 44.9585 125.989 44.7282 125.997 44.5194C126.016 44.0036 125.984 43.4245 125.598 43.0905ZM106.12 20.117C106.009 20.1445 105.894 20.1527 105.78 20.1412L106.12 20.117Z" fill="url(#paint0_linear_41:163)"/>
<path d="M106.65 28.6368C106.487 28.7753 106.296 28.8768 106.09 28.9344L105.137 29.2765C104.62 29.4623 104.079 29.6496 103.533 29.5822C103.228 29.5445 101.92 29.3519 101.723 29.1135C101.421 28.7445 102.477 28.2018 102.837 27.8906C102.919 27.8318 102.994 27.7651 103.063 27.6913C103.197 27.527 103.18 27.2967 103.161 27.0893C103.093 26.5639 103.069 26.0336 103.091 25.5041C103.102 25.3779 103.12 25.2525 103.145 25.1284C103.279 24.5089 103.855 24.7351 104.309 24.8994C104.856 25.0774 105.385 25.307 105.889 25.5849C106.042 25.6642 106.175 25.7775 106.278 25.9163C106.477 26.2179 106.398 26.6139 106.366 26.9937C106.338 27.2886 106.339 27.5715 106.523 27.7856C106.616 27.8675 106.701 27.9576 106.777 28.055C106.82 28.153 106.831 28.2622 106.808 28.3667C106.785 28.4713 106.73 28.5659 106.65 28.6368Z" fill="#BE6F72"/>
<path d="M93.4832 18.9305C93.6176 18.3338 93.6472 17.7183 93.8085 17.1271C93.9224 16.7427 94.0634 16.3669 94.2306 16.0025L94.8235 14.6167C94.8777 14.4531 94.9742 14.3067 95.1031 14.1925C95.2413 14.1067 95.4017 14.0636 95.5642 14.0686C96.1436 14.047 96.7526 14.2275 97.1478 14.6544C97.5431 15.0813 97.6681 15.7722 97.3535 16.2611C96.9771 16.8497 96.1557 16.9682 95.665 17.4638C95.3518 17.7803 95.1999 18.2207 95.1071 18.6557C94.8625 19.787 94.9445 20.9601 94.8692 22.1156C94.845 22.4752 94.7751 22.886 94.4659 23.0718C94.279 23.1636 94.0712 23.204 93.8636 23.189L92.9817 23.2038C92.8339 23.2038 92.2975 23.2967 92.1993 23.185C92.0273 22.9897 92.4198 22.0173 92.4911 21.8005C92.6497 21.3197 92.8446 20.851 93.0288 20.3783C93.1888 19.9567 93.4832 19.387 93.4832 18.9305Z" fill="#BE6F72"/>
<path d="M111.692 61.2411C111.489 62.0196 110.879 62.6256 110.566 63.3677C110.094 64.4788 110.306 65.8377 109.639 66.8424C109.423 67.1476 109.161 67.4178 108.864 67.6438C108.699 67.7844 108.518 67.9059 108.326 68.0061C108.127 68.1162 107.893 68.1451 107.673 68.0869C107.389 67.9899 107.218 67.6828 107.19 67.3865C107.18 67.2894 107.18 67.1914 107.19 67.0943C107.218 66.8938 107.263 66.696 107.324 66.503C107.486 65.958 107.647 65.4121 107.807 64.8653C107.907 64.5688 107.972 64.2614 108.001 63.9495C108.018 63.6101 107.803 63.1684 107.894 62.8519C107.936 62.7091 108.092 62.5825 108.163 62.4627C108.264 62.2902 108.342 62.1049 108.394 61.9118C108.505 61.5361 108.58 61.1347 108.811 60.8183C108.962 60.6305 109.139 60.4651 109.335 60.3267C109.481 60.199 109.651 60.1032 109.836 60.0452C110.015 60.0137 110.198 60.0224 110.373 60.0708C110.601 60.1196 110.826 60.1835 111.045 60.262H111.058C111.326 60.359 111.611 60.5085 111.696 60.7805C111.737 60.9315 111.736 61.0909 111.692 61.2411Z" fill="#3F3D56"/>
<path d="M125.996 44.6837C125.988 44.8925 125.962 45.1255 125.801 45.2561C125.66 45.3461 125.493 45.3856 125.328 45.3679H125.291C124.811 45.3679 124.323 45.341 123.869 45.4904C123.524 45.6049 123.206 45.815 122.846 45.8568C122.35 45.9133 121.883 45.6413 121.444 45.4042C121.03 45.1809 120.605 44.9786 120.171 44.7982C119.886 44.681 119.304 44.6056 119.167 44.2931C119.12 44.1453 119.08 43.9952 119.048 43.8433C119.026 43.7754 118.998 43.7093 118.966 43.6453C118.886 43.5089 118.834 43.357 118.816 43.1996C118.816 43.0426 118.87 42.8905 118.969 42.7686C119.079 42.6385 119.213 42.5315 119.364 42.4536C119.515 42.3757 119.68 42.3285 119.849 42.3147C120.188 42.2883 120.529 42.3065 120.863 42.3686L124.173 42.8454C124.428 42.8817 124.685 42.9181 124.936 42.98C125.175 43.0215 125.4 43.1204 125.592 43.2682C125.984 43.5969 126.016 44.1746 125.996 44.6837Z" fill="#3F3D56"/>
<path d="M123.087 45.5457C122.683 46.3982 122.974 47.4069 122.901 48.3497C122.84 48.8795 122.72 49.4008 122.544 49.9039C122.388 50.4049 122.232 50.9073 122.033 51.3934C121.866 51.7975 121.668 52.2015 121.514 52.6136C121.268 53.2709 121.111 54.0103 120.612 54.4991C120.383 55.6008 120.093 56.8048 119.188 57.4728C118.402 58.0547 117.306 58.0749 116.388 57.7234C115.47 57.3718 114.724 56.6984 114.066 55.9725C113.409 55.2466 112.821 54.456 112.116 53.78C111.711 53.3996 111.281 53.0473 110.829 52.7254C110.374 52.3941 109.906 52.0826 109.424 51.7907C109.13 51.5888 108.799 51.4448 108.451 51.3665C108.165 51.3115 107.869 51.3694 107.624 51.5281C107.569 51.5661 107.518 51.6114 107.475 51.6628C107.355 51.8306 107.264 52.0172 107.206 52.215C106.642 53.6884 105.126 54.4453 103.917 55.45L102.812 56.3671C102.661 56.4924 102.494 56.6755 102.568 56.8574C102.619 56.9493 102.701 57.02 102.799 57.0567C103.442 57.3745 104.196 57.5025 104.726 57.9873C104.919 58.1651 105.105 58.3994 105.367 58.4129C105.505 58.4048 105.642 58.3743 105.77 58.3227C105.973 58.2678 106.185 58.2607 106.39 58.3018C106.596 58.343 106.789 58.4312 106.955 58.5597C107.049 58.6517 107.158 58.7268 107.277 58.7819C107.377 58.8084 107.481 58.8148 107.584 58.8008C107.87 58.7806 108.174 58.755 108.431 58.8829C108.688 59.0109 108.899 59.3126 109.198 59.3341C109.345 59.3449 109.52 59.2964 109.66 59.3099C109.698 59.3111 109.736 59.3215 109.769 59.3402C109.803 59.359 109.832 59.3855 109.853 59.4176C109.884 59.4916 109.906 59.5695 109.916 59.6493C109.971 59.8392 110.157 59.955 110.278 60.1112C110.463 60.3509 110.49 60.6769 110.472 60.9799C110.411 61.9274 109.989 62.8154 109.294 63.4607C109.097 63.6628 108.845 63.8032 108.569 63.8647C108.431 63.8936 108.288 63.8784 108.159 63.8211C108.03 63.7638 107.923 63.6674 107.851 63.5455C107.821 63.4407 107.776 63.3408 107.717 63.2492C107.501 63.0108 107.015 63.264 106.816 63.0095C106.693 62.8506 106.781 62.596 106.663 62.4317C106.545 62.2674 106.26 62.297 106.041 62.2876C105.784 62.2741 105.546 62.1529 105.297 62.0896C104.894 61.9846 104.472 62.0236 104.059 61.9954C103.716 61.9651 103.376 61.9111 103.04 61.8337L101.33 61.4836C100.241 61.2614 99.1482 61.0364 98.1118 60.6391C97.7152 60.4883 97.3159 60.3025 97.0363 59.9792C96.8109 59.6952 96.666 59.3556 96.6169 58.9961C96.3735 57.559 97.6641 56.3308 97.8268 54.883C97.8846 54.355 98.0956 53.8567 98.2946 53.3665C98.6593 52.4902 99.0232 51.6134 99.3862 50.7362C99.4449 50.5729 99.5215 50.4166 99.6147 50.2702C99.7694 50.0827 99.9438 49.9125 100.135 49.7625C100.644 49.2993 101.01 48.699 101.188 48.0332C101.201 47.9591 101.232 47.8894 101.278 47.8298C101.325 47.7899 101.378 47.756 101.434 47.7288C101.53 47.6662 101.602 47.5731 101.639 47.4644C101.675 47.3557 101.675 47.2377 101.637 47.1295C101.72 47.1226 101.798 47.0859 101.857 47.0261C101.916 46.9663 101.951 46.8873 101.957 46.8036C101.947 46.7307 101.951 46.6566 101.97 46.5854C102.002 46.5154 102.083 46.4804 102.13 46.4184C102.207 46.3174 102.18 46.176 102.168 46.0494C102.16 45.9692 102.16 45.8885 102.168 45.8083C102.197 45.5231 102.324 45.257 102.528 45.0555C102.849 44.739 103.306 44.8211 103.75 44.7457C104.192 44.65 104.625 44.5115 105.04 44.3322C106.207 43.8718 107.435 43.5872 108.685 43.4878C109.941 43.3888 111.202 43.5901 112.366 44.075C112.535 44.1437 112.694 44.2342 112.84 44.3444C112.944 44.4243 113.029 44.5259 113.089 44.642C113.139 44.7846 113.2 44.9228 113.272 45.0555C113.416 45.2521 113.687 45.3154 113.844 45.5012C114.002 45.6871 114.015 46.0009 114.146 46.2312C114.332 46.5598 114.765 46.712 114.894 47.0689C114.935 47.182 114.94 47.3059 114.97 47.4231C115.042 47.7167 115.26 47.9484 115.452 48.18C116.157 49.0245 116.608 50.0519 116.754 51.1429C116.797 50.4601 117.255 49.8554 117.829 49.4783C117.984 49.3773 118.162 49.2655 118.193 49.0824C118.232 48.8507 118.008 48.6446 118.023 48.409C118.039 48.2939 118.085 48.1852 118.157 48.0938C118.413 47.7218 118.694 47.3677 118.999 47.0339C119.164 46.8521 119.349 46.6299 119.281 46.3901C119.228 46.211 119.046 46.106 118.945 45.9497C118.886 45.8566 118.856 45.7481 118.858 45.6379C118.861 45.5277 118.895 45.4207 118.958 45.3302C119.052 45.2023 119.202 45.1093 119.247 44.9571C119.3 44.778 119.183 44.5841 119.219 44.3996C119.268 44.2518 119.366 44.1251 119.496 44.04C119.674 43.8773 119.877 43.7437 120.097 43.644C120.452 43.5093 120.847 43.5592 121.223 43.6117C121.853 43.6992 122.558 43.8339 122.913 44.3619C123.14 44.6918 123.256 45.1928 123.087 45.5457Z" fill="#65617D"/>
<path opacity="0.1" d="M125.996 44.6837C125.988 44.8925 125.962 45.1255 125.801 45.2561C125.66 45.3461 125.493 45.3856 125.328 45.3679H125.291C125.346 45.0878 125.687 44.9275 125.746 44.6433C125.756 44.556 125.748 44.4676 125.722 44.3835C125.697 44.2994 125.655 44.2214 125.598 44.1544C125.31 43.7652 124.848 43.5497 124.388 43.3922C123.089 42.946 121.698 42.8417 120.347 43.0891C119.98 43.1491 119.622 43.2592 119.285 43.4164C119.173 43.4865 119.065 43.5629 118.962 43.6453C118.882 43.5089 118.83 43.357 118.812 43.1996C118.812 43.0426 118.866 42.8905 118.965 42.7686C119.075 42.6385 119.209 42.5315 119.36 42.4536C119.511 42.3757 119.676 42.3285 119.845 42.3147C120.184 42.2883 120.525 42.3065 120.859 42.3686L124.169 42.8454C124.424 42.8817 124.681 42.9181 124.932 42.98C125.171 43.0215 125.396 43.1204 125.588 43.2682C125.984 43.5969 126.016 44.1746 125.996 44.6837Z" fill="black"/>
<path opacity="0.1" d="M111.692 61.2411C111.489 62.0196 110.879 62.6256 110.566 63.3677C110.094 64.4788 110.306 65.8377 109.639 66.8424C109.423 67.1476 109.161 67.4178 108.864 67.6438C108.699 67.7844 108.518 67.9059 108.326 68.0061C108.127 68.1162 107.893 68.1451 107.673 68.0869C107.389 67.9899 107.218 67.6828 107.19 67.3865C107.18 67.2894 107.18 67.1914 107.19 67.0943L107.198 67.1158C107.315 67.3987 107.506 67.695 107.807 67.7448C107.92 67.7529 108.034 67.7377 108.14 67.6999C108.247 67.6621 108.345 67.6027 108.428 67.5253C108.872 67.1684 109.13 66.6364 109.376 66.1233C109.568 65.7532 109.721 65.3636 109.83 64.961C109.884 64.732 109.91 64.4977 109.965 64.2687C110.22 63.1563 111.09 62.2485 111.282 61.1213C111.298 61.0437 111.301 60.9642 111.293 60.8856C111.267 60.783 111.229 60.6843 111.177 60.592C111.13 60.4877 111.096 60.3783 111.075 60.2661C111.344 60.363 111.629 60.5125 111.714 60.7846C111.748 60.9359 111.741 61.0938 111.692 61.2411Z" fill="black"/>
<path opacity="0.1" d="M109.662 59.3098C109.538 59.6357 109.328 59.9222 109.056 60.1395C108.673 60.4316 108.225 60.6257 107.751 60.7051C107.53 60.7616 107.298 60.7588 107.078 60.697C106.78 60.5933 106.565 60.3132 106.26 60.2324C106.042 60.1731 105.808 60.2256 105.587 60.1933C105.191 60.1381 104.883 59.8351 104.563 59.5927C103.583 58.8546 102.297 58.6162 101.317 57.8782C101.273 57.8514 101.237 57.8138 101.212 57.7691C101.193 57.7207 101.186 57.6685 101.192 57.6169C101.195 57.1693 101.296 56.7277 101.486 56.3227C101.642 56.0401 101.828 55.775 102.04 55.5321C102.918 54.4547 103.8 53.3692 104.851 52.4601C105.292 52.0789 105.773 51.7234 106.33 51.551C106.639 51.4554 107.249 51.3651 107.625 51.5268C107.57 51.5647 107.52 51.61 107.476 51.6614C107.357 51.8292 107.266 52.0158 107.207 52.2136C106.641 53.6883 105.126 54.4452 103.916 55.4499L102.811 56.3671C102.661 56.4924 102.494 56.6755 102.568 56.8573C102.619 56.9493 102.701 57.02 102.799 57.0567C103.442 57.3745 104.196 57.5024 104.726 57.9873C104.919 58.1651 105.105 58.3994 105.367 58.4129C105.505 58.4047 105.642 58.3743 105.77 58.3226C105.973 58.2678 106.185 58.2607 106.39 58.3018C106.596 58.3429 106.789 58.4312 106.955 58.5597C107.049 58.6516 107.158 58.7268 107.277 58.7819C107.377 58.8084 107.481 58.8148 107.584 58.8008C107.87 58.7806 108.174 58.755 108.431 58.8829C108.688 59.0108 108.899 59.3125 109.198 59.3341C109.348 59.3448 109.522 59.2937 109.662 59.3098Z" fill="black"/>
<path d="M97.2984 41.0312C97.043 41.1955 96.7715 41.3814 96.6666 41.6669C96.5806 41.8999 96.6209 42.1666 96.5174 42.3928C96.4139 42.6191 96.1813 42.7767 96.1302 43.0191C96.0939 43.1955 96.1652 43.3814 96.1302 43.5578C96.0998 43.6496 96.0751 43.7431 96.0563 43.8379C96.0428 44.0386 96.2149 44.2016 96.383 44.3134C96.7407 44.5465 97.1481 44.6923 97.5723 44.7391C97.9965 44.7859 98.4258 44.7323 98.8256 44.5827C99.1845 44.448 99.5085 44.2285 99.8527 44.0561C100.188 43.8625 100.572 43.7691 100.959 43.7868C101.181 43.811 101.393 43.8918 101.615 43.9214C101.725 43.9431 101.838 43.9378 101.945 43.9059C102.052 43.874 102.15 43.8165 102.229 43.7383C102.298 43.6435 102.344 43.5344 102.364 43.4191C102.551 42.6797 102.466 41.8959 102.289 41.1525C102.111 40.409 101.842 39.6939 101.653 38.9545C101.518 38.4064 101.415 37.8447 101.19 37.3262C100.966 36.8077 100.588 36.3256 100.06 36.1276C100.018 36.1071 99.9708 36.1009 99.9252 36.1101C99.8914 36.1243 99.8614 36.1465 99.8379 36.1747C99.42 36.6184 99.105 37.1491 98.9157 37.7289C98.7046 38.374 98.6468 39.0582 98.4532 39.706C98.3699 39.9754 98.2623 40.3363 98.0499 40.5424C97.8375 40.7484 97.5391 40.8764 97.2984 41.0312Z" fill="#3F3D56"/>
<path opacity="0.1" d="M102.368 43.415C102.345 43.5307 102.297 43.6398 102.227 43.7342C102.147 43.8127 102.049 43.8702 101.942 43.902C101.835 43.9337 101.722 43.9385 101.612 43.916C101.392 43.8891 101.179 43.807 100.958 43.7814C100.571 43.7634 100.187 43.8569 99.8513 44.0507C99.5072 44.2231 99.1791 44.4373 98.8229 44.576C98.3018 44.7739 97.7324 44.8064 97.1922 44.6689C96.9053 44.5967 96.6326 44.4765 96.3856 44.3133C96.2163 44.2029 96.0455 44.044 96.059 43.8379C96.0778 43.7435 96.1025 43.6504 96.1329 43.5591C96.1679 43.3827 96.098 43.1969 96.1329 43.0204C96.184 42.778 96.4179 42.6164 96.5201 42.3928C96.6222 42.1693 96.5833 41.9013 96.668 41.6683C96.7728 41.3814 97.0457 41.1969 97.3011 41.0312C97.5565 40.8656 97.8604 40.739 98.0647 40.5383C98.0911 40.5071 98.1149 40.4737 98.136 40.4386C98.2833 40.211 98.3915 39.9601 98.4559 39.6966C98.6535 39.0474 98.7073 38.3646 98.917 37.7181C99.1072 37.1388 99.4225 36.6086 99.8405 36.1653C99.8629 36.1364 99.8926 36.114 99.9266 36.1006C99.972 36.0914 100.019 36.0971 100.061 36.1168C100.588 36.3161 100.966 36.7983 101.192 37.3168C101.417 37.8353 101.513 38.3942 101.654 38.9437C101.842 39.6831 102.112 40.4009 102.29 41.143C102.467 41.8851 102.555 42.6743 102.368 43.415Z" fill="black"/>
<path opacity="0.1" d="M106.366 26.9896C105.734 27.1908 105.05 27.1509 104.445 26.8774C103.841 26.604 103.358 26.1163 103.091 25.5082C103.102 25.382 103.119 25.2565 103.145 25.1324C103.279 24.5129 103.855 24.7392 104.309 24.9035C104.856 25.0815 105.385 25.311 105.889 25.589C106.042 25.6682 106.175 25.7815 106.278 25.9203C106.477 26.2179 106.398 26.6139 106.366 26.9896Z" fill="black"/>
<path d="M105.554 26.9816C107.039 26.9816 108.243 25.7756 108.243 24.288C108.243 22.8004 107.039 21.5944 105.554 21.5944C104.069 21.5944 102.865 22.8004 102.865 24.288C102.865 25.7756 104.069 26.9816 105.554 26.9816Z" fill="#BE6F72"/>
<path opacity="0.1" d="M112.85 44.4171C112.85 44.6406 112.547 44.712 112.323 44.6999C111.516 44.6528 110.727 44.4305 109.928 44.4979C108.919 44.5895 107.991 45.1484 106.979 45.1996C106.589 45.2198 106.193 45.1619 105.808 45.2332C105.311 45.3262 104.867 45.6292 104.36 45.6723C103.921 45.71 103.486 45.5443 103.047 45.5618C102.739 45.5802 102.44 45.6657 102.169 45.8123C102.198 45.5272 102.326 45.2611 102.529 45.0595C102.851 44.743 103.308 44.8252 103.751 44.7497C104.194 44.654 104.626 44.5156 105.042 44.3363C106.208 43.8758 107.436 43.5912 108.686 43.4918C109.941 43.3918 111.203 43.5917 112.366 44.075C112.535 44.1437 112.694 44.2342 112.84 44.3443C112.848 44.3679 112.851 44.3925 112.85 44.4171Z" fill="black"/>
<path d="M104.31 29.2065L103.221 28.8024L102.762 28.6327C102.574 28.5541 102.377 28.5015 102.176 28.4765C101.649 28.4361 101.153 28.7876 100.872 29.2361C100.591 29.6846 100.484 30.2192 100.394 30.7404C100.271 31.4533 100.166 32.1689 100.08 32.8872C99.9871 33.5359 99.9399 34.1902 99.9386 34.8454C99.9695 36.5128 100.322 38.1572 100.709 39.7801C100.899 40.4996 101.042 41.2306 101.138 41.9686C101.17 42.273 101.185 42.5787 101.217 42.8844C101.252 43.2279 101.308 43.5672 101.365 43.908L101.689 45.8433C102.092 45.5564 102.551 45.3046 103.047 45.2898C103.486 45.2736 103.922 45.4379 104.36 45.4002C104.864 45.3585 105.311 45.0554 105.808 44.9625C106.192 44.8911 106.589 44.9477 106.98 44.9288C107.991 44.8777 108.92 44.3174 109.928 44.2272C110.728 44.1544 111.523 44.3807 112.324 44.4278C112.547 44.4413 112.85 44.3699 112.85 44.145C112.85 43.9888 112.694 43.8851 112.558 43.807C111.918 43.4209 111.309 42.9855 110.736 42.5046C110.207 42.0844 109.669 41.6535 109.305 41.0851C108.427 39.7181 108.728 37.869 107.979 36.4266C107.37 35.2549 107.979 33.7195 107.979 32.3983C107.979 31.7398 107.979 31.0731 107.824 30.4334C107.728 30.0756 107.607 29.7246 107.464 29.3829L106.941 28.0563C106.93 28.0175 106.909 27.9825 106.879 27.9553C106.844 27.931 106.802 27.9183 106.76 27.9189C106.446 27.9001 106.136 27.9995 105.891 28.1977C105.645 28.3984 105.488 28.6866 105.246 28.8953C104.981 29.1256 104.64 29.3277 104.31 29.2065Z" fill="#E3E8F4"/>
<path d="M106.067 28.4415C106.153 28.0724 106.246 27.6886 106.492 27.4004C106.738 27.1122 107.187 26.96 107.505 27.1661C107.865 27.4004 107.88 27.9418 108.187 28.2435C108.456 28.5021 108.86 28.5223 109.225 28.5559C109.883 28.6159 110.529 28.7682 111.144 29.0085C111.264 29.0457 111.373 29.1113 111.462 29.1997C111.63 29.391 111.597 29.6846 111.68 29.9229C111.794 30.23 112.11 30.4253 112.233 30.731C112.367 31.0704 112.233 31.4502 112.12 31.799C111.917 32.4253 111.789 33.0758 111.591 33.7047C111.394 34.3337 111.113 34.9532 110.65 35.4273C110.446 35.6374 110.142 35.8313 109.873 35.706L109.77 36.4535C109.739 36.6114 109.739 36.7737 109.77 36.9316C109.785 37.0106 109.823 37.0836 109.878 37.1422C109.933 37.2008 110.004 37.2427 110.082 37.2629C110.102 37.3788 110.224 37.434 110.324 37.4973C110.397 37.5476 110.46 37.612 110.508 37.6868C110.557 37.7616 110.59 37.8452 110.606 37.9329C110.621 38.0206 110.62 38.1106 110.601 38.1976C110.582 38.2847 110.545 38.3671 110.494 38.44C110.41 38.5545 110.285 38.6447 110.244 38.7808C110.184 38.9774 110.328 39.1848 110.502 39.2925C110.677 39.4003 110.883 39.4501 111.06 39.5538C111.429 39.7666 111.626 40.1855 111.753 40.5922C111.847 40.8993 111.925 41.2319 112.156 41.4555C112.245 41.5403 112.351 41.605 112.436 41.6939C112.582 41.8674 112.667 42.0849 112.676 42.312C112.713 42.5935 112.651 42.8791 112.501 43.1201C112.233 43.5053 111.731 43.6198 111.291 43.7935C110.578 44.0871 109.99 44.6123 109.361 45.0595C109.105 45.2662 108.803 45.4085 108.48 45.4743C108.045 45.5322 107.616 45.3396 107.178 45.3221C106.916 45.3245 106.655 45.3589 106.401 45.4245L105.594 45.5995C105.637 44.9733 105.293 44.3457 105.101 43.7491C104.738 42.6258 104.671 41.4245 104.757 40.2474C104.843 39.0703 105.082 37.9094 105.319 36.7538C105.484 35.9458 105.468 35.1013 105.722 34.3162C105.96 33.5606 106.3 32.8347 106.425 32.0482C106.629 30.7755 105.78 29.6967 106.067 28.4415Z" fill="#3F3D56"/>
<path d="M112.183 30.9317C112.257 31.0685 112.309 31.2162 112.337 31.3694C112.4 31.6066 112.516 31.8261 112.677 32.0105C112.813 32.13 112.933 32.2657 113.035 32.4145C113.159 32.6488 113.112 32.9343 113.17 33.1902C113.237 33.469 113.432 33.7114 113.46 33.9983C113.461 34.0805 113.468 34.1625 113.483 34.2434C113.57 34.5693 114.049 34.6475 114.155 34.9734C114.226 35.1848 114.104 35.4151 114.127 35.6374C114.143 35.7061 114.147 35.7773 114.139 35.8475C114.108 35.9268 114.055 35.9953 113.986 36.0441C113.541 36.4699 113.233 37.019 113.101 37.6212C112.971 38.22 112.903 38.8306 112.898 39.4434L112.372 38.7471C112.317 38.6626 112.245 38.5895 112.163 38.5316C112.095 38.4912 112.017 38.471 111.949 38.4306C111.75 38.3175 111.672 38.0777 111.595 37.8622C111.382 37.2657 111.064 36.7127 110.654 36.2299C110.441 35.9781 110.192 35.7249 110.145 35.3976C110.131 35.2473 110.139 35.0957 110.169 34.9478C110.303 34.0657 110.447 33.162 110.876 32.3795C111.076 32.0131 111.336 31.6818 111.528 31.3101C111.657 31.0637 111.839 30.4226 112.183 30.9317Z" fill="#3F3D56"/>
<path d="M98.921 31.7788C98.9234 31.8922 98.8946 32.004 98.8376 32.102C98.7862 32.1617 98.7192 32.2059 98.6442 32.2296C98.5692 32.2534 98.4891 32.2559 98.4128 32.2367C98.2597 32.1982 98.1155 32.1305 97.988 32.0374C97.6134 31.8003 97.2387 31.5629 96.8641 31.3249C96.655 31.1986 96.4534 31.0601 96.2605 30.9101C95.9657 30.6607 95.6984 30.3804 95.4633 30.0738C94.81 29.2657 94.2319 28.3889 93.5046 27.6495C93.307 27.4475 93.1013 27.2536 92.9105 27.0421C92.6495 26.7365 92.4097 26.4134 92.1926 26.0751C91.9829 25.764 91.7651 25.4193 91.8014 25.0475C91.8229 24.8375 91.9237 24.6435 91.9533 24.4348C91.9829 24.226 91.9036 23.9715 91.7019 23.9149C91.6781 23.9089 91.6538 23.9048 91.6293 23.9028C91.5895 23.8985 91.5503 23.89 91.5123 23.8772C91.3255 23.7991 91.3537 23.5095 91.4882 23.3573C91.6226 23.2051 91.8215 23.1203 91.9439 22.9533C92.0008 22.8542 92.0646 22.7592 92.1348 22.6691C92.2248 22.5918 92.3323 22.5377 92.448 22.5115C93.2234 22.2826 94.0437 22.2516 94.8342 22.4213C94.9686 22.4509 95.1219 22.5048 95.1622 22.6355C95.1783 22.6991 95.1783 22.7657 95.1622 22.8294C95.1029 23.0949 95.0687 23.3655 95.06 23.6375C95.0598 23.6942 95.063 23.7508 95.0694 23.8072C95.1326 24.3782 95.5023 24.8617 95.8626 25.3075C96.2901 25.8381 96.7243 26.3647 97.1599 26.89C97.3954 27.1943 97.6587 27.4761 97.9463 27.7317C98.2152 27.9553 98.5634 28.1357 98.7731 28.4226C98.9438 28.6542 98.8887 28.9707 98.9075 29.2495C98.97 30.0913 98.9745 30.9364 98.921 31.7788Z" fill="#3F3D56"/>
<path d="M115.994 37.3976C116.127 37.2683 116.246 37.1262 116.351 36.9734C116.464 36.784 116.555 36.5819 116.62 36.3713L117.4 34.1559C117.524 33.8057 117.647 33.4542 117.803 33.1135C117.965 32.7458 118.156 32.3916 118.332 32.036C118.785 31.1004 119.135 30.1182 119.376 29.1068C119.419 28.9678 119.433 28.8217 119.418 28.6771C119.38 28.4442 119.204 28.2623 119.036 28.0967C118.867 27.9138 118.675 27.7544 118.463 27.6226C118.357 27.5566 118.239 27.5123 118.116 27.4924C117.993 27.4725 117.867 27.4774 117.746 27.5068C117.401 27.6078 117.185 27.9607 117.106 28.3149C117.026 28.6691 117.056 29.0314 117.022 29.3923C116.974 29.9095 116.796 30.4091 116.753 30.9276C116.731 31.228 116.753 31.531 116.717 31.83C116.651 32.2226 116.514 32.6 116.314 32.9438C115.877 33.7628 115.287 34.4898 114.576 35.0852C114.381 35.2293 114.205 35.3981 114.054 35.5875C113.928 35.7769 113.842 35.9907 113.803 36.2151C113.713 36.5569 113.752 36.9196 113.912 37.2346C114.131 37.609 114.551 37.7734 114.953 37.8569C115.497 37.97 115.622 37.7841 115.994 37.3976Z" fill="#BE6F72"/>
<path d="M105.57 20.385C105.686 20.1671 105.863 19.9882 106.08 19.8706C106.296 19.753 106.543 19.7019 106.788 19.7237C107.035 19.7676 107.265 19.8799 107.452 20.0479C107.639 20.216 107.775 20.433 107.845 20.6745C107.908 20.8752 107.933 21.0974 108.044 21.2698C108.21 21.5298 108.52 21.6052 108.751 21.7937C108.889 21.9222 109 22.077 109.077 22.2491C109.155 22.4212 109.197 22.607 109.202 22.7957C109.215 23.1812 109.155 23.5657 109.024 23.9284C108.968 24.0832 108.923 24.2415 108.889 24.4025C108.862 24.5587 108.86 24.7176 108.835 24.8738C108.806 25.0764 108.736 25.271 108.63 25.4461C108.524 25.6211 108.384 25.7732 108.218 25.8934C108.171 25.9319 108.112 25.9532 108.052 25.954C107.947 25.9418 107.882 25.8193 107.843 25.7088C107.63 25.0907 107.681 24.3351 107.287 23.8422C107.108 23.6434 106.891 23.4818 106.65 23.3668C106.551 23.3031 106.44 23.2614 106.324 23.2442C106.154 23.2534 105.99 23.3134 105.854 23.4166C105.57 23.6073 105.255 23.7468 104.923 23.8287C104.758 23.868 104.586 23.8698 104.419 23.8339C104.253 23.798 104.097 23.7254 103.962 23.6213C103.777 23.4678 103.641 23.2375 103.435 23.1176C103.23 22.9978 103.014 23.0045 102.811 22.9223C102.682 22.8672 102.567 22.7832 102.475 22.6768C102.383 22.5704 102.316 22.4443 102.28 22.3081C102.244 22.172 102.24 22.0294 102.267 21.8913C102.294 21.7531 102.353 21.623 102.438 21.5109C102.572 21.3493 102.771 21.2577 102.891 21.0786C103.045 20.8469 103.032 20.5291 103.106 20.2517C103.15 20.0761 103.235 19.9136 103.354 19.7775C103.473 19.6414 103.622 19.5357 103.79 19.4692C103.953 19.4138 104.128 19.4032 104.296 19.4384C104.464 19.4737 104.62 19.5537 104.747 19.6698C104.882 19.7911 104.989 19.9473 105.121 20.0739C105.251 20.1986 105.41 20.2886 105.584 20.3357C105.758 20.3828 105.941 20.3854 106.116 20.3432" fill="#3F3D56"/>
<path opacity="0.1" d="M107.78 40.2083C107.702 40.2782 107.646 40.37 107.621 40.4718C107.596 40.5737 107.601 40.6809 107.638 40.7794C107.667 40.8427 109.054 40.5746 109.201 40.5544C109.567 40.5019 110.208 40.5275 110.454 40.1922C110.892 39.5982 109.534 39.7302 109.286 39.7518C108.813 39.7922 108.14 39.8568 107.78 40.2083Z" fill="black"/>
<path d="M95.1596 22.8348C95.1003 23.1003 95.0661 23.3709 95.0575 23.6428C94.6542 23.725 94.2347 23.5903 93.8476 23.4556L92.7358 23.0758C92.6682 23.0325 92.5866 23.0167 92.5077 23.0314C92.4288 23.0462 92.3585 23.0905 92.311 23.1553C92.1322 23.3412 91.8862 23.694 91.6388 23.9028C91.599 23.8985 91.5598 23.89 91.5219 23.8772C91.335 23.7991 91.3632 23.5095 91.4977 23.3573C91.6321 23.2051 91.8311 23.1203 91.9534 22.9533C92.0103 22.8542 92.0741 22.7592 92.1443 22.6691C92.2343 22.5918 92.3419 22.5377 92.4575 22.5115C93.233 22.2826 94.0533 22.2516 94.8437 22.4213C94.9781 22.4509 95.1314 22.5048 95.1717 22.6354C95.1848 22.7018 95.1807 22.7705 95.1596 22.8348Z" fill="#3F3D56"/>
<path opacity="0.1" d="M95.1596 22.8348C95.1003 23.1003 95.0661 23.3709 95.0575 23.6428C94.6542 23.725 94.2347 23.5903 93.8476 23.4556L92.7358 23.0758C92.6682 23.0325 92.5866 23.0167 92.5077 23.0314C92.4288 23.0462 92.3585 23.0905 92.311 23.1553C92.1322 23.3412 91.8862 23.694 91.6388 23.9028C91.599 23.8985 91.5598 23.89 91.5219 23.8772C91.335 23.7991 91.3632 23.5095 91.4977 23.3573C91.6321 23.2051 91.8311 23.1203 91.9534 22.9533C92.0103 22.8542 92.0741 22.7592 92.1443 22.6691C92.2343 22.5918 92.3419 22.5377 92.4575 22.5115C93.233 22.2826 94.0533 22.2516 94.8437 22.4213C94.9781 22.4509 95.1314 22.5048 95.1717 22.6354C95.1848 22.7018 95.1807 22.7705 95.1596 22.8348Z" fill="black"/>
<path opacity="0.1" d="M105.329 48.4035C105.523 48.4682 105.733 48.5625 105.799 48.7564L104.242 48.3605L103.435 48.1544C103.293 48.118 102.782 48.0763 102.688 47.9645C102.553 47.8002 103.031 47.9133 103.117 47.9254C103.377 47.9645 103.638 48.0049 103.898 48.052C104.387 48.1396 104.858 48.2837 105.329 48.4035Z" fill="black"/>
<path opacity="0.1" d="M105.933 49.784C105.799 49.6938 105.413 49.7046 105.247 49.6655C105.005 49.6076 104.767 49.5308 104.529 49.4568C104.047 49.2992 103.568 49.1201 103.072 49.0042C102.981 48.984 102.669 48.9786 102.684 48.8628C102.699 48.747 102.996 48.7066 103.07 48.7012C103.509 48.6689 104.058 48.8749 104.466 49.0217C104.987 49.2087 105.48 49.4651 105.933 49.784Z" fill="black"/>
<path opacity="0.1" d="M104.946 47.1726C104.453 47.0379 104.005 46.7308 103.497 46.6716C103.365 46.6766 103.234 46.6368 103.127 46.5585C103.068 46.4996 103.026 46.4248 103.008 46.343C103.348 46.3255 103.743 46.4696 104.052 46.6056C104.222 46.6787 104.386 46.7661 104.542 46.8669C104.654 46.9356 104.824 47.1335 104.946 47.1726Z" fill="black"/>
<path d="M114.351 35.1135C114.268 35.6734 114.388 36.2447 114.691 36.7228C114.994 37.2008 115.458 37.5537 115.999 37.7168C115.933 38.036 115.604 38.2124 115.371 38.44C115.043 38.7592 114.874 39.2373 114.487 39.4798C114.055 39.7491 113.5 39.6441 113.008 39.5309C112.963 39.5259 112.922 39.5043 112.893 39.4703C112.882 39.4542 112.875 39.4364 112.871 39.4178C112.708 38.8212 112.602 38.1841 112.769 37.5862C112.903 37.0771 113.226 36.6434 113.484 36.1936C113.742 35.7438 113.766 35.2616 114.351 35.1135Z" fill="#3F3D56"/>
<path d="M102.332 27.391C101.811 27.4289 101.306 27.5831 100.853 27.8421C100.552 28.0145 100.243 28.2462 99.8984 28.2044C99.6954 28.1815 99.4951 28.0697 99.2975 28.1236C99.1861 28.1686 99.0823 28.2304 98.9896 28.3068C98.9426 28.3443 98.8867 28.369 98.8273 28.3784C98.7679 28.3878 98.7072 28.3817 98.6508 28.3606L98.5164 30.2246C98.4653 30.933 98.4156 31.6562 98.585 32.3471C98.6724 32.7 98.8646 33.0205 98.8861 33.3788C98.9076 33.737 98.8753 34.1047 98.9009 34.467C98.9251 34.8023 98.999 35.1323 99.0178 35.4676C99.0555 36.1006 98.8995 36.7282 98.749 37.3437C98.5218 38.2514 98.3847 39.1794 97.9424 40.0009C97.8187 40.2285 97.6735 40.4602 97.6735 40.7188C97.6735 40.7511 97.6735 40.7821 97.6816 40.813C97.5471 40.8871 97.4221 40.9571 97.3079 41.0299C97.0524 41.1955 96.7795 41.38 96.6747 41.6669C96.59 41.8999 96.629 42.1666 96.5268 42.3915C96.4246 42.6164 96.1907 42.7767 96.1396 43.0191C96.1033 43.1955 96.1732 43.3814 96.1396 43.5578C96.1092 43.6491 96.0845 43.7422 96.0657 43.8366C96.0522 44.0386 96.223 44.2016 96.3924 44.312C96.6394 44.4751 96.9121 44.5953 97.199 44.6675L98.0015 41.4757C98.7333 40.1203 99.342 38.7018 99.8204 37.2373C99.9573 36.7586 100.133 36.292 100.346 35.842C100.498 35.5875 100.633 35.3229 100.749 35.0501C100.872 34.7107 100.884 34.3431 100.943 33.9848C101.013 33.5667 101.119 33.1553 101.259 32.7552C101.404 32.3229 101.572 31.8919 101.602 31.4381C101.646 30.7889 101.411 30.1034 101.661 29.5027C101.767 29.2779 101.905 29.0697 102.071 28.8845C102.418 28.459 102.734 28.0132 103.08 27.5876C102.9 27.395 102.6 27.3748 102.332 27.391Z" fill="#3F3D56"/>
<g opacity="0.1">
<path opacity="0.1" d="M106.12 19.9419L105.952 19.954L105.933 19.9675C105.996 19.9649 106.059 19.9564 106.12 19.9419Z" fill="black"/>
<path opacity="0.1" d="M109.196 22.7378C109.168 23.0056 109.11 23.2694 109.024 23.5243C108.968 23.6791 108.923 23.8375 108.889 23.9984C108.862 24.1546 108.86 24.3136 108.835 24.4698C108.806 24.6724 108.736 24.8669 108.63 25.042C108.524 25.2171 108.384 25.3692 108.218 25.4893C108.171 25.5278 108.112 25.5492 108.052 25.5499C107.947 25.5378 107.882 25.4152 107.843 25.3048C107.63 24.6866 107.681 23.9311 107.287 23.4382C107.108 23.2393 106.891 23.0778 106.65 22.9627C106.551 22.8991 106.44 22.8573 106.324 22.8402C106.154 22.8494 105.99 22.9094 105.854 23.0126C105.57 23.2032 105.255 23.3427 104.923 23.4247C104.758 23.464 104.586 23.4657 104.419 23.4299C104.253 23.394 104.097 23.3213 103.962 23.2173C103.777 23.0637 103.641 22.8334 103.435 22.7136C103.23 22.5937 103.014 22.6005 102.811 22.5183C102.685 22.464 102.572 22.3819 102.481 22.2779C102.39 22.1739 102.324 22.0508 102.287 21.9176C102.282 21.9008 102.279 21.8837 102.276 21.8665C102.243 22.0168 102.246 22.1731 102.287 22.3217C102.324 22.4548 102.39 22.5779 102.481 22.6819C102.572 22.7859 102.685 22.8681 102.811 22.9223C103.014 23.0045 103.243 23.0058 103.435 23.1176C103.627 23.2294 103.777 23.4678 103.962 23.6213C104.097 23.7254 104.253 23.798 104.419 23.8339C104.586 23.8698 104.758 23.868 104.923 23.8287C105.255 23.7468 105.57 23.6073 105.854 23.4166C105.99 23.3134 106.154 23.2534 106.324 23.2442C106.44 23.2614 106.551 23.3031 106.65 23.3668C106.888 23.484 107.101 23.6469 107.277 23.8462C107.671 24.3392 107.62 25.0947 107.834 25.7129C107.873 25.8247 107.937 25.9459 108.042 25.958C108.107 25.9583 108.169 25.9354 108.218 25.8933C108.385 25.7729 108.525 25.6202 108.631 25.4444C108.737 25.2686 108.807 25.0732 108.837 24.8698C108.861 24.7136 108.864 24.5546 108.891 24.3984C108.924 24.2375 108.969 24.0791 109.025 23.9243C109.156 23.5616 109.217 23.1772 109.204 22.7917C109.201 22.7755 109.198 22.7567 109.196 22.7378Z" fill="black"/>
</g>
<path d="M100.69 33.5444L100.599 34.7741C100.585 34.9411 100.267 38.9168 97.9167 43.5632C95.9003 47.5483 91.9762 52.7389 84.5676 55.656C83.9895 55.885 83.3895 56.0986 82.7675 56.2971L82.0739 54.1153C83.8153 53.5662 85.4928 52.8311 87.0774 51.9227C90.8537 49.7382 93.7897 46.6204 95.8371 42.6083C96.9234 40.4722 97.6975 38.1908 98.1359 35.834H89.7069V33.5444H100.69Z" fill="#181F5E"/>
<path opacity="0.1" d="M83.6602 55.6574C91.0674 52.7402 94.9928 47.5511 97.008 43.5659C99.3579 38.9195 99.6778 34.9465 99.6899 34.7768L99.7813 33.5471H100.722L100.631 34.7768C100.619 34.9438 100.299 38.9195 97.949 43.5659C95.9325 47.5511 92.0084 52.7402 84.6012 55.6574C84.0231 55.8863 83.4227 56.1005 82.7998 56.2998L82.7084 56.0129C83.0328 55.8971 83.3501 55.7786 83.6602 55.6574Z" fill="white"/>
<path d="M68.8296 54.1153L68.136 56.2971C67.5131 56.0977 66.9126 55.8836 66.3346 55.6547C58.9273 52.7375 55.0019 47.5483 52.9867 43.5632C50.6368 38.9168 50.3169 34.9437 50.3048 34.7741L50.2134 33.5444H61.1912V35.834H52.7609C53.2015 38.1911 53.978 40.4725 55.0664 42.6083C57.1138 46.6204 60.0485 49.7382 63.8247 51.9214C65.4094 52.8307 67.0875 53.5663 68.8296 54.1153Z" fill="#181F5E"/>
<path opacity="0.1" d="M67.2405 55.6574C59.8333 52.7402 55.9079 47.5511 53.8927 43.5659C51.5428 38.9195 51.2229 34.9465 51.2108 34.7768L51.1194 33.5471H50.1783L50.2698 34.7768C50.2819 34.9438 50.6018 38.9195 52.9517 43.5659C54.9682 47.5511 58.8923 52.7402 66.2995 55.6574C66.8776 55.8863 67.478 56.1005 68.1009 56.2998L68.1923 56.0129C67.8688 55.8971 67.5515 55.7786 67.2405 55.6574Z" fill="white"/>
<path d="M88.1327 75.206V87.552H62.7693V75.206L63.5759 74.1285C71.7951 71.206 73.4607 63.5845 73.7928 60.5691C73.8422 60.1524 73.8704 59.7334 73.8775 59.3139H77.0138C77.0208 59.7334 77.049 60.1524 77.0985 60.5691C77.4359 63.5845 79.1015 71.2087 87.3153 74.1285L88.1327 75.206Z" fill="#181F5E"/>
<path opacity="0.1" d="M88.1327 75.206H62.7693V76.7548H88.1327V75.206Z" fill="#181F5E"/>
<path opacity="0.1" d="M64.9202 74.1285C73.1394 71.206 74.805 63.5845 75.1371 60.5691C75.1865 60.1524 75.2148 59.7334 75.2218 59.3139H73.8775C73.8704 59.7334 73.8422 60.1524 73.7928 60.5691C73.4553 63.5845 71.7897 71.2087 63.5759 74.1285L62.7693 75.206V87.552H64.1136V75.206L64.9202 74.1285Z" fill="white"/>
<path opacity="0.1" d="M58.9165 33.5444H61.1911V35.834H59.1182C59.0366 35.0798 58.9694 34.3166 58.9165 33.5444Z" fill="black"/>
<path opacity="0.1" d="M68.8295 54.1153L68.1358 56.2971C67.513 56.0978 66.9125 55.8836 66.3344 55.6547C65.3835 54.4913 64.5433 53.2415 63.8246 51.9214C65.4093 52.8308 67.0874 53.5663 68.8295 54.1153Z" fill="black"/>
<path opacity="0.1" d="M82.0725 54.1153C83.814 53.5662 85.4915 52.8311 87.0761 51.9227C86.357 53.2429 85.5168 54.4932 84.5662 55.6573C83.9882 55.8863 83.3882 56.1 82.7662 56.2984L82.0725 54.1153Z" fill="black"/>
<path opacity="0.1" d="M91.9843 33.5444C91.9315 34.3166 91.8642 35.0798 91.7827 35.834H89.7111V33.5444H91.9843Z" fill="black"/>
<path opacity="0.1" d="M77.1039 60.5691C76.0122 60.781 74.89 60.781 73.7982 60.5691C73.8476 60.1524 73.8759 59.7334 73.8829 59.3139H77.0192C77.0262 59.7334 77.0545 60.1524 77.1039 60.5691Z" fill="black"/>
<path d="M59.1853 29.7519C59.2431 46.7295 66.5025 60.4587 75.4517 60.4587C84.4008 60.4587 91.6589 46.7295 91.718 29.7519H59.1853Z" fill="#181F5E"/>
<path opacity="0.1" d="M62.0756 29.7519H59.1853C59.2431 46.7295 66.5025 60.4587 75.4517 60.4587C75.9359 60.4578 76.4193 60.4168 76.8968 60.3361C68.6238 58.9516 62.1307 45.8056 62.0756 29.7519Z" fill="white"/>
<path d="M84.077 79.9319H66.8252V84.3763H84.077V79.9319Z" fill="#3F3D56"/>
<path opacity="0.1" d="M67.6318 80.5379H84.077V79.9319H66.8252V84.3763H67.6318V80.5379Z" fill="white"/>
<path d="M49.9848 46.1436C49.6743 46.0399 47.846 44.5908 47.7075 43.9349C47.5691 43.279 48.6741 37.1687 48.6741 37.1687C48.6741 37.1687 48.572 37.1687 48.4053 37.1485V37.0501L48.6324 29.0233C48.6324 29.0233 49.5641 23.6361 47.8043 23.9499C46.0446 24.2637 47.1483 29.0233 47.1483 29.0233C47.1483 29.0233 46.948 31.4394 46.8068 32.164C46.6724 32.863 46.0567 35.7101 46.4761 36.5949C46.4915 36.6264 46.5086 36.6569 46.5272 36.6865C46.5272 36.6865 46.5971 39.7235 45.8376 40.1383C45.113 40.5329 44.8119 42.5194 44.7863 42.6972L44.7473 42.6811C44.531 42.5454 44.341 42.3716 44.1868 42.1679C44.1706 42.1477 44.1585 42.1262 44.1437 42.1046C44.6383 41.5472 44.9049 40.8233 44.8902 40.0776C44.8755 39.3319 44.5806 38.6192 44.0644 38.0818C43.8244 37.832 43.5428 37.626 43.2323 37.473C43.2232 37.2157 43.1624 36.9628 43.0535 36.7296C42.704 35.9808 40.7681 35.0017 39.3929 34.9788C38.7584 34.9599 38.2381 35.1404 38.0486 35.6374C37.9518 35.8892 37.9813 36.1761 37.941 36.4373C37.8604 36.9761 37.5149 37.3976 37.0712 37.733C36.8921 37.5326 36.6984 37.3458 36.4918 37.174C36.0428 36.8293 35.1475 35.6926 35.1475 35.6926C35.1475 35.6926 32.3526 32.7929 32.1456 31.9983C31.9386 31.2037 29.1464 26.4321 28.5253 27.263C27.9043 28.094 30.6642 31.7155 30.6642 31.7155C30.6642 31.7155 31.1885 33.0313 31.5918 33.4758C31.9951 33.9202 35.087 38.4185 35.087 38.4185L35.2349 38.7255C34.5815 39.0703 33.9847 39.5094 33.7736 40.1935C33.4644 41.2009 34.1406 42.2137 34.6084 43.1565C35.5199 44.9962 35.6503 47.3423 34.474 49.0231C33.42 50.5072 31.5918 51.213 29.8804 51.8298C30.7069 52.48 31.7336 52.8214 32.7842 52.7954C32.3889 53.9429 30.9882 54.3227 29.7944 54.5355C30.4208 55.1388 31.3175 55.3584 32.1779 55.4917C32.5993 55.5636 33.0262 55.5974 33.4536 55.5927H33.5585L33.6634 55.5846C33.8091 55.5749 33.9541 55.5565 34.0976 55.5294C34.7187 55.4028 35.3223 55.0634 35.6395 54.5139C35.9084 54.0439 36.0025 53.4028 36.4905 53.1671C36.6176 53.1097 36.7545 53.0772 36.8938 53.0715H36.879C36.9704 53.0715 37.0645 53.0715 37.1559 53.0715L39.1899 53.0917C39.2746 53.0917 39.362 53.0917 39.4493 53.0917C40.0234 53.0783 40.6364 52.9786 40.9281 52.5032C41.0481 52.2723 41.1113 52.016 41.1123 51.7557C41.1553 51.1106 41.1123 50.4466 41.1298 49.7961C41.3032 50.98 41.4847 52.8251 41.0531 53.5065C40.7025 54.0229 40.2776 54.4845 39.7921 54.8762C39.67 54.979 39.5584 55.0935 39.4588 55.2183C39.3929 55.2654 39.3539 55.291 39.3539 55.291L39.3122 55.4163C39.159 55.6491 39.048 55.9071 38.9842 56.1786C38.9607 56.2483 38.952 56.3221 38.9587 56.3954C39.0057 56.491 38.6226 56.8856 38.7342 57.0513C37.777 58.1758 37.5955 59.8795 37.5955 59.8795L35.8479 62.5381C34.9499 64.9017 33.6056 65.1441 33.6056 65.1441C33.6056 65.1441 30.4477 63.0216 30.3617 62.9179C30.2757 62.8142 29.0685 62.2957 29.0685 62.2957C28.9261 62.0456 28.7088 61.8468 28.4474 61.7273C28.0333 61.5549 27.9984 60.9193 27.9984 60.9193C27.9473 59.4176 27.0667 59.3031 27.0667 59.3031C26.3569 59.2425 25.8152 59.3691 25.3984 59.6008L25.2721 59.6102C24.6617 59.66 23.9277 59.7152 23.1211 59.7691C20.8775 59.9172 20.3438 61.3731 20.3438 61.3731C20.3438 61.3731 20.0682 61.6842 20.4298 62.0209C20.7914 62.3576 23.1064 62.0209 23.2045 62.0128C23.0281 62.032 22.8497 62.0197 22.6775 61.9765C23.0418 61.963 23.5433 61.9495 23.9708 61.9495H24.0743C24.0474 62.1766 24.0343 62.4051 24.0353 62.6337C24.0353 63.0647 25.225 63.3408 25.225 63.3408L28.848 66.5731C28.848 66.5731 31.1253 67.5926 32.5745 69.0592C34.0236 70.5259 35.3048 69.2599 35.3048 69.2599C36.8387 68.8801 41.2521 63.5347 41.2561 63.5293C41.2561 63.6856 41.3489 68.8842 41.525 69.9279C41.532 69.9809 41.5451 70.0328 41.564 70.0828C41.771 70.5313 41.4941 71.7569 41.3744 72.274C41.2981 72.7068 41.2688 73.1467 41.287 73.5858C41.287 73.5858 39.6322 79.9157 39.7693 80.4719C39.9064 81.0281 38.8726 83.6126 38.8726 83.6126V85.7675L39.0528 85.7581C39.0293 85.7928 39.0078 85.8287 38.9882 85.8658L38.9761 85.8887C38.9761 85.8887 40.0798 86.1298 40.8219 86.0611C41.564 85.9924 42.8384 86.6335 42.8384 86.6335C42.8384 86.6335 43.2699 86.8382 44.5981 86.9244C45.9263 87.0106 45.9263 86.3372 45.9263 86.3372C45.7744 85.42 43.6759 85.1129 43.6114 85.1035C43.442 84.9971 43.2834 84.8813 43.153 84.7816L43.1261 84.7601C43.1349 84.7399 43.1425 84.7192 43.1489 84.6981C43.3734 83.7823 42.1313 83.385 42.1313 83.385V83.1614C42.9379 82.7466 43.0978 79.8995 43.0978 79.8995C43.0978 79.8995 44.3077 76.379 44.4771 75.7918C44.6465 75.2046 44.4771 74.3252 44.4771 74.3252L44.5981 73.5656C44.5981 73.5656 44.8576 73.0484 44.8576 72.9447C44.8912 72.6819 44.9921 72.4323 45.1506 72.2201C45.3402 71.9952 44.9436 71.4606 44.9436 71.4606L45.2891 70.5636V69.5791L46.0957 66.0074C46.0957 66.0074 46.9413 61.8472 46.6482 60.4856C46.3552 59.124 46.9937 58.4317 46.9937 58.4317C46.9362 58.4621 46.8769 58.489 46.8163 58.5125C46.897 58.3256 46.9666 58.134 47.0246 57.9388L48.8395 58.1637V58.1907H49.4942C49.4942 58.1907 49.2871 55.6318 49.2871 54.6001C49.2871 53.5685 49.9848 49.8662 49.9848 49.8662C49.9848 49.8662 50.2954 46.2473 49.9848 46.1436ZM41.9283 43.1565C41.9283 43.2575 41.9189 43.3625 41.9122 43.4703L41.8759 43.5255L41.8086 43.4689L41.7266 43.5969L41.7024 43.609C41.525 43.5174 41.4336 42.9935 41.3059 43.1066L41.2884 43.1215C41.2602 43.0891 41.2319 43.0797 41.2023 43.1066L41.1755 43.1295C41.1755 43.0905 41.1755 43.0501 41.1755 43.0097C41.4214 43.0731 41.6743 43.1052 41.9283 43.1053C41.9296 43.1228 41.9283 43.1403 41.9283 43.1565ZM47.9643 55.0728H48.0033L47.9388 55.2425C47.9468 55.186 47.9549 55.1308 47.9643 55.0728ZM41.3381 85.614L41.0908 85.552L41.2252 85.5291L41.3502 85.6113L41.365 85.622L41.3381 85.614ZM43.8655 85.2517C43.7835 85.2086 43.7001 85.1587 43.6194 85.1076C43.6463 85.1224 43.7525 85.1776 43.8655 85.2517Z" fill="url(#paint1_linear_41:163)"/>
<path d="M48.857 52.5287L47.229 56.7792H47.6242L46.093 58.0021L48.857 58.3469V52.5287Z" fill="#F86D70"/>
<path opacity="0.1" d="M48.857 52.5287L47.229 56.7792L46.819 56.6688L46.093 58.0021L48.857 58.3469V52.5287Z" fill="black"/>
<path d="M46.304 55.2479H48.8568L49.7938 47.5241H46.304V55.2479Z" fill="#F86D70"/>
<path opacity="0.1" d="M46.304 55.2479H48.8568L49.7938 47.5241H46.304V55.2479Z" fill="black"/>
<path d="M41.3179 49.353L41.8691 49.2601L43.1354 49.0446C43.1354 49.0446 46.9385 48.1854 47.7236 48.1153C48.1992 48.0524 48.663 47.9199 49.1002 47.7221C49.3059 47.6332 49.4363 47.5658 49.4363 47.5658L48.0664 45.0595L45.941 43.481C45.941 43.481 44.5967 43.1942 44.0281 42.4104C43.9011 42.2417 43.8185 42.0438 43.7877 41.8349C43.757 41.6259 43.7791 41.4126 43.8519 41.2144C44.1988 40.137 41.7803 42.2447 41.7803 42.2447C41.7803 42.2447 41.8032 42.7497 41.7803 43.3935C41.7803 43.5201 41.7682 43.6521 41.7588 43.7868C41.7588 43.8757 41.7467 43.9645 41.7373 44.0561C41.6782 44.6958 41.5572 45.3544 41.3179 45.7477C40.7331 46.7093 41.3179 49.353 41.3179 49.353Z" fill="#FBBEBE"/>
<path opacity="0.1" d="M41.7804 43.4474H41.8342C41.931 43.4474 42.0089 43.2413 42.103 43.2319C42.8599 43.1592 43.5509 43.0002 44.0308 42.4629C43.9042 42.2943 43.8218 42.0967 43.791 41.888C43.7603 41.6793 43.7822 41.4663 43.8547 41.2683C44.2015 40.1908 41.7831 42.2972 41.7831 42.2972C41.7831 42.2972 41.8086 42.8036 41.7804 43.4474Z" fill="black"/>
<path d="M38.8363 40.3929C38.8361 40.7806 38.9122 41.1646 39.0603 41.5228C39.2083 41.8811 39.4253 42.2066 39.699 42.4808C39.9727 42.7549 40.2976 42.9724 40.6552 43.1207C41.0128 43.269 41.396 43.3452 41.7831 43.345C41.8799 43.345 41.9753 43.345 42.0708 43.3316C42.6386 43.2758 43.178 43.056 43.6235 42.699C44.0691 42.3421 44.4016 41.8632 44.5808 41.3205C44.7599 40.7779 44.778 40.1948 44.6328 39.642C44.4875 39.0893 44.1853 38.5907 43.7627 38.2067C43.34 37.8227 42.8153 37.5699 42.252 37.479C41.6888 37.388 41.1113 37.4628 40.5896 37.6943C40.068 37.9258 39.6246 38.304 39.3134 38.783C39.0022 39.2621 38.8364 39.8213 38.8363 40.3929Z" fill="#FBBEBE"/>
<path d="M37.9316 35.9121C37.8348 36.1626 37.8644 36.4427 37.8254 36.7081C37.6816 37.6656 36.7096 38.2394 35.8304 38.6407C34.9512 39.042 33.9591 39.5175 33.6795 40.4427C33.373 41.4434 34.0425 42.4467 34.5076 43.3854C35.4137 45.2144 35.5427 47.547 34.3732 49.2197C33.334 50.7012 31.5232 51.4042 29.8186 52.021C30.639 52.6676 31.6586 53.0077 32.7022 52.9827C32.311 54.1234 30.9196 54.5018 29.7339 54.7119C30.3563 55.3126 31.2476 55.5308 32.1012 55.6628C32.7237 55.7597 33.3622 55.823 33.9833 55.6978C34.6044 55.5725 35.1932 55.2345 35.5132 54.6877C35.782 54.2203 35.8734 53.5833 36.3587 53.3476C36.5778 53.2612 36.8138 53.2267 37.0484 53.2466L39.0649 53.2682C39.6927 53.2682 40.4361 53.2197 40.7601 52.6823C40.8796 52.4528 40.9423 52.1978 40.9429 51.9389C41.0303 50.6137 40.7762 49.213 41.3206 48.0036C41.4847 47.6386 40.432 47.0608 40.5423 46.6743C40.9214 45.345 41.0168 44.2986 41.0128 42.9154C41.0128 41.8447 41.7078 40.9222 42.2818 40.0185C42.8559 39.1148 43.3358 37.974 42.8828 37.0044C42.3719 35.9229 38.5352 34.3512 37.9316 35.9121Z" fill="#3F3D56"/>
<path d="M40.6162 85.2261L41.1297 85.5668L41.2091 85.6193L41.2238 85.6288L41.8328 86.0328L43.2551 86.2725L44.5054 86.1863C44.5054 86.1863 44.8656 85.4321 44.2997 85.4496C44.1184 85.4403 43.9417 85.3892 43.7834 85.3001L43.7055 85.2611C43.6235 85.218 43.5415 85.1695 43.4608 85.1183C43.2928 85.0119 43.1341 84.8961 43.0064 84.7978C42.8182 84.6523 42.6932 84.5419 42.6932 84.5419L40.6162 85.2261Z" fill="#FBBEBE"/>
<path opacity="0.1" d="M41.1365 85.5668L41.2158 85.6194L41.2306 85.6288L41.8396 86.0328L43.2619 86.2726L44.5121 86.1864C44.5121 86.1864 44.8724 85.4322 44.3064 85.4497C44.1251 85.4404 43.9484 85.3892 43.7902 85.3002C43.8897 85.3783 43.973 85.4631 43.9811 85.5345C44.0039 85.7271 43.0562 86.0732 43.0562 86.0732L41.7199 85.719C41.7199 85.719 41.4927 85.6544 41.1822 85.5736L41.1526 85.5655L41.1365 85.5668Z" fill="black"/>
<path d="M38.8511 85.8955C38.8511 85.8955 39.9467 86.1352 40.6834 86.0665C41.4201 85.9978 42.6891 86.6335 42.6891 86.6335C42.6891 86.6335 43.118 86.8355 44.4368 86.9217C45.7555 87.0079 45.7555 86.3372 45.7555 86.3372C45.605 85.4254 43.5213 85.1251 43.4567 85.1116C43.4823 85.1251 43.5912 85.1803 43.7014 85.2544C43.8493 85.3514 44.0093 85.478 44.0214 85.5803C44.0442 85.7716 43.0965 86.119 43.0965 86.119L41.7602 85.7662C41.7602 85.7662 41.533 85.7002 41.2225 85.6194H41.1929C40.7324 85.4937 40.2646 85.397 39.7921 85.3298C39.2167 85.2679 38.9223 85.7581 38.8618 85.8685C38.8574 85.8772 38.8538 85.8862 38.8511 85.8955Z" fill="#3F3D56"/>
<path d="M21.5818 61.6762L22.1639 62.1233C22.1639 62.1233 22.3333 62.1152 22.586 62.1071H22.6667C23.0283 62.0937 23.527 62.0802 23.9505 62.0802C24.2242 62.0679 24.4985 62.0832 24.7692 62.126C25.0596 62.2284 25.5758 60.4614 25.5758 60.4614L24.9923 60.3267L24.7988 60.2809L24.6643 60.2486L24.1898 60.1368L22.7514 60.3011L21.7404 60.9529L21.5818 61.6762Z" fill="#FBBEBE"/>
<path opacity="0.1" d="M21.5818 61.6762L22.1639 62.1233C22.1639 62.1233 22.3333 62.1152 22.586 62.1071C22.47 62.0623 22.3744 61.9766 22.3171 61.8661C21.9407 60.8196 23.808 60.3725 23.808 60.3725L24.6778 60.3348L24.8472 60.3267H24.9816L24.788 60.2809L24.6536 60.2486L24.179 60.1368L22.7406 60.3011L21.7297 60.9529L21.5818 61.6762Z" fill="black"/>
<path d="M20.4337 62.1489C20.7859 62.4748 23.0928 62.1489 23.1896 62.1408C23.0145 62.1606 22.8373 62.1482 22.6667 62.1044C22.5822 62.0893 22.5021 62.0554 22.4323 62.0053C22.3626 61.9552 22.3048 61.8902 22.2634 61.8149C21.8869 60.7671 23.7542 60.3213 23.7542 60.3213L24.624 60.2836L24.792 60.2755L26.9067 60.1839L27.0088 59.6008C27.0088 59.6008 26.3219 59.6654 25.2437 59.7516C24.6374 59.8014 23.8994 59.8567 23.1022 59.9092C20.8747 60.0573 20.345 61.5051 20.345 61.5051C20.345 61.5051 20.0748 61.8149 20.4337 62.1489Z" fill="#3F3D56"/>
<path d="M46.3054 36.8696C46.3197 36.9016 46.3368 36.9323 46.3565 36.9612L46.87 37.7154L48.2063 37.8501L48.2211 37.3195L48.4456 29.3357C48.4456 29.3357 49.3705 23.9809 47.6228 24.2893C45.8752 24.5977 46.9722 29.3357 46.9722 29.3357C46.9722 29.3357 46.7732 31.7384 46.6334 32.4603C46.4976 33.1579 45.8887 35.9942 46.3054 36.8696Z" fill="#FBBEBE"/>
<path d="M43.3062 56.6998L43.6866 57.3516L44.5376 58.8102C44.5376 58.8102 46.0808 59.3772 46.4761 58.9449C46.6925 58.7092 46.9264 57.8863 47.0904 57.194C47.2249 56.6338 47.3149 56.161 47.3149 56.161L43.3062 56.6998Z" fill="#FBBEBE"/>
<path opacity="0.1" d="M43.3062 56.6998L43.6866 57.3516C43.7105 57.3311 43.7321 57.308 43.7511 57.2829C44.1813 56.7334 46.0755 57.1658 47.0904 57.2008C47.2249 56.6405 47.3149 56.1678 47.3149 56.1678L43.3062 56.6998Z" fill="black"/>
<path opacity="0.1" d="M23.9506 62.0775C24.2243 62.0652 24.4986 62.0805 24.7693 62.1233C25.0596 62.2256 25.5759 60.4587 25.5759 60.4587L24.7988 60.2755L26.9135 60.1839L27.0156 59.6008C27.0156 59.6008 26.3287 59.6654 25.2505 59.7516C25.0277 59.8801 24.829 60.0465 24.6631 60.2432L24.6308 60.2836C24.1804 60.8371 24.0137 61.5509 23.9506 62.0775Z" fill="black"/>
<path opacity="0.1" d="M40.6162 85.2261L41.2091 85.6194C42.0936 85.4591 42.9016 85.2073 42.997 84.8113C42.9975 84.805 42.9975 84.7987 42.997 84.7925C42.8088 84.647 42.6838 84.5366 42.6838 84.5366L40.6162 85.2261Z" fill="black"/>
<path opacity="0.1" d="M38.8632 85.8725C39.6443 85.8336 40.4226 85.75 41.1942 85.622C40.7334 85.4954 40.2651 85.3978 39.7921 85.3298C39.2181 85.2678 38.9237 85.7581 38.8632 85.8725Z" fill="black"/>
<path d="M24.015 62.7576C24.015 63.1873 25.1967 63.462 25.1967 63.462L28.7954 66.6714C28.7954 66.6714 31.0566 67.6842 32.495 69.1428C33.9335 70.6013 35.2025 69.3488 35.2025 69.3488C36.727 68.9717 41.1175 63.6505 41.1175 63.6505C41.1175 63.6505 41.2197 69.7273 41.4254 70.173C41.6311 70.6188 41.3568 71.8377 41.2372 72.3535C41.1617 72.7837 41.1329 73.2208 41.1512 73.6572C41.1512 73.6572 39.507 79.9561 39.6442 80.5056C39.7813 81.0551 38.7529 83.6301 38.7529 83.6301V85.7756C38.7529 85.7756 42.7791 85.6207 43.001 84.7116C43.2228 83.8025 41.9914 83.4066 41.9914 83.4066V83.183C42.798 82.7709 42.9499 79.9399 42.9499 79.9399C42.9499 79.9399 44.1504 76.4383 44.3211 75.8551C44.4918 75.272 44.3211 74.3952 44.3211 74.3952L44.4407 73.641C44.4407 73.641 44.6975 73.1252 44.6975 73.0228C44.7311 72.7615 44.8316 72.5133 44.9892 72.3023C45.1774 72.0788 44.7835 71.5468 44.7835 71.5468L45.1263 70.6538V69.6761L45.9329 66.1233C45.9329 66.1233 46.7731 61.9859 46.4814 60.6297C46.1897 59.2735 46.8242 58.588 46.8242 58.588C45.449 59.3099 44.7553 57.7031 44.5281 57.0122C44.4703 56.8345 44.4421 56.7159 44.4421 56.7159C44.4421 56.7159 42.5533 56.0183 40.7949 56.1853C40.4378 56.2143 40.0859 56.289 39.7477 56.4075C37.7944 57.1119 37.4865 60.029 37.4865 60.029L35.7564 62.6728C34.8651 65.0243 33.5288 65.264 33.5288 65.264C33.5288 65.264 30.3939 63.1536 30.3024 63.0499C30.211 62.9462 29.0173 62.4317 29.0173 62.4317C28.8761 62.1828 28.6602 61.9849 28.4002 61.8661C27.9888 61.6937 27.9552 61.058 27.9552 61.058C27.9042 59.5644 27.0303 59.4418 27.0303 59.4418C23.9975 59.1886 24.015 62.3294 24.015 62.7576Z" fill="#3F3D56"/>
<path d="M41.4564 54.3658H43.3062V48.6163H41.4564V54.3658Z" fill="#F86D70"/>
<path opacity="0.1" d="M41.4564 54.3658H43.3062V48.6163H41.4564V54.3658Z" fill="black"/>
<path opacity="0.1" d="M46.3041 36.8575C46.3038 36.8616 46.3038 36.8656 46.3041 36.8697C46.3184 36.9016 46.3355 36.9323 46.3551 36.9612L46.8687 37.7154L48.2049 37.8501L48.2197 37.3195C47.803 37.2872 46.8539 37.1727 46.3041 36.8575Z" fill="black"/>
<path d="M46.3565 36.9612C46.3565 36.9612 46.4251 39.9807 45.6709 40.3929C44.9167 40.805 44.6237 42.9518 44.6237 42.9518C44.6237 42.9518 46.909 44.4575 47.4185 45.1201C47.928 45.7827 49.0976 47.3611 48.8569 47.7382C48.6163 48.1153 49.4404 49.8325 49.4404 49.8325C49.4404 49.8325 47.932 52.922 48.2748 54.0897C48.6177 55.2574 48.6513 58.3456 48.6513 58.3456H49.3033C49.3033 58.3456 49.0976 55.8055 49.0976 54.7752C49.0976 53.7449 49.7818 50.0722 49.7818 50.0722C49.7818 50.0722 50.091 46.4682 49.7818 46.3659C49.4726 46.2635 47.6578 44.8211 47.5207 44.1679C47.3836 43.5147 48.4805 37.434 48.4805 37.434C48.4805 37.434 47.0757 37.3734 46.3565 36.9612Z" fill="#F86D70"/>
<path opacity="0.1" d="M41.4214 48.083C41.4839 48.5032 41.6367 48.9048 41.8691 49.2601L43.1354 49.0447C43.1354 49.0447 46.9385 48.1854 47.7236 48.1154C48.1992 48.0525 48.663 47.92 49.1002 47.7221C48.7989 46.6524 48.2107 45.6859 47.3996 44.9275L46.917 44.479C46.2058 43.8176 45.3816 43.2897 44.4838 42.9208C44.5402 42.9679 48.5302 46.3807 47.6564 47.0501C46.7826 47.7194 44.43 46.0898 44.43 46.0898L41.7548 43.7868L41.658 43.7033L41.5034 43.9444C41.582 43.9768 41.6588 44.0137 41.7333 44.0548C42.645 44.5562 43.3216 45.3987 43.6153 46.3982C44.1652 48.25 41.4214 48.083 41.4214 48.083Z" fill="black"/>
<path d="M40.5986 56.6648C40.5986 56.6648 43.134 58.0721 43.7497 57.2829C43.8842 57.1092 44.1678 57.0338 44.5214 57.0136C44.4636 56.8358 44.4353 56.7173 44.4353 56.7173C44.4353 56.7173 42.5466 56.0197 40.7882 56.1867C40.6726 56.4776 40.5986 56.6648 40.5986 56.6648Z" fill="#444053"/>
<path d="M41.7655 43.706L44.5375 46.0952C44.5375 46.0952 46.8807 47.7302 47.7639 47.0554C48.6471 46.3807 44.5899 42.9248 44.5899 42.9248C45.4859 43.2949 46.3092 43.8211 47.0218 44.479L47.5045 44.9275C48.7735 46.1059 49.0598 46.1059 49.1029 47.8379C49.1136 48.2649 48.9684 48.8776 48.8568 48.9881C48.4455 49.3921 48.1578 52.3268 48.221 52.6702C48.2842 53.0136 47.4547 55.9779 47.7236 56.8021C47.9924 57.6264 44.3628 56.39 43.7484 57.1806C43.134 57.9711 40.5986 56.5624 40.5986 56.5624C40.5986 56.5624 42.0035 52.9571 42.3463 52.7173C42.6891 52.4776 43.1004 50.6231 42.3463 49.7652C41.5921 48.9073 41.5249 48.083 41.5249 48.083C41.5249 48.083 44.2673 48.2527 43.7175 46.4009C43.5628 45.8641 43.2944 45.3671 42.9307 44.9436C42.5669 44.5202 42.1163 44.1803 41.6096 43.947L41.7655 43.706Z" fill="#E8E8F0"/>
<path opacity="0.1" d="M45.4651 49.7827C45.4651 49.7827 44.4018 51.7907 43.0265 52.3119C42.9822 52.3281 42.9392 52.3429 42.8921 52.3564C41.4564 52.7941 45.5727 50.4049 45.4651 49.7827Z" fill="black"/>
<path d="M30.5942 32.0172C30.5942 32.0172 31.1078 33.3222 31.5191 33.768C31.9305 34.2138 34.9794 38.677 34.9794 38.677L35.2375 39.2158L35.4594 39.675L37.4127 39.469L37.5471 38.6797L37.4718 38.5882C37.2755 38.3525 36.7405 37.7195 36.3816 37.4434C35.9366 37.1013 35.0453 35.9687 35.0453 35.9687C35.0453 35.9687 32.2706 33.0838 32.0649 32.2946C31.8593 31.5054 29.0832 26.7728 28.4675 27.5916C27.8518 28.4105 30.5942 32.0172 30.5942 32.0172Z" fill="#FBBEBE"/>
<g opacity="0.1">
<path opacity="0.1" d="M36.2619 53.2466C36.0274 53.2263 35.7914 53.2604 35.5723 53.3463C35.0883 53.582 34.9969 54.219 34.728 54.6863C34.4135 55.2331 33.8139 55.5712 33.1968 55.6964C33.0742 55.7203 32.9503 55.7373 32.8258 55.7476C33.2188 55.7859 33.6152 55.7687 34.0034 55.6964C34.6205 55.5712 35.2201 55.2331 35.5346 54.6863C35.8035 54.219 35.8949 53.582 36.3789 53.3463C36.5059 53.289 36.6429 53.257 36.7822 53.252L36.2619 53.2466Z" fill="black"/>
<path opacity="0.1" d="M41.037 42.9154C41.037 41.8447 41.732 40.9222 42.3047 40.0185C42.8774 39.1148 43.3586 37.9741 42.9056 37.0044C42.5184 36.1761 40.1847 35.065 38.8377 35.2845C40.1564 35.4556 41.7817 36.3256 42.099 37.0044C42.552 37.9741 42.0708 39.1148 41.4981 40.0185C40.9254 40.9222 40.2277 41.8447 40.2304 42.9154C40.2304 44.2972 40.1376 45.3396 39.7585 46.6743C39.6496 47.0581 40.6995 47.6386 40.5382 48.0022C39.9924 49.2143 40.2479 50.6123 40.1605 51.9375C40.1587 52.1965 40.0955 52.4513 39.9763 52.681C39.7074 53.1241 39.1563 53.2385 38.6199 53.2628H39.089C39.7155 53.2628 40.4589 53.2143 40.7829 52.6769C40.9021 52.4472 40.9652 52.1924 40.9671 51.9335C41.0544 50.6083 40.799 49.209 41.3448 47.9982C41.5088 47.6346 40.4562 47.0554 40.5651 46.6703C40.9442 45.345 41.0397 44.2972 41.037 42.9154Z" fill="black"/>
</g>
<path opacity="0.1" d="M35.2375 39.2131L35.4594 39.6723L37.4127 39.4663L37.5471 38.6771L37.4718 38.5855C37.2635 38.6878 35.7027 39.4407 35.2375 39.2131Z" fill="black"/>
<path opacity="0.1" d="M42.4498 44.3753C42.4498 44.3753 41.9699 43.6211 41.6957 43.8258C41.4214 44.0305 41.3152 43.2077 41.1579 43.345C41.0007 43.4824 40.5422 43.8649 40.3514 43.3302C40.2021 42.9046 38.5782 40.2124 37.9195 39.1296C37.7501 38.8494 37.6439 38.6771 37.6439 38.6771C37.6439 38.6771 35.7941 39.6037 35.3491 39.2952V39.9471L35.7255 39.9821L37.742 43.7531C37.742 43.7531 38.3765 44.7645 38.3335 45.1174C38.2905 45.4703 39.1468 47.015 39.284 47.1174C39.4211 47.2197 40.8972 48.9369 40.8972 48.9369C40.8972 48.9369 41.6513 52.6446 40.9993 53.6749C40.3473 54.7052 39.2181 55.4594 39.2181 55.4594C39.2181 55.4594 38.878 56.4547 38.9277 56.5584C38.9775 56.6621 38.5325 57.1079 38.7382 57.2452C38.9438 57.3826 39.2181 58.3429 39.2181 58.3429C39.2181 58.3429 40.1779 56.7981 40.6968 56.5584C41.2158 56.3186 41.8799 53.1591 41.8799 53.1591C41.8799 53.1591 42.0694 51.2978 42.0842 50.0965C42.099 48.8951 42.0385 44.3753 42.4498 44.3753Z" fill="black"/>
<path d="M42.3463 44.3753C42.3463 44.3753 41.8678 43.6211 41.5935 43.8258C41.3193 44.0305 41.2117 43.2077 41.0558 43.345C40.8999 43.4824 40.4414 43.8649 40.2492 43.3302C40.0986 42.9046 38.4747 40.2124 37.8173 39.1296L37.5417 38.6771C37.5417 38.6771 35.6919 39.6037 35.2456 39.2952V39.9471L35.6234 39.9821L37.6399 43.7531C37.6399 43.7531 38.2757 44.7645 38.2314 45.1174C38.187 45.4703 39.038 47.015 39.1818 47.1174C39.3256 47.2197 40.795 48.9369 40.795 48.9369C40.795 48.9369 41.5492 52.6446 40.8985 53.6749C40.5548 54.1924 40.1367 54.6562 39.6577 55.0513C39.2554 55.3838 38.9722 55.8387 38.8511 56.3469C38.8278 56.4162 38.8195 56.4897 38.8269 56.5624C38.8766 56.6648 38.4317 57.1119 38.6373 57.2493C38.843 57.3866 39.12 58.3509 39.12 58.3509C39.12 58.3509 40.0798 56.8062 40.5987 56.5664C41.1176 56.3267 41.7831 53.1672 41.7831 53.1672C41.7831 53.1672 41.9713 51.3059 41.9874 50.1046C42.0035 48.9032 41.943 44.3753 42.3463 44.3753Z" fill="#F86D70"/>
<path opacity="0.1" d="M37.6519 59.9954C37.6519 59.9954 39.0917 60.2647 39.6684 60.6809C40.2452 61.097 37.4758 60.029 37.4758 60.029L37.6519 59.9954Z" fill="black"/>
<path opacity="0.1" d="M41.1135 63.6505C41.1135 63.6505 42.6151 64.9044 42.3463 66.0371C42.0774 67.1697 41.3837 70.0195 41.3837 70.0195L41.1135 63.6505Z" fill="black"/>
<path opacity="0.1" d="M27.9808 61.2398C27.9808 61.2398 25.8649 61.4714 26.002 61.7462C26.1391 62.0209 27.9808 61.493 27.9808 61.493V61.2398Z" fill="black"/>
<path opacity="0.1" d="M44.2284 71.6666C44.2284 71.6666 44.3628 71.8377 43.5777 71.6666C42.7926 71.4956 43.372 70.9676 43.372 70.9676L44.2284 71.6666Z" fill="black"/>
<path opacity="0.1" d="M43.9595 74.0356C43.9595 74.0356 42.8841 74.2067 42.3073 74.0356C41.7306 73.8646 43.9595 74.0356 43.9595 74.0356Z" fill="black"/>
<path opacity="0.1" d="M41.7467 83.3042C41.7467 83.3042 41.5585 83.0982 40.6161 83.4753C39.6738 83.8524 39.2973 83.8699 39.0231 83.7446C38.7489 83.6194 41.7467 83.3042 41.7467 83.3042Z" fill="black"/>
<path opacity="0.1" d="M42.7927 60.9475L41.4564 62.8101C41.4564 62.8101 42.1756 61.1792 42.7927 60.9475Z" fill="black"/>
<path opacity="0.1" d="M40.1954 43.8258C40.1954 43.8258 40.1376 44.444 39.2758 44.6851C38.4141 44.9261 38.2501 45.1214 38.2501 45.1214" fill="black"/>
<path opacity="0.1" d="M37.9557 39.3451C37.9557 39.3451 36.8184 40.1531 35.6313 39.9821L37.9557 39.3451Z" fill="black"/>
<path opacity="0.1" d="M38.8215 56.6472C38.8215 56.6472 39.1536 56.856 39.9508 55.9429L38.8215 56.6472Z" fill="black"/>
<path opacity="0.1" d="M47.1013 46.9652C47.1335 46.7982 47.0179 46.6433 46.909 46.5126L46.6859 46.2433C46.6423 46.1882 46.5932 46.1376 46.5393 46.0924C46.4049 45.9887 46.2328 45.9578 46.093 45.8648" fill="black"/>
<path opacity="0.1" d="M119.281 0.0147957C119.281 0.0147957 107.963 -0.669372 109.294 7.27668C109.294 7.27668 109.025 8.68138 110.299 9.31841C110.299 9.31841 110.32 8.72986 111.461 8.93053C111.867 8.99801 112.28 9.0179 112.691 8.98979C113.246 8.95139 113.774 8.73298 114.194 8.36757C114.194 8.36757 117.376 7.05042 118.613 1.84104C118.613 1.84104 119.528 0.704352 119.492 0.412099L117.582 1.2296C117.582 1.2296 118.235 2.61006 117.716 3.75752C117.716 3.75752 117.654 1.27943 117.287 1.3333C117.213 1.34542 116.295 1.81141 116.295 1.81141C116.295 1.81141 117.418 4.21543 116.571 5.96356C116.571 5.96356 116.892 3.00062 115.944 1.98515L114.6 2.77167C114.6 2.77167 115.912 5.25515 115.022 7.28206C115.022 7.28206 115.251 4.17368 114.316 2.96292L113.098 3.91509C113.098 3.91509 114.331 6.36355 113.58 8.04435C113.58 8.04435 113.481 4.42553 112.835 4.15213C112.835 4.15213 111.769 5.09488 111.606 5.48006C111.606 5.48006 112.45 7.25782 111.926 8.19519C111.926 8.19519 111.605 5.78444 111.341 5.77097C111.341 5.77097 110.279 7.36826 110.169 8.46454C110.169 8.46454 110.215 6.83628 111.085 5.62013C111.085 5.62013 110.057 5.79656 109.458 6.46322C109.458 6.46322 109.623 5.33461 111.347 5.23629C111.347 5.23629 112.224 4.02418 112.458 3.95011C112.458 3.95011 110.746 3.80735 109.707 4.26795C109.707 4.26795 110.621 3.20264 112.773 3.68749L113.976 2.70298C113.976 2.70298 111.72 2.39457 110.763 2.73531C110.763 2.73531 111.864 1.79256 114.3 2.47942L115.61 1.69559C115.61 1.69559 113.686 1.28078 112.54 1.42623C112.54 1.42623 113.75 0.773038 115.994 1.48145L116.935 1.0599C116.935 1.0599 115.526 0.782465 115.113 0.738021C114.701 0.693577 114.679 0.580447 114.679 0.580447C115.572 0.431338 116.488 0.533446 117.326 0.875394C117.326 0.875394 119.316 0.140047 119.281 0.0147957Z" fill="#6C63FF"/>
<path opacity="0.1" d="M105.321 2.03634C105.321 2.03634 100.213 1.72658 100.811 5.31712C100.811 5.31712 100.692 5.9528 101.264 6.24101C101.264 6.24101 101.274 5.97166 101.79 6.06458C101.973 6.0955 102.16 6.10454 102.345 6.09152C102.596 6.07443 102.834 5.97558 103.024 5.81004C103.024 5.81004 104.462 5.21611 105.022 2.86192C105.022 2.86192 105.434 2.34745 105.418 2.21546L104.555 2.58448C104.555 2.58448 104.851 3.20939 104.618 3.72791C104.618 3.72791 104.59 2.60738 104.425 2.63431C104.391 2.63431 103.976 2.8498 103.976 2.8498C103.976 2.8498 104.484 3.93666 104.101 4.72722C104.101 4.72722 104.246 3.38852 103.817 2.92926L103.209 3.28481C103.209 3.28481 103.804 4.40669 103.4 5.3225C103.4 5.3225 103.504 3.9178 103.082 3.37101L102.532 3.80602C102.532 3.80602 103.088 4.91308 102.75 5.67132C102.75 5.67132 102.705 4.03632 102.412 3.91376C102.412 3.91376 101.931 4.33935 101.857 4.51443C101.857 4.51443 102.239 5.3225 102.002 5.74001C102.002 5.74001 101.857 4.65046 101.733 4.64642C101.733 4.64642 101.255 5.36829 101.204 5.85853C101.228 5.40101 101.37 4.95768 101.618 4.57234C101.341 4.6249 101.085 4.75737 100.882 4.95348C100.882 4.95348 100.958 4.4444 101.736 4.39861C101.736 4.39861 102.139 3.85181 102.239 3.81814C102.239 3.81814 101.465 3.7535 100.995 3.96225C100.995 3.96225 101.408 3.4801 102.381 3.69289L102.919 3.24845C102.919 3.24845 101.9 3.11377 101.467 3.26326C101.467 3.26326 101.965 2.83768 103.066 3.14744L103.657 2.79323C103.657 2.79323 102.789 2.60468 102.27 2.67337C102.27 2.67337 102.817 2.37708 103.831 2.69761L104.254 2.50772C104.254 2.50772 103.617 2.38112 103.43 2.36226C103.243 2.34341 103.234 2.29088 103.234 2.29088C103.637 2.22363 104.052 2.27026 104.43 2.42556C104.43 2.42556 105.338 2.09291 105.321 2.03634Z" fill="#6C63FF"/>
<path d="M123.166 87.6436C126.151 87.6436 128.571 87.2336 128.571 86.7278C128.571 86.222 126.151 85.812 123.166 85.812C120.181 85.812 117.76 86.222 117.76 86.7278C117.76 87.2336 120.181 87.6436 123.166 87.6436Z" fill="#6C63FF"/>
<path d="M125.402 85.2301C125.648 85.0287 125.828 84.7567 125.916 84.4504C125.984 84.1419 125.852 83.777 125.556 83.6571C125.225 83.5305 124.872 83.7608 124.604 83.9924C124.337 84.2241 124.029 84.4894 123.679 84.4396C123.86 84.2757 123.994 84.0679 124.071 83.8364C124.147 83.6049 124.162 83.3575 124.115 83.1184C124.1 83.0193 124.058 82.9262 123.994 82.849C123.81 82.6524 123.478 82.7359 123.257 82.8908C122.558 83.3837 122.363 84.3359 122.359 85.1911C122.289 84.8827 122.349 84.5608 122.347 84.2483C122.346 83.9359 122.258 83.5749 121.991 83.4093C121.826 83.3204 121.64 83.2767 121.453 83.2827C121.14 83.2706 120.789 83.3029 120.575 83.5332C120.306 83.8187 120.378 84.2982 120.609 84.6106C120.84 84.9231 121.194 85.1237 121.519 85.3406C121.779 85.496 122.001 85.7082 122.168 85.9614C122.189 85.9968 122.205 86.0343 122.217 86.0732H124.188C124.628 85.8484 125.037 85.5648 125.402 85.2301Z" fill="#6C63FF"/>
</g>
<defs>
<linearGradient id="paint0_linear_41:163" x1="108.69" y1="68.0034" x2="108.69" y2="13.8221" gradientUnits="userSpaceOnUse">
<stop stop-color="#808080" stop-opacity="0.25"/>
<stop offset="0.54" stop-color="#808080" stop-opacity="0.12"/>
<stop offset="1" stop-color="#808080" stop-opacity="0.1"/>
</linearGradient>
<linearGradient id="paint1_linear_41:163" x1="5357.33" y1="33748.4" x2="11997.2" y2="33748.4" gradientUnits="userSpaceOnUse">
<stop stop-color="#808080" stop-opacity="0.25"/>
<stop offset="0.54" stop-color="#808080" stop-opacity="0.12"/>
<stop offset="1" stop-color="#808080" stop-opacity="0.1"/>
</linearGradient>
<clipPath id="clip0_41:163">
<rect width="153.791" height="87.8806" fill="white"/>
</clipPath>
</defs>
</svg>
