<svg width="200" height="153" viewBox="0 0 200 153" fill="none" xmlns="http://www.w3.org/2000/svg">
<g clip-path="url(#clip0)">
<path d="M102.601 150.849V112.525C102.602 111.988 102.815 111.473 103.195 111.093C103.575 110.714 104.089 110.5 104.626 110.5H109.224C109.761 110.5 110.276 110.714 110.656 111.093C111.035 111.473 111.249 111.988 111.249 112.525V150.849C111.249 151.386 111.035 151.901 110.656 152.28C110.276 152.66 109.761 152.874 109.224 152.874H104.626C104.089 152.874 103.575 152.66 103.195 152.28C102.815 151.901 102.602 151.386 102.601 150.849V150.849Z" fill="#2F2E41"/>
<path d="M93.5063 150.849V112.525C93.507 111.988 93.7205 111.473 94.1002 111.093C94.4798 110.714 94.9945 110.5 95.5314 110.5H100.13C100.667 110.5 101.181 110.714 101.561 111.093C101.941 111.473 102.154 111.988 102.155 112.525V150.849C102.154 151.386 101.941 151.901 101.561 152.28C101.181 152.66 100.667 152.874 100.13 152.874H95.5314C94.9945 152.874 94.4798 152.66 94.1002 152.28C93.7205 151.901 93.507 151.386 93.5063 150.849V150.849Z" fill="#2F2E41"/>
<path d="M111.687 99.8721H93.069C92.0366 99.8721 91.1997 100.709 91.1997 101.741V122.772C91.1997 123.805 92.0366 124.642 93.069 124.642H111.687C112.719 124.642 113.556 123.805 113.556 122.772V101.741C113.556 100.709 112.719 99.8721 111.687 99.8721Z" fill="#2F2E41"/>
<path d="M71.0785 39.6602C71.0785 39.6602 61.6827 44.025 53.7318 46.9198C48.7978 35.7817 41.6897 36.1986 41.6897 36.1986L37.3802 39.1658L38.1573 43.6164L37.9454 50.893L36.8151 54.7079L38.4371 55.0011L39.3534 55.1672L39.4915 55.0423C39.2629 55.9482 39.1704 56.8832 39.217 57.8164L79.9799 51.4583C79.9799 51.4583 78.567 44.8882 71.0785 39.6602Z" fill="#E6E6E6"/>
<path d="M59.0417 96.947L61.7747 100.645C62.3883 101.475 63.5588 101.651 64.389 101.037L95.2097 78.259C96.0399 77.6454 96.2156 76.4749 95.602 75.6447L92.869 71.9468C92.2554 71.1165 91.0849 70.9409 90.2547 71.5545L59.434 94.3327C58.6038 94.9463 58.4282 96.1167 59.0417 96.947Z" fill="#F2C85B"/>
<path d="M111.559 70.6907L107.497 72.8462C106.585 73.3301 106.238 74.4617 106.722 75.3736L124.687 109.226C125.171 110.138 126.303 110.485 127.215 110.001L131.277 107.846C132.188 107.362 132.535 106.23 132.051 105.318L114.086 71.4656C113.602 70.5537 112.471 70.2067 111.559 70.6907Z" fill="#F2C85B"/>
<path d="M122.945 85.715L116.312 90.1126C115.298 90.6506 114.084 90.3474 113.6 89.4355L106.274 75.6306C105.79 74.7187 106.219 73.5433 107.233 73.0053L111.748 70.6092C112.762 70.0713 113.976 70.3744 114.46 71.2863L123.905 83.0898C124.388 84.0017 123.959 85.177 122.945 85.715Z" fill="#CCCCCC"/>
<path d="M77.7402 81.6711L82.0518 87.3969C82.3911 87.7584 82.8601 87.9703 83.3556 87.986C83.8511 88.0017 84.3326 87.8199 84.694 87.4806L96.0892 76.7849C96.4507 76.4456 96.6626 75.9766 96.6783 75.4811C96.6939 74.9856 96.5122 74.5042 96.1729 74.1427L93.0259 70.7899C92.6866 70.4285 92.2177 70.2166 91.7222 70.2009C91.2267 70.1852 90.7452 70.367 90.3837 70.7063L77.8239 79.0288C77.4624 79.3681 77.2505 79.8371 77.2348 80.3326C77.2191 80.8281 77.4009 81.3096 77.7402 81.6711V81.6711Z" fill="#CCCCCC"/>
<path d="M112.824 70.1396H91.9313C90.8989 70.1396 90.062 70.9765 90.062 72.0089V116.396C90.062 117.429 90.8989 118.266 91.9313 118.266H112.824C113.857 118.266 114.693 117.429 114.693 116.396V72.0089C114.693 70.9765 113.857 70.1396 112.824 70.1396Z" fill="#CCCCCC"/>
<path d="M102.256 67.243C111.464 67.243 118.929 59.7779 118.929 50.5694C118.929 41.3608 111.464 33.8958 102.256 33.8958C93.0472 33.8958 85.5822 41.3608 85.5822 50.5694C85.5822 59.7779 93.0472 67.243 102.256 67.243Z" fill="#F2C85B"/>
<path d="M104.199 56.1364C103.169 56.1075 101.887 56.0716 100.9 55.3506C100.606 55.127 100.364 54.8417 100.192 54.5149C100.02 54.188 99.9214 53.8275 99.9032 53.4585C99.8854 53.1963 99.9284 52.9336 100.029 52.6908C100.129 52.448 100.285 52.2317 100.483 52.059C100.998 51.6233 101.751 51.5204 102.563 51.7596L101.722 45.6139L102.34 45.5293L103.328 52.7541L102.813 52.5178C102.215 52.2433 101.395 52.104 100.885 52.5348C100.76 52.6474 100.662 52.7873 100.6 52.9437C100.538 53.1001 100.512 53.2688 100.526 53.4366C100.541 53.7112 100.615 53.9794 100.743 54.2228C100.871 54.4662 101.05 54.6793 101.268 54.8473C102.035 55.4084 103.058 55.4811 104.217 55.5133L104.199 56.1364Z" fill="#2F2E41"/>
<path d="M98.6695 46.1438H95.3137V46.7669H98.6695V46.1438Z" fill="#2F2E41"/>
<path d="M109.262 46.1438H105.906V46.7669H109.262V46.1438Z" fill="#2F2E41"/>
<path d="M91.2409 37.5398C88.5385 37.2316 86.4455 34.6423 86.2157 32.0152C85.9422 28.8897 87.7623 25.9212 90.2595 24.1674C92.8709 22.3332 96.1245 21.5673 99.2725 21.3987C105.413 21.0931 111.449 23.0823 116.204 26.9796C118.563 28.9387 120.766 31.4343 121.601 34.4487C122.326 37.0665 121.736 40.0322 119.631 41.8657C119.11 42.315 118.502 42.6515 117.844 42.8539C117.187 43.0563 116.495 43.1202 115.811 43.0417C114.177 42.8721 112.67 42.013 111.365 41.0644C108.827 39.2189 106.744 36.6481 103.651 35.6838C101.384 34.9767 98.4417 35.5991 97.0561 37.6495C96.7417 38.1188 96.538 38.6534 96.4602 39.213C96.4316 39.3323 96.4494 39.4581 96.51 39.5648C96.5706 39.6716 96.6695 39.7513 96.7866 39.7878C96.9061 39.82 97.0335 39.8038 97.1411 39.7427C97.2487 39.6816 97.3279 39.5806 97.3615 39.4615C97.7252 36.8789 100.901 35.9153 103.129 36.5051C106.378 37.365 108.559 40.2642 111.225 42.1062C112.626 43.0746 114.22 43.849 115.939 43.9879C117.421 44.1042 118.891 43.6524 120.052 42.7243C122.33 40.9261 123.201 37.8332 122.697 35.0486C122.114 31.824 119.943 29.0603 117.562 26.9206C112.734 22.6287 106.467 20.3134 100.008 20.436C96.7143 20.5117 93.2772 21.1917 90.4393 22.9328C87.6866 24.6217 85.5589 27.4471 85.2809 30.7314C85.0361 33.6222 86.5871 36.6458 89.2494 37.9123C89.8772 38.2096 90.5503 38.3996 91.2409 38.4744C91.8375 38.5424 91.8326 37.6073 91.2409 37.5398H91.2409Z" fill="#2F2E41"/>
<path d="M39.3232 54.602L41.3013 53.9661C41.5132 53.56 41.1254 53.8205 41.3105 53.4256C46.315 42.7488 41.6898 36.1985 41.6898 36.1985L38.1118 38.6621C38.103 38.6419 38.0958 38.6209 38.0869 38.6005C38.0869 38.6005 37.451 37.1876 36.462 38.2473C36.462 38.2473 39.5704 45.8065 36.1088 55.2024L40.1356 57.0393L41.6898 55.2024L41.7251 55.0258L38.9436 54.773L39.3232 54.602Z" fill="#CCCCCC"/>
<path d="M95.7342 94.2698C79.8387 90.7375 65.0383 98.0493 65.0383 98.0493L64.9981 98.0133L59.104 92.7509L36.0734 55.1671L41.6897 55.2024C57.3026 45.8771 79.2735 47.1487 79.2735 47.1487C88.7402 57.8869 95.7342 94.2698 95.7342 94.2698Z" fill="#3F3D56"/>
<path opacity="0.1" d="M64.9981 98.0132L59.1041 92.7508L36.0734 55.167L41.6897 55.2023C41.6897 55.2023 64.0747 84.7671 64.9981 98.0132Z" fill="black"/>
<path d="M67.5848 68.6885C72.3967 67.2126 75.537 63.5365 74.5988 60.4778C73.6606 57.419 68.9993 56.1359 64.1873 57.6118C59.3754 59.0877 56.2352 62.7638 57.1733 65.8225C58.1115 68.8813 62.7729 70.1644 67.5848 68.6885Z" fill="#F2C85B"/>
<path d="M18.3847 36.9441C17.1155 41.6358 12.7683 44.5414 12.7683 44.5414C12.7683 44.5414 10.4788 39.8404 11.748 35.1488C13.0172 30.4572 17.3644 27.5515 17.3644 27.5515C17.3644 27.5515 19.6539 32.2525 18.3847 36.9441Z" fill="#CCCCCC"/>
<path d="M6.83871 36.9441C8.10789 41.6358 12.4551 44.5414 12.4551 44.5414C12.4551 44.5414 14.7446 39.8404 13.4754 35.1488C12.2062 30.4572 7.85902 27.5515 7.85902 27.5515C7.85902 27.5515 5.56954 32.2525 6.83871 36.9441Z" fill="#CCCCCC"/>
<path d="M8.70373 35.936C12.1864 39.3263 12.6117 44.5378 12.6117 44.5378C12.6117 44.5378 7.39066 44.2527 3.90802 40.8625C0.425376 37.4723 0 32.2607 0 32.2607C0 32.2607 5.22109 32.5458 8.70373 35.936Z" fill="#3F3D56"/>
<path d="M16.5198 35.936C13.0372 39.3263 12.6118 44.5378 12.6118 44.5378C12.6118 44.5378 17.8329 44.2527 21.3156 40.8625C24.7982 37.4723 25.2236 32.2607 25.2236 32.2607C25.2236 32.2607 20.0025 32.5458 16.5198 35.936Z" fill="#3F3D56"/>
<path d="M193.161 89.9068C191.892 94.5984 187.545 97.5041 187.545 97.5041C187.545 97.5041 185.255 92.8031 186.525 88.1114C187.794 83.4198 192.141 80.5142 192.141 80.5142C192.141 80.5142 194.43 85.2152 193.161 89.9068Z" fill="#CCCCCC"/>
<path d="M181.615 89.9068C182.884 94.5984 187.232 97.5041 187.232 97.5041C187.232 97.5041 189.521 92.8031 188.252 88.1114C186.983 83.4198 182.636 80.5142 182.636 80.5142C182.636 80.5142 180.346 85.2152 181.615 89.9068Z" fill="#CCCCCC"/>
<path d="M183.48 88.8984C186.963 92.2886 187.388 97.5002 187.388 97.5002C187.388 97.5002 182.167 97.2151 178.685 93.8249C175.202 90.4346 174.777 85.2231 174.777 85.2231C174.777 85.2231 179.998 85.5082 183.48 88.8984Z" fill="#3F3D56"/>
<path d="M191.296 88.8984C187.814 92.2886 187.388 97.5002 187.388 97.5002C187.388 97.5002 192.609 97.2151 196.092 93.8249C199.575 90.4346 200 85.2231 200 85.2231C200 85.2231 194.779 85.5082 191.296 88.8984Z" fill="#3F3D56"/>
<path d="M138.937 152.681H66.6589V153.304H138.937V152.681Z" fill="#3F3D56"/>
</g>
<defs>
<clipPath id="clip0">
<rect width="200" height="153" fill="white"/>
</clipPath>
</defs>
</svg>
