<svg width="200" height="187" viewBox="0 0 200 187" fill="none" xmlns="http://www.w3.org/2000/svg">
<g clip-path="url(#clip0)">
<path d="M94.29 1.55952L88.1701 4.8987L12.7708 46.0382L6.65081 49.3774C3.6812 51.002 1.4773 53.7382 0.522598 56.9858C-0.4321 60.2333 -0.0596243 63.7269 1.55831 66.7002L57.7064 169.607C59.331 172.576 62.0672 174.78 65.3148 175.735C68.5623 176.69 72.0559 176.317 75.0292 174.699L75.045 174.691L162.653 126.89L162.668 126.881C165.638 125.257 167.842 122.521 168.797 119.273C169.751 116.026 169.379 112.532 167.761 109.559L111.613 6.65205C109.988 3.68245 107.252 1.47853 104.004 0.523828C100.757 -0.430879 97.2633 -0.0584108 94.29 1.55952V1.55952Z" fill="#F2F2F2"/>
<path d="M96.0497 4.78382L88.801 8.73885L15.6589 48.6468L8.41037 52.6017C6.29564 53.7587 4.72618 55.7072 4.04631 58.0198C3.36644 60.3325 3.63169 62.8204 4.78386 64.9377L60.9319 167.844C62.0889 169.959 64.0374 171.529 66.3501 172.208C68.6627 172.888 71.1506 172.623 73.2679 171.471L73.2837 171.462L160.891 123.662L160.907 123.653C163.022 122.496 164.591 120.547 165.271 118.235C165.951 115.922 165.686 113.434 164.534 111.317L108.386 8.41037C107.229 6.29566 105.28 4.7262 102.968 4.04632C100.655 3.36645 98.167 3.63167 96.0497 4.78382V4.78382Z" fill="white"/>
<path d="M97.2579 36.7269L64.5837 54.5547C64.0887 54.8248 63.5067 54.8871 62.9657 54.7281C62.4247 54.5691 61.969 54.2016 61.699 53.7066C61.4289 53.2116 61.3665 52.6296 61.5255 52.0886C61.6846 51.5477 62.052 51.092 62.547 50.8219L95.2213 32.9941C95.7163 32.724 96.2983 32.6617 96.8393 32.8207C97.3802 32.9797 97.8359 33.3472 98.106 33.8422C98.3761 34.3371 98.4384 34.9192 98.2794 35.4601C98.1204 36.0011 97.7529 36.4568 97.2579 36.7269H97.2579Z" fill="#F2F2F2"/>
<path d="M108.394 38.8265L68.0212 60.855C67.5262 61.125 66.9442 61.1874 66.4032 61.0284C65.8622 60.8694 65.4065 60.5019 65.1364 60.0069C64.8664 59.5119 64.804 58.9299 64.963 58.3889C65.1221 57.8479 65.4895 57.3923 65.9845 57.1222L106.357 35.0937C106.603 34.96 106.872 34.8759 107.149 34.8461C107.427 34.8163 107.708 34.8416 107.975 34.9203C108.243 34.999 108.493 35.1298 108.71 35.305C108.928 35.4803 109.108 35.6967 109.242 35.9418C109.376 36.1869 109.46 36.4559 109.49 36.7335C109.52 37.0111 109.494 37.2919 109.416 37.5598C109.337 37.8276 109.206 38.0774 109.031 38.2947C108.856 38.5121 108.639 38.6928 108.394 38.8265H108.394Z" fill="#F2F2F2"/>
<path d="M51.1514 47.1312L21.0275 63.5674C20.7904 63.6969 20.6144 63.9152 20.5382 64.1744C20.462 64.4336 20.4919 64.7124 20.6212 64.9496L33.4487 88.4594C33.5782 88.6966 33.7965 88.8726 34.0557 88.9488C34.3149 89.025 34.5937 88.9951 34.8309 88.8658L64.9548 72.4296C65.192 72.3001 65.368 72.0818 65.4442 71.8226C65.5204 71.5634 65.4905 71.2846 65.3611 71.0474L52.5336 47.5376C52.4042 47.3004 52.1859 47.1244 51.9267 47.0482C51.6675 46.972 51.3886 47.0019 51.1514 47.1312V47.1312Z" fill="#F2F2F2"/>
<path d="M113.47 66.556L69.1515 90.7372C68.9064 90.871 68.6374 90.9551 68.3598 90.9849C68.0822 91.0146 67.8014 90.9894 67.5335 90.9107C67.2657 90.8319 67.0159 90.7012 66.7986 90.5259C66.5812 90.3506 66.4005 90.1343 66.2668 89.8892C66.1331 89.6441 66.0489 89.3751 66.0192 89.0974C65.9894 88.8198 66.0147 88.5391 66.0934 88.2712C66.1721 88.0033 66.3029 87.7536 66.4781 87.5362C66.6534 87.3189 66.8698 87.1382 67.1149 87.0045L111.433 62.8232C111.928 62.5531 112.51 62.4908 113.051 62.6498C113.592 62.8088 114.048 63.1763 114.318 63.6713C114.588 64.1663 114.65 64.7483 114.491 65.2893C114.332 65.8302 113.965 66.2859 113.47 66.556H113.47Z" fill="#F2F2F2"/>
<path d="M124.606 68.6556L72.589 97.0374C72.094 97.3075 71.512 97.3698 70.971 97.2108C70.4301 97.0518 69.9744 96.6843 69.7043 96.1893C69.4342 95.6943 69.3719 95.1123 69.5309 94.5713C69.6899 94.0304 70.0574 93.5747 70.5524 93.3046L122.57 64.9228C123.065 64.6528 123.647 64.5904 124.188 64.7494C124.729 64.9084 125.184 65.2759 125.454 65.7709C125.725 66.2659 125.787 66.8479 125.628 67.3889C125.469 67.9298 125.101 68.3855 124.606 68.6556H124.606Z" fill="#F2F2F2"/>
<path d="M52.2732 110.54C57.2549 110.54 61.2933 106.502 61.2933 101.52C61.2933 96.5384 57.2549 92.5 52.2732 92.5C47.2916 92.5 43.2532 96.5384 43.2532 101.52C43.2532 106.502 47.2916 110.54 52.2732 110.54Z" fill="#F2F2F2"/>
<path d="M187.232 43.9624H87.3963C84.0114 43.9662 80.7661 45.3126 78.3726 47.7061C75.9791 50.0996 74.6327 53.3449 74.6289 56.7298V173.958C74.6327 177.343 75.9791 180.588 78.3726 182.981C80.7661 185.375 84.0114 186.721 87.3963 186.725H187.232C190.617 186.721 193.863 185.375 196.256 182.981C198.65 180.588 199.996 177.343 200 173.958V56.7298C199.996 53.3449 198.65 50.0996 196.256 47.7061C193.863 45.3126 190.617 43.9662 187.232 43.9624V43.9624Z" fill="#E6E6E6"/>
<path d="M187.232 47.6367H87.3964C84.9859 47.6394 82.6749 48.5982 80.9704 50.3027C79.2659 52.0071 78.3071 54.3181 78.3044 56.7286V173.956C78.3071 176.367 79.2659 178.678 80.9704 180.382C82.6749 182.087 84.9859 183.046 87.3964 183.048H187.232C189.643 183.045 191.954 182.087 193.658 180.382C195.363 178.678 196.321 176.367 196.324 173.956V56.7286C196.321 54.3182 195.363 52.0072 193.658 50.3027C191.954 48.5982 189.643 47.6394 187.232 47.6367V47.6367Z" fill="white"/>
<path d="M172.994 76.2543H135.772C135.208 76.2543 134.668 76.0303 134.269 75.6315C133.87 75.2328 133.646 74.692 133.646 74.1281C133.646 73.5642 133.87 73.0234 134.269 72.6247C134.668 72.226 135.208 72.002 135.772 72.002H172.994C173.273 72.0016 173.55 72.0564 173.808 72.1631C174.066 72.2698 174.301 72.4264 174.499 72.6239C174.696 72.8213 174.853 73.0558 174.96 73.3139C175.067 73.572 175.122 73.8487 175.122 74.1281C175.122 74.4075 175.067 74.6842 174.96 74.9423C174.853 75.2004 174.696 75.4349 174.499 75.6324C174.301 75.8298 174.066 75.9864 173.808 76.0931C173.55 76.1998 173.273 76.2546 172.994 76.2543Z" fill="#AE1B1B"/>
<path d="M181.764 83.4319H135.772C135.208 83.4319 134.668 83.2079 134.269 82.8092C133.87 82.4105 133.646 81.8697 133.646 81.3058C133.646 80.7419 133.87 80.2011 134.269 79.8024C134.668 79.4037 135.208 79.1797 135.772 79.1797H181.764C182.328 79.1797 182.869 79.4037 183.267 79.8024C183.666 80.2011 183.89 80.7419 183.89 81.3058C183.89 81.8697 183.666 82.4105 183.267 82.8092C182.869 83.2079 182.328 83.4319 181.764 83.4319V83.4319Z" fill="#AE1B1B"/>
<path d="M127.536 63.3081H93.2196C92.9495 63.3082 92.6904 63.4155 92.4994 63.6066C92.3083 63.7976 92.201 64.0567 92.2009 64.3268V91.1085C92.201 91.3786 92.3083 91.6377 92.4994 91.8288C92.6904 92.0198 92.9495 92.1272 93.2196 92.1272H127.536C127.806 92.1272 128.065 92.0198 128.256 91.8288C128.447 91.6377 128.555 91.3786 128.555 91.1085V64.3268C128.555 64.0567 128.447 63.7976 128.256 63.6066C128.065 63.4155 127.806 63.3082 127.536 63.3081V63.3081Z" fill="#E6E6E6"/>
<path d="M102.633 79.7521C102.647 82.013 101.813 84.1972 100.297 85.8741C98.7964 87.5209 96.5626 88.613 94.3083 88.1611C92.2326 87.7451 90.5459 85.9308 90.7563 83.7361C90.7912 83.2607 90.9294 82.7986 91.1612 82.3821C91.393 81.9656 91.7128 81.6047 92.0984 81.3244C92.4839 81.0442 92.926 80.8514 93.3937 80.7596C93.8614 80.6677 94.3436 80.679 94.8065 80.7925C96.7783 81.3043 97.564 84.1462 95.9209 85.4801C95.5266 85.8002 94.9601 85.2404 95.3581 84.9173C96.4443 84.0355 96.1088 82.1064 94.7977 81.6226C93.2713 81.0593 91.654 82.2708 91.5442 83.8313C91.4141 85.6816 92.8315 87.075 94.5697 87.4031C96.4501 87.7579 98.3144 86.7955 99.5886 85.4671C101.049 83.9245 101.855 81.8761 101.837 79.7521C101.84 79.6489 101.884 79.5512 101.958 79.4795C102.032 79.4078 102.131 79.3677 102.235 79.3677C102.338 79.3677 102.437 79.4078 102.511 79.4795C102.585 79.5512 102.629 79.6489 102.633 79.7521V79.7521Z" fill="#2F2E41"/>
<path d="M110.404 84.8101C118.246 84.8101 124.603 78.4533 124.603 70.6118C124.603 62.7704 118.246 56.4136 110.404 56.4136C102.563 56.4136 96.2061 62.7704 96.2061 70.6118C96.2061 78.4533 102.563 84.8101 110.404 84.8101Z" fill="#D76363"/>
<path d="M109.678 76.6718L109.663 76.1412C110.65 76.1137 111.52 76.0518 112.174 75.5741C112.36 75.4309 112.512 75.2495 112.621 75.0422C112.73 74.8349 112.793 74.6066 112.806 74.3727C112.818 74.2298 112.796 74.0862 112.743 73.953C112.69 73.8198 112.607 73.7007 112.5 73.6048C112.066 73.2382 111.368 73.3568 110.859 73.5903L110.42 73.7916L111.261 67.6392L111.787 67.7112L111.071 72.9447C111.763 72.7413 112.404 72.8288 112.843 73.1996C113.011 73.3468 113.144 73.5309 113.229 73.7376C113.315 73.9444 113.352 74.1681 113.336 74.3914C113.321 74.7056 113.237 75.0126 113.09 75.291C112.944 75.5693 112.738 75.8122 112.487 76.0026C111.647 76.6166 110.555 76.6472 109.678 76.6718Z" fill="white"/>
<path d="M117.245 68.1616H114.387V68.6922H117.245V68.1616Z" fill="white"/>
<path d="M108.225 68.1616H105.367V68.6922H108.225V68.1616Z" fill="white"/>
<path d="M102.539 92.1256C103.603 91.4504 104.753 90.9213 105.959 90.5525C105.844 90.1437 105.845 89.7108 105.964 89.303C106.124 88.7878 106.446 88.3382 106.883 88.0212C107.319 87.7042 107.847 87.5369 108.386 87.5442H111.845C112.386 87.5373 112.914 87.705 113.351 88.0224C113.788 88.3398 114.112 88.7898 114.273 89.3057C114.391 89.7126 114.393 90.1446 114.278 90.5525C115.483 90.9217 116.633 91.4508 117.698 92.1256H102.539Z" fill="#2F2E41"/>
<path d="M126.668 65.3445C126.41 65.0312 126.091 64.7724 125.732 64.5831C125.417 64.4184 125.066 64.332 124.71 64.3311C124.222 64.3371 123.748 64.4967 123.355 64.7874C122.275 65.5514 121.527 67.1989 121.527 69.1064C121.527 71.4994 122.705 73.4838 124.236 73.8287C124.392 73.8636 124.551 73.8814 124.71 73.8817C126.464 73.8817 127.894 71.7408 127.894 69.1064C127.894 67.5783 127.414 66.2173 126.668 65.3445Z" fill="#3F3D56"/>
<path d="M97.5064 64.6733H97.5038C97.1491 64.4531 96.7407 64.3347 96.3232 64.3311C95.9674 64.332 95.6171 64.4184 95.3018 64.5831C94.9423 64.7724 94.624 65.0312 94.3653 65.3445L94.3626 65.3471C93.6198 66.22 93.1396 67.5809 93.1396 69.1064C93.1396 71.1651 94.0098 72.9213 95.2301 73.5925C95.5642 73.7797 95.9403 73.8792 96.3232 73.8817C96.4083 73.8817 96.4934 73.8764 96.5779 73.8658H96.5805C98.2147 73.6695 99.5067 71.6108 99.5067 69.1064C99.5067 67.1007 98.6764 65.379 97.5064 64.6733Z" fill="#3F3D56"/>
<path d="M95.4294 73.1353C95.4925 73.1352 95.5548 73.1201 95.611 73.0913C95.6672 73.0624 95.7157 73.0206 95.7525 72.9693C95.7894 72.918 95.8135 72.8586 95.8229 72.7961C95.8323 72.7337 95.8266 72.6699 95.8065 72.61C95.0459 70.3483 94.8172 67.9417 95.1379 65.5772C95.4587 63.2127 96.3203 60.954 97.6559 58.9766C98.9915 56.9993 100.765 55.3565 102.839 54.1761C104.912 52.9956 107.23 52.3092 109.613 52.1702C111.995 52.0312 114.377 52.4434 116.574 53.3747C118.771 54.306 120.723 55.7313 122.28 57.5399C123.836 59.3486 124.955 61.4917 125.548 63.8029C126.142 66.114 126.194 68.5309 125.702 70.8657C125.68 70.969 125.7 71.0767 125.758 71.1651C125.816 71.2536 125.906 71.3155 126.009 71.3373C126.112 71.359 126.22 71.3389 126.309 71.2813C126.397 71.2237 126.459 71.1333 126.481 71.03C126.999 68.5752 126.944 66.0341 126.32 63.604C125.696 61.174 124.52 58.9206 122.884 57.0189C121.247 55.1172 119.194 53.6185 116.885 52.6393C114.575 51.6601 112.07 51.2268 109.566 51.3729C107.061 51.5191 104.624 52.2409 102.444 53.4822C100.264 54.7235 98.3989 56.4508 96.9949 58.53C95.5908 60.6091 94.6851 62.984 94.3482 65.4702C94.0113 67.9563 94.2523 70.4866 95.0523 72.8644C95.0789 72.9433 95.1297 73.0119 95.1973 73.0605C95.2649 73.1091 95.3461 73.1352 95.4294 73.1353Z" fill="#3F3D56"/>
<path d="M117.536 61.4146C118.099 62.1821 117.822 63.2163 117.229 63.8779C116.458 64.7389 115.229 64.7932 114.162 64.6334C112.964 64.4541 111.694 63.893 110.481 64.2712C109.448 64.5934 108.711 65.5307 107.637 65.7662C106.685 65.975 105.546 65.6986 105.212 64.6837C105.052 64.1961 105.82 63.9871 105.98 64.4722C106.196 65.1287 107.128 65.1156 107.662 64.9338C108.518 64.6424 109.178 63.9334 110.02 63.5948C111.012 63.1955 112.088 63.3758 113.098 63.6032C114.05 63.8176 115.145 64.1354 116.094 63.735C116.796 63.4387 117.354 62.5053 116.849 61.8163C116.546 61.4027 117.237 61.0052 117.536 61.4146Z" fill="white"/>
<path d="M172.938 110.207H122.452C122.173 110.207 121.896 110.152 121.638 110.045C121.38 109.938 121.146 109.781 120.949 109.584C120.751 109.386 120.595 109.152 120.488 108.894C120.381 108.636 120.326 108.36 120.326 108.081C120.326 107.801 120.381 107.525 120.488 107.267C120.595 107.009 120.751 106.775 120.949 106.577C121.146 106.38 121.38 106.223 121.638 106.116C121.896 106.01 122.173 105.955 122.452 105.955H172.938C173.501 105.955 174.042 106.179 174.44 106.578C174.838 106.977 175.062 107.517 175.062 108.081C175.062 108.644 174.838 109.184 174.44 109.583C174.042 109.982 173.501 110.206 172.938 110.207V110.207Z" fill="#E6E6E6"/>
<path d="M181.709 117.382H122.453C122.174 117.382 121.897 117.327 121.639 117.221C121.381 117.114 121.146 116.957 120.948 116.76C120.751 116.563 120.594 116.328 120.487 116.07C120.38 115.812 120.325 115.535 120.325 115.256C120.325 114.976 120.38 114.7 120.487 114.442C120.594 114.184 120.751 113.949 120.948 113.752C121.146 113.554 121.381 113.398 121.639 113.291C121.897 113.184 122.174 113.13 122.453 113.13H181.709C181.989 113.13 182.266 113.184 182.524 113.291C182.782 113.398 183.017 113.554 183.214 113.752C183.412 113.949 183.569 114.184 183.676 114.442C183.783 114.7 183.838 114.976 183.838 115.256C183.838 115.535 183.783 115.812 183.676 116.07C183.569 116.328 183.412 116.563 183.214 116.76C183.017 116.957 182.782 117.114 182.524 117.221C182.266 117.327 181.989 117.382 181.709 117.382Z" fill="#E6E6E6"/>
<path d="M172.938 135.995H122.452C121.888 135.995 121.347 135.771 120.949 135.373C120.55 134.974 120.326 134.433 120.326 133.869C120.326 133.305 120.55 132.765 120.949 132.366C121.347 131.967 121.888 131.743 122.452 131.743H172.938C173.502 131.743 174.043 131.967 174.441 132.366C174.84 132.765 175.064 133.305 175.064 133.869C175.064 134.433 174.84 134.974 174.441 135.373C174.043 135.771 173.502 135.995 172.938 135.995V135.995Z" fill="#E6E6E6"/>
<path d="M181.708 143.171H122.452C121.888 143.171 121.347 142.947 120.949 142.548C120.55 142.149 120.326 141.608 120.326 141.045C120.326 140.481 120.55 139.94 120.949 139.541C121.347 139.142 121.888 138.918 122.452 138.918H181.708C182.272 138.918 182.813 139.142 183.212 139.541C183.61 139.94 183.834 140.481 183.834 141.045C183.834 141.608 183.61 142.149 183.212 142.548C182.813 142.947 182.272 143.171 181.708 143.171Z" fill="#E6E6E6"/>
<path d="M102.47 120.606C107.452 120.606 111.49 116.568 111.49 111.586C111.49 106.604 107.452 102.566 102.47 102.566C97.4882 102.566 93.4497 106.604 93.4497 111.586C93.4497 116.568 97.4882 120.606 102.47 120.606Z" fill="#E6E6E6"/>
<path d="M102.47 146.608C107.452 146.608 111.49 142.569 111.49 137.587C111.49 132.605 107.452 128.567 102.47 128.567C97.4882 128.567 93.4497 132.605 93.4497 137.587C93.4497 142.569 97.4882 146.608 102.47 146.608Z" fill="#E6E6E6"/>
<path d="M172.938 161.996H122.452C121.888 161.996 121.347 161.772 120.949 161.374C120.55 160.975 120.326 160.434 120.326 159.87C120.326 159.306 120.55 158.766 120.949 158.367C121.347 157.968 121.888 157.744 122.452 157.744H172.938C173.502 157.744 174.043 157.968 174.441 158.367C174.84 158.766 175.064 159.306 175.064 159.87C175.064 160.434 174.84 160.975 174.441 161.374C174.043 161.772 173.502 161.996 172.938 161.996V161.996Z" fill="#E6E6E6"/>
<path d="M181.708 169.169H122.452C121.888 169.169 121.347 168.945 120.949 168.546C120.55 168.148 120.326 167.607 120.326 167.043C120.326 166.479 120.55 165.938 120.949 165.54C121.347 165.141 121.888 164.917 122.452 164.917H181.708C182.272 164.917 182.813 165.141 183.212 165.54C183.61 165.938 183.834 166.479 183.834 167.043C183.834 167.607 183.61 168.148 183.212 168.546C182.813 168.945 182.272 169.169 181.708 169.169V169.169Z" fill="#E6E6E6"/>
<path d="M102.47 172.606C107.452 172.606 111.49 168.567 111.49 163.586C111.49 158.604 107.452 154.565 102.47 154.565C97.4882 154.565 93.4497 158.604 93.4497 163.586C93.4497 168.567 97.4882 172.606 102.47 172.606Z" fill="#E6E6E6"/>
</g>
<defs>
<clipPath id="clip0">
<rect width="200" height="186.723" fill="white"/>
</clipPath>
</defs>
</svg>
