<svg width="212" height="123" viewBox="0 0 212 123" fill="none" xmlns="http://www.w3.org/2000/svg">
<g clip-path="url(#clip0)">
<path opacity="0.1" d="M127.445 88.6534C131.541 88.4159 136.622 85.5902 140.573 84.3405C145.249 82.8652 149.944 81.4458 154.657 80.0823C171.065 75.3333 187.649 71.2869 204.408 67.9429C205.973 67.63 207.539 67.3246 209.108 67.0268C206.664 61.6549 202.877 57.0291 198.126 53.6112C198.248 52.4353 198.31 51.2537 198.312 50.0712C198.312 31.3833 183.629 16.2336 165.511 16.2336C159.933 16.2276 154.448 17.6921 149.592 20.4843C136.769 11.9037 120.031 6.71057 101.718 6.71057C75.6963 6.71057 52.8526 17.1968 39.9083 32.9875L100.743 43.4417L138.055 49.8507C95.5194 51.1419 52.8526 52.4256 10.4396 49.3945C4.84087 54.9049 1.29727 62.222 0.414398 70.0954C-0.468475 77.9688 1.36419 85.9097 5.59918 92.561C5.59918 93.2377 5.62697 93.9088 5.67701 94.5742C6.75739 94.889 7.80071 95.1943 8.73655 95.3941C23.7606 98.6225 38.8811 101.324 54.0979 103.5C42.8845 110.533 29.2287 111.528 16.2937 114.506C22.5573 119.765 31.0633 122.989 40.4365 122.989H180.001C195.113 122.989 207.362 112.287 207.362 99.085C209.63 95.2811 211.141 91.0611 211.81 86.6647C183.846 89.4111 155.534 87.0266 127.445 88.6534Z" fill="#6C63FF"/>
<path opacity="0.1" d="M212 81.0417C212.015 75.6005 210.743 70.2354 208.292 65.3991C205.841 60.5627 202.282 56.3969 197.916 53.2531C198.037 52.0777 198.099 50.8968 198.102 49.7149C198.102 31.0271 183.412 15.883 165.301 15.883C159.722 15.8769 154.237 17.3407 149.38 20.1318C136.557 11.5475 119.817 6.35242 101.504 6.35242C71.7169 6.35242 46.0768 20.1035 34.7059 39.8225C34.0739 39.7848 33.4383 39.764 32.7971 39.764C14.6845 39.764 -0.00359806 54.9138 -0.00359806 73.6017C-0.0162935 80.2026 1.85864 86.6648 5.39277 92.2009C5.39277 109.015 20.9944 122.646 40.2319 122.646H179.8C194.91 122.646 207.16 111.943 207.16 98.74C210.338 93.4035 212.012 87.281 212 81.0417Z" fill="#DC2D27"/>
<path opacity="0.1" d="M212 81.0417C212.015 75.6005 210.743 70.2354 208.292 65.3991C205.841 60.5627 202.282 56.3969 197.916 53.2531C198.037 52.0777 198.099 50.8968 198.102 49.7149C198.102 31.0271 183.412 15.883 165.301 15.883C159.722 15.8769 154.237 17.3407 149.38 20.1318C136.557 11.5475 119.817 6.35242 101.504 6.35242C71.7169 6.35242 46.0768 20.1035 34.7059 39.8225C34.0739 39.7848 33.4383 39.764 32.7971 39.764C14.6845 39.764 -0.00359806 54.9138 -0.00359806 73.6017C-0.0162935 80.2026 1.85864 86.6648 5.39277 92.2009C5.39277 109.015 20.9944 122.646 40.2319 122.646H179.8C194.91 122.646 207.16 111.943 207.16 98.74C210.338 93.4035 212.012 87.281 212 81.0417Z" fill="#DC2D27"/>
<g opacity="0.1">
<path opacity="0.1" d="M146.285 27.9113L146.054 27.9279L146.028 27.9463C146.115 27.9428 146.201 27.9311 146.285 27.9113Z" fill="black"/>
<path opacity="0.1" d="M150.526 31.8245C150.487 32.1992 150.407 32.5684 150.288 32.9253C150.212 33.1419 150.15 33.3636 150.103 33.5888C150.066 33.8075 150.062 34.0299 150.029 34.2486C149.988 34.5321 149.891 34.8044 149.745 35.0494C149.599 35.2945 149.406 35.5074 149.178 35.6755C149.113 35.7294 149.032 35.7593 148.949 35.7603C148.804 35.7434 148.715 35.5718 148.661 35.4173C148.367 34.552 148.437 33.4946 147.894 32.8046C147.647 32.5263 147.349 32.3002 147.016 32.1392C146.88 32.0502 146.727 31.9917 146.567 31.9677C146.332 31.9806 146.106 32.0646 145.919 32.209C145.528 32.4759 145.094 32.6711 144.636 32.7858C144.408 32.8408 144.171 32.8433 143.941 32.793C143.712 32.7428 143.497 32.6412 143.311 32.4955C143.056 32.2806 142.868 31.9583 142.585 31.7905C142.301 31.6228 142.005 31.6322 141.725 31.5172C141.55 31.4413 141.394 31.3262 141.269 31.1807C141.144 31.0352 141.053 30.8628 141.002 30.6765C140.996 30.653 140.991 30.629 140.987 30.6049C140.941 30.8153 140.946 31.034 141.002 31.242C141.053 31.4283 141.144 31.6007 141.269 31.7462C141.394 31.8917 141.55 32.0068 141.725 32.0827C142.005 32.1977 142.32 32.1996 142.585 32.356C142.85 32.5125 143.056 32.8461 143.311 33.061C143.497 33.2067 143.712 33.3083 143.941 33.3585C144.171 33.4088 144.408 33.4063 144.636 33.3513C145.094 33.2366 145.528 33.0414 145.919 32.7745C146.106 32.6301 146.332 32.5461 146.567 32.5332C146.727 32.5572 146.88 32.6157 147.016 32.7047C147.344 32.8689 147.638 33.0968 147.881 33.3758C148.424 34.0657 148.354 35.1232 148.648 35.9884C148.702 36.1449 148.791 36.3145 148.936 36.3315C149.025 36.3319 149.111 36.2998 149.178 36.241C149.407 36.0724 149.601 35.8587 149.747 35.6126C149.894 35.3666 149.99 35.0931 150.031 34.8084C150.064 34.5897 150.068 34.3673 150.105 34.1487C150.152 33.9234 150.214 33.7017 150.29 33.4851C150.471 32.9775 150.554 32.4394 150.537 31.8999C150.533 31.8772 150.529 31.8508 150.526 31.8245Z" fill="black"/>
</g>
<path opacity="0.1" d="M115.325 77.8995C125.536 73.8166 130.947 66.5537 133.725 60.976C136.964 54.4728 137.405 48.912 137.422 48.6745L137.548 46.9535H138.845L138.719 48.6745C138.702 48.9082 138.261 54.4728 135.022 60.976C132.242 66.5537 126.833 73.8166 116.622 77.8995C115.825 78.22 114.998 78.5197 114.139 78.7987L114.013 78.3972C114.46 78.2351 114.898 78.0692 115.325 77.8995Z" fill="white"/>
<path opacity="0.1" d="M92.6908 77.8995C82.48 73.8166 77.0688 66.5537 74.2909 60.976C71.0516 54.4728 70.6105 48.912 70.5939 48.6745L70.4679 46.9535H69.1707L69.2967 48.6745C69.3133 48.9082 69.7544 54.4728 72.9937 60.976C75.7734 66.5537 81.1828 73.8166 91.3936 77.8995C92.1905 78.22 93.0182 78.5197 93.8768 78.7987L94.0028 78.3972C93.5569 78.2351 93.1195 78.0692 92.6908 77.8995Z" fill="white"/>
<path d="M126 89.3495L125.928 90.4354C125.917 90.5829 125.664 94.0941 123.802 98.1976C122.204 101.717 119.095 106.301 113.224 108.877C112.766 109.08 112.29 109.268 111.797 109.444L111.248 107.517C112.628 107.032 113.957 106.383 115.213 105.58C118.205 103.651 120.532 100.898 122.154 97.3543C123.015 95.4678 123.628 93.4529 123.976 91.3715H117.296V89.3495H126Z" fill="#DC2D27"/>
<path d="M100.752 107.517L100.203 109.444C99.7091 109.268 99.2333 109.078 98.7752 108.876C92.9053 106.3 89.7946 101.717 88.1977 98.1976C86.3356 94.0941 86.082 90.5853 86.0724 90.4354L86 89.3495H94.6993V91.3715H88.0188C88.368 93.4532 88.9833 95.468 89.8458 97.3543C91.4682 100.898 93.7938 103.651 96.7863 105.579C98.0421 106.382 99.3718 107.032 100.752 107.517Z" fill="#DC2D27"/>
<path d="M116.049 126.143V137.046H95.95V126.143L96.5891 125.192C103.102 122.61 104.422 115.88 104.685 113.216C104.725 112.848 104.747 112.478 104.753 112.108H107.238C107.244 112.478 107.266 112.848 107.305 113.216C107.572 115.88 108.892 122.613 115.401 125.192L116.049 126.143Z" fill="#DC2D27"/>
<path opacity="0.1" d="M97.6544 125.192C104.168 122.61 105.488 115.88 105.751 113.216C105.79 112.848 105.812 112.478 105.818 112.108H104.753C104.747 112.478 104.725 112.848 104.685 113.216C104.418 115.88 103.098 122.613 96.5891 125.192L95.95 126.143V137.046H97.0153V126.143L97.6544 125.192Z" fill="white"/>
<path d="M93.1099 86C93.1557 100.994 98.9083 113.119 106 113.119C113.092 113.119 118.843 100.994 118.89 86H93.1099Z" fill="#DC2D27"/>
<path opacity="0.1" d="M93.2301 112.723H115.9V111.875H92.1182V118.095H93.2301V112.723Z" fill="white"/>
<path opacity="0.1" d="M164.428 0.0206657C164.428 0.0206657 148.826 -0.936913 150.661 10.1846C150.661 10.1846 150.29 12.1506 152.047 13.0422C152.047 13.0422 152.075 12.2185 153.648 12.4994C154.208 12.5938 154.777 12.6216 155.344 12.5823C156.109 12.5286 156.836 12.2229 157.415 11.7114C157.415 11.7114 161.802 9.86791 163.507 2.57673C163.507 2.57673 164.769 0.985787 164.719 0.576742L162.085 1.72093C162.085 1.72093 162.986 3.65306 162.271 5.25908C162.271 5.25908 162.185 1.79068 161.68 1.86608C161.578 1.88305 160.312 2.53526 160.312 2.53526C160.312 2.53526 161.859 5.89998 160.692 8.34671C160.692 8.34671 161.135 4.19971 159.828 2.77842L157.975 3.87926C157.975 3.87926 159.784 7.3552 158.557 10.1921C158.557 10.1921 158.872 5.84155 157.584 4.14693L155.905 5.47963C155.905 5.47963 157.604 8.90656 156.569 11.259C156.569 11.259 156.433 6.19404 155.542 5.81139C155.542 5.81139 154.072 7.13088 153.848 7.66999C153.848 7.66999 155.012 10.1582 154.289 11.4702C154.289 11.4702 153.846 8.09601 153.483 8.07716C153.483 8.07716 152.019 10.3128 151.867 11.8472C151.867 11.8472 151.93 9.56819 153.129 7.86604C153.129 7.86604 151.713 8.11297 150.887 9.04605C150.887 9.04605 151.115 7.46641 153.49 7.32881C153.49 7.32881 154.701 5.63231 155.023 5.52864C155.023 5.52864 152.662 5.32882 151.23 5.97349C151.23 5.97349 152.49 4.48246 155.457 5.16106L157.115 3.78313C157.115 3.78313 154.006 3.35146 152.686 3.82837C152.686 3.82837 154.204 2.50886 157.562 3.47021L159.367 2.37315C159.367 2.37315 156.715 1.79257 155.136 1.99615C155.136 1.99615 156.804 1.08192 159.897 2.07343L161.194 1.48343C161.194 1.48343 159.252 1.09512 158.683 1.03291C158.114 0.970706 158.084 0.812367 158.084 0.812367C159.315 0.603669 160.578 0.746583 161.733 1.22518C161.733 1.22518 164.476 0.195971 164.428 0.0206657Z" fill="#6C63FF"/>
<path opacity="0.1" d="M145.185 2.85009C145.185 2.85009 138.143 2.41654 138.968 7.44195C138.968 7.44195 138.803 8.33167 139.592 8.73506C139.592 8.73506 139.605 8.35806 140.317 8.48812C140.569 8.53139 140.826 8.54405 141.082 8.52582C141.428 8.50191 141.757 8.36355 142.018 8.13186C142.018 8.13186 144.001 7.30057 144.772 4.00559C144.772 4.00559 145.341 3.28552 145.318 3.10079L144.129 3.61728C144.129 3.61728 144.536 4.49192 144.216 5.21765C144.216 5.21765 144.177 3.64933 143.949 3.68703C143.903 3.68703 143.33 3.98863 143.33 3.98863C143.33 3.98863 144.03 5.50982 143.502 6.61632C143.502 6.61632 143.702 4.74263 143.111 4.09984L142.274 4.59748C142.274 4.59748 143.093 6.16769 142.537 7.44949C142.537 7.44949 142.679 5.48343 142.098 4.71812L141.34 5.32698C141.34 5.32698 142.107 6.87645 141.64 7.9377C141.64 7.9377 141.579 5.64931 141.175 5.47778C141.175 5.47778 140.511 6.07344 140.409 6.31849C140.409 6.31849 140.936 7.44949 140.609 8.03384C140.609 8.03384 140.409 6.50887 140.239 6.50322C140.239 6.50322 139.579 7.51358 139.509 8.19972C139.542 7.55937 139.738 6.93887 140.079 6.39954C139.698 6.4731 139.345 6.65851 139.066 6.933C139.066 6.933 139.17 6.22047 140.243 6.15638C140.243 6.15638 140.798 5.39107 140.936 5.34394C140.936 5.34394 139.868 5.25346 139.221 5.54564C139.221 5.54564 139.79 4.87081 141.132 5.16864L141.873 4.54659C141.873 4.54659 140.469 4.35809 139.872 4.56732C139.872 4.56732 140.558 3.97166 142.075 4.40521L142.891 3.90946C142.891 3.90946 141.694 3.64556 140.978 3.74169C140.978 3.74169 141.732 3.32699 143.13 3.77562L143.713 3.50984C143.713 3.50984 142.835 3.33265 142.578 3.30626C142.32 3.27987 142.307 3.20635 142.307 3.20635C142.863 3.11222 143.434 3.17749 143.956 3.39485C143.956 3.39485 145.207 2.92926 145.185 2.85009Z" fill="#6C63FF"/>
<path d="M169.784 122.668C173.899 122.668 177.235 122.094 177.235 121.387C177.235 120.679 173.899 120.105 169.784 120.105C165.668 120.105 162.332 120.679 162.332 121.387C162.332 122.094 165.668 122.668 169.784 122.668Z" fill="#DC2D27"/>
<path d="M172.865 119.29C173.206 119.008 173.453 118.628 173.575 118.199C173.668 117.767 173.486 117.256 173.078 117.089C172.623 116.911 172.135 117.234 171.766 117.558C171.398 117.882 170.973 118.254 170.491 118.184C170.74 117.954 170.925 117.664 171.031 117.34C171.136 117.016 171.157 116.669 171.092 116.335C171.071 116.196 171.013 116.066 170.925 115.958C170.671 115.682 170.213 115.799 169.91 116.016C168.946 116.706 168.677 118.039 168.672 119.236C168.575 118.804 168.657 118.354 168.655 117.916C168.653 117.479 168.533 116.974 168.164 116.742C167.936 116.617 167.681 116.556 167.423 116.565C166.991 116.548 166.507 116.593 166.213 116.915C165.842 117.315 165.94 117.986 166.259 118.423C166.578 118.861 167.065 119.141 167.513 119.445C167.872 119.662 168.178 119.96 168.408 120.314C168.436 120.363 168.459 120.416 168.475 120.47H171.192C171.799 120.156 172.362 119.759 172.865 119.29Z" fill="#DC2D27"/>
<path d="M68.9986 69.0814C68.5705 68.9362 66.0502 66.908 65.8593 65.99C65.6685 65.072 67.1917 56.5197 67.1917 56.5197C67.1917 56.5197 67.0509 56.5197 66.8211 56.4915V56.3538L67.1343 45.1193C67.1343 45.1193 68.4185 37.5793 65.9928 38.0185C63.567 38.4577 65.0884 45.1193 65.0884 45.1193C65.0884 45.1193 64.8123 48.5009 64.6177 49.5151C64.4324 50.4934 63.5837 54.4783 64.1619 55.7167C64.183 55.7607 64.2065 55.8035 64.2323 55.8449C64.2323 55.8449 64.3286 60.0956 63.2816 60.6762C62.2828 61.2285 61.8677 64.0088 61.8324 64.2576L61.7787 64.235C61.4805 64.0452 61.2186 63.8019 61.0059 63.5168C60.9837 63.4886 60.967 63.4584 60.9466 63.4283C61.6285 62.648 61.9959 61.6349 61.9756 60.5912C61.9554 59.5475 61.5489 58.55 60.8373 57.7978C60.5064 57.4482 60.1183 57.1599 59.6902 56.9457C59.6778 56.5856 59.5939 56.2316 59.4437 55.9052C58.9619 54.8572 56.2934 53.4868 54.3976 53.4547C53.5229 53.4283 52.8058 53.6809 52.5445 54.3765C52.411 54.729 52.4518 55.1305 52.3962 55.4962C52.285 56.2502 51.8088 56.8402 51.1972 57.3095C50.9503 57.0291 50.6833 56.7677 50.3985 56.5273C49.7796 56.0447 48.5454 54.4538 48.5454 54.4538C48.5454 54.4538 44.6927 50.3954 44.4073 49.2832C44.1219 48.1711 40.2729 41.4925 39.4168 42.6556C38.5606 43.8186 42.3651 48.8874 42.3651 48.8874C42.3651 48.8874 43.0879 50.729 43.6438 51.3511C44.1997 51.9731 48.462 58.269 48.462 58.269L48.6658 58.6988C47.7652 59.1813 46.9424 59.7959 46.6515 60.7534C46.2252 62.1634 47.1574 63.5809 47.8023 64.9004C49.0587 67.4753 49.2385 70.759 47.6169 73.1115C46.1641 75.1888 43.6438 76.1765 41.2847 77.0398C42.424 77.9498 43.8394 78.4277 45.2875 78.3914C44.7427 79.9974 42.8117 80.529 41.1661 80.8268C42.0297 81.6713 43.2658 81.9785 44.4518 82.1651C45.0326 82.2657 45.6212 82.313 46.2104 82.3065H46.355L46.4995 82.2952C46.7004 82.2816 46.9002 82.2558 47.0981 82.2179C47.9542 82.0407 48.7863 81.5657 49.2236 80.7966C49.5943 80.1388 49.724 79.2415 50.3967 78.9116C50.5718 78.8312 50.7606 78.7857 50.9526 78.7778H50.9322C51.0582 78.7778 51.188 78.7778 51.314 78.7778L54.1178 78.8061C54.2345 78.8061 54.355 78.8061 54.4755 78.8061C55.2667 78.7872 56.1118 78.6477 56.5139 77.9823C56.6793 77.6592 56.7664 77.3005 56.7678 76.9362C56.8271 76.0332 56.7678 75.1039 56.7919 74.1935C57.0309 75.8504 57.2811 78.4328 56.6863 79.3867C56.203 80.1094 55.6172 80.7554 54.948 81.3037C54.7797 81.4475 54.6257 81.6079 54.4884 81.7825C54.3976 81.8485 54.3439 81.8843 54.3439 81.8843L54.2864 82.0596C54.0752 82.3854 53.9221 82.7466 53.8343 83.1265C53.8019 83.2241 53.7899 83.3274 53.799 83.43C53.8639 83.5638 53.3358 84.1161 53.4896 84.348C52.1701 85.9219 51.92 88.3065 51.92 88.3065L49.5109 92.0275C48.273 95.3356 46.4198 95.6749 46.4198 95.6749C46.4198 95.6749 42.0668 92.7042 41.9482 92.559C41.8296 92.4139 40.1654 91.6882 40.1654 91.6882C39.9692 91.3381 39.6697 91.0598 39.3093 90.8927C38.7385 90.6514 38.6903 89.7617 38.6903 89.7617C38.6199 87.6599 37.4061 87.4997 37.4061 87.4997C36.4276 87.4149 35.6808 87.5921 35.1063 87.9163L34.9322 87.9295C34.0908 87.9992 33.079 88.0765 31.9671 88.1519C28.8742 88.3593 28.1385 90.3969 28.1385 90.3969C28.1385 90.3969 27.7586 90.8324 28.2571 91.3036C28.7556 91.7749 31.9467 91.3036 32.082 91.2923C31.8388 91.3191 31.5929 91.3019 31.3556 91.2414C31.8578 91.2226 32.549 91.2037 33.1383 91.2037H33.281C33.2439 91.5215 33.226 91.8413 33.2273 92.1613C33.2273 92.7645 34.8673 93.1509 34.8673 93.1509L39.8615 97.6749C39.8615 97.6749 43.0008 99.1019 44.9985 101.155C46.9961 103.207 48.7622 101.435 48.7622 101.435C50.8766 100.904 56.9605 93.4224 56.9661 93.4148C56.9661 93.6335 57.094 100.91 57.3367 102.37C57.3464 102.445 57.3644 102.517 57.3904 102.587C57.6758 103.215 57.2941 104.93 57.1292 105.654C57.024 106.26 56.9836 106.875 57.0087 107.49C57.0087 107.49 54.7275 116.35 54.9165 117.128C55.1055 117.907 53.6805 121.524 53.6805 121.524V124.54L53.9288 124.527C53.8965 124.575 53.8668 124.626 53.8398 124.678L53.8231 124.71C53.8231 124.71 55.3446 125.047 56.3675 124.951C57.3905 124.855 59.1472 125.752 59.1472 125.752C59.1472 125.752 59.7421 126.038 61.573 126.159C63.4039 126.28 63.4039 125.337 63.4039 125.337C63.1945 124.054 60.3017 123.624 60.2128 123.611C59.9793 123.462 59.7606 123.3 59.5809 123.16L59.5438 123.13C59.5559 123.102 59.5664 123.073 59.5753 123.043C59.8848 121.761 58.1725 121.205 58.1725 121.205V120.892C59.2844 120.312 59.5049 116.327 59.5049 116.327C59.5049 116.327 61.1727 111.4 61.4062 110.578C61.6397 109.756 61.4062 108.525 61.4062 108.525L61.573 107.462C61.573 107.462 61.9307 106.738 61.9307 106.593C61.977 106.225 62.1161 105.876 62.3346 105.579C62.5959 105.264 62.0493 104.516 62.0493 104.516L62.5255 103.26V101.882L63.6374 96.8832C63.6374 96.8832 64.803 91.0604 64.3991 89.1547C63.9951 87.249 64.8753 86.2801 64.8753 86.2801C64.796 86.3225 64.7143 86.3603 64.6307 86.3932C64.742 86.1315 64.8379 85.8634 64.9179 85.5902L67.4197 85.905V85.9427H68.3222C68.3222 85.9427 68.0368 82.3612 68.0368 80.9173C68.0368 79.4734 68.9986 74.2915 68.9986 74.2915C68.9986 74.2915 69.4266 69.2265 68.9986 69.0814ZM57.8927 64.9004C57.8927 65.0418 57.8797 65.1888 57.8704 65.3396L57.8204 65.4169L57.7277 65.3378L57.6147 65.5168L57.5813 65.5338C57.3367 65.4056 57.2107 64.6723 57.0346 64.8307L57.0106 64.8514C56.9716 64.8062 56.9327 64.793 56.892 64.8307L56.8549 64.8627C56.8549 64.8081 56.8549 64.7515 56.8549 64.695C57.1939 64.7837 57.5426 64.8287 57.8927 64.8288C57.8945 64.8533 57.8927 64.8778 57.8927 64.9004ZM66.2133 81.5789H66.267L66.1781 81.8164C66.1892 81.7372 66.2003 81.66 66.2133 81.5789ZM57.0791 124.325L56.7381 124.238L56.9235 124.206L57.0958 124.321L57.1162 124.336L57.0791 124.325ZM60.563 123.818C60.45 123.758 60.3351 123.688 60.2239 123.616C60.261 123.637 60.4074 123.714 60.563 123.818Z" fill="url(#paint0_linear)"/>
<path d="M67.4439 78.0182L65.1997 83.9672H65.7445L63.6338 85.6788L67.4439 86.1614V78.0182Z" fill="#F86D70"/>
<path opacity="0.1" d="M67.4439 78.0182L65.1997 83.9672L64.6345 83.8127L63.6338 85.6788L67.4439 86.1614V78.0182Z" fill="black"/>
<path d="M63.9248 81.824H67.4439L68.7356 71.0135H63.9248V81.824Z" fill="#F86D70"/>
<path opacity="0.1" d="M63.9248 81.824H67.4439L68.7356 71.0135H63.9248V81.824Z" fill="black"/>
<path d="M57.0511 73.5733L57.8109 73.4432L59.5566 73.1416C59.5566 73.1416 64.7992 71.939 65.8814 71.841C66.537 71.7529 67.1764 71.5675 67.779 71.2906C68.0626 71.1662 68.2423 71.0719 68.2423 71.0719L66.354 67.5639L63.4241 65.3547C63.4241 65.3547 61.571 64.9532 60.7871 63.8561C60.6122 63.6201 60.4983 63.3431 60.4558 63.0507C60.4134 62.7582 60.4439 62.4596 60.5443 62.1823C61.0224 60.6743 57.6886 63.6243 57.6886 63.6243C57.6886 63.6243 57.7201 64.3312 57.6886 65.2322C57.6886 65.4094 57.672 65.5941 57.659 65.7826C57.659 65.907 57.6423 66.0314 57.6293 66.1596C57.5478 67.055 57.381 67.9767 57.0511 68.5272C56.245 69.8731 57.0511 73.5733 57.0511 73.5733Z" fill="#FBBEBE"/>
<path opacity="0.1" d="M57.689 65.3076H57.7631C57.8965 65.3076 58.004 65.0192 58.1337 65.006C59.177 64.9042 60.1296 64.6818 60.7911 63.9297C60.6167 63.6937 60.503 63.4171 60.4606 63.1251C60.4182 62.833 60.4484 62.5348 60.5484 62.2577C61.0265 60.7497 57.6927 63.6978 57.6927 63.6978C57.6927 63.6978 57.7279 64.4066 57.689 65.3076Z" fill="black"/>
<path d="M53.6304 61.0325C53.6301 61.5752 53.735 62.1126 53.9391 62.614C54.1431 63.1154 54.4423 63.571 54.8196 63.9548C55.1968 64.3385 55.6447 64.6429 56.1377 64.8504C56.6306 65.058 57.159 65.1647 57.6925 65.1644C57.8259 65.1644 57.9575 65.1644 58.0891 65.1456C58.8718 65.0675 59.6154 64.7599 60.2296 64.2603C60.8438 63.7607 61.3022 63.0904 61.5491 62.3309C61.7961 61.5714 61.821 60.7553 61.6208 59.9816C61.4206 59.208 61.0039 58.5101 60.4213 57.9727C59.8388 57.4353 59.1153 57.0815 58.3389 56.9541C57.5625 56.8268 56.7664 56.9315 56.0473 57.2555C55.3282 57.5795 54.7171 58.1089 54.288 58.7794C53.859 59.4498 53.6305 60.2325 53.6304 61.0325Z" fill="#FBBEBE"/>
<path d="M52.3835 54.7612C52.2501 55.1118 52.2908 55.5038 52.2371 55.8752C52.0388 57.2154 50.699 58.0184 49.487 58.5802C48.2751 59.1419 46.9074 59.8073 46.522 61.1023C46.0995 62.5028 47.0223 63.9072 47.6635 65.221C48.9126 67.7808 49.0905 71.0457 47.4782 73.3868C46.0457 75.4603 43.5495 76.4443 41.1998 77.3076C42.3307 78.2126 43.7362 78.6885 45.1748 78.6535C44.6355 80.2501 42.7175 80.7798 41.083 81.0738C41.941 81.9146 43.1697 82.2199 44.3464 82.4047C45.2044 82.5404 46.0847 82.629 46.9408 82.4537C47.797 82.2784 48.6086 81.8052 49.0497 81.0399C49.4203 80.3858 49.5463 79.4942 50.2153 79.1643C50.5173 79.0434 50.8426 78.9951 51.166 79.023L53.9457 79.0531C54.8111 79.0531 55.8359 78.9853 56.2825 78.2332C56.4473 77.9119 56.5337 77.555 56.5345 77.1926C56.655 75.3378 56.3048 73.3774 57.0553 71.6847C57.2814 71.1738 55.8303 70.3652 55.9823 69.8242C56.5049 67.9637 56.6365 66.499 56.6309 64.5632C56.6309 63.0646 57.589 61.7734 58.3803 60.5085C59.1716 59.2437 59.8331 57.6471 59.2086 56.2899C58.5044 54.7762 53.2156 52.5764 52.3835 54.7612Z" fill="#3F3D56"/>
<path d="M56.084 123.782L56.7919 124.259L56.9012 124.333L56.9216 124.346L57.7611 124.911L59.7217 125.247L61.4451 125.126C61.4451 125.126 61.9418 124.071 61.1616 124.095C60.9117 124.082 60.6682 124.01 60.45 123.886L60.3425 123.831C60.2295 123.771 60.1164 123.703 60.0052 123.631C59.7736 123.482 59.5549 123.32 59.3789 123.183C59.1194 122.979 58.9471 122.825 58.9471 122.825L56.084 123.782Z" fill="#FBBEBE"/>
<path d="M29.8452 90.8211L30.6476 91.4469C30.6476 91.4469 30.8811 91.4356 31.2295 91.4243H31.3407C31.8392 91.4054 32.5267 91.3866 33.1105 91.3866C33.4878 91.3693 33.8659 91.3908 34.239 91.4507C34.6393 91.5939 35.3509 89.1208 35.3509 89.1208L34.5467 88.9323L34.2798 88.8682L34.0945 88.823L33.4403 88.6665L31.4575 88.8965L30.0639 89.8088L29.8452 90.8211Z" fill="#FBBEBE"/>
<path opacity="0.1" d="M29.8452 90.8211L30.6476 91.4469C30.6476 91.4469 30.8811 91.4356 31.2295 91.4243C31.0696 91.3616 30.9378 91.2416 30.8589 91.0869C30.34 89.6222 32.914 88.9964 32.914 88.9964L34.113 88.9436L34.3465 88.9323H34.5318L34.265 88.8682L34.0797 88.823L33.4255 88.6665L31.4426 88.8965L30.0491 89.8088L29.8452 90.8211Z" fill="black"/>
<path d="M28.2627 91.4828C28.7482 91.939 31.9282 91.4828 32.0616 91.4715C31.8203 91.4991 31.576 91.4819 31.3407 91.4206C31.2243 91.3994 31.1139 91.352 31.0177 91.2819C30.9216 91.2117 30.842 91.1207 30.7848 91.0153C30.2659 89.5488 32.8399 88.9248 32.8399 88.9248L34.0389 88.8721L34.2706 88.8608L37.1856 88.7326L37.3264 87.9164C37.3264 87.9164 36.3795 88.0069 34.8932 88.1275C34.0575 88.1972 33.0401 88.2745 31.9412 88.348C28.8705 88.5554 28.1404 90.5818 28.1404 90.5818C28.1404 90.5818 27.7679 91.0153 28.2627 91.4828Z" fill="#3F3D56"/>
<path d="M63.9266 56.1013C63.9463 56.1461 63.9698 56.189 63.997 56.2295L64.7049 57.2851L66.5469 57.4736L66.5673 56.7309L66.8768 45.5566C66.8768 45.5566 68.1517 38.0619 65.7426 38.4935C63.3335 38.9252 64.8457 45.5566 64.8457 45.5566C64.8457 45.5566 64.5714 48.9195 64.3787 49.9298C64.1916 50.9063 63.3521 54.8761 63.9266 56.1013Z" fill="#FBBEBE"/>
<path d="M59.792 83.856L60.3164 84.7684L61.4895 86.8098C61.4895 86.8098 63.6169 87.6034 64.1617 86.9983C64.4601 86.6685 64.7825 85.5167 65.0086 84.5478C65.1939 83.7637 65.3181 83.1021 65.3181 83.1021L59.792 83.856Z" fill="#FBBEBE"/>
<path opacity="0.1" d="M59.792 83.856L60.3164 84.7684C60.3493 84.7396 60.3791 84.7074 60.4054 84.6722C60.9984 83.9032 63.6095 84.5082 65.0086 84.5573C65.1939 83.7731 65.3181 83.1115 65.3181 83.1115L59.792 83.856Z" fill="black"/>
<path opacity="0.1" d="M33.1104 91.3829C33.4877 91.3656 33.8658 91.3871 34.2389 91.447C34.6392 91.5902 35.3508 89.1171 35.3508 89.1171L34.2797 88.8608L37.1947 88.7326L37.3355 87.9164C37.3355 87.9164 36.3886 88.0069 34.9023 88.1275C34.5952 88.3074 34.3212 88.5402 34.0925 88.8155L34.048 88.8721C33.4272 89.6468 33.1974 90.6459 33.1104 91.3829Z" fill="black"/>
<path opacity="0.1" d="M56.084 123.782L56.9012 124.333C58.1206 124.108 59.2343 123.756 59.3659 123.202C59.3665 123.193 59.3665 123.184 59.3659 123.175C59.1065 122.972 58.9341 122.817 58.9341 122.817L56.084 123.782Z" fill="black"/>
<path d="M33.1992 92.3347C33.1992 92.936 34.8281 93.3205 34.8281 93.3205L39.789 97.8125C39.789 97.8125 42.906 99.23 44.8889 101.271C46.8717 103.313 48.6211 101.56 48.6211 101.56C50.7226 101.032 56.775 93.5844 56.775 93.5844C56.775 93.5844 56.9158 102.09 57.1993 102.714C57.4829 103.337 57.1048 105.043 56.9399 105.765C56.8358 106.367 56.7961 106.979 56.8213 107.59C56.8213 107.59 54.5549 116.406 54.7439 117.175C54.9329 117.944 53.5153 121.548 53.5153 121.548V124.551C53.5153 124.551 59.0654 124.334 59.3712 123.062C59.677 121.79 57.9795 121.236 57.9795 121.236V120.923C59.0914 120.346 59.3008 116.384 59.3008 116.384C59.3008 116.384 60.9557 111.483 61.191 110.666C61.4264 109.85 61.191 108.623 61.191 108.623L61.3559 107.567C61.3559 107.567 61.7099 106.845 61.7099 106.702C61.7561 106.336 61.8947 105.989 62.112 105.694C62.3715 105.381 61.8285 104.636 61.8285 104.636L62.301 103.386V102.018L63.4129 97.0453C63.4129 97.0453 64.5711 91.2546 64.169 89.3564C63.7669 87.4582 64.6416 86.4987 64.6416 86.4987C62.7458 87.5091 61.7896 85.2603 61.4764 84.2933C61.3967 84.0444 61.3578 83.8786 61.3578 83.8786C61.3578 83.8786 58.7541 82.9021 56.3302 83.1359C55.8379 83.1765 55.3528 83.281 54.8866 83.4469C52.194 84.4328 51.7696 88.5157 51.7696 88.5157L49.3846 92.2159C48.156 95.5071 46.3139 95.8427 46.3139 95.8427C46.3139 95.8427 41.9924 92.8889 41.8664 92.7437C41.7404 92.5986 40.0948 91.8785 40.0948 91.8785C39.9002 91.5301 39.6026 91.2531 39.2442 91.0868C38.6771 90.8455 38.6308 89.9558 38.6308 89.9558C38.5604 87.8653 37.3558 87.6938 37.3558 87.6938C33.1751 87.3394 33.1992 91.7352 33.1992 92.3347Z" fill="#3F3D56"/>
<path d="M57.2421 80.5894H59.792V72.5423H57.2421V80.5894Z" fill="#F86D70"/>
<path opacity="0.1" d="M57.2421 80.5894H59.792V72.5423H57.2421V80.5894Z" fill="black"/>
<path opacity="0.1" d="M63.9246 56.0844C63.9242 56.09 63.9242 56.0957 63.9246 56.1013C63.9443 56.1461 63.9679 56.189 63.995 56.2295L64.703 57.2851L66.545 57.4736L66.5654 56.7309C65.9909 56.6857 64.6826 56.5254 63.9246 56.0844Z" fill="black"/>
<path d="M63.9971 56.2295C63.9971 56.2295 64.0916 60.4557 63.052 61.0325C62.0124 61.6093 61.6084 64.614 61.6084 64.614C61.6084 64.614 64.7587 66.7214 65.4611 67.6488C66.1634 68.5763 67.7757 70.7855 67.444 71.3133C67.1122 71.8411 68.2482 74.2444 68.2482 74.2444C68.2482 74.2444 66.169 78.5686 66.6415 80.2029C67.1141 81.8372 67.1604 86.1595 67.1604 86.1595H68.0592C68.0592 86.1595 67.7757 82.6044 67.7757 81.1624C67.7757 79.7204 68.7189 74.58 68.7189 74.58C68.7189 74.58 69.1451 69.5357 68.7189 69.3925C68.2927 69.2492 65.7909 67.2304 65.6019 66.3161C65.4129 65.4019 66.9251 56.8911 66.9251 56.8911C66.9251 56.8911 64.9885 56.8063 63.9971 56.2295Z" fill="#F86D70"/>
<path opacity="0.1" d="M57.1938 71.7959C57.2801 72.3839 57.4906 72.946 57.8109 73.4433L59.5566 73.1417C59.5566 73.1417 64.7992 71.9391 65.8814 71.8411C66.537 71.753 67.1764 71.5676 67.779 71.2907C67.3636 69.7935 66.5529 68.4407 65.4348 67.3793L64.7695 66.7516C63.7892 65.8258 62.653 65.087 61.4153 64.5707C61.4931 64.6367 66.9933 69.4132 65.7887 70.3501C64.5842 71.2869 61.3412 69.0061 61.3412 69.0061L57.6534 65.7827L57.52 65.6659L57.3069 66.0033C57.4153 66.0486 57.5211 66.1003 57.6238 66.1578C58.8806 66.8596 59.8133 68.0387 60.2182 69.4377C60.9761 72.0296 57.1938 71.7959 57.1938 71.7959Z" fill="black"/>
<path d="M56.0601 83.807C56.0601 83.807 59.5551 85.7768 60.4038 84.6722C60.5891 84.4291 60.9802 84.3235 61.4675 84.2952C61.3879 84.0464 61.3489 83.8805 61.3489 83.8805C61.3489 83.8805 58.7453 82.9041 56.3214 83.1378C56.162 83.545 56.0601 83.807 56.0601 83.807Z" fill="#444053"/>
<path d="M57.6686 65.6696L61.4898 69.0136C61.4898 69.0136 64.7198 71.302 65.9373 70.3576C67.1549 69.4132 61.5621 64.5763 61.5621 64.5763C62.7971 65.0942 63.9321 65.8307 64.9144 66.7516L65.5797 67.3793C67.3291 69.0287 67.7238 69.0287 67.7831 71.4528C67.7979 72.0503 67.5978 72.908 67.4439 73.0626C66.8769 73.6281 66.4803 77.7355 66.5674 78.2162C66.6545 78.6968 65.5111 82.8457 65.8817 83.9993C66.2524 85.153 61.2489 83.4225 60.402 84.529C59.5551 85.6355 56.0601 83.6638 56.0601 83.6638C56.0601 83.6638 57.9966 78.6177 58.4692 78.2821C58.9417 77.9466 59.5088 75.351 58.4692 74.1502C57.4295 72.9495 57.3369 71.7958 57.3369 71.7958C57.3369 71.7958 61.1173 72.0334 60.3594 69.4415C60.1461 68.6902 59.7762 67.9946 59.2748 67.4019C58.7733 66.8092 58.1522 66.3334 57.4536 66.007L57.6686 65.6696Z" fill="#E8E8F0"/>
<path opacity="0.1" d="M62.7682 74.1747C62.7682 74.1747 61.3024 76.9852 59.4066 77.7147C59.3454 77.7373 59.2861 77.7581 59.2213 77.7769C57.2421 78.3896 62.9165 75.0456 62.7682 74.1747Z" fill="black"/>
<path d="M42.2687 49.3097C42.2687 49.3097 42.9766 51.1363 43.5437 51.7602C44.1108 52.3842 48.3137 58.631 48.3137 58.631L48.6695 59.385L48.9753 60.0278L51.6679 59.7394L51.8532 58.6348L51.7494 58.5066C51.4789 58.1768 50.7413 57.2908 50.2465 56.9044C49.6331 56.4256 48.4045 54.8403 48.4045 54.8403C48.4045 54.8403 44.5796 50.8026 44.2961 49.698C44.0125 48.5934 40.1858 41.9695 39.3371 43.1156C38.4883 44.2617 42.2687 49.3097 42.2687 49.3097Z" fill="#FBBEBE"/>
<g opacity="0.1">
<path opacity="0.1" d="M50.0819 79.0229C49.7586 78.9944 49.4333 79.0422 49.1312 79.1624C48.4641 79.4923 48.338 80.3838 47.9674 81.0379C47.5338 81.8032 46.7073 82.2764 45.8567 82.4517C45.6876 82.485 45.5169 82.509 45.3452 82.5233C45.887 82.5769 46.4334 82.5528 46.9686 82.4517C47.8192 82.2764 48.6457 81.8032 49.0793 81.0379C49.4499 80.3838 49.5759 79.4923 50.2431 79.1624C50.4182 79.0822 50.6071 79.0374 50.799 79.0304L50.0819 79.0229Z" fill="black"/>
<path opacity="0.1" d="M56.6642 64.5631C56.6642 63.0645 57.6223 61.7733 58.4118 60.5084C59.2012 59.2436 59.8646 57.647 59.2401 56.2898C58.7064 55.1305 55.4893 53.5754 53.6325 53.8827C55.4504 54.122 57.6909 55.3398 58.1282 56.2898C58.7527 57.647 58.0893 59.2436 57.2999 60.5084C56.5104 61.7733 55.5486 63.0645 55.5523 64.5631C55.5523 66.4971 55.4245 67.9561 54.9019 69.8241C54.7518 70.3613 56.1991 71.1737 55.9767 71.6827C55.2243 73.3792 55.5764 75.3358 55.456 77.1907C55.4535 77.553 55.3665 77.9097 55.2021 78.2312C54.8315 78.8513 54.0717 79.0116 53.3323 79.0455H53.979C54.8426 79.0455 55.8674 78.9776 56.314 78.2255C56.4784 77.904 56.5654 77.5474 56.5679 77.185C56.6883 75.3302 56.3362 73.3717 57.0886 71.677C57.3147 71.1681 55.8637 70.3575 56.0138 69.8184C56.5364 67.9636 56.6679 66.4971 56.6642 64.5631Z" fill="black"/>
</g>
<path opacity="0.1" d="M48.6694 59.3812L48.9752 60.024L51.6678 59.7356L51.8531 58.631L51.7494 58.5028C51.4621 58.6461 49.3106 59.6998 48.6694 59.3812Z" fill="black"/>
<path opacity="0.1" d="M58.6116 66.6064C58.6116 66.6064 57.95 65.5508 57.5719 65.8373C57.1939 66.1238 57.0475 64.9721 56.8307 65.1644C56.6139 65.3567 55.9819 65.892 55.7188 65.1437C55.5131 64.548 53.2745 60.7799 52.3665 59.2643C52.133 58.8723 51.9866 58.631 51.9866 58.631C51.9866 58.631 49.4366 59.9279 48.8232 59.4962V60.4085L49.3421 60.4575L52.1218 65.7355C52.1218 65.7355 52.9965 67.1512 52.9372 67.645C52.8779 68.1389 54.0584 70.301 54.2474 70.4443C54.4364 70.5875 56.4712 72.9909 56.4712 72.9909C56.4712 72.9909 57.5108 78.1803 56.612 79.6223C55.7132 81.0644 54.1566 82.12 54.1566 82.12C54.1566 82.12 53.6878 83.513 53.7563 83.6581C53.8249 83.8033 53.2115 84.4272 53.495 84.6195C53.7786 84.8117 54.1566 86.1557 54.1566 86.1557C54.1566 86.1557 55.4797 83.9936 56.1951 83.6581C56.9104 83.3226 57.8258 78.9004 57.8258 78.9004C57.8258 78.9004 58.0871 76.2953 58.1075 74.6139C58.1279 72.9325 58.0445 66.6064 58.6116 66.6064Z" fill="black"/>
<path d="M58.469 66.6064C58.469 66.6064 57.8093 65.5508 57.4312 65.8373C57.0532 66.1239 56.9049 64.9721 56.69 65.1644C56.475 65.3567 55.8431 65.892 55.5781 65.1437C55.3705 64.548 53.1319 60.7799 52.2257 59.2643L51.8458 58.631C51.8458 58.631 49.2959 59.9279 48.6807 59.4962V60.4085L49.2014 60.4575L51.9811 65.7355C51.9811 65.7355 52.8577 67.1512 52.7965 67.645C52.7354 68.1389 53.9084 70.301 54.1067 70.4443C54.305 70.5875 56.3305 72.9909 56.3305 72.9909C56.3305 72.9909 57.3701 78.1803 56.4732 79.6223C55.9993 80.3466 55.423 80.9958 54.7627 81.5488C54.2081 82.0142 53.8177 82.6508 53.6508 83.3622C53.6186 83.4591 53.6073 83.562 53.6175 83.6638C53.686 83.807 53.0726 84.4329 53.3562 84.6251C53.6397 84.8174 54.0214 86.1671 54.0214 86.1671C54.0214 86.1671 55.3446 84.005 56.0599 83.6694C56.7752 83.3339 57.6925 78.9117 57.6925 78.9117C57.6925 78.9117 57.952 76.3066 57.9742 74.6252C57.9964 72.9438 57.913 66.6064 58.469 66.6064Z" fill="#F86D70"/>
<path opacity="0.1" d="M51.9976 88.4688C51.9976 88.4688 53.9824 88.8457 54.7774 89.4282C55.5724 90.0106 51.7549 88.5159 51.7549 88.5159L51.9976 88.4688Z" fill="black"/>
<path opacity="0.1" d="M56.7695 93.5845C56.7695 93.5845 58.8395 95.3394 58.4689 96.9247C58.0982 98.51 57.142 102.499 57.142 102.499L56.7695 93.5845Z" fill="black"/>
<path opacity="0.1" d="M38.6663 90.2104C38.6663 90.2104 35.7495 90.5347 35.9385 90.9192C36.1275 91.3038 38.6663 90.5648 38.6663 90.5648V90.2104Z" fill="black"/>
<path opacity="0.1" d="M61.0634 104.804C61.0634 104.804 61.2487 105.044 60.1665 104.804C59.0843 104.565 59.883 103.826 59.883 103.826L61.0634 104.804Z" fill="black"/>
<path opacity="0.1" d="M60.6926 108.12C60.6926 108.12 59.2101 108.359 58.4151 108.12C57.6201 107.88 60.6926 108.12 60.6926 108.12Z" fill="black"/>
<path opacity="0.1" d="M57.6427 121.092C57.6427 121.092 57.3832 120.804 56.0842 121.332C54.7851 121.859 54.2663 121.884 53.8882 121.709C53.5102 121.533 57.6427 121.092 57.6427 121.092Z" fill="black"/>
<path opacity="0.1" d="M59.0842 89.8014L57.2422 92.4083C57.2422 92.4083 58.2336 90.1256 59.0842 89.8014Z" fill="black"/>
<path opacity="0.1" d="M55.5038 65.8373C55.5038 65.8373 55.4241 66.7025 54.2362 67.0399C53.0484 67.3773 52.8223 67.6507 52.8223 67.6507" fill="black"/>
<path opacity="0.1" d="M52.4165 59.5659C52.4165 59.5659 50.8487 60.6969 49.2124 60.4575L52.4165 59.5659Z" fill="black"/>
<path opacity="0.1" d="M53.6099 83.7825C53.6099 83.7825 54.0676 84.0747 55.1665 82.7966L53.6099 83.7825Z" fill="black"/>
<path opacity="0.1" d="M65.0237 70.2312C65.0681 69.9975 64.9088 69.7807 64.7587 69.5978L64.451 69.2208C64.3909 69.1437 64.3232 69.0729 64.249 69.0097C64.0637 68.8646 63.8265 68.8212 63.6338 68.6912" fill="black"/>
</g>
<defs>
<linearGradient id="paint0_linear" x1="7385.15" y1="47239.7" x2="16538.1" y2="47239.7" gradientUnits="userSpaceOnUse">
<stop stop-color="#808080" stop-opacity="0.25"/>
<stop offset="0.54" stop-color="#808080" stop-opacity="0.12"/>
<stop offset="1" stop-color="#808080" stop-opacity="0.1"/>
</linearGradient>
<clipPath id="clip0">
<rect width="212" height="123" fill="white"/>
</clipPath>
</defs>
</svg>
