<svg width="212" height="123" viewBox="0 0 212 123" fill="none" xmlns="http://www.w3.org/2000/svg">
<g clip-path="url(#clip0)">
<path opacity="0.1" d="M127.445 88.6534C131.541 88.4159 136.622 85.5902 140.573 84.3405C145.249 82.8652 149.944 81.4458 154.657 80.0823C171.065 75.3333 187.649 71.2869 204.408 67.9429C205.973 67.63 207.539 67.3246 209.108 67.0268C206.664 61.6549 202.877 57.0291 198.126 53.6112C198.248 52.4353 198.31 51.2537 198.312 50.0712C198.312 31.3833 183.629 16.2336 165.511 16.2336C159.933 16.2276 154.448 17.6921 149.592 20.4843C136.769 11.9037 120.031 6.71057 101.718 6.71057C75.6963 6.71057 52.8526 17.1968 39.9083 32.9875L100.743 43.4417L138.055 49.8507C95.5194 51.1419 52.8526 52.4256 10.4396 49.3945C4.84087 54.9049 1.29727 62.222 0.414398 70.0954C-0.468475 77.9688 1.36419 85.9097 5.59918 92.561C5.59918 93.2377 5.62697 93.9088 5.67701 94.5742C6.75739 94.889 7.80071 95.1943 8.73655 95.3941C23.7606 98.6225 38.8811 101.324 54.0979 103.5C42.8845 110.533 29.2287 111.528 16.2937 114.506C22.5573 119.765 31.0633 122.989 40.4365 122.989H180.001C195.113 122.989 207.362 112.287 207.362 99.085C209.63 95.2811 211.141 91.0611 211.81 86.6647C183.846 89.4111 155.534 87.0266 127.445 88.6534Z" fill="#6C63FF"/>
<path opacity="0.1" d="M212 81.0417C212.015 75.6005 210.743 70.2354 208.292 65.3991C205.841 60.5627 202.282 56.3969 197.916 53.2531C198.037 52.0777 198.099 50.8968 198.102 49.7149C198.102 31.0271 183.412 15.883 165.301 15.883C159.722 15.8769 154.237 17.3407 149.38 20.1318C136.557 11.5475 119.817 6.35242 101.504 6.35242C71.7169 6.35242 46.0768 20.1035 34.7059 39.8225C34.0739 39.7848 33.4383 39.764 32.7971 39.764C14.6845 39.764 -0.00359806 54.9138 -0.00359806 73.6017C-0.0162935 80.2026 1.85864 86.6648 5.39277 92.2009C5.39277 109.015 20.9944 122.646 40.2319 122.646H179.8C194.91 122.646 207.16 111.943 207.16 98.74C210.338 93.4035 212.012 87.281 212 81.0417Z" fill="#DC2D27"/>
<path opacity="0.1" d="M212 81.0417C212.015 75.6005 210.743 70.2354 208.292 65.3991C205.841 60.5627 202.282 56.3969 197.916 53.2531C198.037 52.0777 198.099 50.8968 198.102 49.7149C198.102 31.0271 183.412 15.883 165.301 15.883C159.722 15.8769 154.237 17.3407 149.38 20.1318C136.557 11.5475 119.817 6.35242 101.504 6.35242C71.7169 6.35242 46.0768 20.1035 34.7059 39.8225C34.0739 39.7848 33.4383 39.764 32.7971 39.764C14.6845 39.764 -0.00359806 54.9138 -0.00359806 73.6017C-0.0162935 80.2026 1.85864 86.6648 5.39277 92.2009C5.39277 109.015 20.9944 122.646 40.2319 122.646H179.8C194.91 122.646 207.16 111.943 207.16 98.74C210.338 93.4035 212.012 87.281 212 81.0417Z" fill="#DC2D27"/>
<g opacity="0.1">
<path opacity="0.1" d="M146.285 27.9113L146.054 27.9279L146.028 27.9463C146.115 27.9428 146.201 27.9311 146.285 27.9113Z" fill="black"/>
<path opacity="0.1" d="M150.526 31.8245C150.487 32.1992 150.407 32.5684 150.288 32.9253C150.212 33.1419 150.15 33.3636 150.103 33.5888C150.066 33.8075 150.062 34.0299 150.029 34.2486C149.988 34.5321 149.891 34.8044 149.745 35.0494C149.599 35.2945 149.406 35.5074 149.178 35.6755C149.113 35.7294 149.032 35.7593 148.949 35.7603C148.804 35.7434 148.715 35.5718 148.661 35.4173C148.367 34.552 148.437 33.4946 147.894 32.8046C147.647 32.5263 147.349 32.3002 147.016 32.1392C146.88 32.0502 146.727 31.9917 146.567 31.9677C146.332 31.9806 146.106 32.0646 145.919 32.209C145.528 32.4759 145.094 32.6711 144.636 32.7858C144.408 32.8408 144.171 32.8433 143.941 32.793C143.712 32.7428 143.497 32.6412 143.311 32.4955C143.056 32.2806 142.868 31.9583 142.585 31.7905C142.301 31.6228 142.005 31.6322 141.725 31.5172C141.55 31.4413 141.394 31.3262 141.269 31.1807C141.144 31.0352 141.053 30.8628 141.002 30.6765C140.996 30.653 140.991 30.629 140.987 30.6049C140.941 30.8153 140.946 31.034 141.002 31.242C141.053 31.4283 141.144 31.6007 141.269 31.7462C141.394 31.8917 141.55 32.0068 141.725 32.0827C142.005 32.1977 142.32 32.1996 142.585 32.356C142.85 32.5125 143.056 32.8461 143.311 33.061C143.497 33.2067 143.712 33.3083 143.941 33.3585C144.171 33.4088 144.408 33.4063 144.636 33.3513C145.094 33.2366 145.528 33.0414 145.919 32.7745C146.106 32.6301 146.332 32.5461 146.567 32.5332C146.727 32.5572 146.88 32.6157 147.016 32.7047C147.344 32.8689 147.638 33.0968 147.881 33.3758C148.424 34.0657 148.354 35.1232 148.648 35.9884C148.702 36.1449 148.791 36.3145 148.936 36.3315C149.025 36.3319 149.111 36.2998 149.178 36.241C149.407 36.0724 149.601 35.8587 149.747 35.6126C149.894 35.3666 149.99 35.0931 150.031 34.8084C150.064 34.5897 150.068 34.3673 150.105 34.1487C150.152 33.9234 150.214 33.7017 150.29 33.4851C150.471 32.9775 150.554 32.4394 150.537 31.8999C150.533 31.8772 150.529 31.8508 150.526 31.8245Z" fill="black"/>
</g>
<path opacity="0.1" d="M115.325 77.8995C125.536 73.8166 130.947 66.5537 133.725 60.976C136.964 54.4728 137.405 48.912 137.422 48.6745L137.548 46.9535H138.845L138.719 48.6745C138.702 48.9082 138.261 54.4728 135.022 60.976C132.242 66.5537 126.833 73.8166 116.622 77.8995C115.825 78.22 114.998 78.5197 114.139 78.7987L114.013 78.3972C114.46 78.2351 114.898 78.0692 115.325 77.8995Z" fill="white"/>
<path opacity="0.1" d="M92.6908 77.8995C82.48 73.8166 77.0688 66.5537 74.2909 60.976C71.0516 54.4728 70.6105 48.912 70.5939 48.6745L70.4679 46.9535H69.1707L69.2967 48.6745C69.3133 48.9082 69.7544 54.4728 72.9937 60.976C75.7734 66.5537 81.1828 73.8166 91.3936 77.8995C92.1905 78.22 93.0182 78.5197 93.8768 78.7987L94.0028 78.3972C93.5569 78.2351 93.1195 78.0692 92.6908 77.8995Z" fill="white"/>
<path d="M131.925 73.4318L131.829 74.8686C131.815 75.0637 131.481 79.7094 129.017 85.1388C126.902 89.7955 122.788 95.8607 115.02 99.2694C114.414 99.5369 113.785 99.7866 113.133 100.018L112.406 97.469C114.231 96.8274 115.99 95.9685 117.652 94.907C121.611 92.3544 124.69 88.7112 126.836 84.023C127.975 81.5269 128.787 78.861 129.247 76.1071H120.409V73.4318H131.925Z" fill="#DC2D27"/>
<path d="M98.5191 97.469L97.7918 100.018C97.1387 99.7856 96.5091 99.5353 95.903 99.2678C88.1365 95.8591 84.0207 89.7955 81.9078 85.1388C79.444 79.7094 79.1085 75.0669 79.0959 74.8686L79 73.4318H90.5102V76.1071H81.6711C82.1331 78.8614 82.9472 81.5273 84.0884 84.023C86.2351 88.7112 89.3121 92.3544 93.2714 94.9054C94.933 95.968 96.6924 96.8275 98.5191 97.469Z" fill="#DC2D27"/>
<path d="M118.758 122.114V136.54H92.1648V122.114L93.0105 120.855C101.628 117.44 103.375 108.534 103.723 105.01C103.775 104.524 103.804 104.034 103.812 103.544H107.1C107.107 104.034 107.137 104.524 107.189 105.01C107.543 108.534 109.289 117.443 117.901 120.855L118.758 122.114Z" fill="#DC2D27"/>
<path opacity="0.1" d="M118.758 122.114H92.1648V123.923H118.758V122.114Z" fill="black"/>
<path opacity="0.1" d="M94.42 120.855C103.038 117.44 104.784 108.534 105.132 105.01C105.184 104.524 105.214 104.034 105.221 103.544H103.812C103.804 104.034 103.775 104.524 103.723 105.01C103.369 108.534 101.623 117.443 93.0105 120.855L92.1648 122.114V136.54H93.5743V122.114L94.42 120.855Z" fill="white"/>
<path d="M88.4072 69C88.4678 88.8385 96.0793 104.881 105.462 104.881C114.846 104.881 122.456 88.8385 122.518 69H88.4072Z" fill="#DC2D27"/>
<path opacity="0.1" d="M93.2301 112.723H115.9V111.875H92.1182V118.095H93.2301V112.723Z" fill="white"/>
<path opacity="0.1" d="M164.428 0.0206657C164.428 0.0206657 148.826 -0.936913 150.661 10.1846C150.661 10.1846 150.29 12.1506 152.047 13.0422C152.047 13.0422 152.075 12.2185 153.648 12.4994C154.208 12.5938 154.777 12.6216 155.344 12.5823C156.109 12.5286 156.836 12.2229 157.415 11.7114C157.415 11.7114 161.802 9.86791 163.507 2.57673C163.507 2.57673 164.769 0.985787 164.719 0.576742L162.085 1.72093C162.085 1.72093 162.986 3.65306 162.271 5.25908C162.271 5.25908 162.185 1.79068 161.68 1.86608C161.578 1.88305 160.312 2.53526 160.312 2.53526C160.312 2.53526 161.859 5.89998 160.692 8.34671C160.692 8.34671 161.135 4.19971 159.828 2.77842L157.975 3.87926C157.975 3.87926 159.784 7.3552 158.557 10.1921C158.557 10.1921 158.872 5.84155 157.584 4.14693L155.905 5.47963C155.905 5.47963 157.604 8.90656 156.569 11.259C156.569 11.259 156.433 6.19404 155.542 5.81139C155.542 5.81139 154.072 7.13088 153.848 7.66999C153.848 7.66999 155.012 10.1582 154.289 11.4702C154.289 11.4702 153.846 8.09601 153.483 8.07716C153.483 8.07716 152.019 10.3128 151.867 11.8472C151.867 11.8472 151.93 9.56819 153.129 7.86604C153.129 7.86604 151.713 8.11297 150.887 9.04605C150.887 9.04605 151.115 7.46641 153.49 7.32881C153.49 7.32881 154.701 5.63231 155.023 5.52864C155.023 5.52864 152.662 5.32882 151.23 5.97349C151.23 5.97349 152.49 4.48246 155.457 5.16106L157.115 3.78313C157.115 3.78313 154.006 3.35146 152.686 3.82837C152.686 3.82837 154.204 2.50886 157.562 3.47021L159.367 2.37315C159.367 2.37315 156.715 1.79257 155.136 1.99615C155.136 1.99615 156.804 1.08192 159.897 2.07343L161.194 1.48343C161.194 1.48343 159.252 1.09512 158.683 1.03291C158.114 0.970706 158.084 0.812367 158.084 0.812367C159.315 0.603669 160.578 0.746583 161.733 1.22518C161.733 1.22518 164.476 0.195971 164.428 0.0206657Z" fill="#6C63FF"/>
<path opacity="0.1" d="M145.185 2.85009C145.185 2.85009 138.143 2.41654 138.968 7.44195C138.968 7.44195 138.803 8.33167 139.592 8.73506C139.592 8.73506 139.605 8.35806 140.317 8.48812C140.569 8.53139 140.826 8.54405 141.082 8.52582C141.428 8.50191 141.757 8.36355 142.018 8.13186C142.018 8.13186 144.001 7.30057 144.772 4.00559C144.772 4.00559 145.341 3.28552 145.318 3.10079L144.129 3.61728C144.129 3.61728 144.536 4.49192 144.216 5.21765C144.216 5.21765 144.177 3.64933 143.949 3.68703C143.903 3.68703 143.33 3.98863 143.33 3.98863C143.33 3.98863 144.03 5.50982 143.502 6.61632C143.502 6.61632 143.702 4.74263 143.111 4.09984L142.274 4.59748C142.274 4.59748 143.093 6.16769 142.537 7.44949C142.537 7.44949 142.679 5.48343 142.098 4.71812L141.34 5.32698C141.34 5.32698 142.107 6.87645 141.64 7.9377C141.64 7.9377 141.579 5.64931 141.175 5.47778C141.175 5.47778 140.511 6.07344 140.409 6.31849C140.409 6.31849 140.936 7.44949 140.609 8.03384C140.609 8.03384 140.409 6.50887 140.239 6.50322C140.239 6.50322 139.579 7.51358 139.509 8.19972C139.542 7.55937 139.738 6.93887 140.079 6.39954C139.698 6.4731 139.345 6.65851 139.066 6.933C139.066 6.933 139.17 6.22047 140.243 6.15638C140.243 6.15638 140.798 5.39107 140.936 5.34394C140.936 5.34394 139.868 5.25346 139.221 5.54564C139.221 5.54564 139.79 4.87081 141.132 5.16864L141.873 4.54659C141.873 4.54659 140.469 4.35809 139.872 4.56732C139.872 4.56732 140.558 3.97166 142.075 4.40521L142.891 3.90946C142.891 3.90946 141.694 3.64556 140.978 3.74169C140.978 3.74169 141.732 3.32699 143.13 3.77562L143.713 3.50984C143.713 3.50984 142.835 3.33265 142.578 3.30626C142.32 3.27987 142.307 3.20635 142.307 3.20635C142.863 3.11222 143.434 3.17749 143.956 3.39485C143.956 3.39485 145.207 2.92926 145.185 2.85009Z" fill="#6C63FF"/>
<path d="M169.784 122.668C173.899 122.668 177.235 122.094 177.235 121.387C177.235 120.679 173.899 120.105 169.784 120.105C165.668 120.105 162.332 120.679 162.332 121.387C162.332 122.094 165.668 122.668 169.784 122.668Z" fill="#DC2D27"/>
<path d="M172.865 119.29C173.206 119.008 173.453 118.628 173.575 118.199C173.668 117.767 173.486 117.256 173.078 117.089C172.623 116.911 172.135 117.234 171.766 117.558C171.398 117.882 170.973 118.254 170.491 118.184C170.74 117.954 170.925 117.664 171.031 117.34C171.136 117.016 171.157 116.669 171.092 116.335C171.071 116.196 171.013 116.066 170.925 115.958C170.671 115.682 170.213 115.799 169.91 116.016C168.946 116.706 168.677 118.039 168.672 119.236C168.575 118.804 168.657 118.354 168.655 117.916C168.653 117.479 168.533 116.974 168.164 116.742C167.936 116.617 167.681 116.556 167.423 116.565C166.991 116.548 166.507 116.593 166.213 116.915C165.842 117.315 165.94 117.986 166.259 118.423C166.578 118.861 167.065 119.141 167.513 119.445C167.872 119.662 168.178 119.96 168.408 120.314C168.436 120.363 168.459 120.416 168.475 120.47H171.192C171.799 120.156 172.362 119.759 172.865 119.29Z" fill="#DC2D27"/>
<path d="M188.169 59.9861C187.905 59.7792 187.594 59.6408 187.265 59.5827C186.919 59.5017 186.565 59.4508 186.213 59.3942L181.65 58.725C181.19 58.6381 180.72 58.6127 180.253 58.6496C180.019 58.6692 179.79 58.7359 179.582 58.8459C179.373 58.956 179.188 59.1071 179.037 59.2905C178.901 59.4612 178.827 59.6741 178.826 59.8937C178.851 60.1148 178.922 60.328 179.033 60.5196C179.078 60.6091 179.115 60.7017 179.146 60.7967C179.19 61.0099 179.245 61.2206 179.31 61.4281C179.33 61.4731 179.356 61.5149 179.387 61.5525C179.388 61.5632 179.388 61.5739 179.387 61.5846C179.337 61.8447 179.499 62.1162 179.426 62.3669C179.363 62.5818 179.158 62.7118 179.028 62.8909C178.941 63.0179 178.893 63.168 178.89 63.3225C178.887 63.4771 178.928 63.6291 179.009 63.7599C179.148 63.9785 179.4 64.1274 179.473 64.3782C179.567 64.708 179.311 65.0266 179.083 65.2811C178.664 65.7495 178.277 66.2464 177.923 66.7683C177.824 66.8967 177.76 67.0496 177.738 67.2113C177.718 67.5393 178.027 67.8277 177.973 68.1538C177.931 68.4102 177.684 68.5666 177.471 68.7193C176.684 69.2471 176.052 70.0954 175.989 71.0548C175.786 69.5283 175.165 68.0908 174.195 66.9078C173.93 66.5836 173.639 66.2575 173.53 65.8466C173.489 65.6826 173.481 65.5073 173.426 65.3489C173.24 64.8494 172.651 64.6345 172.394 64.1746C172.208 63.8504 172.208 63.4338 171.978 63.1491C171.749 62.8645 171.387 62.8004 171.189 62.5252C171.09 62.3388 171.006 62.1446 170.937 61.9446C170.854 61.7815 170.737 61.6387 170.594 61.5261C170.567 61.5039 170.538 61.4832 170.509 61.4639C170.54 61.4359 170.564 61.4017 170.581 61.3634C170.598 61.325 170.607 61.2835 170.607 61.2415C170.607 61.021 170.392 60.8758 170.205 60.7665C169.964 60.627 169.729 60.4762 169.499 60.3198C169.75 60.201 169.967 60.0202 170.131 59.7938C170.337 59.4562 170.422 59.0568 170.372 58.6628C170.359 58.3449 170.242 58.0403 170.04 57.7976C169.923 57.6713 169.777 57.5808 169.655 57.4621C169.338 57.1473 169.23 56.6817 169.099 56.2519C168.924 55.6864 168.652 55.0927 168.144 54.7929C167.9 54.6478 167.614 54.5799 167.375 54.4272C167.136 54.2746 166.936 53.9862 167.019 53.7091C167.075 53.5206 167.247 53.3905 167.364 53.2303C167.504 53.0231 167.557 52.7684 167.513 52.5213C167.469 52.2743 167.331 52.0549 167.129 51.9108C166.992 51.8222 166.823 51.7449 166.795 51.5828C166.688 51.5544 166.591 51.4959 166.515 51.4139C166.439 51.3318 166.387 51.2297 166.365 51.1191C166.324 50.8974 166.324 50.6697 166.365 50.448C166.413 50.0974 166.461 49.748 166.508 49.4C166.59 49.4345 166.677 49.4523 166.766 49.4523C166.854 49.4523 166.942 49.4345 167.023 49.4C167.184 49.6647 167.37 49.9122 167.579 50.1389C168.143 50.8167 168.583 51.5926 168.876 52.4291C168.982 52.7307 169.089 53.0682 169.364 53.2284C169.458 53.283 169.566 53.3113 169.658 53.3698C169.773 53.4508 169.871 53.5531 169.947 53.6714C170.17 53.9711 170.392 54.2689 170.613 54.5686L170.624 54.6139C170.63 54.6404 170.64 54.6658 170.653 54.6893C170.695 54.7362 170.751 54.7658 170.813 54.7722C171.495 54.9324 172.26 55.0795 172.851 54.7006C173.385 54.3613 173.619 53.6902 174.071 53.2416C174.391 52.923 174.845 52.6761 174.936 52.2274C174.828 52.1935 174.722 52.1538 174.617 52.1087C174.71 52.0144 174.803 51.9051 174.929 51.7807C175.112 51.5984 175.277 51.3982 175.422 51.1832C175.578 50.9178 175.703 50.6343 175.792 50.3387C176.149 49.3032 176.508 48.2671 176.867 47.2303C177.038 46.7402 177.208 46.2463 177.423 45.7694C177.645 45.2529 177.909 44.7572 178.151 44.2501C178.778 42.9314 179.261 41.5472 179.593 40.122C179.652 39.9275 179.671 39.723 179.651 39.5207C179.599 39.1946 179.356 38.9382 179.124 38.7063C178.891 38.4498 178.626 38.2261 178.335 38.0409C178.189 37.9485 178.026 37.8866 177.856 37.8587C177.686 37.8309 177.512 37.8377 177.345 37.8788C176.871 38.0202 176.572 38.5141 176.463 39.0098C176.354 39.5056 176.395 40.0164 176.348 40.5178C176.281 41.2436 176.037 41.9448 175.978 42.6724C175.946 43.0927 175.978 43.5188 175.928 43.9391C175.836 44.4892 175.648 45.018 175.372 45.4999C174.771 46.6491 173.957 47.6694 172.975 48.5046C172.862 48.6007 172.746 48.6931 172.635 48.7967C172.635 48.7157 172.647 48.6328 172.659 48.5517C172.578 48.5731 172.499 48.6014 172.423 48.6365C172.433 48.5413 172.423 48.4452 172.395 48.3538C172.247 47.9033 171.587 47.7883 171.469 47.3302C171.449 47.2169 171.439 47.1022 171.437 46.9872C171.398 46.5856 171.13 46.2463 171.037 45.8562C170.952 45.4961 171.017 45.1021 170.852 44.7685C170.711 44.5599 170.546 44.3699 170.359 44.203C170.136 43.9443 169.976 43.6365 169.89 43.3039C169.866 43.2115 169.844 43.1154 169.818 43.023C169.846 42.8138 169.823 42.6008 169.751 42.4028C169.582 41.9768 169.147 41.7035 168.989 41.2718C168.867 40.9363 168.921 40.5178 168.689 40.2577C168.566 40.1334 168.415 40.041 168.25 39.9881C167.402 39.6522 166.512 39.4384 165.606 39.3529C165.098 39.3058 164.538 39.2794 164.175 38.9156C163.751 38.4933 163.73 37.7337 163.233 37.4076C162.796 37.1192 162.177 37.3322 161.838 37.7375C161.787 37.7971 161.74 37.86 161.697 37.926C161.635 37.6733 161.622 37.4109 161.658 37.1531C161.658 37.089 161.671 37.023 161.677 36.9646C162.514 36.6865 163.226 36.1145 163.686 35.351C163.686 35.351 163.686 35.351 163.686 35.3624L163.708 35.4208C163.762 35.5584 163.847 35.6903 163.973 35.7054C164.057 35.7044 164.138 35.6745 164.203 35.6206C164.314 35.5416 164.418 35.4506 164.51 35.3492C164.557 35.2964 164.602 35.2417 164.644 35.1852C164.729 35.0675 164.802 34.9411 164.862 34.8082C164.954 34.6081 165.017 34.3953 165.048 34.1767C165.081 33.958 165.085 33.7337 165.122 33.5151C165.156 33.3458 165.202 33.179 165.257 33.0155C165.276 32.9609 165.294 32.9062 165.311 32.8515C165.328 32.7969 165.352 32.7234 165.37 32.663C165.486 32.2753 165.549 31.8731 165.555 31.4679C165.555 31.4001 165.555 31.3322 165.555 31.2644C165.549 30.9999 165.49 30.7395 165.383 30.4984C165.276 30.2573 165.123 30.0402 164.933 29.86C164.614 29.5943 164.192 29.483 163.958 29.123C163.806 28.8817 163.773 28.5707 163.684 28.288C163.588 27.9496 163.4 27.6454 163.143 27.4098C162.885 27.1743 162.568 27.0168 162.227 26.9553C161.817 26.9095 161.404 27.0248 161.075 27.2776L161.049 27.2983C160.865 27.4411 160.709 27.6175 160.589 27.8186C160.344 27.75 160.12 27.6204 159.937 27.4416C159.751 27.2663 159.609 27.0457 159.422 26.8761C159.247 26.7132 159.032 26.601 158.8 26.5512C158.568 26.5015 158.327 26.516 158.102 26.5933C157.871 26.6876 157.665 26.8364 157.501 27.0274C157.337 27.2185 157.219 27.4463 157.159 27.6923C157.057 28.0806 157.075 28.5273 156.862 28.8516C156.697 29.1042 156.427 29.2286 156.238 29.4585C156.12 29.6042 156.04 29.7771 156.004 29.9618C155.982 30.0652 155.971 30.1708 155.973 30.2766C155.973 30.3238 155.973 30.3709 155.984 30.4161C155.984 30.4161 155.984 30.4312 155.984 30.4387C155.991 30.4904 156.001 30.5414 156.015 30.5914C156.068 30.7825 156.163 30.9591 156.292 31.1079C156.414 31.2505 156.567 31.3627 156.738 31.4359C156.808 31.4637 156.88 31.487 156.953 31.5057L157.174 31.5565L157.252 31.5754C156.985 32.0836 156.838 32.6473 156.82 33.2228C156.802 33.7984 156.914 34.3705 157.148 34.8949C157.148 34.9477 157.135 35.0004 157.129 35.0532C157.099 35.7955 157.131 36.539 157.226 37.2756C157.252 37.5678 157.266 37.8901 157.09 38.122C157.01 38.2132 156.92 38.2948 156.822 38.3652C156.922 38.2332 157.024 38.1031 157.127 37.9731C156.866 37.7054 156.453 37.6715 156.082 37.6979C155.365 37.7524 154.669 37.9687 154.044 38.3312C153.629 38.5744 153.202 38.8967 152.728 38.8402C152.448 38.8081 152.172 38.6517 151.9 38.7271C151.747 38.7908 151.604 38.8772 151.475 38.9834C151.374 39.0574 151.252 39.0958 151.127 39.0928C150.836 38.729 150.386 38.482 150.037 38.1861C149.641 37.8271 149.278 37.4314 148.953 37.0042C148.353 36.2672 147.754 35.5282 147.165 34.7837C146.668 34.1578 146.159 33.4811 146.071 32.68C146.063 32.6005 146.058 32.5206 146.059 32.4406C146.071 32.06 146.118 31.6813 146.199 31.3096C146.221 31.2199 146.221 31.126 146.199 31.0363C146.144 30.8478 145.931 30.778 145.747 30.7366C145.771 30.5914 145.788 30.4425 145.797 30.3011C145.901 28.68 145.788 27.0325 146.125 25.4454C146.253 24.8346 146.462 24.2164 146.894 23.7734C147.571 23.0778 148.703 22.9101 149.222 22.0863C149.655 21.4002 149.483 20.4294 148.938 19.8243C148.393 19.2192 147.554 18.9723 146.755 19.0024C146.531 18.9946 146.31 19.055 146.12 19.1759C145.942 19.3365 145.809 19.5419 145.734 19.7715L144.939 21.7376C144.709 22.2494 144.514 22.7773 144.357 23.3172C144.135 24.1428 144.085 25.0137 143.909 25.8469C143.909 26.4878 143.503 27.287 143.281 27.877C143.032 28.5405 142.764 29.1965 142.539 29.8732C142.484 30.0429 142.289 30.5462 142.169 31.0042C142.123 31.0312 142.081 31.0635 142.043 31.1004C141.946 31.2265 141.858 31.3594 141.78 31.4981C141.611 31.7243 141.337 31.8449 141.151 32.0636C140.966 32.2823 140.927 32.6838 141.185 32.7931C141.237 32.811 141.291 32.823 141.346 32.8289C141.38 32.8318 141.413 32.8375 141.446 32.8459C141.724 32.9251 141.833 33.2813 141.793 33.5754C141.752 33.8694 141.607 34.1409 141.583 34.4349C141.533 34.9552 141.833 35.4396 142.122 35.877C142.422 36.351 142.752 36.8038 143.112 37.2323C143.373 37.5301 143.668 37.7978 143.931 38.0843C144.934 39.1324 145.73 40.3576 146.631 41.4961C146.955 41.9259 147.324 42.3189 147.73 42.6686C147.995 42.8798 148.273 43.0743 148.562 43.2511L150.111 44.2501C150.287 44.3811 150.486 44.4765 150.697 44.531C150.766 44.5404 150.836 44.5404 150.904 44.531C150.914 44.5781 150.921 44.6234 150.932 44.6705C151.053 45.1644 151.318 45.613 151.347 46.1163C151.377 46.6196 151.333 47.1342 151.368 47.6431C151.401 48.1125 151.503 48.5856 151.529 49.0475C151.581 49.9372 151.366 50.8156 151.158 51.6865C150.845 52.9607 150.656 54.2614 150.046 55.4169C149.876 55.7354 149.676 56.0597 149.676 56.4235C149.676 56.4668 149.676 56.5121 149.687 56.5554L149.409 56.7156C149.327 56.7628 149.246 56.8099 149.172 56.8589C148.82 57.0926 148.444 57.3509 148.299 57.7543C148.182 58.0804 148.236 58.4536 148.095 58.7703C148.088 58.7845 148.081 58.7983 148.073 58.8118C147.925 59.1058 147.63 59.3245 147.563 59.6468C147.513 59.8937 147.61 60.1558 147.563 60.4008C147.563 60.4008 147.563 60.4008 147.563 60.4102C147.521 60.5333 147.488 60.6593 147.463 60.7872C147.461 60.829 147.465 60.8709 147.474 60.9116C147.51 61.0545 147.587 61.1828 147.697 61.2792C147.763 61.3444 147.836 61.4031 147.914 61.4545C147.993 61.5073 148.074 61.5563 148.158 61.6016L148.206 61.6279C148.277 61.6656 148.347 61.7015 148.419 61.7354L148.468 61.7561C148.551 61.7938 148.636 61.8278 148.721 61.8579L148.781 61.8768C148.847 61.8994 148.916 61.9201 148.985 61.9371L149.031 61.9522L149.074 61.9616L149.259 62.0012L149.327 62.0144C149.409 62.0282 149.492 62.0395 149.578 62.0483H149.652C149.715 62.0483 149.776 62.0577 149.837 62.0596H149.924C149.989 62.0596 150.052 62.0596 150.109 62.0596H150.176C150.263 62.0596 150.35 62.0464 150.437 62.0351H150.465C150.543 62.0238 150.621 62.0106 150.699 61.9936L150.758 61.9804C150.83 61.9635 150.903 61.9465 150.975 61.9239L151.014 61.9126C151.101 61.8862 151.188 61.8579 151.273 61.824C151.568 61.7007 151.854 61.5564 152.129 61.3923C152.315 61.2886 152.5 61.1831 152.685 61.0869C152.823 61.0165 152.964 60.9536 153.108 60.8984C153.458 60.7461 153.84 60.6815 154.22 60.7099C154.407 60.7359 154.593 60.7744 154.776 60.8249C154.776 60.8457 154.776 60.8664 154.776 60.8871C154.926 61.7919 155.075 62.6967 155.222 63.6015C155.465 63.4239 155.722 63.2669 155.99 63.1322C155.939 63.2688 155.906 63.4113 155.891 63.5563C155.88 63.6685 155.88 63.7815 155.891 63.8937C155.908 64.0728 155.945 64.2707 155.839 64.4121C155.775 64.4988 155.654 64.5478 155.619 64.6458C155.593 64.746 155.587 64.8504 155.6 64.9531C155.593 65.0703 155.544 65.1808 155.463 65.2645C155.382 65.3482 155.274 65.3996 155.159 65.4092C155.212 65.561 155.214 65.7265 155.163 65.879C155.112 66.0315 155.012 66.1622 154.879 66.25C154.802 66.2879 154.73 66.3361 154.665 66.3932C154.601 66.4765 154.559 66.5742 154.54 66.6779C154.295 67.6113 153.792 68.4535 153.089 69.1039C152.826 69.3145 152.585 69.5534 152.372 69.8164C152.24 70.0201 152.132 70.2382 152.048 70.4667C151.554 71.6957 151.052 72.9254 150.543 74.1556C150.261 74.8437 149.987 75.543 149.898 76.2838C149.676 78.3158 147.897 80.0387 148.23 82.0557C148.298 82.5595 148.498 83.0355 148.809 83.4336C149.179 83.8879 149.735 84.148 150.291 84.3592C151.72 84.9247 153.226 85.2338 154.728 85.5448L157.085 86.0368C157.547 86.145 158.017 86.2206 158.489 86.263C159.058 86.3026 159.642 86.2479 160.196 86.395C160.539 86.4854 160.867 86.6532 161.221 86.6721C161.525 86.689 161.899 86.623 162.079 86.8756C162.259 87.1282 162.12 87.4619 162.29 87.6862C162.564 88.0424 163.233 87.6862 163.532 88.0217C163.613 88.1506 163.676 88.2909 163.717 88.4383C163.762 88.5294 163.826 88.6102 163.902 88.6758C163.921 88.7822 163.928 88.8902 163.925 88.9981C163.886 89.4359 163.796 89.8674 163.658 90.2837C163.435 91.049 163.214 91.8149 162.993 92.5815C162.908 92.8522 162.846 93.1297 162.807 93.4109C162.793 93.5475 162.793 93.6852 162.807 93.8219C162.846 94.2384 163.082 94.6682 163.473 94.8039C163.776 94.8855 164.098 94.845 164.373 94.6908C164.638 94.55 164.887 94.3793 165.114 94.1819C165.525 93.8661 165.885 93.4885 166.184 93.0622C167.11 91.6522 166.81 89.7446 167.461 88.1857C167.892 87.1452 168.734 86.3007 169.013 85.2036C169.079 84.9949 169.087 84.7719 169.036 84.559C168.919 84.182 168.524 83.9671 168.155 83.8314H168.139C167.836 83.7216 167.526 83.6316 167.212 83.5618C167.134 83.5448 167.055 83.5316 166.975 83.5184C166.799 83.3725 166.658 83.1866 166.565 82.9756C166.551 82.8634 166.522 82.7537 166.478 82.6495C166.449 82.6045 166.409 82.5674 166.363 82.5412C166.316 82.5149 166.265 82.5004 166.211 82.4987C166.026 82.4798 165.778 82.5477 165.576 82.5326C165.163 82.5024 164.888 82.0896 164.518 81.8992C164.147 81.7088 163.745 81.756 163.35 81.7842C163.209 81.8039 163.065 81.7949 162.928 81.7579C162.763 81.6807 162.613 81.5756 162.483 81.4468C162.255 81.2663 161.989 81.1422 161.705 81.0843C161.422 81.0264 161.129 81.0363 160.85 81.1132C160.673 81.186 160.485 81.2293 160.294 81.2414C159.933 81.2206 159.677 80.8926 159.41 80.6438C158.68 79.9633 157.641 79.7843 156.755 79.3375C156.619 79.2862 156.506 79.1872 156.436 79.0585C156.334 78.8022 156.564 78.5458 156.772 78.3705L158.295 77.0831C159.963 75.6731 162.047 74.6118 162.822 72.544C162.903 72.2667 163.028 72.005 163.193 71.7692C163.253 71.6973 163.322 71.6339 163.398 71.5807C163.735 71.3586 164.144 71.2776 164.538 71.3545C165.019 71.464 165.474 71.6662 165.88 71.9502C166.543 72.3586 167.189 72.7984 167.816 73.2697C168.438 73.7216 169.029 74.2153 169.586 74.7475C170.559 75.69 171.369 76.8078 172.275 77.8239C173.181 78.8399 174.217 79.788 175.475 80.2744C176.734 80.7607 178.255 80.74 179.335 79.9238C180.583 78.9813 180.983 77.2961 181.298 75.7504C181.993 75.068 182.202 74.0294 182.541 73.1114C182.755 72.5289 183.027 71.9804 183.257 71.3998C183.531 70.7174 183.746 70.0124 183.961 69.3093C184.205 68.6033 184.37 67.8717 184.454 67.1284C184.543 65.954 184.233 64.7043 184.558 63.6015C184.986 63.5054 185.375 63.2603 185.796 63.1171C186.422 62.9079 187.093 62.9418 187.756 62.9456H187.799C188.027 62.9703 188.257 62.9151 188.451 62.7891C188.673 62.6006 188.709 62.2783 188.72 61.9861C188.746 61.2641 188.701 60.4536 188.169 59.9861ZM161.319 27.8318C161.166 27.8703 161.007 27.8818 160.85 27.8657L161.319 27.8318Z" fill="url(#paint0_linear)"/>
<path d="M162.049 39.7563C161.825 39.9502 161.562 40.0923 161.278 40.1729L159.964 40.6517C159.251 40.9118 158.506 41.1739 157.754 41.0796C157.333 41.0268 155.53 40.7573 155.257 40.4236C154.842 39.9071 156.297 39.1475 156.794 38.712C156.906 38.6297 157.011 38.5363 157.105 38.4331C157.29 38.2031 157.266 37.8808 157.24 37.5905C157.146 36.8551 157.114 36.1128 157.144 35.3718C157.158 35.1952 157.183 35.0196 157.218 34.8459C157.403 33.9788 158.197 34.2955 158.823 34.5255C159.577 34.7746 160.306 35.0959 161 35.4849C161.212 35.5958 161.396 35.7545 161.538 35.9486C161.812 36.3709 161.703 36.9251 161.658 37.4566C161.619 37.8695 161.621 38.2653 161.875 38.565C162.003 38.6796 162.12 38.8058 162.225 38.942C162.285 39.0792 162.299 39.232 162.268 39.3784C162.236 39.5248 162.16 39.6571 162.049 39.7563Z" fill="#BE6F72"/>
<path d="M143.899 26.171C144.085 25.336 144.125 24.4745 144.348 23.647C144.505 23.109 144.699 22.583 144.93 22.073L145.747 20.1334C145.822 19.9043 145.955 19.6995 146.132 19.5396C146.323 19.4196 146.544 19.3593 146.768 19.3662C147.567 19.336 148.406 19.5886 148.951 20.1861C149.496 20.7837 149.668 21.7507 149.235 22.435C148.716 23.2587 147.583 23.4246 146.907 24.1183C146.475 24.5612 146.266 25.1776 146.138 25.7865C145.801 27.3699 145.914 29.0117 145.81 30.629C145.777 31.1323 145.68 31.7073 145.254 31.9674C144.996 32.0958 144.71 32.1524 144.424 32.1314L143.208 32.1521C143.004 32.1521 142.265 32.2822 142.13 32.1257C141.892 31.8524 142.434 30.4914 142.532 30.1879C142.75 29.515 143.019 28.859 143.273 28.1974C143.494 27.6074 143.899 26.81 143.899 26.171Z" fill="#BE6F72"/>
<path d="M169 85.3903C168.72 86.4798 167.879 87.3281 167.447 88.3667C166.797 89.9218 167.09 91.8238 166.171 93.23C165.872 93.6571 165.512 94.0353 165.101 94.3516C164.874 94.5484 164.625 94.7185 164.36 94.8586C164.085 95.0128 163.763 95.0533 163.459 94.9717C163.068 94.836 162.833 94.4062 162.794 93.9915C162.78 93.8556 162.78 93.7185 162.794 93.5825C162.833 93.3019 162.895 93.0251 162.979 92.755C163.202 91.9922 163.424 91.2281 163.645 90.4628C163.783 90.0478 163.873 89.6175 163.912 89.181C163.936 88.706 163.639 88.0877 163.765 87.6447C163.823 87.4449 164.038 87.2677 164.136 87.1C164.275 86.8585 164.382 86.5993 164.455 86.329C164.606 85.8031 164.71 85.2414 165.029 84.7984C165.237 84.5357 165.48 84.3041 165.752 84.1104C165.952 83.9317 166.187 83.7975 166.441 83.7164C166.688 83.6723 166.941 83.6845 167.182 83.7522C167.497 83.8205 167.806 83.9099 168.109 84.0199H168.126C168.496 84.1556 168.889 84.3648 169.006 84.7456C169.063 84.9569 169.061 85.18 169 85.3903Z" fill="#3F3D56"/>
<path d="M188.718 62.2161C188.707 62.5082 188.671 62.8344 188.449 63.0172C188.255 63.1432 188.025 63.1984 187.797 63.1737H187.747C187.085 63.1737 186.412 63.136 185.786 63.3452C185.31 63.5054 184.872 63.7995 184.376 63.8579C183.692 63.9371 183.049 63.5563 182.443 63.2245C181.872 62.9119 181.287 62.6288 180.688 62.3763C180.295 62.2123 179.493 62.1067 179.304 61.6694C179.239 61.4625 179.185 61.2524 179.141 61.0398C179.11 60.9448 179.072 60.8522 179.028 60.7627C178.916 60.5717 178.846 60.3592 178.82 60.1388C178.821 59.9191 178.895 59.7063 179.031 59.5356C179.182 59.3536 179.368 59.2037 179.576 59.0947C179.784 58.9857 180.012 58.9196 180.245 58.9003C180.712 58.8634 181.182 58.8888 181.642 58.9757L186.205 59.643C186.557 59.6939 186.911 59.7448 187.257 59.8315C187.587 59.8896 187.897 60.028 188.162 60.2349C188.701 60.6949 188.746 61.5035 188.718 62.2161Z" fill="#3F3D56"/>
<path d="M184.707 63.4224C184.151 64.6156 184.552 66.0275 184.452 67.347C184.368 68.0885 184.202 68.8182 183.959 69.5223C183.744 70.2235 183.529 70.9266 183.255 71.6071C183.025 72.1726 182.752 72.7381 182.539 73.3149C182.2 74.2348 181.983 75.2697 181.296 75.9539C180.981 77.4958 180.58 79.181 179.333 80.116C178.249 80.9303 176.739 80.9586 175.473 80.4666C174.207 79.9746 173.179 79.0321 172.273 78.0161C171.367 77.0001 170.557 75.8936 169.584 74.9473C169.026 74.415 168.434 73.9219 167.81 73.4714C167.183 73.0077 166.537 72.5716 165.874 72.1632C165.468 71.8805 165.012 71.679 164.532 71.5694C164.138 71.4925 163.73 71.5735 163.393 71.7956C163.316 71.8488 163.247 71.9122 163.187 71.9841C163.022 72.219 162.897 72.4802 162.816 72.757C162.038 74.8191 159.949 75.8785 158.282 77.2847L156.758 78.5684C156.551 78.7437 156.321 79.0001 156.423 79.2545C156.493 79.3833 156.606 79.4822 156.742 79.5335C157.627 79.9784 158.667 80.1575 159.397 80.8361C159.664 81.0849 159.92 81.4129 160.281 81.4317C160.472 81.4203 160.66 81.3777 160.837 81.3054C161.116 81.2287 161.408 81.2187 161.692 81.2763C161.975 81.3338 162.241 81.4574 162.47 81.6372C162.599 81.7659 162.75 81.8711 162.914 81.9482C163.052 81.9853 163.196 81.9942 163.337 81.9746C163.732 81.9463 164.15 81.9105 164.504 82.0896C164.858 82.2687 165.149 82.6909 165.563 82.7211C165.765 82.7361 166.005 82.6683 166.198 82.6871C166.251 82.6889 166.303 82.7034 166.35 82.7297C166.396 82.7559 166.436 82.793 166.465 82.8379C166.508 82.9415 166.538 83.0506 166.552 83.1622C166.628 83.4279 166.884 83.59 167.051 83.8087C167.306 84.1442 167.343 84.6004 167.317 85.0245C167.234 86.3507 166.653 87.5935 165.694 88.4967C165.422 88.7796 165.075 88.9761 164.695 89.0622C164.505 89.1027 164.307 89.0813 164.13 89.0011C163.952 88.921 163.804 88.7861 163.706 88.6155C163.664 88.4687 163.602 88.3289 163.52 88.2008C163.222 87.8671 162.553 88.2215 162.279 87.8652C162.108 87.6428 162.231 87.2865 162.068 87.0566C161.904 86.8266 161.512 86.8681 161.21 86.8549C160.856 86.836 160.528 86.6664 160.185 86.5778C159.629 86.4307 159.047 86.4854 158.478 86.4458C158.005 86.4034 157.536 86.3278 157.073 86.2196L154.716 85.7295C153.215 85.4185 151.708 85.1037 150.28 84.5476C149.733 84.3365 149.183 84.0764 148.797 83.624C148.486 83.2264 148.287 82.7511 148.219 82.2479C147.884 80.2366 149.663 78.5175 149.887 76.4911C149.966 75.7522 150.257 75.0548 150.532 74.3686C151.035 73.1421 151.536 71.915 152.036 70.6872C152.117 70.4586 152.223 70.2399 152.351 70.035C152.565 69.7726 152.805 69.5343 153.069 69.3244C153.771 68.6762 154.275 67.8359 154.52 66.904C154.538 66.8004 154.58 66.7027 154.644 66.6194C154.709 66.5635 154.782 66.516 154.859 66.478C154.991 66.3904 155.091 66.26 155.141 66.1079C155.192 65.9557 155.191 65.7907 155.139 65.6392C155.254 65.6295 155.361 65.5781 155.442 65.4944C155.523 65.4107 155.572 65.3002 155.58 65.183C155.566 65.081 155.572 64.9772 155.598 64.8777C155.643 64.7796 155.754 64.7306 155.819 64.6439C155.924 64.5025 155.887 64.3046 155.871 64.1274C155.859 64.0152 155.859 63.9022 155.871 63.79C155.911 63.3909 156.087 63.0184 156.367 62.7363C156.81 62.2933 157.44 62.4083 158.052 62.3027C158.662 62.1688 159.258 61.975 159.831 61.7241C161.439 61.0796 163.132 60.6813 164.855 60.5422C166.586 60.4037 168.325 60.6853 169.929 61.364C170.162 61.4601 170.382 61.5869 170.583 61.741C170.725 61.8529 170.842 61.9951 170.926 62.1576C170.994 62.3572 171.078 62.5507 171.178 62.7363C171.376 63.0115 171.75 63.1001 171.967 63.3602C172.184 63.6204 172.202 64.0596 172.382 64.3819C172.64 64.8418 173.236 65.0548 173.414 65.5544C173.47 65.7127 173.477 65.8861 173.518 66.0501C173.618 66.4611 173.918 66.7853 174.183 67.1095C175.155 68.2914 175.777 69.7294 175.977 71.2565C176.037 70.3008 176.668 69.4544 177.46 68.9266C177.673 68.7853 177.919 68.6288 177.962 68.3724C178.016 68.0482 177.706 67.7598 177.727 67.4299C177.749 67.2689 177.813 67.1167 177.912 66.9889C178.265 66.4682 178.653 65.9725 179.072 65.5054C179.3 65.2509 179.556 64.9399 179.461 64.6043C179.389 64.3536 179.137 64.2066 178.998 63.9879C178.917 63.8576 178.875 63.7058 178.879 63.5515C178.882 63.3973 178.93 63.2475 179.016 63.1208C179.146 62.9418 179.352 62.8117 179.415 62.5987C179.487 62.348 179.326 62.0765 179.376 61.8183C179.444 61.6115 179.578 61.4341 179.758 61.315C180.004 61.0873 180.283 60.9003 180.586 60.7608C181.075 60.5723 181.62 60.6421 182.139 60.7156C183.006 60.8381 183.979 61.0266 184.468 61.7655C184.782 62.2273 184.941 62.9286 184.707 63.4224Z" fill="#65617D"/>
<path opacity="0.1" d="M188.718 62.216C188.707 62.5082 188.671 62.8343 188.449 63.0172C188.255 63.1432 188.025 63.1984 187.797 63.1736H187.747C187.823 62.7815 188.291 62.5572 188.373 62.1595C188.387 62.0373 188.376 61.9135 188.341 61.7958C188.306 61.6781 188.247 61.569 188.169 61.4752C187.773 60.9305 187.135 60.6289 186.501 60.4083C184.711 59.7839 182.793 59.6379 180.931 59.9842C180.424 60.0681 179.932 60.2222 179.467 60.4423C179.313 60.5404 179.164 60.6474 179.022 60.7627C178.911 60.5717 178.84 60.3592 178.814 60.1388C178.815 59.9191 178.89 59.7063 179.026 59.5356C179.177 59.3535 179.362 59.2037 179.57 59.0947C179.779 58.9857 180.006 58.9196 180.24 58.9003C180.707 58.8634 181.176 58.8888 181.637 58.9757L186.199 59.643C186.551 59.6939 186.905 59.7448 187.252 59.8315C187.581 59.8896 187.891 60.028 188.156 60.2349C188.701 60.6949 188.745 61.5035 188.718 62.216Z" fill="black"/>
<path opacity="0.1" d="M169 85.3901C168.72 86.4797 167.879 87.3279 167.447 88.3666C166.797 89.9217 167.09 91.8237 166.171 93.2299C165.872 93.657 165.512 94.0352 165.101 94.3515C164.874 94.5483 164.625 94.7184 164.36 94.8585C164.085 95.0127 163.763 95.0532 163.459 94.9716C163.068 94.8359 162.833 94.4061 162.794 93.9914C162.78 93.8555 162.78 93.7184 162.794 93.5824L162.805 93.6125C162.966 94.0084 163.23 94.4231 163.645 94.4928C163.801 94.5043 163.957 94.4829 164.104 94.43C164.252 94.3771 164.387 94.2939 164.501 94.1856C165.112 93.6861 165.468 92.9415 165.807 92.2233C166.073 91.7054 166.283 91.16 166.434 90.5965C166.508 90.2761 166.543 89.9481 166.619 89.6276C166.971 88.0706 168.17 86.8001 168.435 85.2224C168.457 85.1138 168.462 85.0026 168.45 84.8925C168.415 84.7489 168.361 84.6107 168.291 84.4816C168.226 84.3357 168.179 84.1825 168.15 84.0254C168.52 84.1611 168.913 84.3704 169.03 84.7511C169.078 84.9629 169.068 85.1839 169 85.3901Z" fill="black"/>
<path opacity="0.1" d="M166.202 82.6872C166.03 83.1433 165.742 83.5442 165.366 83.8483C164.839 84.2572 164.221 84.5289 163.567 84.64C163.262 84.7191 162.943 84.7152 162.64 84.6287C162.229 84.4836 161.932 84.0915 161.512 83.9784C161.211 83.8955 160.889 83.969 160.585 83.9237C160.038 83.8465 159.614 83.4223 159.173 83.083C157.822 82.05 156.049 81.7164 154.698 80.6834C154.637 80.6459 154.588 80.5933 154.553 80.5307C154.527 80.463 154.518 80.39 154.525 80.3177C154.53 79.6912 154.669 79.0732 154.931 78.5062C155.146 78.1107 155.402 77.7398 155.695 77.3998C156.905 75.8918 158.12 74.3724 159.57 73.1001C160.177 72.5666 160.841 72.069 161.608 71.8277C162.034 71.6939 162.876 71.5676 163.394 71.7938C163.318 71.8469 163.249 71.9103 163.189 71.9823C163.024 72.2171 162.898 72.4783 162.818 72.7551C162.038 74.8192 159.949 75.8786 158.282 77.2848L156.758 78.5685C156.551 78.7438 156.321 79.0001 156.423 79.2546C156.493 79.3833 156.606 79.4823 156.742 79.5336C157.627 79.9784 158.667 80.1575 159.397 80.8361C159.664 81.0849 159.92 81.4129 160.281 81.4318C160.472 81.4204 160.66 81.3777 160.837 81.3055C161.116 81.2287 161.408 81.2188 161.692 81.2763C161.975 81.3339 162.241 81.4574 162.47 81.6372C162.599 81.766 162.75 81.8712 162.914 81.9483C163.052 81.9853 163.196 81.9943 163.337 81.9747C163.732 81.9464 164.151 81.9106 164.504 82.0896C164.858 82.2687 165.149 82.6909 165.563 82.7211C165.768 82.7362 166.009 82.6646 166.202 82.6872Z" fill="black"/>
<path d="M149.159 57.104C148.807 57.334 148.432 57.5941 148.288 57.9937C148.169 58.3198 148.225 58.693 148.082 59.0097C147.939 59.3264 147.619 59.5469 147.548 59.8862C147.498 60.1332 147.596 60.3933 147.548 60.6402C147.506 60.7686 147.472 60.8996 147.446 61.0323C147.428 61.3132 147.665 61.5413 147.897 61.6977C148.39 62.024 148.951 62.2281 149.536 62.2936C150.121 62.359 150.713 62.2841 151.264 62.0747C151.759 61.8862 152.205 61.579 152.68 61.3377C153.142 61.0667 153.671 60.9359 154.205 60.9607C154.511 60.9946 154.803 61.1077 155.109 61.1492C155.26 61.1795 155.416 61.1721 155.564 61.1274C155.711 61.0827 155.846 61.0022 155.956 60.8928C156.05 60.7602 156.114 60.6074 156.141 60.4461C156.399 59.4112 156.282 58.3142 156.038 57.2736C155.793 56.2331 155.422 55.2322 155.161 54.1973C154.976 53.4301 154.833 52.6441 154.523 51.9184C154.214 51.1926 153.693 50.5178 152.965 50.2407C152.908 50.212 152.842 50.2034 152.78 50.2162C152.733 50.2361 152.692 50.2671 152.659 50.3067C152.083 50.9277 151.649 51.6705 151.388 52.482C151.097 53.3849 151.017 54.3425 150.75 55.2492C150.636 55.6262 150.487 56.1313 150.195 56.4197C149.902 56.7081 149.49 56.8872 149.159 57.104Z" fill="#3F3D56"/>
<path opacity="0.1" d="M156.147 60.4404C156.116 60.6023 156.049 60.755 155.952 60.8871C155.842 60.9969 155.708 61.0775 155.56 61.1219C155.412 61.1663 155.256 61.173 155.105 61.1416C154.801 61.1039 154.509 60.9889 154.203 60.9531C153.669 60.928 153.14 61.0588 152.678 61.3301C152.203 61.5714 151.751 61.8711 151.26 62.0653C150.542 62.3423 149.757 62.3878 149.012 62.1953C148.617 62.0942 148.241 61.926 147.9 61.6977C147.667 61.5431 147.431 61.3207 147.45 61.0323C147.476 60.9002 147.51 60.7699 147.552 60.6421C147.6 60.3952 147.504 60.135 147.552 59.8881C147.622 59.5488 147.945 59.3226 148.086 59.0097C148.226 58.6968 148.173 58.3217 148.289 57.9955C148.434 57.594 148.81 57.3358 149.162 57.1039C149.514 56.8721 149.933 56.6949 150.215 56.414C150.251 56.3703 150.284 56.3237 150.313 56.2745C150.516 55.9559 150.665 55.6048 150.754 55.2359C151.027 54.3273 151.101 53.3716 151.39 52.4668C151.652 51.656 152.087 50.9139 152.663 50.2934C152.694 50.253 152.735 50.2217 152.781 50.203C152.844 50.19 152.909 50.1979 152.967 50.2256C153.693 50.5046 154.214 51.1794 154.525 51.9051C154.837 52.6308 154.968 53.4131 155.163 54.1822C155.422 55.2171 155.795 56.2218 156.039 57.2604C156.284 58.299 156.404 59.4036 156.147 60.4404Z" fill="black"/>
<path opacity="0.1" d="M161.658 37.4509C160.787 37.7326 159.844 37.6766 159.01 37.2939C158.177 36.9111 157.512 36.2286 157.144 35.3774C157.158 35.2008 157.183 35.0252 157.218 34.8515C157.403 33.9844 158.196 34.3011 158.823 34.5311C159.577 34.7802 160.306 35.1015 161 35.4905C161.212 35.6015 161.396 35.7601 161.538 35.9543C161.812 36.3708 161.703 36.925 161.658 37.4509Z" fill="black"/>
<path d="M160.539 37.4397C162.586 37.4397 164.245 35.7518 164.245 33.6697C164.245 31.5875 162.586 29.8997 160.539 29.8997C158.492 29.8997 156.833 31.5875 156.833 33.6697C156.833 35.7518 158.492 37.4397 160.539 37.4397Z" fill="#BE6F72"/>
<path opacity="0.1" d="M170.596 61.8428C170.596 62.1557 170.179 62.2556 169.869 62.2387C168.757 62.1727 167.67 61.8617 166.569 61.9559C165.177 62.0841 163.899 62.8664 162.503 62.938C161.966 62.9663 161.419 62.8852 160.889 62.9851C160.203 63.1152 159.592 63.5393 158.893 63.5996C158.287 63.6524 157.689 63.4206 157.083 63.4451C156.659 63.4708 156.246 63.5904 155.873 63.7957C155.913 63.3965 156.089 63.0241 156.369 62.742C156.812 62.299 157.442 62.414 158.054 62.3084C158.664 62.1745 159.26 61.9807 159.833 61.7297C161.441 61.0852 163.134 60.6869 164.857 60.5478C166.587 60.4078 168.325 60.6876 169.929 61.364C170.162 61.4601 170.382 61.5869 170.583 61.741C170.593 61.7739 170.597 61.8084 170.596 61.8428Z" fill="black"/>
<path d="M158.825 40.5536L157.324 39.9881L156.69 39.7506C156.432 39.6405 156.16 39.567 155.882 39.532C155.156 39.4754 154.472 39.9674 154.084 40.5951C153.697 41.2228 153.551 41.9712 153.427 42.7007C153.256 43.6984 153.112 44.7 152.993 45.7053C152.865 46.6132 152.8 47.529 152.798 48.4461C152.841 50.7798 153.326 53.0813 153.86 55.3528C154.122 56.3599 154.319 57.383 154.451 58.4159C154.496 58.8419 154.516 59.2698 154.561 59.6977C154.609 60.1784 154.687 60.6534 154.765 61.1303L155.211 63.839C155.767 63.4375 156.399 63.085 157.083 63.0643C157.689 63.0417 158.289 63.2716 158.893 63.2189C159.588 63.1604 160.204 62.7363 160.889 62.6062C161.419 62.5063 161.966 62.5855 162.505 62.5591C163.899 62.4875 165.179 61.7033 166.569 61.577C167.672 61.4752 168.767 61.7919 169.871 61.8579C170.179 61.8767 170.596 61.7768 170.596 61.462C170.596 61.2434 170.381 61.0982 170.194 60.9889C169.312 60.4486 168.472 59.8391 167.683 59.1661C166.953 58.578 166.211 57.9748 165.709 57.1793C164.499 55.266 164.914 52.6779 163.882 50.6591C163.043 49.0192 163.882 46.8703 163.882 45.0211C163.882 44.0993 163.882 43.1662 163.669 42.2709C163.536 41.7701 163.37 41.2789 163.172 40.8006L162.451 38.9439C162.436 38.8896 162.407 38.8406 162.366 38.8025C162.318 38.7685 162.26 38.7507 162.201 38.7516C161.768 38.7252 161.341 38.8644 161.004 39.1418C160.665 39.4226 160.448 39.826 160.115 40.1182C159.749 40.4405 159.279 40.7233 158.825 40.5536Z" fill="#E3E8F4"/>
<path d="M161.247 39.4829C161.365 38.9665 161.493 38.4292 161.832 38.0258C162.172 37.6224 162.791 37.4094 163.228 37.6978C163.725 38.0258 163.745 38.7836 164.169 39.2058C164.54 39.5678 165.096 39.596 165.6 39.6432C166.506 39.7271 167.396 39.9403 168.244 40.2765C168.41 40.3287 168.56 40.4205 168.684 40.5442C168.915 40.8119 168.869 41.2228 168.984 41.5564C169.141 41.9862 169.577 42.2595 169.745 42.6874C169.931 43.1625 169.745 43.694 169.59 44.1822C169.31 45.0588 169.134 45.9692 168.861 46.8495C168.589 47.7298 168.202 48.5969 167.564 49.2604C167.283 49.5545 166.864 49.8259 166.493 49.6506L166.35 50.6968C166.309 50.9179 166.309 51.1449 166.35 51.366C166.372 51.4766 166.424 51.5788 166.5 51.6608C166.576 51.7428 166.673 51.8014 166.78 51.8297C166.808 51.9918 166.977 52.0691 167.114 52.1577C167.215 52.2281 167.302 52.3182 167.368 52.4229C167.435 52.5276 167.481 52.6447 167.503 52.7674C167.524 52.8902 167.522 53.0161 167.496 53.1379C167.47 53.2598 167.42 53.3751 167.349 53.4772C167.233 53.6374 167.06 53.7637 167.005 53.9541C166.921 54.2293 167.119 54.5196 167.36 54.6704C167.601 54.8212 167.885 54.8909 168.129 55.0361C168.637 55.3339 168.91 55.9201 169.084 56.4894C169.214 56.9192 169.321 57.3848 169.64 57.6977C169.762 57.8164 169.908 57.9069 170.025 58.0313C170.227 58.2742 170.344 58.5787 170.357 58.8966C170.408 59.2906 170.323 59.6903 170.116 60.0276C169.745 60.5667 169.054 60.7269 168.448 60.9701C167.464 61.381 166.654 62.1161 165.787 62.742C165.434 63.0313 165.018 63.2304 164.573 63.3225C163.973 63.4036 163.382 63.134 162.778 63.1095C162.416 63.1129 162.056 63.1611 161.706 63.2528L160.595 63.4978C160.654 62.6213 160.179 61.7429 159.914 60.9078C159.414 59.3358 159.321 57.6543 159.44 56.0068C159.559 54.3594 159.889 52.7345 160.215 51.1172C160.443 49.9862 160.42 48.8043 160.771 47.7053C161.099 46.6478 161.567 45.6318 161.74 44.531C162.021 42.7496 160.85 41.2398 161.247 39.4829Z" fill="#3F3D56"/>
<path d="M169.677 42.9683C169.779 43.1599 169.851 43.3666 169.89 43.581C169.976 43.913 170.136 44.2202 170.359 44.4782C170.545 44.6455 170.711 44.8354 170.852 45.0437C171.022 45.3717 170.957 45.7713 171.037 46.1295C171.13 46.5197 171.398 46.859 171.437 47.2605C171.438 47.3755 171.449 47.4903 171.469 47.6035C171.589 48.0597 172.249 48.169 172.395 48.6252C172.494 48.9212 172.325 49.2435 172.356 49.5545C172.379 49.6507 172.385 49.7503 172.373 49.8486C172.331 49.9597 172.258 50.0555 172.162 50.1238C171.549 50.7198 171.124 51.4883 170.942 52.3311C170.764 53.1693 170.67 54.0239 170.663 54.8815L169.938 53.907C169.861 53.7888 169.763 53.6864 169.649 53.6054C169.556 53.5488 169.449 53.5206 169.354 53.464C169.08 53.3057 168.973 52.9701 168.867 52.6685C168.574 51.8337 168.134 51.0597 167.57 50.3839C167.275 50.0314 166.932 49.677 166.867 49.219C166.848 49.0086 166.859 48.7964 166.901 48.5894C167.086 47.3547 167.284 46.0899 167.876 44.9947C168.152 44.482 168.509 44.0183 168.774 43.498C168.952 43.1531 169.202 42.2558 169.677 42.9683Z" fill="#3F3D56"/>
<path d="M151.395 44.1539C151.399 44.3126 151.359 44.4692 151.281 44.6063C151.21 44.6898 151.117 44.7516 151.014 44.7849C150.911 44.8182 150.8 44.8216 150.695 44.7948C150.484 44.7409 150.285 44.6462 150.109 44.5158C149.593 44.1841 149.077 43.8517 148.56 43.5187C148.272 43.3419 147.994 43.1481 147.728 42.9381C147.322 42.5891 146.953 42.1966 146.629 41.7675C145.729 40.6365 144.932 39.4094 143.929 38.3745C143.657 38.0918 143.373 37.8203 143.11 37.5244C142.75 37.0966 142.42 36.6444 142.12 36.1709C141.831 35.7355 141.531 35.2529 141.581 34.7327C141.611 34.4386 141.75 34.1672 141.791 33.875C141.831 33.5828 141.722 33.2266 141.444 33.1474C141.411 33.139 141.378 33.1333 141.344 33.1304C141.289 33.1245 141.235 33.1125 141.183 33.0946C140.925 32.9853 140.964 32.58 141.149 32.367C141.335 32.154 141.609 32.0353 141.778 31.8015C141.856 31.6628 141.944 31.5299 142.041 31.4038C142.165 31.2956 142.313 31.2198 142.473 31.1832C143.542 30.8628 144.672 30.8194 145.762 31.0569C145.947 31.0984 146.158 31.1738 146.214 31.3566C146.236 31.4457 146.236 31.539 146.214 31.6281C146.132 31.9998 146.085 32.3784 146.073 32.7591C146.073 32.8384 146.077 32.9178 146.086 32.9966C146.173 33.7958 146.683 34.4726 147.18 35.0965C147.769 35.8392 148.367 36.5762 148.968 37.3114C149.293 37.7374 149.655 38.1318 150.052 38.4895C150.423 38.8024 150.903 39.055 151.192 39.4565C151.427 39.7807 151.351 40.2237 151.377 40.6139C151.463 41.7921 151.469 42.9749 151.395 44.1539Z" fill="#3F3D56"/>
<path d="M174.93 52.0182C175.114 51.8372 175.279 51.6384 175.423 51.4245C175.579 51.1594 175.704 50.8766 175.794 50.5819L176.869 47.481C177.039 46.9909 177.21 46.499 177.425 46.0221C177.647 45.5075 177.91 45.0117 178.153 44.5141C178.777 43.2045 179.26 41.8298 179.593 40.4142C179.651 40.2197 179.671 40.0152 179.65 39.8129C179.599 39.4868 179.356 39.2323 179.124 39.0004C178.891 38.7445 178.626 38.5214 178.335 38.3369C178.189 38.2445 178.026 38.1826 177.856 38.1547C177.686 38.1269 177.512 38.1337 177.345 38.1748C176.871 38.3162 176.572 38.8101 176.463 39.3058C176.354 39.8016 176.394 40.3086 176.348 40.8138C176.281 41.5377 176.037 42.237 175.977 42.9627C175.946 43.3831 175.977 43.8072 175.927 44.2257C175.836 44.7752 175.648 45.3033 175.371 45.7846C174.769 46.9308 173.956 47.9484 172.975 48.7817C172.707 48.9834 172.465 49.2197 172.256 49.4848C172.082 49.7499 171.964 50.0491 171.91 50.3632C171.787 50.8415 171.84 51.3492 172.06 51.7901C172.362 52.3142 172.942 52.5441 173.496 52.661C174.245 52.8194 174.417 52.5592 174.93 52.0182Z" fill="#BE6F72"/>
<path d="M160.561 28.2069C160.721 27.9019 160.965 27.6516 161.264 27.487C161.562 27.3224 161.902 27.2509 162.24 27.2814C162.581 27.3427 162.898 27.4999 163.155 27.7351C163.413 27.9703 163.6 28.2741 163.697 28.6122C163.784 28.893 163.819 29.2041 163.971 29.4453C164.201 29.8091 164.627 29.9147 164.946 30.1786C165.136 30.3584 165.289 30.5751 165.396 30.8159C165.503 31.0568 165.562 31.3169 165.568 31.581C165.586 32.1206 165.502 32.6587 165.322 33.1663C165.245 33.3829 165.183 33.6046 165.137 33.8298C165.099 34.0485 165.096 34.2709 165.062 34.4896C165.021 34.7731 164.925 35.0454 164.779 35.2905C164.633 35.5355 164.44 35.7484 164.212 35.9165C164.147 35.9704 164.066 36.0003 163.982 36.0014C163.838 35.9844 163.749 35.8129 163.695 35.6583C163.4 34.7931 163.471 33.7356 162.928 33.0457C162.681 32.7674 162.382 32.5413 162.049 32.3803C161.913 32.2912 161.761 32.2327 161.601 32.2087C161.366 32.2216 161.14 32.3056 160.952 32.45C160.561 32.7169 160.127 32.9121 159.67 33.0268C159.442 33.0818 159.204 33.0843 158.975 33.0341C158.746 32.9838 158.53 32.8822 158.345 32.7365C158.089 32.5217 157.902 32.1993 157.618 32.0316C157.335 31.8638 157.038 31.8732 156.758 31.7582C156.58 31.6811 156.421 31.5635 156.295 31.4146C156.168 31.2656 156.076 31.0891 156.026 30.8986C155.977 30.708 155.97 30.5085 156.008 30.3151C156.045 30.1218 156.126 29.9397 156.243 29.7828C156.429 29.5566 156.703 29.4284 156.868 29.1777C157.081 28.8534 157.062 28.4086 157.164 28.0203C157.225 27.7746 157.342 27.5471 157.506 27.3566C157.67 27.1662 157.876 27.0182 158.108 26.9251C158.332 26.8475 158.573 26.8327 158.805 26.8821C159.037 26.9315 159.252 27.0433 159.427 27.206C159.612 27.3756 159.761 27.5943 159.942 27.7715C160.121 27.946 160.341 28.072 160.581 28.1379C160.82 28.2038 161.072 28.2074 161.314 28.1485" fill="#3F3D56"/>
<path opacity="0.1" d="M163.608 55.9521C163.5 56.0499 163.423 56.1784 163.388 56.3209C163.353 56.4635 163.361 56.6135 163.411 56.7514C163.452 56.84 165.364 56.4649 165.566 56.4366C166.07 56.3631 166.954 56.3989 167.293 55.9295C167.898 55.0983 166.026 55.283 165.683 55.3131C165.031 55.3697 164.104 55.4602 163.608 55.9521Z" fill="black"/>
<path d="M146.21 31.6356C146.129 32.0073 146.081 32.386 146.07 32.7666C145.514 32.8816 144.935 32.6931 144.402 32.5046L142.869 31.973C142.776 31.9124 142.663 31.8902 142.555 31.9109C142.446 31.9315 142.349 31.9935 142.284 32.0843C142.037 32.3444 141.698 32.8383 141.357 33.1304C141.302 33.1245 141.248 33.1125 141.196 33.0946C140.938 32.9853 140.977 32.58 141.162 32.367C141.348 32.154 141.622 32.0352 141.791 31.8015C141.869 31.6628 141.957 31.5299 142.054 31.4038C142.178 31.2956 142.326 31.2198 142.486 31.1832C143.554 30.8628 144.685 30.8194 145.775 31.0569C145.96 31.0984 146.171 31.1738 146.227 31.3566C146.245 31.4496 146.239 31.5456 146.21 31.6356Z" fill="#3F3D56"/>
<path opacity="0.1" d="M146.21 31.6356C146.129 32.0073 146.081 32.386 146.07 32.7666C145.514 32.8816 144.935 32.6931 144.402 32.5046L142.869 31.973C142.776 31.9124 142.663 31.8902 142.555 31.9109C142.446 31.9315 142.349 31.9935 142.284 32.0843C142.037 32.3444 141.698 32.8383 141.357 33.1304C141.302 33.1245 141.248 33.1125 141.196 33.0946C140.938 32.9853 140.977 32.58 141.162 32.367C141.348 32.154 141.622 32.0352 141.791 31.8015C141.869 31.6628 141.957 31.5299 142.054 31.4038C142.178 31.2956 142.326 31.2198 142.486 31.1832C143.554 30.8628 144.685 30.8194 145.775 31.0569C145.96 31.0984 146.171 31.1738 146.227 31.3566C146.245 31.4496 146.239 31.5456 146.21 31.6356Z" fill="black"/>
<path opacity="0.1" d="M160.229 67.4224C160.496 67.5129 160.785 67.6448 160.876 67.9163L158.73 67.3621L157.618 67.0737C157.422 67.0228 156.718 66.9643 156.588 66.8079C156.403 66.5779 157.06 66.7362 157.179 66.7532C157.539 66.8079 157.898 66.8644 158.256 66.9304C158.93 67.0529 159.579 67.2546 160.229 67.4224Z" fill="black"/>
<path opacity="0.1" d="M161.062 69.3545C160.876 69.2282 160.344 69.2433 160.116 69.1887C159.783 69.1076 159.455 69.0001 159.127 68.8965C158.462 68.6759 157.802 68.4252 157.118 68.2631C156.992 68.2348 156.562 68.2273 156.582 68.0652C156.603 67.9031 157.012 67.8465 157.114 67.839C157.72 67.7937 158.476 68.0821 159.04 68.2876C159.758 68.5492 160.438 68.9081 161.062 69.3545Z" fill="black"/>
<path opacity="0.1" d="M159.701 65.6996C159.021 65.5111 158.404 65.0813 157.704 64.9983C157.521 65.0054 157.341 64.9496 157.194 64.84C157.112 64.7577 157.054 64.653 157.029 64.5384C157.498 64.5139 158.043 64.7156 158.469 64.906C158.704 65.0083 158.929 65.1307 159.143 65.2717C159.299 65.3678 159.533 65.6449 159.701 65.6996Z" fill="black"/>
<path d="M172.666 48.8213C172.551 49.605 172.717 50.4046 173.135 51.0737C173.552 51.7428 174.192 52.2367 174.938 52.465C174.847 52.9117 174.393 53.1587 174.072 53.4772C173.62 53.924 173.387 54.5932 172.853 54.9325C172.258 55.3095 171.493 55.1624 170.815 55.0041C170.753 54.9971 170.696 54.9668 170.655 54.9193C170.641 54.8967 170.631 54.8718 170.626 54.8458C170.401 54.0107 170.255 53.1191 170.485 52.2822C170.67 51.5696 171.115 50.9627 171.471 50.3331C171.826 49.7035 171.86 49.0286 172.666 48.8213Z" fill="#3F3D56"/>
<path d="M156.097 38.0127C155.38 38.0658 154.683 38.2815 154.058 38.6441C153.643 38.8854 153.217 39.2096 152.743 39.1512C152.463 39.1192 152.187 38.9627 151.914 39.0381C151.761 39.1011 151.618 39.1875 151.49 39.2945C151.425 39.347 151.348 39.3815 151.266 39.3947C151.184 39.4079 151.101 39.3994 151.023 39.3699L150.838 41.9787C150.767 42.9702 150.699 43.9825 150.932 44.9495C151.053 45.4433 151.318 45.8919 151.347 46.3934C151.377 46.8948 151.332 47.4094 151.368 47.9164C151.401 48.3858 151.503 48.8476 151.529 49.317C151.581 50.2029 151.366 51.0813 151.158 51.9428C150.845 53.2133 150.656 54.512 150.046 55.6619C149.876 55.9805 149.676 56.3047 149.676 56.6666C149.676 56.7118 149.676 56.7552 149.687 56.7985C149.501 56.9022 149.329 57.0002 149.172 57.102C148.82 57.3339 148.443 57.5921 148.299 57.9936C148.182 58.3197 148.236 58.693 148.095 59.0078C147.954 59.3226 147.632 59.5469 147.561 59.8862C147.511 60.1331 147.608 60.3932 147.561 60.6402C147.519 60.7679 147.485 60.8983 147.459 61.0304C147.441 61.3131 147.676 61.5412 147.91 61.6958C148.25 61.9241 148.626 62.0923 149.021 62.1934L150.128 57.726C151.137 55.8289 151.976 53.8436 152.635 51.7939C152.824 51.1239 153.066 50.4707 153.36 49.841C153.569 49.4848 153.755 49.1145 153.916 48.7326C154.084 48.2576 154.101 47.743 154.183 47.2416C154.279 46.6564 154.425 46.0806 154.618 45.5206C154.818 44.9155 155.05 44.3123 155.091 43.6771C155.152 42.7685 154.827 41.809 155.172 40.9683C155.318 40.6537 155.509 40.3622 155.737 40.1031C156.215 39.5075 156.651 38.8835 157.129 38.2879C156.881 38.0183 156.467 37.99 156.097 38.0127Z" fill="#3F3D56"/>
</g>
<defs>
<linearGradient id="paint0_linear" x1="164.862" y1="94.8548" x2="164.862" y2="19.0213" gradientUnits="userSpaceOnUse">
<stop stop-color="#808080" stop-opacity="0.25"/>
<stop offset="0.54" stop-color="#808080" stop-opacity="0.12"/>
<stop offset="1" stop-color="#808080" stop-opacity="0.1"/>
</linearGradient>
<clipPath id="clip0">
<rect width="212" height="123" fill="white"/>
</clipPath>
</defs>
</svg>
