<svg width="212" height="123" viewBox="0 0 212 123" fill="none" xmlns="http://www.w3.org/2000/svg">
<g clip-path="url(#clip0)">
<path opacity="0.1" d="M127.445 88.6534C131.541 88.4159 136.622 85.5902 140.573 84.3405C145.249 82.8652 149.944 81.4458 154.657 80.0823C171.065 75.3333 187.649 71.2869 204.408 67.9429C205.973 67.63 207.539 67.3246 209.108 67.0268C206.664 61.6549 202.877 57.0291 198.126 53.6112C198.248 52.4353 198.31 51.2537 198.312 50.0712C198.312 31.3833 183.629 16.2336 165.511 16.2336C159.933 16.2276 154.448 17.6921 149.592 20.4843C136.769 11.9037 120.031 6.71057 101.718 6.71057C75.6963 6.71057 52.8526 17.1968 39.9083 32.9875L100.743 43.4417L138.055 49.8507C95.5194 51.1419 52.8526 52.4256 10.4396 49.3945C4.84087 54.9049 1.29727 62.222 0.414398 70.0954C-0.468475 77.9688 1.36419 85.9097 5.59918 92.561C5.59918 93.2377 5.62697 93.9088 5.67701 94.5742C6.75739 94.889 7.80071 95.1943 8.73655 95.3941C23.7606 98.6225 38.8811 101.324 54.0979 103.5C42.8845 110.533 29.2287 111.528 16.2937 114.506C22.5573 119.765 31.0633 122.989 40.4365 122.989H180.001C195.113 122.989 207.362 112.287 207.362 99.085C209.63 95.2811 211.141 91.0611 211.81 86.6647C183.846 89.4111 155.534 87.0266 127.445 88.6534Z" fill="#6C63FF"/>
<path opacity="0.1" d="M212 81.0417C212.015 75.6005 210.743 70.2354 208.292 65.3991C205.841 60.5627 202.282 56.3969 197.916 53.2531C198.037 52.0777 198.099 50.8968 198.102 49.7149C198.102 31.0271 183.412 15.883 165.301 15.883C159.722 15.8769 154.237 17.3407 149.38 20.1318C136.557 11.5475 119.817 6.35242 101.504 6.35242C71.7169 6.35242 46.0768 20.1035 34.7059 39.8225C34.0739 39.7848 33.4383 39.764 32.7971 39.764C14.6845 39.764 -0.00359806 54.9138 -0.00359806 73.6017C-0.0162935 80.2026 1.85864 86.6648 5.39277 92.2009C5.39277 109.015 20.9944 122.646 40.2319 122.646H179.8C194.91 122.646 207.16 111.943 207.16 98.74C210.338 93.4035 212.012 87.281 212 81.0417Z" fill="#DC2D27"/>
<path opacity="0.1" d="M212 81.0417C212.015 75.6005 210.743 70.2354 208.292 65.3991C205.841 60.5627 202.282 56.3969 197.916 53.2531C198.037 52.0777 198.099 50.8968 198.102 49.7149C198.102 31.0271 183.412 15.883 165.301 15.883C159.722 15.8769 154.237 17.3407 149.38 20.1318C136.557 11.5475 119.817 6.35242 101.504 6.35242C71.7169 6.35242 46.0768 20.1035 34.7059 39.8225C34.0739 39.7848 33.4383 39.764 32.7971 39.764C14.6845 39.764 -0.00359806 54.9138 -0.00359806 73.6017C-0.0162935 80.2026 1.85864 86.6648 5.39277 92.2009C5.39277 109.015 20.9944 122.646 40.2319 122.646H179.8C194.91 122.646 207.16 111.943 207.16 98.74C210.338 93.4035 212.012 87.281 212 81.0417Z" fill="#DC2D27"/>
<path d="M193.169 59.9861C192.905 59.7792 192.594 59.6408 192.265 59.5827C191.919 59.5017 191.565 59.4508 191.213 59.3942L186.65 58.725C186.19 58.6381 185.72 58.6127 185.253 58.6496C185.019 58.6692 184.79 58.7359 184.582 58.8459C184.373 58.956 184.188 59.1071 184.037 59.2905C183.901 59.4612 183.827 59.6741 183.826 59.8937C183.851 60.1148 183.922 60.328 184.033 60.5196C184.078 60.6091 184.115 60.7017 184.146 60.7967C184.19 61.0099 184.245 61.2206 184.31 61.4281C184.33 61.4731 184.356 61.5149 184.387 61.5525C184.388 61.5632 184.388 61.5739 184.387 61.5846C184.337 61.8447 184.499 62.1162 184.426 62.3669C184.363 62.5818 184.158 62.7118 184.028 62.8909C183.941 63.0179 183.893 63.168 183.89 63.3225C183.887 63.4771 183.928 63.6291 184.009 63.7599C184.148 63.9785 184.4 64.1274 184.473 64.3782C184.567 64.708 184.311 65.0266 184.083 65.2811C183.664 65.7495 183.277 66.2464 182.923 66.7683C182.824 66.8967 182.76 67.0496 182.738 67.2113C182.718 67.5393 183.027 67.8277 182.973 68.1538C182.931 68.4102 182.684 68.5666 182.471 68.7193C181.684 69.2471 181.052 70.0954 180.989 71.0548C180.786 69.5283 180.165 68.0908 179.195 66.9078C178.93 66.5836 178.639 66.2575 178.53 65.8466C178.489 65.6826 178.481 65.5073 178.426 65.3489C178.24 64.8494 177.651 64.6345 177.394 64.1746C177.208 63.8504 177.208 63.4338 176.978 63.1491C176.749 62.8645 176.387 62.8004 176.189 62.5252C176.09 62.3388 176.006 62.1446 175.937 61.9446C175.854 61.7815 175.737 61.6387 175.594 61.5261C175.567 61.5039 175.538 61.4832 175.509 61.4639C175.54 61.4359 175.564 61.4017 175.581 61.3634C175.598 61.325 175.607 61.2835 175.607 61.2415C175.607 61.021 175.392 60.8758 175.205 60.7665C174.964 60.627 174.729 60.4762 174.499 60.3198C174.75 60.201 174.967 60.0202 175.131 59.7938C175.337 59.4562 175.422 59.0568 175.372 58.6628C175.359 58.3449 175.242 58.0403 175.04 57.7976C174.923 57.6713 174.777 57.5808 174.655 57.4621C174.338 57.1473 174.23 56.6817 174.099 56.2519C173.924 55.6864 173.652 55.0927 173.144 54.7929C172.9 54.6478 172.614 54.5799 172.375 54.4272C172.136 54.2746 171.936 53.9862 172.019 53.7091C172.075 53.5206 172.247 53.3905 172.364 53.2303C172.504 53.0231 172.557 52.7684 172.513 52.5213C172.469 52.2743 172.331 52.0549 172.129 51.9108C171.992 51.8222 171.823 51.7449 171.795 51.5828C171.688 51.5544 171.591 51.4959 171.515 51.4139C171.439 51.3318 171.387 51.2297 171.365 51.1191C171.324 50.8974 171.324 50.6697 171.365 50.448C171.413 50.0974 171.461 49.748 171.508 49.4C171.59 49.4345 171.677 49.4523 171.766 49.4523C171.854 49.4523 171.942 49.4345 172.023 49.4C172.184 49.6647 172.37 49.9122 172.579 50.1389C173.143 50.8167 173.583 51.5926 173.876 52.4291C173.982 52.7307 174.089 53.0682 174.364 53.2284C174.458 53.283 174.566 53.3113 174.658 53.3698C174.773 53.4508 174.871 53.5531 174.947 53.6714C175.17 53.9711 175.392 54.2689 175.613 54.5686L175.624 54.6139C175.63 54.6404 175.64 54.6658 175.653 54.6893C175.695 54.7362 175.751 54.7658 175.813 54.7722C176.495 54.9324 177.26 55.0795 177.851 54.7006C178.385 54.3613 178.619 53.6902 179.071 53.2416C179.391 52.923 179.845 52.6761 179.936 52.2274C179.828 52.1935 179.722 52.1538 179.617 52.1087C179.71 52.0144 179.803 51.9051 179.929 51.7807C180.112 51.5984 180.277 51.3982 180.422 51.1832C180.578 50.9178 180.703 50.6343 180.792 50.3387C181.149 49.3032 181.508 48.2671 181.867 47.2303C182.038 46.7402 182.208 46.2463 182.423 45.7694C182.645 45.2529 182.909 44.7572 183.151 44.2501C183.778 42.9314 184.261 41.5472 184.593 40.122C184.652 39.9275 184.671 39.723 184.651 39.5207C184.599 39.1946 184.356 38.9382 184.124 38.7063C183.891 38.4498 183.626 38.2261 183.335 38.0409C183.189 37.9485 183.026 37.8866 182.856 37.8587C182.686 37.8309 182.512 37.8377 182.345 37.8788C181.871 38.0202 181.572 38.5141 181.463 39.0098C181.354 39.5056 181.395 40.0164 181.348 40.5178C181.281 41.2436 181.037 41.9448 180.978 42.6724C180.946 43.0927 180.978 43.5188 180.928 43.9391C180.836 44.4892 180.648 45.018 180.372 45.4999C179.771 46.6491 178.957 47.6694 177.975 48.5046C177.862 48.6007 177.746 48.6931 177.635 48.7967C177.635 48.7157 177.647 48.6328 177.659 48.5517C177.578 48.5731 177.499 48.6014 177.423 48.6365C177.433 48.5413 177.423 48.4452 177.395 48.3538C177.247 47.9033 176.587 47.7883 176.469 47.3302C176.449 47.2169 176.439 47.1022 176.437 46.9872C176.398 46.5856 176.13 46.2463 176.037 45.8562C175.952 45.4961 176.017 45.1021 175.852 44.7685C175.711 44.5599 175.546 44.3699 175.359 44.203C175.136 43.9443 174.976 43.6365 174.89 43.3039C174.866 43.2115 174.844 43.1154 174.818 43.023C174.846 42.8138 174.823 42.6008 174.751 42.4028C174.582 41.9768 174.147 41.7035 173.989 41.2718C173.867 40.9363 173.921 40.5178 173.689 40.2577C173.566 40.1334 173.415 40.041 173.25 39.9881C172.402 39.6522 171.512 39.4384 170.606 39.3529C170.098 39.3058 169.538 39.2794 169.175 38.9156C168.751 38.4933 168.73 37.7337 168.233 37.4076C167.796 37.1192 167.177 37.3322 166.838 37.7375C166.787 37.7971 166.74 37.86 166.697 37.926C166.635 37.6733 166.622 37.4109 166.658 37.1531C166.658 37.089 166.671 37.023 166.677 36.9646C167.514 36.6865 168.226 36.1145 168.686 35.351C168.686 35.351 168.686 35.351 168.686 35.3624L168.708 35.4208C168.762 35.5584 168.847 35.6903 168.973 35.7054C169.057 35.7044 169.138 35.6745 169.203 35.6206C169.314 35.5416 169.418 35.4506 169.51 35.3492C169.557 35.2964 169.602 35.2417 169.644 35.1852C169.729 35.0675 169.802 34.9411 169.862 34.8082C169.954 34.6081 170.017 34.3953 170.048 34.1767C170.081 33.958 170.085 33.7337 170.122 33.5151C170.156 33.3458 170.202 33.179 170.257 33.0155C170.276 32.9609 170.294 32.9062 170.311 32.8515C170.328 32.7969 170.352 32.7234 170.37 32.663C170.486 32.2753 170.549 31.8731 170.555 31.4679C170.555 31.4001 170.555 31.3322 170.555 31.2644C170.549 30.9999 170.49 30.7395 170.383 30.4984C170.276 30.2573 170.123 30.0402 169.933 29.86C169.614 29.5943 169.192 29.483 168.958 29.123C168.806 28.8817 168.773 28.5707 168.684 28.288C168.588 27.9496 168.4 27.6454 168.143 27.4098C167.885 27.1743 167.568 27.0168 167.227 26.9553C166.817 26.9095 166.404 27.0248 166.075 27.2776L166.049 27.2983C165.865 27.4411 165.709 27.6175 165.589 27.8186C165.344 27.75 165.12 27.6204 164.937 27.4416C164.751 27.2663 164.609 27.0457 164.422 26.8761C164.247 26.7132 164.032 26.601 163.8 26.5512C163.568 26.5015 163.327 26.516 163.102 26.5933C162.871 26.6876 162.665 26.8364 162.501 27.0274C162.337 27.2185 162.219 27.4463 162.159 27.6923C162.057 28.0806 162.075 28.5273 161.862 28.8516C161.697 29.1042 161.427 29.2286 161.238 29.4585C161.12 29.6042 161.04 29.7771 161.004 29.9618C160.982 30.0652 160.971 30.1708 160.973 30.2766C160.973 30.3238 160.973 30.3709 160.984 30.4161C160.984 30.4161 160.984 30.4312 160.984 30.4387C160.991 30.4904 161.001 30.5414 161.015 30.5914C161.068 30.7825 161.163 30.9591 161.292 31.1079C161.414 31.2505 161.567 31.3627 161.738 31.4359C161.808 31.4637 161.88 31.487 161.953 31.5057L162.174 31.5565L162.252 31.5754C161.985 32.0836 161.838 32.6473 161.82 33.2228C161.802 33.7984 161.914 34.3705 162.148 34.8949C162.148 34.9477 162.135 35.0004 162.129 35.0532C162.099 35.7955 162.131 36.539 162.226 37.2756C162.252 37.5678 162.266 37.8901 162.09 38.122C162.01 38.2132 161.92 38.2948 161.822 38.3652C161.922 38.2332 162.024 38.1031 162.127 37.9731C161.866 37.7054 161.453 37.6715 161.082 37.6979C160.365 37.7524 159.669 37.9687 159.044 38.3312C158.629 38.5744 158.202 38.8967 157.728 38.8402C157.448 38.8081 157.172 38.6517 156.9 38.7271C156.747 38.7908 156.604 38.8772 156.475 38.9834C156.374 39.0574 156.252 39.0958 156.127 39.0928C155.836 38.729 155.386 38.482 155.037 38.1861C154.641 37.8271 154.278 37.4314 153.953 37.0042C153.353 36.2672 152.754 35.5282 152.165 34.7837C151.668 34.1578 151.159 33.4811 151.071 32.68C151.063 32.6005 151.058 32.5206 151.059 32.4406C151.071 32.06 151.118 31.6813 151.199 31.3096C151.221 31.2199 151.221 31.126 151.199 31.0363C151.144 30.8478 150.931 30.778 150.747 30.7366C150.771 30.5914 150.788 30.4425 150.797 30.3011C150.901 28.68 150.788 27.0325 151.125 25.4454C151.253 24.8346 151.462 24.2164 151.894 23.7734C152.571 23.0778 153.703 22.9101 154.222 22.0863C154.655 21.4002 154.483 20.4294 153.938 19.8243C153.393 19.2192 152.554 18.9723 151.755 19.0024C151.531 18.9946 151.31 19.055 151.12 19.1759C150.942 19.3365 150.809 19.5419 150.734 19.7715L149.939 21.7376C149.709 22.2494 149.514 22.7773 149.357 23.3172C149.135 24.1428 149.085 25.0137 148.909 25.8469C148.909 26.4878 148.503 27.287 148.281 27.877C148.032 28.5405 147.764 29.1965 147.539 29.8732C147.484 30.0429 147.289 30.5462 147.169 31.0042C147.123 31.0312 147.081 31.0635 147.043 31.1004C146.946 31.2265 146.858 31.3594 146.78 31.4981C146.611 31.7243 146.337 31.8449 146.151 32.0636C145.966 32.2823 145.927 32.6838 146.185 32.7931C146.237 32.811 146.291 32.823 146.346 32.8289C146.38 32.8318 146.413 32.8375 146.446 32.8459C146.724 32.9251 146.833 33.2813 146.793 33.5754C146.752 33.8694 146.607 34.1409 146.583 34.4349C146.533 34.9552 146.833 35.4396 147.122 35.877C147.422 36.351 147.752 36.8038 148.112 37.2323C148.373 37.5301 148.668 37.7978 148.931 38.0843C149.934 39.1324 150.73 40.3576 151.631 41.4961C151.955 41.9259 152.324 42.3189 152.73 42.6686C152.995 42.8798 153.273 43.0743 153.562 43.2511L155.111 44.2501C155.287 44.3811 155.486 44.4765 155.697 44.531C155.766 44.5404 155.836 44.5404 155.904 44.531C155.914 44.5781 155.921 44.6234 155.932 44.6705C156.053 45.1644 156.318 45.613 156.347 46.1163C156.377 46.6196 156.333 47.1342 156.368 47.6431C156.401 48.1125 156.503 48.5856 156.529 49.0475C156.581 49.9372 156.366 50.8156 156.158 51.6865C155.845 52.9607 155.656 54.2614 155.046 55.4169C154.876 55.7354 154.676 56.0597 154.676 56.4235C154.676 56.4668 154.676 56.5121 154.687 56.5554L154.409 56.7156C154.327 56.7628 154.246 56.8099 154.172 56.8589C153.82 57.0926 153.444 57.3509 153.299 57.7543C153.182 58.0804 153.236 58.4536 153.095 58.7703C153.088 58.7845 153.081 58.7983 153.073 58.8118C152.925 59.1058 152.63 59.3245 152.563 59.6468C152.513 59.8937 152.61 60.1558 152.563 60.4008C152.563 60.4008 152.563 60.4008 152.563 60.4102C152.521 60.5333 152.488 60.6593 152.463 60.7872C152.461 60.829 152.465 60.8709 152.474 60.9116C152.51 61.0545 152.587 61.1828 152.697 61.2792C152.763 61.3444 152.836 61.4031 152.914 61.4545C152.993 61.5073 153.074 61.5563 153.158 61.6016L153.206 61.6279C153.277 61.6656 153.347 61.7015 153.419 61.7354L153.468 61.7561C153.551 61.7938 153.636 61.8278 153.721 61.8579L153.781 61.8768C153.847 61.8994 153.916 61.9201 153.985 61.9371L154.031 61.9522L154.074 61.9616L154.259 62.0012L154.327 62.0144C154.409 62.0282 154.492 62.0395 154.578 62.0483H154.652C154.715 62.0483 154.776 62.0577 154.837 62.0596H154.924C154.989 62.0596 155.052 62.0596 155.109 62.0596H155.176C155.263 62.0596 155.35 62.0464 155.437 62.0351H155.465C155.543 62.0238 155.621 62.0106 155.699 61.9936L155.758 61.9804C155.83 61.9635 155.903 61.9465 155.975 61.9239L156.014 61.9126C156.101 61.8862 156.188 61.8579 156.273 61.824C156.568 61.7007 156.854 61.5564 157.129 61.3923C157.315 61.2886 157.5 61.1831 157.685 61.0869C157.823 61.0165 157.964 60.9536 158.108 60.8984C158.458 60.7461 158.84 60.6815 159.22 60.7099C159.407 60.7359 159.593 60.7744 159.776 60.8249C159.776 60.8457 159.776 60.8664 159.776 60.8871C159.926 61.7919 160.075 62.6967 160.222 63.6015C160.465 63.4239 160.722 63.2669 160.99 63.1322C160.939 63.2688 160.906 63.4113 160.891 63.5563C160.88 63.6685 160.88 63.7815 160.891 63.8937C160.908 64.0728 160.945 64.2707 160.839 64.4121C160.775 64.4988 160.654 64.5478 160.619 64.6458C160.593 64.746 160.587 64.8504 160.6 64.9531C160.593 65.0703 160.544 65.1808 160.463 65.2645C160.382 65.3482 160.274 65.3996 160.159 65.4092C160.212 65.561 160.214 65.7265 160.163 65.879C160.112 66.0315 160.012 66.1622 159.879 66.25C159.802 66.2879 159.73 66.3361 159.665 66.3932C159.601 66.4765 159.559 66.5742 159.54 66.6779C159.295 67.6113 158.792 68.4535 158.089 69.1039C157.826 69.3145 157.585 69.5534 157.372 69.8164C157.24 70.0201 157.132 70.2382 157.048 70.4667C156.554 71.6957 156.052 72.9254 155.543 74.1556C155.261 74.8437 154.987 75.543 154.898 76.2838C154.676 78.3158 152.897 80.0387 153.23 82.0557C153.298 82.5595 153.498 83.0355 153.809 83.4336C154.179 83.8879 154.735 84.148 155.291 84.3592C156.72 84.9247 158.226 85.2338 159.728 85.5448L162.085 86.0368C162.547 86.145 163.017 86.2206 163.489 86.263C164.058 86.3026 164.642 86.2479 165.196 86.395C165.539 86.4854 165.867 86.6532 166.221 86.6721C166.525 86.689 166.899 86.623 167.079 86.8756C167.259 87.1282 167.12 87.4619 167.29 87.6862C167.564 88.0424 168.233 87.6862 168.532 88.0217C168.613 88.1506 168.676 88.2909 168.717 88.4383C168.762 88.5294 168.826 88.6102 168.902 88.6758C168.921 88.7822 168.928 88.8902 168.925 88.9981C168.886 89.4359 168.796 89.8674 168.658 90.2837C168.435 91.049 168.214 91.8149 167.993 92.5815C167.908 92.8522 167.846 93.1297 167.807 93.4109C167.793 93.5475 167.793 93.6852 167.807 93.8219C167.846 94.2384 168.082 94.6682 168.473 94.8039C168.776 94.8855 169.098 94.845 169.373 94.6908C169.638 94.55 169.887 94.3793 170.114 94.1819C170.525 93.8661 170.885 93.4885 171.184 93.0622C172.11 91.6522 171.81 89.7446 172.461 88.1857C172.892 87.1452 173.734 86.3007 174.013 85.2036C174.079 84.9949 174.087 84.7719 174.036 84.559C173.919 84.182 173.524 83.9671 173.155 83.8314H173.139C172.836 83.7216 172.526 83.6316 172.212 83.5618C172.134 83.5448 172.055 83.5316 171.975 83.5184C171.799 83.3725 171.658 83.1866 171.565 82.9756C171.551 82.8634 171.522 82.7537 171.478 82.6495C171.449 82.6045 171.409 82.5674 171.363 82.5412C171.316 82.5149 171.265 82.5004 171.211 82.4987C171.026 82.4798 170.778 82.5477 170.576 82.5326C170.163 82.5024 169.888 82.0896 169.518 81.8992C169.147 81.7088 168.745 81.756 168.35 81.7842C168.209 81.8039 168.065 81.7949 167.928 81.7579C167.763 81.6807 167.613 81.5756 167.483 81.4468C167.255 81.2663 166.989 81.1422 166.705 81.0843C166.422 81.0264 166.129 81.0363 165.85 81.1132C165.673 81.186 165.485 81.2293 165.294 81.2414C164.933 81.2206 164.677 80.8926 164.41 80.6438C163.68 79.9633 162.641 79.7843 161.755 79.3375C161.619 79.2862 161.506 79.1872 161.436 79.0585C161.334 78.8022 161.564 78.5458 161.772 78.3705L163.295 77.0831C164.963 75.6731 167.047 74.6118 167.822 72.544C167.903 72.2667 168.028 72.005 168.193 71.7692C168.253 71.6973 168.322 71.6339 168.398 71.5807C168.735 71.3586 169.144 71.2776 169.538 71.3545C170.019 71.464 170.474 71.6662 170.88 71.9502C171.543 72.3586 172.189 72.7984 172.816 73.2697C173.438 73.7216 174.029 74.2153 174.586 74.7475C175.559 75.69 176.369 76.8078 177.275 77.8239C178.181 78.8399 179.217 79.788 180.475 80.2744C181.734 80.7607 183.255 80.74 184.335 79.9238C185.583 78.9813 185.983 77.2961 186.298 75.7504C186.993 75.068 187.202 74.0294 187.541 73.1114C187.755 72.5289 188.027 71.9804 188.257 71.3998C188.531 70.7174 188.746 70.0124 188.961 69.3093C189.205 68.6033 189.37 67.8717 189.454 67.1284C189.543 65.954 189.233 64.7043 189.558 63.6015C189.986 63.5054 190.375 63.2603 190.796 63.1171C191.422 62.9079 192.093 62.9418 192.756 62.9456H192.799C193.027 62.9703 193.257 62.9151 193.451 62.7891C193.673 62.6006 193.709 62.2783 193.72 61.9861C193.746 61.2641 193.701 60.4536 193.169 59.9861ZM166.319 27.8318C166.166 27.8703 166.007 27.8818 165.85 27.8657L166.319 27.8318Z" fill="url(#paint0_linear)"/>
<path d="M167.049 39.7563C166.825 39.9502 166.562 40.0923 166.278 40.1729L164.964 40.6517C164.251 40.9118 163.506 41.1739 162.754 41.0796C162.333 41.0268 160.53 40.7573 160.257 40.4236C159.842 39.9071 161.297 39.1475 161.794 38.712C161.906 38.6297 162.011 38.5363 162.105 38.4331C162.29 38.2031 162.266 37.8808 162.24 37.5905C162.146 36.8551 162.114 36.1128 162.144 35.3718C162.158 35.1952 162.183 35.0196 162.218 34.8459C162.403 33.9788 163.197 34.2955 163.823 34.5255C164.577 34.7746 165.306 35.0959 166 35.4849C166.212 35.5958 166.396 35.7545 166.538 35.9486C166.812 36.3709 166.703 36.9251 166.658 37.4566C166.619 37.8695 166.621 38.2653 166.875 38.565C167.003 38.6796 167.12 38.8058 167.225 38.942C167.285 39.0792 167.299 39.232 167.268 39.3784C167.236 39.5248 167.16 39.6571 167.049 39.7563Z" fill="#BE6F72"/>
<path d="M148.899 26.171C149.085 25.336 149.125 24.4745 149.348 23.647C149.505 23.109 149.699 22.583 149.93 22.073L150.747 20.1334C150.822 19.9043 150.955 19.6995 151.132 19.5396C151.323 19.4196 151.544 19.3593 151.768 19.3662C152.567 19.336 153.406 19.5886 153.951 20.1861C154.496 20.7837 154.668 21.7507 154.235 22.435C153.716 23.2587 152.583 23.4246 151.907 24.1183C151.475 24.5612 151.266 25.1776 151.138 25.7865C150.801 27.3699 150.914 29.0117 150.81 30.629C150.777 31.1323 150.68 31.7073 150.254 31.9674C149.996 32.0958 149.71 32.1524 149.424 32.1314L148.208 32.1521C148.004 32.1521 147.265 32.2822 147.13 32.1257C146.892 31.8524 147.434 30.4914 147.532 30.1879C147.75 29.515 148.019 28.859 148.273 28.1974C148.494 27.6074 148.899 26.81 148.899 26.171Z" fill="#BE6F72"/>
<path d="M174 85.3903C173.72 86.4798 172.879 87.3281 172.447 88.3667C171.797 89.9218 172.09 91.8238 171.171 93.23C170.872 93.6571 170.512 94.0353 170.101 94.3516C169.874 94.5484 169.625 94.7185 169.36 94.8586C169.085 95.0128 168.763 95.0533 168.459 94.9717C168.068 94.836 167.833 94.4062 167.794 93.9915C167.78 93.8556 167.78 93.7185 167.794 93.5825C167.833 93.3019 167.895 93.0251 167.979 92.755C168.202 91.9922 168.424 91.2281 168.645 90.4628C168.783 90.0478 168.873 89.6175 168.912 89.181C168.936 88.706 168.639 88.0877 168.765 87.6447C168.823 87.4449 169.038 87.2677 169.136 87.1C169.275 86.8585 169.382 86.5993 169.455 86.329C169.606 85.8031 169.71 85.2414 170.029 84.7984C170.237 84.5357 170.48 84.3041 170.752 84.1104C170.952 83.9317 171.187 83.7975 171.441 83.7164C171.688 83.6723 171.941 83.6845 172.182 83.7522C172.497 83.8205 172.806 83.9099 173.109 84.0199H173.126C173.496 84.1556 173.889 84.3648 174.006 84.7456C174.063 84.9569 174.061 85.18 174 85.3903Z" fill="#3F3D56"/>
<path d="M193.718 62.2161C193.707 62.5082 193.671 62.8344 193.449 63.0172C193.255 63.1432 193.025 63.1984 192.797 63.1737H192.747C192.085 63.1737 191.412 63.136 190.786 63.3452C190.31 63.5054 189.872 63.7995 189.376 63.8579C188.692 63.9371 188.049 63.5563 187.443 63.2245C186.872 62.9119 186.287 62.6288 185.688 62.3763C185.295 62.2123 184.493 62.1067 184.304 61.6694C184.239 61.4625 184.185 61.2524 184.141 61.0398C184.11 60.9448 184.072 60.8522 184.028 60.7627C183.916 60.5717 183.846 60.3592 183.82 60.1388C183.821 59.9191 183.895 59.7063 184.031 59.5356C184.182 59.3536 184.368 59.2037 184.576 59.0947C184.784 58.9857 185.012 58.9196 185.245 58.9003C185.712 58.8634 186.182 58.8888 186.642 58.9757L191.205 59.643C191.557 59.6939 191.911 59.7448 192.257 59.8315C192.587 59.8896 192.897 60.028 193.162 60.2349C193.701 60.6949 193.746 61.5035 193.718 62.2161Z" fill="#3F3D56"/>
<path d="M189.707 63.4224C189.151 64.6156 189.552 66.0275 189.452 67.347C189.368 68.0885 189.202 68.8182 188.959 69.5223C188.744 70.2235 188.529 70.9266 188.255 71.6071C188.025 72.1726 187.752 72.7381 187.539 73.3149C187.2 74.2348 186.983 75.2697 186.296 75.9539C185.981 77.4958 185.58 79.181 184.333 80.116C183.249 80.9303 181.739 80.9586 180.473 80.4666C179.207 79.9746 178.179 79.0321 177.273 78.0161C176.367 77.0001 175.557 75.8936 174.584 74.9473C174.026 74.415 173.434 73.9219 172.81 73.4714C172.183 73.0077 171.537 72.5716 170.874 72.1632C170.468 71.8805 170.012 71.679 169.532 71.5694C169.138 71.4925 168.73 71.5735 168.393 71.7956C168.316 71.8488 168.247 71.9122 168.187 71.9841C168.022 72.219 167.897 72.4802 167.816 72.757C167.038 74.8191 164.949 75.8785 163.282 77.2847L161.758 78.5684C161.551 78.7437 161.321 79.0001 161.423 79.2545C161.493 79.3833 161.606 79.4822 161.742 79.5335C162.627 79.9784 163.667 80.1575 164.397 80.8361C164.664 81.0849 164.92 81.4129 165.281 81.4317C165.472 81.4203 165.66 81.3777 165.837 81.3054C166.116 81.2287 166.408 81.2187 166.692 81.2763C166.975 81.3338 167.241 81.4574 167.47 81.6372C167.599 81.7659 167.75 81.8711 167.914 81.9482C168.052 81.9853 168.196 81.9942 168.337 81.9746C168.732 81.9463 169.15 81.9105 169.504 82.0896C169.858 82.2687 170.149 82.6909 170.563 82.7211C170.765 82.7361 171.005 82.6683 171.198 82.6871C171.251 82.6889 171.303 82.7034 171.35 82.7297C171.396 82.7559 171.436 82.793 171.465 82.8379C171.508 82.9415 171.538 83.0506 171.552 83.1622C171.628 83.4279 171.884 83.59 172.051 83.8087C172.306 84.1442 172.343 84.6004 172.317 85.0245C172.234 86.3507 171.653 87.5935 170.694 88.4967C170.422 88.7796 170.075 88.9761 169.695 89.0622C169.505 89.1027 169.307 89.0813 169.13 89.0011C168.952 88.921 168.804 88.7861 168.706 88.6155C168.664 88.4687 168.602 88.3289 168.52 88.2008C168.222 87.8671 167.553 88.2215 167.279 87.8652C167.108 87.6428 167.231 87.2865 167.068 87.0566C166.904 86.8266 166.512 86.8681 166.21 86.8549C165.856 86.836 165.528 86.6664 165.185 86.5778C164.629 86.4307 164.047 86.4854 163.478 86.4458C163.005 86.4034 162.536 86.3278 162.073 86.2196L159.716 85.7295C158.215 85.4185 156.708 85.1037 155.28 84.5476C154.733 84.3365 154.183 84.0764 153.797 83.624C153.486 83.2264 153.287 82.7511 153.219 82.2479C152.884 80.2366 154.663 78.5175 154.887 76.4911C154.966 75.7522 155.257 75.0548 155.532 74.3686C156.035 73.1421 156.536 71.915 157.036 70.6872C157.117 70.4586 157.223 70.2399 157.351 70.035C157.565 69.7726 157.805 69.5343 158.069 69.3244C158.771 68.6762 159.275 67.8359 159.52 66.904C159.538 66.8004 159.58 66.7027 159.644 66.6194C159.709 66.5635 159.782 66.516 159.859 66.478C159.991 66.3904 160.091 66.26 160.141 66.1079C160.192 65.9557 160.191 65.7907 160.139 65.6392C160.254 65.6295 160.361 65.5781 160.442 65.4944C160.523 65.4107 160.572 65.3002 160.58 65.183C160.566 65.081 160.572 64.9772 160.598 64.8777C160.643 64.7796 160.754 64.7306 160.819 64.6439C160.924 64.5025 160.887 64.3046 160.871 64.1274C160.859 64.0152 160.859 63.9022 160.871 63.79C160.911 63.3909 161.087 63.0184 161.367 62.7363C161.81 62.2933 162.44 62.4083 163.052 62.3027C163.662 62.1688 164.258 61.975 164.831 61.7241C166.439 61.0796 168.132 60.6813 169.855 60.5422C171.586 60.4037 173.325 60.6853 174.929 61.364C175.162 61.4601 175.382 61.5869 175.583 61.741C175.725 61.8529 175.842 61.9951 175.926 62.1576C175.994 62.3572 176.078 62.5507 176.178 62.7363C176.376 63.0115 176.75 63.1001 176.967 63.3602C177.184 63.6204 177.202 64.0596 177.382 64.3819C177.64 64.8418 178.236 65.0548 178.414 65.5544C178.47 65.7127 178.477 65.8861 178.518 66.0501C178.618 66.4611 178.918 66.7853 179.183 67.1095C180.155 68.2914 180.777 69.7294 180.977 71.2565C181.037 70.3008 181.668 69.4544 182.46 68.9266C182.673 68.7853 182.919 68.6288 182.962 68.3724C183.016 68.0482 182.706 67.7598 182.727 67.4299C182.749 67.2689 182.813 67.1167 182.912 66.9889C183.265 66.4682 183.653 65.9725 184.072 65.5054C184.3 65.2509 184.556 64.9399 184.461 64.6043C184.389 64.3536 184.137 64.2066 183.998 63.9879C183.917 63.8576 183.875 63.7058 183.879 63.5515C183.882 63.3973 183.93 63.2475 184.016 63.1208C184.146 62.9418 184.352 62.8117 184.415 62.5987C184.487 62.348 184.326 62.0765 184.376 61.8183C184.444 61.6115 184.578 61.4341 184.758 61.315C185.004 61.0873 185.283 60.9003 185.586 60.7608C186.075 60.5723 186.62 60.6421 187.139 60.7156C188.006 60.8381 188.979 61.0266 189.468 61.7655C189.782 62.2273 189.941 62.9286 189.707 63.4224Z" fill="#65617D"/>
<path opacity="0.1" d="M193.718 62.216C193.707 62.5082 193.671 62.8343 193.449 63.0172C193.255 63.1432 193.025 63.1984 192.797 63.1736H192.747C192.823 62.7815 193.291 62.5572 193.373 62.1595C193.387 62.0373 193.376 61.9135 193.341 61.7958C193.306 61.6781 193.247 61.569 193.169 61.4752C192.773 60.9305 192.135 60.6289 191.501 60.4083C189.711 59.7839 187.793 59.6379 185.931 59.9842C185.424 60.0681 184.932 60.2222 184.467 60.4423C184.313 60.5404 184.164 60.6474 184.022 60.7627C183.911 60.5717 183.84 60.3592 183.814 60.1388C183.815 59.9191 183.89 59.7063 184.026 59.5356C184.177 59.3535 184.362 59.2037 184.57 59.0947C184.779 58.9857 185.006 58.9196 185.24 58.9003C185.707 58.8634 186.176 58.8888 186.637 58.9757L191.199 59.643C191.551 59.6939 191.905 59.7448 192.252 59.8315C192.581 59.8896 192.891 60.028 193.156 60.2349C193.701 60.6949 193.745 61.5035 193.718 62.216Z" fill="black"/>
<path opacity="0.1" d="M174 85.3901C173.72 86.4797 172.879 87.3279 172.447 88.3666C171.797 89.9217 172.09 91.8237 171.171 93.2299C170.872 93.657 170.512 94.0352 170.101 94.3515C169.874 94.5483 169.625 94.7184 169.36 94.8585C169.085 95.0127 168.763 95.0532 168.459 94.9716C168.068 94.8359 167.833 94.4061 167.794 93.9914C167.78 93.8555 167.78 93.7184 167.794 93.5824L167.805 93.6125C167.966 94.0084 168.23 94.4231 168.645 94.4928C168.801 94.5043 168.957 94.4829 169.104 94.43C169.252 94.3771 169.387 94.2939 169.501 94.1856C170.112 93.6861 170.468 92.9415 170.807 92.2233C171.073 91.7054 171.283 91.16 171.434 90.5965C171.508 90.2761 171.543 89.9481 171.619 89.6276C171.971 88.0706 173.17 86.8001 173.435 85.2224C173.457 85.1138 173.462 85.0026 173.45 84.8925C173.415 84.7489 173.361 84.6107 173.291 84.4816C173.226 84.3357 173.179 84.1825 173.15 84.0254C173.52 84.1611 173.913 84.3704 174.03 84.7511C174.078 84.9629 174.068 85.1839 174 85.3901Z" fill="black"/>
<path opacity="0.1" d="M171.202 82.6872C171.03 83.1433 170.742 83.5442 170.366 83.8483C169.839 84.2572 169.221 84.5289 168.567 84.64C168.262 84.7191 167.943 84.7152 167.64 84.6287C167.229 84.4836 166.932 84.0915 166.512 83.9784C166.211 83.8955 165.889 83.969 165.585 83.9237C165.038 83.8465 164.614 83.4223 164.173 83.083C162.822 82.05 161.049 81.7164 159.698 80.6834C159.637 80.6459 159.588 80.5933 159.553 80.5307C159.527 80.463 159.518 80.39 159.525 80.3177C159.53 79.6912 159.669 79.0732 159.931 78.5062C160.146 78.1107 160.402 77.7398 160.695 77.3998C161.905 75.8918 163.12 74.3724 164.57 73.1001C165.177 72.5666 165.841 72.069 166.608 71.8277C167.034 71.6939 167.876 71.5676 168.394 71.7938C168.318 71.8469 168.249 71.9103 168.189 71.9823C168.024 72.2171 167.898 72.4783 167.818 72.7551C167.038 74.8192 164.949 75.8786 163.282 77.2848L161.758 78.5685C161.551 78.7438 161.321 79.0001 161.423 79.2546C161.493 79.3833 161.606 79.4823 161.742 79.5336C162.627 79.9784 163.667 80.1575 164.397 80.8361C164.664 81.0849 164.92 81.4129 165.281 81.4318C165.472 81.4204 165.66 81.3777 165.837 81.3055C166.116 81.2287 166.408 81.2188 166.692 81.2763C166.975 81.3339 167.241 81.4574 167.47 81.6372C167.599 81.766 167.75 81.8712 167.914 81.9483C168.052 81.9853 168.196 81.9943 168.337 81.9747C168.732 81.9464 169.151 81.9106 169.504 82.0896C169.858 82.2687 170.149 82.6909 170.563 82.7211C170.768 82.7362 171.009 82.6646 171.202 82.6872Z" fill="black"/>
<path d="M154.159 57.104C153.807 57.334 153.432 57.5941 153.288 57.9937C153.169 58.3198 153.225 58.693 153.082 59.0097C152.939 59.3264 152.619 59.5469 152.548 59.8862C152.498 60.1332 152.596 60.3933 152.548 60.6402C152.506 60.7686 152.472 60.8996 152.446 61.0323C152.428 61.3132 152.665 61.5413 152.897 61.6977C153.39 62.024 153.951 62.2281 154.536 62.2936C155.121 62.359 155.713 62.2841 156.264 62.0747C156.759 61.8862 157.205 61.579 157.68 61.3377C158.142 61.0667 158.671 60.9359 159.205 60.9607C159.511 60.9946 159.803 61.1077 160.109 61.1492C160.26 61.1795 160.416 61.1721 160.564 61.1274C160.711 61.0827 160.846 61.0022 160.956 60.8928C161.05 60.7602 161.114 60.6074 161.141 60.4461C161.399 59.4112 161.282 58.3142 161.038 57.2736C160.793 56.2331 160.422 55.2322 160.161 54.1973C159.976 53.4301 159.833 52.6441 159.523 51.9184C159.214 51.1926 158.693 50.5178 157.965 50.2407C157.908 50.212 157.842 50.2034 157.78 50.2162C157.733 50.2361 157.692 50.2671 157.659 50.3067C157.083 50.9277 156.649 51.6705 156.388 52.482C156.097 53.3849 156.017 54.3425 155.75 55.2492C155.636 55.6262 155.487 56.1313 155.195 56.4197C154.902 56.7081 154.49 56.8872 154.159 57.104Z" fill="#3F3D56"/>
<path opacity="0.1" d="M161.147 60.4404C161.116 60.6023 161.049 60.755 160.952 60.8871C160.842 60.9969 160.708 61.0775 160.56 61.1219C160.412 61.1663 160.256 61.173 160.105 61.1416C159.801 61.1039 159.509 60.9889 159.203 60.9531C158.669 60.928 158.14 61.0588 157.678 61.3301C157.203 61.5714 156.751 61.8711 156.26 62.0653C155.542 62.3423 154.757 62.3878 154.012 62.1953C153.617 62.0942 153.241 61.926 152.9 61.6977C152.667 61.5431 152.431 61.3207 152.45 61.0323C152.476 60.9002 152.51 60.7699 152.552 60.6421C152.6 60.3952 152.504 60.135 152.552 59.8881C152.622 59.5488 152.945 59.3226 153.086 59.0097C153.226 58.6968 153.173 58.3217 153.289 57.9955C153.434 57.594 153.81 57.3358 154.162 57.1039C154.514 56.8721 154.933 56.6949 155.215 56.414C155.251 56.3703 155.284 56.3237 155.313 56.2745C155.516 55.9559 155.665 55.6048 155.754 55.2359C156.027 54.3273 156.101 53.3716 156.39 52.4668C156.652 51.656 157.087 50.9139 157.663 50.2934C157.694 50.253 157.735 50.2217 157.781 50.203C157.844 50.19 157.909 50.1979 157.967 50.2256C158.693 50.5046 159.214 51.1794 159.525 51.9051C159.837 52.6308 159.968 53.4131 160.163 54.1822C160.422 55.2171 160.795 56.2218 161.039 57.2604C161.284 58.299 161.404 59.4036 161.147 60.4404Z" fill="black"/>
<path opacity="0.1" d="M166.658 37.4509C165.787 37.7326 164.844 37.6766 164.01 37.2939C163.177 36.9111 162.512 36.2286 162.144 35.3774C162.158 35.2008 162.183 35.0252 162.218 34.8515C162.403 33.9844 163.196 34.3011 163.823 34.5311C164.577 34.7802 165.306 35.1015 166 35.4905C166.212 35.6015 166.396 35.7601 166.538 35.9543C166.812 36.3708 166.703 36.925 166.658 37.4509Z" fill="black"/>
<path d="M165.539 37.4397C167.586 37.4397 169.245 35.7518 169.245 33.6697C169.245 31.5875 167.586 29.8997 165.539 29.8997C163.492 29.8997 161.833 31.5875 161.833 33.6697C161.833 35.7518 163.492 37.4397 165.539 37.4397Z" fill="#BE6F72"/>
<path opacity="0.1" d="M175.596 61.8428C175.596 62.1557 175.179 62.2556 174.869 62.2387C173.757 62.1727 172.67 61.8617 171.569 61.9559C170.177 62.0841 168.899 62.8664 167.503 62.938C166.966 62.9663 166.419 62.8852 165.889 62.9851C165.203 63.1152 164.592 63.5393 163.893 63.5996C163.287 63.6524 162.689 63.4206 162.083 63.4451C161.659 63.4708 161.246 63.5904 160.873 63.7957C160.913 63.3965 161.089 63.0241 161.369 62.742C161.812 62.299 162.442 62.414 163.054 62.3084C163.664 62.1745 164.26 61.9807 164.833 61.7297C166.441 61.0852 168.134 60.6869 169.857 60.5478C171.587 60.4078 173.325 60.6876 174.929 61.364C175.162 61.4601 175.382 61.5869 175.583 61.741C175.593 61.7739 175.597 61.8084 175.596 61.8428Z" fill="black"/>
<path d="M163.825 40.5536L162.324 39.9881L161.69 39.7506C161.432 39.6405 161.16 39.567 160.882 39.532C160.156 39.4754 159.472 39.9674 159.084 40.5951C158.697 41.2228 158.551 41.9712 158.427 42.7007C158.256 43.6984 158.112 44.7 157.993 45.7053C157.865 46.6132 157.8 47.529 157.798 48.4461C157.841 50.7798 158.326 53.0813 158.86 55.3528C159.122 56.3599 159.319 57.383 159.451 58.4159C159.496 58.8419 159.516 59.2698 159.561 59.6977C159.609 60.1784 159.687 60.6534 159.765 61.1303L160.211 63.839C160.767 63.4375 161.399 63.085 162.083 63.0643C162.689 63.0417 163.289 63.2716 163.893 63.2189C164.588 63.1604 165.204 62.7363 165.889 62.6062C166.419 62.5063 166.966 62.5855 167.505 62.5591C168.899 62.4875 170.179 61.7033 171.569 61.577C172.672 61.4752 173.767 61.7919 174.871 61.8579C175.179 61.8767 175.596 61.7768 175.596 61.462C175.596 61.2434 175.381 61.0982 175.194 60.9889C174.312 60.4486 173.472 59.8391 172.683 59.1661C171.953 58.578 171.211 57.9748 170.709 57.1793C169.499 55.266 169.914 52.6779 168.882 50.6591C168.043 49.0192 168.882 46.8703 168.882 45.0211C168.882 44.0993 168.882 43.1662 168.669 42.2709C168.536 41.7701 168.37 41.2789 168.172 40.8006L167.451 38.9439C167.436 38.8896 167.407 38.8406 167.366 38.8025C167.318 38.7685 167.26 38.7507 167.201 38.7516C166.768 38.7252 166.341 38.8644 166.004 39.1418C165.665 39.4226 165.448 39.826 165.115 40.1182C164.749 40.4405 164.279 40.7233 163.825 40.5536Z" fill="#E3E8F4"/>
<path d="M166.247 39.4829C166.365 38.9665 166.493 38.4292 166.832 38.0258C167.172 37.6224 167.791 37.4094 168.228 37.6978C168.725 38.0258 168.745 38.7836 169.169 39.2058C169.54 39.5678 170.096 39.596 170.6 39.6432C171.506 39.7271 172.396 39.9403 173.244 40.2765C173.41 40.3287 173.56 40.4205 173.684 40.5442C173.915 40.8119 173.869 41.2228 173.984 41.5564C174.141 41.9862 174.577 42.2595 174.745 42.6874C174.931 43.1625 174.745 43.694 174.59 44.1822C174.31 45.0588 174.134 45.9692 173.861 46.8495C173.589 47.7298 173.202 48.5969 172.564 49.2604C172.283 49.5545 171.864 49.8259 171.493 49.6506L171.35 50.6968C171.309 50.9179 171.309 51.1449 171.35 51.366C171.372 51.4766 171.424 51.5788 171.5 51.6608C171.576 51.7428 171.673 51.8014 171.78 51.8297C171.808 51.9918 171.977 52.0691 172.114 52.1577C172.215 52.2281 172.302 52.3182 172.368 52.4229C172.435 52.5276 172.481 52.6447 172.503 52.7674C172.524 52.8902 172.522 53.0161 172.496 53.1379C172.47 53.2598 172.42 53.3751 172.349 53.4772C172.233 53.6374 172.06 53.7637 172.005 53.9541C171.921 54.2293 172.119 54.5196 172.36 54.6704C172.601 54.8212 172.885 54.8909 173.129 55.0361C173.637 55.3339 173.91 55.9201 174.084 56.4894C174.214 56.9192 174.321 57.3848 174.64 57.6977C174.762 57.8164 174.908 57.9069 175.025 58.0313C175.227 58.2742 175.344 58.5787 175.357 58.8966C175.408 59.2906 175.323 59.6903 175.116 60.0276C174.745 60.5667 174.054 60.7269 173.448 60.9701C172.464 61.381 171.654 62.1161 170.787 62.742C170.434 63.0313 170.018 63.2304 169.573 63.3225C168.973 63.4036 168.382 63.134 167.778 63.1095C167.416 63.1129 167.056 63.1611 166.706 63.2528L165.595 63.4978C165.654 62.6213 165.179 61.7429 164.914 60.9078C164.414 59.3358 164.321 57.6543 164.44 56.0068C164.559 54.3594 164.889 52.7345 165.215 51.1172C165.443 49.9862 165.42 48.8043 165.771 47.7053C166.099 46.6478 166.567 45.6318 166.74 44.531C167.021 42.7496 165.85 41.2398 166.247 39.4829Z" fill="#3F3D56"/>
<path d="M174.677 42.9683C174.779 43.1599 174.851 43.3666 174.89 43.581C174.976 43.913 175.136 44.2202 175.359 44.4782C175.545 44.6455 175.711 44.8354 175.852 45.0437C176.022 45.3717 175.957 45.7713 176.037 46.1295C176.13 46.5197 176.398 46.859 176.437 47.2605C176.438 47.3755 176.449 47.4903 176.469 47.6035C176.589 48.0597 177.249 48.169 177.395 48.6252C177.494 48.9212 177.325 49.2435 177.356 49.5545C177.379 49.6507 177.385 49.7503 177.373 49.8486C177.331 49.9597 177.258 50.0555 177.162 50.1238C176.549 50.7198 176.124 51.4883 175.942 52.3311C175.764 53.1693 175.67 54.0239 175.663 54.8815L174.938 53.907C174.861 53.7888 174.763 53.6864 174.649 53.6054C174.556 53.5488 174.449 53.5206 174.354 53.464C174.08 53.3057 173.973 52.9701 173.867 52.6685C173.574 51.8337 173.134 51.0597 172.57 50.3839C172.275 50.0314 171.932 49.677 171.867 49.219C171.848 49.0086 171.859 48.7964 171.901 48.5894C172.086 47.3547 172.284 46.0899 172.876 44.9947C173.152 44.482 173.509 44.0183 173.774 43.498C173.952 43.1531 174.202 42.2558 174.677 42.9683Z" fill="#3F3D56"/>
<path d="M156.395 44.1539C156.399 44.3126 156.359 44.4692 156.281 44.6063C156.21 44.6898 156.117 44.7516 156.014 44.7849C155.911 44.8182 155.8 44.8216 155.695 44.7948C155.484 44.7409 155.285 44.6462 155.109 44.5158C154.593 44.1841 154.077 43.8517 153.56 43.5187C153.272 43.3419 152.994 43.1481 152.728 42.9381C152.322 42.5891 151.953 42.1966 151.629 41.7675C150.729 40.6365 149.932 39.4094 148.929 38.3745C148.657 38.0918 148.373 37.8203 148.11 37.5244C147.75 37.0966 147.42 36.6444 147.12 36.1709C146.831 35.7355 146.531 35.2529 146.581 34.7327C146.611 34.4386 146.75 34.1672 146.791 33.875C146.831 33.5828 146.722 33.2266 146.444 33.1474C146.411 33.139 146.378 33.1333 146.344 33.1304C146.289 33.1245 146.235 33.1125 146.183 33.0946C145.925 32.9853 145.964 32.58 146.149 32.367C146.335 32.154 146.609 32.0353 146.778 31.8015C146.856 31.6628 146.944 31.5299 147.041 31.4038C147.165 31.2956 147.313 31.2198 147.473 31.1832C148.542 30.8628 149.672 30.8194 150.762 31.0569C150.947 31.0984 151.158 31.1738 151.214 31.3566C151.236 31.4457 151.236 31.539 151.214 31.6281C151.132 31.9998 151.085 32.3784 151.073 32.7591C151.073 32.8384 151.077 32.9178 151.086 32.9966C151.173 33.7958 151.683 34.4726 152.18 35.0965C152.769 35.8392 153.367 36.5762 153.968 37.3114C154.293 37.7374 154.655 38.1318 155.052 38.4895C155.423 38.8024 155.903 39.055 156.192 39.4565C156.427 39.7807 156.351 40.2237 156.377 40.6139C156.463 41.7921 156.469 42.9749 156.395 44.1539Z" fill="#3F3D56"/>
<path d="M179.93 52.0182C180.114 51.8372 180.279 51.6384 180.423 51.4245C180.579 51.1594 180.704 50.8766 180.794 50.5819L181.869 47.481C182.039 46.9909 182.21 46.499 182.425 46.0221C182.647 45.5075 182.91 45.0117 183.153 44.5141C183.777 43.2045 184.26 41.8298 184.593 40.4142C184.651 40.2197 184.671 40.0152 184.65 39.8129C184.599 39.4868 184.356 39.2323 184.124 39.0004C183.891 38.7445 183.626 38.5214 183.335 38.3369C183.189 38.2445 183.026 38.1826 182.856 38.1547C182.686 38.1269 182.512 38.1337 182.345 38.1748C181.871 38.3162 181.572 38.8101 181.463 39.3058C181.354 39.8016 181.394 40.3086 181.348 40.8138C181.281 41.5377 181.037 42.237 180.977 42.9627C180.946 43.3831 180.977 43.8072 180.927 44.2257C180.836 44.7752 180.648 45.3033 180.371 45.7846C179.769 46.9308 178.956 47.9484 177.975 48.7817C177.707 48.9834 177.465 49.2197 177.256 49.4848C177.082 49.7499 176.964 50.0491 176.91 50.3632C176.787 50.8415 176.84 51.3492 177.06 51.7901C177.362 52.3142 177.942 52.5441 178.496 52.661C179.245 52.8194 179.417 52.5592 179.93 52.0182Z" fill="#BE6F72"/>
<path d="M165.561 28.2069C165.721 27.9019 165.965 27.6516 166.264 27.487C166.562 27.3224 166.902 27.2509 167.24 27.2814C167.581 27.3427 167.898 27.4999 168.155 27.7351C168.413 27.9703 168.6 28.2741 168.697 28.6122C168.784 28.893 168.819 29.2041 168.971 29.4453C169.201 29.8091 169.627 29.9147 169.946 30.1786C170.136 30.3584 170.289 30.5751 170.396 30.8159C170.503 31.0568 170.562 31.3169 170.568 31.581C170.586 32.1206 170.502 32.6587 170.322 33.1663C170.245 33.3829 170.183 33.6046 170.137 33.8298C170.099 34.0485 170.096 34.2709 170.062 34.4896C170.021 34.7731 169.925 35.0454 169.779 35.2905C169.633 35.5355 169.44 35.7484 169.212 35.9165C169.147 35.9704 169.066 36.0003 168.982 36.0014C168.838 35.9844 168.749 35.8129 168.695 35.6583C168.4 34.7931 168.471 33.7356 167.928 33.0457C167.681 32.7674 167.382 32.5413 167.049 32.3803C166.913 32.2912 166.761 32.2327 166.601 32.2087C166.366 32.2216 166.14 32.3056 165.952 32.45C165.561 32.7169 165.127 32.9121 164.67 33.0268C164.442 33.0818 164.204 33.0843 163.975 33.0341C163.746 32.9838 163.53 32.8822 163.345 32.7365C163.089 32.5217 162.902 32.1993 162.618 32.0316C162.335 31.8638 162.038 31.8732 161.758 31.7582C161.58 31.6811 161.421 31.5635 161.295 31.4146C161.168 31.2656 161.076 31.0891 161.026 30.8986C160.977 30.708 160.97 30.5085 161.008 30.3151C161.045 30.1218 161.126 29.9397 161.243 29.7828C161.429 29.5566 161.703 29.4284 161.868 29.1777C162.081 28.8534 162.062 28.4086 162.164 28.0203C162.225 27.7746 162.342 27.5471 162.506 27.3566C162.67 27.1662 162.876 27.0182 163.108 26.9251C163.332 26.8475 163.573 26.8327 163.805 26.8821C164.037 26.9315 164.252 27.0433 164.427 27.206C164.612 27.3756 164.761 27.5943 164.942 27.7715C165.121 27.946 165.341 28.072 165.581 28.1379C165.82 28.2038 166.072 28.2074 166.314 28.1485" fill="#3F3D56"/>
<path opacity="0.1" d="M168.608 55.9521C168.5 56.0499 168.423 56.1784 168.388 56.3209C168.353 56.4635 168.361 56.6135 168.411 56.7514C168.452 56.84 170.364 56.4649 170.566 56.4366C171.07 56.3631 171.954 56.3989 172.293 55.9295C172.898 55.0983 171.026 55.283 170.683 55.3131C170.031 55.3697 169.104 55.4602 168.608 55.9521Z" fill="black"/>
<path d="M151.21 31.6356C151.129 32.0073 151.081 32.386 151.07 32.7666C150.514 32.8816 149.935 32.6931 149.402 32.5046L147.869 31.973C147.776 31.9124 147.663 31.8902 147.555 31.9109C147.446 31.9315 147.349 31.9935 147.284 32.0843C147.037 32.3444 146.698 32.8383 146.357 33.1304C146.302 33.1245 146.248 33.1125 146.196 33.0946C145.938 32.9853 145.977 32.58 146.162 32.367C146.348 32.154 146.622 32.0352 146.791 31.8015C146.869 31.6628 146.957 31.5299 147.054 31.4038C147.178 31.2956 147.326 31.2198 147.486 31.1832C148.554 30.8628 149.685 30.8194 150.775 31.0569C150.96 31.0984 151.171 31.1738 151.227 31.3566C151.245 31.4496 151.239 31.5456 151.21 31.6356Z" fill="#3F3D56"/>
<path opacity="0.1" d="M151.21 31.6356C151.129 32.0073 151.081 32.386 151.07 32.7666C150.514 32.8816 149.935 32.6931 149.402 32.5046L147.869 31.973C147.776 31.9124 147.663 31.8902 147.555 31.9109C147.446 31.9315 147.349 31.9935 147.284 32.0843C147.037 32.3444 146.698 32.8383 146.357 33.1304C146.302 33.1245 146.248 33.1125 146.196 33.0946C145.938 32.9853 145.977 32.58 146.162 32.367C146.348 32.154 146.622 32.0352 146.791 31.8015C146.869 31.6628 146.957 31.5299 147.054 31.4038C147.178 31.2956 147.326 31.2198 147.486 31.1832C148.554 30.8628 149.685 30.8194 150.775 31.0569C150.96 31.0984 151.171 31.1738 151.227 31.3566C151.245 31.4496 151.239 31.5456 151.21 31.6356Z" fill="black"/>
<path opacity="0.1" d="M165.229 67.4224C165.496 67.5129 165.785 67.6448 165.876 67.9163L163.73 67.3621L162.618 67.0737C162.422 67.0228 161.718 66.9643 161.588 66.8079C161.403 66.5779 162.06 66.7362 162.179 66.7532C162.539 66.8079 162.898 66.8644 163.256 66.9304C163.93 67.0529 164.579 67.2546 165.229 67.4224Z" fill="black"/>
<path opacity="0.1" d="M166.062 69.3545C165.876 69.2282 165.344 69.2433 165.116 69.1887C164.783 69.1076 164.455 69.0001 164.127 68.8965C163.462 68.6759 162.802 68.4252 162.118 68.2631C161.992 68.2348 161.562 68.2273 161.582 68.0652C161.603 67.9031 162.012 67.8465 162.114 67.839C162.72 67.7937 163.476 68.0821 164.04 68.2876C164.758 68.5492 165.438 68.9081 166.062 69.3545Z" fill="black"/>
<path opacity="0.1" d="M164.701 65.6996C164.021 65.5111 163.404 65.0813 162.704 64.9983C162.521 65.0054 162.341 64.9496 162.194 64.84C162.112 64.7577 162.054 64.653 162.029 64.5384C162.498 64.5139 163.043 64.7156 163.469 64.906C163.704 65.0083 163.929 65.1307 164.143 65.2717C164.299 65.3678 164.533 65.6449 164.701 65.6996Z" fill="black"/>
<path d="M177.666 48.8213C177.551 49.605 177.717 50.4046 178.135 51.0737C178.552 51.7428 179.192 52.2367 179.938 52.465C179.847 52.9117 179.393 53.1587 179.072 53.4772C178.62 53.924 178.387 54.5932 177.853 54.9325C177.258 55.3095 176.493 55.1624 175.815 55.0041C175.753 54.9971 175.696 54.9668 175.655 54.9193C175.641 54.8967 175.631 54.8718 175.626 54.8458C175.401 54.0107 175.255 53.1191 175.485 52.2822C175.67 51.5696 176.115 50.9627 176.471 50.3331C176.826 49.7035 176.86 49.0286 177.666 48.8213Z" fill="#3F3D56"/>
<path d="M161.097 38.0127C160.38 38.0658 159.683 38.2815 159.058 38.6441C158.643 38.8854 158.217 39.2096 157.743 39.1512C157.463 39.1192 157.187 38.9627 156.914 39.0381C156.761 39.1011 156.618 39.1875 156.49 39.2945C156.425 39.347 156.348 39.3815 156.266 39.3947C156.184 39.4079 156.101 39.3994 156.023 39.3699L155.838 41.9787C155.767 42.9702 155.699 43.9825 155.932 44.9495C156.053 45.4433 156.318 45.8919 156.347 46.3934C156.377 46.8948 156.332 47.4094 156.368 47.9164C156.401 48.3858 156.503 48.8476 156.529 49.317C156.581 50.2029 156.366 51.0813 156.158 51.9428C155.845 53.2133 155.656 54.512 155.046 55.6619C154.876 55.9805 154.676 56.3047 154.676 56.6666C154.676 56.7118 154.676 56.7552 154.687 56.7985C154.501 56.9022 154.329 57.0002 154.172 57.102C153.82 57.3339 153.443 57.5921 153.299 57.9936C153.182 58.3197 153.236 58.693 153.095 59.0078C152.954 59.3226 152.632 59.5469 152.561 59.8862C152.511 60.1331 152.608 60.3932 152.561 60.6402C152.519 60.7679 152.485 60.8983 152.459 61.0304C152.441 61.3131 152.676 61.5412 152.91 61.6958C153.25 61.9241 153.626 62.0923 154.021 62.1934L155.128 57.726C156.137 55.8289 156.976 53.8436 157.635 51.7939C157.824 51.1239 158.066 50.4707 158.36 49.841C158.569 49.4848 158.755 49.1145 158.916 48.7326C159.084 48.2576 159.101 47.743 159.183 47.2416C159.279 46.6564 159.425 46.0806 159.618 45.5206C159.818 44.9155 160.05 44.3123 160.091 43.6771C160.152 42.7685 159.827 41.809 160.172 40.9683C160.318 40.6537 160.509 40.3622 160.737 40.1031C161.215 39.5075 161.651 38.8835 162.129 38.2879C161.881 38.0183 161.467 37.99 161.097 38.0127Z" fill="#3F3D56"/>
<g opacity="0.1">
<path opacity="0.1" d="M146.285 27.9113L146.054 27.9279L146.028 27.9463C146.115 27.9428 146.201 27.9311 146.285 27.9113Z" fill="black"/>
<path opacity="0.1" d="M150.526 31.8245C150.487 32.1992 150.407 32.5684 150.288 32.9253C150.212 33.1419 150.15 33.3636 150.103 33.5888C150.066 33.8075 150.062 34.0299 150.029 34.2486C149.988 34.5321 149.891 34.8044 149.745 35.0494C149.599 35.2945 149.406 35.5074 149.178 35.6755C149.113 35.7294 149.032 35.7593 148.949 35.7603C148.804 35.7434 148.715 35.5718 148.661 35.4173C148.367 34.552 148.437 33.4946 147.894 32.8046C147.647 32.5263 147.349 32.3002 147.016 32.1392C146.88 32.0502 146.727 31.9917 146.567 31.9677C146.332 31.9806 146.106 32.0646 145.919 32.209C145.528 32.4759 145.094 32.6711 144.636 32.7858C144.408 32.8408 144.171 32.8433 143.941 32.793C143.712 32.7428 143.497 32.6412 143.311 32.4955C143.056 32.2806 142.868 31.9583 142.585 31.7905C142.301 31.6228 142.005 31.6322 141.725 31.5172C141.55 31.4413 141.394 31.3262 141.269 31.1807C141.144 31.0352 141.053 30.8628 141.002 30.6765C140.996 30.653 140.991 30.629 140.987 30.6049C140.941 30.8153 140.946 31.034 141.002 31.242C141.053 31.4283 141.144 31.6007 141.269 31.7462C141.394 31.8917 141.55 32.0068 141.725 32.0827C142.005 32.1977 142.32 32.1996 142.585 32.356C142.85 32.5125 143.056 32.8461 143.311 33.061C143.497 33.2067 143.712 33.3083 143.941 33.3585C144.171 33.4088 144.408 33.4063 144.636 33.3513C145.094 33.2366 145.528 33.0414 145.919 32.7745C146.106 32.6301 146.332 32.5461 146.567 32.5332C146.727 32.5572 146.88 32.6157 147.016 32.7047C147.344 32.8689 147.638 33.0968 147.881 33.3758C148.424 34.0657 148.354 35.1232 148.648 35.9884C148.702 36.1449 148.791 36.3145 148.936 36.3315C149.025 36.3319 149.111 36.2998 149.178 36.241C149.407 36.0724 149.601 35.8587 149.747 35.6126C149.894 35.3666 149.99 35.0931 150.031 34.8084C150.064 34.5897 150.068 34.3673 150.105 34.1487C150.152 33.9234 150.214 33.7017 150.29 33.4851C150.471 32.9775 150.554 32.4394 150.537 31.8999C150.533 31.8772 150.529 31.8508 150.526 31.8245Z" fill="black"/>
</g>
<path opacity="0.1" d="M115.325 77.8995C125.536 73.8166 130.947 66.5537 133.725 60.976C136.964 54.4728 137.405 48.912 137.422 48.6745L137.548 46.9535H138.845L138.719 48.6745C138.702 48.9082 138.261 54.4728 135.022 60.976C132.242 66.5537 126.833 73.8166 116.622 77.8995C115.825 78.22 114.998 78.5197 114.139 78.7987L114.013 78.3972C114.46 78.2351 114.898 78.0692 115.325 77.8995Z" fill="white"/>
<path opacity="0.1" d="M92.6908 77.8995C82.48 73.8166 77.0688 66.5537 74.2909 60.976C71.0516 54.4728 70.6105 48.912 70.5939 48.6745L70.4679 46.9535H69.1707L69.2967 48.6745C69.3133 48.9082 69.7544 54.4728 72.9937 60.976C75.7734 66.5537 81.1828 73.8166 91.3936 77.8995C92.1905 78.22 93.0182 78.5197 93.8768 78.7987L94.0028 78.3972C93.5569 78.2351 93.1195 78.0692 92.6908 77.8995Z" fill="white"/>
<path d="M142 43.5315L141.859 45.6491C141.838 45.9367 141.346 52.7834 137.714 60.7852C134.598 67.6482 128.535 76.587 117.086 81.6108C116.193 82.005 115.266 82.3731 114.305 82.7148L113.233 78.9574C115.924 78.0119 118.516 76.7459 120.965 75.1815C126.8 71.4195 131.337 66.0502 134.501 59.1408C136.179 55.4621 137.376 51.5331 138.053 47.4744H125.028V43.5315H142Z" fill="#DC2D27"/>
<path d="M92.7673 78.9574L91.6954 82.7148C90.7329 82.3715 89.805 82.0027 88.9118 81.6084C77.4656 76.5847 71.3998 67.6482 68.2858 60.7852C64.6546 52.7834 64.1602 45.9413 64.1415 45.6491L64.0002 43.5315H80.9639V47.4744H67.9368C68.6178 51.5336 69.8176 55.4626 71.4995 59.1408C74.6633 66.0502 79.1981 71.4195 85.0334 75.1792C87.4822 76.7453 90.0752 78.012 92.7673 78.9574Z" fill="#DC2D27"/>
<path d="M122.596 115.279V136.54H83.4026V115.279L84.649 113.423C97.3499 108.39 99.9237 95.2648 100.437 90.0718C100.513 89.3542 100.557 88.6327 100.568 87.9102H105.414C105.425 88.6327 105.469 89.3542 105.545 90.0718C106.066 95.2648 108.64 108.395 121.333 113.423L122.596 115.279Z" fill="#DC2D27"/>
<path opacity="0.1" d="M122.596 115.278H83.4026V117.946H122.596V115.278Z" fill="black"/>
<path opacity="0.1" d="M86.7263 113.423C99.4272 108.39 102.001 95.2648 102.514 90.0718C102.591 89.3542 102.634 88.6327 102.645 87.9102H100.568C100.557 88.6327 100.513 89.3542 100.437 90.0718C99.9154 95.2648 97.3416 108.395 84.649 113.423L83.4026 115.279V136.54H85.4799V115.279L86.7263 113.423Z" fill="white"/>
<path d="M77.8645 37C77.9538 66.2379 89.1715 89.8814 103 89.8814C116.829 89.8814 128.045 66.2379 128.136 37H77.8645Z" fill="#DC2D27"/>
<path opacity="0.1" d="M93.2301 112.723H115.9V111.875H92.1182V118.095H93.2301V112.723Z" fill="white"/>
<path d="M46.9986 65.0814C46.5705 64.9362 44.0502 62.908 43.8593 61.99C43.6685 61.072 45.1917 52.5197 45.1917 52.5197C45.1917 52.5197 45.0509 52.5197 44.8211 52.4915V52.3538L45.1343 41.1193C45.1343 41.1193 46.4185 33.5793 43.9928 34.0185C41.567 34.4577 43.0884 41.1193 43.0884 41.1193C43.0884 41.1193 42.8123 44.5009 42.6177 45.5151C42.4324 46.4934 41.5837 50.4783 42.1619 51.7167C42.183 51.7607 42.2065 51.8035 42.2323 51.8449C42.2323 51.8449 42.3286 56.0956 41.2816 56.6762C40.2828 57.2285 39.8677 60.0088 39.8324 60.2576L39.7787 60.235C39.4805 60.0452 39.2186 59.8019 39.0059 59.5168C38.9837 59.4886 38.967 59.4584 38.9466 59.4283C39.6285 58.648 39.9959 57.6349 39.9756 56.5912C39.9554 55.5475 39.5489 54.55 38.8373 53.7978C38.5064 53.4482 38.1183 53.1599 37.6902 52.9457C37.6778 52.5856 37.5939 52.2316 37.4437 51.9052C36.9619 50.8572 34.2934 49.4868 32.3976 49.4547C31.5229 49.4283 30.8058 49.6809 30.5445 50.3765C30.411 50.729 30.4518 51.1305 30.3962 51.4962C30.285 52.2502 29.8088 52.8402 29.1972 53.3095C28.9503 53.0291 28.6833 52.7677 28.3985 52.5273C27.7796 52.0447 26.5454 50.4538 26.5454 50.4538C26.5454 50.4538 22.6927 46.3954 22.4073 45.2832C22.1219 44.1711 18.2729 37.4925 17.4168 38.6556C16.5606 39.8186 20.3651 44.8874 20.3651 44.8874C20.3651 44.8874 21.0879 46.729 21.6438 47.3511C22.1997 47.9731 26.462 54.269 26.462 54.269L26.6658 54.6988C25.7652 55.1813 24.9424 55.7959 24.6515 56.7534C24.2252 58.1634 25.1574 59.5809 25.8023 60.9004C27.0587 63.4753 27.2385 66.759 25.6169 69.1115C24.1641 71.1888 21.6438 72.1765 19.2847 73.0398C20.424 73.9498 21.8394 74.4277 23.2875 74.3914C22.7427 75.9974 20.8117 76.529 19.1661 76.8268C20.0297 77.6713 21.2658 77.9785 22.4518 78.1651C23.0326 78.2657 23.6212 78.313 24.2104 78.3065H24.355L24.4995 78.2952C24.7004 78.2816 24.9002 78.2558 25.0981 78.2179C25.9542 78.0407 26.7863 77.5657 27.2236 76.7966C27.5943 76.1388 27.724 75.2415 28.3967 74.9116C28.5718 74.8312 28.7606 74.7857 28.9526 74.7778H28.9322C29.0582 74.7778 29.188 74.7778 29.314 74.7778L32.1178 74.8061C32.2345 74.8061 32.355 74.8061 32.4755 74.8061C33.2667 74.7872 34.1118 74.6477 34.5139 73.9823C34.6793 73.6592 34.7664 73.3005 34.7678 72.9362C34.8271 72.0332 34.7678 71.1039 34.7919 70.1935C35.0309 71.8504 35.2811 74.4328 34.6863 75.3867C34.203 76.1094 33.6172 76.7554 32.948 77.3037C32.7797 77.4475 32.6257 77.6079 32.4884 77.7825C32.3976 77.8485 32.3439 77.8843 32.3439 77.8843L32.2864 78.0596C32.0752 78.3854 31.9221 78.7466 31.8343 79.1265C31.8019 79.2241 31.7899 79.3274 31.799 79.43C31.8639 79.5638 31.3358 80.1161 31.4896 80.348C30.1701 81.9219 29.92 84.3065 29.92 84.3065L27.5109 88.0275C26.273 91.3356 24.4198 91.6749 24.4198 91.6749C24.4198 91.6749 20.0668 88.7042 19.9482 88.559C19.8296 88.4139 18.1654 87.6882 18.1654 87.6882C17.9692 87.3381 17.6697 87.0598 17.3093 86.8927C16.7385 86.6514 16.6903 85.7617 16.6903 85.7617C16.6199 83.6599 15.4061 83.4997 15.4061 83.4997C14.4276 83.4149 13.6808 83.5921 13.1063 83.9163L12.9322 83.9295C12.0908 83.9992 11.079 84.0765 9.96712 84.1519C6.87421 84.3593 6.13851 86.3969 6.13851 86.3969C6.13851 86.3969 5.75862 86.8324 6.25711 87.3036C6.75561 87.7749 9.94673 87.3036 10.082 87.2923C9.83881 87.3191 9.59287 87.3019 9.35558 87.2414C9.85778 87.2226 10.549 87.2037 11.1383 87.2037H11.281C11.2439 87.5215 11.226 87.8413 11.2273 88.1613C11.2273 88.7645 12.8673 89.1509 12.8673 89.1509L17.8615 93.6749C17.8615 93.6749 21.0008 95.1019 22.9985 97.1546C24.9961 99.2074 26.7622 97.4355 26.7622 97.4355C28.8766 96.9039 34.9605 89.4224 34.9661 89.4148C34.9661 89.6335 35.094 96.9096 35.3367 98.3705C35.3464 98.4446 35.3644 98.5173 35.3904 98.5872C35.6758 99.2149 35.2941 100.93 35.1292 101.654C35.024 102.26 34.9836 102.875 35.0087 103.49C35.0087 103.49 32.7275 112.35 32.9165 113.128C33.1055 113.907 31.6805 117.524 31.6805 117.524V120.54L31.9288 120.527C31.8965 120.575 31.8668 120.626 31.8398 120.678L31.8231 120.71C31.8231 120.71 33.3446 121.047 34.3675 120.951C35.3905 120.855 37.1472 121.752 37.1472 121.752C37.1472 121.752 37.7421 122.038 39.573 122.159C41.4039 122.28 41.4039 121.337 41.4039 121.337C41.1945 120.054 38.3017 119.624 38.2128 119.611C37.9793 119.462 37.7606 119.3 37.5809 119.16L37.5438 119.13C37.5559 119.102 37.5664 119.073 37.5753 119.043C37.8848 117.761 36.1725 117.205 36.1725 117.205V116.892C37.2844 116.312 37.5049 112.327 37.5049 112.327C37.5049 112.327 39.1727 107.4 39.4062 106.578C39.6397 105.756 39.4062 104.525 39.4062 104.525L39.573 103.462C39.573 103.462 39.9307 102.738 39.9307 102.593C39.977 102.225 40.1161 101.876 40.3346 101.579C40.5959 101.264 40.0493 100.516 40.0493 100.516L40.5255 99.2602V97.8822L41.6374 92.8832C41.6374 92.8832 42.803 87.0604 42.3991 85.1547C41.9951 83.249 42.8753 82.2801 42.8753 82.2801C42.796 82.3225 42.7143 82.3603 42.6307 82.3932C42.742 82.1315 42.8379 81.8634 42.9179 81.5902L45.4197 81.905V81.9427H46.3222C46.3222 81.9427 46.0368 78.3612 46.0368 76.9173C46.0368 75.4734 46.9986 70.2915 46.9986 70.2915C46.9986 70.2915 47.4266 65.2265 46.9986 65.0814ZM35.8927 60.9004C35.8927 61.0418 35.8797 61.1888 35.8704 61.3396L35.8204 61.4169L35.7277 61.3378L35.6147 61.5168L35.5813 61.5338C35.3367 61.4056 35.2107 60.6723 35.0346 60.8307L35.0106 60.8514C34.9716 60.8062 34.9327 60.793 34.892 60.8307L34.8549 60.8627C34.8549 60.8081 34.8549 60.7515 34.8549 60.695C35.1939 60.7837 35.5426 60.8287 35.8927 60.8288C35.8945 60.8533 35.8927 60.8778 35.8927 60.9004ZM44.2133 77.5789H44.267L44.1781 77.8164C44.1892 77.7372 44.2003 77.66 44.2133 77.5789ZM35.0791 120.325L34.7381 120.238L34.9235 120.206L35.0958 120.321L35.1162 120.336L35.0791 120.325ZM38.563 119.818C38.45 119.758 38.3351 119.688 38.2239 119.616C38.261 119.637 38.4074 119.714 38.563 119.818Z" fill="url(#paint1_linear)"/>
<path d="M45.4439 74.0182L43.1997 79.9672H43.7445L41.6338 81.6788L45.4439 82.1614V74.0182Z" fill="#F86D70"/>
<path opacity="0.1" d="M45.4439 74.0182L43.1997 79.9672L42.6345 79.8127L41.6338 81.6788L45.4439 82.1614V74.0182Z" fill="black"/>
<path d="M41.9248 77.824H45.4439L46.7356 67.0135H41.9248V77.824Z" fill="#F86D70"/>
<path opacity="0.1" d="M41.9248 77.824H45.4439L46.7356 67.0135H41.9248V77.824Z" fill="black"/>
<path d="M35.0511 69.5733L35.8109 69.4432L37.5566 69.1416C37.5566 69.1416 42.7992 67.939 43.8814 67.841C44.537 67.7529 45.1764 67.5675 45.779 67.2906C46.0626 67.1662 46.2423 67.0719 46.2423 67.0719L44.354 63.5639L41.4241 61.3547C41.4241 61.3547 39.571 60.9532 38.7871 59.8561C38.6122 59.6201 38.4983 59.3431 38.4558 59.0507C38.4134 58.7582 38.4439 58.4596 38.5443 58.1823C39.0224 56.6743 35.6886 59.6243 35.6886 59.6243C35.6886 59.6243 35.7201 60.3312 35.6886 61.2322C35.6886 61.4094 35.672 61.5941 35.659 61.7826C35.659 61.907 35.6423 62.0314 35.6293 62.1596C35.5478 63.055 35.381 63.9767 35.0511 64.5272C34.245 65.8731 35.0511 69.5733 35.0511 69.5733Z" fill="#FBBEBE"/>
<path opacity="0.1" d="M35.689 61.3076H35.7631C35.8965 61.3076 36.004 61.0192 36.1337 61.006C37.177 60.9042 38.1296 60.6818 38.7911 59.9297C38.6167 59.6937 38.503 59.4171 38.4606 59.1251C38.4182 58.833 38.4484 58.5348 38.5484 58.2577C39.0265 56.7497 35.6927 59.6978 35.6927 59.6978C35.6927 59.6978 35.7279 60.4066 35.689 61.3076Z" fill="black"/>
<path d="M31.6304 57.0325C31.6301 57.5752 31.735 58.1126 31.9391 58.614C32.1431 59.1154 32.4423 59.571 32.8196 59.9548C33.1968 60.3385 33.6447 60.6429 34.1377 60.8504C34.6306 61.058 35.159 61.1647 35.6925 61.1644C35.8259 61.1644 35.9575 61.1644 36.0891 61.1456C36.8718 61.0675 37.6154 60.7599 38.2296 60.2603C38.8438 59.7607 39.3022 59.0904 39.5491 58.3309C39.7961 57.5714 39.821 56.7553 39.6208 55.9816C39.4206 55.208 39.0039 54.5101 38.4213 53.9727C37.8388 53.4353 37.1153 53.0815 36.3389 52.9541C35.5625 52.8268 34.7664 52.9315 34.0473 53.2555C33.3282 53.5795 32.7171 54.1089 32.288 54.7794C31.859 55.4498 31.6305 56.2325 31.6304 57.0325Z" fill="#FBBEBE"/>
<path d="M30.3835 50.7612C30.2501 51.1118 30.2908 51.5038 30.2371 51.8752C30.0388 53.2154 28.699 54.0184 27.487 54.5802C26.2751 55.1419 24.9074 55.8073 24.522 57.1023C24.0995 58.5028 25.0223 59.9072 25.6635 61.221C26.9126 63.7808 27.0905 67.0457 25.4782 69.3868C24.0457 71.4603 21.5495 72.4443 19.1998 73.3076C20.3307 74.2126 21.7362 74.6885 23.1748 74.6535C22.6355 76.2501 20.7175 76.7798 19.083 77.0738C19.941 77.9146 21.1697 78.2199 22.3464 78.4047C23.2044 78.5404 24.0847 78.629 24.9408 78.4537C25.797 78.2784 26.6086 77.8052 27.0497 77.0399C27.4203 76.3858 27.5463 75.4942 28.2153 75.1643C28.5173 75.0434 28.8426 74.9951 29.166 75.023L31.9457 75.0531C32.8111 75.0531 33.8359 74.9853 34.2825 74.2332C34.4473 73.9119 34.5337 73.555 34.5345 73.1926C34.655 71.3378 34.3048 69.3774 35.0553 67.6847C35.2814 67.1738 33.8303 66.3652 33.9823 65.8242C34.5049 63.9637 34.6365 62.499 34.6309 60.5632C34.6309 59.0646 35.589 57.7734 36.3803 56.5085C37.1716 55.2437 37.8331 53.6471 37.2086 52.2899C36.5044 50.7762 31.2156 48.5764 30.3835 50.7612Z" fill="#3F3D56"/>
<path d="M34.084 119.782L34.7919 120.259L34.9012 120.333L34.9216 120.346L35.7611 120.911L37.7217 121.247L39.4451 121.126C39.4451 121.126 39.9418 120.071 39.1616 120.095C38.9117 120.082 38.6682 120.01 38.45 119.886L38.3425 119.831C38.2295 119.771 38.1164 119.703 38.0052 119.631C37.7736 119.482 37.5549 119.32 37.3789 119.183C37.1194 118.979 36.9471 118.825 36.9471 118.825L34.084 119.782Z" fill="#FBBEBE"/>
<path opacity="0.1" d="M34.8013 120.259L34.9106 120.333L34.931 120.346L35.7705 120.911L37.7311 121.247L39.4545 121.126C39.4545 121.126 39.9512 120.071 39.171 120.095C38.9211 120.082 38.6776 120.01 38.4594 119.886C38.5965 119.995 38.7114 120.114 38.7225 120.214C38.754 120.483 37.4476 120.968 37.4476 120.968L35.6055 120.472C35.6055 120.472 35.2924 120.382 34.8643 120.269L34.8235 120.257L34.8013 120.259Z" fill="black"/>
<path d="M31.6509 120.719C31.6509 120.719 33.1612 121.055 34.1767 120.959C35.1922 120.862 36.9416 121.752 36.9416 121.752C36.9416 121.752 37.5328 122.035 39.3507 122.155C41.1686 122.276 41.1686 121.337 41.1686 121.337C40.9611 120.061 38.0887 119.641 37.9998 119.622C38.035 119.641 38.1851 119.718 38.337 119.822C38.5409 119.958 38.7614 120.135 38.7781 120.278C38.8096 120.546 37.5031 121.032 37.5031 121.032L35.6611 120.538C35.6611 120.538 35.3479 120.446 34.9198 120.333H34.8791C34.2443 120.157 33.5994 120.022 32.9481 119.927C32.1549 119.841 31.7491 120.527 31.6657 120.681C31.6596 120.694 31.6547 120.706 31.6509 120.719Z" fill="#3F3D56"/>
<path d="M7.84521 86.8211L8.64763 87.4469C8.64763 87.4469 8.88112 87.4356 9.22952 87.4243H9.34071C9.8392 87.4054 10.5267 87.3866 11.1105 87.3866C11.4878 87.3693 11.8659 87.3908 12.239 87.4507C12.6393 87.5939 13.3509 85.1208 13.3509 85.1208L12.5467 84.9323L12.2798 84.8682L12.0945 84.823L11.4403 84.6665L9.45746 84.8965L8.06389 85.8088L7.84521 86.8211Z" fill="#FBBEBE"/>
<path opacity="0.1" d="M7.84521 86.8211L8.64763 87.4469C8.64763 87.4469 8.88112 87.4356 9.22952 87.4243C9.06965 87.3616 8.93783 87.2416 8.85889 87.0869C8.34001 85.6222 10.914 84.9964 10.914 84.9964L12.113 84.9436L12.3465 84.9323H12.5318L12.265 84.8682L12.0797 84.823L11.4255 84.6665L9.44263 84.8965L8.04906 85.8088L7.84521 86.8211Z" fill="black"/>
<path d="M6.26266 87.4828C6.74819 87.939 9.92819 87.4828 10.0616 87.4715C9.82028 87.4991 9.57601 87.4819 9.34074 87.4206C9.22427 87.3994 9.11391 87.352 9.01773 87.2819C8.92155 87.2117 8.84197 87.1207 8.7848 87.0153C8.26592 85.5488 10.8399 84.9248 10.8399 84.9248L12.0389 84.8721L12.2706 84.8608L15.1856 84.7326L15.3264 83.9164C15.3264 83.9164 14.3795 84.0069 12.8932 84.1275C12.0575 84.1972 11.0401 84.2745 9.94117 84.348C6.8705 84.5554 6.14035 86.5818 6.14035 86.5818C6.14035 86.5818 5.76787 87.0153 6.26266 87.4828Z" fill="#3F3D56"/>
<path d="M41.9266 52.1013C41.9463 52.1461 41.9698 52.189 41.997 52.2295L42.7049 53.2851L44.5469 53.4736L44.5673 52.7309L44.8768 41.5566C44.8768 41.5566 46.1517 34.0619 43.7426 34.4935C41.3335 34.9252 42.8457 41.5566 42.8457 41.5566C42.8457 41.5566 42.5714 44.9195 42.3787 45.9298C42.1916 46.9063 41.3521 50.8761 41.9266 52.1013Z" fill="#FBBEBE"/>
<path d="M37.792 79.856L38.3164 80.7684L39.4895 82.8098C39.4895 82.8098 41.6169 83.6034 42.1617 82.9983C42.4601 82.6685 42.7825 81.5167 43.0086 80.5478C43.1939 79.7637 43.3181 79.1021 43.3181 79.1021L37.792 79.856Z" fill="#FBBEBE"/>
<path opacity="0.1" d="M37.792 79.856L38.3164 80.7684C38.3493 80.7396 38.3791 80.7074 38.4054 80.6722C38.9984 79.9032 41.6095 80.5082 43.0086 80.5573C43.1939 79.7731 43.3181 79.1115 43.3181 79.1115L37.792 79.856Z" fill="black"/>
<path opacity="0.1" d="M11.1104 87.3829C11.4877 87.3656 11.8658 87.3871 12.2389 87.447C12.6392 87.5902 13.3508 85.1171 13.3508 85.1171L12.2797 84.8608L15.1947 84.7326L15.3355 83.9164C15.3355 83.9164 14.3886 84.0069 12.9023 84.1275C12.5952 84.3074 12.3212 84.5402 12.0925 84.8155L12.048 84.8721C11.4272 85.6468 11.1974 86.6459 11.1104 87.3829Z" fill="black"/>
<path opacity="0.1" d="M34.084 119.782L34.9012 120.333C36.1206 120.108 37.2343 119.756 37.3659 119.202C37.3665 119.193 37.3665 119.184 37.3659 119.175C37.1065 118.972 36.9341 118.817 36.9341 118.817L34.084 119.782Z" fill="black"/>
<path opacity="0.1" d="M31.6675 120.687C32.7443 120.632 33.8172 120.515 34.8808 120.336C34.2456 120.159 33.6 120.023 32.948 119.927C32.1567 119.841 31.7509 120.527 31.6675 120.687Z" fill="black"/>
<path d="M11.1992 88.3347C11.1992 88.936 12.8281 89.3205 12.8281 89.3205L17.789 93.8125C17.789 93.8125 20.906 95.23 22.8889 97.2715C24.8717 99.3129 26.6211 97.5599 26.6211 97.5599C28.7226 97.0321 34.775 89.5844 34.775 89.5844C34.775 89.5844 34.9158 98.0896 35.1993 98.7135C35.4829 99.3374 35.1048 101.043 34.9399 101.765C34.8358 102.367 34.7961 102.979 34.8213 103.59C34.8213 103.59 32.5549 112.406 32.7439 113.175C32.9329 113.944 31.5153 117.548 31.5153 117.548V120.551C31.5153 120.551 37.0654 120.334 37.3712 119.062C37.677 117.79 35.9795 117.236 35.9795 117.236V116.923C37.0914 116.346 37.3008 112.384 37.3008 112.384C37.3008 112.384 38.9557 107.483 39.191 106.666C39.4264 105.85 39.191 104.623 39.191 104.623L39.3559 103.567C39.3559 103.567 39.7099 102.845 39.7099 102.702C39.7561 102.336 39.8947 101.989 40.112 101.694C40.3715 101.381 39.8285 100.636 39.8285 100.636L40.301 99.3864V98.0179L41.4129 93.0453C41.4129 93.0453 42.5711 87.2546 42.169 85.3564C41.7669 83.4582 42.6416 82.4987 42.6416 82.4987C40.7458 83.5091 39.7896 81.2603 39.4764 80.2933C39.3967 80.0444 39.3578 79.8786 39.3578 79.8786C39.3578 79.8786 36.7541 78.9021 34.3302 79.1359C33.8379 79.1765 33.3528 79.281 32.8866 79.4469C30.194 80.4328 29.7696 84.5157 29.7696 84.5157L27.3846 88.2159C26.156 91.5071 24.3139 91.8427 24.3139 91.8427C24.3139 91.8427 19.9924 88.8889 19.8664 88.7437C19.7404 88.5986 18.0948 87.8785 18.0948 87.8785C17.9002 87.5301 17.6026 87.2531 17.2442 87.0868C16.6771 86.8455 16.6308 85.9558 16.6308 85.9558C16.5604 83.8653 15.3558 83.6938 15.3558 83.6938C11.1751 83.3394 11.1992 87.7352 11.1992 88.3347Z" fill="#3F3D56"/>
<path d="M35.2421 76.5894H37.792V68.5423H35.2421V76.5894Z" fill="#F86D70"/>
<path opacity="0.1" d="M35.2421 76.5894H37.792V68.5423H35.2421V76.5894Z" fill="black"/>
<path opacity="0.1" d="M41.9246 52.0844C41.9242 52.09 41.9242 52.0957 41.9246 52.1013C41.9443 52.1461 41.9679 52.189 41.995 52.2295L42.703 53.2851L44.545 53.4736L44.5654 52.7309C43.9909 52.6857 42.6826 52.5254 41.9246 52.0844Z" fill="black"/>
<path d="M41.9971 52.2295C41.9971 52.2295 42.0916 56.4557 41.052 57.0325C40.0124 57.6093 39.6084 60.614 39.6084 60.614C39.6084 60.614 42.7587 62.7214 43.4611 63.6488C44.1634 64.5763 45.7757 66.7855 45.444 67.3133C45.1122 67.8411 46.2482 70.2444 46.2482 70.2444C46.2482 70.2444 44.169 74.5686 44.6415 76.2029C45.1141 77.8372 45.1604 82.1595 45.1604 82.1595H46.0592C46.0592 82.1595 45.7757 78.6044 45.7757 77.1624C45.7757 75.7204 46.7189 70.58 46.7189 70.58C46.7189 70.58 47.1451 65.5357 46.7189 65.3925C46.2927 65.2492 43.7909 63.2304 43.6019 62.3161C43.4129 61.4019 44.9251 52.8911 44.9251 52.8911C44.9251 52.8911 42.9885 52.8063 41.9971 52.2295Z" fill="#F86D70"/>
<path opacity="0.1" d="M35.1938 67.7959C35.2801 68.3839 35.4906 68.946 35.8109 69.4433L37.5566 69.1417C37.5566 69.1417 42.7992 67.9391 43.8814 67.8411C44.537 67.753 45.1764 67.5676 45.779 67.2907C45.3636 65.7935 44.5529 64.4407 43.4348 63.3793L42.7695 62.7516C41.7892 61.8258 40.653 61.087 39.4153 60.5707C39.4931 60.6367 44.9933 65.4132 43.7887 66.3501C42.5842 67.2869 39.3412 65.0061 39.3412 65.0061L35.6534 61.7827L35.52 61.6659L35.3069 62.0033C35.4153 62.0486 35.5211 62.1003 35.6238 62.1578C36.8806 62.8596 37.8133 64.0387 38.2182 65.4377C38.9761 68.0296 35.1938 67.7959 35.1938 67.7959Z" fill="black"/>
<path d="M34.0601 79.807C34.0601 79.807 37.5551 81.7768 38.4038 80.6722C38.5891 80.4291 38.9802 80.3235 39.4675 80.2952C39.3879 80.0464 39.3489 79.8805 39.3489 79.8805C39.3489 79.8805 36.7453 78.9041 34.3214 79.1378C34.162 79.545 34.0601 79.807 34.0601 79.807Z" fill="#444053"/>
<path d="M35.6686 61.6696L39.4898 65.0136C39.4898 65.0136 42.7198 67.302 43.9373 66.3576C45.1549 65.4132 39.5621 60.5763 39.5621 60.5763C40.7971 61.0942 41.9321 61.8307 42.9144 62.7516L43.5797 63.3793C45.3291 65.0287 45.7238 65.0287 45.7831 67.4528C45.7979 68.0503 45.5978 68.908 45.4439 69.0626C44.8769 69.6281 44.4803 73.7355 44.5674 74.2162C44.6545 74.6968 43.5111 78.8457 43.8817 79.9993C44.2524 81.153 39.2489 79.4225 38.402 80.529C37.5551 81.6355 34.0601 79.6638 34.0601 79.6638C34.0601 79.6638 35.9966 74.6177 36.4692 74.2821C36.9417 73.9466 37.5088 71.351 36.4692 70.1502C35.4295 68.9495 35.3369 67.7958 35.3369 67.7958C35.3369 67.7958 39.1173 68.0334 38.3594 65.4415C38.1461 64.6902 37.7762 63.9946 37.2748 63.4019C36.7733 62.8092 36.1522 62.3334 35.4536 62.007L35.6686 61.6696Z" fill="#E8E8F0"/>
<path opacity="0.1" d="M40.7682 70.1747C40.7682 70.1747 39.3024 72.9852 37.4066 73.7147C37.3454 73.7373 37.2861 73.7581 37.2213 73.7769C35.2421 74.3896 40.9165 71.0456 40.7682 70.1747Z" fill="black"/>
<path d="M20.2687 45.3097C20.2687 45.3097 20.9766 47.1363 21.5437 47.7602C22.1108 48.3842 26.3137 54.631 26.3137 54.631L26.6695 55.385L26.9753 56.0278L29.6679 55.7394L29.8532 54.6348L29.7494 54.5066C29.4789 54.1768 28.7413 53.2908 28.2465 52.9044C27.6331 52.4256 26.4045 50.8403 26.4045 50.8403C26.4045 50.8403 22.5796 46.8026 22.2961 45.698C22.0125 44.5934 18.1858 37.9695 17.3371 39.1156C16.4883 40.2617 20.2687 45.3097 20.2687 45.3097Z" fill="#FBBEBE"/>
<g opacity="0.1">
<path opacity="0.1" d="M28.0819 75.0229C27.7586 74.9944 27.4333 75.0422 27.1312 75.1624C26.4641 75.4923 26.338 76.3838 25.9674 77.0379C25.5338 77.8032 24.7073 78.2764 23.8567 78.4517C23.6876 78.485 23.5169 78.509 23.3452 78.5233C23.887 78.5769 24.4334 78.5528 24.9686 78.4517C25.8192 78.2764 26.6457 77.8032 27.0793 77.0379C27.4499 76.3838 27.5759 75.4923 28.2431 75.1624C28.4182 75.0822 28.6071 75.0374 28.799 75.0304L28.0819 75.0229Z" fill="black"/>
<path opacity="0.1" d="M34.6642 60.5631C34.6642 59.0645 35.6223 57.7733 36.4118 56.5084C37.2012 55.2436 37.8646 53.647 37.2401 52.2898C36.7064 51.1305 33.4893 49.5754 31.6325 49.8827C33.4504 50.122 35.6909 51.3398 36.1282 52.2898C36.7527 53.647 36.0893 55.2436 35.2999 56.5084C34.5104 57.7733 33.5486 59.0645 33.5523 60.5631C33.5523 62.4971 33.4245 63.9561 32.9019 65.8241C32.7518 66.3613 34.1991 67.1737 33.9767 67.6827C33.2243 69.3792 33.5764 71.3358 33.456 73.1907C33.4535 73.553 33.3665 73.9097 33.2021 74.2312C32.8315 74.8513 32.0717 75.0116 31.3323 75.0455H31.979C32.8426 75.0455 33.8674 74.9776 34.314 74.2255C34.4784 73.904 34.5654 73.5474 34.5679 73.185C34.6883 71.3302 34.3362 69.3717 35.0886 67.677C35.3147 67.1681 33.8637 66.3575 34.0138 65.8184C34.5364 63.9636 34.6679 62.4971 34.6642 60.5631Z" fill="black"/>
</g>
<path opacity="0.1" d="M26.6694 55.3812L26.9752 56.024L29.6678 55.7356L29.8531 54.631L29.7494 54.5028C29.4621 54.6461 27.3106 55.6998 26.6694 55.3812Z" fill="black"/>
<path opacity="0.1" d="M36.6116 62.6064C36.6116 62.6064 35.95 61.5508 35.5719 61.8373C35.1939 62.1238 35.0475 60.9721 34.8307 61.1644C34.6139 61.3567 33.9819 61.892 33.7188 61.1437C33.5131 60.548 31.2745 56.7799 30.3665 55.2643C30.133 54.8723 29.9866 54.631 29.9866 54.631C29.9866 54.631 27.4366 55.9279 26.8232 55.4962V56.4085L27.3421 56.4575L30.1218 61.7355C30.1218 61.7355 30.9965 63.1512 30.9372 63.645C30.8779 64.1389 32.0584 66.301 32.2474 66.4443C32.4364 66.5875 34.4712 68.9909 34.4712 68.9909C34.4712 68.9909 35.5108 74.1803 34.612 75.6223C33.7132 77.0644 32.1566 78.12 32.1566 78.12C32.1566 78.12 31.6878 79.513 31.7563 79.6581C31.8249 79.8033 31.2115 80.4272 31.495 80.6195C31.7786 80.8117 32.1566 82.1557 32.1566 82.1557C32.1566 82.1557 33.4797 79.9936 34.1951 79.6581C34.9104 79.3226 35.8258 74.9004 35.8258 74.9004C35.8258 74.9004 36.0871 72.2953 36.1075 70.6139C36.1279 68.9325 36.0445 62.6064 36.6116 62.6064Z" fill="black"/>
<path d="M36.469 62.6064C36.469 62.6064 35.8093 61.5508 35.4312 61.8373C35.0532 62.1239 34.9049 60.9721 34.69 61.1644C34.475 61.3567 33.8431 61.892 33.5781 61.1437C33.3705 60.548 31.1319 56.7799 30.2257 55.2643L29.8458 54.631C29.8458 54.631 27.2959 55.9279 26.6807 55.4962V56.4085L27.2014 56.4575L29.9811 61.7355C29.9811 61.7355 30.8577 63.1512 30.7965 63.645C30.7354 64.1389 31.9084 66.301 32.1067 66.4443C32.305 66.5875 34.3305 68.9909 34.3305 68.9909C34.3305 68.9909 35.3701 74.1803 34.4732 75.6223C33.9993 76.3466 33.423 76.9958 32.7627 77.5488C32.2081 78.0142 31.8177 78.6508 31.6508 79.3622C31.6186 79.4591 31.6073 79.562 31.6175 79.6638C31.686 79.807 31.0726 80.4329 31.3562 80.6251C31.6397 80.8174 32.0214 82.1671 32.0214 82.1671C32.0214 82.1671 33.3446 80.005 34.0599 79.6694C34.7752 79.3339 35.6925 74.9117 35.6925 74.9117C35.6925 74.9117 35.952 72.3066 35.9742 70.6252C35.9964 68.9438 35.913 62.6064 36.469 62.6064Z" fill="#F86D70"/>
<path opacity="0.1" d="M29.9976 84.4688C29.9976 84.4688 31.9824 84.8457 32.7774 85.4282C33.5724 86.0106 29.7549 84.5159 29.7549 84.5159L29.9976 84.4688Z" fill="black"/>
<path opacity="0.1" d="M34.7695 89.5845C34.7695 89.5845 36.8395 91.3394 36.4689 92.9247C36.0982 94.51 35.142 98.4986 35.142 98.4986L34.7695 89.5845Z" fill="black"/>
<path opacity="0.1" d="M16.6663 86.2104C16.6663 86.2104 13.7495 86.5347 13.9385 86.9192C14.1275 87.3038 16.6663 86.5648 16.6663 86.5648V86.2104Z" fill="black"/>
<path opacity="0.1" d="M39.0634 100.804C39.0634 100.804 39.2487 101.044 38.1665 100.804C37.0843 100.565 37.883 99.8258 37.883 99.8258L39.0634 100.804Z" fill="black"/>
<path opacity="0.1" d="M38.6926 104.12C38.6926 104.12 37.2101 104.359 36.4151 104.12C35.6201 103.88 38.6926 104.12 38.6926 104.12Z" fill="black"/>
<path opacity="0.1" d="M35.6427 117.092C35.6427 117.092 35.3832 116.804 34.0842 117.332C32.7851 117.859 32.2663 117.884 31.8882 117.709C31.5102 117.533 35.6427 117.092 35.6427 117.092Z" fill="black"/>
<path opacity="0.1" d="M37.0842 85.8014L35.2422 88.4083C35.2422 88.4083 36.2336 86.1256 37.0842 85.8014Z" fill="black"/>
<path opacity="0.1" d="M33.5038 61.8373C33.5038 61.8373 33.4241 62.7025 32.2362 63.0399C31.0484 63.3773 30.8223 63.6507 30.8223 63.6507" fill="black"/>
<path opacity="0.1" d="M30.4165 55.5659C30.4165 55.5659 28.8487 56.6969 27.2124 56.4575L30.4165 55.5659Z" fill="black"/>
<path opacity="0.1" d="M31.6099 79.7825C31.6099 79.7825 32.0676 80.0747 33.1665 78.7966L31.6099 79.7825Z" fill="black"/>
<path opacity="0.1" d="M43.0237 66.2312C43.0681 65.9975 42.9088 65.7807 42.7587 65.5978L42.451 65.2208C42.3909 65.1437 42.3232 65.0729 42.249 65.0097C42.0637 64.8646 41.8265 64.8212 41.6338 64.6912" fill="black"/>
<path opacity="0.1" d="M164.428 0.0206657C164.428 0.0206657 148.826 -0.936913 150.661 10.1846C150.661 10.1846 150.29 12.1506 152.047 13.0422C152.047 13.0422 152.075 12.2185 153.648 12.4994C154.208 12.5938 154.777 12.6216 155.344 12.5823C156.109 12.5286 156.836 12.2229 157.415 11.7114C157.415 11.7114 161.802 9.86791 163.507 2.57673C163.507 2.57673 164.769 0.985787 164.719 0.576742L162.085 1.72093C162.085 1.72093 162.986 3.65306 162.271 5.25908C162.271 5.25908 162.185 1.79068 161.68 1.86608C161.578 1.88305 160.312 2.53526 160.312 2.53526C160.312 2.53526 161.859 5.89998 160.692 8.34671C160.692 8.34671 161.135 4.19971 159.828 2.77842L157.975 3.87926C157.975 3.87926 159.784 7.3552 158.557 10.1921C158.557 10.1921 158.872 5.84155 157.584 4.14693L155.905 5.47963C155.905 5.47963 157.604 8.90656 156.569 11.259C156.569 11.259 156.433 6.19404 155.542 5.81139C155.542 5.81139 154.072 7.13088 153.848 7.66999C153.848 7.66999 155.012 10.1582 154.289 11.4702C154.289 11.4702 153.846 8.09601 153.483 8.07716C153.483 8.07716 152.019 10.3128 151.867 11.8472C151.867 11.8472 151.93 9.56819 153.129 7.86604C153.129 7.86604 151.713 8.11297 150.887 9.04605C150.887 9.04605 151.115 7.46641 153.49 7.32881C153.49 7.32881 154.701 5.63231 155.023 5.52864C155.023 5.52864 152.662 5.32882 151.23 5.97349C151.23 5.97349 152.49 4.48246 155.457 5.16106L157.115 3.78313C157.115 3.78313 154.006 3.35146 152.686 3.82837C152.686 3.82837 154.204 2.50886 157.562 3.47021L159.367 2.37315C159.367 2.37315 156.715 1.79257 155.136 1.99615C155.136 1.99615 156.804 1.08192 159.897 2.07343L161.194 1.48343C161.194 1.48343 159.252 1.09512 158.683 1.03291C158.114 0.970706 158.084 0.812367 158.084 0.812367C159.315 0.603669 160.578 0.746583 161.733 1.22518C161.733 1.22518 164.476 0.195971 164.428 0.0206657Z" fill="#6C63FF"/>
<path opacity="0.1" d="M145.185 2.85009C145.185 2.85009 138.143 2.41654 138.968 7.44195C138.968 7.44195 138.803 8.33167 139.592 8.73506C139.592 8.73506 139.605 8.35806 140.317 8.48812C140.569 8.53139 140.826 8.54405 141.082 8.52582C141.428 8.50191 141.757 8.36355 142.018 8.13186C142.018 8.13186 144.001 7.30057 144.772 4.00559C144.772 4.00559 145.341 3.28552 145.318 3.10079L144.129 3.61728C144.129 3.61728 144.536 4.49192 144.216 5.21765C144.216 5.21765 144.177 3.64933 143.949 3.68703C143.903 3.68703 143.33 3.98863 143.33 3.98863C143.33 3.98863 144.03 5.50982 143.502 6.61632C143.502 6.61632 143.702 4.74263 143.111 4.09984L142.274 4.59748C142.274 4.59748 143.093 6.16769 142.537 7.44949C142.537 7.44949 142.679 5.48343 142.098 4.71812L141.34 5.32698C141.34 5.32698 142.107 6.87645 141.64 7.9377C141.64 7.9377 141.579 5.64931 141.175 5.47778C141.175 5.47778 140.511 6.07344 140.409 6.31849C140.409 6.31849 140.936 7.44949 140.609 8.03384C140.609 8.03384 140.409 6.50887 140.239 6.50322C140.239 6.50322 139.579 7.51358 139.509 8.19972C139.542 7.55937 139.738 6.93887 140.079 6.39954C139.698 6.4731 139.345 6.65851 139.066 6.933C139.066 6.933 139.17 6.22047 140.243 6.15638C140.243 6.15638 140.798 5.39107 140.936 5.34394C140.936 5.34394 139.868 5.25346 139.221 5.54564C139.221 5.54564 139.79 4.87081 141.132 5.16864L141.873 4.54659C141.873 4.54659 140.469 4.35809 139.872 4.56732C139.872 4.56732 140.558 3.97166 142.075 4.40521L142.891 3.90946C142.891 3.90946 141.694 3.64556 140.978 3.74169C140.978 3.74169 141.732 3.32699 143.13 3.77562L143.713 3.50984C143.713 3.50984 142.835 3.33265 142.578 3.30626C142.32 3.27987 142.307 3.20635 142.307 3.20635C142.863 3.11222 143.434 3.17749 143.956 3.39485C143.956 3.39485 145.207 2.92926 145.185 2.85009Z" fill="#6C63FF"/>
<path d="M169.784 122.668C173.899 122.668 177.235 122.094 177.235 121.387C177.235 120.679 173.899 120.105 169.784 120.105C165.668 120.105 162.332 120.679 162.332 121.387C162.332 122.094 165.668 122.668 169.784 122.668Z" fill="#DC2D27"/>
<path d="M172.865 119.29C173.206 119.008 173.453 118.628 173.575 118.199C173.668 117.767 173.486 117.256 173.078 117.089C172.623 116.911 172.135 117.234 171.766 117.558C171.398 117.882 170.973 118.254 170.491 118.184C170.74 117.954 170.925 117.664 171.031 117.34C171.136 117.016 171.157 116.669 171.092 116.335C171.071 116.196 171.013 116.066 170.925 115.958C170.671 115.682 170.213 115.799 169.91 116.016C168.946 116.706 168.677 118.039 168.672 119.236C168.575 118.804 168.657 118.354 168.655 117.916C168.653 117.479 168.533 116.974 168.164 116.742C167.936 116.617 167.681 116.556 167.423 116.565C166.991 116.548 166.507 116.593 166.213 116.915C165.842 117.315 165.94 117.986 166.259 118.423C166.578 118.861 167.065 119.141 167.513 119.445C167.872 119.662 168.178 119.96 168.408 120.314C168.436 120.363 168.459 120.416 168.475 120.47H171.192C171.799 120.156 172.362 119.759 172.865 119.29Z" fill="#DC2D27"/>
</g>
<defs>
<linearGradient id="paint0_linear" x1="169.862" y1="94.8548" x2="169.862" y2="19.0213" gradientUnits="userSpaceOnUse">
<stop stop-color="#808080" stop-opacity="0.25"/>
<stop offset="0.54" stop-color="#808080" stop-opacity="0.12"/>
<stop offset="1" stop-color="#808080" stop-opacity="0.1"/>
</linearGradient>
<linearGradient id="paint1_linear" x1="7363.15" y1="47235.7" x2="16516.1" y2="47235.7" gradientUnits="userSpaceOnUse">
<stop stop-color="#808080" stop-opacity="0.25"/>
<stop offset="0.54" stop-color="#808080" stop-opacity="0.12"/>
<stop offset="1" stop-color="#808080" stop-opacity="0.1"/>
</linearGradient>
<clipPath id="clip0">
<rect width="212" height="123" fill="white"/>
</clipPath>
</defs>
</svg>
