<svg width="200" height="116" viewBox="0 0 200 116" fill="none" xmlns="http://www.w3.org/2000/svg">
<g clip-path="url(#clip0)">
<path d="M140.566 60.2714L127.813 66.3073L139.1 57.8673C137.265 55.0039 135.205 52.292 132.937 49.7576L77.6275 63.5051L127.588 44.447C125.305 42.4327 122.88 40.5847 120.333 38.9172L36.0541 52.4923C27.1058 63.6821 22.2278 77.5817 22.2209 91.9093H149.083C149.078 80.7975 146.14 69.884 140.566 60.2714V60.2714Z" fill="#F2F2F2"/>
<path d="M113.435 34.9986C100.675 28.7926 86.2041 27.0407 72.3321 30.0226C58.4601 33.0045 45.9872 40.5482 36.9048 51.4493C56.8293 47.0836 91.5196 39.5264 113.435 34.9986Z" fill="#F2F2F2"/>
<path d="M101.936 36.2233C99.7651 42.6514 96.436 48.5084 89.6511 48.5084C82.8662 48.5084 77.7483 42.9974 77.366 36.2233C76.8775 27.5674 82.7097 23.9024 89.6511 23.9382C97.8512 23.9806 104.513 28.5947 101.936 36.2233Z" fill="#2F2E41"/>
<path d="M99.61 34.5889H79.5156V63.8732H99.61V34.5889Z" fill="#2F2E41"/>
<path d="M86.5654 51.4032C86.5654 51.4032 87.2081 60.6156 85.7084 62.1153C84.2088 63.615 98.9914 64.9005 98.7772 63.1865C98.5629 61.4726 95.7778 50.332 96.6348 47.9754C97.4917 45.6187 86.5654 51.4032 86.5654 51.4032Z" fill="#FFB8B8"/>
<path opacity="0.1" d="M86.5654 51.4032C86.5654 51.4032 87.2081 60.6156 85.7084 62.1153C84.2088 63.615 98.9914 64.9005 98.7772 63.1865C98.5629 61.4726 95.7778 50.332 96.6348 47.9754C97.4917 45.6187 86.5654 51.4032 86.5654 51.4032Z" fill="black"/>
<path d="M72.4271 74.9711L64.7292 101.001L64.4207 102.05H51.467C56.6213 86.0951 69.3635 62.5676 69.3635 62.5676L71.3527 62.1167L72.4271 74.9711Z" fill="#F2C85B"/>
<path opacity="0.1" d="M72.4271 74.9711L64.7292 101.001L64.4207 102.05H51.467C56.6213 86.0951 69.3635 62.5676 69.3635 62.5676L71.3527 62.1167L72.4271 74.9711Z" fill="black"/>
<path d="M89.1362 54.617C94.4608 54.617 98.7771 50.3006 98.7771 44.9761C98.7771 39.6516 94.4608 35.3352 89.1362 35.3352C83.8117 35.3352 79.4954 39.6516 79.4954 44.9761C79.4954 50.3006 83.8117 54.617 89.1362 54.617Z" fill="#FFB8B8"/>
<path d="M99.4197 60.4015C99.4197 60.4015 95.9918 63.6151 92.1355 62.9724C88.2791 62.3297 86.6602 57.6401 86.6602 57.6401L82.9231 60.4015C82.9231 60.4015 81.8519 68.1142 86.7794 68.9712C91.707 69.8281 98.777 70.0424 100.277 68.9712C101.776 67.9 99.4197 60.4015 99.4197 60.4015Z" fill="#3F3D56"/>
<path d="M111.204 71.754L110.589 73.7519L101.909 102.05H64.5544C64.6339 101.704 64.6923 101.354 64.7292 101.001C65.2125 96.973 64.9277 86.8112 64.9277 86.1122C64.9277 85.2535 68.5674 64.0453 69.4283 62.5437C69.5616 62.362 69.7371 62.2155 69.9396 62.1165C70.9385 61.5426 73.1478 60.8997 75.5297 60.3322C75.5318 60.3301 75.5318 60.3301 75.534 60.3301C76.8651 60.0065 78.2546 59.7087 79.5146 59.4563H79.5167C80.753 59.2082 81.8619 59.0054 82.6731 58.8716C83.1105 58.7877 83.552 58.7265 83.9957 58.6882C84.1942 58.6882 84.3387 58.9234 84.4358 59.2837C84.7616 60.4574 84.6364 62.9709 84.6364 62.9709C84.9258 63.3033 85.2482 63.6054 85.5987 63.8727C86.4224 64.52 87.3259 65.0588 88.2869 65.4757C89.1109 65.837 89.964 66.1278 90.8371 66.3452H90.8392C91.7569 66.5777 92.6909 66.74 93.6332 66.8306C94.4013 66.9191 95.1777 66.9038 95.9417 66.7853H95.946C98.2179 66.4099 99.0507 64.9989 99.439 63.8727C99.5081 63.6677 99.562 63.4714 99.6095 63.2923C99.6095 63.2902 99.6116 63.2859 99.6116 63.2837C99.754 62.7335 99.8144 62.3474 99.9655 62.3538H99.9676C100.358 62.3905 105.284 66.6127 108.483 69.3851C110.002 70.699 111.131 71.6915 111.2 71.7519L111.204 71.754Z" fill="#F2C85B"/>
<path opacity="0.1" d="M110.589 73.7519L101.909 102.05H98.3904C98.7068 101.586 98.844 101.023 98.7766 100.466C98.6644 99.6764 101.109 91.6311 103.463 84.1446C105.603 77.342 107.668 71.0076 107.668 71.0076L109.702 71.9698C109.702 71.9698 110.067 72.6581 110.589 73.7519Z" fill="black"/>
<path d="M116.775 99.3916C116.352 99.4973 116.397 100.753 116.373 102.05H99.7476C99.9499 101.799 100.101 101.511 100.192 101.203C100.283 100.894 100.312 100.57 100.278 100.25C100.168 99.493 101.808 91.685 103.463 84.1446C104.764 78.1812 106.075 72.384 106.531 70.3668C106.643 69.8792 106.703 69.616 106.703 69.616L106.9 69.7087L106.904 69.7109L111.2 71.7519L111.204 71.754C111.204 71.754 117.845 84.397 115.704 87.3959C113.56 90.3948 113.56 90.3948 114.416 91.8964C115.273 93.3937 117.629 99.178 116.775 99.3916Z" fill="#F2C85B"/>
<path d="M89.6511 26.5247C92.3294 26.5247 94.5005 24.3535 94.5005 21.6753C94.5005 18.9971 92.3294 16.8259 89.6511 16.8259C86.9729 16.8259 84.8018 18.9971 84.8018 21.6753C84.8018 24.3535 86.9729 26.5247 89.6511 26.5247Z" fill="#2F2E41"/>
<path d="M83.8319 19.0889C83.832 17.8867 84.2786 16.7275 85.085 15.836C85.8915 14.9445 87.0003 14.3842 88.1964 14.264C88.0368 14.2481 87.8752 14.2395 87.7114 14.2395C86.4253 14.2395 85.1919 14.7504 84.2824 15.6598C83.373 16.5693 82.8621 17.8027 82.8621 19.0889C82.8621 20.375 83.373 21.6085 84.2824 22.5179C85.1919 23.4273 86.4253 23.9383 87.7114 23.9383C87.8752 23.9383 88.0368 23.9296 88.1964 23.9138C87.0003 23.7935 85.8915 23.2333 85.085 22.3418C84.2786 21.4503 83.832 20.291 83.8319 19.0889V19.0889Z" fill="#2F2E41"/>
<path d="M86.0842 32.8293C86.0842 32.8293 85.983 32.2656 82.0227 33.7507C78.0625 35.2358 75.6886 46.1951 77.6687 52.6305C78.4667 55.2239 77.8176 57.0938 76.7581 58.4021C72.7822 63.3117 74.3473 70.6857 80.1385 73.2104C80.3019 73.2816 80.4688 73.3521 80.6389 73.4217L83.114 74.9068C83.114 74.9068 79.9588 70.7551 81.5378 65.4443C82.909 60.9194 83.0784 56.1153 82.0291 51.505C81.848 50.7272 81.6422 49.9255 81.4085 49.1074C79.4283 42.177 80.3914 42.9774 87.3218 36.0469C87.3218 36.0469 91.282 39.0171 94.7473 40.5022C98.2125 41.9873 101.183 43.4724 98.7075 48.4227C96.2324 53.373 90.292 57.8283 94.2522 64.2636C98.2125 70.699 98.7075 68.2239 98.2125 70.699L97.7174 73.1742L100.688 70.204L98.7075 74.1642C98.7075 74.1642 105.143 74.1642 107.123 69.2139L108.113 70.204C108.113 70.204 112.073 63.2736 104.648 56.8382C104.648 56.8382 102.173 55.3531 105.638 50.4028C109.103 45.4525 106.442 34.8094 101.987 32.8293C97.5313 30.8492 86.0842 32.8293 86.0842 32.8293Z" fill="#2F2E41"/>
<path d="M89.1363 64.0042L80.8879 78.2907H82.8161V80.2188L92.1904 64.0042H89.1363Z" fill="#3F3D56"/>
<path d="M196.764 92.5566H163.323V105.717H196.764V92.5566Z" fill="#F2F2F2"/>
<path d="M192.557 109.385H167.53V111.543H192.557V109.385Z" fill="#F2F2F2"/>
<path d="M192.557 113.269H167.53V114.995H192.557V113.269Z" fill="#F2F2F2"/>
<path d="M3.45211 3.45207C3.92873 3.45207 4.31511 3.06569 4.31511 2.58907C4.31511 2.11245 3.92873 1.72607 3.45211 1.72607C2.97549 1.72607 2.58911 2.11245 2.58911 2.58907C2.58911 3.06569 2.97549 3.45207 3.45211 3.45207Z" fill="#6C63FF"/>
<path d="M5.82516 3.45207C6.30178 3.45207 6.68816 3.06569 6.68816 2.58907C6.68816 2.11245 6.30178 1.72607 5.82516 1.72607C5.34854 1.72607 4.96216 2.11245 4.96216 2.58907C4.96216 3.06569 5.34854 3.45207 5.82516 3.45207Z" fill="#6C63FF"/>
<path d="M8.19845 3.45207C8.67507 3.45207 9.06145 3.06569 9.06145 2.58907C9.06145 2.11245 8.67507 1.72607 8.19845 1.72607C7.72183 1.72607 7.33545 2.11245 7.33545 2.58907C7.33545 3.06569 7.72183 3.45207 8.19845 3.45207Z" fill="#6C63FF"/>
<path d="M200 115.21H0V0H200V115.21ZM0.431499 114.779H199.568V0.431499H0.431499V114.779Z" fill="#2F2E41"/>
<path d="M199.784 4.33374H0.21582V4.76524H199.784V4.33374Z" fill="#2F2E41"/>
<path d="M9.0616 7.98267H2.58911V8.41417H9.0616V7.98267Z" fill="#2F2E41"/>
<path d="M9.0616 9.70874H2.58911V10.1402H9.0616V9.70874Z" fill="#2F2E41"/>
<path d="M9.0616 11.4348H2.58911V11.8663H9.0616V11.4348Z" fill="#2F2E41"/>
<path d="M137.864 11.8662H57.6052V7.98267H137.864V11.8662ZM58.0367 11.4347H137.433V8.41417H58.0367V11.4347Z" fill="#2F2E41"/>
<path d="M134.628 10.4638C134.457 10.4638 134.29 10.4132 134.148 10.3184C134.007 10.2235 133.896 10.0887 133.831 9.93105C133.765 9.77335 133.748 9.59983 133.781 9.43243C133.815 9.26502 133.897 9.11125 134.018 8.99056C134.138 8.86987 134.292 8.78767 134.46 8.75438C134.627 8.72108 134.8 8.73817 134.958 8.80349C135.116 8.8688 135.251 8.97942 135.345 9.12134C135.44 9.26326 135.491 9.43011 135.491 9.60079C135.491 9.8296 135.4 10.049 135.238 10.2108C135.076 10.3725 134.857 10.4635 134.628 10.4638V10.4638ZM134.628 9.16929C134.543 9.16929 134.459 9.1946 134.388 9.24201C134.317 9.28943 134.262 9.35682 134.229 9.43566C134.197 9.51451 134.188 9.60127 134.205 9.68497C134.221 9.76868 134.262 9.84556 134.323 9.90591C134.383 9.96626 134.46 10.0073 134.544 10.024C134.627 10.0406 134.714 10.0321 134.793 9.99945C134.872 9.96679 134.939 9.91148 134.987 9.84052C135.034 9.76956 135.059 9.68613 135.059 9.60079C135.059 9.48639 135.014 9.37671 134.933 9.29582C134.852 9.21493 134.742 9.16942 134.628 9.16929Z" fill="#2F2E41"/>
<path d="M135.222 9.91588L134.922 10.2256L135.772 11.0503L136.072 10.7406L135.222 9.91588Z" fill="#2F2E41"/>
<path d="M186.192 11.8662H181.877V7.98267H186.192V11.8662ZM182.308 11.4347H185.76V8.41417H182.308V11.4347Z" fill="#2F2E41"/>
<path d="M191.586 11.8662H187.271V7.98267H191.586V11.8662ZM187.702 11.4347H191.154V8.41417H187.702V11.4347Z" fill="#2F2E41"/>
<path d="M196.98 11.8662H192.665V7.98267H196.98V11.8662ZM193.096 11.4347H196.548V8.41417H193.096V11.4347Z" fill="#2F2E41"/>
<path d="M147.357 104.639H143.474V108.091H147.357V104.639Z" fill="#FF6584"/>
<path d="M152.751 104.639H148.867V108.091H152.751V104.639Z" fill="#F2F2F2"/>
<path d="M158.145 104.639H154.261V108.091H158.145V104.639Z" fill="#F2F2F2"/>
<path d="M157.929 102.265H10.7876V18.5544H157.929V102.265ZM11.2191 101.834H157.497V18.9859H11.2191V101.834Z" fill="#2F2E41"/>
<path d="M33.1421 94.5796V96.6067L29.7749 94.5516C29.757 94.5411 29.7366 94.5355 29.7158 94.5354C29.695 94.5352 29.6746 94.5406 29.6565 94.5509C29.6385 94.5612 29.6235 94.576 29.613 94.594C29.6025 94.612 29.597 94.6324 29.5969 94.6531V99.0956C29.597 99.1164 29.6025 99.1368 29.613 99.1548C29.6235 99.1727 29.6385 99.1876 29.6565 99.1979C29.6746 99.2082 29.695 99.2136 29.7158 99.2134C29.7366 99.2133 29.757 99.2077 29.7749 99.1971L33.1421 97.1421V99.1692C33.1421 99.1848 33.1483 99.1997 33.1594 99.2107C33.1704 99.2218 33.1853 99.228 33.2009 99.228H34.2453C34.2609 99.228 34.2759 99.2218 34.2869 99.2107C34.2979 99.1997 34.3041 99.1848 34.3042 99.1692V94.5796C34.3041 94.564 34.2979 94.5491 34.2869 94.538C34.2759 94.527 34.2609 94.5208 34.2453 94.5208H33.2009C33.1853 94.5208 33.1704 94.527 33.1594 94.538C33.1483 94.5491 33.1421 94.564 33.1421 94.5796V94.5796Z" fill="#3F3D56"/>
<path d="M24.1626 99.228H23.2241C23.2086 99.2281 23.1932 99.2252 23.1787 99.2193C23.1643 99.2134 23.1512 99.2048 23.1402 99.1939C23.1291 99.1829 23.1203 99.1699 23.1143 99.1556C23.1082 99.1413 23.1051 99.1259 23.105 99.1103V94.6384C23.1051 94.6229 23.1082 94.6075 23.1143 94.5932C23.1203 94.5788 23.1291 94.5658 23.1402 94.5549C23.1512 94.544 23.1643 94.5353 23.1787 94.5295C23.1932 94.5236 23.2086 94.5206 23.2241 94.5208H24.1626C24.1782 94.5206 24.1936 94.5236 24.208 94.5295C24.2224 94.5353 24.2355 94.544 24.2466 94.5549C24.2577 94.5658 24.2665 94.5788 24.2725 94.5932C24.2786 94.6075 24.2817 94.6229 24.2818 94.6384V99.1103C24.2817 99.1259 24.2786 99.1413 24.2725 99.1556C24.2665 99.1699 24.2577 99.1829 24.2466 99.1939C24.2355 99.2048 24.2224 99.2134 24.208 99.2193C24.1936 99.2252 24.1782 99.2281 24.1626 99.228V99.228ZM26.7516 99.228H25.8131C25.7976 99.2281 25.7822 99.2252 25.7677 99.2193C25.7533 99.2134 25.7402 99.2048 25.7292 99.1939C25.7181 99.1829 25.7093 99.1699 25.7033 99.1556C25.6972 99.1413 25.6941 99.1259 25.694 99.1103V94.6384C25.6941 94.6229 25.6972 94.6075 25.7033 94.5932C25.7093 94.5788 25.7181 94.5658 25.7292 94.5549C25.7402 94.544 25.7533 94.5353 25.7677 94.5295C25.7822 94.5236 25.7976 94.5206 25.8131 94.5208H26.7516C26.7672 94.5206 26.7826 94.5236 26.797 94.5295C26.8114 94.5353 26.8245 94.544 26.8356 94.5549C26.8467 94.5658 26.8555 94.5788 26.8615 94.5932C26.8676 94.6075 26.8707 94.6229 26.8708 94.6384V99.1103C26.8707 99.1259 26.8676 99.1413 26.8615 99.1556C26.8555 99.1699 26.8467 99.1829 26.8356 99.1939C26.8245 99.2048 26.8114 99.2134 26.797 99.2193C26.7826 99.2252 26.7672 99.2281 26.7516 99.228V99.228Z" fill="#3F3D56"/>
<path d="M17.0441 94.6428V99.1059C17.043 99.1265 17.0475 99.1471 17.0571 99.1655C17.0667 99.1838 17.081 99.1992 17.0987 99.2101C17.1163 99.2209 17.1365 99.2268 17.1572 99.2271C17.1779 99.2274 17.1983 99.2221 17.2163 99.2118L20.7541 96.9803C20.7714 96.9687 20.7856 96.9531 20.7954 96.9347C20.8052 96.9164 20.8103 96.8959 20.8103 96.8751C20.8103 96.8543 20.8052 96.8338 20.7954 96.8154C20.7856 96.7971 20.7714 96.7814 20.7541 96.7699L17.2163 94.5384C17.1985 94.5277 17.1782 94.5222 17.1574 94.5222C17.1367 94.5223 17.1164 94.528 17.0987 94.5387C17.081 94.5495 17.0666 94.5648 17.057 94.5832C17.0474 94.6015 17.0429 94.6221 17.0441 94.6428V94.6428Z" fill="#6C63FF"/>
<path d="M150.917 91.4778H17.7993V92.3408H150.917V91.4778Z" fill="#2F2E41"/>
<path d="M40.9924 91.4778H17.7993V92.3408H40.9924V91.4778Z" fill="#6C63FF"/>
<path d="M72.0603 105.07H11.0032V107.443H72.0603V105.07Z" fill="#F2F2F2"/>
<path d="M24.3797 110.464H11.0032V112.837H24.3797V110.464Z" fill="#F2F2F2"/>
<path d="M196.764 23.0852H163.323V36.2459H196.764V23.0852Z" fill="#F2F2F2"/>
<path d="M192.557 39.9138H167.53V42.0713H192.557V39.9138Z" fill="#F2F2F2"/>
<path d="M192.557 43.7971H167.53V45.9546H192.557V43.7971Z" fill="#F2F2F2"/>
<path d="M192.557 47.6807H167.53V49.8382H192.557V47.6807Z" fill="#F2F2F2"/>
<path d="M196.764 57.821H163.323V70.9818H196.764V57.821Z" fill="#F2F2F2"/>
<path d="M192.557 74.6494H167.53V76.8069H192.557V74.6494Z" fill="#F2F2F2"/>
<path d="M192.557 78.533H167.53V80.6905H192.557V78.533Z" fill="#F2F2F2"/>
<path d="M192.557 82.4165H167.53V84.574H192.557V82.4165Z" fill="#F2F2F2"/>
<path d="M142.797 91.8724L142.351 91.5362C140.768 90.3186 139.724 89.5298 139.628 88.4417C139.607 88.235 139.627 88.026 139.687 87.8271C139.748 87.6283 139.847 87.4436 139.98 87.2839C140.114 87.1243 140.277 86.993 140.462 86.8978C140.647 86.8026 140.849 86.7455 141.056 86.7297C141.301 86.7097 141.546 86.743 141.777 86.8275C142.007 86.912 142.216 87.0456 142.39 87.219C142.53 87.0181 142.713 86.8502 142.925 86.727C143.137 86.6038 143.374 86.5283 143.618 86.5056C143.825 86.4851 144.033 86.5063 144.232 86.568C144.43 86.6297 144.615 86.7305 144.773 86.8646C144.932 86.9987 145.063 87.1633 145.157 87.3486C145.251 87.534 145.307 87.7363 145.321 87.9437C145.416 89.0318 144.525 89.9899 143.177 91.464L142.797 91.8724Z" fill="#FF6584"/>
<path d="M148.067 86.326L147.823 85.8242C146.965 84.0204 146.393 82.8434 146.802 81.8308C146.877 81.6367 146.989 81.4596 147.133 81.3099C147.278 81.1601 147.45 81.0408 147.641 80.9591C147.833 80.8773 148.038 80.8347 148.246 80.8338C148.454 80.8328 148.66 80.8736 148.851 80.9537C149.078 81.0468 149.282 81.1882 149.449 81.3681C149.616 81.5479 149.742 81.7619 149.817 81.9952C150.034 81.88 150.273 81.8134 150.518 81.8C150.763 81.7865 151.008 81.8265 151.236 81.9172C151.429 81.9929 151.606 82.1066 151.755 82.2517C151.903 82.3967 152.022 82.5702 152.102 82.7618C152.183 82.9534 152.224 83.1592 152.224 83.367C152.224 83.5749 152.182 83.7805 152.1 83.9718C151.691 84.9845 150.462 85.4335 148.591 86.1347L148.067 86.326Z" fill="#FF6584"/>
<path d="M145.909 100.781L145.665 100.28C144.807 98.4757 144.235 97.2988 144.644 96.2861C144.719 96.092 144.832 95.9149 144.976 95.7652C145.12 95.6155 145.293 95.4962 145.484 95.4144C145.675 95.3326 145.88 95.29 146.088 95.2891C146.296 95.2882 146.502 95.329 146.694 95.409C146.921 95.5022 147.125 95.6435 147.291 95.8234C147.458 96.0032 147.584 96.2172 147.66 96.4505C147.876 96.3354 148.115 96.2688 148.36 96.2553C148.605 96.2418 148.85 96.2818 149.078 96.3725C149.272 96.4482 149.448 96.5619 149.597 96.707C149.746 96.8521 149.864 97.0255 149.945 97.2171C150.025 97.4087 150.067 97.6145 150.066 97.8223C150.066 98.0302 150.024 98.2359 149.943 98.4272C149.533 99.4399 148.304 99.8889 146.434 100.59L145.909 100.781Z" fill="#FF6584"/>
</g>
<defs>
<clipPath id="clip0">
<rect width="200" height="115.21" fill="white"/>
</clipPath>
</defs>
</svg>
