<svg width="200" height="113" viewBox="0 0 200 113" fill="none" xmlns="http://www.w3.org/2000/svg">
<g clip-path="url(#clip0)">
<path d="M186.453 105.739C186.399 107.762 186.06 109.766 185.446 111.694C185.433 111.739 185.418 111.783 185.403 111.827H181.648C181.652 111.787 181.656 111.743 181.66 111.694C181.91 108.815 180.48 91.505 178.754 88.509C178.905 88.7521 186.744 96.5931 186.453 105.739Z" fill="#F1F1F1"/>
<path d="M186.171 111.694C186.14 111.739 186.107 111.783 186.074 111.827H183.256C183.278 111.789 183.302 111.744 183.331 111.694C183.797 110.854 185.174 108.343 186.453 105.739C187.826 102.942 189.087 100.038 188.981 98.9868C189.014 99.2237 189.965 106.45 186.171 111.694Z" fill="#F1F1F1"/>
<path d="M10.3924 107.306C10.4326 108.808 10.6842 110.296 11.1398 111.728C11.1499 111.761 11.1611 111.794 11.172 111.827H13.961C13.958 111.798 13.955 111.764 13.9521 111.728C13.7661 109.59 14.8285 96.7341 16.1104 94.509C15.9981 94.6895 10.1761 100.513 10.3924 107.306Z" fill="#F1F1F1"/>
<path d="M10.6018 111.728C10.6251 111.761 10.6494 111.795 10.6742 111.827H12.7666C12.7507 111.799 12.7323 111.766 12.711 111.728C12.3654 111.104 11.3423 109.239 10.3927 107.306C9.37259 105.228 8.43589 103.071 8.51478 102.291C8.49033 102.467 7.78412 107.833 10.6018 111.728Z" fill="#F1F1F1"/>
<path d="M146.647 78.7555C125.583 69.8286 106.526 70.1679 88.5755 75.6165C60.9179 70.7863 41.9792 71.5336 29.8311 78.7555V56.334H146.647V78.7555Z" fill="#CBCBCB"/>
<path d="M146.647 72.5897C127.241 63.7965 107.858 63.2288 88.1831 72.5897C68.0311 66.7874 48.5499 66.8481 29.719 72.5897V4.42825C49.7401 -1.5473 69.2154 -1.4037 88.1831 4.42825C108.219 -1.38356 127.725 -1.56788 146.647 4.42825V72.5897Z" fill="#E5E5E5"/>
<path d="M34.978 12.8871L34.3252 11.2163C34.581 11.1163 40.6946 8.75286 49.6668 7.54727C57.9619 6.43243 70.3206 6.16629 82.0912 11.2277L81.3826 12.8756C70.0056 7.98355 58.0124 8.24115 49.9545 9.31844C41.1839 10.4913 35.039 12.8632 34.978 12.8871Z" fill="white"/>
<path d="M34.978 19.1651L34.3252 17.4943C34.581 17.3943 40.6946 15.0309 49.6668 13.8253C57.9619 12.7105 70.3206 12.4444 82.0912 17.5057L81.3826 19.1536C70.0056 14.2615 58.0124 14.5189 49.9545 15.5964C41.1839 16.7693 35.039 19.1412 34.978 19.1651Z" fill="white"/>
<path d="M34.978 25.443L34.3252 23.7722C34.581 23.6722 40.6946 21.3088 49.6668 20.1032C57.9619 18.9883 70.3206 18.7222 82.0912 23.7836L81.3826 25.4315C70.0056 20.5395 58.0124 20.7968 49.9545 21.8743C41.1839 23.0472 35.039 25.4191 34.978 25.443Z" fill="white"/>
<path d="M34.978 31.7212L34.3252 30.0504C34.581 29.9505 40.6946 27.587 49.6668 26.3814C57.9619 25.2668 70.3206 25.0003 82.0912 30.0618L81.3826 31.7097C70.0056 26.8177 58.0124 27.0752 49.9545 28.1526C41.1839 29.3255 35.039 31.6973 34.978 31.7212Z" fill="white"/>
<path d="M34.978 37.9991L34.3252 36.3283C34.581 36.2284 40.6946 33.8649 49.6668 32.6593C57.9619 31.5445 70.3206 31.2783 82.0912 36.3397L81.3826 37.9876C70.0056 33.0955 58.0124 33.3531 49.9545 34.4305C41.1839 35.6034 35.039 37.9752 34.978 37.9991Z" fill="white"/>
<path d="M34.978 44.2771L34.3252 42.6063C34.581 42.5064 40.6946 40.1429 49.6668 38.9373C57.9619 37.8227 70.3206 37.5563 82.0912 42.6177L81.3826 44.2656C70.0056 39.3735 58.0124 39.6312 49.9545 40.7085C41.1839 41.8813 35.039 44.2532 34.978 44.2771Z" fill="white"/>
<path d="M93.4982 57.5058L92.8455 55.8351C93.1013 55.7351 99.2149 53.3717 108.187 52.1661C116.482 51.0515 128.841 50.7851 140.611 55.8464L139.903 57.4943C128.526 52.6022 116.533 52.86 108.475 53.9372C99.7042 55.1101 93.5593 57.482 93.4982 57.5058Z" fill="#DC2D27"/>
<path d="M92.9478 45.457V11.1678L93.5772 10.9712C109.529 5.98843 125.403 5.98942 140.758 10.9742L141.378 11.1754V45.4113L140.165 44.9533C124.185 38.9222 108.716 38.9186 94.1882 44.9427L92.9478 45.457ZM116.617 38.6296C124.125 38.6296 131.78 40.0291 139.585 42.8281V12.4819C124.985 7.87773 109.904 7.88025 94.7415 12.4893V42.7865C101.708 40.0417 109.129 38.6316 116.617 38.6296V38.6296Z" fill="white"/>
<path d="M139.622 56.6173L139.857 50.9108L147.916 34.8862C148.144 34.4307 148.514 34.0623 148.971 33.8377C149.251 33.6981 149.556 33.6157 149.868 33.5953C150.18 33.575 150.493 33.617 150.788 33.719C151.131 33.837 151.441 34.0326 151.695 34.2903C151.95 34.5481 152.141 34.8611 152.255 35.205C152.303 35.3535 152.337 35.5063 152.357 35.6614C152.414 36.1215 152.333 36.5883 152.123 37.0019L144.052 53.0481L139.622 56.6173Z" fill="#DC2D27"/>
<path d="M149.975 33.7031L141.226 51.0977L140.559 50.7623L149.021 33.9385C149.317 33.7901 149.643 33.7096 149.975 33.7031Z" fill="#3F3D56"/>
<path d="M152.245 35.6758L143.83 52.4074L143.163 52.0719L151.894 34.7134C152.001 34.8772 152.087 35.0544 152.148 35.2404C152.195 35.3821 152.227 35.5279 152.245 35.6758V35.6758Z" fill="#3F3D56"/>
<path d="M151.408 34.1827L142.562 51.7696L141.895 51.4341L150.752 33.8252C150.846 33.8575 150.938 33.8962 151.027 33.9412C151.162 34.009 151.289 34.0899 151.408 34.1827V34.1827Z" fill="#3F3D56"/>
<path d="M140.633 55.6585L139.743 56.3753L139.818 54.4854C140.124 54.5914 140.454 55.0514 140.633 55.6585Z" fill="#3F3D56"/>
<path d="M52.8419 76.2566L51.7764 73.0244L52.9116 62.3963C52.9428 62.0946 53.0722 61.8114 53.2799 61.5903C53.4067 61.4538 53.5595 61.3439 53.7292 61.2672C53.899 61.1904 54.0824 61.1482 54.2686 61.1431C54.4843 61.1372 54.6985 61.1811 54.8944 61.2716C55.0903 61.362 55.2627 61.4965 55.3981 61.6645C55.4563 61.7371 55.5074 61.8152 55.5507 61.8976C55.6791 62.1423 55.7316 62.4197 55.7014 62.6943L54.5647 73.3368L52.8419 76.2566Z" fill="#DC2D27"/>
<path d="M53.8114 61.3047L52.5791 72.8414L52.1367 72.7942L53.3285 61.6361C53.4628 61.4911 53.6278 61.3779 53.8114 61.3047V61.3047Z" fill="#3F3D56"/>
<path d="M55.4914 61.9286L54.3062 73.0256L53.8638 72.9784L55.0935 61.4656C55.1877 61.5344 55.2726 61.6153 55.3459 61.7062C55.4014 61.7755 55.4502 61.85 55.4914 61.9286V61.9286Z" fill="#3F3D56"/>
<path d="M54.711 61.2719L53.4651 72.9362L53.0227 72.8889L54.2701 61.2101C54.3296 61.2083 54.389 61.2106 54.4481 61.217C54.5373 61.2266 54.6254 61.245 54.711 61.2719V61.2719Z" fill="#3F3D56"/>
<path d="M53.2052 75.5095L52.8591 76.096L52.5044 75.0262C52.6971 75.0213 52.9781 75.2085 53.2052 75.5095Z" fill="#3F3D56"/>
<path d="M168.26 72.466C168.139 72.6783 167.977 72.8646 167.783 73.0143C167.59 73.164 167.369 73.2741 167.133 73.3384C166.656 73.4682 166.148 73.4034 165.719 73.1583C165.29 72.9131 164.976 72.5077 164.847 72.0312C164.717 71.5547 164.782 71.0461 165.027 70.6174C165.031 70.6101 165.035 70.6029 165.039 70.5957C165.091 70.5084 165.15 70.4252 165.215 70.3468L163.648 59.1819L163.601 58.8474L163.283 56.5691L163.236 56.2407L163.41 56.2489L166.445 56.3876L167.259 56.4243L167.361 58.5027L167.938 70.1877C168.239 70.4762 168.435 70.8578 168.493 71.271C168.552 71.6843 168.47 72.1052 168.26 72.466H168.26Z" fill="#FFB8B8"/>
<path d="M163.61 58.9486L167.464 58.5951C167.664 58.5762 167.849 58.479 167.977 58.3248C168.106 58.1705 168.168 57.9717 168.151 57.7717L167.437 49.7576C167.368 48.9857 166.995 48.2728 166.4 47.7758C165.806 47.2787 165.038 47.0381 164.266 47.107C163.495 47.176 162.782 47.5487 162.285 48.1432C161.787 48.7377 161.547 49.5054 161.616 50.2773C161.621 50.3325 161.627 50.3875 161.635 50.4423L162.791 58.3031C162.818 58.4831 162.908 58.6477 163.046 58.7668C163.183 58.8859 163.359 58.9516 163.541 58.9519C163.564 58.9523 163.587 58.9512 163.61 58.9486V58.9486Z" fill="#CBCBCB"/>
<path d="M166.532 52.4743C166.922 51.3702 166.94 50.1689 166.583 49.0536C166.227 47.9383 165.515 46.9701 164.558 46.2966C163.104 45.3023 161.116 44.9454 158.974 47.4949C156.382 50.6074 154.534 54.2694 153.569 58.203L162.34 59.6307C162.34 59.6307 165.322 55.9849 166.532 52.4743Z" fill="#CBCBCB"/>
<path d="M152.347 109.912H149.846L148.656 100.267H152.347L152.347 109.912Z" fill="#FFB8B8"/>
<path d="M145.024 112.233H152.883V109.197H148.061C147.255 109.197 146.483 109.517 145.914 110.086C145.344 110.656 145.024 111.428 145.024 112.233V112.233Z" fill="#2F2E41"/>
<path d="M172.905 107.731L170.531 108.515L166.374 99.7311L169.878 98.5728L172.905 107.731Z" fill="#FFB8B8"/>
<path d="M166.68 112.233L174.142 109.767L173.189 106.884L168.611 108.397C167.846 108.65 167.213 109.196 166.851 109.916C166.489 110.635 166.428 111.469 166.68 112.233V112.233Z" fill="#2F2E41"/>
<path d="M161.026 43.7676C163.793 43.7676 166.035 41.5248 166.035 38.7581C166.035 35.9914 163.793 33.7485 161.026 33.7485C158.259 33.7485 156.016 35.9914 156.016 38.7581C156.016 41.5248 158.259 43.7676 161.026 43.7676Z" fill="#FFB8B8"/>
<path d="M156.64 107.227L158.962 91.9001C158.987 91.7365 159.067 91.5866 159.191 91.476C159.314 91.3655 159.471 91.3011 159.636 91.2938C159.802 91.2866 159.964 91.337 160.097 91.4364C160.229 91.5359 160.322 91.6781 160.361 91.8389L163.898 106.445C163.953 106.669 164.091 106.864 164.283 106.991C164.475 107.119 164.708 107.171 164.936 107.136L174.69 105.568C174.819 105.547 174.943 105.499 175.052 105.426C175.161 105.354 175.254 105.259 175.323 105.148C175.392 105.037 175.437 104.912 175.454 104.782C175.472 104.652 175.461 104.52 175.423 104.395L162.704 62.4602C162.667 62.341 162.663 62.2145 162.691 62.0931L163.115 60.2574C163.161 60.0584 163.14 59.8496 163.054 59.6642C162.968 59.4789 162.822 59.3277 162.64 59.2347C160.908 58.351 156.521 56.5137 153.211 58.5262C153.103 58.5917 153.01 58.6785 152.937 58.7811C152.864 58.8837 152.813 59.0001 152.786 59.1232L142.85 105.825C142.823 105.952 142.823 106.083 142.851 106.21C142.878 106.337 142.932 106.456 143.009 106.561C143.087 106.665 143.185 106.752 143.298 106.816C143.411 106.879 143.537 106.918 143.666 106.93L155.65 108.003C155.677 108.006 155.705 108.007 155.732 108.007C155.951 108.006 156.163 107.928 156.33 107.785C156.496 107.641 156.606 107.444 156.639 107.227L156.64 107.227Z" fill="#2F2E41"/>
<path d="M164.348 35.2187C163.97 34.9916 163.635 34.7003 163.358 34.358C163.221 34.185 163.13 33.9797 163.096 33.7618C163.061 33.5439 163.083 33.3207 163.16 33.1138C163.413 32.5553 164.165 32.3795 164.748 32.569C165.331 32.7585 165.781 33.216 166.207 33.6568C166.582 34.0443 166.968 34.4506 167.145 34.9603C167.322 35.47 167.232 36.1163 166.789 36.4258C166.354 36.7293 165.73 36.605 165.312 36.2791C164.918 35.9227 164.603 35.4869 164.389 35.0003L164.348 35.2187Z" fill="#2F2E41"/>
<path d="M166.045 33.7914C166.072 32.3799 167.681 31.3677 169.071 31.6179C170.46 31.8682 171.528 33.0528 172.063 34.3594C173.193 37.12 172.345 40.2701 171.256 43.0482C170.168 45.8264 168.821 48.6448 168.98 51.6235C169.087 53.2334 169.628 54.7845 170.544 56.1128C171.46 57.4411 172.717 58.4974 174.184 59.1701C172.616 59.8809 170.742 59.1467 169.424 58.0385C166.497 55.5777 165.368 51.1964 166.739 47.6274C167.416 45.867 168.608 44.3609 169.539 42.7209C170.47 41.0808 171.153 39.1478 170.672 37.3242C170.192 35.5006 168.146 34.0243 166.398 34.7298L166.045 33.7914Z" fill="#2F2E41"/>
<path d="M160.726 40.981C161.162 40.2431 161.603 39.2743 160.805 38.6291C160.631 38.4953 160.433 38.3974 160.221 38.3414C160.009 38.2853 159.788 38.2722 159.571 38.3028C158.671 38.4113 157.691 38.456 156.82 38.129C156.493 38.0166 156.192 37.8397 155.935 37.6087C155.678 37.3778 155.47 37.0976 155.324 36.7847C154.875 35.7192 155.437 34.4244 156.377 33.751C156.952 33.3539 157.632 33.1355 158.331 33.1231C159.029 33.1107 159.716 33.305 160.305 33.6814C161.523 33.1436 163 33.3828 164.106 34.1232C165.213 34.8636 165.969 36.0492 166.381 37.3152C166.759 38.4049 166.825 39.5791 166.569 40.7041C166.363 41.4867 165.972 42.2081 165.428 42.8074C164.884 43.4067 164.204 43.8661 163.445 44.1467C163.149 44.2634 162.828 44.3002 162.514 44.2537C162.2 44.2072 161.903 44.0789 161.654 43.8816C161.249 43.5184 160.938 43.0625 160.747 42.553C160.581 41.9947 160.492 41.3753 160.726 40.981Z" fill="#2F2E41"/>
<path d="M145.864 45.451C145.89 45.561 145.906 45.6729 145.913 45.7855L154.675 50.8401L156.805 49.6141L159.075 52.5863L155.516 55.1231C155.228 55.3282 154.882 55.4344 154.529 55.4258C154.176 55.4171 153.835 55.2942 153.558 55.0754L144.522 47.9477C144.114 48.0988 143.67 48.1221 143.249 48.0146C142.827 47.907 142.448 47.6737 142.163 47.3456C141.877 47.0176 141.698 46.6103 141.65 46.1781C141.601 45.7459 141.686 45.3091 141.891 44.926C142.097 44.5428 142.415 44.2314 142.802 44.0332C143.189 43.835 143.628 43.7593 144.059 43.8163C144.49 43.8733 144.894 44.0603 145.216 44.3523C145.538 44.6443 145.764 45.0275 145.863 45.451L145.864 45.451Z" fill="#FFB8B8"/>
<path d="M154.968 51.0796L157.8 54.7497C157.88 54.854 157.982 54.9397 158.099 55.001C158.216 55.0623 158.344 55.0978 158.476 55.105C158.607 55.1122 158.739 55.091 158.862 55.0428C158.984 54.9947 159.095 54.9206 159.187 54.8258L162.392 51.4969C162.662 51.2974 162.89 51.0466 163.062 50.759C163.235 50.4714 163.349 50.1526 163.398 49.8208C163.447 49.489 163.43 49.1507 163.349 48.8254C163.267 48.5001 163.122 48.1942 162.921 47.9251C162.721 47.656 162.47 47.4291 162.182 47.2573C161.893 47.0856 161.574 46.9724 161.242 46.9242C160.91 46.876 160.572 46.8937 160.247 46.9765C159.922 47.0592 159.617 47.2053 159.348 47.4063C159.32 47.4269 159.293 47.4481 159.266 47.4698L155.246 49.7179C155.131 49.7823 155.031 49.8708 154.953 49.9773C154.875 50.0838 154.821 50.2058 154.795 50.335C154.768 50.4642 154.77 50.5976 154.8 50.7261C154.83 50.8546 154.887 50.9751 154.967 51.0796H154.968Z" fill="#CBCBCB"/>
<path d="M46.7605 109.599L49.4786 109.598L50.7719 99.1138L46.76 99.114L46.7605 109.599Z" fill="#A0616A"/>
<path d="M46.0671 108.711L51.4203 108.711H51.4205C52.3253 108.711 53.193 109.07 53.8327 109.71C54.4725 110.35 54.8319 111.217 54.832 112.122V112.233L46.0673 112.233L46.0671 108.711Z" fill="#2F2E41"/>
<path d="M25.5955 108.422L28.2831 108.828L31.1291 98.6545L27.6055 98.0549L25.5955 108.422Z" fill="#A0616A"/>
<path d="M25.0425 107.441L30.3356 108.241L30.3358 108.241C31.2304 108.376 32.0346 108.861 32.5715 109.589C33.1084 110.318 33.3341 111.229 33.199 112.124L33.1824 112.233L24.5161 110.923L25.0425 107.441Z" fill="#2F2E41"/>
<path d="M33.9765 57.6389L36.9946 58.4297L36.7938 63.3229L36.7689 72.2319C37.0662 72.4376 37.2941 72.7286 37.4225 73.0666C37.5508 73.4046 37.5735 73.7736 37.4875 74.1248C37.4015 74.476 37.211 74.7928 36.9411 75.0333C36.6712 75.2738 36.3346 75.4267 35.9759 75.4718C35.6172 75.5169 35.2532 75.452 34.9322 75.2857C34.6111 75.1195 34.3482 74.8596 34.178 74.5407C34.0078 74.2217 33.9385 73.8585 33.9792 73.4993C34.0199 73.1401 34.1687 72.8016 34.406 72.5288L33.4785 63.5872L33.9765 57.6389Z" fill="#A0616A"/>
<path d="M33.4512 52.0344C33.4679 51.5615 33.6204 51.1035 33.8904 50.7149C34.1605 50.3264 34.5368 50.0238 34.9742 49.8435C35.3837 49.6602 35.8378 49.6006 36.2808 49.6718C36.7237 49.743 37.1362 49.9421 37.4675 50.2445C37.7057 50.4573 37.8946 50.7195 38.0211 51.0128C38.1475 51.3062 38.2084 51.6236 38.1996 51.9429C38.2076 54.8094 37.5604 58.9876 37.5539 59.0294L37.5435 59.0959L33.1321 60.5814L33.4512 52.0344Z" fill="#CBCBCB"/>
<path d="M41.3391 60.1714L48.0866 58.4248L51.2056 68.9293L51.3164 108.063L46.1566 108.03L43.9997 76.3569L30.2532 105.624L24.7102 104.959L36.7939 73.5854C36.7939 73.5854 36.1287 68.0424 38.235 65.2709L37.7916 62.3886L41.3391 60.1714Z" fill="#2F2E41"/>
<path d="M36.7894 62.7847C36.6951 62.6701 36.6266 62.5364 36.5885 62.3929C36.5505 62.2494 36.5437 62.0994 36.5688 61.9531L33.4911 52.7197C33.3474 52.2881 33.3322 51.824 33.4472 51.3839C33.5622 50.9437 33.8025 50.5464 34.139 50.2403L35.4751 49.0258L36.3805 45.4041L41.5846 46.6761L41.1558 48.3912L43.511 47.9631L48.4718 59.0118L38.1025 63.1565L37.5919 63.1645C37.4383 63.1648 37.2866 63.1308 37.1478 63.0651C37.009 62.9994 36.8866 62.9036 36.7894 62.7847V62.7847Z" fill="#CBCBCB"/>
<path d="M44.0125 54.9889L46.9859 54.0439L49.4318 58.2867L54.1729 65.8295C54.5341 65.8444 54.8823 65.9685 55.1715 66.1856C55.4606 66.4027 55.677 66.7024 55.7921 67.0451C55.9071 67.3879 55.9154 67.7575 55.8159 68.105C55.7163 68.4526 55.5136 68.7618 55.2345 68.9916C54.9554 69.2214 54.6132 69.3611 54.253 69.3922C53.8928 69.4233 53.5316 69.3443 53.2173 69.1657C52.903 68.987 52.6503 68.7172 52.4927 68.3918C52.3351 68.0664 52.2799 67.7009 52.3346 67.3435L46.7712 60.2822L44.0125 54.9889Z" fill="#A0616A"/>
<path d="M40.5725 50.5327C40.3338 50.1241 40.2178 49.6555 40.2384 49.1828C40.259 48.7101 40.4153 48.2533 40.6886 47.8671C40.9368 47.4934 41.2887 47.2004 41.7011 47.0239C42.1135 46.8473 42.5684 46.795 43.0101 46.8732C43.3252 46.9258 43.625 47.0464 43.8886 47.2267C44.1523 47.4071 44.3734 47.6427 44.5367 47.9173C46.0756 50.3356 47.7621 54.2129 47.7789 54.2517L47.8056 54.3134L44.8714 57.9269L40.5725 50.5327Z" fill="#CBCBCB"/>
<path d="M40.2307 44.7303C42.5143 44.7303 44.3656 42.8791 44.3656 40.5955C44.3656 38.3119 42.5143 36.4607 40.2307 36.4607C37.9472 36.4607 36.0959 38.3119 36.0959 40.5955C36.0959 42.8791 37.9472 44.7303 40.2307 44.7303Z" fill="#A0616A"/>
<path d="M32.9235 38.8515C35.1232 38.8515 36.9064 37.0683 36.9064 34.8686C36.9064 32.6689 35.1232 30.8857 32.9235 30.8857C30.7239 30.8857 28.9407 32.6689 28.9407 34.8686C28.9407 37.0683 30.7239 38.8515 32.9235 38.8515Z" fill="#2F2E41"/>
<path d="M29.4883 38.1666C30.0038 38.5392 30.601 38.7829 31.2301 38.8773C31.8591 38.9718 32.5015 38.9142 33.1037 38.7095C33.7059 38.5047 34.2503 38.1587 34.6914 37.7004C35.1325 37.2421 35.4574 36.6848 35.6389 36.0752C35.5702 36.6215 35.389 37.1477 35.1067 37.6204C34.8244 38.0931 34.4472 38.5022 33.9988 38.8218C33.5504 39.1414 33.0407 39.3645 32.5017 39.4771C31.9628 39.5898 31.4063 39.5895 30.8675 39.4762C30.3287 39.3629 29.8192 39.1391 29.3712 38.819C28.9232 38.4989 28.5465 38.0894 28.2648 37.6163C27.983 37.1433 27.8024 36.6169 27.7344 36.0705C27.6663 35.5242 27.7123 34.9696 27.8694 34.4419C27.7802 35.1509 27.8834 35.8708 28.1683 36.5262C28.4531 37.1815 28.9091 37.7481 29.4883 38.1666Z" fill="#2F2E41"/>
<path d="M45.2064 38.1708C44.5111 36.926 44.245 36.406 43.3485 35.6491C42.5557 34.9796 41.5805 34.783 40.794 35.4174C39.8635 35.0153 38.8282 34.9242 37.8418 35.1574C36.8554 35.3907 35.9705 35.9359 35.3187 36.7121C34.6668 37.4883 34.2827 38.454 34.2234 39.4659C34.1641 40.4778 34.4328 41.4818 34.9896 42.3288C35.5463 43.1758 36.3615 43.8206 37.3139 44.1674C38.2663 44.5143 39.3052 44.5446 40.2763 44.254C41.2473 43.9634 42.0987 43.3673 42.704 42.5543C43.3093 41.7413 43.6362 40.7547 43.6361 39.7411C43.6354 39.5631 43.6247 39.3852 43.604 39.2084C44.2877 39.1124 44.5227 38.2668 45.2064 38.1708Z" fill="#2F2E41"/>
<path d="M85.6502 112.276H0.224215C0.16475 112.276 0.107719 112.252 0.065671 112.21C0.0236224 112.168 0 112.111 0 112.052C0 111.992 0.0236224 111.935 0.065671 111.893C0.107719 111.851 0.16475 111.827 0.224215 111.827H85.6502C85.7097 111.827 85.7667 111.851 85.8088 111.893C85.8508 111.935 85.8744 111.992 85.8744 112.052C85.8744 112.111 85.8508 112.168 85.8088 112.21C85.7667 112.252 85.7097 112.276 85.6502 112.276Z" fill="#CBCBCB"/>
<path d="M199.776 112.276H114.35C114.29 112.276 114.233 112.252 114.191 112.21C114.149 112.168 114.125 112.111 114.125 112.052C114.125 111.992 114.149 111.935 114.191 111.893C114.233 111.851 114.29 111.827 114.35 111.827H199.776C199.835 111.827 199.892 111.851 199.934 111.893C199.976 111.935 200 111.992 200 112.052C200 112.111 199.976 112.168 199.934 112.21C199.892 112.252 199.835 112.276 199.776 112.276Z" fill="#CBCBCB"/>
<path d="M88.4074 4.42822H87.959V72.374H88.4074V4.42822Z" fill="#CBCBCB"/>
</g>
<defs>
<clipPath id="clip0">
<rect width="200" height="112.276" fill="white"/>
</clipPath>
</defs>
</svg>
