<svg width="166" height="40" viewBox="0 0 166 40" fill="none" xmlns="http://www.w3.org/2000/svg">
<path d="M13.1953 17.8486V19.501L2.90625 24.0596L13.1953 28.5947V30.2588L1.19531 24.9033V23.1924L13.1953 17.8486Z" fill="white"/>
<path d="M36.3225 15.5977L26.0569 11.0391V9.38672L38.0569 14.7305V16.4414L26.0569 21.7969V20.1328L36.3225 15.5977Z" fill="white"/>
<line x1="16.3334" y1="35.159" x2="23.6411" y2="3.62058" stroke="#AE1B1B" stroke-width="2"/>
<path d="M60.232 11.424C62.504 11.424 64.24 12.048 65.44 13.296C66.64 14.528 67.24 16.312 67.24 18.648C67.24 21.4 66.552 23.512 65.176 24.984C63.8 26.456 61.832 27.192 59.272 27.192C57.8 27.192 55.944 27.128 53.704 27H53.68L53.896 22.416L53.68 11.52H53.704L60.232 11.424ZM59.992 24.24C62.12 24.24 63.184 22.688 63.184 19.584C63.184 17.76 62.928 16.456 62.416 15.672C61.904 14.888 61.072 14.496 59.92 14.496C59.072 14.496 58.296 14.528 57.592 14.592L57.448 22.032L57.496 24.048C58.44 24.176 59.272 24.24 59.992 24.24ZM77.9763 22.008L71.6883 22.056C71.8003 22.888 72.0883 23.504 72.5523 23.904C73.0163 24.304 73.6723 24.504 74.5203 24.504C75.3683 24.504 76.4883 24.256 77.8803 23.76L78.1683 23.952L77.5923 26.664C76.3123 27.064 75.1523 27.264 74.1123 27.264C72.2723 27.264 70.8243 26.744 69.7683 25.704C68.7283 24.664 68.2083 23.232 68.2083 21.408C68.2083 19.584 68.7123 18.152 69.7203 17.112C70.7283 16.056 72.0963 15.528 73.8242 15.528C75.3123 15.528 76.4643 15.928 77.2803 16.728C78.1123 17.528 78.5283 18.64 78.5283 20.064C78.5283 20.528 78.4803 21.016 78.3843 21.528L77.9763 22.008ZM75.2403 19.656C75.2403 18.552 74.7603 18 73.8003 18C73.2563 18 72.8083 18.184 72.4563 18.552C72.1043 18.904 71.8643 19.416 71.7363 20.088L75.1923 19.992L75.2403 19.656ZM83.1018 17.712L84.4458 23.472H84.6378L86.2698 17.928L86.6778 15.768H89.9898L86.4138 27H82.2858L79.2618 15.84L82.7898 15.696L83.1018 17.712Z" fill="#AE1B1B"/>
<path d="M101.728 11.808L101.536 14.232L98.6322 14.088H97.6722L97.5522 22.104L97.6962 27H94.4322L94.6002 22.392L94.4802 14.088H93.5202L90.5682 14.232L90.3522 13.968L90.5682 11.544H101.536L101.728 11.808ZM110.58 20.04C110.596 19.464 110.476 19.024 110.22 18.72C109.964 18.416 109.588 18.264 109.092 18.264C108.372 18.264 107.604 18.608 106.788 19.296L106.74 22.08L106.908 27H103.716L103.884 22.368L103.74 10.392L106.932 10.152L106.812 17.424H106.956C107.836 16.624 108.804 16.048 109.86 15.696C111.076 15.696 111.996 15.976 112.62 16.536C113.26 17.08 113.572 17.872 113.556 18.912L113.484 22.104L113.604 27H110.412L110.58 20.04ZM116.633 22.392L116.513 16.056L119.657 15.792L119.513 22.08L119.657 27H116.465L116.633 22.392ZM118.145 10.368C118.641 10.368 119.025 10.512 119.297 10.8C119.585 11.088 119.729 11.488 119.729 12C119.729 12.544 119.577 12.976 119.273 13.296C118.969 13.616 118.553 13.776 118.025 13.776C117.497 13.776 117.089 13.632 116.801 13.344C116.529 13.056 116.393 12.648 116.393 12.12C116.393 11.592 116.545 11.168 116.849 10.848C117.169 10.528 117.601 10.368 118.145 10.368ZM129.539 20.04C129.555 19.48 129.427 19.048 129.155 18.744C128.899 18.424 128.523 18.264 128.027 18.264C127.307 18.264 126.539 18.608 125.723 19.296V22.08L125.867 27H122.675L122.843 22.392L122.723 16.056L125.747 15.792V17.424H125.915C126.795 16.624 127.755 16.048 128.795 15.696C130.011 15.696 130.939 15.976 131.579 16.536C132.219 17.08 132.523 17.872 132.491 18.912L132.419 22.104L132.563 27H129.347L129.539 20.04ZM138.498 22.08L138.666 27H135.474L135.642 22.368L135.498 10.392L138.69 10.152L138.498 22.08ZM141.738 20.88C142.602 22.272 143.898 24.136 145.626 26.472L145.602 26.808C145.042 26.936 144.442 27.032 143.802 27.096C143.178 27.176 142.794 27.224 142.65 27.24L142.314 27.096C140.906 25.112 139.69 23.136 138.666 21.168V20.952L141.45 16.992L142.026 15.84H145.386L141.738 20.88ZM155.526 21.816L149.046 21.864C149.19 23.864 150.206 24.864 152.094 24.864C153.086 24.864 154.19 24.584 155.406 24.024L155.67 24.192L155.19 26.568C153.974 27.016 152.83 27.24 151.758 27.24C149.998 27.24 148.614 26.728 147.606 25.704C146.614 24.68 146.118 23.264 146.118 21.456C146.118 19.664 146.606 18.248 147.582 17.208C148.558 16.152 149.878 15.624 151.542 15.624C152.966 15.624 154.062 16.016 154.83 16.8C155.614 17.568 156.006 18.648 156.006 20.04C156.006 20.408 155.966 20.872 155.886 21.432L155.526 21.816ZM153.222 19.68C153.222 19.04 153.078 18.56 152.79 18.24C152.502 17.904 152.078 17.736 151.518 17.736C150.894 17.736 150.374 17.944 149.958 18.36C149.542 18.76 149.262 19.344 149.118 20.112L153.174 20.016L153.222 19.68ZM164.374 15.816C164.518 15.816 164.718 15.832 164.974 15.864V18.816L164.638 18.936C164.366 18.824 164.07 18.768 163.75 18.768C162.822 18.768 161.982 19.368 161.23 20.568V22.08L161.398 27H158.206L158.398 22.392L158.254 16.056L161.278 15.792L161.254 17.976H161.446C162.23 16.536 163.206 15.816 164.374 15.816Z" fill="white"/>
</svg>
