<svg width="312" height="75" viewBox="0 0 312 75" fill="none" xmlns="http://www.w3.org/2000/svg">
<path d="M137.8 19.4V53H131.416L114.664 32.6V53H106.984V19.4H113.416L130.12 39.8V19.4H137.8ZM152.71 25.736H141.958V19.4H171.238V25.736H160.486V53H152.71V25.736ZM189.787 53.576C184.987 53.576 181.243 52.248 178.555 49.592C175.899 46.936 174.571 43.144 174.571 38.216V19.4H182.347V37.928C182.347 43.944 184.843 46.952 189.835 46.952C192.267 46.952 194.123 46.232 195.403 44.792C196.683 43.32 197.323 41.032 197.323 37.928V19.4H205.003V38.216C205.003 43.144 203.659 46.936 200.971 49.592C198.315 52.248 194.587 53.576 189.787 53.576Z" fill="#181F5E"/>
<path d="M233.855 53L225.743 41.336L217.775 53H208.847L221.279 35.912L209.471 19.4H218.303L226.031 30.296L233.615 19.4H242.015L230.303 35.624L242.831 53H233.855Z" fill="#C63044"/>
<path d="M22.065 62.6828C14.0764 57.6977 6.88561 51.5359 0.735308 44.4055C0.31161 43.9043 0.057264 43.282 0.00857704 42.6275C-0.04011 41.973 0.119372 41.3199 0.464248 40.7615L11.8659 22.4491C12.2978 21.7572 12.7056 21.1848 13.5 21.0001C14.2944 20.8153 15 21.0001 15.5 21.5001C16 22.0001 24.5 42.5 31 46C37.5 49.5 62 50.5001 62 50.5001C62.6919 50.932 63.3152 51.7056 63.5 52.5C63.6848 53.2944 63.4824 53.6256 63.0522 54.3185L51.6572 72.6203C51.3076 73.1823 50.7864 73.6169 50.1708 73.86C49.5551 74.103 48.8777 74.1415 48.2385 73.9698C39.0079 71.5107 30.189 67.7078 22.065 62.6828Z" fill="#C63044"/>
<path d="M34.8727 41.2423C34.5591 41.0474 34.2832 40.7976 34.058 40.5051L6.76358 4.94981C6.3777 4.44705 6.15649 3.83741 6.13021 3.20418C6.10393 2.57096 6.27386 1.94503 6.61675 1.41203C6.95965 0.879026 7.45881 0.464955 8.04595 0.226361C8.6331 -0.0122338 9.27961 -0.0637007 9.8971 0.0790391L50.5532 9.48102C51.2089 9.63478 51.7969 9.99739 52.2286 10.5143L81.8727 46.2746C82.2821 46.7686 82.5269 47.3782 82.5727 48.0182C82.6185 48.6582 82.463 49.2965 82.1281 49.8437C81.7932 50.391 81.2956 50.8198 80.7048 51.0702C80.1141 51.3207 79.4599 51.3801 78.8337 51.2403L35.8273 41.6336C35.4893 41.5579 35.1666 41.4256 34.8727 41.2423Z" fill="#C63044"/>
<path d="M3.04473 20.1337L2 19.4827L11.4309 4.33594L43.2922 24.1736L42.6412 25.2171L11.8247 6.0304L3.04473 20.1337Z" fill="#181F5E"/>
</svg>
