<svg width="429" height="104" viewBox="0 0 429 104" fill="none" xmlns="http://www.w3.org/2000/svg">
<path d="M35.1875 46.0312V50.4375L7.75 62.5938L35.1875 74.6875V79.125L3.1875 64.8438V60.2812L35.1875 46.0312Z" fill="black"/>
<path d="M95.2188 40.5938L67.8438 28.4375V24.0312L99.8438 38.2812V42.8438L67.8438 57.125V52.6875L95.2188 40.5938Z" fill="black"/>
<line x1="43.0516" y1="91.5485" x2="62.0516" y2="9.54855" stroke="#AE1B1B" stroke-width="4"/>
<path d="M149.568 30.528C155.541 30.528 160.128 32.192 163.328 35.52C166.528 38.848 168.128 43.6267 168.128 49.856C168.128 57.152 166.336 62.7413 162.752 66.624C159.168 70.5067 154.048 72.448 147.392 72.448C145.387 72.448 142.976 72.4053 140.16 72.32C137.387 72.2347 134.997 72.128 132.992 72L133.44 59.712L132.992 30.784L149.568 30.528ZM148.928 65.728C155.712 65.728 159.104 61.0987 159.104 51.84C159.104 46.8053 158.272 43.1573 156.608 40.896C154.987 38.592 152.427 37.44 148.928 37.44C146.667 37.44 144.256 37.5467 141.696 37.76L141.312 58.944L141.504 65.28C144.491 65.5787 146.965 65.728 148.928 65.728ZM196.632 58.176L179.352 58.304C179.736 63.6373 182.445 66.304 187.48 66.304C190.125 66.304 193.069 65.5573 196.312 64.064L197.016 64.512L195.736 70.848C192.493 72.0427 189.442 72.64 186.583 72.64C181.89 72.64 178.2 71.2747 175.512 68.544C172.866 65.8133 171.544 62.0373 171.544 57.216C171.544 52.4373 172.845 48.6613 175.448 45.888C178.05 43.072 181.57 41.664 186.008 41.664C189.805 41.664 192.728 42.7093 194.776 44.8C196.866 46.848 197.912 49.728 197.912 53.44C197.912 54.4213 197.805 55.6587 197.592 57.152L196.632 58.176ZM190.488 52.48C190.488 50.7733 190.104 49.4933 189.336 48.64C188.568 47.744 187.437 47.296 185.944 47.296C184.28 47.296 182.893 47.8507 181.784 48.96C180.674 50.0267 179.928 51.584 179.544 53.632L190.36 53.376L190.488 52.48ZM209.347 46.976L213.827 64H214.275L219.651 47.424L220.739 42.24H228.163L218.179 72H209.027L200.579 42.432L208.515 42.048L209.347 46.976Z" fill="#AE1B1B"/>
<path d="M259.671 31.488L259.159 37.952L251.415 37.568H248.855L248.535 58.944L248.919 72H240.215L240.663 59.712L240.343 37.568H237.783L229.911 37.952L229.335 37.248L229.911 30.784H259.159L259.671 31.488ZM283.277 53.44C283.319 51.904 282.999 50.7307 282.317 49.92C281.634 49.1093 280.631 48.704 279.309 48.704C277.389 48.704 275.341 49.6213 273.165 51.456L273.037 58.88L273.485 72H264.973L265.421 59.648L265.036 27.712L273.549 27.072L273.229 46.464H273.613C275.959 44.3307 278.541 42.7947 281.357 41.856C284.599 41.856 287.053 42.6027 288.717 44.096C290.423 45.5467 291.255 47.6587 291.213 50.432L291.021 58.944L291.341 72H282.829L283.277 53.44ZM299.418 59.712L299.098 42.816L307.482 42.112L307.098 58.88L307.482 72H298.97L299.418 59.712ZM303.45 27.648C304.772 27.648 305.796 28.032 306.522 28.8C307.29 29.568 307.674 30.6347 307.674 32C307.674 33.4507 307.268 34.6027 306.458 35.456C305.647 36.3093 304.538 36.736 303.13 36.736C301.722 36.736 300.634 36.352 299.866 35.584C299.14 34.816 298.778 33.728 298.778 32.32C298.778 30.912 299.183 29.7813 299.994 28.928C300.847 28.0747 301.999 27.648 303.45 27.648ZM333.833 53.44C333.876 51.9467 333.534 50.7947 332.809 49.984C332.126 49.1307 331.124 48.704 329.801 48.704C327.881 48.704 325.833 49.6213 323.657 51.456V58.88L324.041 72H315.529L315.977 59.712L315.657 42.816L323.721 42.112V46.464H324.169C326.516 44.3307 329.076 42.7947 331.849 41.856C335.092 41.856 337.566 42.6027 339.273 44.096C340.98 45.5467 341.79 47.6587 341.705 50.432L341.513 58.944L341.897 72H333.321L333.833 53.44ZM357.724 58.88L358.172 72H349.66L350.108 59.648L349.724 27.712L358.236 27.072L357.724 58.88ZM366.364 55.68C368.668 59.392 372.124 64.3627 376.732 70.592L376.668 71.488C375.175 71.8293 373.575 72.0853 371.868 72.256C370.204 72.4693 369.18 72.5973 368.796 72.64L367.9 72.256C364.145 66.9653 360.903 61.696 358.172 56.448V55.872L365.596 45.312L367.132 42.24H376.092L366.364 55.68ZM403.132 58.176L385.852 58.304C386.236 63.6373 388.945 66.304 393.98 66.304C396.625 66.304 399.569 65.5573 402.812 64.064L403.516 64.512L402.236 70.848C398.993 72.0427 395.942 72.64 393.083 72.64C388.39 72.64 384.7 71.2747 382.012 68.544C379.366 65.8133 378.044 62.0373 378.044 57.216C378.044 52.4373 379.345 48.6613 381.948 45.888C384.55 43.072 388.07 41.664 392.508 41.664C396.305 41.664 399.228 42.7093 401.276 44.8C403.366 46.848 404.412 49.728 404.412 53.44C404.412 54.4213 404.305 55.6587 404.092 57.152L403.132 58.176ZM396.988 52.48C396.988 50.7733 396.604 49.4933 395.836 48.64C395.068 47.744 393.937 47.296 392.444 47.296C390.78 47.296 389.393 47.8507 388.284 48.96C387.174 50.0267 386.428 51.584 386.044 53.632L396.86 53.376L396.988 52.48ZM426.727 42.176C427.111 42.176 427.644 42.2187 428.327 42.304V50.176L427.431 50.496C426.706 50.1973 425.916 50.048 425.063 50.048C422.588 50.048 420.348 51.648 418.343 54.848V58.88L418.791 72H410.279L410.791 59.712L410.407 42.816L418.471 42.112L418.407 47.936H418.919C421.01 44.096 423.612 42.176 426.727 42.176Z" fill="black"/>
</svg>
