<svg width="92" height="28" viewBox="0 0 92 28" fill="none" xmlns="http://www.w3.org/2000/svg">
<path d="M52.05 6.4V19H49.656L43.374 11.35V19H40.494V6.4H42.906L49.17 14.05V6.4H52.05ZM57.6411 8.776H53.6091V6.4H64.5891V8.776H60.5571V19H57.6411V8.776ZM71.5451 19.216C69.7451 19.216 68.3411 18.718 67.3331 17.722C66.3371 16.726 65.8391 15.304 65.8391 13.456V6.4H68.7551V13.348C68.7551 15.604 69.6911 16.732 71.5631 16.732C72.4751 16.732 73.1711 16.462 73.6511 15.922C74.1311 15.37 74.3711 14.512 74.3711 13.348V6.4H77.2511V13.456C77.2511 15.304 76.7471 16.726 75.7391 17.722C74.7431 18.718 73.3451 19.216 71.5451 19.216Z" fill="#181F5E"/>
<path d="M88.0707 19L85.0287 14.626L82.0407 19H78.6927L83.3547 12.592L78.9267 6.4H82.2387L85.1367 10.486L87.9807 6.4H91.1307L86.7387 12.484L91.4367 19H88.0707Z" fill="#C63044"/>
<path d="M8.34041 23.6937C5.3208 21.8093 2.60272 19.4802 0.277942 16.785C0.117786 16.5956 0.0216454 16.3603 0.00324206 16.1129C-0.0151613 15.8655 0.0451219 15.6186 0.175483 15.4076L4.48522 8.4856C4.64848 8.22407 4.80263 8.00773 5.10291 7.93789C5.40319 7.86806 5.6699 7.93791 5.8589 8.1269C6.0479 8.31589 9.26084 16.0647 11.7178 17.3877C14.1748 18.7107 23.4356 19.0887 23.4356 19.0887C23.6971 19.252 23.9328 19.5444 24.0026 19.8447C24.0724 20.1449 23.996 20.2701 23.8333 20.5321L19.5261 27.45C19.3939 27.6624 19.197 27.8267 18.9642 27.9186C18.7315 28.0105 18.4755 28.025 18.2338 27.9601C14.7447 27.0306 11.4113 25.5931 8.34041 23.6937Z" fill="#C63044"/>
<path d="M13.1816 15.5893C13.0631 15.5156 12.9588 15.4212 12.8737 15.3107L2.55657 1.871C2.41071 1.68096 2.3271 1.45052 2.31716 1.21116C2.30723 0.971805 2.37146 0.73521 2.50107 0.533738C2.63068 0.332266 2.81936 0.17575 3.0413 0.0855628C3.26324 -0.0046243 3.50762 -0.0240785 3.74102 0.0298763L19.1088 3.58377C19.3566 3.64189 19.5789 3.77895 19.7421 3.97432L30.9473 17.4915C31.1021 17.6782 31.1946 17.9087 31.2119 18.1506C31.2292 18.3925 31.1705 18.6337 31.0439 18.8406C30.9173 19.0475 30.7292 19.2096 30.5059 19.3042C30.2826 19.3989 30.0353 19.4214 29.7986 19.3685L13.5425 15.7372C13.4147 15.7086 13.2927 15.6586 13.1816 15.5893Z" fill="#C63044"/>
<path d="M1.15085 7.61042L0.755951 7.36436L4.32077 1.63898L16.3641 9.13747L16.1181 9.53191L4.46962 2.27947L1.15085 7.61042Z" fill="#181F5E"/>
</svg>
