<svg width="228" height="164" viewBox="0 0 228 164" fill="none" xmlns="http://www.w3.org/2000/svg">
<g clip-path="url(#clip0_14_236)">
<path d="M227.671 162.742H0.32948C0.242096 162.742 0.158292 162.708 0.0965021 162.646C0.0347127 162.585 0 162.501 0 162.414C0 162.327 0.0347127 162.244 0.0965021 162.182C0.158292 162.121 0.242096 162.086 0.32948 162.086H227.671C227.758 162.086 227.842 162.121 227.903 162.182C227.965 162.244 228 162.327 228 162.414C228 162.501 227.965 162.585 227.903 162.646C227.842 162.708 227.758 162.742 227.671 162.742Z" fill="#CCCCCC"/>
<path d="M205.169 105.524H71.3997C70.8317 105.524 70.287 105.749 69.8854 106.149C69.4838 106.549 69.2581 107.091 69.2581 107.657C69.2581 108.223 69.4838 108.765 69.8854 109.165C70.287 109.565 70.8317 109.789 71.3997 109.789H75.1888V160.806C75.1888 161.372 75.4144 161.914 75.816 162.314C76.2177 162.714 76.7624 162.939 77.3304 162.939C77.8984 162.939 78.4431 162.714 78.8447 162.314C79.2464 161.914 79.472 161.372 79.472 160.806L79.5045 109.789H196.767V160.806C196.767 161.372 196.992 161.914 197.394 162.314C197.796 162.714 198.34 162.939 198.908 162.939C199.476 162.939 200.021 162.714 200.423 162.314C200.824 161.914 201.05 161.372 201.05 160.806V110.914L201.673 109.789H205.169C205.737 109.789 206.281 109.565 206.683 109.165C207.085 108.765 207.31 108.223 207.31 107.657C207.31 107.091 207.085 106.549 206.683 106.149C206.281 105.749 205.737 105.524 205.169 105.524Z" fill="#CCCCCC"/>
<path d="M145.562 106.641H105.042C104.258 106.64 103.505 106.329 102.951 105.776C102.396 105.224 102.084 104.475 102.083 103.694V81.4797C102.084 80.6985 102.396 79.9495 102.951 79.397C103.505 78.8446 104.258 78.5338 105.042 78.533H145.562C146.347 78.5338 147.099 78.8446 147.654 79.397C148.209 79.9495 148.521 80.6985 148.522 81.4797V103.694C148.521 104.475 148.209 105.224 147.654 105.776C147.099 106.329 146.347 106.64 145.562 106.641Z" fill="#3F3D56"/>
<path d="M145.562 80.8008H105.042C104.862 80.8012 104.688 80.8728 104.561 81.0001C104.433 81.1274 104.361 81.2999 104.36 81.4799V103.694C104.361 103.874 104.433 104.047 104.561 104.174C104.688 104.301 104.862 104.373 105.042 104.373H145.562C145.743 104.373 145.916 104.301 146.044 104.174C146.172 104.047 146.244 103.874 146.244 103.694V81.4799C146.244 81.2999 146.172 81.1274 146.044 81.0001C145.916 80.8728 145.743 80.8012 145.562 80.8008Z" fill="white"/>
<path d="M128.758 96.5283C128.758 96.5283 123.907 95.4153 121.239 97.4558C118.572 99.4963 124.635 104.134 124.635 104.134L128.758 96.5283Z" fill="#2F2E41"/>
<path d="M125.54 94.4254C128.067 94.4254 130.115 92.3856 130.115 89.8693C130.115 87.3531 128.067 85.3132 125.54 85.3132C123.013 85.3132 120.964 87.3531 120.964 89.8693C120.964 92.3856 123.013 94.4254 125.54 94.4254Z" fill="#A0616A"/>
<path d="M122.002 83.4738C122.307 82.9581 122.749 82.5364 123.28 82.2553C123.81 81.9742 124.409 81.8445 125.009 81.8807C125.636 81.9591 126.249 82.1298 126.826 82.3872L129.817 83.549C130.591 83.8497 131.439 84.2179 131.775 84.9746C132.086 85.6769 131.854 86.4879 131.618 87.2191L130.499 90.6945C130.375 89.9079 130.163 89.1378 129.865 88.3987C129.563 87.6547 129.016 87.0344 128.315 86.6389C127.538 86.242 126.622 86.2502 125.75 86.292C124.515 86.3512 123.172 86.5077 122.294 87.3753C121.828 87.868 121.512 88.4823 121.383 89.1467C121.256 89.8076 121.192 90.4789 121.192 91.1518C120.686 90.2848 120.259 89.3739 119.917 88.4303C119.636 87.7276 119.476 86.9829 119.444 86.2273C119.414 85.4652 119.668 84.7191 120.157 84.1318C120.405 83.8448 120.729 83.6325 121.091 83.5189C121.454 83.4052 121.841 83.3947 122.21 83.4885L122.002 83.4738Z" fill="#2F2E41"/>
<path d="M136.465 100.479C136.422 100.325 136.334 100.187 136.213 100.083C136.092 99.9784 135.942 99.9119 135.783 99.8918C135.772 99.8845 135.761 99.8779 135.75 99.8721L128.919 96.0604C128.724 95.9515 128.495 95.9218 128.278 95.9773C128.062 96.0328 127.875 96.1692 127.757 96.3583L125.889 99.3701L123.075 96.5683L123.03 96.5238C122.886 96.38 122.695 96.2914 122.492 96.2737C122.288 96.256 122.085 96.3102 121.918 96.4269L116.304 100.341C116.294 100.341 116.284 100.345 116.274 100.345C116.006 100.389 115.76 100.524 115.579 100.726C115.397 100.928 115.291 101.186 115.276 101.457L115.131 104.373H137.549L136.465 100.479Z" fill="#6C63FF"/>
<path d="M148.977 103.92H144.652C144.652 103.8 144.604 103.685 144.518 103.6C144.433 103.515 144.317 103.467 144.196 103.467H142.831C142.71 103.467 142.594 103.515 142.509 103.6C142.423 103.685 142.375 103.8 142.375 103.92H141.009C141.009 103.8 140.961 103.685 140.876 103.6C140.791 103.515 140.675 103.467 140.554 103.467H139.188C139.068 103.467 138.952 103.515 138.866 103.6C138.781 103.685 138.733 103.8 138.733 103.92H137.367C137.367 103.8 137.319 103.685 137.234 103.6C137.148 103.515 137.033 103.467 136.912 103.467H135.546C135.425 103.467 135.309 103.515 135.224 103.6C135.139 103.685 135.091 103.8 135.091 103.92H133.725C133.725 103.8 133.677 103.685 133.592 103.6C133.506 103.515 133.39 103.467 133.27 103.467H131.904C131.783 103.467 131.667 103.515 131.582 103.6C131.496 103.685 131.448 103.8 131.448 103.92H130.083C130.083 103.8 130.035 103.685 129.949 103.6C129.864 103.515 129.748 103.467 129.627 103.467H128.262C128.141 103.467 128.025 103.515 127.94 103.6C127.854 103.685 127.806 103.8 127.806 103.92H126.44C126.44 103.8 126.392 103.685 126.307 103.6C126.222 103.515 126.106 103.467 125.985 103.467H124.619C124.499 103.467 124.383 103.515 124.297 103.6C124.212 103.685 124.164 103.8 124.164 103.92H122.798C122.798 103.8 122.75 103.685 122.665 103.6C122.579 103.515 122.464 103.467 122.343 103.467H120.977C120.856 103.467 120.74 103.515 120.655 103.6C120.57 103.685 120.522 103.8 120.522 103.92H119.156C119.156 103.8 119.108 103.685 119.023 103.6C118.937 103.515 118.821 103.467 118.701 103.467H117.335C117.214 103.467 117.098 103.515 117.013 103.6C116.927 103.685 116.879 103.8 116.879 103.92H115.514C115.514 103.8 115.466 103.685 115.38 103.6C115.295 103.515 115.179 103.467 115.058 103.467H113.693C113.572 103.467 113.456 103.515 113.371 103.6C113.285 103.685 113.237 103.8 113.237 103.92H111.871C111.871 103.8 111.823 103.685 111.738 103.6C111.653 103.515 111.537 103.467 111.416 103.467H110.05C109.93 103.467 109.814 103.515 109.728 103.6C109.643 103.685 109.595 103.8 109.595 103.92H108.229C108.229 103.8 108.181 103.685 108.096 103.6C108.01 103.515 107.895 103.467 107.774 103.467H106.408C106.287 103.467 106.171 103.515 106.086 103.6C106.001 103.685 105.953 103.8 105.953 103.92H101.628C101.266 103.921 100.919 104.064 100.663 104.319C100.407 104.574 100.264 104.92 100.264 105.28C100.264 105.641 100.407 105.986 100.663 106.241C100.919 106.496 101.266 106.64 101.628 106.64H148.977C149.339 106.64 149.686 106.497 149.943 106.242C150.199 105.987 150.343 105.641 150.343 105.28C150.343 104.92 150.199 104.574 149.943 104.319C149.686 104.064 149.339 103.92 148.977 103.92Z" fill="#3F3D56"/>
<path d="M94.5868 96.0223V105.053H71.8651C71.2563 105.074 70.6495 104.973 70.0809 104.755C69.5122 104.538 68.9934 104.209 68.5552 103.787C68.1171 103.366 67.7686 102.861 67.5306 102.303C67.2926 101.744 67.17 101.144 67.17 100.538C67.17 99.931 67.2926 99.3307 67.5306 98.7724C67.7686 98.214 68.1171 97.7091 68.5552 97.2878C68.9934 96.8664 69.5122 96.5372 70.0809 96.3198C70.6495 96.1023 71.2563 96.0012 71.8651 96.0223H94.5868Z" fill="#F2F2F2"/>
<path d="M95.1449 104.983C95.1449 105.075 95.1081 105.164 95.0427 105.229C94.9773 105.294 94.8886 105.331 94.7961 105.331H71.4604C70.193 105.331 68.9775 104.829 68.0813 103.937C67.1851 103.045 66.6816 101.834 66.6816 100.572C66.6816 99.3102 67.1851 98.0998 68.0813 97.2074C68.9775 96.3151 70.193 95.8137 71.4604 95.8137H94.7961C94.8886 95.8137 94.9773 95.8503 95.0427 95.9155C95.1081 95.9806 95.1449 96.0689 95.1449 96.1611C95.1449 96.2532 95.1081 96.3415 95.0427 96.4067C94.9773 96.4718 94.8886 96.5084 94.7961 96.5084H71.4604C70.3786 96.5093 69.3415 96.9379 68.577 97.6999C67.8124 98.4619 67.3829 99.495 67.3829 100.572C67.3829 101.649 67.8124 102.682 68.577 103.444C69.3415 104.206 70.3786 104.635 71.4604 104.636H94.7961C94.8886 104.636 94.9773 104.673 95.0427 104.738C95.1081 104.803 95.1449 104.891 95.1449 104.983Z" fill="#6C63FF"/>
<path d="M94.5867 98.1062H70.1697C70.1605 98.1063 70.1514 98.1045 70.1429 98.1011C70.1344 98.0976 70.1266 98.0925 70.1201 98.086C70.1136 98.0796 70.1084 98.0719 70.1048 98.0635C70.1013 98.055 70.0995 98.0459 70.0995 98.0368C70.0995 98.0276 70.1013 98.0185 70.1048 98.0101C70.1084 98.0016 70.1136 97.9939 70.1201 97.9875C70.1266 97.981 70.1344 97.9759 70.1429 97.9724C70.1514 97.969 70.1605 97.9672 70.1697 97.9673H94.5867C94.6051 97.9674 94.6228 97.9748 94.6358 97.9878C94.6487 98.0008 94.656 98.0184 94.656 98.0368C94.656 98.0551 94.6487 98.0727 94.6358 98.0857C94.6228 98.0987 94.6051 98.1061 94.5867 98.1062Z" fill="#CCCCCC"/>
<path d="M94.5867 99.7734H70.1697C70.1605 99.7735 70.1514 99.7718 70.1429 99.7683C70.1344 99.7648 70.1266 99.7597 70.1201 99.7533C70.1136 99.7468 70.1084 99.7391 70.1048 99.7307C70.1013 99.7222 70.0995 99.7131 70.0995 99.704C70.0995 99.6948 70.1013 99.6857 70.1048 99.6773C70.1084 99.6688 70.1136 99.6612 70.1201 99.6547C70.1266 99.6482 70.1344 99.6431 70.1429 99.6397C70.1514 99.6362 70.1605 99.6345 70.1697 99.6345H94.5867C94.6051 99.6346 94.6228 99.642 94.6358 99.655C94.6487 99.668 94.656 99.6856 94.656 99.704C94.656 99.7223 94.6487 99.7399 94.6358 99.7529C94.6228 99.7659 94.6051 99.7733 94.5867 99.7734Z" fill="#CCCCCC"/>
<path d="M94.5867 101.44H70.1697C70.1605 101.441 70.1514 101.439 70.1429 101.435C70.1344 101.432 70.1266 101.427 70.1201 101.42C70.1136 101.414 70.1084 101.406 70.1048 101.398C70.1013 101.389 70.0995 101.38 70.0995 101.371C70.0995 101.362 70.1013 101.353 70.1048 101.344C70.1084 101.336 70.1136 101.328 70.1201 101.322C70.1266 101.315 70.1344 101.31 70.1429 101.307C70.1514 101.303 70.1605 101.301 70.1697 101.302H94.5867C94.6051 101.302 94.6228 101.309 94.6358 101.322C94.6487 101.335 94.656 101.353 94.656 101.371C94.656 101.389 94.6487 101.407 94.6358 101.42C94.6228 101.433 94.6051 101.44 94.5867 101.44Z" fill="#CCCCCC"/>
<path d="M94.5867 103.108H70.1697C70.1605 103.108 70.1514 103.106 70.1429 103.103C70.1344 103.099 70.1266 103.094 70.1201 103.088C70.1136 103.081 70.1084 103.073 70.1048 103.065C70.1013 103.056 70.0995 103.047 70.0995 103.038C70.0995 103.029 70.1013 103.02 70.1048 103.012C70.1084 103.003 70.1136 102.995 70.1201 102.989C70.1266 102.982 70.1344 102.977 70.1429 102.974C70.1514 102.97 70.1605 102.969 70.1697 102.969H94.5867C94.6051 102.969 94.6228 102.976 94.6358 102.989C94.6487 103.002 94.656 103.02 94.656 103.038C94.656 103.057 94.6487 103.074 94.6358 103.087C94.6228 103.1 94.6051 103.108 94.5867 103.108Z" fill="#CCCCCC"/>
<path d="M90.3035 86.5079V95.5385H67.5818C66.973 95.5596 66.3662 95.4585 65.7976 95.241C65.2289 95.0236 64.71 94.6944 64.2719 94.273C63.8337 93.8517 63.4853 93.3468 63.2473 92.7884C63.0093 92.2301 62.8867 91.6297 62.8867 91.0232C62.8867 90.4167 63.0093 89.8163 63.2473 89.258C63.4853 88.6996 63.8337 88.1947 64.2719 87.7734C64.71 87.352 65.2289 87.0228 65.7976 86.8054C66.3662 86.5879 66.973 86.4868 67.5818 86.5079H90.3035Z" fill="#F2F2F2"/>
<path d="M90.8617 95.4692C90.8616 95.5613 90.8249 95.6496 90.7595 95.7147C90.6941 95.7799 90.6054 95.8165 90.5129 95.8165H67.1772C66.5496 95.8165 65.9282 95.6934 65.3484 95.4543C64.7687 95.2152 64.2419 94.8647 63.7981 94.4228C63.3544 93.9809 63.0023 93.4564 62.7622 92.879C62.522 92.3017 62.3984 91.6829 62.3984 91.058C62.3984 90.4331 62.522 89.8144 62.7622 89.237C63.0023 88.6597 63.3544 88.1352 63.7981 87.6933C64.2419 87.2514 64.7687 86.9009 65.3484 86.6618C65.9282 86.4226 66.5496 86.2996 67.1772 86.2996H90.5129C90.6054 86.2996 90.6941 86.3362 90.7595 86.4013C90.8249 86.4664 90.8617 86.5548 90.8617 86.6469C90.8617 86.739 90.8249 86.8274 90.7595 86.8925C90.6941 86.9576 90.6054 86.9942 90.5129 86.9942H67.1772C66.0954 86.9952 65.0583 87.4238 64.2938 88.1858C63.5292 88.9478 63.0997 89.9809 63.0997 91.058C63.0997 92.1352 63.5292 93.1683 64.2938 93.9303C65.0583 94.6923 66.0954 95.1209 67.1772 95.1218H90.5129C90.6054 95.1219 90.6941 95.1585 90.7595 95.2236C90.8249 95.2887 90.8616 95.3771 90.8617 95.4692Z" fill="#3F3D56"/>
<path d="M90.3035 88.5918H65.8865C65.8773 88.5919 65.8682 88.5901 65.8597 88.5867C65.8512 88.5832 65.8434 88.5781 65.8369 88.5716C65.8304 88.5652 65.8252 88.5575 65.8216 88.549C65.8181 88.5406 65.8163 88.5315 65.8163 88.5224C65.8163 88.5132 65.8181 88.5041 65.8216 88.4957C65.8252 88.4872 65.8304 88.4795 65.8369 88.4731C65.8434 88.4666 65.8512 88.4615 65.8597 88.458C65.8682 88.4546 65.8773 88.4528 65.8865 88.4529H90.3035C90.3219 88.453 90.3396 88.4604 90.3525 88.4734C90.3655 88.4864 90.3728 88.504 90.3728 88.5224C90.3728 88.5407 90.3655 88.5583 90.3525 88.5713C90.3396 88.5843 90.3219 88.5917 90.3035 88.5918Z" fill="#CCCCCC"/>
<path d="M90.3035 90.259H65.8865C65.8773 90.2591 65.8682 90.2574 65.8597 90.2539C65.8512 90.2504 65.8434 90.2453 65.8369 90.2389C65.8304 90.2324 65.8252 90.2247 65.8216 90.2163C65.8181 90.2078 65.8163 90.1987 65.8163 90.1896C65.8163 90.1804 65.8181 90.1713 65.8216 90.1629C65.8252 90.1544 65.8304 90.1467 65.8369 90.1403C65.8434 90.1338 65.8512 90.1287 65.8597 90.1253C65.8682 90.1218 65.8773 90.1201 65.8865 90.1201H90.3035C90.3219 90.1202 90.3396 90.1276 90.3525 90.1406C90.3655 90.1536 90.3728 90.1712 90.3728 90.1896C90.3728 90.2079 90.3655 90.2255 90.3525 90.2385C90.3396 90.2515 90.3219 90.2589 90.3035 90.259Z" fill="#CCCCCC"/>
<path d="M90.3035 91.9263H65.8865C65.8773 91.9263 65.8682 91.9246 65.8597 91.9211C65.8512 91.9177 65.8434 91.9126 65.8369 91.9061C65.8304 91.8997 65.8252 91.892 65.8216 91.8835C65.8181 91.8751 65.8163 91.866 65.8163 91.8568C65.8163 91.8477 65.8181 91.8386 65.8216 91.8301C65.8252 91.8217 65.8304 91.814 65.8369 91.8075C65.8434 91.8011 65.8512 91.796 65.8597 91.7925C65.8682 91.789 65.8773 91.7873 65.8865 91.7874H90.3035C90.3219 91.7875 90.3396 91.7949 90.3525 91.8079C90.3655 91.8209 90.3728 91.8385 90.3728 91.8568C90.3728 91.8752 90.3655 91.8928 90.3525 91.9058C90.3396 91.9188 90.3219 91.9262 90.3035 91.9263Z" fill="#CCCCCC"/>
<path d="M90.3035 93.5935H65.8865C65.8773 93.5936 65.8682 93.5918 65.8597 93.5884C65.8512 93.5849 65.8434 93.5798 65.8369 93.5734C65.8304 93.5669 65.8252 93.5592 65.8216 93.5508C65.8181 93.5423 65.8163 93.5332 65.8163 93.5241C65.8163 93.5149 65.8181 93.5058 65.8216 93.4974C65.8252 93.4889 65.8304 93.4812 65.8369 93.4748C65.8434 93.4683 65.8512 93.4632 65.8597 93.4597C65.8682 93.4563 65.8773 93.4545 65.8865 93.4546H90.3035C90.3219 93.4547 90.3396 93.4621 90.3525 93.4751C90.3655 93.4881 90.3728 93.5057 90.3728 93.5241C90.3728 93.5424 90.3655 93.56 90.3525 93.573C90.3396 93.586 90.3219 93.5934 90.3035 93.5935Z" fill="#CCCCCC"/>
<path d="M116.736 137.152V129.278C116.736 128.93 116.597 128.596 116.35 128.35C116.103 128.104 115.767 127.966 115.418 127.966H85.4351C85.0856 127.966 84.7504 128.104 84.5032 128.35C84.256 128.596 84.1172 128.93 84.1172 129.278V137.152H116.736Z" fill="#CCCCCC"/>
<path d="M116.736 140.105H84.1172V150.275H116.736V140.105Z" fill="#CCCCCC"/>
<path d="M84.1172 153.228V161.102C84.1172 161.45 84.256 161.784 84.5032 162.03C84.7504 162.276 85.0856 162.414 85.4351 162.414H115.418C115.767 162.414 116.103 162.276 116.35 162.03C116.597 161.784 116.736 161.45 116.736 161.102V153.228H84.1172Z" fill="#CCCCCC"/>
<path d="M100.262 133.871C100.808 133.871 101.25 133.43 101.25 132.887C101.25 132.343 100.808 131.903 100.262 131.903C99.7158 131.903 99.2733 132.343 99.2733 132.887C99.2733 133.43 99.7158 133.871 100.262 133.871Z" fill="white"/>
<path d="M100.262 146.994C100.808 146.994 101.25 146.554 101.25 146.01C101.25 145.467 100.808 145.026 100.262 145.026C99.7158 145.026 99.2733 145.467 99.2733 146.01C99.2733 146.554 99.7158 146.994 100.262 146.994Z" fill="white"/>
<path d="M100.315 159.84C100.861 159.84 101.303 159.399 101.303 158.855C101.303 158.312 100.861 157.871 100.315 157.871C99.7688 157.871 99.3263 158.312 99.3263 158.855C99.3263 159.399 99.7688 159.84 100.315 159.84Z" fill="white"/>
<path d="M113.038 118.988V128.019H90.316C89.7072 128.04 89.1004 127.938 88.5318 127.721C87.9631 127.504 87.4442 127.174 87.0061 126.753C86.5679 126.332 86.2195 125.827 85.9815 125.268C85.7435 124.71 85.6208 124.11 85.6208 123.503C85.6208 122.897 85.7435 122.296 85.9815 121.738C86.2195 121.18 86.5679 120.675 87.0061 120.253C87.4442 119.832 87.9631 119.503 88.5318 119.285C89.1004 119.068 89.7072 118.967 90.316 118.988H113.038Z" fill="#F2F2F2"/>
<path d="M113.596 127.949C113.596 128.041 113.559 128.13 113.494 128.195C113.428 128.26 113.339 128.296 113.247 128.296H89.9113C89.2834 128.297 88.6615 128.174 88.0813 127.935C87.501 127.696 86.9738 127.346 86.5296 126.904C86.0854 126.462 85.7331 125.937 85.4927 125.36C85.2523 124.782 85.1285 124.163 85.1285 123.538C85.1285 122.913 85.2523 122.294 85.4927 121.716C85.7331 121.139 86.0854 120.614 86.5296 120.172C86.9738 119.73 87.501 119.38 88.0813 119.141C88.6615 118.902 89.2834 118.779 89.9113 118.78H113.247C113.339 118.78 113.428 118.816 113.494 118.881C113.559 118.946 113.596 119.035 113.596 119.127C113.596 119.219 113.559 119.307 113.494 119.372C113.428 119.438 113.339 119.474 113.247 119.474H89.9113C88.8295 119.475 87.7924 119.904 87.0278 120.666C86.2633 121.428 85.8338 122.461 85.8338 123.538C85.8338 124.615 86.2633 125.648 87.0278 126.41C87.7924 127.172 88.8295 127.601 89.9113 127.602H113.247C113.339 127.602 113.428 127.638 113.494 127.704C113.559 127.769 113.596 127.857 113.596 127.949Z" fill="#3F3D56"/>
<path d="M113.038 121.072H88.6206C88.6114 121.072 88.6023 121.07 88.5938 121.067C88.5852 121.063 88.5775 121.058 88.5709 121.052C88.5644 121.045 88.5592 121.037 88.5557 121.029C88.5522 121.021 88.5504 121.011 88.5504 121.002C88.5504 120.993 88.5522 120.984 88.5557 120.976C88.5592 120.967 88.5644 120.96 88.5709 120.953C88.5775 120.947 88.5852 120.941 88.5938 120.938C88.6023 120.935 88.6114 120.933 88.6206 120.933H113.038C113.056 120.933 113.074 120.94 113.087 120.953C113.1 120.966 113.107 120.984 113.107 121.002C113.107 121.021 113.1 121.038 113.087 121.051C113.074 121.064 113.056 121.072 113.038 121.072Z" fill="#CCCCCC"/>
<path d="M113.038 122.739H88.6206C88.6114 122.739 88.6023 122.737 88.5938 122.734C88.5852 122.73 88.5775 122.725 88.5709 122.719C88.5644 122.712 88.5592 122.705 88.5557 122.696C88.5522 122.688 88.5504 122.679 88.5504 122.67C88.5504 122.66 88.5522 122.651 88.5557 122.643C88.5592 122.634 88.5644 122.627 88.5709 122.62C88.5775 122.614 88.5852 122.609 88.5938 122.605C88.6023 122.602 88.6114 122.6 88.6206 122.6H113.038C113.056 122.6 113.074 122.608 113.087 122.621C113.1 122.634 113.107 122.651 113.107 122.67C113.107 122.688 113.1 122.705 113.087 122.719C113.074 122.732 113.056 122.739 113.038 122.739Z" fill="#CCCCCC"/>
<path d="M113.038 124.406H88.6206C88.6114 124.406 88.6023 124.404 88.5938 124.401C88.5852 124.397 88.5775 124.392 88.5709 124.386C88.5644 124.379 88.5592 124.372 88.5557 124.363C88.5522 124.355 88.5504 124.346 88.5504 124.337C88.5504 124.327 88.5522 124.318 88.5557 124.31C88.5592 124.301 88.5644 124.294 88.5709 124.287C88.5775 124.281 88.5852 124.276 88.5938 124.272C88.6023 124.269 88.6114 124.267 88.6206 124.267H113.038C113.056 124.267 113.074 124.275 113.087 124.288C113.1 124.301 113.107 124.318 113.107 124.337C113.107 124.355 113.1 124.372 113.087 124.386C113.074 124.399 113.056 124.406 113.038 124.406Z" fill="#CCCCCC"/>
<path d="M113.038 126.073H88.6206C88.6114 126.073 88.6023 126.072 88.5938 126.068C88.5852 126.065 88.5775 126.06 88.5709 126.053C88.5644 126.047 88.5592 126.039 88.5557 126.03C88.5522 126.022 88.5504 126.013 88.5504 126.004C88.5504 125.995 88.5522 125.986 88.5557 125.977C88.5592 125.969 88.5644 125.961 88.5709 125.955C88.5775 125.948 88.5852 125.943 88.5938 125.939C88.6023 125.936 88.6114 125.934 88.6206 125.934H113.038C113.056 125.934 113.074 125.942 113.087 125.955C113.1 125.968 113.107 125.985 113.107 126.004C113.107 126.022 113.1 126.04 113.087 126.053C113.074 126.066 113.056 126.073 113.038 126.073Z" fill="#CCCCCC"/>
<path d="M82.4063 60.0458V2.46764C82.4071 1.81341 82.6684 1.18619 83.133 0.723579C83.5976 0.260969 84.2274 0.000744165 84.8845 0H130.593C131.25 0.000748498 131.88 0.260975 132.344 0.723584C132.809 1.18619 133.07 1.81341 133.071 2.46764V60.0458C133.07 60.7001 132.809 61.3273 132.344 61.7899C131.88 62.2525 131.25 62.5127 130.593 62.5135H84.8845C84.2274 62.5127 83.5976 62.2525 83.133 61.7899C82.6684 61.3273 82.4071 60.7001 82.4063 60.0458ZM84.8845 0.548365C84.3734 0.548935 83.8835 0.751328 83.5222 1.11114C83.1608 1.47095 82.9576 1.95879 82.957 2.46764V60.0458C82.9576 60.5547 83.1608 61.0425 83.5222 61.4023C83.8835 61.7621 84.3734 61.9645 84.8845 61.9651H130.593C131.104 61.9645 131.594 61.7621 131.955 61.4023C132.316 61.0425 132.52 60.5547 132.52 60.0458V2.46764C132.52 1.95879 132.316 1.47095 131.955 1.11114C131.594 0.751328 131.104 0.548936 130.593 0.548365H84.8845Z" fill="#E6E6E6"/>
<path d="M110.302 26.4427V14.6201C110.302 14.2929 110.433 13.9793 110.665 13.748C110.897 13.5167 111.212 13.3866 111.541 13.3862H121.602C121.931 13.3866 122.246 13.5167 122.478 13.748C122.71 13.9793 122.841 14.2929 122.841 14.6201V26.4427C122.841 26.7698 122.71 27.0834 122.478 27.3147C122.246 27.546 121.931 27.6761 121.602 27.6765H111.541C111.212 27.6761 110.897 27.546 110.665 27.3147C110.433 27.0834 110.302 26.7698 110.302 26.4427Z" fill="#6C63FF"/>
<path d="M90.7518 31.9263V20.1037C90.7522 19.7766 90.8829 19.463 91.1152 19.2316C91.3474 19.0003 91.6624 18.8702 91.9909 18.8699H102.052C102.381 18.8702 102.696 19.0003 102.928 19.2316C103.16 19.463 103.291 19.7766 103.291 20.1037V31.9263C103.291 32.2534 103.16 32.567 102.928 32.7984C102.696 33.0297 102.381 33.1598 102.052 33.1601H91.9909C91.6624 33.1598 91.3474 33.0297 91.1152 32.7983C90.8829 32.567 90.7522 32.2534 90.7518 31.9263Z" fill="#CCCCCC"/>
<path d="M106.447 48.6514V36.8288C106.447 36.5017 106.578 36.188 106.81 35.9567C107.042 35.7254 107.357 35.5953 107.686 35.595H117.747C118.076 35.5953 118.391 35.7254 118.623 35.9567C118.855 36.188 118.986 36.5017 118.986 36.8288V48.6514C118.986 48.9785 118.855 49.2921 118.623 49.5235C118.391 49.7548 118.076 49.8849 117.747 49.8852H107.686C107.357 49.8849 107.042 49.7548 106.81 49.5235C106.578 49.2921 106.447 48.9785 106.447 48.6514Z" fill="#FF6584"/>
<path d="M166.573 102.704H156.221C156.122 102.703 156.025 102.726 155.937 102.769L153.324 104.072C153.238 104.108 153.165 104.169 153.114 104.246C153.062 104.324 153.035 104.415 153.035 104.508C153.035 104.601 153.062 104.692 153.114 104.77C153.165 104.847 153.238 104.908 153.324 104.944L155.937 106.247C156.025 106.29 156.122 106.313 156.221 106.312H166.573C166.715 106.321 166.856 106.273 166.963 106.179C167.07 106.085 167.136 105.952 167.146 105.81V103.206C167.136 103.064 167.07 102.931 166.963 102.837C166.856 102.743 166.715 102.695 166.573 102.704Z" fill="#3F3D56"/>
<path d="M167.146 103.206V105.81C167.136 105.952 167.07 106.085 166.963 106.179C166.856 106.273 166.715 106.321 166.573 106.312H164.51V102.704H166.573C166.715 102.695 166.856 102.743 166.963 102.837C167.07 102.931 167.136 103.064 167.146 103.206Z" fill="#6C63FF"/>
<path d="M166.495 83.2154C166.964 83.0139 167.47 82.9133 167.981 82.9203C168.491 82.9272 168.995 83.0415 169.458 83.2557C169.921 83.4699 170.334 83.7791 170.669 84.1631C171.003 84.5471 171.253 84.9972 171.401 85.4839C171.447 85.6382 171.482 85.7955 171.506 85.9547L185.983 93.103L189.333 90.8922L193.502 95.6708L188.386 99.8078C187.771 100.301 187.013 100.584 186.223 100.615C185.434 100.645 184.655 100.421 184.004 99.9762L169.316 89.862C169.207 89.9082 169.095 89.9487 168.982 89.9834C168.493 90.1307 167.978 90.1734 167.471 90.1088C166.965 90.0441 166.478 89.8737 166.042 89.6085C165.606 89.3433 165.231 88.9894 164.942 88.57C164.654 88.1506 164.457 87.6752 164.365 87.1748C164.338 87.0296 164.32 86.8828 164.312 86.7353C164.271 85.9968 164.458 85.2636 164.849 84.6343C165.239 84.005 165.813 83.5098 166.495 83.2154Z" fill="#FFB8B8"/>
<path d="M196.647 127.227H180.829C180.829 127.68 164.526 128.047 164.526 128.047C164.27 128.239 164.037 128.459 163.831 128.703C163.212 129.439 162.873 130.368 162.875 131.328V131.984C162.876 133.072 163.31 134.115 164.082 134.884C164.854 135.653 165.902 136.085 166.994 136.085H196.647C197.739 136.084 198.786 135.652 199.558 134.883C200.33 134.114 200.765 133.072 200.766 131.984V131.328C200.764 130.241 200.33 129.199 199.558 128.43C198.786 127.661 197.739 127.229 196.647 127.227Z" fill="#3F3D56"/>
<path d="M179.441 163.481H183.724V135.922H179.441V163.481Z" fill="#3F3D56"/>
<path d="M167.25 163.331C167.25 163.792 173.74 163.51 181.747 163.51C189.753 163.51 196.244 163.792 196.244 163.331C196.244 162.87 189.753 159.216 181.747 159.216C173.74 159.216 167.25 162.87 167.25 163.331Z" fill="#3F3D56"/>
<path d="M171.116 160.101L167.077 160.101L165.155 149.669L171.117 149.669L171.116 160.101Z" fill="#FFB8B8"/>
<path d="M172.147 164L159.122 163.999V163.835C159.122 163.172 159.253 162.516 159.508 161.904C159.763 161.291 160.136 160.735 160.607 160.266C161.078 159.797 161.637 159.425 162.252 159.172C162.867 158.918 163.526 158.787 164.192 158.787H164.192L172.147 158.788L172.147 164Z" fill="#2F2E41"/>
<path d="M165.075 153.632L157.022 135.651C156.35 134.135 156.275 132.423 156.814 130.855C157.352 129.288 158.464 127.98 159.928 127.192L177.395 117.865L185.365 117.19L192.717 116.524L192.77 116.614C192.838 116.728 194.419 119.447 193.35 122.428C192.54 124.689 190.431 126.456 187.084 127.678C179.271 130.531 170.245 132.969 166.727 133.885C166.571 133.924 166.426 133.996 166.3 134.096C166.175 134.195 166.072 134.32 165.998 134.462C165.924 134.602 165.88 134.756 165.869 134.914C165.858 135.072 165.88 135.231 165.933 135.38L173.415 152.117C173.493 152.329 173.521 152.557 173.497 152.781C173.473 153.006 173.397 153.223 173.276 153.414C173.155 153.605 172.991 153.766 172.798 153.884C172.604 154.002 172.386 154.074 172.16 154.095L166.57 154.5C166.522 154.505 166.475 154.507 166.428 154.507C166.142 154.507 165.861 154.424 165.621 154.269C165.381 154.114 165.191 153.893 165.075 153.632Z" fill="#2F2E41"/>
<path d="M173.093 160.101L169.054 160.101L167.132 149.669L173.094 149.669L173.093 160.101Z" fill="#FFB8B8"/>
<path d="M174.123 164L161.099 163.999V163.835C161.099 163.172 161.23 162.516 161.485 161.904C161.74 161.291 162.113 160.735 162.584 160.266C163.055 159.797 163.613 159.425 164.228 159.172C164.844 158.918 165.503 158.787 166.168 158.787H166.169L174.124 158.788L174.123 164Z" fill="#2F2E41"/>
<path d="M167.381 154.616L159.328 136.635C158.656 135.119 158.582 133.407 159.12 131.84C159.659 130.272 160.77 128.964 162.234 128.176L179.701 118.849L187.671 118.174L195.024 117.509L195.077 117.598C195.144 117.712 196.725 120.431 195.657 123.412C194.846 125.673 192.738 127.44 189.39 128.662C181.577 131.515 172.551 133.953 169.033 134.869C168.877 134.908 168.732 134.98 168.607 135.08C168.481 135.179 168.378 135.304 168.304 135.446C168.231 135.586 168.187 135.74 168.176 135.898C168.164 136.056 168.186 136.215 168.24 136.364L175.721 153.101C175.799 153.313 175.827 153.541 175.803 153.766C175.779 153.99 175.704 154.207 175.582 154.398C175.461 154.589 175.297 154.75 175.104 154.868C174.91 154.986 174.692 155.058 174.466 155.079L168.876 155.485C168.828 155.489 168.781 155.491 168.734 155.491C168.448 155.491 168.168 155.409 167.928 155.253C167.688 155.098 167.498 154.877 167.381 154.616Z" fill="#2F2E41"/>
<path d="M163.368 99.6855C159.984 95.2035 157.309 90.2322 155.435 84.9442C155.327 84.6279 155.334 84.2835 155.457 83.9724C155.58 83.6612 155.809 83.4034 156.105 83.245L167.684 77.0667C167.872 76.966 168.079 76.9092 168.292 76.9006C168.505 76.892 168.717 76.9318 168.912 77.0171C169.11 77.103 169.286 77.2329 169.427 77.3968C169.568 77.5608 169.669 77.7545 169.723 77.9633C171.07 83.0589 173.604 87.767 177.118 91.7068C177.263 91.8672 177.369 92.0583 177.428 92.2656C177.487 92.4729 177.498 92.691 177.46 92.9032C177.423 93.112 177.339 93.3097 177.214 93.4813C177.089 93.6529 176.927 93.7938 176.739 93.8934L165.159 100.072C164.863 100.229 164.52 100.276 164.192 100.206C163.864 100.135 163.572 99.9507 163.368 99.6855Z" fill="#CCCCCC"/>
<path d="M164.158 99.0942C164.22 99.1716 164.307 99.2249 164.405 99.245C164.503 99.2651 164.604 99.2506 164.692 99.2041L176.272 93.0257C176.328 92.9965 176.377 92.9547 176.414 92.9037C176.451 92.8526 176.476 92.7936 176.487 92.7314C176.499 92.6657 176.496 92.598 176.477 92.5338C176.458 92.4696 176.425 92.4106 176.38 92.3613C172.762 88.3055 170.154 83.4586 168.766 78.2128C168.75 78.148 168.72 78.0878 168.676 78.0368C168.633 77.9859 168.578 77.9456 168.517 77.9192C168.459 77.8934 168.396 77.8813 168.332 77.8839C168.269 77.8865 168.207 77.9037 168.151 77.9343L156.571 84.1125C156.484 84.1597 156.415 84.2359 156.378 84.328C156.341 84.4201 156.337 84.5222 156.367 84.6168C158.207 89.8101 160.834 94.6924 164.158 99.0942Z" fill="white"/>
<path d="M201.837 98.0373L192.768 101.469L190.554 95.3446C190.26 94.5314 190.264 93.6409 190.566 92.8305C190.867 92.02 191.447 91.3418 192.202 90.9157C192.966 90.4847 193.859 90.3398 194.721 90.5074C195.583 90.6749 196.356 91.1437 196.901 91.8292L201.837 98.0373Z" fill="#6C63FF"/>
<path d="M178.77 122.302C178.579 122.168 178.419 121.995 178.301 121.794C178.183 121.593 178.108 121.37 178.084 121.138C176.922 110.341 177.731 101.892 180.557 95.3067C181.054 94.1709 181.804 93.1623 182.749 92.3565C183.695 91.5508 184.811 90.9689 186.015 90.6546L193.346 90.2861L193.384 90.3044C195.038 91.1112 196.387 92.4274 197.231 94.0577C198.075 95.6881 198.369 97.5459 198.069 99.3556C195.711 105.544 193.737 111.988 195.242 117.186C195.305 117.403 195.324 117.631 195.296 117.855C195.269 118.08 195.196 118.297 195.083 118.492C194.973 118.682 194.825 118.847 194.648 118.977C194.472 119.107 194.27 119.2 194.056 119.25L180.093 122.557C179.867 122.611 179.632 122.616 179.404 122.572C179.176 122.528 178.96 122.436 178.77 122.302Z" fill="#6C63FF"/>
<path d="M190.899 87.5596C195.369 87.5596 198.992 83.9519 198.992 79.5016C198.992 75.0513 195.369 71.4436 190.899 71.4436C186.43 71.4436 182.807 75.0513 182.807 79.5016C182.807 83.9519 186.43 87.5596 190.899 87.5596Z" fill="#FFB8B8"/>
<path d="M168.444 85.8839L162.138 88.656C161.898 88.7612 161.626 88.7672 161.381 88.6729C161.137 88.5787 160.94 88.3917 160.834 88.1531L160.678 87.8012C160.573 87.5624 160.566 87.2916 160.661 87.0483C160.756 86.805 160.944 86.609 161.183 86.5033L167.49 83.7312C167.73 83.6261 168.002 83.62 168.246 83.7143C168.491 83.8086 168.687 83.9955 168.793 84.2341L168.949 84.586C169.055 84.8248 169.061 85.0956 168.966 85.339C168.872 85.5823 168.684 85.7782 168.444 85.8839Z" fill="#CCCCCC"/>
<path d="M170.751 90.1488L164.444 92.9209C164.204 93.0261 163.932 93.0321 163.688 92.9379C163.443 92.8436 163.247 92.6566 163.141 92.418L162.985 92.0661C162.879 91.8273 162.873 91.5565 162.968 91.3132C163.062 91.0699 163.25 90.8739 163.49 90.7682L169.796 87.9961C170.036 87.891 170.308 87.8849 170.553 87.9792C170.797 88.0735 170.994 88.2604 171.1 88.499L171.256 88.8509C171.361 89.0897 171.367 89.3605 171.273 89.6038C171.178 89.8472 170.99 90.0431 170.751 90.1488Z" fill="#CCCCCC"/>
<path d="M175.614 106.808L161.554 95.7628C161.442 95.802 161.328 95.8355 161.213 95.8631C160.716 95.9787 160.201 95.989 159.701 95.8934C159.2 95.7978 158.725 95.5984 158.307 95.3082C157.887 95.0177 157.533 94.6411 157.27 94.2036C157.007 93.766 156.841 93.2776 156.783 92.771C156.689 91.9611 156.872 91.1433 157.303 90.4502C157.734 89.7571 158.388 89.2294 159.158 88.9527C159.639 88.781 160.151 88.7124 160.66 88.7513C161.169 88.7903 161.664 88.9359 162.113 89.1786C162.562 89.4214 162.954 89.7558 163.264 90.16C163.574 90.5642 163.795 91.029 163.911 91.524C163.948 91.6809 163.973 91.8401 163.987 92.0004L177.984 100.041L181.467 98.044L185.325 103.074L179.917 106.912C179.284 107.358 178.524 107.589 177.748 107.57C176.973 107.551 176.225 107.284 175.614 106.808Z" fill="#FFB8B8"/>
<path d="M187.041 104.64L179.019 99.2082L182.789 93.891C183.289 93.185 184.025 92.6779 184.864 92.4594C185.704 92.2409 186.594 92.325 187.378 92.6968C188.171 93.073 188.802 93.719 189.158 94.5182C189.514 95.3173 189.572 96.217 189.32 97.0546L187.041 104.64Z" fill="#6C63FF"/>
<path d="M187.932 78.3014C185.852 79.7189 183.122 81.176 180.997 79.6665C179.602 78.6753 179.163 76.8399 179.729 75.2293C180.746 72.3328 183.54 71.0576 186.213 70.0802C189.687 68.8095 193.47 67.7986 197.056 68.7086C200.643 69.6186 203.813 73.0763 203.165 76.7049C202.644 79.6229 199.88 82.0509 200.273 84.9888C200.668 87.9455 204.007 89.5018 206.955 90.0303C209.903 90.5587 213.202 90.7285 215.321 92.8371C218.023 95.527 217.349 100.335 214.805 103.175C212.262 106.015 208.424 107.302 204.706 108.177C199.778 109.337 194.449 109.946 189.77 108.022C185.09 106.097 181.448 100.917 182.804 96.06C183.377 94.0083 184.725 92.2743 186.029 90.5861C187.333 88.898 188.653 87.1328 189.15 85.0616C189.564 83.3357 189.258 81.3318 188.108 80.0371C187.899 79.8105 187.768 79.5238 187.732 79.2181C187.697 78.9123 187.76 78.6034 187.912 78.3356L187.932 78.3014Z" fill="#2F2E41"/>
<path d="M35.937 117.453C33.8518 118.182 31.6129 118.365 29.4361 117.983C27.2593 117.602 25.2179 116.668 23.5087 115.272C19.1556 111.634 17.7908 105.641 16.6803 100.091C15.5854 94.6186 14.4905 89.1467 13.3956 83.6748L20.2724 88.3898C25.2178 91.7806 30.2745 95.2799 33.6987 100.191C37.1229 105.103 38.6175 111.807 35.8663 117.121" fill="#E6E6E6"/>
<path d="M35.3492 137.327C36.0453 132.279 36.761 127.166 36.2727 122.063C35.8391 117.532 34.4507 113.106 31.6242 109.477C30.1238 107.554 28.2982 105.907 26.2293 104.609C25.6898 104.27 25.1933 105.121 25.7304 105.459C29.3101 107.711 32.0789 111.038 33.6376 114.959C35.359 119.319 35.6355 124.072 35.3388 128.703C35.1594 131.504 34.7792 134.287 34.3961 137.066C34.3659 137.191 34.3847 137.324 34.4488 137.436C34.5129 137.548 34.6174 137.632 34.7413 137.671C34.8676 137.705 35.0023 137.688 35.1161 137.623C35.23 137.559 35.3137 137.453 35.3492 137.327H35.3492Z" fill="#F2F2F2"/>
<path d="M28.6453 128.394C27.751 129.747 26.5217 130.849 25.0758 131.592C23.63 132.335 22.0163 132.694 20.3903 132.636C16.2114 132.439 12.7276 129.535 9.59152 126.777L0.315582 118.622L6.45472 118.33C10.8696 118.119 15.3984 117.923 19.6035 119.279C23.8085 120.634 27.6866 123.897 28.4555 128.231" fill="#E6E6E6"/>
<path d="M37.3162 140.229C33.9662 134.327 30.0804 127.767 23.1372 125.67C21.2066 125.089 19.1823 124.881 17.1732 125.057C16.54 125.111 16.6981 126.083 17.3302 126.029C20.6978 125.75 24.0589 126.636 26.8477 128.536C29.5313 130.355 31.6207 132.884 33.3892 135.565C34.4725 137.208 35.4428 138.92 36.4133 140.63C36.7235 141.176 37.63 140.782 37.3162 140.229Z" fill="#F2F2F2"/>
<path d="M42.684 146.442C42.5711 145.14 42.1015 143.893 41.3264 142.838C40.5512 141.783 39.5002 140.96 38.2878 140.459V137.046H32.5401V140.566C31.3874 141.092 30.3953 141.913 29.6651 142.945C28.9349 143.977 28.4926 145.184 28.3833 146.442L27.0318 162.086H44.0355L42.684 146.442Z" fill="#F2F2F2"/>
</g>
<defs>
<clipPath id="clip0_14_236">
<rect width="228" height="164" fill="white"/>
</clipPath>
</defs>
</svg>
